0
SECTION
2
HEADER
9
$INSUNITS
70
4
9
$ACADVER
1
AC1014
9
$HANDSEED
5
FFFF
0
ENDSEC
0
SECTION
2
TABLES
0
TABLE
2
VPORT
5
8
100
AcDbSymbolTable
0
ENDTAB
0
TABLE
2
LTYPE
5
5
100
AcDbSymbolTable
0
LTYPE
5
14
100
AcDbSymbolTableRecord
100
AcDbLinetypeTableRecord
2
BYBLOCK
70
0
0
LTYPE
5
15
100
AcDbSymbolTableRecord
100
AcDbLinetypeTableRecord
2
BYLAYER
70
0
0
LTYPE
5
16
100
AcDbSymbolTableRecord
100
AcDbLinetypeTableRecord
2
DASHED
70
0
3
Dashed __ __ __ __ __ __ __ __ __ __ __ __ __ _
72
65
73
2
40
0.75
49
0.5
74
0
49
-0.25
74
0
0
ENDTAB
0
TABLE
2
LAYER
5
2
100
AcDbSymbolTable
70
2
0
LAYER
5
50
100
AcDbSymbolTableRecord
100
AcDbLayerTableRecord
2
0
70
0
62
7
6
CONTINUOUS
0
ENDTAB
0
TABLE
2
STYLE
5
3
100
AcDbSymbolTable
70
1
0
STYLE
5
11
100
AcDbSymbolTableRecord
100
AcDbTextStyleTableRecord
2
STANDARD
70
0
0
ENDTAB
0
TABLE
2
VIEW
5
6
100
AcDbSymbolTable
70
0
0
ENDTAB
0
TABLE
2
UCS
5
7
100
AcDbSymbolTable
70
0
0
ENDTAB
0
TABLE
2
APPID
5
9
100
AcDbSymbolTable
70
2
0
APPID
5
12
100
AcDbSymbolTableRecord
100
AcDbRegAppTableRecord
2
ACAD
70
0
0
ENDTAB
0
TABLE
2
DIMSTYLE
5
A
100
AcDbSymbolTable
70
1
0
ENDTAB
0
TABLE
2
BLOCK_RECORD
5
1
100
AcDbSymbolTable
70
1
0
BLOCK_RECORD
5
1F
100
AcDbSymbolTableRecord
100
AcDbBlockTableRecord
2
*MODEL_SPACE
0
BLOCK_RECORD
5
1B
100
AcDbSymbolTableRecord
100
AcDbBlockTableRecord
2
*PAPER_SPACE
0
ENDTAB
0
ENDSEC
0
SECTION
2
BLOCKS
0
BLOCK
5
20
100
AcDbEntity
100
AcDbBlockBegin
2
*MODEL_SPACE
0
ENDBLK
5
21
100
AcDbEntity
100
AcDbBlockEnd
0
BLOCK
5
1C
100
AcDbEntity
100
AcDbBlockBegin
2
*PAPER_SPACE
0
ENDBLK
5
1D
100
AcDbEntity
100
AcDbBlockEnd
0
ENDSEC
0
SECTION
2
ENTITIES
0
POINT
5
100
100
AcDbEntity
8
0
100
AcDbPoint
10
0
20
0
30
0
0
POINT
5
101
100
AcDbEntity
8
0
100
AcDbPoint
10
-19.999999988223259
20
-31.721443806639392
30
0
0
POINT
5
102
100
AcDbEntity
8
0
100
AcDbPoint
10
-14.000000000000004
20
-22.499999976235586
30
0
0
POINT
5
103
100
AcDbEntity
8
0
100
AcDbPoint
10
12.000000009187467
20
-22.499999975555337
30
0
0
POINT
5
104
100
AcDbEntity
8
0
100
AcDbPoint
10
16.999999991081392
20
-33.425289781989079
30
0
0
POINT
5
105
100
AcDbEntity
8
0
100
AcDbPoint
10
0
20
0
30
0
0
POINT
5
106
100
AcDbEntity
8
0
100
AcDbPoint
10
0
20
0
30
0
0
POINT
5
107
100
AcDbEntity
8
0
100
AcDbPoint
10
0
20
-40
30
0
0
POINT
5
108
100
AcDbEntity
8
0
100
AcDbPoint
10
-39.249999975124432
20
0
30
0
0
POINT
5
109
100
AcDbEntity
8
0
100
AcDbPoint
10
-41.249999978044734
20
0
30
0
0
POINT
5
110
100
AcDbEntity
8
0
100
AcDbPoint
10
-41.249999975124432
20
3.5000000000000009
30
0
0
LWPOLYLINE
5
111
100
AcDbEntity
8
0
100
AcDbPolyline
90
8
70
1
43
0.0
10
13.336019526821424
20
-25.419280063803868
10
15.639561383373607
20
-30.452652530176078
42
0.45349230841166716
10
19.964627803423532
20
-31.743718013732185
42
3.2050860073861385
10
-22.644023170442882
20
-29.891440436405148
42
0.43530599273627602
10
-18.317926041518128
20
-29.136252054741448
10
-15.479023413366289
20
-24.773121882670111
42
-0.25373386277472554
10
-11.288064588254214
20
-22.49999996612706
10
8.7895258050606238
20
-22.499999956089482
42
-0.29340884388874378
0
LINE
5
112
100
AcDbEntity
8
0
100
AcDbLine
10
-38.288901123909049
20
-37.499999976164638
30
0
11
40.711100053282685
21
-37.499999976164638
31
0
6
DASHED
0
CIRCLE
5
113
100
AcDbEntity
8
0
100
AcDbCircle
10
0
20
0
30
0
40
45
210
0
220
0
230
1
0
LWPOLYLINE
5
114
100
AcDbEntity
8
0
100
AcDbPolyline
90
4
70
1
43
0.0
10
-3.5000000000000004
20
-40
10
3.5000000000000004
20
-40
10
3.5000000000000004
20
-45
10
-3.5000000000000004
20
-45
0
LWPOLYLINE
5
115
100
AcDbEntity
8
0
100
AcDbPolyline
90
4
70
1
43
0.0
10
-43.249999975124432
20
3.5000000000000009
10
-39.249999975124432
20
3.5000000000000009
10
-39.249999975124432
20
-3.5000000000000009
10
-43.249999975124432
20
-3.5000000000000009
0
LINE
5
116
100
AcDbEntity
8
0
100
AcDbLine
10
-45
20
0
30
0
11
-37.499999956089475
21
0
31
0
6
DASHED
0
LWPOLYLINE
5
117
100
AcDbEntity
8
0
100
AcDbPolyline
90
4
70
1
43
0.0
10
-29.69666862606827
20
-25.902130618170389
10
-32.93273660356806
20
-28.253271627340283
10
-37.047233369615377
20
-22.59015266671565
10
-33.811165392115583
20
-20.23901165754576
0
LWPOLYLINE
5
118
100
AcDbEntity
8
0
100
AcDbPolyline
90
4
70
1
43
0.0
10
-8.8002192144966749
20
-38.410527721239028
10
-10.036287191996466
20
-42.214753786419635
10
-16.693682806062544
20
-40.051634825795013
10
-15.45761482856275
20
-36.247408760614391
0
LWPOLYLINE
5
119
100
AcDbEntity
8
0
100
AcDbPolyline
90
4
70
1
43
0.0
10
15.45761482856275
20
-36.247408760614391
10
16.693682806062544
20
-40.051634825795013
10
10.036287191996466
20
-42.214753786419635
10
8.8002192144966749
20
-38.410527721239028
0
LWPOLYLINE
5
120
100
AcDbEntity
8
0
100
AcDbPolyline
90
4
70
1
43
0.0
10
33.811165392115576
20
-20.239011657545763
10
37.04723336961537
20
-22.590152666715653
10
32.932736603568053
20
-28.253271627340286
10
29.696668626068259
20
-25.902130618170393
0
LWPOLYLINE
5
121
100
AcDbEntity
8
0
100
AcDbPolyline
90
4
70
1
43
0.0
10
39.249999975124432
20
3.499999999999996
10
43.249999975124432
20
3.4999999999999956
10
43.249999975124432
20
-3.5000000000000062
10
39.249999975124432
20
-3.5000000000000058
0
LWPOLYLINE
5
122
100
AcDbEntity
8
0
100
AcDbPolyline
90
4
70
1
43
0.0
10
29.696668626068281
20
25.902130618170389
10
32.932736603568074
20
28.253271627340283
10
37.047233369615384
20
22.59015266671565
10
33.811165392115598
20
20.23901165754576
0
LWPOLYLINE
5
123
100
AcDbEntity
8
0
100
AcDbPolyline
90
4
70
1
43
0.0
10
8.8002192144966749
20
38.410527721239013
10
10.036287191996466
20
42.214753786419628
10
16.693682806062544
20
40.051634825795006
10
15.45761482856275
20
36.247408760614384
0
LWPOLYLINE
5
124
100
AcDbEntity
8
0
100
AcDbPolyline
90
4
70
1
43
0.0
10
-15.45761482856274
20
36.247408760614391
10
-16.69368280606253
20
40.051634825795013
10
-10.03628719199645
20
42.214753786419635
10
-8.8002192144966624
20
38.410527721239021
0
LWPOLYLINE
5
125
100
AcDbEntity
8
0
100
AcDbPolyline
90
4
70
1
43
0.0
10
-33.811165392115583
20
20.239011657545767
10
-37.04723336961537
20
22.59015266671566
10
-32.93273660356806
20
28.25327162734029
10
-29.696668626068266
20
25.902130618170396
0
ENDSEC
0
SECTION
2
OBJECTS
0
DICTIONARY
5
C
100
AcDbDictionary
3
ACAD_GROUP
350
D
3
ACAD_MLINESTYLE
350
17
0
DICTIONARY
5
D
100
AcDbDictionary
0
DICTIONARY
5
1A
330
C
100
AcDbDictionary
0
DICTIONARY
5
17
100
AcDbDictionary
0
ENDSEC
0
EOF
