0
SECTION
2
HEADER
9
$INSUNITS
70
4
9
$ACADVER
1
AC1014
9
$HANDSEED
5
FFFF
0
ENDSEC
0
SECTION
2
TABLES
0
TABLE
2
VPORT
5
8
100
AcDbSymbolTable
0
ENDTAB
0
TABLE
2
LTYPE
5
5
100
AcDbSymbolTable
0
LTYPE
5
14
100
AcDbSymbolTableRecord
100
AcDbLinetypeTableRecord
2
BYBLOCK
70
0
0
LTYPE
5
15
100
AcDbSymbolTableRecord
100
AcDbLinetypeTableRecord
2
BYLAYER
70
0
0
LTYPE
5
16
100
AcDbSymbolTableRecord
100
AcDbLinetypeTableRecord
2
DASHED
70
0
3
Dashed __ __ __ __ __ __ __ __ __ __ __ __ __ _
72
65
73
2
40
0.75
49
0.5
74
0
49
-0.25
74
0
0
ENDTAB
0
TABLE
2
LAYER
5
2
100
AcDbSymbolTable
70
2
0
LAYER
5
50
100
AcDbSymbolTableRecord
100
AcDbLayerTableRecord
2
0
70
0
62
7
6
CONTINUOUS
0
ENDTAB
0
TABLE
2
STYLE
5
3
100
AcDbSymbolTable
70
1
0
STYLE
5
11
100
AcDbSymbolTableRecord
100
AcDbTextStyleTableRecord
2
STANDARD
70
0
0
ENDTAB
0
TABLE
2
VIEW
5
6
100
AcDbSymbolTable
70
0
0
ENDTAB
0
TABLE
2
UCS
5
7
100
AcDbSymbolTable
70
0
0
ENDTAB
0
TABLE
2
APPID
5
9
100
AcDbSymbolTable
70
2
0
APPID
5
12
100
AcDbSymbolTableRecord
100
AcDbRegAppTableRecord
2
ACAD
70
0
0
ENDTAB
0
TABLE
2
DIMSTYLE
5
A
100
AcDbSymbolTable
70
1
0
ENDTAB
0
TABLE
2
BLOCK_RECORD
5
1
100
AcDbSymbolTable
70
1
0
BLOCK_RECORD
5
1F
100
AcDbSymbolTableRecord
100
AcDbBlockTableRecord
2
*MODEL_SPACE
0
BLOCK_RECORD
5
1B
100
AcDbSymbolTableRecord
100
AcDbBlockTableRecord
2
*PAPER_SPACE
0
ENDTAB
0
ENDSEC
0
SECTION
2
BLOCKS
0
BLOCK
5
20
100
AcDbEntity
100
AcDbBlockBegin
2
*MODEL_SPACE
0
ENDBLK
5
21
100
AcDbEntity
100
AcDbBlockEnd
0
BLOCK
5
1C
100
AcDbEntity
100
AcDbBlockBegin
2
*PAPER_SPACE
0
ENDBLK
5
1D
100
AcDbEntity
100
AcDbBlockEnd
0
ENDSEC
0
SECTION
2
ENTITIES
0
POINT
5
100
100
AcDbEntity
8
0
100
AcDbPoint
10
0
20
0
30
0
0
POINT
5
101
100
AcDbEntity
8
0
100
AcDbPoint
10
-20
20
-61.846584384264901
30
0
0
POINT
5
102
100
AcDbEntity
8
0
100
AcDbPoint
10
-14.000000000000002
20
-57
30
0
0
POINT
5
103
100
AcDbEntity
8
0
100
AcDbPoint
10
12
20
-57
30
0
0
POINT
5
104
100
AcDbEntity
8
0
100
AcDbPoint
10
17
20
-62.737548565432476
30
0
0
POINT
5
105
100
AcDbEntity
8
0
100
AcDbPoint
10
0
20
0
30
0
0
POINT
5
106
100
AcDbEntity
8
0
100
AcDbPoint
10
0
20
0
30
0
0
POINT
5
107
100
AcDbEntity
8
0
100
AcDbPoint
10
0
20
-75
30
0
0
POINT
5
108
100
AcDbEntity
8
0
100
AcDbPoint
10
-72.5
20
0
30
0
0
POINT
5
109
100
AcDbEntity
8
0
100
AcDbPoint
10
-72.5
20
2
30
0
0
POINT
5
110
100
AcDbEntity
8
0
100
AcDbPoint
10
-72.5
20
-2
30
0
0
LWPOLYLINE
5
111
100
AcDbEntity
8
0
100
AcDbPolyline
90
8
70
1
43
0.0
10
13.494591046100766
20
-58.715057742492746
10
14.885522075877384
20
-60.311164609394822
42
0.30117479619004672
10
20.209610690132212
20
-61.778407520373115
42
5.883794120378588
10
-22.72989640276522
20
-60.896238057203178
42
0.26513786651846671
10
-17.839588390828595
20
-60.101481522832493
10
-15.374696619026167
20
-58.110430527812355
42
-0.17151713467342194
10
-12.232842182639107
20
-57
10
9.7250878137455672
20
-57
42
-0.21679874259098647
0
LINE
5
112
100
AcDbEntity
8
0
100
AcDbLine
10
-46.636895265444068
20
-65
30
0
11
46.636895265444089
21
-65
31
0
6
DASHED
0
CIRCLE
5
113
100
AcDbEntity
8
0
100
AcDbCircle
10
0
20
0
30
0
40
80
210
0
220
0
230
1
0
LWPOLYLINE
5
114
100
AcDbEntity
8
0
100
AcDbPolyline
90
4
70
1
43
0.0
10
-3.75
20
-75
10
3.75
20
-75
10
3.75
20
-80
10
-3.75
20
-80
0
LINE
5
115
100
AcDbEntity
8
0
100
AcDbLine
10
-80
20
0
30
0
11
-65
21
0
31
0
6
DASHED
0
LWPOLYLINE
5
116
100
AcDbEntity
8
0
100
AcDbPolyline
90
4
70
1
43
0.0
10
-76
20
6.0000000000000009
10
-69
20
6.0000000000000009
10
-69
20
2
10
-76
20
2
0
LWPOLYLINE
5
117
100
AcDbEntity
8
0
100
AcDbPolyline
90
4
70
1
43
0.0
10
-76
20
-2
10
-69
20
-2
10
-69
20
-5.9999999999999982
10
-76
20
-5.9999999999999982
0
LWPOLYLINE
5
118
100
AcDbEntity
8
0
100
AcDbPolyline
90
4
70
1
43
0.0
10
-56.99774311645632
20
-38.939148419430744
10
-62.660862077080949
20
-43.053645185478047
10
-65.012003086250843
20
-39.81757720797826
10
-59.348884125626206
20
-35.70308044193095
0
LWPOLYLINE
5
119
100
AcDbEntity
8
0
100
AcDbPolyline
90
4
70
1
43
0.0
10
-52.295461098116533
20
-45.411284374430323
10
-57.958580058741163
20
-49.525781140477633
10
-60.309721067911049
20
-46.289713162977847
10
-54.646602107286419
20
-42.175216396930537
0
LWPOLYLINE
5
120
100
AcDbEntity
8
0
100
AcDbPolyline
90
4
70
1
43
0.0
10
-23.224285644461681
20
-65.004865635615701
10
-25.387404605086314
20
-71.662261249681777
10
-29.191630670266928
20
-70.42619327218199
10
-27.028511709642295
20
-63.768797658115908
0
LWPOLYLINE
5
121
100
AcDbEntity
8
0
100
AcDbPolyline
90
4
70
1
43
0.0
10
-15.61583351410045
20
-67.477001590615288
10
-17.778952474725084
20
-74.134397204681363
10
-21.583178539905695
20
-72.898329227181563
10
-19.420059579281062
20
-66.240933613115487
0
LWPOLYLINE
5
122
100
AcDbEntity
8
0
100
AcDbPolyline
90
4
70
1
43
0.0
10
19.420059579281062
20
-66.240933613115487
10
21.583178539905695
20
-72.898329227181563
10
17.778952474725081
20
-74.134397204681363
10
15.615833514100448
20
-67.477001590615288
0
LWPOLYLINE
5
123
100
AcDbEntity
8
0
100
AcDbPolyline
90
4
70
1
43
0.0
10
27.028511709642295
20
-63.768797658115908
10
29.191630670266928
20
-70.42619327218199
10
25.387404605086314
20
-71.662261249681777
10
23.224285644461681
20
-65.004865635615701
0
LWPOLYLINE
5
124
100
AcDbEntity
8
0
100
AcDbPolyline
90
4
70
1
43
0.0
10
54.646602107286398
20
-42.175216396930544
10
60.309721067911042
20
-46.289713162977854
10
57.958580058741155
20
-49.52578114047764
10
52.295461098116512
20
-45.411284374430338
0
LWPOLYLINE
5
125
100
AcDbEntity
8
0
100
AcDbPolyline
90
4
70
1
43
0.0
10
59.348884125626185
20
-35.703080441930965
10
65.012003086250829
20
-39.817577207978275
10
62.660862077080935
20
-43.053645185478054
10
56.997743116456299
20
-38.939148419430751
0
LWPOLYLINE
5
126
100
AcDbEntity
8
0
100
AcDbPolyline
90
4
70
1
43
0.0
10
69
20
-2.0000000000000084
10
76
20
-2.0000000000000098
10
76
20
-6.0000000000000098
10
69
20
-6.0000000000000098
0
LWPOLYLINE
5
127
100
AcDbEntity
8
0
100
AcDbPolyline
90
4
70
1
43
0.0
10
69
20
5.9999999999999893
10
76
20
5.9999999999999893
10
76
20
1.9999999999999907
10
69
20
1.9999999999999918
0
LWPOLYLINE
5
128
100
AcDbEntity
8
0
100
AcDbPolyline
90
4
70
1
43
0.0
10
56.997743116456334
20
38.939148419430744
10
62.660862077080964
20
43.053645185478047
10
65.012003086250857
20
39.81757720797826
10
59.348884125626221
20
35.70308044193095
0
LWPOLYLINE
5
129
100
AcDbEntity
8
0
100
AcDbPolyline
90
4
70
1
43
0.0
10
52.295461098116547
20
45.411284374430323
10
57.958580058741177
20
49.525781140477633
10
60.30972106791107
20
46.289713162977847
10
54.646602107286441
20
42.175216396930537
0
LWPOLYLINE
5
130
100
AcDbEntity
8
0
100
AcDbPolyline
90
4
70
1
43
0.0
10
23.224285644461673
20
65.004865635615687
10
25.38740460508631
20
71.662261249681762
10
29.191630670266928
20
70.426193272181962
10
27.028511709642295
20
63.768797658115886
0
LWPOLYLINE
5
131
100
AcDbEntity
8
0
100
AcDbPolyline
90
4
70
1
43
0.0
10
15.615833514100451
20
67.477001590615259
10
17.778952474725088
20
74.134397204681349
10
21.583178539905703
20
72.898329227181549
10
19.420059579281062
20
66.240933613115473
0
LWPOLYLINE
5
132
100
AcDbEntity
8
0
100
AcDbPolyline
90
4
70
1
43
0.0
10
-19.420059579281041
20
66.240933613115487
10
-21.583178539905671
20
72.898329227181563
10
-17.778952474725056
20
74.134397204681349
10
-15.615833514100427
20
67.477001590615274
0
LWPOLYLINE
5
133
100
AcDbEntity
8
0
100
AcDbPolyline
90
4
70
1
43
0.0
10
-27.028511709642267
20
63.768797658115915
10
-29.191630670266903
20
70.42619327218199
10
-25.387404605086289
20
71.662261249681777
10
-23.224285644461659
20
65.004865635615701
0
LWPOLYLINE
5
134
100
AcDbEntity
8
0
100
AcDbPolyline
90
4
70
1
43
0.0
10
-54.646602107286412
20
42.175216396930544
10
-60.309721067911049
20
46.289713162977861
10
-57.958580058741163
20
49.525781140477648
10
-52.295461098116519
20
45.411284374430338
0
LWPOLYLINE
5
135
100
AcDbEntity
8
0
100
AcDbPolyline
90
4
70
1
43
0.0
10
-59.348884125626199
20
35.703080441930965
10
-65.012003086250843
20
39.817577207978282
10
-62.660862077080949
20
43.053645185478061
10
-56.997743116456306
20
38.939148419430751
0
ENDSEC
0
SECTION
2
OBJECTS
0
DICTIONARY
5
C
100
AcDbDictionary
3
ACAD_GROUP
350
D
3
ACAD_MLINESTYLE
350
17
0
DICTIONARY
5
D
100
AcDbDictionary
0
DICTIONARY
5
1A
330
C
100
AcDbDictionary
0
DICTIONARY
5
17
100
AcDbDictionary
0
ENDSEC
0
EOF
