%TF.GenerationSoftware,KiCad,Pcbnew,9.0.6*%
%TF.CreationDate,2026-02-07T16:05:16+08:00*%
%TF.ProjectId,Ledx10,4c656478-3130-42e6-9b69-6361645f7063,rev?*%
%TF.SameCoordinates,Original*%
%TF.FileFunction,Legend,Top*%
%TF.FilePolarity,Positive*%
%FSLAX46Y46*%
G04 Gerber Fmt 4.6, Leading zero omitted, Abs format (unit mm)*
G04 Created by KiCad (PCBNEW 9.0.6) date 2026-02-07 16:05:16*
%MOMM*%
%LPD*%
G01*
G04 APERTURE LIST*
%ADD10C,0.400000*%
%ADD11C,0.200000*%
%ADD12C,0.300000*%
%ADD13C,0.120000*%
%ADD14C,0.150000*%
%ADD15C,0.100000*%
G04 APERTURE END LIST*
D10*
G36*
X58064648Y-157025044D02*
G01*
X56622753Y-159009641D01*
X54948392Y-157793147D01*
X55326460Y-157793147D01*
X55668104Y-158041367D01*
X57754247Y-157074207D01*
X57414776Y-156827566D01*
X55903977Y-157565463D01*
X56625576Y-156254178D01*
X56278497Y-156002011D01*
X55326460Y-157793147D01*
X54948392Y-157793147D01*
X53179902Y-156508264D01*
X53557970Y-156508264D01*
X54622818Y-157281922D01*
X54894606Y-157034990D01*
X54291344Y-156596694D01*
X54433820Y-156568882D01*
X54782690Y-156549735D01*
X55033461Y-156535804D01*
X55174185Y-156519290D01*
X55350563Y-156480444D01*
X55488806Y-156432389D01*
X55612615Y-156367112D01*
X55721298Y-156284006D01*
X55801655Y-156196036D01*
X55853921Y-156106355D01*
X55881844Y-156013290D01*
X55886748Y-155914379D01*
X55867999Y-155818633D01*
X55823430Y-155725176D01*
X55749138Y-155631760D01*
X55638580Y-155537085D01*
X55527520Y-155467475D01*
X55414314Y-155417647D01*
X55297928Y-155386316D01*
X55177104Y-155372980D01*
X55058532Y-155380563D01*
X54934703Y-155412585D01*
X54803347Y-155471951D01*
X54662356Y-155563095D01*
X54936184Y-155809291D01*
X55030777Y-155743638D01*
X55111898Y-155706365D01*
X55182598Y-155691401D01*
X55254534Y-155694111D01*
X55322624Y-155713841D01*
X55388675Y-155751612D01*
X55445154Y-155803354D01*
X55476417Y-155855027D01*
X55487496Y-155908545D01*
X55479507Y-155962781D01*
X55450168Y-156020216D01*
X55393323Y-156083456D01*
X55331069Y-156129637D01*
X55252190Y-156168365D01*
X55153418Y-156198829D01*
X55007918Y-156218732D01*
X54654320Y-156240458D01*
X54330461Y-156260899D01*
X54103077Y-156288913D01*
X53950530Y-156321152D01*
X53805693Y-156370009D01*
X53675339Y-156432433D01*
X53557970Y-156508264D01*
X53179902Y-156508264D01*
X52433976Y-155966317D01*
X52812043Y-155966317D01*
X53115848Y-156187044D01*
X54634394Y-154807501D01*
X54387893Y-154628407D01*
X54257964Y-154675836D01*
X54114056Y-154703398D01*
X53953594Y-154709870D01*
X53791117Y-154699185D01*
X53659488Y-154678731D01*
X53553994Y-154650497D01*
X53288084Y-154892039D01*
X53488670Y-154945207D01*
X53693043Y-154972972D01*
X53902714Y-154975408D01*
X52812043Y-155966317D01*
X52433976Y-155966317D01*
X52302366Y-155870697D01*
X53744261Y-153886099D01*
X58064648Y-157025044D01*
G37*
D11*
X141853490Y-157232051D02*
X141739740Y-156838602D01*
X139812693Y-158635381D01*
X141615550Y-156703972D01*
X140971227Y-156857456D01*
X142381102Y-156016956D01*
X141853490Y-157232051D01*
G36*
X141853490Y-157232051D02*
G01*
X141739740Y-156838602D01*
X139812693Y-158635381D01*
X141615550Y-156703972D01*
X140971227Y-156857456D01*
X142381102Y-156016956D01*
X141853490Y-157232051D01*
G37*
D10*
G36*
X93156901Y-173420189D02*
G01*
X92918075Y-175692468D01*
X90624693Y-175451424D01*
X90718077Y-174562934D01*
X90997386Y-174562934D01*
X91649585Y-174631483D01*
X91582185Y-175272752D01*
X92016985Y-175318451D01*
X92084385Y-174677182D01*
X92738254Y-174745907D01*
X92784209Y-174308678D01*
X92130339Y-174239954D01*
X92197740Y-173598685D01*
X91762940Y-173552986D01*
X91695540Y-174194254D01*
X91043340Y-174125706D01*
X90997386Y-174562934D01*
X90718077Y-174562934D01*
X90863519Y-173179145D01*
X93156901Y-173420189D01*
G37*
D12*
G36*
X137468087Y-158269897D02*
G01*
X136539540Y-156467337D01*
X136846941Y-156218409D01*
X137618274Y-157715826D01*
X138382648Y-157096848D01*
X138539863Y-157401990D01*
X137468087Y-158269897D01*
G37*
G36*
X138997848Y-155387427D02*
G01*
X139083076Y-155426431D01*
X139169291Y-155489388D01*
X139257655Y-155581032D01*
X139348737Y-155707578D01*
X139442585Y-155876476D01*
X138711523Y-156468478D01*
X138774682Y-156562097D01*
X138839157Y-156620565D01*
X138906025Y-156651812D01*
X138978516Y-156660175D01*
X139048145Y-156644199D01*
X139118481Y-156601553D01*
X139176211Y-156539180D01*
X139211294Y-156464481D01*
X139222994Y-156378509D01*
X139209450Y-156266405D01*
X139529437Y-156087741D01*
X139546301Y-156247079D01*
X139537474Y-156392604D01*
X139504619Y-156527090D01*
X139447296Y-156652565D01*
X139364738Y-156767667D01*
X139254234Y-156873789D01*
X139130661Y-156958648D01*
X139017617Y-157008305D01*
X138912204Y-157028718D01*
X138811281Y-157023121D01*
X138711749Y-156991731D01*
X138619567Y-156937546D01*
X138531582Y-156860414D01*
X138447160Y-156756637D01*
X138366379Y-156621315D01*
X138292287Y-156450718D01*
X138248792Y-156289657D01*
X138232849Y-156135914D01*
X138237804Y-156061745D01*
X138548323Y-156061745D01*
X138566308Y-156153630D01*
X138606956Y-156251444D01*
X139043240Y-155898148D01*
X138980832Y-155804873D01*
X138919433Y-155747977D01*
X138857895Y-155718556D01*
X138790867Y-155710328D01*
X138727787Y-155724158D01*
X138665385Y-155761620D01*
X138610669Y-155818859D01*
X138572564Y-155888564D01*
X138550721Y-155973586D01*
X138548323Y-156061745D01*
X138237804Y-156061745D01*
X138242781Y-155987239D01*
X138278085Y-155840000D01*
X138334131Y-155712641D01*
X138410592Y-155602119D01*
X138508658Y-155506369D01*
X138613558Y-155434039D01*
X138712963Y-155388910D01*
X138808722Y-155367151D01*
X138902946Y-155366702D01*
X138997848Y-155387427D01*
G37*
G36*
X141006664Y-155404414D02*
G01*
X140735612Y-155623907D01*
X140635954Y-155430398D01*
X140612815Y-155591744D01*
X140564554Y-155730527D01*
X140492754Y-155851306D01*
X140409052Y-155938635D01*
X140309745Y-156002101D01*
X140208640Y-156035307D01*
X140102706Y-156040789D01*
X139988247Y-156017443D01*
X139884760Y-155969020D01*
X139784113Y-155889786D01*
X139684954Y-155773502D01*
X139587126Y-155611559D01*
X139509794Y-155435932D01*
X139464309Y-155275671D01*
X139446606Y-155128042D01*
X139453862Y-154993166D01*
X139790353Y-154993166D01*
X139790841Y-155096236D01*
X139817254Y-155213931D01*
X139875058Y-155350425D01*
X139957291Y-155490809D01*
X140026236Y-155576128D01*
X140084314Y-155622224D01*
X140156292Y-155652148D01*
X140222839Y-155658072D01*
X140287439Y-155642055D01*
X140353210Y-155601689D01*
X140409513Y-155540730D01*
X140448996Y-155461309D01*
X140470893Y-155358521D01*
X140469281Y-155252674D01*
X140441177Y-155131090D01*
X140380834Y-154989412D01*
X140290618Y-154841119D01*
X140211311Y-154754567D01*
X140140530Y-154711484D01*
X140061430Y-154695325D01*
X139987027Y-154708123D01*
X139912547Y-154751688D01*
X139853970Y-154814223D01*
X139813150Y-154893337D01*
X139790353Y-154993166D01*
X139453862Y-154993166D01*
X139454012Y-154990376D01*
X139485749Y-154852949D01*
X139536808Y-154734619D01*
X139606775Y-154632417D01*
X139696693Y-154544317D01*
X139793214Y-154482848D01*
X139892361Y-154450668D01*
X139997141Y-154445555D01*
X140111243Y-154468846D01*
X139775415Y-153816806D01*
X140067157Y-153580558D01*
X141006664Y-155404414D01*
G37*
G36*
X141183569Y-155261159D02*
G01*
X141231137Y-154259208D01*
X140520206Y-153927734D01*
X140876484Y-153639226D01*
X141258616Y-153844103D01*
X141277368Y-153314597D01*
X141620074Y-153037079D01*
X141568214Y-153965035D01*
X142334306Y-154329310D01*
X141975941Y-154619509D01*
X141541035Y-154392153D01*
X141525326Y-154984409D01*
X141183569Y-155261159D01*
G37*
G36*
X143216934Y-153614573D02*
G01*
X142925097Y-153850897D01*
X142250240Y-152540923D01*
X142193620Y-152742820D01*
X142113906Y-152933043D01*
X142010634Y-153113033D01*
X141846145Y-152793668D01*
X141900720Y-152699076D01*
X141954545Y-152577226D01*
X142006918Y-152423051D01*
X142042197Y-152266381D01*
X142052821Y-152120243D01*
X142040636Y-151982466D01*
X142277426Y-151790717D01*
X143216934Y-153614573D01*
G37*
G36*
X143588451Y-150901606D02*
G01*
X143675875Y-150925887D01*
X143766281Y-150973455D01*
X143863076Y-151051159D01*
X143967936Y-151166371D01*
X144082066Y-151328185D01*
X144206308Y-151547152D01*
X144310153Y-151769135D01*
X144380791Y-151962994D01*
X144423205Y-152132335D01*
X144441620Y-152280578D01*
X144439391Y-152410934D01*
X144413002Y-152548984D01*
X144363158Y-152670847D01*
X144289685Y-152779402D01*
X144190494Y-152876484D01*
X144096779Y-152939735D01*
X144005546Y-152977852D01*
X143914974Y-152993919D01*
X143822895Y-152989064D01*
X143727008Y-152962354D01*
X143645622Y-152918903D01*
X143555680Y-152844817D01*
X143455113Y-152731550D01*
X143342239Y-152568653D01*
X143215627Y-152344047D01*
X143112384Y-152123212D01*
X143042119Y-151930108D01*
X142999911Y-151761190D01*
X142981592Y-151613094D01*
X142983476Y-151504479D01*
X143300659Y-151504479D01*
X143318753Y-151621445D01*
X143379826Y-151797803D01*
X143522889Y-152100574D01*
X143683890Y-152389638D01*
X143776151Y-152517921D01*
X143839668Y-152579008D01*
X143888379Y-152610613D01*
X143926278Y-152622005D01*
X143984848Y-152616291D01*
X144040649Y-152585489D01*
X144085011Y-152535727D01*
X144114396Y-152468727D01*
X144122586Y-152389115D01*
X144104493Y-152272149D01*
X144043964Y-152096881D01*
X143900995Y-151794389D01*
X143739981Y-151505206D01*
X143647732Y-151377042D01*
X143584239Y-151315813D01*
X143535413Y-151283933D01*
X143497334Y-151272235D01*
X143438441Y-151277485D01*
X143382597Y-151308105D01*
X143338234Y-151357867D01*
X143308850Y-151424866D01*
X143300659Y-151504479D01*
X142983476Y-151504479D01*
X142983855Y-151482659D01*
X143010244Y-151344610D01*
X143060087Y-151222747D01*
X143133561Y-151114192D01*
X143232752Y-151017109D01*
X143326745Y-150953065D01*
X143416068Y-150914543D01*
X143502590Y-150897951D01*
X143588451Y-150901606D01*
G37*
G36*
X82427225Y-163008932D02*
G01*
X82908804Y-162824071D01*
X82720792Y-162334283D01*
X83049141Y-162208242D01*
X83237153Y-162698029D01*
X83718732Y-162513168D01*
X83844073Y-162839694D01*
X83362494Y-163024554D01*
X83550988Y-163515596D01*
X83222638Y-163641638D01*
X83034145Y-163150596D01*
X82552566Y-163335457D01*
X82427225Y-163008932D01*
G37*
D13*
%TO.C,D8*%
X166736210Y-89178815D02*
X170740704Y-88968920D01*
X166631529Y-87181556D02*
X170636045Y-86971699D01*
X166631529Y-87181556D02*
X166736210Y-89178815D01*
%TO.C,D9*%
X166948842Y-105958091D02*
X166844184Y-107955342D01*
X166948842Y-105958091D02*
X170953354Y-106167942D01*
X166844184Y-107955342D02*
X170848680Y-108165207D01*
D14*
%TO.C,D40*%
X173481997Y-94919797D02*
X173481996Y-91871797D01*
X173481996Y-91871797D02*
X168808395Y-91871807D01*
X169062401Y-94919794D02*
X173481997Y-94919797D01*
%TO.C,D7*%
X173493004Y-102925195D02*
X173493003Y-99877195D01*
X173493003Y-99877195D02*
X168819402Y-99877205D01*
X169073408Y-102925192D02*
X173493004Y-102925195D01*
%TO.C,D41*%
X157614181Y-143895591D02*
X153833157Y-141148522D01*
X152247080Y-143763700D02*
X155822611Y-146361473D01*
X155822611Y-146361473D02*
X157614181Y-143895591D01*
D13*
%TO.C,D11*%
X158846045Y-64172116D02*
X162090201Y-61815103D01*
X158846045Y-64172116D02*
X160021617Y-65790150D01*
X160021617Y-65790150D02*
X163265772Y-63433131D01*
%TO.C,D18*%
X68168903Y-34552714D02*
X66996486Y-30717927D01*
X66256295Y-35137451D02*
X68168903Y-34552714D01*
X66256295Y-35137451D02*
X65083887Y-31302672D01*
%TO.C,C6*%
X100204600Y-165286652D02*
X100204600Y-164764148D01*
X101674600Y-165286652D02*
X101674600Y-164764148D01*
%TO.C,C7*%
X105945000Y-162933748D02*
X105945000Y-163456252D01*
X107415000Y-162933748D02*
X107415000Y-163456252D01*
%TO.C,C4*%
X97420800Y-169347452D02*
X97420800Y-168824948D01*
X98890800Y-169347452D02*
X98890800Y-168824948D01*
D14*
%TO.C,D39*%
X157600260Y-50944896D02*
X155808691Y-48479011D01*
X155808691Y-48479011D02*
X152027668Y-51226082D01*
X154024728Y-53542673D02*
X157600260Y-50944896D01*
%TO.C,D1*%
X114578354Y-166830086D02*
X115944085Y-171033375D01*
X115944085Y-171033375D02*
X118842906Y-170091491D01*
X118842906Y-170091491D02*
X117398684Y-165646634D01*
D13*
%TO.C,C2*%
X84650600Y-156137200D02*
X84650600Y-164202200D01*
X84650600Y-164202200D02*
X89170600Y-164202200D01*
X89170600Y-164202200D02*
X89170600Y-156137200D01*
D14*
%TO.C,D36*%
X33368419Y-57374010D02*
X37149443Y-60121078D01*
X38735521Y-57505900D02*
X35159987Y-54908127D01*
X35159987Y-54908127D02*
X33368419Y-57374010D01*
%TO.C,D13*%
X123561457Y-26183556D02*
X122117238Y-30628413D01*
X126460276Y-27125441D02*
X123561457Y-26183556D01*
X125094545Y-31328721D02*
X126460276Y-27125441D01*
D13*
%TO.C,R1*%
X93356800Y-169313264D02*
X93356800Y-168859136D01*
X94826800Y-169313264D02*
X94826800Y-168859136D01*
D14*
%TO.C,D10*%
X162303126Y-57417841D02*
X160511557Y-54951956D01*
X160511557Y-54951956D02*
X156730534Y-57699027D01*
X158727594Y-60015618D02*
X162303126Y-57417841D01*
D13*
%TO.C,C5*%
X101576200Y-169347452D02*
X101576200Y-168824948D01*
X103046200Y-169347452D02*
X103046200Y-168824948D01*
D15*
%TO.C,U1*%
X96215200Y-164085800D02*
X96215200Y-164314400D01*
X96215200Y-164085800D02*
X96469200Y-164085800D01*
X96240600Y-165736800D02*
X96240600Y-165965400D01*
X96240600Y-165965400D02*
X96469200Y-165965400D01*
X98552000Y-165965400D02*
X98780600Y-165965400D01*
X98780600Y-164085800D02*
X98577400Y-164085800D01*
X98780600Y-164085800D02*
X98780600Y-164289000D01*
X98780600Y-165736800D02*
X98780600Y-165965400D01*
X96062800Y-164289000D02*
X95961200Y-164365200D01*
X95961200Y-164212800D01*
X96062800Y-164289000D01*
G36*
X96062800Y-164289000D02*
G01*
X95961200Y-164365200D01*
X95961200Y-164212800D01*
X96062800Y-164289000D01*
G37*
D13*
%TO.C,D32*%
X84545600Y-167436200D02*
X84545600Y-170736200D01*
X84545600Y-167436200D02*
X90055600Y-167436200D01*
X84545600Y-170736200D02*
X90055600Y-170736200D01*
%TO.C,D30*%
X64504366Y-159820581D02*
X63067307Y-163564249D01*
X66371532Y-160537328D02*
X64504366Y-159820581D01*
X66371532Y-160537328D02*
X64934479Y-164280981D01*
%TO.C,D15*%
X108660523Y-28192550D02*
X109765830Y-24337893D01*
X108660523Y-28192550D02*
X110583053Y-28743813D01*
X110583053Y-28743813D02*
X111688361Y-24889154D01*
%TO.C,D6*%
X160758323Y-129727344D02*
X164158999Y-131852317D01*
X160758323Y-129727344D02*
X159698487Y-131423438D01*
X159698487Y-131423438D02*
X163099159Y-133548417D01*
%TO.C,C8*%
X105945000Y-168824948D02*
X105945000Y-169347452D01*
X107415000Y-168824948D02*
X107415000Y-169347452D01*
%TO.C,D12*%
X148586714Y-49848218D02*
X151789256Y-47434932D01*
X147383087Y-48250932D02*
X150585616Y-45837660D01*
X147383087Y-48250932D02*
X148586714Y-49848218D01*
%TO.C,D19*%
X107998800Y-155477200D02*
X102488800Y-155477200D01*
X107998800Y-158777200D02*
X102488800Y-158777200D01*
X107998800Y-158777200D02*
X107998800Y-155477200D01*
D14*
%TO.C,D33*%
X78150709Y-165921877D02*
X76784976Y-170125161D01*
X76784976Y-170125161D02*
X79683798Y-171067042D01*
X79683798Y-171067042D02*
X81128023Y-166622186D01*
%TO.C,D34*%
X41630687Y-141295775D02*
X38055158Y-143893548D01*
X39846716Y-146359427D02*
X43627751Y-143612361D01*
X38055158Y-143893548D02*
X39846716Y-146359427D01*
D13*
%TO.C,R5*%
X107954400Y-162467936D02*
X107954400Y-163922064D01*
X109774400Y-162467936D02*
X109774400Y-163922064D01*
D14*
%TO.C,D16*%
X81027046Y-27911714D02*
X79661315Y-23708425D01*
X79661315Y-23708425D02*
X76762494Y-24650309D01*
X76762494Y-24650309D02*
X78206716Y-29095166D01*
D13*
%TO.C,C10*%
X110342000Y-169797452D02*
X110342000Y-168374948D01*
X112162000Y-169797452D02*
X112162000Y-168374948D01*
%TO.C,R2*%
X95338000Y-169313264D02*
X95338000Y-168859136D01*
X96808000Y-169313264D02*
X96808000Y-168859136D01*
%TO.C,D31*%
X66688756Y-160658764D02*
X65251706Y-164402449D01*
X68555938Y-161375504D02*
X66688756Y-160658764D01*
X68555938Y-161375504D02*
X67118873Y-165119167D01*
D14*
%TO.C,D35*%
X26568399Y-99872801D02*
X22148802Y-99872801D01*
X22148800Y-102920800D02*
X26822400Y-102920799D01*
X22148802Y-99872801D02*
X22148800Y-102920800D01*
%TO.C,D4*%
X162241854Y-137405004D02*
X158460830Y-134657935D01*
X156874753Y-137273113D02*
X160450284Y-139870886D01*
X160450284Y-139870886D02*
X162241854Y-137405004D01*
D13*
%TO.C,C3*%
X92472400Y-164764148D02*
X92472400Y-165286652D01*
X93942400Y-164764148D02*
X93942400Y-165286652D01*
%TO.C,R3*%
X99544200Y-169313264D02*
X99544200Y-168859136D01*
X101014200Y-169313264D02*
X101014200Y-168859136D01*
%TO.C,C9*%
X107954400Y-169797452D02*
X107954400Y-168374948D01*
X109774400Y-169797452D02*
X109774400Y-168374948D01*
D14*
%TO.C,D37*%
X73410922Y-30375514D02*
X72045191Y-26172225D01*
X72045191Y-26172225D02*
X69146370Y-27114109D01*
X69146370Y-27114109D02*
X70590592Y-31558966D01*
D13*
%TO.C,D5*%
X149812344Y-144825639D02*
X152972270Y-147294438D01*
X149812344Y-144825639D02*
X148581024Y-146401658D01*
X148581024Y-146401658D02*
X151740946Y-148870463D01*
%TO.C,D24*%
X28742238Y-88594807D02*
X28881748Y-86599677D01*
X28742238Y-88594807D02*
X24742005Y-88315084D01*
X28881748Y-86599677D02*
X24881518Y-86319955D01*
%TO.C,J1*%
X94234000Y-172525000D02*
X101422200Y-172525000D01*
X101422200Y-177156800D01*
X94234000Y-177156800D01*
X94234000Y-172525000D01*
%TO.C,D21*%
X47310417Y-49506085D02*
X44238581Y-46928508D01*
X47310417Y-49506085D02*
X48595997Y-47974003D01*
X48595997Y-47974003D02*
X45524157Y-45396419D01*
%TO.C,D27*%
X37023107Y-131118525D02*
X35847502Y-129500486D01*
X37023107Y-131118525D02*
X33778937Y-133475538D01*
X35847502Y-129500486D02*
X32603366Y-131857520D01*
%TO.C,L1*%
X92021200Y-155577200D02*
X98621200Y-155577200D01*
X92021200Y-157277200D02*
X92021200Y-155577200D01*
X92021200Y-161977200D02*
X92021200Y-160277200D01*
X98621200Y-155577200D02*
X98621200Y-157277200D01*
X98621200Y-160277200D02*
X98621200Y-161977200D01*
X98621200Y-161977200D02*
X92021200Y-161977200D01*
D14*
%TO.C,D26*%
X36940084Y-134827800D02*
X33364555Y-137425573D01*
X35156113Y-139891452D02*
X38937148Y-137144386D01*
X33364555Y-137425573D02*
X35156113Y-139891452D01*
D13*
%TO.C,D28*%
X47961758Y-145987725D02*
X46730439Y-144411700D01*
X47961758Y-145987725D02*
X44801872Y-148456521D01*
X46730439Y-144411700D02*
X43570503Y-146880543D01*
%TO.C,D2*%
X128840533Y-159674666D02*
X130212034Y-163442833D01*
X130719918Y-158990625D02*
X128840533Y-159674666D01*
X130719918Y-158990625D02*
X132091419Y-162758793D01*
D14*
%TO.C,D23*%
X26570199Y-91899583D02*
X22150602Y-91899583D01*
X22150600Y-94947582D02*
X26824200Y-94947581D01*
X22150602Y-91899583D02*
X22150600Y-94947582D01*
D13*
%TO.C,C1*%
X90465800Y-164764148D02*
X90465800Y-165286652D01*
X91935800Y-164764148D02*
X91935800Y-165286652D01*
%TO.C,D3*%
X126624740Y-160506546D02*
X127996241Y-164274713D01*
X128504125Y-159822505D02*
X126624740Y-160506546D01*
X128504125Y-159822505D02*
X129875626Y-163590673D01*
%TO.C,R4*%
X103455736Y-165040400D02*
X103909864Y-165040400D01*
X103455736Y-166510400D02*
X103909864Y-166510400D01*
%TO.C,D14*%
X127356077Y-34430376D02*
X128595234Y-30616628D01*
X127356077Y-34430376D02*
X129258190Y-35048393D01*
X129258190Y-35048393D02*
X130497360Y-31234661D01*
D14*
%TO.C,D38*%
X115916057Y-23694356D02*
X114471838Y-28139213D01*
X118814876Y-24636241D02*
X115916057Y-23694356D01*
X117449145Y-28839521D02*
X118814876Y-24636241D01*
D13*
%TO.C,D17*%
X86498567Y-28535940D02*
X85393260Y-24681280D01*
X84576042Y-29087215D02*
X86498567Y-28535940D01*
X84576042Y-29087215D02*
X83470737Y-25232557D01*
%TO.C,D22*%
X35318753Y-65751362D02*
X32116222Y-63338087D01*
X35318753Y-65751362D02*
X36522384Y-64154093D01*
X36522384Y-64154093D02*
X33319841Y-61740818D01*
%TO.C,D25*%
X28752499Y-108227570D02*
X28752500Y-106227571D01*
X28752499Y-108227570D02*
X24742492Y-108227563D01*
X28752500Y-106227571D02*
X24742504Y-106227581D01*
D14*
%TO.C,D42*%
X122198337Y-164340873D02*
X123564068Y-168544162D01*
X123564068Y-168544162D02*
X126462889Y-167602278D01*
X126462889Y-167602278D02*
X125018667Y-163157421D01*
%TO.C,D29*%
X70556109Y-163458077D02*
X69190376Y-167661361D01*
X69190376Y-167661361D02*
X72089198Y-168603242D01*
X72089198Y-168603242D02*
X73533423Y-164158386D01*
%TO.C,D20*%
X38029754Y-50899062D02*
X41810778Y-53646130D01*
X43396856Y-51030952D02*
X39821322Y-48433179D01*
X39821322Y-48433179D02*
X38029754Y-50899062D01*
%TD*%
M02*
