%TF.GenerationSoftware,KiCad,Pcbnew,9.0.6*%
%TF.CreationDate,2026-01-19T13:30:55+08:00*%
%TF.ProjectId,Ledx10,4c656478-3130-42e6-9b69-6361645f7063,rev?*%
%TF.SameCoordinates,Original*%
%TF.FileFunction,Copper,L2,Bot*%
%TF.FilePolarity,Positive*%
%FSLAX46Y46*%
G04 Gerber Fmt 4.6, Leading zero omitted, Abs format (unit mm)*
G04 Created by KiCad (PCBNEW 9.0.6) date 2026-01-19 13:30:55*
%MOMM*%
%LPD*%
G01*
G04 APERTURE LIST*
G04 Aperture macros list*
%AMRoundRect*
0 Rectangle with rounded corners*
0 $1 Rounding radius*
0 $2 $3 $4 $5 $6 $7 $8 $9 X,Y pos of 4 corners*
0 Add a 4 corners polygon primitive as box body*
4,1,4,$2,$3,$4,$5,$6,$7,$8,$9,$2,$3,0*
0 Add four circle primitives for the rounded corners*
1,1,$1+$1,$2,$3*
1,1,$1+$1,$4,$5*
1,1,$1+$1,$6,$7*
1,1,$1+$1,$8,$9*
0 Add four rect primitives between the rounded corners*
20,1,$1+$1,$2,$3,$4,$5,0*
20,1,$1+$1,$4,$5,$6,$7,0*
20,1,$1+$1,$6,$7,$8,$9,0*
20,1,$1+$1,$8,$9,$2,$3,0*%
G04 Aperture macros list end*
%TA.AperFunction,ComponentPad*%
%ADD10RoundRect,0.500000X-0.750000X-1.500000X0.750000X-1.500000X0.750000X1.500000X-0.750000X1.500000X0*%
%TD*%
%TA.AperFunction,ViaPad*%
%ADD11C,0.600000*%
%TD*%
%TA.AperFunction,ViaPad*%
%ADD12C,0.800000*%
%TD*%
%TA.AperFunction,Conductor*%
%ADD13C,0.800000*%
%TD*%
G04 APERTURE END LIST*
D10*
%TO.P,J1,1,Pin_1*%
%TO.N,Net-(D32-A)*%
X121444000Y-122301000D03*
%TO.P,J1,2,Pin_2*%
%TO.N,GND*%
X125444000Y-122301000D03*
%TD*%
D11*
%TO.N,GND*%
X128295400Y-113766600D03*
X128879600Y-114427000D03*
X128905000Y-113817400D03*
X128270000Y-114376200D03*
X122123200Y-110188363D03*
X122123200Y-108789197D03*
X137259876Y-118536558D03*
X137458491Y-119147855D03*
X136794979Y-119363439D03*
X136578672Y-118697698D03*
X136118600Y-119583200D03*
X135902292Y-118917465D03*
X156917889Y-104641577D03*
X156397892Y-104263772D03*
X156807968Y-103699359D03*
X157374280Y-104110813D03*
X157226000Y-103124000D03*
X157792308Y-103535445D03*
X164955343Y-80199649D03*
X164312588Y-80199644D03*
X164312591Y-79501988D03*
X165012595Y-79501992D03*
X164312600Y-78790800D03*
X165012594Y-78790799D03*
X155852136Y-54987724D03*
X156358634Y-54592008D03*
X156788150Y-55141769D03*
X156236540Y-55572731D03*
X157226000Y-55702200D03*
X156674400Y-56133164D03*
X136463313Y-40514875D03*
X136264685Y-41126169D03*
X135601174Y-40910576D03*
X135817493Y-40244839D03*
X134924800Y-40690800D03*
X135141112Y-40025067D03*
X110843876Y-40380758D03*
X111042491Y-40992055D03*
X110378979Y-41207639D03*
X110162672Y-40541898D03*
X109702600Y-41427400D03*
X109486292Y-40761665D03*
X89607889Y-56965777D03*
X89087892Y-56587972D03*
X89497968Y-56023559D03*
X90064280Y-56435013D03*
X89916000Y-55448200D03*
X90482308Y-55859645D03*
X82481543Y-81215649D03*
X81838788Y-81215644D03*
X81838791Y-80517988D03*
X82538795Y-80517992D03*
X81838800Y-79806800D03*
X82538794Y-79806799D03*
X110368682Y-119425926D03*
X110588519Y-118821937D03*
X111244101Y-119060552D03*
X111004682Y-119718338D03*
X111912400Y-119303800D03*
X111672991Y-119961581D03*
X89653847Y-104278534D03*
X90173847Y-103900736D03*
X90017600Y-104876600D03*
X90583914Y-104465152D03*
X90435635Y-105451973D03*
X91001939Y-105040522D03*
D12*
X131191000Y-108407200D03*
D11*
X86588600Y-94767400D03*
X145491200Y-47167800D03*
X82067400Y-90627200D03*
X122529600Y-39598600D03*
X86588600Y-95377000D03*
X121920000Y-39598600D03*
X114731800Y-114681000D03*
X122529600Y-40208200D03*
X84632800Y-70739000D03*
X96520000Y-114147600D03*
X162026600Y-88722200D03*
X83032600Y-65328800D03*
X96520000Y-113538000D03*
X102209600Y-46990000D03*
X161417000Y-88112600D03*
X84632800Y-70129400D03*
X81457800Y-90627200D03*
X122123200Y-109489200D03*
X160350200Y-67360800D03*
X97129600Y-113538000D03*
X101600000Y-46990000D03*
X81457800Y-90017600D03*
X160959800Y-67970400D03*
X82067400Y-90017600D03*
X119354600Y-110083600D03*
X87198200Y-95377000D03*
X87198200Y-94767400D03*
X115366800Y-114122200D03*
X101600000Y-47599600D03*
X162026600Y-88112600D03*
X85242400Y-70129400D03*
X160959800Y-67360800D03*
X82423000Y-65328800D03*
X145491200Y-47777400D03*
X114757200Y-114071400D03*
X160350200Y-67970400D03*
X146100800Y-47777400D03*
X115341400Y-114731800D03*
X146100800Y-47167800D03*
X85242400Y-70739000D03*
X82423000Y-65938400D03*
X83032600Y-65938400D03*
X102209600Y-47599600D03*
X161417000Y-88722200D03*
X97129600Y-114147600D03*
X120548400Y-108331000D03*
X121920000Y-40208200D03*
%TO.N,Net-(D1-K)*%
X132867400Y-118897404D03*
X114249200Y-120040400D03*
X114985800Y-120040400D03*
X132156200Y-118897404D03*
%TD*%
D13*
%TO.N,Net-(D1-K)*%
X128625604Y-118897404D02*
X126365000Y-116636800D01*
X132156200Y-118897404D02*
X132867400Y-118897404D01*
X114985800Y-120040400D02*
X114249200Y-120040400D01*
X132156200Y-118897404D02*
X128625604Y-118897404D01*
X126365000Y-116636800D02*
X121183400Y-116636800D01*
X121183400Y-116636800D02*
X117779800Y-120040400D01*
X117779800Y-120040400D02*
X114985800Y-120040400D01*
%TD*%
%TA.AperFunction,Conductor*%
%TO.N,GND*%
G36*
X124066341Y-34980291D02*
G01*
X124067662Y-34980320D01*
X124185979Y-34982963D01*
X124186060Y-34982965D01*
X125383798Y-35017815D01*
X125386514Y-35017926D01*
X125463326Y-35021932D01*
X126702454Y-35094102D01*
X126705196Y-35094294D01*
X126727167Y-35096098D01*
X126727688Y-35096142D01*
X128010385Y-35208364D01*
X128013869Y-35208719D01*
X129310476Y-35360271D01*
X129314004Y-35360735D01*
X130605597Y-35549926D01*
X130609135Y-35550498D01*
X131894671Y-35777172D01*
X131898127Y-35777833D01*
X133176526Y-36041802D01*
X133180019Y-36042576D01*
X134305655Y-36309356D01*
X134450197Y-36343613D01*
X134453692Y-36344495D01*
X135714551Y-36682341D01*
X135718011Y-36683323D01*
X136968518Y-37057700D01*
X136971958Y-37058785D01*
X138211037Y-37469371D01*
X138214397Y-37470538D01*
X139441079Y-37917015D01*
X139444376Y-37918270D01*
X140645791Y-38395561D01*
X140657506Y-38400215D01*
X140660828Y-38401590D01*
X141859463Y-38918631D01*
X141862676Y-38920073D01*
X143036256Y-39467322D01*
X143045752Y-39471750D01*
X143048992Y-39473319D01*
X144215483Y-40059153D01*
X144218639Y-40060796D01*
X145367653Y-40680340D01*
X145370733Y-40682058D01*
X146501246Y-41334760D01*
X146504306Y-41336587D01*
X147584474Y-42002844D01*
X147584596Y-42002920D01*
X147623262Y-42027073D01*
X147625679Y-42028623D01*
X148646841Y-42700252D01*
X148647496Y-42700685D01*
X148661203Y-42709825D01*
X148726608Y-42753439D01*
X148728838Y-42754963D01*
X149393923Y-43220660D01*
X149698005Y-43433581D01*
X149698717Y-43434084D01*
X149807867Y-43511661D01*
X149810079Y-43513270D01*
X149972737Y-43634364D01*
X150734085Y-44201166D01*
X150734442Y-44201434D01*
X150787532Y-44241599D01*
X150866259Y-44301160D01*
X150868354Y-44302780D01*
X151381212Y-44708295D01*
X151716958Y-44973769D01*
X151751985Y-45001464D01*
X151752736Y-45002064D01*
X151900823Y-45121193D01*
X151902774Y-45122796D01*
X152749965Y-45833674D01*
X152750777Y-45834362D01*
X152858631Y-45926547D01*
X152910668Y-45971024D01*
X152912522Y-45972641D01*
X153676218Y-46652272D01*
X153725976Y-46696552D01*
X153726834Y-46697323D01*
X153786114Y-46751126D01*
X153894983Y-46849938D01*
X153896739Y-46851564D01*
X154678837Y-47589437D01*
X154679777Y-47590333D01*
X154852739Y-47756973D01*
X154854386Y-47758590D01*
X155606946Y-48511150D01*
X155607920Y-48512135D01*
X155783254Y-48691430D01*
X155784793Y-48693032D01*
X156172806Y-49104300D01*
X156509223Y-49460881D01*
X156510158Y-49461884D01*
X156685705Y-49652430D01*
X156687139Y-49654013D01*
X157384496Y-50437629D01*
X157385523Y-50438798D01*
X157559193Y-50638949D01*
X157560524Y-50640509D01*
X158231826Y-51440535D01*
X158232873Y-51441800D01*
X158403134Y-51650251D01*
X158404366Y-51651783D01*
X159050132Y-52468487D01*
X159051193Y-52469848D01*
X159216765Y-52685348D01*
X159217899Y-52686848D01*
X159838738Y-53520780D01*
X159839810Y-53522242D01*
X159999266Y-53743094D01*
X160000306Y-53744557D01*
X160596743Y-54596358D01*
X160597819Y-54597920D01*
X160750041Y-54822556D01*
X160750990Y-54823978D01*
X161323354Y-55694214D01*
X161324431Y-55695879D01*
X161387553Y-55795278D01*
X161422395Y-55850144D01*
X161468403Y-55922592D01*
X161469239Y-55923927D01*
X161472435Y-55929109D01*
X162017921Y-56813479D01*
X162018992Y-56815248D01*
X162153812Y-57042212D01*
X162154589Y-57043540D01*
X162679689Y-57953039D01*
X162680750Y-57954914D01*
X162805544Y-58180004D01*
X162806241Y-58181278D01*
X163308047Y-59111934D01*
X163309092Y-59113915D01*
X163423206Y-59335020D01*
X163423826Y-59336239D01*
X163902369Y-60289096D01*
X163903393Y-60291183D01*
X164006088Y-60505596D01*
X164006636Y-60506755D01*
X164462151Y-61483613D01*
X164463149Y-61485808D01*
X164553766Y-61690430D01*
X164554245Y-61691526D01*
X164986814Y-62694334D01*
X164987779Y-62696635D01*
X165065794Y-62887993D01*
X165066209Y-62889024D01*
X165475864Y-63920189D01*
X165476792Y-63922598D01*
X165541636Y-64096271D01*
X165541991Y-64097233D01*
X165928867Y-65160163D01*
X165929752Y-65162679D01*
X165981026Y-65313575D01*
X165981325Y-65314467D01*
X166345377Y-66413116D01*
X166346214Y-66415737D01*
X166383446Y-66537049D01*
X166383694Y-66537867D01*
X166725046Y-67678063D01*
X166725828Y-67680791D01*
X166748571Y-67763610D01*
X166748773Y-67764352D01*
X167067466Y-68953726D01*
X167068189Y-68956560D01*
X167076178Y-68989460D01*
X167076338Y-68990124D01*
X167371044Y-70233590D01*
X167371824Y-70237111D01*
X167635781Y-71515453D01*
X167636459Y-71518996D01*
X167863123Y-72804477D01*
X167863698Y-72808037D01*
X168052884Y-74099595D01*
X168053355Y-74103171D01*
X168204898Y-75399702D01*
X168205264Y-75403291D01*
X168319029Y-76703632D01*
X168319291Y-76707229D01*
X168395187Y-78010325D01*
X168395345Y-78013928D01*
X168433312Y-79318743D01*
X168433364Y-79322350D01*
X168433364Y-80627649D01*
X168433312Y-80631256D01*
X168395345Y-81936071D01*
X168395187Y-81939674D01*
X168319291Y-83242770D01*
X168319029Y-83246367D01*
X168205264Y-84546708D01*
X168204898Y-84550297D01*
X168053355Y-85846828D01*
X168052884Y-85850404D01*
X167863698Y-87141962D01*
X167863123Y-87145522D01*
X167636459Y-88431003D01*
X167635781Y-88434546D01*
X167371824Y-89712888D01*
X167371044Y-89716409D01*
X167076338Y-90959874D01*
X167076178Y-90960538D01*
X167068189Y-90993438D01*
X167067466Y-90996272D01*
X166748773Y-92185646D01*
X166748571Y-92186388D01*
X166725828Y-92269207D01*
X166725046Y-92271935D01*
X166383694Y-93412131D01*
X166383446Y-93412949D01*
X166346214Y-93534261D01*
X166345377Y-93536882D01*
X165981325Y-94635531D01*
X165981026Y-94636423D01*
X165929752Y-94787319D01*
X165928867Y-94789835D01*
X165541991Y-95852765D01*
X165541636Y-95853727D01*
X165476799Y-96027382D01*
X165475871Y-96029790D01*
X165066209Y-97060973D01*
X165065794Y-97062005D01*
X164987779Y-97253363D01*
X164986814Y-97255664D01*
X164554245Y-98258472D01*
X164553766Y-98259568D01*
X164463149Y-98464190D01*
X164462151Y-98466385D01*
X164006636Y-99443243D01*
X164006088Y-99444402D01*
X163903393Y-99658815D01*
X163902369Y-99660902D01*
X163423845Y-100613723D01*
X163423225Y-100614942D01*
X163309092Y-100836083D01*
X163308047Y-100838064D01*
X162806241Y-101768720D01*
X162805544Y-101769994D01*
X162680750Y-101995084D01*
X162679689Y-101996959D01*
X162154589Y-102906458D01*
X162153812Y-102907786D01*
X162018992Y-103134750D01*
X162017921Y-103136519D01*
X161469265Y-104026029D01*
X161468403Y-104027406D01*
X161324431Y-104254119D01*
X161323354Y-104255784D01*
X160750990Y-105126020D01*
X160750041Y-105127442D01*
X160597819Y-105352078D01*
X160596743Y-105353640D01*
X160000306Y-106205441D01*
X159999266Y-106206904D01*
X159839810Y-106427756D01*
X159838738Y-106429218D01*
X159217899Y-107263150D01*
X159216765Y-107264650D01*
X159051193Y-107480150D01*
X159050132Y-107481511D01*
X158404366Y-108298215D01*
X158403134Y-108299747D01*
X158232873Y-108508198D01*
X158231826Y-108509463D01*
X157560524Y-109309489D01*
X157559193Y-109311049D01*
X157385523Y-109511200D01*
X157384496Y-109512369D01*
X156687139Y-110295985D01*
X156685705Y-110297568D01*
X156510158Y-110488114D01*
X156509155Y-110489190D01*
X155784793Y-111256966D01*
X155783254Y-111258568D01*
X155607920Y-111437863D01*
X155606946Y-111438848D01*
X154854386Y-112191408D01*
X154852739Y-112193025D01*
X154679777Y-112359665D01*
X154678837Y-112360561D01*
X153896739Y-113098434D01*
X153894983Y-113100060D01*
X153726879Y-113252635D01*
X153725976Y-113253446D01*
X152912536Y-113977345D01*
X152910668Y-113978974D01*
X152750826Y-114115595D01*
X152749965Y-114116324D01*
X151902774Y-114827202D01*
X151900792Y-114828830D01*
X151752800Y-114947883D01*
X151751985Y-114948534D01*
X150868354Y-115647218D01*
X150866259Y-115648838D01*
X150734640Y-115748415D01*
X150733874Y-115748990D01*
X149810079Y-116436728D01*
X149807867Y-116438337D01*
X149698717Y-116515914D01*
X149698005Y-116516417D01*
X148728888Y-117195001D01*
X148726558Y-117196593D01*
X148647496Y-117249313D01*
X148646841Y-117249746D01*
X147625679Y-117921375D01*
X147623234Y-117922943D01*
X147584795Y-117946954D01*
X147584198Y-117947324D01*
X146504324Y-118613401D01*
X146501227Y-118615250D01*
X145370768Y-119267921D01*
X145367618Y-119269679D01*
X144218660Y-119889192D01*
X144215461Y-119890857D01*
X143048998Y-120476677D01*
X143045752Y-120478249D01*
X141862715Y-121029908D01*
X141859424Y-121031385D01*
X140660838Y-121548404D01*
X140657506Y-121549784D01*
X139444413Y-122031715D01*
X139441042Y-122032998D01*
X138214421Y-122479452D01*
X138211014Y-122480636D01*
X136971958Y-122891214D01*
X136968518Y-122892299D01*
X135718011Y-123266676D01*
X135714541Y-123267660D01*
X134453695Y-123605503D01*
X134450197Y-123606386D01*
X133180033Y-123907420D01*
X133176512Y-123908200D01*
X131898170Y-124172157D01*
X131894627Y-124172835D01*
X130609146Y-124399499D01*
X130605586Y-124400074D01*
X129314028Y-124589260D01*
X129310452Y-124589731D01*
X128013921Y-124741274D01*
X128010332Y-124741640D01*
X126727731Y-124853852D01*
X126727072Y-124853908D01*
X126705298Y-124855696D01*
X126702360Y-124855902D01*
X125463817Y-124928038D01*
X125463066Y-124928080D01*
X125386585Y-124932069D01*
X125383733Y-124932185D01*
X124186408Y-124967024D01*
X124185571Y-124967045D01*
X124066341Y-124969709D01*
X124063571Y-124969740D01*
X122900126Y-124969740D01*
X122899203Y-124969737D01*
X122898394Y-124969730D01*
X122745800Y-124968593D01*
X122743119Y-124968544D01*
X121607568Y-124935504D01*
X121606559Y-124935470D01*
X121426139Y-124928751D01*
X121423544Y-124928627D01*
X120311973Y-124863886D01*
X120310881Y-124863818D01*
X120108442Y-124850234D01*
X120105937Y-124850040D01*
X119014875Y-124754584D01*
X119013700Y-124754476D01*
X118794059Y-124733153D01*
X118791646Y-124732895D01*
X117718349Y-124607445D01*
X117717092Y-124607291D01*
X117483990Y-124577631D01*
X117481670Y-124577314D01*
X116424391Y-124422445D01*
X116423057Y-124422242D01*
X116179337Y-124383827D01*
X116177111Y-124383455D01*
X115134387Y-124199595D01*
X115132974Y-124199338D01*
X114881376Y-124151964D01*
X114879246Y-124151543D01*
X113849547Y-123938927D01*
X113848059Y-123938610D01*
X113591384Y-123882319D01*
X113589351Y-123881856D01*
X112571589Y-123640642D01*
X112570027Y-123640261D01*
X112310204Y-123575114D01*
X112308268Y-123574612D01*
X111301640Y-123304887D01*
X111300009Y-123304438D01*
X111039279Y-123230747D01*
X111037440Y-123230212D01*
X110041061Y-122931916D01*
X110039362Y-122931394D01*
X109779575Y-122849543D01*
X109777834Y-122848980D01*
X108791088Y-122522008D01*
X108789324Y-122521409D01*
X108532391Y-122431964D01*
X108530748Y-122431379D01*
X107552777Y-122075426D01*
X107550952Y-122074745D01*
X107298899Y-121978494D01*
X107297353Y-121977892D01*
X106327567Y-121592621D01*
X106325683Y-121591855D01*
X106080047Y-121489573D01*
X106078599Y-121488959D01*
X105116416Y-121073913D01*
X105114477Y-121073057D01*
X104877179Y-120965849D01*
X104875827Y-120965228D01*
X104402228Y-120744386D01*
X119993500Y-120744386D01*
X119993500Y-123857613D01*
X119999913Y-123928192D01*
X119999913Y-123928194D01*
X119999914Y-123928196D01*
X120050522Y-124090606D01*
X120116408Y-124199595D01*
X120138530Y-124236188D01*
X120258811Y-124356469D01*
X120258813Y-124356470D01*
X120258815Y-124356472D01*
X120404394Y-124444478D01*
X120566804Y-124495086D01*
X120637384Y-124501500D01*
X120637387Y-124501500D01*
X122250613Y-124501500D01*
X122250616Y-124501500D01*
X122321196Y-124495086D01*
X122483606Y-124444478D01*
X122629185Y-124356472D01*
X122749472Y-124236185D01*
X122837478Y-124090606D01*
X122888086Y-123928196D01*
X122894500Y-123857616D01*
X122894500Y-120744384D01*
X122888086Y-120673804D01*
X122837478Y-120511394D01*
X122749472Y-120365815D01*
X122749470Y-120365813D01*
X122749469Y-120365811D01*
X122629188Y-120245530D01*
X122483606Y-120157522D01*
X122321196Y-120106914D01*
X122321194Y-120106913D01*
X122321192Y-120106913D01*
X122271778Y-120102423D01*
X122250616Y-120100500D01*
X120637384Y-120100500D01*
X120618145Y-120102248D01*
X120566807Y-120106913D01*
X120404393Y-120157522D01*
X120258811Y-120245530D01*
X120138530Y-120365811D01*
X120050522Y-120511393D01*
X119999913Y-120673807D01*
X119993500Y-120744386D01*
X104402228Y-120744386D01*
X103920478Y-120519743D01*
X103918488Y-120518793D01*
X103691489Y-120407984D01*
X103690233Y-120407362D01*
X103006595Y-120064026D01*
X102802136Y-119961343D01*
X113648700Y-119961343D01*
X113648700Y-120119457D01*
X113658900Y-120157522D01*
X113689623Y-120272183D01*
X113689626Y-120272190D01*
X113768675Y-120409109D01*
X113768678Y-120409113D01*
X113768680Y-120409116D01*
X113880484Y-120520920D01*
X113880486Y-120520921D01*
X113880490Y-120520924D01*
X113959182Y-120566356D01*
X114017416Y-120599977D01*
X114170143Y-120640900D01*
X114906743Y-120640900D01*
X117693131Y-120640900D01*
X117693147Y-120640901D01*
X117700743Y-120640901D01*
X117858854Y-120640901D01*
X117858857Y-120640901D01*
X118011585Y-120599977D01*
X118061704Y-120571039D01*
X118148516Y-120520920D01*
X118260320Y-120409116D01*
X118260320Y-120409114D01*
X118270528Y-120398907D01*
X118270529Y-120398904D01*
X121395816Y-117273619D01*
X121457139Y-117240134D01*
X121483497Y-117237300D01*
X126064903Y-117237300D01*
X126131942Y-117256985D01*
X126152584Y-117273619D01*
X128140743Y-119261778D01*
X128140753Y-119261789D01*
X128145083Y-119266119D01*
X128145084Y-119266120D01*
X128256888Y-119377924D01*
X128343699Y-119428043D01*
X128343701Y-119428045D01*
X128381755Y-119450015D01*
X128393819Y-119456981D01*
X128546547Y-119497905D01*
X128546550Y-119497905D01*
X128712257Y-119497905D01*
X128712273Y-119497904D01*
X132946455Y-119497904D01*
X132946457Y-119497904D01*
X133099184Y-119456981D01*
X133236116Y-119377924D01*
X133347920Y-119266120D01*
X133426977Y-119129188D01*
X133467900Y-118976461D01*
X133467900Y-118818347D01*
X133426977Y-118665620D01*
X133405021Y-118627590D01*
X133347924Y-118528694D01*
X133347918Y-118528686D01*
X133236117Y-118416885D01*
X133236109Y-118416879D01*
X133099190Y-118337830D01*
X133099186Y-118337828D01*
X133099184Y-118337827D01*
X132946457Y-118296904D01*
X132946456Y-118296904D01*
X128925701Y-118296904D01*
X128858662Y-118277219D01*
X128838020Y-118260585D01*
X126852590Y-116275155D01*
X126852588Y-116275152D01*
X126733717Y-116156281D01*
X126733716Y-116156280D01*
X126646904Y-116106160D01*
X126646904Y-116106159D01*
X126646900Y-116106158D01*
X126596785Y-116077223D01*
X126444057Y-116036299D01*
X126285943Y-116036299D01*
X126278347Y-116036299D01*
X126278331Y-116036300D01*
X121262457Y-116036300D01*
X121104342Y-116036300D01*
X120951615Y-116077223D01*
X120951614Y-116077223D01*
X120951612Y-116077224D01*
X120951609Y-116077225D01*
X120901496Y-116106159D01*
X120901495Y-116106160D01*
X120858089Y-116131220D01*
X120814685Y-116156279D01*
X120814682Y-116156281D01*
X120702880Y-116268084D01*
X120702878Y-116268086D01*
X119119669Y-117851296D01*
X117567384Y-119403581D01*
X117506061Y-119437066D01*
X117479703Y-119439900D01*
X114170143Y-119439900D01*
X114017416Y-119480823D01*
X114017409Y-119480826D01*
X113880490Y-119559875D01*
X113880482Y-119559881D01*
X113768681Y-119671682D01*
X113768675Y-119671690D01*
X113689626Y-119808609D01*
X113689623Y-119808616D01*
X113648700Y-119961343D01*
X102802136Y-119961343D01*
X102740874Y-119930576D01*
X102738836Y-119929530D01*
X102524237Y-119816743D01*
X102523075Y-119816124D01*
X101578589Y-119306861D01*
X101576509Y-119305713D01*
X101376513Y-119192877D01*
X101375444Y-119192267D01*
X100434860Y-118649220D01*
X100432741Y-118647969D01*
X100399009Y-118627590D01*
X100249435Y-118537228D01*
X100248721Y-118536792D01*
X99310571Y-117958132D01*
X99308501Y-117956827D01*
X99145022Y-117851296D01*
X99144135Y-117850718D01*
X98206779Y-117234209D01*
X98204644Y-117232772D01*
X98064158Y-117136039D01*
X98063358Y-117135483D01*
X97758391Y-116921943D01*
X97124488Y-116478079D01*
X97122297Y-116476510D01*
X97068053Y-116436728D01*
X97008668Y-116393175D01*
X97008087Y-116392745D01*
X96064615Y-115690357D01*
X96062390Y-115688661D01*
X95980758Y-115624970D01*
X95980126Y-115624474D01*
X95028119Y-114871724D01*
X95025873Y-114869905D01*
X94982593Y-114834013D01*
X94982042Y-114833554D01*
X94126411Y-114115595D01*
X94016569Y-114023426D01*
X94013851Y-114021077D01*
X93311390Y-113395940D01*
X140428124Y-113395940D01*
X140428124Y-113395941D01*
X140428124Y-113404639D01*
X140434275Y-113410790D01*
X140442973Y-113410790D01*
X140449124Y-113404639D01*
X140449124Y-113395941D01*
X140442973Y-113389790D01*
X140434275Y-113389790D01*
X140434274Y-113389790D01*
X140428124Y-113395940D01*
X93311390Y-113395940D01*
X93038729Y-113153293D01*
X93036081Y-113150866D01*
X92980506Y-113098434D01*
X92086625Y-112255099D01*
X92084038Y-112252586D01*
X91523546Y-111692094D01*
X103428124Y-111692094D01*
X103428124Y-111692095D01*
X103428124Y-111700793D01*
X103434275Y-111706944D01*
X103442973Y-111706944D01*
X103449124Y-111700793D01*
X103449124Y-111692095D01*
X103442973Y-111685944D01*
X103434275Y-111685944D01*
X103434274Y-111685944D01*
X103428124Y-111692094D01*
X91523546Y-111692094D01*
X91161037Y-111329585D01*
X91158524Y-111326998D01*
X90988413Y-111146691D01*
X90262744Y-110377528D01*
X90260320Y-110374883D01*
X90248174Y-110361235D01*
X89480503Y-109498608D01*
X89392529Y-109399752D01*
X89390171Y-109397023D01*
X88551137Y-108397102D01*
X88548858Y-108394305D01*
X88472880Y-108298215D01*
X87739215Y-107370345D01*
X87737055Y-107367529D01*
X86957543Y-106320462D01*
X86955440Y-106317550D01*
X86876940Y-106205441D01*
X86206731Y-105248282D01*
X86204706Y-105245298D01*
X85629319Y-104370465D01*
X85487416Y-104154712D01*
X85485484Y-104151679D01*
X84800211Y-103040682D01*
X84798373Y-103037603D01*
X84145682Y-101907109D01*
X84143964Y-101904029D01*
X83524420Y-100755015D01*
X83522766Y-100751837D01*
X82973829Y-99658815D01*
X82936943Y-99585368D01*
X82935374Y-99582128D01*
X82911087Y-99530045D01*
X82383697Y-98399052D01*
X82382255Y-98395839D01*
X81956350Y-97408479D01*
X81868090Y-97203868D01*
X81867838Y-97203279D01*
X81864371Y-97195126D01*
X81863262Y-97192430D01*
X81401482Y-96030059D01*
X81401272Y-96029525D01*
X81400435Y-96027382D01*
X81376956Y-95967244D01*
X81376007Y-95964728D01*
X80963631Y-94831738D01*
X80963493Y-94831353D01*
X80925880Y-94725846D01*
X80925006Y-94723303D01*
X80557035Y-93612831D01*
X80556814Y-93612154D01*
X80531633Y-93534261D01*
X80511518Y-93472036D01*
X80510715Y-93469458D01*
X80493552Y-93412131D01*
X80183446Y-92376302D01*
X80183174Y-92375378D01*
X80134177Y-92206824D01*
X80133473Y-92204305D01*
X79844136Y-91124487D01*
X79843953Y-91123791D01*
X79794143Y-90931221D01*
X79793577Y-90928940D01*
X79540141Y-89859608D01*
X79539935Y-89858714D01*
X79491749Y-89646559D01*
X79491286Y-89644426D01*
X79272139Y-88583094D01*
X79272054Y-88582672D01*
X79227228Y-88353982D01*
X79226821Y-88351790D01*
X79040902Y-87297387D01*
X79040677Y-87296073D01*
X79000778Y-87054641D01*
X79000454Y-87052565D01*
X78846694Y-86002860D01*
X78846526Y-86001661D01*
X78812539Y-85749543D01*
X78812298Y-85747633D01*
X78690051Y-84701741D01*
X78689889Y-84700273D01*
X78662675Y-84440109D01*
X78662474Y-84438016D01*
X78630318Y-84070473D01*
X78571229Y-83395084D01*
X78571116Y-83393700D01*
X78551233Y-83127115D01*
X78551118Y-83125372D01*
X78490474Y-82084136D01*
X78490396Y-82082619D01*
X78478320Y-81812448D01*
X78478250Y-81810565D01*
X78447982Y-80770313D01*
X78447949Y-80768814D01*
X78443898Y-80496691D01*
X78443884Y-80494845D01*
X78443884Y-79810181D01*
X85933517Y-79810181D01*
X85947989Y-81029765D01*
X86002113Y-82248297D01*
X86095827Y-83464374D01*
X86229035Y-84676774D01*
X86401600Y-85884239D01*
X86613327Y-87085396D01*
X86613330Y-87085410D01*
X86864008Y-88279076D01*
X86882301Y-88353982D01*
X87153363Y-89463947D01*
X87481105Y-90638820D01*
X87846858Y-91802357D01*
X87846865Y-91802378D01*
X88118337Y-92576989D01*
X88250276Y-92953459D01*
X88690891Y-94090784D01*
X89168252Y-95213169D01*
X89168258Y-95213183D01*
X89335378Y-95573150D01*
X89681863Y-96319459D01*
X89857804Y-96668259D01*
X90231185Y-97408479D01*
X90231195Y-97408497D01*
X90815608Y-98479028D01*
X90815616Y-98479042D01*
X90815619Y-98479047D01*
X91434555Y-99530045D01*
X91760604Y-100044662D01*
X92087341Y-100560366D01*
X92773273Y-101568899D01*
X92773279Y-101568907D01*
X93491651Y-102554615D01*
X93491660Y-102554626D01*
X93491664Y-102554632D01*
X94065063Y-103289938D01*
X94241694Y-103516442D01*
X94684784Y-104048050D01*
X95022621Y-104453378D01*
X95160024Y-104607735D01*
X95833592Y-105364415D01*
X95863393Y-105395777D01*
X96673759Y-106248603D01*
X97542242Y-107105014D01*
X98438102Y-107932721D01*
X99360391Y-108730851D01*
X99951104Y-109209350D01*
X100308177Y-109498594D01*
X100308188Y-109498602D01*
X100308195Y-109498608D01*
X100753464Y-109835906D01*
X100753497Y-109835951D01*
X100753504Y-109835944D01*
X100794284Y-109866859D01*
X100794284Y-109866860D01*
X100925310Y-109966192D01*
X100925313Y-109966194D01*
X100925316Y-109966196D01*
X101064912Y-110049649D01*
X101207563Y-110134929D01*
X101307150Y-110180521D01*
X101506555Y-110271812D01*
X101506560Y-110271813D01*
X101506563Y-110271815D01*
X101560415Y-110289651D01*
X101562299Y-110290479D01*
X101570128Y-110292869D01*
X101818730Y-110375211D01*
X101888642Y-110390138D01*
X101898970Y-110393293D01*
X101928146Y-110398573D01*
X102140325Y-110443879D01*
X102226743Y-110452626D01*
X102245361Y-110455997D01*
X102283086Y-110458330D01*
X102467498Y-110476997D01*
X102467510Y-110476996D01*
X102467512Y-110476997D01*
X102475696Y-110476926D01*
X102570524Y-110476110D01*
X102596710Y-110477731D01*
X102635976Y-110475547D01*
X102796330Y-110474168D01*
X102915789Y-110459995D01*
X102948188Y-110458195D01*
X102984715Y-110451818D01*
X103122885Y-110435426D01*
X103258426Y-110404037D01*
X103294964Y-110397659D01*
X103326055Y-110388375D01*
X103443251Y-110361235D01*
X103443261Y-110361231D01*
X103443270Y-110361229D01*
X103512775Y-110336871D01*
X103594576Y-110308206D01*
X103632272Y-110296953D01*
X103656358Y-110286556D01*
X103753592Y-110252483D01*
X103920769Y-110172440D01*
X103955476Y-110157462D01*
X103971845Y-110147985D01*
X104050193Y-110110473D01*
X104234470Y-109995958D01*
X104260133Y-109981104D01*
X104268771Y-109974643D01*
X104329501Y-109936905D01*
X104535475Y-109775223D01*
X104542057Y-109770302D01*
X104543542Y-109768890D01*
X104588172Y-109733858D01*
X104823108Y-109503762D01*
X104910546Y-109397023D01*
X105031488Y-109249384D01*
X105031489Y-109249382D01*
X105031496Y-109249374D01*
X105121117Y-109111524D01*
X105121120Y-109111526D01*
X105121137Y-109111492D01*
X105121390Y-109111105D01*
X105121389Y-109111104D01*
X107958637Y-104750517D01*
X107961498Y-104746315D01*
X108176092Y-104444608D01*
X108179668Y-104439831D01*
X108234308Y-104370465D01*
X108236896Y-104367293D01*
X108448266Y-104116893D01*
X108452874Y-104111736D01*
X108504715Y-104056924D01*
X108506771Y-104054807D01*
X108748433Y-103812424D01*
X108754112Y-103807080D01*
X108788343Y-103776882D01*
X108789925Y-103775514D01*
X109070950Y-103536853D01*
X109079027Y-103530549D01*
X109407330Y-103295560D01*
X109415915Y-103289938D01*
X109762534Y-103082917D01*
X109771542Y-103078032D01*
X110134097Y-102900400D01*
X110143473Y-102896279D01*
X110519485Y-102749250D01*
X110529176Y-102745916D01*
X110882493Y-102640516D01*
X110884528Y-102639929D01*
X110928469Y-102627717D01*
X110936053Y-102625868D01*
X111270976Y-102555503D01*
X111274029Y-102554904D01*
X111348113Y-102541367D01*
X111354941Y-102540317D01*
X111680125Y-102499703D01*
X111684214Y-102499263D01*
X111772121Y-102491297D01*
X111778068Y-102490904D01*
X112147165Y-102475605D01*
X112152300Y-102475500D01*
X132225627Y-102475500D01*
X132230679Y-102475602D01*
X132594818Y-102490453D01*
X132600554Y-102490823D01*
X132684286Y-102498194D01*
X132688515Y-102498639D01*
X133009122Y-102538048D01*
X133015570Y-102539016D01*
X133089570Y-102552147D01*
X133092792Y-102552766D01*
X133419214Y-102620244D01*
X133426305Y-102621931D01*
X133480951Y-102636669D01*
X133483406Y-102637361D01*
X133821835Y-102736657D01*
X133829546Y-102739197D01*
X133847038Y-102745607D01*
X133848630Y-102746205D01*
X134205820Y-102883487D01*
X134215064Y-102887480D01*
X134254505Y-102906458D01*
X134573219Y-103059816D01*
X134582136Y-103064563D01*
X134925068Y-103265502D01*
X134933550Y-103270948D01*
X135125103Y-103405274D01*
X135258963Y-103499143D01*
X135266992Y-103505276D01*
X135471733Y-103675328D01*
X135572733Y-103759215D01*
X135580240Y-103765985D01*
X135853597Y-104033527D01*
X135854975Y-104034898D01*
X135867998Y-104048050D01*
X135873550Y-104054038D01*
X136104642Y-104320405D01*
X136106402Y-104322480D01*
X136142424Y-104365889D01*
X136146971Y-104371714D01*
X136344078Y-104640320D01*
X136346109Y-104643170D01*
X136388761Y-104704872D01*
X136392373Y-104710408D01*
X136561597Y-104985481D01*
X136563775Y-104989162D01*
X136605285Y-105062163D01*
X136608047Y-105067296D01*
X136758966Y-105364418D01*
X136772582Y-105391223D01*
X136774773Y-105395764D01*
X138776796Y-109770302D01*
X139088025Y-110450356D01*
X139088075Y-110450425D01*
X139144248Y-110573175D01*
X139144250Y-110573180D01*
X139225527Y-110710120D01*
X139307410Y-110848082D01*
X139402679Y-110975485D01*
X139498845Y-111104088D01*
X139498850Y-111104094D01*
X139532203Y-111140004D01*
X139534597Y-111142582D01*
X139535088Y-111143219D01*
X139537504Y-111145712D01*
X139538371Y-111146645D01*
X139538415Y-111146691D01*
X139710833Y-111332321D01*
X139716400Y-111338314D01*
X139766037Y-111381485D01*
X139772213Y-111387857D01*
X139792749Y-111404718D01*
X139957604Y-111548099D01*
X140022800Y-111593608D01*
X140035526Y-111604057D01*
X140065919Y-111623706D01*
X140219730Y-111731072D01*
X140298100Y-111774188D01*
X140301957Y-111776310D01*
X140321638Y-111789034D01*
X140356606Y-111806376D01*
X140499811Y-111885162D01*
X140600349Y-111927258D01*
X140626863Y-111940407D01*
X140662623Y-111953332D01*
X140794678Y-112008625D01*
X140914729Y-112044461D01*
X140947273Y-112056226D01*
X140980937Y-112064225D01*
X141100991Y-112100063D01*
X141241748Y-112126208D01*
X141278740Y-112135000D01*
X141308105Y-112138533D01*
X141415286Y-112158442D01*
X141578260Y-112171051D01*
X141616999Y-112175715D01*
X141640423Y-112175860D01*
X141734004Y-112183101D01*
X141921507Y-112177620D01*
X141957692Y-112177847D01*
X141974059Y-112176084D01*
X142053538Y-112173761D01*
X142270003Y-112144213D01*
X142296433Y-112141368D01*
X142305091Y-112139423D01*
X142370271Y-112130527D01*
X142625491Y-112067502D01*
X142628860Y-112066747D01*
X142629618Y-112066483D01*
X142680619Y-112053889D01*
X142680623Y-112053887D01*
X142680629Y-112053886D01*
X142981060Y-111944717D01*
X142981060Y-111944716D01*
X142981068Y-111944714D01*
X143268219Y-111804238D01*
X143403518Y-111719141D01*
X143403941Y-111718875D01*
X143403940Y-111718874D01*
X143919763Y-111394471D01*
X144930581Y-110711883D01*
X145918669Y-109996789D01*
X146882982Y-109249943D01*
X147822500Y-108472136D01*
X148736231Y-107664191D01*
X149623206Y-106826962D01*
X150482489Y-105961334D01*
X150824359Y-105593770D01*
X151313171Y-105068224D01*
X152109017Y-104154721D01*
X152114372Y-104148574D01*
X152885246Y-103203359D01*
X153624977Y-102233578D01*
X154332784Y-101240256D01*
X155007917Y-100224444D01*
X155649662Y-99187216D01*
X155649669Y-99187205D01*
X156257343Y-98129666D01*
X156722426Y-97255664D01*
X156830311Y-97052923D01*
X157367966Y-95958115D01*
X157869738Y-94846403D01*
X158335095Y-93718963D01*
X158763546Y-92576987D01*
X159154638Y-91421684D01*
X159507956Y-90254274D01*
X159823128Y-89075994D01*
X160099819Y-87888088D01*
X160337738Y-86691813D01*
X160536633Y-85488435D01*
X160696292Y-84279226D01*
X160816548Y-83065464D01*
X160831282Y-82843331D01*
X160831437Y-82841671D01*
X160831874Y-82834402D01*
X160897274Y-81848435D01*
X160904887Y-81622673D01*
X160905035Y-81619531D01*
X160905223Y-81616414D01*
X160905760Y-81596796D01*
X160938383Y-80629423D01*
X160938659Y-80397090D01*
X160938871Y-80389399D01*
X160938705Y-80358354D01*
X160939833Y-79409720D01*
X160932452Y-79174251D01*
X160932394Y-79171055D01*
X160932346Y-79161940D01*
X160930772Y-79120595D01*
X160930756Y-79120159D01*
X160901621Y-78190614D01*
X160886175Y-77949058D01*
X160885654Y-77935351D01*
X160882037Y-77884340D01*
X160823789Y-76973396D01*
X160800171Y-76729106D01*
X160799919Y-76726084D01*
X160798846Y-76710948D01*
X160792655Y-76651354D01*
X160792654Y-76651348D01*
X160706419Y-75759352D01*
X160674045Y-75509590D01*
X160672015Y-75490042D01*
X160662785Y-75422724D01*
X160549634Y-74549767D01*
X160508612Y-74297852D01*
X160508157Y-74294812D01*
X160505296Y-74273940D01*
X160492675Y-74199961D01*
X160492530Y-74199091D01*
X160476498Y-74100635D01*
X160353601Y-73345919D01*
X160303160Y-73089111D01*
X160298868Y-73063946D01*
X160282404Y-72983436D01*
X160118526Y-72149082D01*
X160058984Y-71890675D01*
X160058365Y-71887827D01*
X160052952Y-71861355D01*
X160032427Y-71775416D01*
X160032374Y-71775193D01*
X159844659Y-70960522D01*
X159775491Y-70699449D01*
X159775491Y-70699448D01*
X159775099Y-70697971D01*
X159767812Y-70667457D01*
X159742965Y-70576683D01*
X159742872Y-70576329D01*
X159742815Y-70576118D01*
X159532289Y-69781496D01*
X159453237Y-69518040D01*
X159452405Y-69515139D01*
X159443753Y-69483529D01*
X159414504Y-69388943D01*
X159414230Y-69388044D01*
X159181747Y-68613250D01*
X159092086Y-68346299D01*
X159081122Y-68310841D01*
X159047113Y-68212400D01*
X158793403Y-67457020D01*
X158693860Y-67189773D01*
X158692868Y-67187007D01*
X158680309Y-67150653D01*
X158641750Y-67049857D01*
X158641364Y-67048835D01*
X158367668Y-66314029D01*
X158257018Y-66044135D01*
X158241739Y-66004194D01*
X158198156Y-65900562D01*
X157904992Y-65185486D01*
X157784107Y-64915951D01*
X157783042Y-64913498D01*
X157765887Y-64872707D01*
X157765882Y-64872695D01*
X157754202Y-64847284D01*
X157717545Y-64767531D01*
X157717303Y-64766998D01*
X157405864Y-64072585D01*
X157273465Y-63801358D01*
X157253261Y-63757399D01*
X157199891Y-63650638D01*
X157024165Y-63290652D01*
X156870818Y-62976510D01*
X156773634Y-62792828D01*
X156727935Y-62706453D01*
X156726654Y-62703963D01*
X156704413Y-62659473D01*
X156704409Y-62659464D01*
X156646443Y-62552417D01*
X156645879Y-62551362D01*
X156348790Y-61989849D01*
X156300404Y-61898396D01*
X156145578Y-61627463D01*
X156119920Y-61580079D01*
X156056864Y-61472221D01*
X155695241Y-60839408D01*
X155529735Y-60570481D01*
X155528308Y-60568101D01*
X155500431Y-60520417D01*
X155500430Y-60520415D01*
X155500421Y-60520400D01*
X155432774Y-60412922D01*
X155432327Y-60412204D01*
X155055963Y-59800657D01*
X155055955Y-59800644D01*
X154878925Y-59532905D01*
X154878152Y-59531736D01*
X154846573Y-59481563D01*
X154774066Y-59374318D01*
X154383246Y-58783243D01*
X154194626Y-58517201D01*
X154193056Y-58514934D01*
X154159071Y-58464667D01*
X154082264Y-58358707D01*
X154081506Y-58357650D01*
X154030939Y-58286327D01*
X153677803Y-57788242D01*
X153677792Y-57788227D01*
X153477445Y-57524275D01*
X153477445Y-57524276D01*
X153476612Y-57523179D01*
X153438675Y-57470841D01*
X153357078Y-57365696D01*
X153180466Y-57133013D01*
X152940390Y-56816718D01*
X152809991Y-56656050D01*
X152728221Y-56555299D01*
X152726561Y-56553207D01*
X152686129Y-56501105D01*
X152617517Y-56418428D01*
X152600545Y-56397976D01*
X152599891Y-56397180D01*
X152171754Y-55869660D01*
X151946884Y-55610303D01*
X151902257Y-55556527D01*
X151812143Y-55454899D01*
X151811683Y-55454368D01*
X151632576Y-55247793D01*
X151372741Y-54948109D01*
X151136870Y-54693299D01*
X151135143Y-54691394D01*
X151087889Y-54638102D01*
X150994186Y-54539148D01*
X150993357Y-54538263D01*
X150544185Y-54053026D01*
X150295475Y-53801285D01*
X150243901Y-53746821D01*
X150146038Y-53650025D01*
X150145492Y-53649473D01*
X150145491Y-53649472D01*
X149686966Y-53185361D01*
X149427257Y-52939048D01*
X149425388Y-52937238D01*
X149371186Y-52883627D01*
X149270199Y-52790078D01*
X149269136Y-52789082D01*
X148801988Y-52346030D01*
X148530389Y-52104721D01*
X148530389Y-52104720D01*
X148529372Y-52103817D01*
X148470711Y-52049476D01*
X148365741Y-51958436D01*
X148365140Y-51957902D01*
X147890184Y-51535917D01*
X147606703Y-51300091D01*
X147604760Y-51298440D01*
X147543403Y-51245225D01*
X147435751Y-51157866D01*
X147434675Y-51156982D01*
X146988439Y-50785762D01*
X146952497Y-50755862D01*
X146657248Y-50526072D01*
X146656232Y-50525281D01*
X146590284Y-50471764D01*
X146479073Y-50387399D01*
X146478441Y-50386907D01*
X145989979Y-50006739D01*
X145682910Y-49783394D01*
X145680906Y-49781905D01*
X145612374Y-49729917D01*
X145499000Y-49649617D01*
X145497733Y-49648707D01*
X145101059Y-49360190D01*
X145003585Y-49289293D01*
X144848607Y-49184102D01*
X144684927Y-49073004D01*
X144683896Y-49072304D01*
X144610675Y-49020444D01*
X144494071Y-48943460D01*
X144125116Y-48693032D01*
X143994388Y-48604300D01*
X143664122Y-48395487D01*
X143662069Y-48394161D01*
X143586319Y-48344150D01*
X143468128Y-48271558D01*
X143466759Y-48270705D01*
X142984264Y-47965646D01*
X142963461Y-47952493D01*
X142887455Y-47907829D01*
X142621786Y-47751713D01*
X142621786Y-47751712D01*
X142620687Y-47751066D01*
X142540365Y-47701733D01*
X142419436Y-47632805D01*
X142418777Y-47632418D01*
X142418713Y-47632381D01*
X141911867Y-47334541D01*
X141558912Y-47142292D01*
X141556821Y-47141127D01*
X141473941Y-47093887D01*
X141351859Y-47029500D01*
X141350392Y-47028714D01*
X140840761Y-46751126D01*
X140476717Y-46567926D01*
X140475634Y-46567381D01*
X140388224Y-46521281D01*
X140263852Y-46460804D01*
X140263033Y-46460392D01*
X139751242Y-46202840D01*
X139376178Y-46029141D01*
X139374063Y-46028137D01*
X139284343Y-45984509D01*
X139159403Y-45928735D01*
X139157840Y-45928024D01*
X138644467Y-45690271D01*
X138258681Y-45526623D01*
X138258681Y-45526622D01*
X138257560Y-45526146D01*
X138163470Y-45484144D01*
X138036684Y-45432453D01*
X138035772Y-45432066D01*
X137521606Y-45213960D01*
X137125372Y-45060883D01*
X137123245Y-45060039D01*
X137026835Y-45020733D01*
X136899912Y-44973769D01*
X136898258Y-44973143D01*
X136383856Y-44774415D01*
X135977358Y-44632383D01*
X135976278Y-44632005D01*
X135875636Y-44594766D01*
X135747269Y-44551989D01*
X135746416Y-44551691D01*
X135232411Y-44372095D01*
X134815902Y-44241599D01*
X134813773Y-44240911D01*
X134711125Y-44206704D01*
X134583221Y-44168684D01*
X134581480Y-44168152D01*
X134068502Y-44007432D01*
X133642294Y-43888971D01*
X133641216Y-43888671D01*
X133534521Y-43856956D01*
X133405659Y-43823199D01*
X133404722Y-43822939D01*
X132893355Y-43680810D01*
X132893358Y-43680810D01*
X132893341Y-43680806D01*
X132631998Y-43617245D01*
X132457743Y-43574864D01*
X132455625Y-43574329D01*
X132374990Y-43553206D01*
X132347110Y-43545903D01*
X132219201Y-43516833D01*
X132217389Y-43516407D01*
X131708189Y-43392566D01*
X131708185Y-43392565D01*
X131568688Y-43363407D01*
X131263493Y-43299614D01*
X131263493Y-43299613D01*
X131262349Y-43299374D01*
X131150155Y-43273876D01*
X131021666Y-43249066D01*
X131020692Y-43248863D01*
X130642492Y-43169811D01*
X130514282Y-43143013D01*
X130305868Y-43106478D01*
X130060831Y-43063524D01*
X130058734Y-43063137D01*
X129944946Y-43041166D01*
X129817889Y-43020921D01*
X129815992Y-43020604D01*
X129312882Y-42932412D01*
X128851093Y-42866860D01*
X128851093Y-42866859D01*
X128849972Y-42866699D01*
X128732754Y-42848023D01*
X128605490Y-42831996D01*
X128604489Y-42831854D01*
X128105307Y-42760993D01*
X127635519Y-42709825D01*
X127633452Y-42709582D01*
X127514895Y-42694652D01*
X127389556Y-42683020D01*
X127387589Y-42682822D01*
X127043930Y-42645392D01*
X126892766Y-42628928D01*
X126892759Y-42628927D01*
X126892755Y-42628927D01*
X126415343Y-42592589D01*
X126414281Y-42592508D01*
X126292672Y-42581222D01*
X126167585Y-42573731D01*
X126166541Y-42573652D01*
X125676590Y-42536360D01*
X125191985Y-42515293D01*
X125189959Y-42515188D01*
X125067413Y-42507849D01*
X124944596Y-42504522D01*
X124942569Y-42504450D01*
X124458039Y-42483387D01*
X123966679Y-42478019D01*
X123966679Y-42478018D01*
X123965550Y-42478005D01*
X123840364Y-42474615D01*
X123718238Y-42475305D01*
X123717186Y-42475294D01*
X123238380Y-42470064D01*
X122740726Y-42480815D01*
X122738750Y-42480842D01*
X122612916Y-42481554D01*
X122493513Y-42486139D01*
X122491433Y-42486201D01*
X122018964Y-42496408D01*
X121515564Y-42523680D01*
X121514478Y-42523738D01*
X121386335Y-42528660D01*
X121267898Y-42537097D01*
X121266739Y-42537160D01*
X120801073Y-42562388D01*
X120801068Y-42562388D01*
X120801057Y-42562389D01*
X120671391Y-42573652D01*
X120292223Y-42606586D01*
X120290306Y-42606737D01*
X120161972Y-42615881D01*
X120161965Y-42615881D01*
X120161961Y-42615882D01*
X120149262Y-42617205D01*
X120046688Y-42627895D01*
X120044566Y-42628098D01*
X119681646Y-42659622D01*
X119585928Y-42667937D01*
X119524856Y-42675249D01*
X119072266Y-42729437D01*
X119072267Y-42729438D01*
X119071237Y-42729561D01*
X118941097Y-42743125D01*
X118827076Y-42758795D01*
X118825963Y-42758929D01*
X118374854Y-42812943D01*
X117856892Y-42892120D01*
X117855039Y-42892389D01*
X117725050Y-42910254D01*
X117614471Y-42929157D01*
X117612316Y-42929506D01*
X117169173Y-42997247D01*
X116647469Y-43094450D01*
X116647470Y-43094451D01*
X116646426Y-43094645D01*
X116515127Y-43117091D01*
X116406079Y-43139428D01*
X116404922Y-43139644D01*
X116404921Y-43139643D01*
X116404921Y-43139644D01*
X115970108Y-43220660D01*
X115445118Y-43336258D01*
X115443337Y-43336636D01*
X115312645Y-43363407D01*
X115207349Y-43388592D01*
X115205170Y-43389092D01*
X114778935Y-43482946D01*
X114251336Y-43617245D01*
X114250404Y-43617482D01*
X114118818Y-43648956D01*
X114015390Y-43677303D01*
X114014201Y-43677606D01*
X114014176Y-43677613D01*
X113596929Y-43783823D01*
X113067200Y-43937168D01*
X113065498Y-43937647D01*
X112935001Y-43973414D01*
X112835544Y-44004205D01*
X112833352Y-44004862D01*
X112425319Y-44122980D01*
X111894141Y-44295650D01*
X111894142Y-44295651D01*
X111893230Y-44295947D01*
X111762434Y-44336442D01*
X111665016Y-44370133D01*
X111663924Y-44370489D01*
X111265362Y-44500052D01*
X110733293Y-44692357D01*
X110731675Y-44692929D01*
X110602383Y-44737645D01*
X110509211Y-44773323D01*
X110507019Y-44774139D01*
X110266727Y-44860989D01*
X110118288Y-44914640D01*
X109916382Y-44995130D01*
X109586014Y-45126831D01*
X109585191Y-45127158D01*
X109456071Y-45176603D01*
X109365083Y-45214904D01*
X109363943Y-45215359D01*
X109363941Y-45215359D01*
X108985309Y-45366302D01*
X108453424Y-45598656D01*
X108451895Y-45599312D01*
X108324732Y-45652841D01*
X108238046Y-45692719D01*
X108235864Y-45693697D01*
X107867609Y-45854570D01*
X107336834Y-46107299D01*
X107336834Y-46107298D01*
X107335975Y-46107706D01*
X107209609Y-46165840D01*
X107125392Y-46207974D01*
X107124193Y-46208546D01*
X107124154Y-46208566D01*
X106766347Y-46378937D01*
X106237334Y-46652272D01*
X106235897Y-46653003D01*
X106111854Y-46715064D01*
X106032076Y-46758298D01*
X106029917Y-46759440D01*
X105682754Y-46938817D01*
X105156175Y-47232970D01*
X105155337Y-47233438D01*
X105032672Y-47299915D01*
X104955391Y-47345128D01*
X104954201Y-47345794D01*
X104954199Y-47345794D01*
X104617912Y-47533652D01*
X104094495Y-47848795D01*
X104093154Y-47849591D01*
X103973217Y-47919763D01*
X103973202Y-47919772D01*
X103957791Y-47929478D01*
X103900369Y-47965646D01*
X103898245Y-47966954D01*
X103572982Y-48162793D01*
X103053372Y-48499136D01*
X103052585Y-48499645D01*
X102934586Y-48573970D01*
X102864391Y-48621461D01*
X102863243Y-48622205D01*
X102863200Y-48622235D01*
X102549060Y-48825580D01*
X102034025Y-49183250D01*
X102032782Y-49184102D01*
X101917941Y-49261802D01*
X101852154Y-49309522D01*
X101850077Y-49310996D01*
X101547243Y-49521302D01*
X101037496Y-49900450D01*
X101037497Y-49900451D01*
X101036799Y-49900969D01*
X100924339Y-49982547D01*
X100861147Y-50031620D01*
X100860096Y-50032402D01*
X100860094Y-50032402D01*
X100568598Y-50249216D01*
X100064765Y-50650058D01*
X100063620Y-50650958D01*
X99954872Y-50735409D01*
X99896210Y-50784123D01*
X99894193Y-50785762D01*
X99614108Y-51008594D01*
X99117050Y-51431153D01*
X99116447Y-51431665D01*
X99010544Y-51519611D01*
X98954476Y-51569359D01*
X98953453Y-51570230D01*
X98684817Y-51798603D01*
X98195265Y-52243000D01*
X98194219Y-52243939D01*
X98092388Y-52334293D01*
X98040753Y-52383222D01*
X98038808Y-52385026D01*
X97781718Y-52618402D01*
X97300416Y-53084738D01*
X97299782Y-53085351D01*
X97201398Y-53178579D01*
X97152317Y-53228234D01*
X97151325Y-53229196D01*
X97151322Y-53229197D01*
X96905753Y-53467133D01*
X96433595Y-53955361D01*
X96432650Y-53956327D01*
X96338509Y-54051572D01*
X96293696Y-54099979D01*
X96291840Y-54101941D01*
X96057835Y-54343913D01*
X95595512Y-54854178D01*
X95594989Y-54854754D01*
X95504652Y-54952341D01*
X95462348Y-55001150D01*
X95461395Y-55002203D01*
X95461392Y-55002204D01*
X95238885Y-55247788D01*
X94787234Y-55780082D01*
X94786389Y-55781068D01*
X94700719Y-55879915D01*
X94662544Y-55926989D01*
X94660785Y-55929109D01*
X94449755Y-56177821D01*
X94009600Y-56732141D01*
X94009114Y-56732752D01*
X93927575Y-56833301D01*
X93891760Y-56880545D01*
X93890853Y-56881688D01*
X93691290Y-57133013D01*
X93263377Y-57709454D01*
X93262629Y-57710452D01*
X93186031Y-57811495D01*
X93154141Y-57856554D01*
X93152492Y-57858828D01*
X92964287Y-58112360D01*
X92549485Y-58710865D01*
X92549092Y-58711430D01*
X92476923Y-58813400D01*
X92447267Y-58858350D01*
X92446431Y-58859558D01*
X92269501Y-59114845D01*
X91868645Y-59735400D01*
X91867991Y-59736401D01*
X91800976Y-59837983D01*
X91774991Y-59880323D01*
X91773466Y-59882744D01*
X91607675Y-60139400D01*
X91221719Y-60781802D01*
X91221719Y-60781803D01*
X91221359Y-60782401D01*
X91158911Y-60884154D01*
X91135014Y-60926111D01*
X91134223Y-60927429D01*
X91134209Y-60927455D01*
X90979528Y-61184915D01*
X90609184Y-61849356D01*
X90608622Y-61850353D01*
X90551425Y-61950780D01*
X90530836Y-61989849D01*
X90529450Y-61992407D01*
X90385705Y-62250305D01*
X90031942Y-62936565D01*
X90031593Y-62937241D01*
X89979185Y-63036694D01*
X89960508Y-63075136D01*
X89959799Y-63076512D01*
X89826842Y-63334438D01*
X89490423Y-64042691D01*
X89489951Y-64043674D01*
X89442784Y-64140760D01*
X89427100Y-64175923D01*
X89425862Y-64178612D01*
X89303519Y-64436181D01*
X88985465Y-65166120D01*
X88985183Y-65166765D01*
X88942799Y-65261798D01*
X88928797Y-65296172D01*
X88928172Y-65297609D01*
X88816318Y-65554314D01*
X88517429Y-66306126D01*
X88517041Y-66307091D01*
X88479768Y-66398600D01*
X88468398Y-66429356D01*
X88467320Y-66432165D01*
X88365708Y-66687758D01*
X88087058Y-67461004D01*
X88086819Y-67461664D01*
X88054193Y-67549932D01*
X88044304Y-67579638D01*
X88043764Y-67581139D01*
X88043749Y-67581185D01*
X87952206Y-67835216D01*
X87694636Y-68630105D01*
X87694328Y-68631041D01*
X87666520Y-68714585D01*
X87658841Y-68740449D01*
X87657933Y-68743375D01*
X87576225Y-68995540D01*
X87340721Y-69811965D01*
X87340544Y-69812576D01*
X87317174Y-69891296D01*
X87310709Y-69916006D01*
X87310268Y-69917538D01*
X87238182Y-70167439D01*
X87025699Y-71005488D01*
X87025466Y-71006393D01*
X87006515Y-71078837D01*
X87001858Y-71099356D01*
X87001132Y-71102380D01*
X86938415Y-71349750D01*
X86750039Y-72209113D01*
X86749891Y-72209784D01*
X86734899Y-72275858D01*
X86731185Y-72295126D01*
X86730836Y-72296720D01*
X86677252Y-72541171D01*
X86514029Y-73421809D01*
X86513865Y-73422677D01*
X86502596Y-73481147D01*
X86500219Y-73496091D01*
X86499683Y-73499207D01*
X86454971Y-73740448D01*
X86317945Y-74642538D01*
X86317860Y-74643094D01*
X86309862Y-74693403D01*
X86308157Y-74706975D01*
X86307914Y-74708578D01*
X86271800Y-74946333D01*
X86162149Y-75869502D01*
X86162049Y-75870323D01*
X86156902Y-75911315D01*
X86156059Y-75920429D01*
X86155721Y-75923625D01*
X86127944Y-76157489D01*
X86046791Y-77102088D01*
X86046731Y-77102775D01*
X86043884Y-77133575D01*
X86043427Y-77141237D01*
X86043287Y-77142876D01*
X86043286Y-77142896D01*
X86023541Y-77372729D01*
X85972112Y-78338896D01*
X85972068Y-78339664D01*
X85970926Y-78358871D01*
X85970844Y-78361923D01*
X85970714Y-78365179D01*
X85958710Y-78590709D01*
X85938302Y-79578466D01*
X85938284Y-79579194D01*
X85938104Y-79585944D01*
X85938105Y-79585973D01*
X85938081Y-79589157D01*
X85933517Y-79810181D01*
X78443884Y-79810181D01*
X78443884Y-79455153D01*
X78443898Y-79453307D01*
X78445848Y-79322350D01*
X78447949Y-79181178D01*
X78447981Y-79179694D01*
X78478251Y-78139381D01*
X78478322Y-78137503D01*
X78490396Y-77867365D01*
X78490472Y-77865885D01*
X78551119Y-76824611D01*
X78551232Y-76822900D01*
X78571118Y-76556275D01*
X78571226Y-76554942D01*
X78662480Y-75511913D01*
X78662668Y-75509958D01*
X78689896Y-75249655D01*
X78690054Y-75248230D01*
X78812301Y-74202337D01*
X78812535Y-74200485D01*
X78846533Y-73948286D01*
X78846686Y-73947194D01*
X79000459Y-72897397D01*
X79000772Y-72895391D01*
X79040686Y-72653869D01*
X79040902Y-72652611D01*
X79103936Y-72295126D01*
X79226834Y-71598136D01*
X79227221Y-71596053D01*
X79272068Y-71367257D01*
X79272120Y-71366995D01*
X79491295Y-70305533D01*
X79491740Y-70303482D01*
X79539959Y-70091178D01*
X79540116Y-70090498D01*
X79793589Y-69021011D01*
X79794131Y-69018824D01*
X79843985Y-68826086D01*
X79844102Y-68825640D01*
X80133498Y-67745601D01*
X80134150Y-67743268D01*
X80183231Y-67574425D01*
X80183405Y-67573834D01*
X80510733Y-66480479D01*
X80511518Y-66477962D01*
X80526323Y-66432165D01*
X80556907Y-66337558D01*
X80556950Y-66337426D01*
X80925025Y-65226638D01*
X80925860Y-65224208D01*
X80963520Y-65118567D01*
X81376029Y-63985209D01*
X81376933Y-63982812D01*
X81401384Y-63920189D01*
X81401405Y-63920133D01*
X81863287Y-62757506D01*
X81864345Y-62754932D01*
X81867863Y-62746660D01*
X81868090Y-62746130D01*
X82382266Y-61554134D01*
X82383685Y-61550973D01*
X82935389Y-60367838D01*
X82936929Y-60364658D01*
X83522791Y-59198112D01*
X83524405Y-59195012D01*
X84143979Y-58045940D01*
X84145665Y-58042919D01*
X84798401Y-56912347D01*
X84800192Y-56909348D01*
X85485509Y-55798279D01*
X85487396Y-55795318D01*
X86204724Y-54704673D01*
X86206711Y-54701745D01*
X86955472Y-53632403D01*
X86957519Y-53629569D01*
X87737080Y-52582436D01*
X87739189Y-52579687D01*
X88548887Y-51555658D01*
X88551107Y-51552932D01*
X89390187Y-50552956D01*
X89392529Y-50550247D01*
X89462373Y-50471764D01*
X90260364Y-49575067D01*
X90262712Y-49572505D01*
X91158557Y-48622966D01*
X91161003Y-48620448D01*
X92084072Y-47697379D01*
X92086590Y-47694933D01*
X93036129Y-46799088D01*
X93038691Y-46796740D01*
X94013890Y-45928888D01*
X94016580Y-45926563D01*
X94982314Y-45116216D01*
X95025964Y-45080018D01*
X95028015Y-45078357D01*
X95980522Y-44325212D01*
X96062506Y-44261247D01*
X96064497Y-44259730D01*
X97008544Y-43556914D01*
X97122434Y-43473389D01*
X97124360Y-43472009D01*
X98063871Y-42814158D01*
X98204758Y-42717148D01*
X98206641Y-42715881D01*
X99144709Y-42098905D01*
X99308635Y-41993085D01*
X99310418Y-41991961D01*
X100249162Y-41412936D01*
X100432862Y-41301956D01*
X100434805Y-41300810D01*
X101375661Y-40757606D01*
X101376307Y-40757238D01*
X101576613Y-40644227D01*
X101578486Y-40643193D01*
X102523334Y-40133735D01*
X102523965Y-40133399D01*
X102738993Y-40020387D01*
X102740746Y-40019487D01*
X103690370Y-39542567D01*
X103691361Y-39542077D01*
X103918693Y-39431106D01*
X103920268Y-39430354D01*
X104876025Y-38984678D01*
X104877014Y-38984224D01*
X105114601Y-38876886D01*
X105116290Y-38876140D01*
X106078910Y-38460906D01*
X106079783Y-38460536D01*
X106325898Y-38358055D01*
X106327333Y-38357471D01*
X107297633Y-37971996D01*
X107298618Y-37971613D01*
X107551088Y-37875202D01*
X107552646Y-37874620D01*
X108530919Y-37518558D01*
X108532232Y-37518090D01*
X108789475Y-37428537D01*
X108790923Y-37428045D01*
X109777998Y-37100964D01*
X109779425Y-37100503D01*
X110039455Y-37018575D01*
X110040968Y-37018110D01*
X111037527Y-36719760D01*
X111039192Y-36719276D01*
X111300163Y-36645517D01*
X111301477Y-36645155D01*
X112308341Y-36375366D01*
X112310135Y-36374901D01*
X112570172Y-36309701D01*
X112571436Y-36309393D01*
X113589506Y-36068106D01*
X113591219Y-36067716D01*
X113848251Y-36011346D01*
X113849336Y-36011115D01*
X114879404Y-35798423D01*
X114881239Y-35798060D01*
X115133176Y-35750623D01*
X115134146Y-35750446D01*
X116177256Y-35566518D01*
X116179219Y-35566190D01*
X116423142Y-35527743D01*
X116424281Y-35527569D01*
X117481741Y-35372674D01*
X117483905Y-35372378D01*
X117717437Y-35342664D01*
X117718064Y-35342587D01*
X118791755Y-35217091D01*
X118793941Y-35216857D01*
X119013888Y-35195504D01*
X119014614Y-35195437D01*
X120106026Y-35099951D01*
X120108358Y-35099770D01*
X120311066Y-35086168D01*
X120311718Y-35086127D01*
X121423636Y-35021366D01*
X121426050Y-35021251D01*
X121606888Y-35014516D01*
X121607210Y-35014505D01*
X122743123Y-34981453D01*
X122745799Y-34981405D01*
X122899202Y-34980262D01*
X122900125Y-34980260D01*
X124063573Y-34980260D01*
X124066341Y-34980291D01*
G37*
%TD.AperFunction*%
%TD*%
M02*
