%TF.GenerationSoftware,KiCad,Pcbnew,9.0.6*%
%TF.CreationDate,2026-01-21T21:36:57+08:00*%
%TF.ProjectId,Ledx10,4c656478-3130-42e6-9b69-6361645f7063,rev?*%
%TF.SameCoordinates,Original*%
%TF.FileFunction,Legend,Bot*%
%TF.FilePolarity,Positive*%
%FSLAX46Y46*%
G04 Gerber Fmt 4.6, Leading zero omitted, Abs format (unit mm)*
G04 Created by KiCad (PCBNEW 9.0.6) date 2026-01-21 21:36:57*
%MOMM*%
%LPD*%
G01*
G04 APERTURE LIST*
%ADD10C,0.240000*%
G04 APERTURE END LIST*
D10*
G36*
X108427439Y-166284000D02*
G01*
X108079759Y-164611424D01*
X108661179Y-164611424D01*
X108591204Y-164275346D01*
X107034278Y-164275346D01*
X107104253Y-164611424D01*
X107684330Y-164611424D01*
X108032010Y-166284000D01*
X108427439Y-166284000D01*
G37*
G36*
X107158720Y-166284000D02*
G01*
X106763290Y-166284000D01*
X106605632Y-165525870D01*
X106347711Y-165525870D01*
X106094156Y-165517566D01*
X105931399Y-165497049D01*
X105823512Y-165462874D01*
X105706452Y-165401916D01*
X105598342Y-165318087D01*
X105498967Y-165203958D01*
X105445249Y-165116349D01*
X105401624Y-165013484D01*
X105368786Y-164893036D01*
X105359343Y-164825949D01*
X105770361Y-164825949D01*
X105777893Y-164899265D01*
X105806765Y-164984308D01*
X105855562Y-165057778D01*
X105920951Y-165116704D01*
X105999909Y-165157796D01*
X106103911Y-165179764D01*
X106319257Y-165189792D01*
X106535778Y-165189792D01*
X106415611Y-164611424D01*
X106224491Y-164611424D01*
X106028662Y-164615913D01*
X105942634Y-164625346D01*
X105885004Y-164643906D01*
X105839002Y-164673843D01*
X105802561Y-164715716D01*
X105779222Y-164765904D01*
X105770361Y-164825949D01*
X105359343Y-164825949D01*
X105351526Y-164770420D01*
X105352781Y-164666534D01*
X105369828Y-164578056D01*
X105401148Y-164502126D01*
X105465414Y-164411970D01*
X105544979Y-164347374D01*
X105642338Y-164305510D01*
X105777140Y-164285275D01*
X106106399Y-164275346D01*
X106741064Y-164275346D01*
X107158720Y-166284000D01*
G37*
G36*
X105259731Y-165643106D02*
G01*
X104866745Y-165604027D01*
X104858625Y-165730349D01*
X104830133Y-165822261D01*
X104784923Y-165888448D01*
X104720777Y-165936523D01*
X104633921Y-165967649D01*
X104517111Y-165979184D01*
X104391977Y-165969063D01*
X104292009Y-165941149D01*
X104212174Y-165897729D01*
X104143953Y-165837654D01*
X104099711Y-165774579D01*
X104075642Y-165707220D01*
X104072604Y-165640828D01*
X104091640Y-165588152D01*
X104133516Y-165545439D01*
X104216326Y-165502667D01*
X104514424Y-165413762D01*
X104712569Y-165347141D01*
X104841234Y-165279811D01*
X104919135Y-165213361D01*
X104979515Y-165126078D01*
X105015387Y-165031244D01*
X105027809Y-164926134D01*
X105015122Y-164807185D01*
X104985361Y-164708173D01*
X104937612Y-164612413D01*
X104870286Y-164518856D01*
X104789039Y-164437108D01*
X104693903Y-164369059D01*
X104583179Y-164314303D01*
X104465021Y-164276216D01*
X104332391Y-164252396D01*
X104183109Y-164244083D01*
X103994949Y-164256901D01*
X103851316Y-164291371D01*
X103742906Y-164343130D01*
X103662383Y-164410290D01*
X103600524Y-164497288D01*
X103562101Y-164597572D01*
X103547187Y-164714783D01*
X103558702Y-164853713D01*
X103957673Y-164869345D01*
X103962858Y-164768749D01*
X103984881Y-164697482D01*
X104020443Y-164647695D01*
X104071462Y-164612987D01*
X104147257Y-164589296D01*
X104256870Y-164580161D01*
X104369932Y-164588998D01*
X104463815Y-164613758D01*
X104542024Y-164652824D01*
X104584743Y-164688072D01*
X104613784Y-164729195D01*
X104630684Y-164777387D01*
X104633533Y-164823336D01*
X104622520Y-164863240D01*
X104597345Y-164899387D01*
X104549115Y-164934345D01*
X104447198Y-164978903D01*
X104261999Y-165034575D01*
X104008778Y-165112722D01*
X103865227Y-165180022D01*
X103790677Y-165236352D01*
X103733202Y-165303834D01*
X103691204Y-165383842D01*
X103667884Y-165471418D01*
X103662806Y-165576426D01*
X103679358Y-165703312D01*
X103712511Y-165814101D01*
X103765508Y-165921348D01*
X103840070Y-166026201D01*
X103929880Y-166117785D01*
X104033032Y-166192088D01*
X104151113Y-166249928D01*
X104277422Y-166289250D01*
X104423577Y-166314239D01*
X104592704Y-166323078D01*
X104781245Y-166309948D01*
X104927856Y-166274324D01*
X105040973Y-166220266D01*
X105127230Y-166149422D01*
X105193390Y-166058494D01*
X105238724Y-165947289D01*
X105262073Y-165810918D01*
X105259731Y-165643106D01*
G37*
G36*
X102626769Y-164286905D02*
G01*
X102751544Y-164321066D01*
X102869693Y-164378144D01*
X102982777Y-164459872D01*
X103080161Y-164558508D01*
X103158560Y-164671127D01*
X103218852Y-164799451D01*
X103260848Y-164945915D01*
X103279421Y-165092525D01*
X103272076Y-165216803D01*
X103242194Y-165323298D01*
X103190872Y-165415716D01*
X103118881Y-165495155D01*
X103036281Y-165550637D01*
X102940983Y-165584434D01*
X102829515Y-165596212D01*
X102727273Y-165586071D01*
X102629428Y-165555681D01*
X102534212Y-165503919D01*
X102440314Y-165428173D01*
X102514969Y-165661647D01*
X102581762Y-165807128D01*
X102640593Y-165890158D01*
X102715824Y-165955385D01*
X102788713Y-165991179D01*
X102861755Y-166002632D01*
X102920644Y-165995782D01*
X102965100Y-165976991D01*
X102998653Y-165947066D01*
X103020777Y-165907330D01*
X103032972Y-165852099D01*
X103032481Y-165775974D01*
X103404707Y-165817740D01*
X103401931Y-165945400D01*
X103382310Y-166048042D01*
X103348504Y-166130448D01*
X103301636Y-166196438D01*
X103240189Y-166249603D01*
X103164407Y-166288899D01*
X103071217Y-166314028D01*
X102956521Y-166323078D01*
X102802265Y-166308099D01*
X102657692Y-166263624D01*
X102520037Y-166188616D01*
X102387313Y-166079812D01*
X102301139Y-165981403D01*
X102220857Y-165857451D01*
X102146975Y-165703754D01*
X102080580Y-165515403D01*
X102023269Y-165286878D01*
X101984867Y-165052560D01*
X101973761Y-164865536D01*
X101974352Y-164857166D01*
X102365886Y-164857166D01*
X102380108Y-164978033D01*
X102411442Y-165084678D01*
X102453915Y-165166931D01*
X102506504Y-165229359D01*
X102571611Y-165278010D01*
X102637720Y-165305726D01*
X102706661Y-165314844D01*
X102776681Y-165304534D01*
X102831651Y-165275251D01*
X102875311Y-165225939D01*
X102900399Y-165163836D01*
X102908261Y-165074466D01*
X102892163Y-164947258D01*
X102857832Y-164825408D01*
X102815703Y-164738242D01*
X102767477Y-164677981D01*
X102706483Y-164631310D01*
X102643703Y-164604618D01*
X102577334Y-164595793D01*
X102509752Y-164606845D01*
X102453311Y-164639299D01*
X102405021Y-164696055D01*
X102375864Y-164765688D01*
X102365886Y-164857166D01*
X101974352Y-164857166D01*
X101984210Y-164717653D01*
X102011698Y-164601623D01*
X102053189Y-164511163D01*
X102116584Y-164425898D01*
X102190558Y-164361090D01*
X102276304Y-164314496D01*
X102376143Y-164285533D01*
X102493315Y-164275346D01*
X102626769Y-164286905D01*
G37*
G36*
X100611302Y-165924474D02*
G01*
X100686040Y-166284000D01*
X102002265Y-166284000D01*
X101951884Y-166153663D01*
X101883117Y-166026541D01*
X101794658Y-165901882D01*
X101690195Y-165786135D01*
X101522704Y-165629818D01*
X101272711Y-165422921D01*
X100999415Y-165197505D01*
X100893402Y-165095880D01*
X100831400Y-165013178D01*
X100790349Y-164935482D01*
X100767128Y-164861529D01*
X100758312Y-164776954D01*
X100768335Y-164713243D01*
X100793751Y-164664669D01*
X100834171Y-164627885D01*
X100889837Y-164604456D01*
X100965942Y-164595793D01*
X101041580Y-164604060D01*
X101108262Y-164628120D01*
X101168053Y-164668211D01*
X101216455Y-164721873D01*
X101260175Y-164799710D01*
X101298112Y-164908424D01*
X101664355Y-164870200D01*
X101603864Y-164713590D01*
X101532489Y-164588353D01*
X101451130Y-164489662D01*
X101359662Y-164413832D01*
X101254074Y-164353602D01*
X101141500Y-164310540D01*
X101020626Y-164284311D01*
X100889860Y-164275346D01*
X100744769Y-164286957D01*
X100629757Y-164318864D01*
X100538767Y-164368275D01*
X100467320Y-164434715D01*
X100413149Y-164517618D01*
X100381038Y-164609322D01*
X100370609Y-164712596D01*
X100383911Y-164830999D01*
X100422989Y-164962115D01*
X100484784Y-165087698D01*
X100568379Y-165207832D01*
X100688238Y-165342932D01*
X100792380Y-165439008D01*
X100987069Y-165597677D01*
X101258057Y-165818228D01*
X101356975Y-165924474D01*
X100611302Y-165924474D01*
G37*
G36*
X100499194Y-166284000D02*
G01*
X99831678Y-165535273D01*
X100175572Y-164830266D01*
X99717128Y-164830266D01*
X99549089Y-165229969D01*
X99201288Y-164830266D01*
X98760307Y-164830266D01*
X99384592Y-165518787D01*
X99018472Y-166284000D01*
X99479602Y-166284000D01*
X99674508Y-165833616D01*
X100059435Y-166284000D01*
X100499194Y-166284000D01*
G37*
G36*
X97972380Y-166284000D02*
G01*
X97559609Y-164298794D01*
X97164058Y-164298794D01*
X97506975Y-165947921D01*
X96523409Y-165947921D01*
X96593262Y-166284000D01*
X97972380Y-166284000D01*
G37*
G36*
X95561029Y-164803884D02*
G01*
X95690004Y-164841657D01*
X95813710Y-164905363D01*
X95933807Y-164997572D01*
X96035089Y-165106864D01*
X96119453Y-165236378D01*
X96187010Y-165388918D01*
X96236790Y-165568124D01*
X96259173Y-165724126D01*
X96258873Y-165857905D01*
X96239037Y-165973218D01*
X96201497Y-166073340D01*
X96143901Y-166160372D01*
X96068992Y-166228235D01*
X95974224Y-166278709D01*
X95855122Y-166311259D01*
X95705684Y-166323078D01*
X95553022Y-166310149D01*
X95416426Y-166272653D01*
X95292914Y-166211215D01*
X95182746Y-166127376D01*
X95084304Y-166019837D01*
X94997135Y-165885395D01*
X95358248Y-165822869D01*
X95418272Y-165918514D01*
X95481469Y-165977963D01*
X95555743Y-166013937D01*
X95639860Y-166026079D01*
X95721360Y-166014958D01*
X95785526Y-165983554D01*
X95836598Y-165931435D01*
X95868901Y-165865070D01*
X95882212Y-165779057D01*
X95872380Y-165666554D01*
X94931678Y-165666554D01*
X94898321Y-165476235D01*
X94889467Y-165320570D01*
X94889489Y-165320318D01*
X95245467Y-165320318D01*
X95255666Y-165432080D01*
X95817059Y-165432080D01*
X95787092Y-165330485D01*
X95743244Y-165247757D01*
X95685900Y-165180755D01*
X95615419Y-165128426D01*
X95541939Y-165098235D01*
X95463395Y-165088187D01*
X95391325Y-165098344D01*
X95333598Y-165127293D01*
X95286685Y-165175870D01*
X95257377Y-165237461D01*
X95245467Y-165320318D01*
X94889489Y-165320318D01*
X94900465Y-165193740D01*
X94927847Y-165090557D01*
X94969536Y-165006609D01*
X95030246Y-164930780D01*
X95103754Y-164871831D01*
X95191866Y-164828478D01*
X95297518Y-164800992D01*
X95424560Y-164791187D01*
X95561029Y-164803884D01*
G37*
G36*
X93526183Y-164993420D02*
G01*
X93600200Y-164903513D01*
X93684847Y-164841547D01*
X93782150Y-164804160D01*
X93895844Y-164791187D01*
X94021167Y-164803067D01*
X94139860Y-164838461D01*
X94254008Y-164898288D01*
X94365157Y-164985116D01*
X94457549Y-165087442D01*
X94536697Y-165213312D01*
X94602204Y-165366483D01*
X94652631Y-165551637D01*
X94678519Y-165739055D01*
X94674638Y-165891828D01*
X94646284Y-166016744D01*
X94596333Y-166119502D01*
X94522073Y-166209677D01*
X94436297Y-166272083D01*
X94336827Y-166309905D01*
X94219710Y-166323078D01*
X94099704Y-166307886D01*
X93967896Y-166259209D01*
X93843051Y-166181725D01*
X93723531Y-166070898D01*
X93767861Y-166284000D01*
X93419082Y-166284000D01*
X93234362Y-165395615D01*
X93621062Y-165395615D01*
X93644274Y-165567635D01*
X93686540Y-165715715D01*
X93741215Y-165827890D01*
X93806574Y-165911163D01*
X93888277Y-165977264D01*
X93968943Y-166014138D01*
X94051061Y-166026079D01*
X94127578Y-166016058D01*
X94187861Y-165987852D01*
X94235850Y-165941368D01*
X94272955Y-165872817D01*
X94289082Y-165800443D01*
X94288969Y-165690749D01*
X94264529Y-165529900D01*
X94223553Y-165387447D01*
X94170012Y-165279358D01*
X94105527Y-165198951D01*
X94024986Y-165135715D01*
X93943475Y-165099921D01*
X93858597Y-165088187D01*
X93773300Y-165101202D01*
X93707423Y-165138079D01*
X93656120Y-165200416D01*
X93628226Y-165278442D01*
X93621062Y-165395615D01*
X93234362Y-165395615D01*
X93001427Y-164275346D01*
X93376828Y-164275346D01*
X93526183Y-164993420D01*
G37*
G36*
X92231940Y-166284000D02*
G01*
X91487610Y-166284000D01*
X91278777Y-166272201D01*
X91128817Y-166241501D01*
X91007314Y-166196472D01*
X90904270Y-166142856D01*
X90817408Y-166081156D01*
X90715256Y-165984180D01*
X90620734Y-165866739D01*
X90533842Y-165726393D01*
X90475956Y-165603955D01*
X90426003Y-165462246D01*
X90384854Y-165298846D01*
X90353480Y-165108767D01*
X90343271Y-164952287D01*
X90344979Y-164921124D01*
X90755248Y-164921124D01*
X90755533Y-165058788D01*
X90789808Y-165280406D01*
X90846939Y-165500755D01*
X90906800Y-165649945D01*
X90981219Y-165772226D01*
X91050782Y-165844729D01*
X91132113Y-165894835D01*
X91227980Y-165928626D01*
X91316535Y-165942166D01*
X91471246Y-165947921D01*
X91766657Y-165947921D01*
X91488831Y-164611424D01*
X91311022Y-164611424D01*
X91089250Y-164617616D01*
X90990209Y-164630720D01*
X90923088Y-164653208D01*
X90869415Y-164684926D01*
X90826933Y-164725730D01*
X90794902Y-164775454D01*
X90770616Y-164839469D01*
X90755248Y-164921124D01*
X90344979Y-164921124D01*
X90350293Y-164824160D01*
X90375236Y-164698848D01*
X90415274Y-164591245D01*
X90469606Y-164498706D01*
X90540295Y-164419231D01*
X90625252Y-164357905D01*
X90726671Y-164313692D01*
X90862481Y-164286654D01*
X91091448Y-164275346D01*
X91814285Y-164275346D01*
X92231940Y-166284000D01*
G37*
G36*
X89853503Y-166284000D02*
G01*
X90229027Y-166284000D01*
X89926776Y-164830266D01*
X89577997Y-164830266D01*
X89620862Y-165036529D01*
X89501494Y-164905973D01*
X89419117Y-164840769D01*
X89334502Y-164803421D01*
X89246560Y-164791187D01*
X89163333Y-164799306D01*
X89086438Y-164823275D01*
X89014285Y-164863483D01*
X89200031Y-165197852D01*
X89284251Y-165149843D01*
X89363430Y-165135081D01*
X89438596Y-165146305D01*
X89506312Y-165179900D01*
X89564203Y-165237319D01*
X89626113Y-165341711D01*
X89678708Y-165491745D01*
X89759592Y-165832150D01*
X89853503Y-166284000D01*
G37*
G36*
X88780056Y-164627056D02*
G01*
X88706905Y-164275346D01*
X88331504Y-164275346D01*
X88404655Y-164627056D01*
X88780056Y-164627056D01*
G37*
G36*
X89124560Y-166284000D02*
G01*
X88822310Y-164830266D01*
X88446909Y-164830266D01*
X88749159Y-166284000D01*
X89124560Y-166284000D01*
G37*
G36*
X87956713Y-166284000D02*
G01*
X88226479Y-164830266D01*
X87832272Y-164830266D01*
X87719187Y-165572154D01*
X87693175Y-165819938D01*
X87628573Y-165695374D01*
X87562750Y-165572154D01*
X87138622Y-164830266D01*
X86752474Y-164830266D01*
X87618559Y-166284000D01*
X87956713Y-166284000D01*
G37*
G36*
X86076591Y-164803884D02*
G01*
X86205566Y-164841657D01*
X86329272Y-164905363D01*
X86449369Y-164997572D01*
X86550651Y-165106864D01*
X86635015Y-165236378D01*
X86702572Y-165388918D01*
X86752352Y-165568124D01*
X86774734Y-165724126D01*
X86774435Y-165857905D01*
X86754599Y-165973218D01*
X86717059Y-166073340D01*
X86659463Y-166160372D01*
X86584553Y-166228235D01*
X86489786Y-166278709D01*
X86370683Y-166311259D01*
X86221246Y-166323078D01*
X86068584Y-166310149D01*
X85931987Y-166272653D01*
X85808475Y-166211215D01*
X85698308Y-166127376D01*
X85599866Y-166019837D01*
X85512697Y-165885395D01*
X85873810Y-165822869D01*
X85933834Y-165918514D01*
X85997031Y-165977963D01*
X86071305Y-166013937D01*
X86155422Y-166026079D01*
X86236921Y-166014958D01*
X86301088Y-165983554D01*
X86352160Y-165931435D01*
X86384463Y-165865070D01*
X86397774Y-165779057D01*
X86387941Y-165666554D01*
X85447240Y-165666554D01*
X85413882Y-165476235D01*
X85405029Y-165320570D01*
X85405051Y-165320318D01*
X85761028Y-165320318D01*
X85771228Y-165432080D01*
X86332620Y-165432080D01*
X86302654Y-165330485D01*
X86258806Y-165247757D01*
X86201462Y-165180755D01*
X86130980Y-165128426D01*
X86057501Y-165098235D01*
X85978957Y-165088187D01*
X85906886Y-165098344D01*
X85849160Y-165127293D01*
X85802247Y-165175870D01*
X85772938Y-165237461D01*
X85761028Y-165320318D01*
X85405051Y-165320318D01*
X85416027Y-165193740D01*
X85443409Y-165090557D01*
X85485098Y-165006609D01*
X85545807Y-164930780D01*
X85619316Y-164871831D01*
X85707428Y-164828478D01*
X85813080Y-164800992D01*
X85940122Y-164791187D01*
X86076591Y-164803884D01*
G37*
G36*
X84876811Y-166284000D02*
G01*
X85252334Y-166284000D01*
X84950084Y-164830266D01*
X84601305Y-164830266D01*
X84644170Y-165036529D01*
X84524802Y-164905973D01*
X84442425Y-164840769D01*
X84357810Y-164803421D01*
X84269867Y-164791187D01*
X84186641Y-164799306D01*
X84109746Y-164823275D01*
X84037593Y-164863483D01*
X84223339Y-165197852D01*
X84307558Y-165149843D01*
X84386738Y-165135081D01*
X84461904Y-165146305D01*
X84529620Y-165179900D01*
X84587511Y-165237319D01*
X84649421Y-165341711D01*
X84702015Y-165491745D01*
X84782900Y-165832150D01*
X84876811Y-166284000D01*
G37*
G36*
X108491697Y-167994800D02*
G01*
X108045099Y-167994800D01*
X107919800Y-167987721D01*
X107829824Y-167969301D01*
X107756922Y-167942283D01*
X107695095Y-167910114D01*
X107642978Y-167873093D01*
X107581687Y-167814908D01*
X107524974Y-167744443D01*
X107472838Y-167660236D01*
X107438107Y-167586773D01*
X107408135Y-167501748D01*
X107383446Y-167403707D01*
X107364621Y-167289660D01*
X107358496Y-167195772D01*
X107359521Y-167177074D01*
X107605682Y-167177074D01*
X107605853Y-167259672D01*
X107626418Y-167392643D01*
X107660697Y-167524853D01*
X107696614Y-167614367D01*
X107741265Y-167687736D01*
X107783002Y-167731237D01*
X107831801Y-167761301D01*
X107889321Y-167781575D01*
X107942454Y-167789700D01*
X108035281Y-167793153D01*
X108212528Y-167793153D01*
X108045832Y-166991254D01*
X107939147Y-166991254D01*
X107806083Y-166994970D01*
X107746659Y-167002832D01*
X107706386Y-167016324D01*
X107674183Y-167035356D01*
X107648693Y-167059838D01*
X107629475Y-167089672D01*
X107614903Y-167128081D01*
X107605682Y-167177074D01*
X107359521Y-167177074D01*
X107362709Y-167118896D01*
X107377675Y-167043709D01*
X107401698Y-166979147D01*
X107434297Y-166923624D01*
X107476711Y-166875939D01*
X107527685Y-166839143D01*
X107588536Y-166812615D01*
X107670022Y-166796392D01*
X107807402Y-166789608D01*
X108241104Y-166789608D01*
X108491697Y-167994800D01*
G37*
G36*
X106851300Y-167106730D02*
G01*
X106928685Y-167129394D01*
X107002909Y-167167618D01*
X107074967Y-167222943D01*
X107135736Y-167288518D01*
X107186355Y-167366226D01*
X107226889Y-167457751D01*
X107256757Y-167565274D01*
X107270186Y-167658875D01*
X107270007Y-167739143D01*
X107258105Y-167808331D01*
X107235581Y-167868404D01*
X107201024Y-167920623D01*
X107156078Y-167961341D01*
X107099217Y-167991625D01*
X107027756Y-168011155D01*
X106938093Y-168018247D01*
X106846496Y-168010489D01*
X106764538Y-167987992D01*
X106690431Y-167951129D01*
X106624330Y-167900826D01*
X106565265Y-167836302D01*
X106512964Y-167755637D01*
X106729632Y-167718121D01*
X106765646Y-167775508D01*
X106803564Y-167811178D01*
X106848129Y-167832762D01*
X106898599Y-167840047D01*
X106947499Y-167833374D01*
X106985998Y-167814532D01*
X107016642Y-167783261D01*
X107036023Y-167743442D01*
X107044010Y-167691834D01*
X107038111Y-167624332D01*
X106473690Y-167624332D01*
X106453675Y-167510141D01*
X106448363Y-167416742D01*
X106448376Y-167416590D01*
X106661963Y-167416590D01*
X106668083Y-167483648D01*
X107004918Y-167483648D01*
X106986938Y-167422691D01*
X106960629Y-167373054D01*
X106926223Y-167332853D01*
X106883934Y-167301455D01*
X106839846Y-167283341D01*
X106792720Y-167277312D01*
X106749478Y-167283406D01*
X106714842Y-167300776D01*
X106686694Y-167329922D01*
X106669109Y-167366877D01*
X106661963Y-167416590D01*
X106448376Y-167416590D01*
X106454962Y-167340644D01*
X106471391Y-167278734D01*
X106496404Y-167228365D01*
X106532830Y-167182868D01*
X106576935Y-167147499D01*
X106629802Y-167121487D01*
X106693194Y-167104995D01*
X106769419Y-167099112D01*
X106851300Y-167106730D01*
G37*
G36*
X106374845Y-167746258D02*
G01*
X106142863Y-167718121D01*
X106137967Y-167761095D01*
X106125255Y-167794133D01*
X106105420Y-167819531D01*
X106078589Y-167837582D01*
X106041005Y-167849588D01*
X105989136Y-167854116D01*
X105931628Y-167849882D01*
X105886272Y-167838310D01*
X105850651Y-167820557D01*
X105822554Y-167792978D01*
X105807859Y-167757762D01*
X105806911Y-167732489D01*
X105814747Y-167713285D01*
X105834312Y-167699184D01*
X105883624Y-167682291D01*
X106059992Y-167633728D01*
X106158158Y-167596249D01*
X106205438Y-167567985D01*
X106241168Y-167529294D01*
X106262843Y-167484748D01*
X106271322Y-167432461D01*
X106265229Y-167369636D01*
X106248588Y-167315260D01*
X106222315Y-167265513D01*
X106185817Y-167219620D01*
X106137880Y-167177148D01*
X106084820Y-167144807D01*
X106020748Y-167120433D01*
X105943538Y-167104744D01*
X105850651Y-167099112D01*
X105759817Y-167103867D01*
X105691179Y-167116522D01*
X105640241Y-167135111D01*
X105603208Y-167158390D01*
X105563009Y-167202551D01*
X105535928Y-167259736D01*
X105522535Y-167333585D01*
X105743746Y-167375790D01*
X105753985Y-167326381D01*
X105778037Y-167292259D01*
X105801248Y-167277219D01*
X105834357Y-167267093D01*
X105880693Y-167263243D01*
X105939992Y-167266751D01*
X105983057Y-167275940D01*
X106013610Y-167289255D01*
X106037563Y-167310839D01*
X106049147Y-167336956D01*
X106048413Y-167360261D01*
X106035665Y-167379747D01*
X105991702Y-167401665D01*
X105838927Y-167445986D01*
X105725673Y-167480919D01*
X105652816Y-167515922D01*
X105609217Y-167550033D01*
X105586233Y-167582540D01*
X105572416Y-167621002D01*
X105568030Y-167667150D01*
X105574632Y-167723250D01*
X105592343Y-167780353D01*
X105621037Y-167833599D01*
X105661633Y-167883766D01*
X105715755Y-167931272D01*
X105775277Y-167967774D01*
X105845073Y-167994906D01*
X105926996Y-168012132D01*
X106023282Y-168018247D01*
X106111821Y-168012778D01*
X106182658Y-167997799D01*
X106238994Y-167974936D01*
X106283473Y-167945047D01*
X106321174Y-167905595D01*
X106348766Y-167860121D01*
X106366779Y-167807539D01*
X106374845Y-167746258D01*
G37*
G36*
X105207169Y-167000633D02*
G01*
X105163278Y-166789608D01*
X104938037Y-166789608D01*
X104981928Y-167000633D01*
X105207169Y-167000633D01*
G37*
G36*
X105413871Y-167994800D02*
G01*
X105232521Y-167122559D01*
X105007280Y-167122559D01*
X105188630Y-167994800D01*
X105413871Y-167994800D01*
G37*
G36*
X104526307Y-167106178D02*
G01*
X104596913Y-167127308D01*
X104665416Y-167163168D01*
X104732727Y-167215396D01*
X104788831Y-167276856D01*
X104836586Y-167351933D01*
X104875819Y-167442741D01*
X104905724Y-167551938D01*
X104918802Y-167641738D01*
X104919238Y-167719318D01*
X104908725Y-167786669D01*
X104888285Y-167845543D01*
X104855813Y-167900142D01*
X104816478Y-167941057D01*
X104769744Y-167970244D01*
X104714127Y-167988383D01*
X104647364Y-167994800D01*
X104574409Y-167986419D01*
X104503587Y-167961008D01*
X104433331Y-167916902D01*
X104362552Y-167850892D01*
X104389297Y-167979559D01*
X104407364Y-168051108D01*
X104421977Y-168086684D01*
X104448861Y-168122525D01*
X104479129Y-168145595D01*
X104534581Y-168165330D01*
X104617175Y-168172999D01*
X104662617Y-168169356D01*
X104693030Y-168160057D01*
X104712650Y-168146694D01*
X104725620Y-168123391D01*
X104728330Y-168079210D01*
X104979876Y-168051073D01*
X104986471Y-168079356D01*
X104992534Y-168137910D01*
X104985826Y-168188661D01*
X104967317Y-168233619D01*
X104936425Y-168274262D01*
X104897361Y-168304034D01*
X104839969Y-168328103D01*
X104758358Y-168344804D01*
X104645312Y-168351199D01*
X104535344Y-168344506D01*
X104450626Y-168326506D01*
X104375420Y-168296265D01*
X104316537Y-168258215D01*
X104267240Y-168208080D01*
X104221795Y-168138048D01*
X104186011Y-168050910D01*
X104148815Y-167906799D01*
X104054652Y-167453842D01*
X104283421Y-167453842D01*
X104294848Y-167544758D01*
X104319351Y-167628514D01*
X104352219Y-167692680D01*
X104392594Y-167740982D01*
X104442684Y-167778733D01*
X104493332Y-167800181D01*
X104545954Y-167807221D01*
X104593626Y-167799849D01*
X104631469Y-167778722D01*
X104661945Y-167742668D01*
X104679164Y-167697656D01*
X104684217Y-167632367D01*
X104672130Y-167538969D01*
X104647588Y-167453095D01*
X104616073Y-167388873D01*
X104578634Y-167341938D01*
X104531665Y-167305230D01*
X104483172Y-167284251D01*
X104431722Y-167277312D01*
X104379742Y-167284978D01*
X104339273Y-167306688D01*
X104307451Y-167343184D01*
X104289160Y-167389028D01*
X104283421Y-167453842D01*
X104054652Y-167453842D01*
X103985783Y-167122559D01*
X104196663Y-167122559D01*
X104221575Y-167242507D01*
X104255178Y-167189536D01*
X104294275Y-167150085D01*
X104339283Y-167122215D01*
X104391381Y-167105099D01*
X104452385Y-167099112D01*
X104526307Y-167106178D01*
G37*
G36*
X103146882Y-167994800D02*
G01*
X103372270Y-167994800D01*
X103279433Y-167548348D01*
X103257191Y-167418308D01*
X103255766Y-167365093D01*
X103267364Y-167327472D01*
X103289252Y-167300393D01*
X103320272Y-167283444D01*
X103362598Y-167277312D01*
X103419313Y-167285410D01*
X103474485Y-167310284D01*
X103521738Y-167348660D01*
X103556404Y-167397552D01*
X103582112Y-167464038D01*
X103615389Y-167598540D01*
X103697748Y-167994800D01*
X103923062Y-167994800D01*
X103741711Y-167122559D01*
X103532444Y-167122559D01*
X103559042Y-167250421D01*
X103482140Y-167181353D01*
X103405343Y-167134913D01*
X103327498Y-167108014D01*
X103246973Y-167099112D01*
X103175633Y-167106326D01*
X103116401Y-167126736D01*
X103067417Y-167159334D01*
X103037633Y-167197298D01*
X103020493Y-167242362D01*
X103013819Y-167294604D01*
X103017437Y-167354491D01*
X103033749Y-167450455D01*
X103146882Y-167994800D01*
G37*
G36*
X102466653Y-167106730D02*
G01*
X102544038Y-167129394D01*
X102618261Y-167167618D01*
X102690319Y-167222943D01*
X102751089Y-167288518D01*
X102801707Y-167366226D01*
X102842241Y-167457751D01*
X102872109Y-167565274D01*
X102885539Y-167658875D01*
X102885359Y-167739143D01*
X102873457Y-167808331D01*
X102850933Y-167868404D01*
X102816376Y-167920623D01*
X102771430Y-167961341D01*
X102714570Y-167991625D01*
X102643108Y-168011155D01*
X102553446Y-168018247D01*
X102461848Y-168010489D01*
X102379891Y-167987992D01*
X102305783Y-167951129D01*
X102239683Y-167900826D01*
X102180618Y-167836302D01*
X102128316Y-167755637D01*
X102344984Y-167718121D01*
X102380998Y-167775508D01*
X102418917Y-167811178D01*
X102463481Y-167832762D01*
X102513951Y-167840047D01*
X102562851Y-167833374D01*
X102601351Y-167814532D01*
X102631994Y-167783261D01*
X102651376Y-167743442D01*
X102659363Y-167691834D01*
X102653463Y-167624332D01*
X102089042Y-167624332D01*
X102069028Y-167510141D01*
X102063716Y-167416742D01*
X102063729Y-167416590D01*
X102277315Y-167416590D01*
X102283435Y-167483648D01*
X102620270Y-167483648D01*
X102602291Y-167422691D01*
X102575982Y-167373054D01*
X102541575Y-167332853D01*
X102499286Y-167301455D01*
X102455199Y-167283341D01*
X102408072Y-167277312D01*
X102364830Y-167283406D01*
X102330194Y-167300776D01*
X102302046Y-167329922D01*
X102284461Y-167366877D01*
X102277315Y-167416590D01*
X102063729Y-167416590D01*
X102070314Y-167340644D01*
X102086744Y-167278734D01*
X102111757Y-167228365D01*
X102148183Y-167182868D01*
X102192288Y-167147499D01*
X102245155Y-167121487D01*
X102308546Y-167104995D01*
X102384771Y-167099112D01*
X102466653Y-167106730D01*
G37*
G36*
X101245745Y-167220452D02*
G01*
X101290155Y-167166508D01*
X101340943Y-167129328D01*
X101399325Y-167106896D01*
X101467542Y-167099112D01*
X101542736Y-167106240D01*
X101613951Y-167127476D01*
X101682440Y-167163373D01*
X101749129Y-167215469D01*
X101804565Y-167276865D01*
X101852053Y-167352387D01*
X101891357Y-167444290D01*
X101921614Y-167555382D01*
X101937147Y-167667833D01*
X101934818Y-167759496D01*
X101917805Y-167834446D01*
X101887835Y-167896101D01*
X101843279Y-167950206D01*
X101791813Y-167987650D01*
X101732131Y-168010343D01*
X101661861Y-168018247D01*
X101589857Y-168009131D01*
X101510773Y-167979925D01*
X101435866Y-167933435D01*
X101364154Y-167866938D01*
X101390752Y-167994800D01*
X101181485Y-167994800D01*
X101070653Y-167461769D01*
X101302672Y-167461769D01*
X101316600Y-167564981D01*
X101341959Y-167653829D01*
X101374764Y-167721134D01*
X101413979Y-167771097D01*
X101463001Y-167810758D01*
X101511401Y-167832883D01*
X101560672Y-167840047D01*
X101606582Y-167834035D01*
X101642752Y-167817111D01*
X101671545Y-167789221D01*
X101693808Y-167748090D01*
X101703484Y-167704666D01*
X101703417Y-167638849D01*
X101688753Y-167542340D01*
X101664167Y-167456868D01*
X101632042Y-167392015D01*
X101593351Y-167343770D01*
X101545027Y-167305829D01*
X101496120Y-167284353D01*
X101445194Y-167277312D01*
X101394015Y-167285121D01*
X101354489Y-167307247D01*
X101323707Y-167344649D01*
X101306971Y-167391465D01*
X101302672Y-167461769D01*
X101070653Y-167461769D01*
X100930891Y-166789608D01*
X101156132Y-166789608D01*
X101245745Y-167220452D01*
G37*
G36*
X100479677Y-167994800D02*
G01*
X100270410Y-167994800D01*
X100243812Y-167866938D01*
X100216212Y-167912554D01*
X100183331Y-167949598D01*
X100144894Y-167979046D01*
X100101671Y-168000914D01*
X100056662Y-168013887D01*
X100009119Y-168018247D01*
X99937960Y-168011022D01*
X99868772Y-167989212D01*
X99800311Y-167951760D01*
X99731635Y-167896541D01*
X99674577Y-167832433D01*
X99625999Y-167754702D01*
X99586087Y-167661282D01*
X99555633Y-167549594D01*
X99543389Y-167461515D01*
X99775696Y-167461515D01*
X99789520Y-167564102D01*
X99815716Y-167657236D01*
X99848173Y-167725282D01*
X99885654Y-167773589D01*
X99932895Y-167811854D01*
X99979358Y-167833160D01*
X100026485Y-167840047D01*
X100071975Y-167834029D01*
X100108619Y-167816929D01*
X100138557Y-167788509D01*
X100162552Y-167746405D01*
X100174118Y-167701256D01*
X100175382Y-167635637D01*
X100161820Y-167542340D01*
X100137020Y-167455724D01*
X100104971Y-167390704D01*
X100066711Y-167342964D01*
X100018754Y-167305580D01*
X99969772Y-167284314D01*
X99918334Y-167277312D01*
X99867155Y-167285121D01*
X99827629Y-167307247D01*
X99796848Y-167344649D01*
X99780048Y-167391459D01*
X99775696Y-167461515D01*
X99543389Y-167461515D01*
X99540008Y-167437197D01*
X99542215Y-167346880D01*
X99558850Y-167274207D01*
X99588020Y-167215469D01*
X99631448Y-167164806D01*
X99683480Y-167129039D01*
X99745795Y-167106930D01*
X99821174Y-167099112D01*
X99889445Y-167106205D01*
X99956795Y-167127763D01*
X100024456Y-167165064D01*
X100093383Y-167220452D01*
X100003770Y-166789608D01*
X100229084Y-166789608D01*
X100479677Y-167994800D01*
G37*
G36*
X99369447Y-167122559D02*
G01*
X99129771Y-167122559D01*
X99055253Y-167743400D01*
X98727210Y-167122559D01*
X98493983Y-167122559D01*
X98969231Y-167962486D01*
X99055033Y-168117019D01*
X99100579Y-168187867D01*
X99135780Y-168233229D01*
X99172749Y-168270084D01*
X99211031Y-168298369D01*
X99253590Y-168320187D01*
X99304967Y-168337277D01*
X99360270Y-168347592D01*
X99422863Y-168351199D01*
X99486914Y-168347688D01*
X99547500Y-168337350D01*
X99530208Y-168157539D01*
X99480347Y-168165755D01*
X99437005Y-168168310D01*
X99386560Y-168162667D01*
X99345174Y-168146695D01*
X99310829Y-168120682D01*
X99267340Y-168068098D01*
X99227884Y-167999489D01*
X99369447Y-167122559D01*
G37*
G36*
X98144618Y-167994800D02*
G01*
X98097797Y-167769705D01*
X97318613Y-166991254D01*
X97866328Y-166991254D01*
X97824342Y-166789608D01*
X96963899Y-166789608D01*
X97002954Y-166977186D01*
X97816502Y-167793153D01*
X97147814Y-167793153D01*
X97189726Y-167994800D01*
X98144618Y-167994800D01*
G37*
G36*
X96543460Y-166789608D02*
G01*
X96635270Y-167230930D01*
X96562387Y-167170660D01*
X96490844Y-167130165D01*
X96419603Y-167106797D01*
X96347308Y-167099112D01*
X96273222Y-167106907D01*
X96213145Y-167128788D01*
X96164226Y-167163668D01*
X96134670Y-167204698D01*
X96118218Y-167252773D01*
X96112615Y-167306987D01*
X96117639Y-167370377D01*
X96137162Y-167481010D01*
X96243993Y-167994800D01*
X96469381Y-167994800D01*
X96373320Y-167532668D01*
X96351498Y-167406819D01*
X96349873Y-167358058D01*
X96360759Y-167324587D01*
X96382845Y-167299147D01*
X96414413Y-167283239D01*
X96459709Y-167277312D01*
X96514154Y-167284276D01*
X96565734Y-167305302D01*
X96610545Y-167339747D01*
X96647800Y-167389786D01*
X96675662Y-167453705D01*
X96702975Y-167556555D01*
X96794053Y-167994800D01*
X97019440Y-167994800D01*
X96768847Y-166789608D01*
X96543460Y-166789608D01*
G37*
G36*
X96002413Y-167994800D02*
G01*
X95793145Y-167994800D01*
X95766547Y-167866938D01*
X95738947Y-167912554D01*
X95706066Y-167949598D01*
X95667629Y-167979046D01*
X95624406Y-168000914D01*
X95579398Y-168013887D01*
X95531854Y-168018247D01*
X95460695Y-168011022D01*
X95391507Y-167989212D01*
X95323046Y-167951760D01*
X95254370Y-167896541D01*
X95197313Y-167832433D01*
X95148735Y-167754702D01*
X95108823Y-167661282D01*
X95078369Y-167549594D01*
X95066125Y-167461515D01*
X95298432Y-167461515D01*
X95312256Y-167564102D01*
X95338452Y-167657236D01*
X95370908Y-167725282D01*
X95408390Y-167773589D01*
X95455631Y-167811854D01*
X95502094Y-167833160D01*
X95549220Y-167840047D01*
X95594711Y-167834029D01*
X95631354Y-167816929D01*
X95661292Y-167788509D01*
X95685288Y-167746405D01*
X95696854Y-167701256D01*
X95698117Y-167635637D01*
X95684555Y-167542340D01*
X95659756Y-167455724D01*
X95627706Y-167390704D01*
X95589447Y-167342964D01*
X95541490Y-167305580D01*
X95492508Y-167284314D01*
X95441069Y-167277312D01*
X95389891Y-167285121D01*
X95350365Y-167307247D01*
X95319583Y-167344649D01*
X95302784Y-167391459D01*
X95298432Y-167461515D01*
X95066125Y-167461515D01*
X95062744Y-167437197D01*
X95064951Y-167346880D01*
X95081585Y-167274207D01*
X95110755Y-167215469D01*
X95154183Y-167164806D01*
X95206216Y-167129039D01*
X95268530Y-167106930D01*
X95343910Y-167099112D01*
X95412181Y-167106205D01*
X95479531Y-167127763D01*
X95547191Y-167165064D01*
X95616118Y-167220452D01*
X95526506Y-166789608D01*
X95751820Y-166789608D01*
X96002413Y-167994800D01*
G37*
G36*
X94760218Y-167000633D02*
G01*
X94716328Y-166789608D01*
X94491087Y-166789608D01*
X94534977Y-167000633D01*
X94760218Y-167000633D01*
G37*
G36*
X94966921Y-167994800D02*
G01*
X94785570Y-167122559D01*
X94560330Y-167122559D01*
X94741680Y-167994800D01*
X94966921Y-167994800D01*
G37*
G36*
X94018755Y-166796543D02*
G01*
X94093620Y-166817039D01*
X94164510Y-166851286D01*
X94232360Y-166900323D01*
X94290791Y-166959505D01*
X94337830Y-167027076D01*
X94374005Y-167104070D01*
X94399203Y-167191949D01*
X94410346Y-167279915D01*
X94405939Y-167354481D01*
X94388010Y-167418379D01*
X94357217Y-167473830D01*
X94314022Y-167521493D01*
X94264462Y-167554782D01*
X94207284Y-167575060D01*
X94140403Y-167582127D01*
X94079058Y-167576042D01*
X94020351Y-167557808D01*
X93963221Y-167526751D01*
X93906882Y-167481303D01*
X93951675Y-167621388D01*
X93991751Y-167708676D01*
X94027050Y-167758495D01*
X94072188Y-167797631D01*
X94115922Y-167819107D01*
X94159747Y-167825979D01*
X94195080Y-167821869D01*
X94221754Y-167810594D01*
X94241886Y-167792640D01*
X94255160Y-167768798D01*
X94262477Y-167735659D01*
X94262182Y-167689984D01*
X94485518Y-167715044D01*
X94483853Y-167791640D01*
X94472080Y-167853225D01*
X94451797Y-167902669D01*
X94423676Y-167942263D01*
X94386807Y-167974162D01*
X94341338Y-167997739D01*
X94285424Y-168012817D01*
X94216607Y-168018247D01*
X94124053Y-168009259D01*
X94037309Y-167982574D01*
X93954716Y-167937570D01*
X93875082Y-167872287D01*
X93823377Y-167813241D01*
X93775208Y-167738870D01*
X93730879Y-167646652D01*
X93691042Y-167533641D01*
X93656656Y-167396527D01*
X93633614Y-167255936D01*
X93626951Y-167143721D01*
X93627306Y-167138700D01*
X93862226Y-167138700D01*
X93870759Y-167211220D01*
X93889559Y-167275206D01*
X93915043Y-167324558D01*
X93946596Y-167362015D01*
X93985661Y-167391206D01*
X94025326Y-167407835D01*
X94066690Y-167413306D01*
X94108703Y-167407120D01*
X94141685Y-167389550D01*
X94167880Y-167359963D01*
X94182933Y-167322702D01*
X94187650Y-167269079D01*
X94177992Y-167192755D01*
X94157393Y-167119645D01*
X94132116Y-167067345D01*
X94103180Y-167031188D01*
X94066584Y-167003186D01*
X94028916Y-166987170D01*
X93989095Y-166981876D01*
X93948545Y-166988507D01*
X93914681Y-167007979D01*
X93885707Y-167042033D01*
X93868212Y-167083813D01*
X93862226Y-167138700D01*
X93627306Y-167138700D01*
X93633220Y-167054992D01*
X93649713Y-166985373D01*
X93674607Y-166931097D01*
X93712644Y-166879939D01*
X93757029Y-166841054D01*
X93808477Y-166813097D01*
X93868380Y-166795720D01*
X93938683Y-166789608D01*
X94018755Y-166796543D01*
G37*
G36*
X93069475Y-166795570D02*
G01*
X93143012Y-166812611D01*
X93207620Y-166839944D01*
X93264646Y-166877462D01*
X93315072Y-166924871D01*
X93354387Y-166977292D01*
X93383494Y-167035324D01*
X93402692Y-167099918D01*
X93408921Y-167152209D01*
X93405546Y-167200140D01*
X93393093Y-167244779D01*
X93370768Y-167284490D01*
X93336436Y-167318958D01*
X93287654Y-167348606D01*
X93358110Y-167383237D01*
X93415994Y-167425153D01*
X93462922Y-167474416D01*
X93501164Y-167531061D01*
X93529175Y-167590549D01*
X93547479Y-167653495D01*
X93556735Y-167725633D01*
X93553589Y-167787785D01*
X93539515Y-167841915D01*
X93515011Y-167889649D01*
X93479555Y-167932151D01*
X93432897Y-167968482D01*
X93377138Y-167995235D01*
X93310458Y-168012198D01*
X93230501Y-168018247D01*
X93145779Y-168011507D01*
X93068770Y-167991863D01*
X92998084Y-167959595D01*
X92932647Y-167914199D01*
X92875611Y-167858293D01*
X92830281Y-167795213D01*
X92795946Y-167724100D01*
X92772545Y-167643676D01*
X92764916Y-167578405D01*
X92987695Y-167578405D01*
X92993536Y-167634517D01*
X93012109Y-167697101D01*
X93037850Y-167746001D01*
X93070253Y-167783700D01*
X93110194Y-167812875D01*
X93151869Y-167829739D01*
X93196429Y-167835358D01*
X93241171Y-167829077D01*
X93276364Y-167811303D01*
X93304360Y-167781649D01*
X93321604Y-167744149D01*
X93327957Y-167695601D01*
X93320919Y-167632099D01*
X93307430Y-167588174D01*
X93285384Y-167545923D01*
X93253948Y-167504824D01*
X93215561Y-167472253D01*
X93171123Y-167452845D01*
X93118686Y-167446132D01*
X93073857Y-167452241D01*
X93038989Y-167469406D01*
X93011635Y-167497790D01*
X92994322Y-167533829D01*
X92987695Y-167578405D01*
X92764916Y-167578405D01*
X92764729Y-167576809D01*
X92769747Y-167518149D01*
X92786467Y-167465843D01*
X92815031Y-167419442D01*
X92855766Y-167380541D01*
X92910811Y-167348606D01*
X92857298Y-167321856D01*
X92810818Y-167288686D01*
X92770640Y-167248882D01*
X92737428Y-167203147D01*
X92713053Y-167153716D01*
X92697148Y-167099918D01*
X92694103Y-167073073D01*
X92907985Y-167073073D01*
X92912130Y-167115818D01*
X92925788Y-167159744D01*
X92946143Y-167195377D01*
X92973166Y-167224116D01*
X93006029Y-167245778D01*
X93042568Y-167258779D01*
X93083882Y-167263243D01*
X93124300Y-167258469D01*
X93154607Y-167245391D01*
X93177305Y-167224555D01*
X93191787Y-167197210D01*
X93197548Y-167162192D01*
X93192912Y-167116624D01*
X93179939Y-167075409D01*
X93159947Y-167040917D01*
X93132755Y-167012064D01*
X93099757Y-166990175D01*
X93062912Y-166977020D01*
X93021087Y-166972497D01*
X92981257Y-166977296D01*
X92951213Y-166990490D01*
X92928543Y-167011624D01*
X92913883Y-167039138D01*
X92907985Y-167073073D01*
X92694103Y-167073073D01*
X92689502Y-167032521D01*
X92695297Y-166974316D01*
X92713244Y-166923179D01*
X92743456Y-166877462D01*
X92783395Y-166841115D01*
X92835017Y-166813849D01*
X92901099Y-166796103D01*
X92985330Y-166789608D01*
X93069475Y-166795570D01*
G37*
M02*
