%TF.GenerationSoftware,KiCad,Pcbnew,9.0.6*%
%TF.CreationDate,2026-01-20T23:08:51+08:00*%
%TF.ProjectId,Ledx10,4c656478-3130-42e6-9b69-6361645f7063,rev?*%
%TF.SameCoordinates,Original*%
%TF.FileFunction,Legend,Bot*%
%TF.FilePolarity,Positive*%
%FSLAX46Y46*%
G04 Gerber Fmt 4.6, Leading zero omitted, Abs format (unit mm)*
G04 Created by KiCad (PCBNEW 9.0.6) date 2026-01-20 23:08:51*
%MOMM*%
%LPD*%
G01*
G04 APERTURE LIST*
%ADD10C,0.240000*%
G04 APERTURE END LIST*
D10*
G36*
X106852639Y-166538000D02*
G01*
X106504959Y-164865424D01*
X107086379Y-164865424D01*
X107016404Y-164529346D01*
X105459478Y-164529346D01*
X105529453Y-164865424D01*
X106109530Y-164865424D01*
X106457210Y-166538000D01*
X106852639Y-166538000D01*
G37*
G36*
X105583920Y-166538000D02*
G01*
X105188490Y-166538000D01*
X105030832Y-165779870D01*
X104772911Y-165779870D01*
X104519356Y-165771566D01*
X104356599Y-165751049D01*
X104248712Y-165716874D01*
X104131652Y-165655916D01*
X104023542Y-165572087D01*
X103924167Y-165457958D01*
X103870449Y-165370349D01*
X103826824Y-165267484D01*
X103793986Y-165147036D01*
X103784543Y-165079949D01*
X104195561Y-165079949D01*
X104203093Y-165153265D01*
X104231965Y-165238308D01*
X104280762Y-165311778D01*
X104346151Y-165370704D01*
X104425109Y-165411796D01*
X104529111Y-165433764D01*
X104744457Y-165443792D01*
X104960978Y-165443792D01*
X104840811Y-164865424D01*
X104649691Y-164865424D01*
X104453862Y-164869913D01*
X104367834Y-164879346D01*
X104310204Y-164897906D01*
X104264202Y-164927843D01*
X104227761Y-164969716D01*
X104204422Y-165019904D01*
X104195561Y-165079949D01*
X103784543Y-165079949D01*
X103776726Y-165024420D01*
X103777981Y-164920534D01*
X103795028Y-164832056D01*
X103826348Y-164756126D01*
X103890614Y-164665970D01*
X103970179Y-164601374D01*
X104067538Y-164559510D01*
X104202340Y-164539275D01*
X104531599Y-164529346D01*
X105166264Y-164529346D01*
X105583920Y-166538000D01*
G37*
G36*
X103684931Y-165897106D02*
G01*
X103291945Y-165858027D01*
X103283825Y-165984349D01*
X103255333Y-166076261D01*
X103210123Y-166142448D01*
X103145977Y-166190523D01*
X103059121Y-166221649D01*
X102942311Y-166233184D01*
X102817177Y-166223063D01*
X102717209Y-166195149D01*
X102637374Y-166151729D01*
X102569153Y-166091654D01*
X102524911Y-166028579D01*
X102500842Y-165961220D01*
X102497804Y-165894828D01*
X102516840Y-165842152D01*
X102558716Y-165799439D01*
X102641526Y-165756667D01*
X102939624Y-165667762D01*
X103137769Y-165601141D01*
X103266434Y-165533811D01*
X103344335Y-165467361D01*
X103404715Y-165380078D01*
X103440587Y-165285244D01*
X103453009Y-165180134D01*
X103440322Y-165061185D01*
X103410561Y-164962173D01*
X103362812Y-164866413D01*
X103295486Y-164772856D01*
X103214239Y-164691108D01*
X103119103Y-164623059D01*
X103008379Y-164568303D01*
X102890221Y-164530216D01*
X102757591Y-164506396D01*
X102608309Y-164498083D01*
X102420149Y-164510901D01*
X102276516Y-164545371D01*
X102168106Y-164597130D01*
X102087583Y-164664290D01*
X102025724Y-164751288D01*
X101987301Y-164851572D01*
X101972387Y-164968783D01*
X101983902Y-165107713D01*
X102382873Y-165123345D01*
X102388058Y-165022749D01*
X102410081Y-164951482D01*
X102445643Y-164901695D01*
X102496662Y-164866987D01*
X102572457Y-164843296D01*
X102682070Y-164834161D01*
X102795132Y-164842998D01*
X102889015Y-164867758D01*
X102967224Y-164906824D01*
X103009943Y-164942072D01*
X103038984Y-164983195D01*
X103055884Y-165031387D01*
X103058733Y-165077336D01*
X103047720Y-165117240D01*
X103022545Y-165153387D01*
X102974315Y-165188345D01*
X102872398Y-165232903D01*
X102687199Y-165288575D01*
X102433978Y-165366722D01*
X102290427Y-165434022D01*
X102215877Y-165490352D01*
X102158402Y-165557834D01*
X102116404Y-165637842D01*
X102093084Y-165725418D01*
X102088006Y-165830426D01*
X102104558Y-165957312D01*
X102137711Y-166068101D01*
X102190708Y-166175348D01*
X102265270Y-166280201D01*
X102355080Y-166371785D01*
X102458232Y-166446088D01*
X102576313Y-166503928D01*
X102702622Y-166543250D01*
X102848777Y-166568239D01*
X103017904Y-166577078D01*
X103206445Y-166563948D01*
X103353056Y-166528324D01*
X103466173Y-166474266D01*
X103552430Y-166403422D01*
X103618590Y-166312494D01*
X103663924Y-166201289D01*
X103687273Y-166064918D01*
X103684931Y-165897106D01*
G37*
G36*
X101051969Y-164540905D02*
G01*
X101176744Y-164575066D01*
X101294893Y-164632144D01*
X101407977Y-164713872D01*
X101505361Y-164812508D01*
X101583760Y-164925127D01*
X101644052Y-165053451D01*
X101686048Y-165199915D01*
X101704621Y-165346525D01*
X101697276Y-165470803D01*
X101667394Y-165577298D01*
X101616072Y-165669716D01*
X101544081Y-165749155D01*
X101461481Y-165804637D01*
X101366183Y-165838434D01*
X101254715Y-165850212D01*
X101152473Y-165840071D01*
X101054628Y-165809681D01*
X100959412Y-165757919D01*
X100865514Y-165682173D01*
X100940169Y-165915647D01*
X101006962Y-166061128D01*
X101065793Y-166144158D01*
X101141024Y-166209385D01*
X101213913Y-166245179D01*
X101286955Y-166256632D01*
X101345844Y-166249782D01*
X101390300Y-166230991D01*
X101423853Y-166201066D01*
X101445977Y-166161330D01*
X101458172Y-166106099D01*
X101457681Y-166029974D01*
X101829907Y-166071740D01*
X101827131Y-166199400D01*
X101807510Y-166302042D01*
X101773704Y-166384448D01*
X101726836Y-166450438D01*
X101665389Y-166503603D01*
X101589607Y-166542899D01*
X101496417Y-166568028D01*
X101381721Y-166577078D01*
X101227465Y-166562099D01*
X101082892Y-166517624D01*
X100945237Y-166442616D01*
X100812513Y-166333812D01*
X100726339Y-166235403D01*
X100646057Y-166111451D01*
X100572175Y-165957754D01*
X100505780Y-165769403D01*
X100448469Y-165540878D01*
X100410067Y-165306560D01*
X100398961Y-165119536D01*
X100399552Y-165111166D01*
X100791086Y-165111166D01*
X100805308Y-165232033D01*
X100836642Y-165338678D01*
X100879115Y-165420931D01*
X100931704Y-165483359D01*
X100996811Y-165532010D01*
X101062920Y-165559726D01*
X101131861Y-165568844D01*
X101201881Y-165558534D01*
X101256851Y-165529251D01*
X101300511Y-165479939D01*
X101325599Y-165417836D01*
X101333461Y-165328466D01*
X101317363Y-165201258D01*
X101283032Y-165079408D01*
X101240903Y-164992242D01*
X101192677Y-164931981D01*
X101131683Y-164885310D01*
X101068903Y-164858618D01*
X101002534Y-164849793D01*
X100934952Y-164860845D01*
X100878511Y-164893299D01*
X100830221Y-164950055D01*
X100801064Y-165019688D01*
X100791086Y-165111166D01*
X100399552Y-165111166D01*
X100409410Y-164971653D01*
X100436898Y-164855623D01*
X100478389Y-164765163D01*
X100541784Y-164679898D01*
X100615758Y-164615090D01*
X100701504Y-164568496D01*
X100801343Y-164539533D01*
X100918515Y-164529346D01*
X101051969Y-164540905D01*
G37*
G36*
X99036502Y-166178474D02*
G01*
X99111240Y-166538000D01*
X100427465Y-166538000D01*
X100377084Y-166407663D01*
X100308317Y-166280541D01*
X100219858Y-166155882D01*
X100115395Y-166040135D01*
X99947904Y-165883818D01*
X99697911Y-165676921D01*
X99424615Y-165451505D01*
X99318602Y-165349880D01*
X99256600Y-165267178D01*
X99215549Y-165189482D01*
X99192328Y-165115529D01*
X99183512Y-165030954D01*
X99193535Y-164967243D01*
X99218951Y-164918669D01*
X99259371Y-164881885D01*
X99315037Y-164858456D01*
X99391142Y-164849793D01*
X99466780Y-164858060D01*
X99533462Y-164882120D01*
X99593253Y-164922211D01*
X99641655Y-164975873D01*
X99685375Y-165053710D01*
X99723312Y-165162424D01*
X100089555Y-165124200D01*
X100029064Y-164967590D01*
X99957689Y-164842353D01*
X99876330Y-164743662D01*
X99784862Y-164667832D01*
X99679274Y-164607602D01*
X99566700Y-164564540D01*
X99445826Y-164538311D01*
X99315060Y-164529346D01*
X99169969Y-164540957D01*
X99054957Y-164572864D01*
X98963967Y-164622275D01*
X98892520Y-164688715D01*
X98838349Y-164771618D01*
X98806238Y-164863322D01*
X98795809Y-164966596D01*
X98809111Y-165084999D01*
X98848189Y-165216115D01*
X98909984Y-165341698D01*
X98993579Y-165461832D01*
X99113438Y-165596932D01*
X99217580Y-165693008D01*
X99412269Y-165851677D01*
X99683257Y-166072228D01*
X99782175Y-166178474D01*
X99036502Y-166178474D01*
G37*
G36*
X98924394Y-166538000D02*
G01*
X98256878Y-165789273D01*
X98600772Y-165084266D01*
X98142328Y-165084266D01*
X97974289Y-165483969D01*
X97626488Y-165084266D01*
X97185507Y-165084266D01*
X97809792Y-165772787D01*
X97443672Y-166538000D01*
X97904802Y-166538000D01*
X98099708Y-166087616D01*
X98484635Y-166538000D01*
X98924394Y-166538000D01*
G37*
G36*
X96397580Y-166538000D02*
G01*
X95984809Y-164552794D01*
X95589258Y-164552794D01*
X95932175Y-166201921D01*
X94948609Y-166201921D01*
X95018462Y-166538000D01*
X96397580Y-166538000D01*
G37*
G36*
X93986229Y-165057884D02*
G01*
X94115204Y-165095657D01*
X94238910Y-165159363D01*
X94359007Y-165251572D01*
X94460289Y-165360864D01*
X94544653Y-165490378D01*
X94612210Y-165642918D01*
X94661990Y-165822124D01*
X94684373Y-165978126D01*
X94684073Y-166111905D01*
X94664237Y-166227218D01*
X94626697Y-166327340D01*
X94569101Y-166414372D01*
X94494192Y-166482235D01*
X94399424Y-166532709D01*
X94280322Y-166565259D01*
X94130884Y-166577078D01*
X93978222Y-166564149D01*
X93841626Y-166526653D01*
X93718114Y-166465215D01*
X93607946Y-166381376D01*
X93509504Y-166273837D01*
X93422335Y-166139395D01*
X93783448Y-166076869D01*
X93843472Y-166172514D01*
X93906669Y-166231963D01*
X93980943Y-166267937D01*
X94065060Y-166280079D01*
X94146560Y-166268958D01*
X94210726Y-166237554D01*
X94261798Y-166185435D01*
X94294101Y-166119070D01*
X94307412Y-166033057D01*
X94297580Y-165920554D01*
X93356878Y-165920554D01*
X93323521Y-165730235D01*
X93314667Y-165574570D01*
X93314689Y-165574318D01*
X93670667Y-165574318D01*
X93680866Y-165686080D01*
X94242259Y-165686080D01*
X94212292Y-165584485D01*
X94168444Y-165501757D01*
X94111100Y-165434755D01*
X94040619Y-165382426D01*
X93967139Y-165352235D01*
X93888595Y-165342187D01*
X93816525Y-165352344D01*
X93758798Y-165381293D01*
X93711885Y-165429870D01*
X93682577Y-165491461D01*
X93670667Y-165574318D01*
X93314689Y-165574318D01*
X93325665Y-165447740D01*
X93353047Y-165344557D01*
X93394736Y-165260609D01*
X93455446Y-165184780D01*
X93528954Y-165125831D01*
X93617066Y-165082478D01*
X93722718Y-165054992D01*
X93849760Y-165045187D01*
X93986229Y-165057884D01*
G37*
G36*
X91951383Y-165247420D02*
G01*
X92025400Y-165157513D01*
X92110047Y-165095547D01*
X92207350Y-165058160D01*
X92321044Y-165045187D01*
X92446367Y-165057067D01*
X92565060Y-165092461D01*
X92679208Y-165152288D01*
X92790357Y-165239116D01*
X92882749Y-165341442D01*
X92961897Y-165467312D01*
X93027404Y-165620483D01*
X93077831Y-165805637D01*
X93103719Y-165993055D01*
X93099838Y-166145828D01*
X93071484Y-166270744D01*
X93021533Y-166373502D01*
X92947273Y-166463677D01*
X92861497Y-166526083D01*
X92762027Y-166563905D01*
X92644910Y-166577078D01*
X92524904Y-166561886D01*
X92393096Y-166513209D01*
X92268251Y-166435725D01*
X92148731Y-166324898D01*
X92193061Y-166538000D01*
X91844282Y-166538000D01*
X91659562Y-165649615D01*
X92046262Y-165649615D01*
X92069474Y-165821635D01*
X92111740Y-165969715D01*
X92166415Y-166081890D01*
X92231774Y-166165163D01*
X92313477Y-166231264D01*
X92394143Y-166268138D01*
X92476261Y-166280079D01*
X92552778Y-166270058D01*
X92613061Y-166241852D01*
X92661050Y-166195368D01*
X92698155Y-166126817D01*
X92714282Y-166054443D01*
X92714169Y-165944749D01*
X92689729Y-165783900D01*
X92648753Y-165641447D01*
X92595212Y-165533358D01*
X92530727Y-165452951D01*
X92450186Y-165389715D01*
X92368675Y-165353921D01*
X92283797Y-165342187D01*
X92198500Y-165355202D01*
X92132623Y-165392079D01*
X92081320Y-165454416D01*
X92053426Y-165532442D01*
X92046262Y-165649615D01*
X91659562Y-165649615D01*
X91426627Y-164529346D01*
X91802028Y-164529346D01*
X91951383Y-165247420D01*
G37*
G36*
X90657140Y-166538000D02*
G01*
X89912810Y-166538000D01*
X89703977Y-166526201D01*
X89554017Y-166495501D01*
X89432514Y-166450472D01*
X89329470Y-166396856D01*
X89242608Y-166335156D01*
X89140456Y-166238180D01*
X89045934Y-166120739D01*
X88959042Y-165980393D01*
X88901156Y-165857955D01*
X88851203Y-165716246D01*
X88810054Y-165552846D01*
X88778680Y-165362767D01*
X88768471Y-165206287D01*
X88770179Y-165175124D01*
X89180448Y-165175124D01*
X89180733Y-165312788D01*
X89215008Y-165534406D01*
X89272139Y-165754755D01*
X89332000Y-165903945D01*
X89406419Y-166026226D01*
X89475982Y-166098729D01*
X89557313Y-166148835D01*
X89653180Y-166182626D01*
X89741735Y-166196166D01*
X89896446Y-166201921D01*
X90191857Y-166201921D01*
X89914031Y-164865424D01*
X89736222Y-164865424D01*
X89514450Y-164871616D01*
X89415409Y-164884720D01*
X89348288Y-164907208D01*
X89294615Y-164938926D01*
X89252133Y-164979730D01*
X89220102Y-165029454D01*
X89195816Y-165093469D01*
X89180448Y-165175124D01*
X88770179Y-165175124D01*
X88775493Y-165078160D01*
X88800436Y-164952848D01*
X88840474Y-164845245D01*
X88894806Y-164752706D01*
X88965495Y-164673231D01*
X89050452Y-164611905D01*
X89151871Y-164567692D01*
X89287681Y-164540654D01*
X89516648Y-164529346D01*
X90239485Y-164529346D01*
X90657140Y-166538000D01*
G37*
G36*
X88278703Y-166538000D02*
G01*
X88654227Y-166538000D01*
X88351976Y-165084266D01*
X88003197Y-165084266D01*
X88046062Y-165290529D01*
X87926694Y-165159973D01*
X87844317Y-165094769D01*
X87759702Y-165057421D01*
X87671760Y-165045187D01*
X87588533Y-165053306D01*
X87511638Y-165077275D01*
X87439485Y-165117483D01*
X87625231Y-165451852D01*
X87709451Y-165403843D01*
X87788630Y-165389081D01*
X87863796Y-165400305D01*
X87931512Y-165433900D01*
X87989403Y-165491319D01*
X88051313Y-165595711D01*
X88103908Y-165745745D01*
X88184792Y-166086150D01*
X88278703Y-166538000D01*
G37*
G36*
X87205256Y-164881056D02*
G01*
X87132105Y-164529346D01*
X86756704Y-164529346D01*
X86829855Y-164881056D01*
X87205256Y-164881056D01*
G37*
G36*
X87549760Y-166538000D02*
G01*
X87247510Y-165084266D01*
X86872109Y-165084266D01*
X87174359Y-166538000D01*
X87549760Y-166538000D01*
G37*
G36*
X86381913Y-166538000D02*
G01*
X86651679Y-165084266D01*
X86257472Y-165084266D01*
X86144387Y-165826154D01*
X86118375Y-166073938D01*
X86053773Y-165949374D01*
X85987950Y-165826154D01*
X85563822Y-165084266D01*
X85177674Y-165084266D01*
X86043759Y-166538000D01*
X86381913Y-166538000D01*
G37*
G36*
X84501791Y-165057884D02*
G01*
X84630766Y-165095657D01*
X84754472Y-165159363D01*
X84874569Y-165251572D01*
X84975851Y-165360864D01*
X85060215Y-165490378D01*
X85127772Y-165642918D01*
X85177552Y-165822124D01*
X85199934Y-165978126D01*
X85199635Y-166111905D01*
X85179799Y-166227218D01*
X85142259Y-166327340D01*
X85084663Y-166414372D01*
X85009753Y-166482235D01*
X84914986Y-166532709D01*
X84795883Y-166565259D01*
X84646446Y-166577078D01*
X84493784Y-166564149D01*
X84357187Y-166526653D01*
X84233675Y-166465215D01*
X84123508Y-166381376D01*
X84025066Y-166273837D01*
X83937897Y-166139395D01*
X84299010Y-166076869D01*
X84359034Y-166172514D01*
X84422231Y-166231963D01*
X84496505Y-166267937D01*
X84580622Y-166280079D01*
X84662121Y-166268958D01*
X84726288Y-166237554D01*
X84777360Y-166185435D01*
X84809663Y-166119070D01*
X84822974Y-166033057D01*
X84813141Y-165920554D01*
X83872440Y-165920554D01*
X83839082Y-165730235D01*
X83830229Y-165574570D01*
X83830251Y-165574318D01*
X84186228Y-165574318D01*
X84196428Y-165686080D01*
X84757820Y-165686080D01*
X84727854Y-165584485D01*
X84684006Y-165501757D01*
X84626662Y-165434755D01*
X84556180Y-165382426D01*
X84482701Y-165352235D01*
X84404157Y-165342187D01*
X84332086Y-165352344D01*
X84274360Y-165381293D01*
X84227447Y-165429870D01*
X84198138Y-165491461D01*
X84186228Y-165574318D01*
X83830251Y-165574318D01*
X83841227Y-165447740D01*
X83868609Y-165344557D01*
X83910298Y-165260609D01*
X83971007Y-165184780D01*
X84044516Y-165125831D01*
X84132628Y-165082478D01*
X84238280Y-165054992D01*
X84365322Y-165045187D01*
X84501791Y-165057884D01*
G37*
G36*
X83302011Y-166538000D02*
G01*
X83677534Y-166538000D01*
X83375284Y-165084266D01*
X83026505Y-165084266D01*
X83069370Y-165290529D01*
X82950002Y-165159973D01*
X82867625Y-165094769D01*
X82783010Y-165057421D01*
X82695067Y-165045187D01*
X82611841Y-165053306D01*
X82534946Y-165077275D01*
X82462793Y-165117483D01*
X82648539Y-165451852D01*
X82732758Y-165403843D01*
X82811938Y-165389081D01*
X82887104Y-165400305D01*
X82954820Y-165433900D01*
X83012711Y-165491319D01*
X83074621Y-165595711D01*
X83127215Y-165745745D01*
X83208100Y-166086150D01*
X83302011Y-166538000D01*
G37*
G36*
X106916897Y-168248800D02*
G01*
X106470299Y-168248800D01*
X106345000Y-168241721D01*
X106255024Y-168223301D01*
X106182122Y-168196283D01*
X106120295Y-168164114D01*
X106068178Y-168127093D01*
X106006887Y-168068908D01*
X105950174Y-167998443D01*
X105898038Y-167914236D01*
X105863307Y-167840773D01*
X105833335Y-167755748D01*
X105808646Y-167657707D01*
X105789821Y-167543660D01*
X105783696Y-167449772D01*
X105784721Y-167431074D01*
X106030882Y-167431074D01*
X106031053Y-167513672D01*
X106051618Y-167646643D01*
X106085897Y-167778853D01*
X106121814Y-167868367D01*
X106166465Y-167941736D01*
X106208202Y-167985237D01*
X106257001Y-168015301D01*
X106314521Y-168035575D01*
X106367654Y-168043700D01*
X106460481Y-168047153D01*
X106637728Y-168047153D01*
X106471032Y-167245254D01*
X106364347Y-167245254D01*
X106231283Y-167248970D01*
X106171859Y-167256832D01*
X106131586Y-167270324D01*
X106099383Y-167289356D01*
X106073893Y-167313838D01*
X106054675Y-167343672D01*
X106040103Y-167382081D01*
X106030882Y-167431074D01*
X105784721Y-167431074D01*
X105787909Y-167372896D01*
X105802875Y-167297709D01*
X105826898Y-167233147D01*
X105859497Y-167177624D01*
X105901911Y-167129939D01*
X105952885Y-167093143D01*
X106013736Y-167066615D01*
X106095222Y-167050392D01*
X106232602Y-167043608D01*
X106666304Y-167043608D01*
X106916897Y-168248800D01*
G37*
G36*
X105276500Y-167360730D02*
G01*
X105353885Y-167383394D01*
X105428109Y-167421618D01*
X105500167Y-167476943D01*
X105560936Y-167542518D01*
X105611555Y-167620226D01*
X105652089Y-167711751D01*
X105681957Y-167819274D01*
X105695386Y-167912875D01*
X105695207Y-167993143D01*
X105683305Y-168062331D01*
X105660781Y-168122404D01*
X105626224Y-168174623D01*
X105581278Y-168215341D01*
X105524417Y-168245625D01*
X105452956Y-168265155D01*
X105363293Y-168272247D01*
X105271696Y-168264489D01*
X105189738Y-168241992D01*
X105115631Y-168205129D01*
X105049530Y-168154826D01*
X104990465Y-168090302D01*
X104938164Y-168009637D01*
X105154832Y-167972121D01*
X105190846Y-168029508D01*
X105228764Y-168065178D01*
X105273329Y-168086762D01*
X105323799Y-168094047D01*
X105372699Y-168087374D01*
X105411198Y-168068532D01*
X105441842Y-168037261D01*
X105461223Y-167997442D01*
X105469210Y-167945834D01*
X105463311Y-167878332D01*
X104898890Y-167878332D01*
X104878875Y-167764141D01*
X104873563Y-167670742D01*
X104873576Y-167670590D01*
X105087163Y-167670590D01*
X105093283Y-167737648D01*
X105430118Y-167737648D01*
X105412138Y-167676691D01*
X105385829Y-167627054D01*
X105351423Y-167586853D01*
X105309134Y-167555455D01*
X105265046Y-167537341D01*
X105217920Y-167531312D01*
X105174678Y-167537406D01*
X105140042Y-167554776D01*
X105111894Y-167583922D01*
X105094309Y-167620877D01*
X105087163Y-167670590D01*
X104873576Y-167670590D01*
X104880162Y-167594644D01*
X104896591Y-167532734D01*
X104921604Y-167482365D01*
X104958030Y-167436868D01*
X105002135Y-167401499D01*
X105055002Y-167375487D01*
X105118394Y-167358995D01*
X105194619Y-167353112D01*
X105276500Y-167360730D01*
G37*
G36*
X104800045Y-168000258D02*
G01*
X104568063Y-167972121D01*
X104563167Y-168015095D01*
X104550455Y-168048133D01*
X104530620Y-168073531D01*
X104503789Y-168091582D01*
X104466205Y-168103588D01*
X104414336Y-168108116D01*
X104356828Y-168103882D01*
X104311472Y-168092310D01*
X104275851Y-168074557D01*
X104247754Y-168046978D01*
X104233059Y-168011762D01*
X104232111Y-167986489D01*
X104239947Y-167967285D01*
X104259512Y-167953184D01*
X104308824Y-167936291D01*
X104485192Y-167887728D01*
X104583358Y-167850249D01*
X104630638Y-167821985D01*
X104666368Y-167783294D01*
X104688043Y-167738748D01*
X104696522Y-167686461D01*
X104690429Y-167623636D01*
X104673788Y-167569260D01*
X104647515Y-167519513D01*
X104611017Y-167473620D01*
X104563080Y-167431148D01*
X104510020Y-167398807D01*
X104445948Y-167374433D01*
X104368738Y-167358744D01*
X104275851Y-167353112D01*
X104185017Y-167357867D01*
X104116379Y-167370522D01*
X104065441Y-167389111D01*
X104028408Y-167412390D01*
X103988209Y-167456551D01*
X103961128Y-167513736D01*
X103947735Y-167587585D01*
X104168946Y-167629790D01*
X104179185Y-167580381D01*
X104203237Y-167546259D01*
X104226448Y-167531219D01*
X104259557Y-167521093D01*
X104305893Y-167517243D01*
X104365192Y-167520751D01*
X104408257Y-167529940D01*
X104438810Y-167543255D01*
X104462763Y-167564839D01*
X104474347Y-167590956D01*
X104473613Y-167614261D01*
X104460865Y-167633747D01*
X104416902Y-167655665D01*
X104264127Y-167699986D01*
X104150873Y-167734919D01*
X104078016Y-167769922D01*
X104034417Y-167804033D01*
X104011433Y-167836540D01*
X103997616Y-167875002D01*
X103993230Y-167921150D01*
X103999832Y-167977250D01*
X104017543Y-168034353D01*
X104046237Y-168087599D01*
X104086833Y-168137766D01*
X104140955Y-168185272D01*
X104200477Y-168221774D01*
X104270273Y-168248906D01*
X104352196Y-168266132D01*
X104448482Y-168272247D01*
X104537021Y-168266778D01*
X104607858Y-168251799D01*
X104664194Y-168228936D01*
X104708673Y-168199047D01*
X104746374Y-168159595D01*
X104773966Y-168114121D01*
X104791979Y-168061539D01*
X104800045Y-168000258D01*
G37*
G36*
X103632369Y-167254633D02*
G01*
X103588478Y-167043608D01*
X103363237Y-167043608D01*
X103407128Y-167254633D01*
X103632369Y-167254633D01*
G37*
G36*
X103839071Y-168248800D02*
G01*
X103657721Y-167376559D01*
X103432480Y-167376559D01*
X103613830Y-168248800D01*
X103839071Y-168248800D01*
G37*
G36*
X102951507Y-167360178D02*
G01*
X103022113Y-167381308D01*
X103090616Y-167417168D01*
X103157927Y-167469396D01*
X103214031Y-167530856D01*
X103261786Y-167605933D01*
X103301019Y-167696741D01*
X103330924Y-167805938D01*
X103344002Y-167895738D01*
X103344438Y-167973318D01*
X103333925Y-168040669D01*
X103313485Y-168099543D01*
X103281013Y-168154142D01*
X103241678Y-168195057D01*
X103194944Y-168224244D01*
X103139327Y-168242383D01*
X103072564Y-168248800D01*
X102999609Y-168240419D01*
X102928787Y-168215008D01*
X102858531Y-168170902D01*
X102787752Y-168104892D01*
X102814497Y-168233559D01*
X102832564Y-168305108D01*
X102847177Y-168340684D01*
X102874061Y-168376525D01*
X102904329Y-168399595D01*
X102959781Y-168419330D01*
X103042375Y-168426999D01*
X103087817Y-168423356D01*
X103118230Y-168414057D01*
X103137850Y-168400694D01*
X103150820Y-168377391D01*
X103153530Y-168333210D01*
X103405076Y-168305073D01*
X103411671Y-168333356D01*
X103417734Y-168391910D01*
X103411026Y-168442661D01*
X103392517Y-168487619D01*
X103361625Y-168528262D01*
X103322561Y-168558034D01*
X103265169Y-168582103D01*
X103183558Y-168598804D01*
X103070512Y-168605199D01*
X102960544Y-168598506D01*
X102875826Y-168580506D01*
X102800620Y-168550265D01*
X102741737Y-168512215D01*
X102692440Y-168462080D01*
X102646995Y-168392048D01*
X102611211Y-168304910D01*
X102574015Y-168160799D01*
X102479852Y-167707842D01*
X102708621Y-167707842D01*
X102720048Y-167798758D01*
X102744551Y-167882514D01*
X102777419Y-167946680D01*
X102817794Y-167994982D01*
X102867884Y-168032733D01*
X102918532Y-168054181D01*
X102971154Y-168061221D01*
X103018826Y-168053849D01*
X103056669Y-168032722D01*
X103087145Y-167996668D01*
X103104364Y-167951656D01*
X103109417Y-167886367D01*
X103097330Y-167792969D01*
X103072788Y-167707095D01*
X103041273Y-167642873D01*
X103003834Y-167595938D01*
X102956865Y-167559230D01*
X102908372Y-167538251D01*
X102856922Y-167531312D01*
X102804942Y-167538978D01*
X102764473Y-167560688D01*
X102732651Y-167597184D01*
X102714360Y-167643028D01*
X102708621Y-167707842D01*
X102479852Y-167707842D01*
X102410983Y-167376559D01*
X102621863Y-167376559D01*
X102646775Y-167496507D01*
X102680378Y-167443536D01*
X102719475Y-167404085D01*
X102764483Y-167376215D01*
X102816581Y-167359099D01*
X102877585Y-167353112D01*
X102951507Y-167360178D01*
G37*
G36*
X101572082Y-168248800D02*
G01*
X101797470Y-168248800D01*
X101704633Y-167802348D01*
X101682391Y-167672308D01*
X101680966Y-167619093D01*
X101692564Y-167581472D01*
X101714452Y-167554393D01*
X101745472Y-167537444D01*
X101787798Y-167531312D01*
X101844513Y-167539410D01*
X101899685Y-167564284D01*
X101946938Y-167602660D01*
X101981604Y-167651552D01*
X102007312Y-167718038D01*
X102040589Y-167852540D01*
X102122948Y-168248800D01*
X102348262Y-168248800D01*
X102166911Y-167376559D01*
X101957644Y-167376559D01*
X101984242Y-167504421D01*
X101907340Y-167435353D01*
X101830543Y-167388913D01*
X101752698Y-167362014D01*
X101672173Y-167353112D01*
X101600833Y-167360326D01*
X101541601Y-167380736D01*
X101492617Y-167413334D01*
X101462833Y-167451298D01*
X101445693Y-167496362D01*
X101439019Y-167548604D01*
X101442637Y-167608491D01*
X101458949Y-167704455D01*
X101572082Y-168248800D01*
G37*
G36*
X100891853Y-167360730D02*
G01*
X100969238Y-167383394D01*
X101043461Y-167421618D01*
X101115519Y-167476943D01*
X101176289Y-167542518D01*
X101226907Y-167620226D01*
X101267441Y-167711751D01*
X101297309Y-167819274D01*
X101310739Y-167912875D01*
X101310559Y-167993143D01*
X101298657Y-168062331D01*
X101276133Y-168122404D01*
X101241576Y-168174623D01*
X101196630Y-168215341D01*
X101139770Y-168245625D01*
X101068308Y-168265155D01*
X100978646Y-168272247D01*
X100887048Y-168264489D01*
X100805091Y-168241992D01*
X100730983Y-168205129D01*
X100664883Y-168154826D01*
X100605818Y-168090302D01*
X100553516Y-168009637D01*
X100770184Y-167972121D01*
X100806198Y-168029508D01*
X100844117Y-168065178D01*
X100888681Y-168086762D01*
X100939151Y-168094047D01*
X100988051Y-168087374D01*
X101026551Y-168068532D01*
X101057194Y-168037261D01*
X101076576Y-167997442D01*
X101084563Y-167945834D01*
X101078663Y-167878332D01*
X100514242Y-167878332D01*
X100494228Y-167764141D01*
X100488916Y-167670742D01*
X100488929Y-167670590D01*
X100702515Y-167670590D01*
X100708635Y-167737648D01*
X101045470Y-167737648D01*
X101027491Y-167676691D01*
X101001182Y-167627054D01*
X100966775Y-167586853D01*
X100924486Y-167555455D01*
X100880399Y-167537341D01*
X100833272Y-167531312D01*
X100790030Y-167537406D01*
X100755394Y-167554776D01*
X100727246Y-167583922D01*
X100709661Y-167620877D01*
X100702515Y-167670590D01*
X100488929Y-167670590D01*
X100495514Y-167594644D01*
X100511944Y-167532734D01*
X100536957Y-167482365D01*
X100573383Y-167436868D01*
X100617488Y-167401499D01*
X100670355Y-167375487D01*
X100733746Y-167358995D01*
X100809971Y-167353112D01*
X100891853Y-167360730D01*
G37*
G36*
X99670945Y-167474452D02*
G01*
X99715355Y-167420508D01*
X99766143Y-167383328D01*
X99824525Y-167360896D01*
X99892742Y-167353112D01*
X99967936Y-167360240D01*
X100039151Y-167381476D01*
X100107640Y-167417373D01*
X100174329Y-167469469D01*
X100229765Y-167530865D01*
X100277253Y-167606387D01*
X100316557Y-167698290D01*
X100346814Y-167809382D01*
X100362347Y-167921833D01*
X100360018Y-168013496D01*
X100343005Y-168088446D01*
X100313035Y-168150101D01*
X100268479Y-168204206D01*
X100217013Y-168241650D01*
X100157331Y-168264343D01*
X100087061Y-168272247D01*
X100015057Y-168263131D01*
X99935973Y-168233925D01*
X99861066Y-168187435D01*
X99789354Y-168120938D01*
X99815952Y-168248800D01*
X99606685Y-168248800D01*
X99495853Y-167715769D01*
X99727872Y-167715769D01*
X99741800Y-167818981D01*
X99767159Y-167907829D01*
X99799964Y-167975134D01*
X99839179Y-168025097D01*
X99888201Y-168064758D01*
X99936601Y-168086883D01*
X99985872Y-168094047D01*
X100031782Y-168088035D01*
X100067952Y-168071111D01*
X100096745Y-168043221D01*
X100119008Y-168002090D01*
X100128684Y-167958666D01*
X100128617Y-167892849D01*
X100113953Y-167796340D01*
X100089367Y-167710868D01*
X100057242Y-167646015D01*
X100018551Y-167597770D01*
X99970227Y-167559829D01*
X99921320Y-167538353D01*
X99870394Y-167531312D01*
X99819215Y-167539121D01*
X99779689Y-167561247D01*
X99748907Y-167598649D01*
X99732171Y-167645465D01*
X99727872Y-167715769D01*
X99495853Y-167715769D01*
X99356091Y-167043608D01*
X99581332Y-167043608D01*
X99670945Y-167474452D01*
G37*
G36*
X98904877Y-168248800D02*
G01*
X98695610Y-168248800D01*
X98669012Y-168120938D01*
X98641412Y-168166554D01*
X98608531Y-168203598D01*
X98570094Y-168233046D01*
X98526871Y-168254914D01*
X98481862Y-168267887D01*
X98434319Y-168272247D01*
X98363160Y-168265022D01*
X98293972Y-168243212D01*
X98225511Y-168205760D01*
X98156835Y-168150541D01*
X98099777Y-168086433D01*
X98051199Y-168008702D01*
X98011287Y-167915282D01*
X97980833Y-167803594D01*
X97968589Y-167715515D01*
X98200896Y-167715515D01*
X98214720Y-167818102D01*
X98240916Y-167911236D01*
X98273373Y-167979282D01*
X98310854Y-168027589D01*
X98358095Y-168065854D01*
X98404558Y-168087160D01*
X98451685Y-168094047D01*
X98497175Y-168088029D01*
X98533819Y-168070929D01*
X98563757Y-168042509D01*
X98587752Y-168000405D01*
X98599318Y-167955256D01*
X98600582Y-167889637D01*
X98587020Y-167796340D01*
X98562220Y-167709724D01*
X98530171Y-167644704D01*
X98491911Y-167596964D01*
X98443954Y-167559580D01*
X98394972Y-167538314D01*
X98343534Y-167531312D01*
X98292355Y-167539121D01*
X98252829Y-167561247D01*
X98222048Y-167598649D01*
X98205248Y-167645459D01*
X98200896Y-167715515D01*
X97968589Y-167715515D01*
X97965208Y-167691197D01*
X97967415Y-167600880D01*
X97984050Y-167528207D01*
X98013220Y-167469469D01*
X98056648Y-167418806D01*
X98108680Y-167383039D01*
X98170995Y-167360930D01*
X98246374Y-167353112D01*
X98314645Y-167360205D01*
X98381995Y-167381763D01*
X98449656Y-167419064D01*
X98518583Y-167474452D01*
X98428970Y-167043608D01*
X98654284Y-167043608D01*
X98904877Y-168248800D01*
G37*
G36*
X97794647Y-167376559D02*
G01*
X97554971Y-167376559D01*
X97480453Y-167997400D01*
X97152410Y-167376559D01*
X96919183Y-167376559D01*
X97394431Y-168216486D01*
X97480233Y-168371019D01*
X97525779Y-168441867D01*
X97560980Y-168487229D01*
X97597949Y-168524084D01*
X97636231Y-168552369D01*
X97678790Y-168574187D01*
X97730167Y-168591277D01*
X97785470Y-168601592D01*
X97848063Y-168605199D01*
X97912114Y-168601688D01*
X97972700Y-168591350D01*
X97955408Y-168411539D01*
X97905547Y-168419755D01*
X97862205Y-168422310D01*
X97811760Y-168416667D01*
X97770374Y-168400695D01*
X97736029Y-168374682D01*
X97692540Y-168322098D01*
X97653084Y-168253489D01*
X97794647Y-167376559D01*
G37*
G36*
X96569818Y-168248800D02*
G01*
X96522997Y-168023705D01*
X95743813Y-167245254D01*
X96291528Y-167245254D01*
X96249542Y-167043608D01*
X95389099Y-167043608D01*
X95428154Y-167231186D01*
X96241702Y-168047153D01*
X95573014Y-168047153D01*
X95614926Y-168248800D01*
X96569818Y-168248800D01*
G37*
G36*
X94968660Y-167043608D02*
G01*
X95060470Y-167484930D01*
X94987587Y-167424660D01*
X94916044Y-167384165D01*
X94844803Y-167360797D01*
X94772508Y-167353112D01*
X94698422Y-167360907D01*
X94638345Y-167382788D01*
X94589426Y-167417668D01*
X94559870Y-167458698D01*
X94543418Y-167506773D01*
X94537815Y-167560987D01*
X94542839Y-167624377D01*
X94562362Y-167735010D01*
X94669193Y-168248800D01*
X94894581Y-168248800D01*
X94798520Y-167786668D01*
X94776698Y-167660819D01*
X94775073Y-167612058D01*
X94785959Y-167578587D01*
X94808045Y-167553147D01*
X94839613Y-167537239D01*
X94884909Y-167531312D01*
X94939354Y-167538276D01*
X94990934Y-167559302D01*
X95035745Y-167593747D01*
X95073000Y-167643786D01*
X95100862Y-167707705D01*
X95128175Y-167810555D01*
X95219253Y-168248800D01*
X95444640Y-168248800D01*
X95194047Y-167043608D01*
X94968660Y-167043608D01*
G37*
G36*
X94427613Y-168248800D02*
G01*
X94218345Y-168248800D01*
X94191747Y-168120938D01*
X94164147Y-168166554D01*
X94131266Y-168203598D01*
X94092829Y-168233046D01*
X94049606Y-168254914D01*
X94004598Y-168267887D01*
X93957054Y-168272247D01*
X93885895Y-168265022D01*
X93816707Y-168243212D01*
X93748246Y-168205760D01*
X93679570Y-168150541D01*
X93622513Y-168086433D01*
X93573935Y-168008702D01*
X93534023Y-167915282D01*
X93503569Y-167803594D01*
X93491325Y-167715515D01*
X93723632Y-167715515D01*
X93737456Y-167818102D01*
X93763652Y-167911236D01*
X93796108Y-167979282D01*
X93833590Y-168027589D01*
X93880831Y-168065854D01*
X93927294Y-168087160D01*
X93974420Y-168094047D01*
X94019911Y-168088029D01*
X94056554Y-168070929D01*
X94086492Y-168042509D01*
X94110488Y-168000405D01*
X94122054Y-167955256D01*
X94123317Y-167889637D01*
X94109755Y-167796340D01*
X94084956Y-167709724D01*
X94052906Y-167644704D01*
X94014647Y-167596964D01*
X93966690Y-167559580D01*
X93917708Y-167538314D01*
X93866269Y-167531312D01*
X93815091Y-167539121D01*
X93775565Y-167561247D01*
X93744783Y-167598649D01*
X93727984Y-167645459D01*
X93723632Y-167715515D01*
X93491325Y-167715515D01*
X93487944Y-167691197D01*
X93490151Y-167600880D01*
X93506785Y-167528207D01*
X93535955Y-167469469D01*
X93579383Y-167418806D01*
X93631416Y-167383039D01*
X93693730Y-167360930D01*
X93769110Y-167353112D01*
X93837381Y-167360205D01*
X93904731Y-167381763D01*
X93972391Y-167419064D01*
X94041318Y-167474452D01*
X93951706Y-167043608D01*
X94177020Y-167043608D01*
X94427613Y-168248800D01*
G37*
G36*
X93185418Y-167254633D02*
G01*
X93141528Y-167043608D01*
X92916287Y-167043608D01*
X92960177Y-167254633D01*
X93185418Y-167254633D01*
G37*
G36*
X93392121Y-168248800D02*
G01*
X93210770Y-167376559D01*
X92985530Y-167376559D01*
X93166880Y-168248800D01*
X93392121Y-168248800D01*
G37*
G36*
X92443955Y-167050543D02*
G01*
X92518820Y-167071039D01*
X92589710Y-167105286D01*
X92657560Y-167154323D01*
X92715991Y-167213505D01*
X92763030Y-167281076D01*
X92799205Y-167358070D01*
X92824403Y-167445949D01*
X92835546Y-167533915D01*
X92831139Y-167608481D01*
X92813210Y-167672379D01*
X92782417Y-167727830D01*
X92739222Y-167775493D01*
X92689662Y-167808782D01*
X92632484Y-167829060D01*
X92565603Y-167836127D01*
X92504258Y-167830042D01*
X92445551Y-167811808D01*
X92388421Y-167780751D01*
X92332082Y-167735303D01*
X92376875Y-167875388D01*
X92416951Y-167962676D01*
X92452250Y-168012495D01*
X92497388Y-168051631D01*
X92541122Y-168073107D01*
X92584947Y-168079979D01*
X92620280Y-168075869D01*
X92646954Y-168064594D01*
X92667086Y-168046640D01*
X92680360Y-168022798D01*
X92687677Y-167989659D01*
X92687382Y-167943984D01*
X92910718Y-167969044D01*
X92909053Y-168045640D01*
X92897280Y-168107225D01*
X92876997Y-168156669D01*
X92848876Y-168196263D01*
X92812007Y-168228162D01*
X92766538Y-168251739D01*
X92710624Y-168266817D01*
X92641807Y-168272247D01*
X92549253Y-168263259D01*
X92462509Y-168236574D01*
X92379916Y-168191570D01*
X92300282Y-168126287D01*
X92248577Y-168067241D01*
X92200408Y-167992870D01*
X92156079Y-167900652D01*
X92116242Y-167787641D01*
X92081856Y-167650527D01*
X92058814Y-167509936D01*
X92052151Y-167397721D01*
X92052506Y-167392700D01*
X92287426Y-167392700D01*
X92295959Y-167465220D01*
X92314759Y-167529206D01*
X92340243Y-167578558D01*
X92371796Y-167616015D01*
X92410861Y-167645206D01*
X92450526Y-167661835D01*
X92491890Y-167667306D01*
X92533903Y-167661120D01*
X92566885Y-167643550D01*
X92593080Y-167613963D01*
X92608133Y-167576702D01*
X92612850Y-167523079D01*
X92603192Y-167446755D01*
X92582593Y-167373645D01*
X92557316Y-167321345D01*
X92528380Y-167285188D01*
X92491784Y-167257186D01*
X92454116Y-167241170D01*
X92414295Y-167235876D01*
X92373745Y-167242507D01*
X92339881Y-167261979D01*
X92310907Y-167296033D01*
X92293412Y-167337813D01*
X92287426Y-167392700D01*
X92052506Y-167392700D01*
X92058420Y-167308992D01*
X92074913Y-167239373D01*
X92099807Y-167185097D01*
X92137844Y-167133939D01*
X92182229Y-167095054D01*
X92233677Y-167067097D01*
X92293580Y-167049720D01*
X92363883Y-167043608D01*
X92443955Y-167050543D01*
G37*
G36*
X91494675Y-167049570D02*
G01*
X91568212Y-167066611D01*
X91632820Y-167093944D01*
X91689846Y-167131462D01*
X91740272Y-167178871D01*
X91779587Y-167231292D01*
X91808694Y-167289324D01*
X91827892Y-167353918D01*
X91834121Y-167406209D01*
X91830746Y-167454140D01*
X91818293Y-167498779D01*
X91795968Y-167538490D01*
X91761636Y-167572958D01*
X91712854Y-167602606D01*
X91783310Y-167637237D01*
X91841194Y-167679153D01*
X91888122Y-167728416D01*
X91926364Y-167785061D01*
X91954375Y-167844549D01*
X91972679Y-167907495D01*
X91981935Y-167979633D01*
X91978789Y-168041785D01*
X91964715Y-168095915D01*
X91940211Y-168143649D01*
X91904755Y-168186151D01*
X91858097Y-168222482D01*
X91802338Y-168249235D01*
X91735658Y-168266198D01*
X91655701Y-168272247D01*
X91570979Y-168265507D01*
X91493970Y-168245863D01*
X91423284Y-168213595D01*
X91357847Y-168168199D01*
X91300811Y-168112293D01*
X91255481Y-168049213D01*
X91221146Y-167978100D01*
X91197745Y-167897676D01*
X91190116Y-167832405D01*
X91412895Y-167832405D01*
X91418736Y-167888517D01*
X91437309Y-167951101D01*
X91463050Y-168000001D01*
X91495453Y-168037700D01*
X91535394Y-168066875D01*
X91577069Y-168083739D01*
X91621629Y-168089358D01*
X91666371Y-168083077D01*
X91701564Y-168065303D01*
X91729560Y-168035649D01*
X91746804Y-167998149D01*
X91753157Y-167949601D01*
X91746119Y-167886099D01*
X91732630Y-167842174D01*
X91710584Y-167799923D01*
X91679148Y-167758824D01*
X91640761Y-167726253D01*
X91596323Y-167706845D01*
X91543886Y-167700132D01*
X91499057Y-167706241D01*
X91464189Y-167723406D01*
X91436835Y-167751790D01*
X91419522Y-167787829D01*
X91412895Y-167832405D01*
X91190116Y-167832405D01*
X91189929Y-167830809D01*
X91194947Y-167772149D01*
X91211667Y-167719843D01*
X91240231Y-167673442D01*
X91280966Y-167634541D01*
X91336011Y-167602606D01*
X91282498Y-167575856D01*
X91236018Y-167542686D01*
X91195840Y-167502882D01*
X91162628Y-167457147D01*
X91138253Y-167407716D01*
X91122348Y-167353918D01*
X91119303Y-167327073D01*
X91333185Y-167327073D01*
X91337330Y-167369818D01*
X91350988Y-167413744D01*
X91371343Y-167449377D01*
X91398366Y-167478116D01*
X91431229Y-167499778D01*
X91467768Y-167512779D01*
X91509082Y-167517243D01*
X91549500Y-167512469D01*
X91579807Y-167499391D01*
X91602505Y-167478555D01*
X91616987Y-167451210D01*
X91622748Y-167416192D01*
X91618112Y-167370624D01*
X91605139Y-167329409D01*
X91585147Y-167294917D01*
X91557955Y-167266064D01*
X91524957Y-167244175D01*
X91488112Y-167231020D01*
X91446287Y-167226497D01*
X91406457Y-167231296D01*
X91376413Y-167244490D01*
X91353743Y-167265624D01*
X91339083Y-167293138D01*
X91333185Y-167327073D01*
X91119303Y-167327073D01*
X91114702Y-167286521D01*
X91120497Y-167228316D01*
X91138444Y-167177179D01*
X91168656Y-167131462D01*
X91208595Y-167095115D01*
X91260217Y-167067849D01*
X91326299Y-167050103D01*
X91410530Y-167043608D01*
X91494675Y-167049570D01*
G37*
M02*
