%TF.GenerationSoftware,KiCad,Pcbnew,9.0.6*%
%TF.CreationDate,2026-01-19T13:30:55+08:00*%
%TF.ProjectId,Ledx10,4c656478-3130-42e6-9b69-6361645f7063,rev?*%
%TF.SameCoordinates,Original*%
%TF.FileFunction,Legend,Top*%
%TF.FilePolarity,Positive*%
%FSLAX46Y46*%
G04 Gerber Fmt 4.6, Leading zero omitted, Abs format (unit mm)*
G04 Created by KiCad (PCBNEW 9.0.6) date 2026-01-19 13:30:55*
%MOMM*%
%LPD*%
G01*
G04 APERTURE LIST*
%ADD10C,0.200000*%
%ADD11C,0.400000*%
%ADD12C,0.300000*%
%ADD13C,0.120000*%
%ADD14C,0.150000*%
%ADD15C,0.100000*%
G04 APERTURE END LIST*
D10*
X150767663Y-113887195D02*
X150653913Y-113493746D01*
X148726866Y-115290525D01*
X150529723Y-113359116D01*
X149885400Y-113512600D01*
X151295275Y-112672100D01*
X150767663Y-113887195D01*
G36*
X150767663Y-113887195D02*
G01*
X150653913Y-113493746D01*
X148726866Y-115290525D01*
X150529723Y-113359116D01*
X149885400Y-113512600D01*
X151295275Y-112672100D01*
X150767663Y-113887195D01*
G37*
D11*
G36*
X119026418Y-120919040D02*
G01*
X118779672Y-123266677D01*
X116432036Y-123019930D01*
X116548890Y-121908144D01*
X116772335Y-121908144D01*
X116794498Y-121982967D01*
X116843608Y-122043612D01*
X116912188Y-122080848D01*
X116950590Y-122088748D01*
X117509417Y-122147483D01*
X117450682Y-122706310D01*
X117450425Y-122745516D01*
X117472588Y-122820339D01*
X117521698Y-122880984D01*
X117590278Y-122918220D01*
X117667886Y-122926377D01*
X117742709Y-122904214D01*
X117803354Y-122855104D01*
X117840590Y-122786524D01*
X117848490Y-122748122D01*
X117907225Y-122189294D01*
X118466053Y-122248030D01*
X118505259Y-122248287D01*
X118580081Y-122226124D01*
X118640727Y-122177014D01*
X118677962Y-122108434D01*
X118686119Y-122030826D01*
X118663956Y-121956003D01*
X118614846Y-121895358D01*
X118546267Y-121858122D01*
X118507864Y-121850222D01*
X117949036Y-121791486D01*
X118007772Y-121232659D01*
X118008029Y-121193453D01*
X117985866Y-121118631D01*
X117936756Y-121057985D01*
X117868176Y-121020750D01*
X117790568Y-121012593D01*
X117715745Y-121034756D01*
X117655100Y-121083866D01*
X117617864Y-121152445D01*
X117609964Y-121190848D01*
X117551228Y-121749675D01*
X116992402Y-121690940D01*
X116953196Y-121690683D01*
X116878373Y-121712846D01*
X116817728Y-121761956D01*
X116780492Y-121830536D01*
X116772335Y-121908144D01*
X116548890Y-121908144D01*
X116678783Y-120672294D01*
X119026418Y-120919040D01*
G37*
D12*
G36*
X83432895Y-90714010D02*
G01*
X83818966Y-90651099D01*
X84083303Y-91339721D01*
X83697232Y-91402631D01*
X83432895Y-90714010D01*
G37*
G36*
X146394990Y-115024107D02*
G01*
X145698580Y-113672187D01*
X145929130Y-113485491D01*
X146507630Y-114608554D01*
X147080911Y-114144320D01*
X147198822Y-114373177D01*
X146394990Y-115024107D01*
G37*
G36*
X147542311Y-112862255D02*
G01*
X147606232Y-112891508D01*
X147670893Y-112938725D01*
X147737166Y-113007458D01*
X147805478Y-113102367D01*
X147875863Y-113229041D01*
X147327567Y-113673043D01*
X147374936Y-113743257D01*
X147423292Y-113787108D01*
X147473444Y-113810543D01*
X147527812Y-113816816D01*
X147580034Y-113804833D01*
X147632785Y-113772849D01*
X147676083Y-113726069D01*
X147702395Y-113670045D01*
X147711171Y-113605566D01*
X147701012Y-113521488D01*
X147941002Y-113387490D01*
X147953650Y-113506994D01*
X147947030Y-113616137D01*
X147922389Y-113717001D01*
X147879397Y-113811108D01*
X147817478Y-113897435D01*
X147734600Y-113977026D01*
X147641921Y-114040670D01*
X147557137Y-114077913D01*
X147478078Y-114093223D01*
X147402385Y-114089025D01*
X147327737Y-114065482D01*
X147258600Y-114024844D01*
X147192611Y-113966995D01*
X147129295Y-113889162D01*
X147068709Y-113787670D01*
X147013140Y-113659723D01*
X146980519Y-113538927D01*
X146968562Y-113423619D01*
X146972278Y-113367993D01*
X147205167Y-113367993D01*
X147218656Y-113436907D01*
X147249142Y-113510267D01*
X147576355Y-113245295D01*
X147529549Y-113175339D01*
X147483500Y-113132667D01*
X147437346Y-113110601D01*
X147387075Y-113104430D01*
X147339765Y-113114803D01*
X147292964Y-113142899D01*
X147251927Y-113185828D01*
X147223348Y-113238107D01*
X147206966Y-113301874D01*
X147205167Y-113367993D01*
X146972278Y-113367993D01*
X146976011Y-113312114D01*
X147002488Y-113201684D01*
X147044523Y-113106165D01*
X147101869Y-113023273D01*
X147175418Y-112951461D01*
X147254094Y-112897213D01*
X147328647Y-112863366D01*
X147400466Y-112847048D01*
X147471135Y-112846711D01*
X147542311Y-112862255D01*
G37*
G36*
X149048923Y-112874994D02*
G01*
X148845634Y-113039615D01*
X148770890Y-112894483D01*
X148753536Y-113015492D01*
X148717341Y-113119580D01*
X148663490Y-113210163D01*
X148600714Y-113275661D01*
X148526234Y-113323260D01*
X148450405Y-113348164D01*
X148370955Y-113352276D01*
X148285110Y-113334766D01*
X148207495Y-113298449D01*
X148132009Y-113239023D01*
X148057640Y-113151810D01*
X147984270Y-113030353D01*
X147926271Y-112898633D01*
X147892156Y-112778437D01*
X147878879Y-112667716D01*
X147884321Y-112566559D01*
X148136690Y-112566559D01*
X148137056Y-112643861D01*
X148156866Y-112732133D01*
X148200218Y-112834503D01*
X148261893Y-112939791D01*
X148313602Y-113003780D01*
X148357161Y-113038352D01*
X148411144Y-113060795D01*
X148461054Y-113065238D01*
X148509504Y-113053225D01*
X148558832Y-113022951D01*
X148601060Y-112977232D01*
X148630672Y-112917666D01*
X148647095Y-112840575D01*
X148645885Y-112761190D01*
X148624808Y-112670001D01*
X148579551Y-112563743D01*
X148511888Y-112452523D01*
X148452408Y-112387610D01*
X148399322Y-112355297D01*
X148339997Y-112343178D01*
X148284195Y-112352777D01*
X148228335Y-112385450D01*
X148184402Y-112432351D01*
X148153787Y-112491687D01*
X148136690Y-112566559D01*
X147884321Y-112566559D01*
X147884434Y-112564466D01*
X147908237Y-112461396D01*
X147946531Y-112372649D01*
X147999006Y-112295997D01*
X148066445Y-112229922D01*
X148138835Y-112183820D01*
X148213196Y-112159685D01*
X148291781Y-112155851D01*
X148377357Y-112173319D01*
X148125486Y-111684288D01*
X148344292Y-111507103D01*
X149048923Y-112874994D01*
G37*
G36*
X149181602Y-112767553D02*
G01*
X149217278Y-112016090D01*
X148684080Y-111767485D01*
X148951288Y-111551104D01*
X149237887Y-111704762D01*
X149251951Y-111307632D01*
X149508980Y-111099493D01*
X149470085Y-111795460D01*
X150044655Y-112068667D01*
X149775880Y-112286316D01*
X149449701Y-112115799D01*
X149437920Y-112559991D01*
X149181602Y-112767553D01*
G37*
G36*
X150706625Y-111532614D02*
G01*
X150487748Y-111709857D01*
X149981605Y-110727377D01*
X149939140Y-110878799D01*
X149879354Y-111021466D01*
X149801900Y-111156459D01*
X149678533Y-110916935D01*
X149719465Y-110845991D01*
X149759834Y-110754604D01*
X149799114Y-110638972D01*
X149825573Y-110521470D01*
X149833541Y-110411866D01*
X149824402Y-110308534D01*
X150001995Y-110164722D01*
X150706625Y-111532614D01*
G37*
G36*
X150985263Y-109497889D02*
G01*
X151050831Y-109516099D01*
X151118636Y-109551776D01*
X151191232Y-109610053D01*
X151269877Y-109696463D01*
X151355474Y-109817823D01*
X151448656Y-109982048D01*
X151526539Y-110148535D01*
X151579518Y-110293930D01*
X151611329Y-110420935D01*
X151625140Y-110532118D01*
X151623468Y-110629885D01*
X151603676Y-110733422D01*
X151566294Y-110824819D01*
X151511189Y-110906236D01*
X151436795Y-110979047D01*
X151366509Y-111026486D01*
X151298085Y-111055073D01*
X151230155Y-111067124D01*
X151161096Y-111063482D01*
X151089181Y-111043450D01*
X151028141Y-111010861D01*
X150960685Y-110955297D01*
X150885260Y-110870346D01*
X150800604Y-110748174D01*
X150705645Y-110579719D01*
X150628213Y-110414093D01*
X150575514Y-110269265D01*
X150543858Y-110142577D01*
X150530119Y-110031505D01*
X150531532Y-109950043D01*
X150769419Y-109950043D01*
X150782989Y-110037768D01*
X150828794Y-110170036D01*
X150936091Y-110397114D01*
X151056842Y-110613912D01*
X151126038Y-110710125D01*
X151173676Y-110755940D01*
X151210209Y-110779644D01*
X151238633Y-110788188D01*
X151282561Y-110783902D01*
X151324412Y-110760801D01*
X151357683Y-110723480D01*
X151379722Y-110673230D01*
X151385865Y-110613520D01*
X151372295Y-110525796D01*
X151326898Y-110394345D01*
X151219671Y-110167476D01*
X151098910Y-109950589D01*
X151029724Y-109854466D01*
X150982104Y-109808544D01*
X150945485Y-109784634D01*
X150916925Y-109775861D01*
X150872756Y-109779798D01*
X150830872Y-109802763D01*
X150797601Y-109840084D01*
X150775562Y-109890334D01*
X150769419Y-109950043D01*
X150531532Y-109950043D01*
X150531816Y-109933679D01*
X150551608Y-109830142D01*
X150588990Y-109738744D01*
X150644096Y-109657328D01*
X150718489Y-109584516D01*
X150788983Y-109536483D01*
X150855976Y-109507592D01*
X150920867Y-109495147D01*
X150985263Y-109497889D01*
G37*
G36*
X84424924Y-94344913D02*
G01*
X84944928Y-94260154D01*
X84761030Y-93781083D01*
X85115594Y-93723333D01*
X85299492Y-94202404D01*
X85819496Y-94117644D01*
X85942124Y-94437101D01*
X85422120Y-94521861D01*
X85606456Y-95002072D01*
X85251892Y-95059821D01*
X85067556Y-94579610D01*
X84547552Y-94664370D01*
X84424924Y-94344913D01*
G37*
D10*
G36*
X84257910Y-95701335D02*
G01*
X84323570Y-95881732D01*
X83645703Y-96128456D01*
X83727584Y-96177345D01*
X83801669Y-96237985D01*
X83868565Y-96311222D01*
X83703315Y-96371368D01*
X83668151Y-96332654D01*
X83621007Y-96292222D01*
X83559683Y-96249891D01*
X83494539Y-96216360D01*
X83430818Y-96197216D01*
X83367427Y-96191207D01*
X83314152Y-96044835D01*
X84257910Y-95701335D01*
G37*
G36*
X83769276Y-94884413D02*
G01*
X83938197Y-94822931D01*
X84168318Y-95455182D01*
X84102429Y-95466326D01*
X84035344Y-95467626D01*
X83966352Y-95458904D01*
X83898069Y-95440136D01*
X83801119Y-95402096D01*
X83667489Y-95337979D01*
X83521876Y-95267711D01*
X83459407Y-95244378D01*
X83413230Y-95237041D01*
X83372395Y-95238267D01*
X83335744Y-95247216D01*
X83298356Y-95265354D01*
X83272194Y-95287354D01*
X83255050Y-95313300D01*
X83246089Y-95343152D01*
X83245819Y-95376430D01*
X83255288Y-95414646D01*
X83272523Y-95449391D01*
X83294665Y-95474678D01*
X83322018Y-95492116D01*
X83353372Y-95500792D01*
X83394551Y-95500826D01*
X83448894Y-95489538D01*
X83496343Y-95675783D01*
X83416955Y-95689222D01*
X83350270Y-95688696D01*
X83293744Y-95676327D01*
X83245248Y-95653071D01*
X83201492Y-95619426D01*
X83163326Y-95577569D01*
X83130481Y-95526523D01*
X83103078Y-95464912D01*
X83083035Y-95393598D01*
X83076474Y-95329831D01*
X83081789Y-95272027D01*
X83098284Y-95218761D01*
X83125516Y-95169191D01*
X83160320Y-95128700D01*
X83203244Y-95096226D01*
X83255510Y-95071408D01*
X83319623Y-95054566D01*
X83384411Y-95050289D01*
X83451278Y-95057930D01*
X83530624Y-95078881D01*
X83590370Y-95102810D01*
X83693295Y-95153402D01*
X83836286Y-95223843D01*
X83899634Y-95242568D01*
X83769276Y-94884413D01*
G37*
G36*
X83792072Y-94421455D02*
G01*
X82970736Y-95101306D01*
X82895741Y-94895261D01*
X83506772Y-94403134D01*
X82725182Y-94426652D01*
X82651816Y-94225082D01*
X83718247Y-94218622D01*
X83792072Y-94421455D01*
G37*
G36*
X83428294Y-93421982D02*
G01*
X82484536Y-93765482D01*
X82381035Y-93481115D01*
X82962668Y-93076039D01*
X82257443Y-93141550D01*
X82153691Y-92856495D01*
X83097450Y-92512995D01*
X83161710Y-92689548D01*
X82418833Y-92959933D01*
X83229687Y-92876314D01*
X83296286Y-93059294D01*
X82621157Y-93515814D01*
X83364034Y-93245429D01*
X83428294Y-93421982D01*
G37*
G36*
X82795091Y-91682272D02*
G01*
X82612009Y-91841959D01*
X82748903Y-92218074D01*
X82990169Y-92218243D01*
X83063534Y-92419813D01*
X81986369Y-92396780D01*
X81921427Y-92218354D01*
X82170948Y-92218354D01*
X82569738Y-92217135D01*
X82476283Y-91960368D01*
X82170948Y-92218354D01*
X81921427Y-92218354D01*
X81913233Y-92195841D01*
X82719846Y-91475538D01*
X82795091Y-91682272D01*
G37*
G36*
X82718029Y-91470546D02*
G01*
X82108605Y-91323665D01*
X81763286Y-91783865D01*
X81682444Y-91561754D01*
X81897050Y-91272655D01*
X81546468Y-91188163D01*
X81466336Y-90968003D01*
X82025618Y-91099410D01*
X82399569Y-90595584D01*
X82482980Y-90824753D01*
X82239218Y-91149611D01*
X82635078Y-91242639D01*
X82718029Y-91470546D01*
G37*
D13*
%TO.C,D22*%
X128543189Y-41146777D02*
X130512804Y-41494073D01*
X128543189Y-41146777D02*
X129239518Y-37197698D01*
X130512804Y-41494073D02*
X131209133Y-37544994D01*
%TO.C,D11*%
X84828317Y-74417619D02*
X85244140Y-72461324D01*
X84828317Y-74417619D02*
X80905945Y-73583893D01*
X85244140Y-72461324D02*
X81321768Y-71627598D01*
%TO.C,D18*%
X104948353Y-45488704D02*
X106775444Y-44675231D01*
X104948353Y-45488704D02*
X103317339Y-41825387D01*
X106775444Y-44675231D02*
X105144430Y-41011913D01*
%TO.C,D8*%
X96609879Y-108131335D02*
X95195665Y-106717121D01*
X96609879Y-108131335D02*
X93774381Y-110966833D01*
X95195665Y-106717121D02*
X92360167Y-109552619D01*
%TO.C,D30*%
X158571505Y-97244810D02*
X157395935Y-98862844D01*
X158571505Y-97244810D02*
X161815663Y-99601829D01*
X157395935Y-98862844D02*
X160640093Y-101219863D01*
%TO.C,D15*%
X88203268Y-63371687D02*
X89048505Y-61559071D01*
X88203268Y-63371687D02*
X84568974Y-61676988D01*
X89048505Y-61559071D02*
X85414210Y-59864372D01*
%TO.C,D6*%
X102474975Y-117875820D02*
X104207025Y-118875820D01*
X102474975Y-117875820D02*
X104479975Y-114403058D01*
X104207025Y-118875820D02*
X106212025Y-115403058D01*
%TO.C,D12*%
X85174794Y-87442998D02*
X84827498Y-85473383D01*
X85174794Y-87442998D02*
X81225715Y-88139327D01*
X84827498Y-85473383D02*
X80878419Y-86169712D01*
%TO.C,D31*%
X151830256Y-106551258D02*
X150571615Y-108105550D01*
X151830256Y-106551258D02*
X154946611Y-109074833D01*
X150571615Y-108105550D02*
X153687970Y-110629125D01*
%TO.C,D5*%
X100406041Y-116681321D02*
X102138091Y-117681321D01*
X100406041Y-116681321D02*
X102411041Y-113208559D01*
X102138091Y-117681321D02*
X104143091Y-114208559D01*
%TO.C,D24*%
X157902888Y-61712131D02*
X158872507Y-63461370D01*
X157902888Y-61712131D02*
X161410113Y-59768044D01*
X158872507Y-63461370D02*
X162379732Y-61517284D01*
%TO.C,D21*%
X140700743Y-45094277D02*
X142415077Y-46124353D01*
X140700743Y-45094277D02*
X142766046Y-41657036D01*
X142415077Y-46124353D02*
X144480380Y-42687112D01*
%TO.C,D27*%
X161838060Y-84851242D02*
X161594322Y-86836335D01*
X161838060Y-84851242D02*
X165818170Y-85339938D01*
X161594322Y-86836335D02*
X165574432Y-87325031D01*
%TO.C,D28*%
X161861794Y-73379180D02*
X162140140Y-75359717D01*
X161861794Y-73379180D02*
X165832769Y-72821096D01*
X162140140Y-75359717D02*
X166111115Y-74801632D01*
%TO.C,D2*%
X144435155Y-113519650D02*
X142555770Y-114203691D01*
X144435155Y-113519650D02*
X145806656Y-117287818D01*
X142555770Y-114203691D02*
X143927271Y-117971858D01*
%TO.C,D3*%
X142219362Y-114326130D02*
X140339977Y-115010171D01*
X142219362Y-114326130D02*
X143590863Y-118094298D01*
X140339977Y-115010171D02*
X141711478Y-118778338D01*
%TO.C,D14*%
X95324003Y-52816552D02*
X96810293Y-51478291D01*
X95324003Y-52816552D02*
X92640790Y-49836542D01*
X96810293Y-51478291D02*
X94127079Y-48498280D01*
%TO.C,D9*%
X89043766Y-98295389D02*
X88135785Y-96513376D01*
X89043766Y-98295389D02*
X85470830Y-100115891D01*
X88135785Y-96513376D02*
X84562849Y-98333878D01*
%TO.C,D17*%
X116929914Y-41538864D02*
X118878655Y-41088962D01*
X116929914Y-41538864D02*
X116027861Y-37631640D01*
X118878655Y-41088962D02*
X117976601Y-37181738D01*
%TO.C,D25*%
X150532121Y-51761665D02*
X151946335Y-53175879D01*
X150532121Y-51761665D02*
X153367619Y-48926167D01*
X151946335Y-53175879D02*
X154781833Y-50340381D01*
%TO.C,C6*%
X124995000Y-109762452D02*
X124995000Y-109239948D01*
X126465000Y-109762452D02*
X126465000Y-109239948D01*
%TO.C,C7*%
X134429548Y-108281800D02*
X134952052Y-108281800D01*
X134429548Y-109751800D02*
X134952052Y-109751800D01*
%TO.C,C4*%
X121235800Y-115278852D02*
X121235800Y-114756348D01*
X122705800Y-115278852D02*
X122705800Y-114756348D01*
D14*
%TO.C,D1*%
X132750624Y-118712688D02*
X133692508Y-121611509D01*
X133692508Y-121611509D02*
X138137365Y-120167287D01*
X136953913Y-117346957D02*
X132750624Y-118712688D01*
D13*
%TO.C,C2*%
X112700400Y-104670800D02*
X112700400Y-112735800D01*
X112700400Y-112735800D02*
X117220400Y-112735800D01*
X117220400Y-112735800D02*
X117220400Y-104670800D01*
D14*
%TO.C,D13*%
X90600322Y-57695971D02*
X93135301Y-54075647D01*
X90638525Y-52327386D02*
X87957859Y-56155775D01*
X93135301Y-54075647D02*
X90638525Y-52327386D01*
%TO.C,D7*%
X86878681Y-102644077D02*
X89691324Y-106376580D01*
X89312922Y-100809745D02*
X86878681Y-102644077D01*
X91972704Y-104339394D02*
X89312922Y-100809745D01*
D13*
%TO.C,R1*%
X117171800Y-115264664D02*
X117171800Y-114810536D01*
X118641800Y-115264664D02*
X118641800Y-114810536D01*
D14*
%TO.C,D10*%
X80670399Y-76760600D02*
X80670399Y-81434200D01*
X83718399Y-76760600D02*
X80670399Y-76760600D01*
X83718399Y-81180200D02*
X83718399Y-76760600D01*
D13*
%TO.C,C5*%
X124503548Y-115002600D02*
X125026052Y-115002600D01*
X124503548Y-116472600D02*
X125026052Y-116472600D01*
D15*
%TO.C,U1*%
X120827800Y-108549400D02*
X120827800Y-108778000D01*
X120827800Y-108549400D02*
X121081800Y-108549400D01*
X120853200Y-110200400D02*
X120853200Y-110429000D01*
X120853200Y-110429000D02*
X121081800Y-110429000D01*
X123164600Y-110429000D02*
X123393200Y-110429000D01*
X123393200Y-108549400D02*
X123190000Y-108549400D01*
X123393200Y-108549400D02*
X123393200Y-108752600D01*
X123393200Y-110200400D02*
X123393200Y-110429000D01*
X120675400Y-108752600D02*
X120573800Y-108828800D01*
X120573800Y-108676400D01*
X120675400Y-108752600D01*
G36*
X120675400Y-108752600D02*
G01*
X120573800Y-108828800D01*
X120573800Y-108676400D01*
X120675400Y-108752600D01*
G37*
D13*
%TO.C,D32*%
X108789200Y-107249200D02*
X108789200Y-112759200D01*
X112089200Y-107249200D02*
X108789200Y-107249200D01*
X112089200Y-107249200D02*
X112089200Y-112759200D01*
%TO.C,C8*%
X131065600Y-114343548D02*
X131065600Y-114866052D01*
X132535600Y-114343548D02*
X132535600Y-114866052D01*
%TO.C,D19*%
X131780000Y-104232400D02*
X126270000Y-104232400D01*
X131780000Y-107532400D02*
X126270000Y-107532400D01*
X131780000Y-107532400D02*
X131780000Y-104232400D01*
%TO.C,R5*%
X134443736Y-106249800D02*
X134897864Y-106249800D01*
X134443736Y-107719800D02*
X134897864Y-107719800D01*
D14*
%TO.C,D16*%
X109982237Y-42578881D02*
X114185526Y-41213150D01*
X113243642Y-38314329D02*
X108798785Y-39758551D01*
X114185526Y-41213150D02*
X113243642Y-38314329D01*
D13*
%TO.C,R2*%
X119153000Y-115264664D02*
X119153000Y-114810536D01*
X120623000Y-115264664D02*
X120623000Y-114810536D01*
D14*
%TO.C,D4*%
X107198242Y-119691708D02*
X111643100Y-121135928D01*
X108140126Y-116792887D02*
X107198242Y-119691708D01*
X112343415Y-118158619D02*
X108140126Y-116792887D01*
D13*
%TO.C,C3*%
X117883000Y-109532748D02*
X117883000Y-110055252D01*
X119353000Y-109532748D02*
X119353000Y-110055252D01*
%TO.C,R3*%
X124991864Y-112970600D02*
X124537736Y-112970600D01*
X124991864Y-114440600D02*
X124537736Y-114440600D01*
%TO.C,C9*%
X133224600Y-114866052D02*
X133224600Y-114343548D01*
X134694600Y-114866052D02*
X134694600Y-114343548D01*
%TO.C,J1*%
X119837200Y-119972400D02*
X127025400Y-119972400D01*
X127025400Y-124604200D01*
X119837200Y-124604200D01*
X119837200Y-119972400D01*
%TO.C,L1*%
X121338758Y-104464400D02*
X123009242Y-104464400D01*
X121338758Y-106284400D02*
X123009242Y-106284400D01*
D14*
%TO.C,D26*%
X163131500Y-78727300D02*
X163131500Y-83146900D01*
X163131500Y-83146900D02*
X166179500Y-83146900D01*
X166179500Y-83146900D02*
X166179500Y-78473300D01*
%TO.C,D23*%
X154850769Y-55622611D02*
X157510551Y-59152260D01*
X157510551Y-59152260D02*
X159944792Y-57317928D01*
X159944792Y-57317928D02*
X157132149Y-53585425D01*
D13*
%TO.C,C1*%
X117883000Y-106092852D02*
X117883000Y-105570348D01*
X119353000Y-106092852D02*
X119353000Y-105570348D01*
%TO.C,R4*%
X128347736Y-109516200D02*
X128801864Y-109516200D01*
X128347736Y-110986200D02*
X128801864Y-110986200D01*
D14*
%TO.C,D29*%
X153673992Y-105888126D02*
X156108233Y-107722458D01*
X156108233Y-107722458D02*
X158920876Y-103989955D01*
X156333774Y-102358477D02*
X153673992Y-105888126D01*
%TO.C,D20*%
X134526361Y-41790913D02*
X138729650Y-43156645D01*
X138729650Y-43156645D02*
X139671534Y-40257824D01*
X139671534Y-40257824D02*
X135226676Y-38813604D01*
%TD*%
M02*
