M48
; DRILL file {KiCad 9.0.6} date 2026-01-20T23:08:55+0800
; FORMAT={-:-/ absolute / metric / decimal}
; #@! TF.CreationDate,2026-01-20T23:08:55+08:00
; #@! TF.GenerationSoftware,Kicad,Pcbnew,9.0.6
; #@! TF.FileFunction,Plated,1,2,PTH
FMAT,2
METRIC
; #@! TA.AperFunction,Plated,PTH,ViaDrill
T1C0.300
; #@! TA.AperFunction,Plated,PTH,ViaDrill
T2C0.400
; #@! TA.AperFunction,Plated,PTH,ComponentDrill
T3C1.000
%
G90
G05
T1
X24.282Y-114.986
X24.282Y-115.595
X24.892Y-114.986
X24.892Y-115.595
X25.058Y-93.11
X25.058Y-93.81
X25.109Y-101.086
X25.109Y-101.786
X25.769Y-93.81
X25.769Y-93.11
X25.82Y-101.786
X25.82Y-101.086
X26.467Y-93.81
X26.467Y-93.167
X26.518Y-101.786
X26.518Y-101.143
X30.912Y-79.578
X30.912Y-80.188
X31.521Y-79.578
X31.521Y-80.188
X36.452Y-58.201
X36.554Y-136.591
X36.864Y-57.635
X36.932Y-137.111
X37.028Y-58.62
X37.118Y-136.181
X37.439Y-58.053
X37.53Y-136.747
X37.592Y-59.03
X37.694Y-135.763
X37.97Y-58.51
X38.105Y-136.329
X41.1Y-51.674
X41.151Y-143.117
X41.512Y-51.107
X41.529Y-143.637
X41.676Y-52.092
X41.716Y-142.707
X42.087Y-51.525
X42.127Y-143.273
X42.24Y-52.502
X42.291Y-142.289
X42.618Y-51.982
X42.702Y-142.855
X52.4Y-156.972
X52.4Y-157.582
X53.01Y-156.972
X53.01Y-157.582
X54.889Y-35.992
X54.889Y-36.601
X55.499Y-35.992
X55.499Y-36.601
X70.908Y-166.115
X71.116Y-165.434
X71.242Y-29.567
X71.374Y-164.784
X71.403Y-30.249
X71.577Y-166.319
X71.623Y-30.925
X71.785Y-165.639
X71.853Y-29.369
X71.989Y-164.972
X72.069Y-30.032
X72.288Y-30.709
X77.8Y-172.923
X77.8Y-173.533
X78.41Y-172.923
X78.41Y-173.533
X78.502Y-168.629
X78.71Y-167.949
X78.84Y-27.097
X78.943Y-167.299
X79.001Y-27.778
X79.172Y-168.834
X79.221Y-28.455
X79.38Y-168.154
X79.451Y-26.899
X79.584Y-167.487
X79.667Y-27.562
X79.887Y-28.238
X83.515Y-172.593
X84.277Y-172.593
X85.065Y-172.593
X91.237Y-28.804
X91.237Y-29.413
X91.846Y-28.804
X91.846Y-29.413
X93.751Y-162.636
X94.945Y-160.884
X96.52Y-161.342
X96.52Y-162.042
X96.52Y-162.741
X102.667Y-166.929
X102.692Y-166.319
X103.276Y-166.98
X103.302Y-166.37
X109.347Y-173.711
X109.347Y-174.32
X109.957Y-173.711
X109.957Y-174.32
X113.97Y-171.45
X115.062Y-171.45
X115.692Y-28.181
X115.729Y-166.465
X115.849Y-171.196
X115.89Y-167.146
X115.911Y-27.505
X116.11Y-167.822
X116.181Y-26.859
X116.34Y-166.266
X116.357Y-28.397
X116.556Y-166.93
X116.577Y-27.721
X116.775Y-167.606
X116.793Y-27.057
X123.257Y-30.791
X123.368Y-164.073
X123.477Y-30.114
X123.529Y-164.754
X123.747Y-29.469
X123.749Y-165.43
X123.923Y-31.007
X123.979Y-163.874
X124.143Y-30.331
X124.195Y-164.538
X124.358Y-29.667
X124.415Y-165.214
X142.037Y-153.797
X142.037Y-154.407
X142.646Y-153.797
X142.646Y-154.407
X144.297Y-38.862
X144.297Y-39.472
X144.907Y-38.862
X144.907Y-39.472
X152.89Y-52.048
X152.94Y-142.846
X153.286Y-52.555
X153.351Y-142.28
X153.44Y-51.619
X153.515Y-143.264
X153.871Y-52.17
X153.927Y-142.698
X154.0Y-51.181
X154.08Y-143.674
X154.431Y-51.733
X154.457Y-143.154
X157.666Y-58.355
X157.686Y-136.357
X158.062Y-58.861
X158.098Y-135.791
X158.216Y-57.925
X158.262Y-136.775
X158.647Y-58.477
X158.673Y-136.209
X158.776Y-57.487
X158.826Y-137.185
X159.204Y-136.665
X159.207Y-58.039
X164.033Y-112.268
X164.033Y-112.878
X164.643Y-112.268
X164.643Y-112.878
X166.446Y-127.127
X166.446Y-127.737
X167.056Y-127.127
X167.056Y-127.737
X169.113Y-93.026
X169.113Y-93.726
X169.152Y-101.009
X169.152Y-101.709
X169.824Y-93.726
X169.824Y-93.026
X169.863Y-101.709
X169.863Y-101.009
X169.926Y-74.854
X169.926Y-75.463
X170.522Y-93.726
X170.522Y-93.083
X170.536Y-74.854
X170.536Y-75.463
X170.561Y-101.709
X170.561Y-101.067
T2
X105.588Y-160.96
T3
G00X95.841Y-174.004
M15
G01X95.841Y-175.704
M16
G05
G00X99.841Y-174.004
M15
G01X99.841Y-175.704
M16
G05
M30
