%TF.GenerationSoftware,KiCad,Pcbnew,9.0.6*%
%TF.CreationDate,2026-01-21T21:36:57+08:00*%
%TF.ProjectId,Ledx10,4c656478-3130-42e6-9b69-6361645f7063,rev?*%
%TF.SameCoordinates,Original*%
%TF.FileFunction,Copper,L2,Bot*%
%TF.FilePolarity,Positive*%
%FSLAX46Y46*%
G04 Gerber Fmt 4.6, Leading zero omitted, Abs format (unit mm)*
G04 Created by KiCad (PCBNEW 9.0.6) date 2026-01-21 21:36:57*
%MOMM*%
%LPD*%
G01*
G04 APERTURE LIST*
G04 Aperture macros list*
%AMRoundRect*
0 Rectangle with rounded corners*
0 $1 Rounding radius*
0 $2 $3 $4 $5 $6 $7 $8 $9 X,Y pos of 4 corners*
0 Add a 4 corners polygon primitive as box body*
4,1,4,$2,$3,$4,$5,$6,$7,$8,$9,$2,$3,0*
0 Add four circle primitives for the rounded corners*
1,1,$1+$1,$2,$3*
1,1,$1+$1,$4,$5*
1,1,$1+$1,$6,$7*
1,1,$1+$1,$8,$9*
0 Add four rect primitives between the rounded corners*
20,1,$1+$1,$2,$3,$4,$5,0*
20,1,$1+$1,$4,$5,$6,$7,0*
20,1,$1+$1,$6,$7,$8,$9,0*
20,1,$1+$1,$8,$9,$2,$3,0*%
G04 Aperture macros list end*
%TA.AperFunction,ComponentPad*%
%ADD10RoundRect,0.500000X-0.750000X-1.500000X0.750000X-1.500000X0.750000X1.500000X-0.750000X1.500000X0*%
%TD*%
%TA.AperFunction,ViaPad*%
%ADD11C,0.600000*%
%TD*%
%TA.AperFunction,ViaPad*%
%ADD12C,0.800000*%
%TD*%
%TA.AperFunction,Conductor*%
%ADD13C,0.800000*%
%TD*%
G04 APERTURE END LIST*
D10*
%TO.P,J1,1,Pin_1*%
%TO.N,Net-(D32-A)*%
X95840800Y-174853600D03*
%TO.P,J1,2,Pin_2*%
%TO.N,GND*%
X99840800Y-174853600D03*
%TD*%
D11*
%TO.N,GND*%
X71622665Y-30924905D03*
X167411400Y-72186800D03*
X109347000Y-173710600D03*
X152890009Y-52048366D03*
X115728741Y-166464665D03*
X132943600Y-38455600D03*
X115911439Y-27504510D03*
X144297400Y-38862000D03*
X71241757Y-29567324D03*
X53009800Y-157581600D03*
X26517600Y-101142800D03*
X72068639Y-30032223D03*
X25819939Y-101785552D03*
X55499000Y-35991800D03*
X168021000Y-72186800D03*
X109347000Y-174320200D03*
X152939817Y-142846286D03*
X132943600Y-37846000D03*
X54889400Y-35991800D03*
X55499000Y-36601400D03*
X170522049Y-93083257D03*
X42087241Y-51525413D03*
X116340037Y-166266053D03*
X169824388Y-93726009D03*
X102743000Y-22352000D03*
X25057950Y-93109948D03*
X25349200Y-73837800D03*
X166446200Y-127127000D03*
X91236800Y-29413200D03*
X158261787Y-136775323D03*
X77800200Y-173532800D03*
X32715200Y-119380000D03*
X52933600Y-46964600D03*
X142646400Y-154406600D03*
X116555618Y-166929561D03*
X124142811Y-30330710D03*
X24892000Y-114985800D03*
X123367895Y-164072615D03*
X154431165Y-51732600D03*
X96520000Y-161341797D03*
X116357400Y-28397200D03*
X37592000Y-59029600D03*
X36452227Y-58201493D03*
X37693600Y-135763000D03*
X116109646Y-167822250D03*
X77800200Y-172923200D03*
X71115728Y-165434421D03*
X158826200Y-137185400D03*
X31521400Y-79578200D03*
X123923031Y-31007081D03*
X70907794Y-166114543D03*
X103301800Y-166370000D03*
X154457400Y-143154400D03*
X25958800Y-73837800D03*
X25108750Y-101085548D03*
X142036800Y-153797000D03*
X72288400Y-30708600D03*
X154079595Y-143674397D03*
X91236800Y-28803600D03*
X37439041Y-58053213D03*
X52400200Y-157581600D03*
X164693600Y-81229200D03*
X115691664Y-28180889D03*
X159207200Y-58039000D03*
X96520000Y-162041800D03*
X170560995Y-101709356D03*
X159204005Y-136665403D03*
X164033200Y-112268000D03*
X78710328Y-167949021D03*
X79451200Y-26898600D03*
X158776235Y-57487400D03*
X123477070Y-30114391D03*
X102692200Y-166319200D03*
X26466795Y-93809956D03*
X169113199Y-93026005D03*
X123747110Y-29468573D03*
X78409800Y-172923200D03*
X30911800Y-79578200D03*
X52400200Y-156972000D03*
X124358400Y-29667200D03*
X78502394Y-168629143D03*
X164642800Y-112877600D03*
X116181479Y-26858692D03*
X32715200Y-119989600D03*
X41511873Y-51107386D03*
X53009800Y-156972000D03*
X153439770Y-51618851D03*
X25819942Y-101085548D03*
X123529033Y-164753824D03*
X93751400Y-162636200D03*
X109956600Y-174320200D03*
X78839903Y-27097215D03*
X79666785Y-27562114D03*
X109956600Y-173710600D03*
X103276400Y-166979600D03*
X30911800Y-80187800D03*
X116775384Y-167605939D03*
X167411400Y-72796400D03*
X79379742Y-168153686D03*
X41151201Y-143116994D03*
X52324000Y-46355000D03*
X26517595Y-101785556D03*
X71853054Y-29368709D03*
X142646400Y-153797000D03*
X37529681Y-136747335D03*
X166446200Y-127736600D03*
X79583716Y-167486516D03*
X42127069Y-143273243D03*
X36553813Y-136591086D03*
X37969806Y-58509604D03*
X42240200Y-52501800D03*
X169863339Y-101709352D03*
X169863342Y-101009348D03*
X167055800Y-127736600D03*
X91846400Y-28803600D03*
X41715619Y-142706933D03*
X37118231Y-136181025D03*
X157686422Y-136357289D03*
X164693600Y-80619600D03*
X153515182Y-143264320D03*
X102133400Y-22352000D03*
X116577180Y-27720829D03*
X164642800Y-112268000D03*
X24282400Y-114985800D03*
X144297400Y-39471600D03*
X71577200Y-166319200D03*
X25108751Y-101785543D03*
X123748800Y-165430200D03*
X78943200Y-167298588D03*
D12*
X105587800Y-160959800D03*
D11*
X169824391Y-93026005D03*
X123979191Y-163874003D03*
X102666800Y-166928800D03*
X115889879Y-167145874D03*
X164033200Y-112877600D03*
X169113200Y-93726000D03*
X25958800Y-74447400D03*
X79220811Y-28454796D03*
X144907000Y-39471600D03*
X41100427Y-51673693D03*
X158646766Y-58476859D03*
X41529000Y-143637000D03*
X168021000Y-72796400D03*
X25769139Y-93809952D03*
X144907000Y-38862000D03*
X169152151Y-101709343D03*
X52324000Y-46964600D03*
X91846400Y-29413200D03*
X132334000Y-38455600D03*
X24282400Y-115595400D03*
X24892000Y-115595400D03*
X37027586Y-58619526D03*
X26466800Y-93167200D03*
X25057951Y-93809943D03*
X71402896Y-30248529D03*
X52933600Y-46355000D03*
X158215805Y-57925251D03*
X102743000Y-22961600D03*
X41675786Y-52091726D03*
X38105051Y-136329304D03*
X170522044Y-93726013D03*
X33324800Y-119989600D03*
X116792769Y-27057319D03*
X170561000Y-101066600D03*
X158673241Y-136209012D03*
X25349200Y-74447400D03*
X42702439Y-142855212D03*
X124194772Y-164537511D03*
X25769142Y-93109948D03*
X153351275Y-142279977D03*
X36931612Y-137111092D03*
X31521400Y-80187800D03*
X33324800Y-119380000D03*
X79171800Y-168833800D03*
X157666044Y-58354766D03*
X142036800Y-154406600D03*
X164084000Y-80619600D03*
X79001042Y-27778420D03*
X71374454Y-164783988D03*
X153870731Y-52170459D03*
X78409800Y-173532800D03*
X169152150Y-101009348D03*
X158097880Y-135790980D03*
X94945200Y-160883600D03*
X36863673Y-57635186D03*
X154000200Y-51181000D03*
X153285725Y-52554866D03*
X71989116Y-164971916D03*
X124414538Y-165213889D03*
X167055800Y-127127000D03*
X164084000Y-81229200D03*
X71785142Y-165639086D03*
X102133400Y-22961600D03*
X79886546Y-28238491D03*
X132334000Y-37846000D03*
X123257295Y-30790770D03*
X42290988Y-142288908D03*
X42618006Y-51981804D03*
X158061760Y-58861266D03*
X54889400Y-36601400D03*
X96520000Y-162740963D03*
X153926636Y-142698009D03*
%TO.N,Net-(D1-K)*%
X113969800Y-171450000D03*
X115062000Y-171450000D03*
X83515200Y-172593000D03*
X85064600Y-172593000D03*
X84277200Y-172593000D03*
X115849400Y-171196000D03*
%TD*%
D13*
%TO.N,Net-(D1-K)*%
X115595400Y-171450000D02*
X115849400Y-171196000D01*
X85064600Y-172593000D02*
X92176600Y-172593000D01*
X115062000Y-171450000D02*
X115595400Y-171450000D01*
X103022404Y-171450004D02*
X113969796Y-171450004D01*
X100761800Y-169189400D02*
X103022404Y-171450004D01*
X115062000Y-171450000D02*
X113969800Y-171450000D01*
X84277200Y-172593000D02*
X83515200Y-172593000D01*
X113969796Y-171450004D02*
X113969800Y-171450000D01*
X95580200Y-169189400D02*
X100761800Y-169189400D01*
X92176600Y-172593000D02*
X95580200Y-169189400D01*
X85064600Y-172593000D02*
X84277200Y-172593000D01*
%TD*%
%TA.AperFunction,Conductor*%
%TO.N,GND*%
G36*
X98535662Y-17387462D02*
G01*
X98536851Y-17387468D01*
X98743146Y-17388621D01*
X98744889Y-17388645D01*
X100257915Y-17421660D01*
X100258247Y-17421668D01*
X100503809Y-17428533D01*
X100505615Y-17428598D01*
X101986962Y-17493275D01*
X101987021Y-17493278D01*
X102262799Y-17507164D01*
X102264395Y-17507256D01*
X103719506Y-17602629D01*
X104019119Y-17624441D01*
X104020794Y-17624576D01*
X105453107Y-17749886D01*
X105453542Y-17749926D01*
X105771985Y-17780279D01*
X105773515Y-17780436D01*
X107187005Y-17935239D01*
X107187427Y-17935287D01*
X107520369Y-17974551D01*
X107521732Y-17974722D01*
X108919126Y-18158692D01*
X108919758Y-18158778D01*
X109263231Y-18207094D01*
X109264802Y-18207325D01*
X110648308Y-18420268D01*
X110649198Y-18420409D01*
X111000071Y-18477793D01*
X111001333Y-18478007D01*
X112373385Y-18719937D01*
X112374180Y-18720081D01*
X112729628Y-18786405D01*
X112730880Y-18786647D01*
X114092943Y-19057578D01*
X114094024Y-19057799D01*
X114451069Y-19132718D01*
X114452041Y-19132927D01*
X115806256Y-19433150D01*
X115807417Y-19433414D01*
X116163459Y-19516475D01*
X116164293Y-19516675D01*
X117512117Y-19846485D01*
X117513266Y-19846773D01*
X117865524Y-19937302D01*
X117866373Y-19937524D01*
X119209538Y-20297424D01*
X119210783Y-20297766D01*
X119556507Y-20394906D01*
X119557523Y-20395196D01*
X120897443Y-20785747D01*
X120898711Y-20786125D01*
X121235522Y-20888938D01*
X121236435Y-20889222D01*
X122575065Y-21311291D01*
X122576429Y-21311731D01*
X122901330Y-21418907D01*
X122902026Y-21419140D01*
X124241398Y-21873795D01*
X124242695Y-21874246D01*
X124552578Y-21984208D01*
X124553298Y-21984466D01*
X125895453Y-22472970D01*
X125896972Y-22473536D01*
X126188439Y-22584361D01*
X126188932Y-22584551D01*
X127536536Y-23108605D01*
X127538035Y-23109201D01*
X127807385Y-23218571D01*
X127807545Y-23218636D01*
X129163742Y-23780391D01*
X129165219Y-23781016D01*
X129407143Y-23885610D01*
X129407875Y-23885929D01*
X129974020Y-24135038D01*
X130776107Y-24487965D01*
X130777753Y-24488705D01*
X130987296Y-24584915D01*
X132285954Y-25190489D01*
X132372876Y-25231022D01*
X132374629Y-25231856D01*
X132544435Y-25314468D01*
X132544529Y-25314514D01*
X133953267Y-26009226D01*
X133955014Y-26010106D01*
X134076033Y-26072366D01*
X134076383Y-26072547D01*
X135516565Y-26822259D01*
X135518266Y-26823164D01*
X135577755Y-26855471D01*
X135578183Y-26855704D01*
X137058377Y-27667766D01*
X137060695Y-27669072D01*
X138569849Y-28540382D01*
X138572116Y-28541724D01*
X138662356Y-28596483D01*
X140061890Y-29445741D01*
X140064187Y-29447169D01*
X141533887Y-30383471D01*
X141536153Y-30384950D01*
X141978177Y-30680300D01*
X142985087Y-31353096D01*
X142987239Y-31354569D01*
X144414740Y-32354116D01*
X144416895Y-32355660D01*
X145822220Y-33386087D01*
X145824332Y-33387672D01*
X147167766Y-34418524D01*
X147206846Y-34448511D01*
X147208924Y-34450141D01*
X148568016Y-35540927D01*
X148570081Y-35542623D01*
X149904963Y-36662723D01*
X149907016Y-36664484D01*
X150321310Y-37027810D01*
X151217201Y-37813485D01*
X151219163Y-37815245D01*
X152445605Y-38939071D01*
X152503920Y-38992507D01*
X152505890Y-38994352D01*
X153595296Y-40037231D01*
X153764706Y-40199406D01*
X153766639Y-40201298D01*
X154998796Y-41433455D01*
X155000688Y-41435388D01*
X156205738Y-42694199D01*
X156207586Y-42696173D01*
X157350635Y-43943593D01*
X157381209Y-43976958D01*
X157381529Y-43977308D01*
X157385901Y-43982116D01*
X157387369Y-43983760D01*
X157884718Y-44550878D01*
X158488841Y-45239748D01*
X158489202Y-45240161D01*
X158547546Y-45307286D01*
X158548946Y-45308926D01*
X159581993Y-46540063D01*
X159582388Y-46540536D01*
X159679551Y-46657506D01*
X159680873Y-46659124D01*
X159960954Y-47008097D01*
X160655846Y-47873915D01*
X160656032Y-47874148D01*
X160724520Y-47960453D01*
X160781321Y-48032030D01*
X160782565Y-48033624D01*
X161706668Y-49237941D01*
X161707123Y-49238538D01*
X161852320Y-49430154D01*
X161853488Y-49431721D01*
X162732276Y-50630235D01*
X162732758Y-50630896D01*
X162892113Y-50851264D01*
X162893134Y-50852699D01*
X163363656Y-51524674D01*
X163730991Y-52049283D01*
X163731496Y-52050010D01*
X163899989Y-52294339D01*
X163901011Y-52295844D01*
X164701119Y-53493290D01*
X164701646Y-53494085D01*
X164875655Y-53758892D01*
X164876607Y-53760363D01*
X165641593Y-54961150D01*
X165642137Y-54962013D01*
X165818584Y-55244076D01*
X165819468Y-55245510D01*
X166551346Y-56451609D01*
X166551906Y-56452542D01*
X166728277Y-56749026D01*
X166729095Y-56750421D01*
X167429520Y-57963592D01*
X167430093Y-57964595D01*
X167604358Y-58273032D01*
X167605112Y-58274386D01*
X167682489Y-58415425D01*
X168238451Y-59428810D01*
X168275440Y-59496231D01*
X168276023Y-59497307D01*
X168446362Y-59815189D01*
X168447054Y-59816499D01*
X169088402Y-61048514D01*
X169088992Y-61049662D01*
X169253844Y-61374550D01*
X169254477Y-61375815D01*
X169867839Y-62619589D01*
X169868433Y-62620810D01*
X169980333Y-62854126D01*
X170026438Y-62950255D01*
X170026990Y-62951423D01*
X170150480Y-63216247D01*
X170613154Y-64208456D01*
X170613749Y-64209751D01*
X170763769Y-64541365D01*
X170764291Y-64542534D01*
X171323935Y-65814422D01*
X171324527Y-65815792D01*
X171465455Y-66146825D01*
X171465925Y-66147943D01*
X171999591Y-67436326D01*
X172000179Y-67437771D01*
X172131211Y-67765718D01*
X172131631Y-67766784D01*
X172639774Y-69073471D01*
X172640354Y-69074991D01*
X172760661Y-69396798D01*
X172761034Y-69397810D01*
X173244089Y-70724993D01*
X173244658Y-70726589D01*
X173353540Y-71038960D01*
X173353868Y-71039915D01*
X173812139Y-72389937D01*
X173812694Y-72391610D01*
X173909487Y-72690645D01*
X173909774Y-72691543D01*
X174343663Y-74067663D01*
X174344200Y-74069412D01*
X174428300Y-74350536D01*
X174428548Y-74351376D01*
X174838256Y-75757019D01*
X174838773Y-75758844D01*
X174909708Y-76016835D01*
X174909920Y-76017615D01*
X175295696Y-77457348D01*
X175296189Y-77459249D01*
X175353518Y-77687610D01*
X175353696Y-77688330D01*
X175715691Y-79167687D01*
X175716158Y-79169664D01*
X175759383Y-79359744D01*
X175759531Y-79360401D01*
X176098036Y-80887296D01*
X176098473Y-80889349D01*
X176127277Y-81030542D01*
X176127396Y-81031137D01*
X176442478Y-82615161D01*
X176442883Y-82617291D01*
X176456880Y-82694709D01*
X176456974Y-82695238D01*
X176748630Y-84349296D01*
X176749071Y-84351965D01*
X177014163Y-86074292D01*
X177014545Y-86076970D01*
X177241993Y-87804614D01*
X177242317Y-87807299D01*
X177432029Y-89539543D01*
X177432294Y-89542236D01*
X177584166Y-91278142D01*
X177584373Y-91280839D01*
X177698346Y-93019738D01*
X177698493Y-93022439D01*
X177774504Y-94763362D01*
X177774592Y-94766066D01*
X177812605Y-96508183D01*
X177812635Y-96510888D01*
X177812635Y-98253511D01*
X177812605Y-98256216D01*
X177774592Y-99998333D01*
X177774504Y-100001037D01*
X177698493Y-101741960D01*
X177698346Y-101744661D01*
X177584373Y-103483560D01*
X177584166Y-103486257D01*
X177432294Y-105222163D01*
X177432029Y-105224856D01*
X177242317Y-106957100D01*
X177241993Y-106959785D01*
X177014545Y-108687429D01*
X177014163Y-108690107D01*
X176749071Y-110412434D01*
X176748630Y-110415103D01*
X176456974Y-112069160D01*
X176456880Y-112069689D01*
X176442883Y-112147107D01*
X176442478Y-112149237D01*
X176127396Y-113733261D01*
X176127277Y-113733856D01*
X176098473Y-113875049D01*
X176098036Y-113877102D01*
X175759531Y-115403997D01*
X175759383Y-115404654D01*
X175716158Y-115594734D01*
X175715691Y-115596711D01*
X175353696Y-117076068D01*
X175353518Y-117076788D01*
X175296189Y-117305149D01*
X175295696Y-117307050D01*
X174909920Y-118746783D01*
X174909708Y-118747563D01*
X174838773Y-119005554D01*
X174838256Y-119007379D01*
X174428548Y-120413022D01*
X174428300Y-120413862D01*
X174344200Y-120694986D01*
X174343663Y-120696735D01*
X173909774Y-122072855D01*
X173909487Y-122073753D01*
X173812694Y-122372788D01*
X173812139Y-122374461D01*
X173353868Y-123724483D01*
X173353540Y-123725438D01*
X173244658Y-124037809D01*
X173244089Y-124039405D01*
X172761034Y-125366588D01*
X172760661Y-125367600D01*
X172640354Y-125689407D01*
X172639774Y-125690927D01*
X172131631Y-126997614D01*
X172131211Y-126998680D01*
X172000179Y-127326627D01*
X171999591Y-127328072D01*
X171465925Y-128616455D01*
X171465455Y-128617573D01*
X171324527Y-128948606D01*
X171323935Y-128949976D01*
X170764291Y-130221864D01*
X170763769Y-130223033D01*
X170613749Y-130554647D01*
X170613154Y-130555942D01*
X170027014Y-131812925D01*
X170026438Y-131814143D01*
X169868433Y-132143588D01*
X169867839Y-132144809D01*
X169254477Y-133388583D01*
X169253844Y-133389848D01*
X169088992Y-133714736D01*
X169088402Y-133715884D01*
X168447054Y-134947899D01*
X168446362Y-134949209D01*
X168276023Y-135267091D01*
X168275440Y-135268167D01*
X167605112Y-136490012D01*
X167604358Y-136491366D01*
X167430093Y-136799803D01*
X167429520Y-136800806D01*
X166729095Y-138013977D01*
X166728277Y-138015372D01*
X166551906Y-138311856D01*
X166551346Y-138312789D01*
X165819468Y-139518888D01*
X165818584Y-139520322D01*
X165642137Y-139802385D01*
X165641593Y-139803248D01*
X164876607Y-141004035D01*
X164875655Y-141005506D01*
X164701646Y-141270313D01*
X164701119Y-141271108D01*
X163901011Y-142468554D01*
X163899989Y-142470059D01*
X163731496Y-142714388D01*
X163730991Y-142715115D01*
X162893171Y-143911647D01*
X162892077Y-143913185D01*
X162732758Y-144133502D01*
X162732276Y-144134163D01*
X161853488Y-145332677D01*
X161852320Y-145334244D01*
X161707123Y-145525860D01*
X161706668Y-145526457D01*
X160782565Y-146730774D01*
X160781321Y-146732368D01*
X160656186Y-146890056D01*
X160655760Y-146890591D01*
X159680873Y-148105274D01*
X159679551Y-148106892D01*
X159582388Y-148223862D01*
X159581993Y-148224335D01*
X158548946Y-149455472D01*
X158547546Y-149457112D01*
X158489202Y-149524237D01*
X158488841Y-149524650D01*
X157387387Y-150780618D01*
X157385908Y-150782274D01*
X157381574Y-150787041D01*
X157381247Y-150787399D01*
X156207587Y-152068225D01*
X156205738Y-152070200D01*
X155000688Y-153329011D01*
X154998796Y-153330944D01*
X153766639Y-154563101D01*
X153764706Y-154564993D01*
X152505895Y-155770043D01*
X152503920Y-155771892D01*
X151219189Y-156949131D01*
X151217175Y-156950937D01*
X149907016Y-158099915D01*
X149904963Y-158101676D01*
X148570081Y-159221776D01*
X148567990Y-159223493D01*
X147208975Y-160314218D01*
X147206846Y-160315888D01*
X145824358Y-161376708D01*
X145822194Y-161378331D01*
X144416917Y-162408723D01*
X144414718Y-162410299D01*
X142987279Y-163409803D01*
X142985047Y-163411330D01*
X141536153Y-164379449D01*
X141533887Y-164380928D01*
X140064187Y-165317230D01*
X140061890Y-165318658D01*
X138572146Y-166222657D01*
X138569818Y-166224035D01*
X137060715Y-167095316D01*
X137058358Y-167096643D01*
X135578219Y-167908674D01*
X135577755Y-167908927D01*
X135518375Y-167941176D01*
X135516453Y-167942198D01*
X134076500Y-168691790D01*
X134075970Y-168692065D01*
X133955080Y-168754259D01*
X133953197Y-168755207D01*
X132544682Y-169449809D01*
X132544085Y-169450102D01*
X132374718Y-169532499D01*
X132372876Y-169533376D01*
X130987660Y-170179314D01*
X130986995Y-170179622D01*
X130777857Y-170275646D01*
X130776058Y-170276455D01*
X129407875Y-170878469D01*
X129407143Y-170878788D01*
X129165376Y-170983315D01*
X129163620Y-170984058D01*
X127807856Y-171545634D01*
X127807054Y-171545963D01*
X127538138Y-171655156D01*
X127536429Y-171655835D01*
X126189147Y-172179764D01*
X126188276Y-172180099D01*
X125897042Y-172290836D01*
X125895381Y-172291454D01*
X124553399Y-172779895D01*
X124552457Y-172780233D01*
X124242854Y-172890097D01*
X124241244Y-172890656D01*
X122902182Y-173345206D01*
X122901169Y-173345545D01*
X122576549Y-173452628D01*
X122574991Y-173453131D01*
X121236504Y-173875154D01*
X121235420Y-173875491D01*
X120898817Y-173978241D01*
X120897313Y-173978689D01*
X119557591Y-174369182D01*
X119556434Y-174369513D01*
X119210886Y-174466603D01*
X119209438Y-174467001D01*
X117866540Y-174826830D01*
X117865310Y-174827152D01*
X117513383Y-174917595D01*
X117511992Y-174917944D01*
X116164468Y-175247681D01*
X116163166Y-175247993D01*
X115807588Y-175330945D01*
X115806256Y-175331248D01*
X114452229Y-175631430D01*
X114450854Y-175631726D01*
X114094117Y-175706580D01*
X114092844Y-175706840D01*
X112730983Y-175977731D01*
X112729537Y-175978010D01*
X112374369Y-176044282D01*
X112373156Y-176044502D01*
X111001463Y-176286368D01*
X110999945Y-176286626D01*
X110649326Y-176343968D01*
X110648175Y-176344151D01*
X109264811Y-176557071D01*
X109263221Y-176557305D01*
X108919950Y-176605593D01*
X108918862Y-176605741D01*
X107521896Y-176789655D01*
X107520234Y-176789863D01*
X107187699Y-176829080D01*
X107186675Y-176829196D01*
X105773615Y-176983951D01*
X105771882Y-176984129D01*
X105453736Y-177014454D01*
X105452777Y-177014541D01*
X104020856Y-177139817D01*
X104019053Y-177139962D01*
X103719885Y-177161742D01*
X103718991Y-177161804D01*
X102264529Y-177257134D01*
X102262655Y-177257242D01*
X101987399Y-177271102D01*
X101986572Y-177271141D01*
X100505686Y-177335797D01*
X100503742Y-177335867D01*
X100258371Y-177342727D01*
X100257611Y-177342745D01*
X98745031Y-177375750D01*
X98743020Y-177375778D01*
X98536787Y-177376931D01*
X98535662Y-177376938D01*
X98534970Y-177376940D01*
X96983589Y-177376940D01*
X96981509Y-177376923D01*
X96821568Y-177374240D01*
X96820943Y-177374227D01*
X95222164Y-177339341D01*
X95220018Y-177339276D01*
X95121224Y-177335408D01*
X95120666Y-177335385D01*
X93461687Y-177262953D01*
X93459481Y-177262837D01*
X93439913Y-177261633D01*
X93439418Y-177261602D01*
X91716534Y-177148678D01*
X91713837Y-177148471D01*
X89977931Y-176996599D01*
X89975238Y-176996334D01*
X88242994Y-176806622D01*
X88240309Y-176806298D01*
X86512665Y-176578850D01*
X86509987Y-176578468D01*
X84787660Y-176313376D01*
X84784991Y-176312935D01*
X83068894Y-176010341D01*
X83066235Y-176009842D01*
X81617960Y-175721762D01*
X81357175Y-175669889D01*
X81354535Y-175669335D01*
X79653190Y-175292155D01*
X79650556Y-175291540D01*
X77957985Y-174877371D01*
X77955364Y-174876700D01*
X76272112Y-174425673D01*
X76269507Y-174424944D01*
X74596580Y-173937331D01*
X74593991Y-173936546D01*
X72932031Y-173412532D01*
X72929460Y-173411690D01*
X72591554Y-173296986D01*
X94390300Y-173296986D01*
X94390300Y-176410213D01*
X94396713Y-176480792D01*
X94447322Y-176643206D01*
X94535330Y-176788788D01*
X94655611Y-176909069D01*
X94655613Y-176909070D01*
X94655615Y-176909072D01*
X94801194Y-176997078D01*
X94963604Y-177047686D01*
X95034184Y-177054100D01*
X95034187Y-177054100D01*
X96647413Y-177054100D01*
X96647416Y-177054100D01*
X96717996Y-177047686D01*
X96880406Y-176997078D01*
X97025985Y-176909072D01*
X97146272Y-176788785D01*
X97234278Y-176643206D01*
X97284886Y-176480796D01*
X97291300Y-176410216D01*
X97291300Y-173296984D01*
X97284886Y-173226404D01*
X97234278Y-173063994D01*
X97146272Y-172918415D01*
X97146270Y-172918413D01*
X97146269Y-172918411D01*
X97025988Y-172798130D01*
X96880406Y-172710122D01*
X96717996Y-172659514D01*
X96717994Y-172659513D01*
X96717992Y-172659513D01*
X96668578Y-172655023D01*
X96647416Y-172653100D01*
X95034184Y-172653100D01*
X95014945Y-172654848D01*
X94963607Y-172659513D01*
X94801193Y-172710122D01*
X94655611Y-172798130D01*
X94535330Y-172918411D01*
X94447322Y-173063993D01*
X94396713Y-173226407D01*
X94390300Y-173296986D01*
X72591554Y-173296986D01*
X71279382Y-172851563D01*
X71276831Y-172850666D01*
X70649504Y-172622338D01*
X70351691Y-172513943D01*
X82914700Y-172513943D01*
X82914700Y-172672057D01*
X82924900Y-172710122D01*
X82955623Y-172824783D01*
X82955626Y-172824790D01*
X83034675Y-172961709D01*
X83034678Y-172961713D01*
X83034680Y-172961716D01*
X83146484Y-173073520D01*
X83146486Y-173073521D01*
X83146490Y-173073524D01*
X83225182Y-173118956D01*
X83283416Y-173152577D01*
X83436143Y-173193500D01*
X84198143Y-173193500D01*
X84985543Y-173193500D01*
X92089931Y-173193500D01*
X92089947Y-173193501D01*
X92097543Y-173193501D01*
X92255654Y-173193501D01*
X92255657Y-173193501D01*
X92408385Y-173152577D01*
X92458504Y-173123639D01*
X92545316Y-173073520D01*
X92657120Y-172961716D01*
X92657120Y-172961714D01*
X92667328Y-172951507D01*
X92667329Y-172951504D01*
X95792616Y-169826219D01*
X95853939Y-169792734D01*
X95880297Y-169789900D01*
X100461703Y-169789900D01*
X100528742Y-169809585D01*
X100549384Y-169826219D01*
X102537543Y-171814378D01*
X102537553Y-171814389D01*
X102541883Y-171818719D01*
X102541884Y-171818720D01*
X102653688Y-171930524D01*
X102740492Y-171980639D01*
X102740499Y-171980643D01*
X102740501Y-171980645D01*
X102778555Y-172002615D01*
X102790619Y-172009581D01*
X102943347Y-172050505D01*
X102943350Y-172050505D01*
X103109057Y-172050505D01*
X103109073Y-172050504D01*
X113890735Y-172050504D01*
X113890739Y-172050505D01*
X114048853Y-172050505D01*
X114048871Y-172050500D01*
X114056877Y-172050500D01*
X114982943Y-172050500D01*
X115508731Y-172050500D01*
X115508747Y-172050501D01*
X115516343Y-172050501D01*
X115674454Y-172050501D01*
X115674457Y-172050501D01*
X115827185Y-172009577D01*
X115877304Y-171980639D01*
X115964116Y-171930520D01*
X116075920Y-171818716D01*
X116075921Y-171818713D01*
X116329919Y-171564716D01*
X116408977Y-171427785D01*
X116449900Y-171275058D01*
X116449900Y-171116943D01*
X116408977Y-170964216D01*
X116405997Y-170959055D01*
X116329921Y-170827287D01*
X116329916Y-170827281D01*
X116218118Y-170715483D01*
X116218112Y-170715478D01*
X116081186Y-170636424D01*
X116081185Y-170636423D01*
X116081184Y-170636423D01*
X115928457Y-170595500D01*
X115770342Y-170595500D01*
X115617614Y-170636423D01*
X115480684Y-170715481D01*
X115480681Y-170715483D01*
X115382984Y-170813181D01*
X115321661Y-170846666D01*
X115295303Y-170849500D01*
X115141057Y-170849500D01*
X114048862Y-170849500D01*
X114048858Y-170849499D01*
X113890743Y-170849499D01*
X113890724Y-170849503D01*
X113882719Y-170849504D01*
X113882718Y-170849503D01*
X113882716Y-170849504D01*
X103322501Y-170849504D01*
X103255462Y-170829819D01*
X103234820Y-170813185D01*
X101249390Y-168827755D01*
X101249388Y-168827752D01*
X101130517Y-168708881D01*
X101130516Y-168708880D01*
X101043704Y-168658760D01*
X101043704Y-168658759D01*
X101043700Y-168658758D01*
X100993585Y-168629823D01*
X100840857Y-168588899D01*
X100682743Y-168588899D01*
X100675147Y-168588899D01*
X100675131Y-168588900D01*
X95659257Y-168588900D01*
X95501142Y-168588900D01*
X95348415Y-168629823D01*
X95348414Y-168629823D01*
X95348412Y-168629824D01*
X95348409Y-168629825D01*
X95298296Y-168658759D01*
X95298295Y-168658760D01*
X95254889Y-168683820D01*
X95211485Y-168708879D01*
X95211482Y-168708881D01*
X95099678Y-168820686D01*
X91964184Y-171956181D01*
X91902861Y-171989666D01*
X91876503Y-171992500D01*
X83436143Y-171992500D01*
X83283416Y-172033423D01*
X83283409Y-172033426D01*
X83146490Y-172112475D01*
X83146482Y-172112481D01*
X83034681Y-172224282D01*
X83034675Y-172224290D01*
X82955626Y-172361209D01*
X82955623Y-172361216D01*
X82914700Y-172513943D01*
X70351691Y-172513943D01*
X69639337Y-172254668D01*
X69636805Y-172253715D01*
X68012715Y-171622141D01*
X68010204Y-171621133D01*
X66442459Y-170971752D01*
X66441980Y-170971552D01*
X66389865Y-170949709D01*
X66387856Y-170948847D01*
X64893741Y-170291420D01*
X64893204Y-170291182D01*
X64777237Y-170239498D01*
X64775310Y-170238619D01*
X63345795Y-169572026D01*
X63345203Y-169571748D01*
X63180975Y-169494109D01*
X63179128Y-169493217D01*
X61803598Y-168814881D01*
X61802951Y-168814560D01*
X61601775Y-168713890D01*
X61600009Y-168712988D01*
X60270467Y-168020871D01*
X60269769Y-168020505D01*
X60040573Y-167899334D01*
X60038945Y-167898457D01*
X58749093Y-167190820D01*
X58748344Y-167190405D01*
X58498084Y-167050849D01*
X58496476Y-167049937D01*
X57242057Y-166325698D01*
X57241258Y-166325233D01*
X56974960Y-166168828D01*
X56973431Y-166167915D01*
X56745965Y-166029885D01*
X56611913Y-165948540D01*
X114824924Y-165948540D01*
X114824924Y-165948541D01*
X114824924Y-165957239D01*
X114831075Y-165963390D01*
X114839773Y-165963390D01*
X114845924Y-165957239D01*
X114845924Y-165948541D01*
X114839773Y-165942390D01*
X114831075Y-165942390D01*
X114831074Y-165942390D01*
X114824924Y-165948540D01*
X56611913Y-165948540D01*
X55750632Y-165425902D01*
X55749787Y-165425384D01*
X55472115Y-165253836D01*
X55470709Y-165252955D01*
X54276612Y-164492231D01*
X54275721Y-164491658D01*
X54017503Y-164324038D01*
X54017503Y-164324037D01*
X53990260Y-164306353D01*
X53988884Y-164305447D01*
X53897961Y-164244694D01*
X77824924Y-164244694D01*
X77824924Y-164244695D01*
X77824924Y-164253393D01*
X77831075Y-164259544D01*
X77839773Y-164259544D01*
X77845924Y-164253393D01*
X77845924Y-164244695D01*
X77839773Y-164238544D01*
X77831075Y-164238544D01*
X77831074Y-164238544D01*
X77824924Y-164244694D01*
X53897961Y-164244694D01*
X52820917Y-163525037D01*
X52820086Y-163524477D01*
X52530231Y-163326969D01*
X52528934Y-163326074D01*
X51385038Y-162525109D01*
X51384064Y-162524420D01*
X51092562Y-162316098D01*
X51091338Y-162315211D01*
X49969869Y-161492916D01*
X49968855Y-161492165D01*
X49866251Y-161415316D01*
X49814705Y-161376708D01*
X49678313Y-161274552D01*
X49677163Y-161273680D01*
X48576371Y-160429013D01*
X48575321Y-160428198D01*
X48288031Y-160202822D01*
X48287032Y-160202030D01*
X48179092Y-160115399D01*
X114807395Y-160115399D01*
X114807395Y-160115400D01*
X114807395Y-160124098D01*
X114813546Y-160130249D01*
X114822244Y-160130249D01*
X114828395Y-160124098D01*
X114828395Y-160115400D01*
X114822244Y-160109249D01*
X114813546Y-160109249D01*
X114813545Y-160109249D01*
X114807395Y-160115399D01*
X48179092Y-160115399D01*
X47205528Y-159334032D01*
X47204543Y-159333233D01*
X47072065Y-159224434D01*
X77807395Y-159224434D01*
X77807395Y-159224435D01*
X77807395Y-159233133D01*
X77813546Y-159239284D01*
X77822244Y-159239284D01*
X77828395Y-159233133D01*
X77828395Y-159224435D01*
X77822244Y-159218284D01*
X77813546Y-159218284D01*
X77813545Y-159218284D01*
X77807395Y-159224434D01*
X47072065Y-159224434D01*
X47010268Y-159173682D01*
X46922470Y-159101576D01*
X46921462Y-159100740D01*
X46921224Y-159100540D01*
X45857961Y-158208356D01*
X45856963Y-158207507D01*
X45582489Y-157971620D01*
X45581686Y-157970923D01*
X44534892Y-157052910D01*
X44533781Y-157051923D01*
X44268761Y-156813655D01*
X44268003Y-156812966D01*
X43486415Y-156096773D01*
X43236883Y-155868119D01*
X43235711Y-155867032D01*
X43225375Y-155857313D01*
X42982164Y-155628614D01*
X42981377Y-155627868D01*
X42145030Y-154827240D01*
X41964514Y-154654434D01*
X41963345Y-154653299D01*
X41831983Y-154524122D01*
X41723358Y-154417303D01*
X41722620Y-154416571D01*
X40718752Y-153412703D01*
X40717535Y-153411469D01*
X40493276Y-153180853D01*
X40492601Y-153180154D01*
X39500135Y-152143410D01*
X39498900Y-152142100D01*
X39292605Y-151920242D01*
X39291991Y-151919577D01*
X39284686Y-151911605D01*
X38309390Y-150847255D01*
X38308181Y-150845916D01*
X38122467Y-150637012D01*
X38121913Y-150636385D01*
X37496638Y-149923396D01*
X37147129Y-149524857D01*
X37145879Y-149523410D01*
X37097905Y-149466953D01*
X36983869Y-149332751D01*
X36983373Y-149332163D01*
X36685901Y-148977650D01*
X36013923Y-148176819D01*
X36012765Y-148175416D01*
X35878090Y-148009549D01*
X35877654Y-148009009D01*
X34910489Y-146803945D01*
X34909208Y-146802321D01*
X34869904Y-146751641D01*
X34806363Y-146669704D01*
X33978801Y-145591204D01*
X33837286Y-145406777D01*
X33836000Y-145405071D01*
X33771297Y-145317670D01*
X33770960Y-145317212D01*
X32794929Y-143986074D01*
X32793643Y-143984288D01*
X32774728Y-143957505D01*
X31790264Y-142551544D01*
X31788791Y-142549392D01*
X31022719Y-141402884D01*
X30820645Y-141100458D01*
X30819166Y-141098192D01*
X29882864Y-139628492D01*
X29881436Y-139626195D01*
X29119099Y-138369903D01*
X28977419Y-138136421D01*
X28976059Y-138134123D01*
X28907498Y-138015372D01*
X28104767Y-136625000D01*
X28103451Y-136622663D01*
X28030676Y-136490012D01*
X27265258Y-135094838D01*
X27264024Y-135092529D01*
X26547387Y-133715884D01*
X26459379Y-133546822D01*
X26458156Y-133544409D01*
X25687433Y-131981537D01*
X25686263Y-131979098D01*
X25405874Y-131377802D01*
X24949808Y-130399765D01*
X24948725Y-130397377D01*
X24246873Y-128802296D01*
X24245811Y-128799808D01*
X23636198Y-127328072D01*
X23578952Y-127189867D01*
X23577953Y-127187379D01*
X23575229Y-127180374D01*
X22946367Y-125563258D01*
X22945426Y-125560757D01*
X22874754Y-125366588D01*
X22349428Y-123923263D01*
X22348531Y-123920712D01*
X22143721Y-123317361D01*
X21788387Y-122270582D01*
X21787578Y-122268114D01*
X21263530Y-120606045D01*
X21262781Y-120603574D01*
X20785262Y-118965281D01*
X20785194Y-118965045D01*
X20772817Y-118921921D01*
X20772230Y-118919807D01*
X20726077Y-118747563D01*
X20347398Y-117334311D01*
X20347288Y-117333897D01*
X20317209Y-117219512D01*
X20316772Y-117217786D01*
X19940048Y-115678242D01*
X19899350Y-115508092D01*
X19898957Y-115506391D01*
X19565604Y-114002733D01*
X19519329Y-113788169D01*
X19518966Y-113786418D01*
X19225515Y-112311139D01*
X19177341Y-112060726D01*
X19177000Y-112058874D01*
X18920884Y-110606368D01*
X18920820Y-110605993D01*
X18873525Y-110326623D01*
X18873232Y-110324812D01*
X18706256Y-109239956D01*
X18652452Y-108890383D01*
X18652316Y-108889479D01*
X18651343Y-108882835D01*
X18607958Y-108586432D01*
X18607758Y-108584992D01*
X18420750Y-107164521D01*
X18420627Y-107163555D01*
X18395108Y-106957100D01*
X18380848Y-106841734D01*
X18380669Y-106840198D01*
X18226291Y-105430591D01*
X18226248Y-105430178D01*
X18192194Y-105092878D01*
X18192044Y-105091280D01*
X18186237Y-105024904D01*
X18069483Y-103690394D01*
X18069432Y-103689778D01*
X18042096Y-103341196D01*
X18041983Y-103339635D01*
X17950577Y-101945058D01*
X17950510Y-101943930D01*
X17930541Y-101587090D01*
X17930482Y-101585902D01*
X17869777Y-100195530D01*
X17869733Y-100194366D01*
X17857574Y-99831971D01*
X17857544Y-99830881D01*
X17827260Y-98443007D01*
X17827244Y-98442035D01*
X17823163Y-98076970D01*
X17823155Y-98075584D01*
X17823155Y-96750082D01*
X32815497Y-96750082D01*
X32818630Y-97940423D01*
X32818630Y-97941086D01*
X32818438Y-98011767D01*
X32818842Y-98030077D01*
X32818872Y-98032484D01*
X32819725Y-98356510D01*
X32852691Y-99561759D01*
X32852703Y-99562220D01*
X32854087Y-99624816D01*
X32854875Y-99641605D01*
X32854909Y-99642837D01*
X32863648Y-99962343D01*
X32927201Y-101182047D01*
X32927232Y-101182680D01*
X32929759Y-101236475D01*
X32930684Y-101249362D01*
X32930834Y-101251786D01*
X32947236Y-101566563D01*
X33042165Y-102800673D01*
X33042165Y-102800674D01*
X33042197Y-102801090D01*
X33045410Y-102845800D01*
X33046501Y-102857073D01*
X33046600Y-102858348D01*
X33046602Y-102858364D01*
X33070442Y-103168274D01*
X33197558Y-104416561D01*
X33197618Y-104417163D01*
X33200970Y-104451756D01*
X33201870Y-104459148D01*
X33202141Y-104461571D01*
X33233185Y-104766415D01*
X33393290Y-106028375D01*
X33393338Y-106028756D01*
X33396335Y-106053322D01*
X33397206Y-106059238D01*
X33397361Y-106060458D01*
X33397361Y-106060460D01*
X33435371Y-106360054D01*
X33629356Y-107635738D01*
X33629441Y-107636306D01*
X33631399Y-107649597D01*
X33631728Y-107651503D01*
X33632124Y-107653939D01*
X33676876Y-107948227D01*
X33905549Y-109236894D01*
X33905550Y-109236899D01*
X33905611Y-109237244D01*
X33905997Y-109239478D01*
X33906091Y-109239956D01*
X33906315Y-109241215D01*
X33906317Y-109241222D01*
X33957553Y-109529953D01*
X34277223Y-111104238D01*
X34456408Y-111886962D01*
X34635698Y-112670144D01*
X34920416Y-113786313D01*
X35032766Y-114226753D01*
X35468151Y-115772976D01*
X35941647Y-117308092D01*
X36452906Y-118830965D01*
X37001641Y-120340741D01*
X37587530Y-121836534D01*
X38000721Y-122819199D01*
X38210188Y-123317361D01*
X38539534Y-124049446D01*
X38869256Y-124782369D01*
X39564316Y-126230630D01*
X39682252Y-126461558D01*
X40294953Y-127661276D01*
X40913690Y-128802296D01*
X41060725Y-129073445D01*
X41861152Y-130466247D01*
X42415405Y-131377784D01*
X42695746Y-131838839D01*
X43564007Y-133190397D01*
X44014320Y-133854676D01*
X44465407Y-134520097D01*
X45399370Y-135827090D01*
X46365374Y-137110646D01*
X47362759Y-138369887D01*
X48390984Y-139604135D01*
X48390992Y-139604144D01*
X49449397Y-140812601D01*
X50537340Y-141994535D01*
X50537355Y-141994550D01*
X51654170Y-143149239D01*
X52799136Y-144275938D01*
X52799147Y-144275948D01*
X52799165Y-144275966D01*
X53971666Y-145374069D01*
X55170942Y-146442864D01*
X55762211Y-146944145D01*
X56396283Y-147481715D01*
X57646867Y-148489928D01*
X58922010Y-149466953D01*
X58922028Y-149466966D01*
X60220930Y-150412187D01*
X60545587Y-150636385D01*
X61542793Y-151325025D01*
X62142918Y-151717912D01*
X62886806Y-152204917D01*
X64252152Y-153051332D01*
X65637997Y-153863750D01*
X66636792Y-154416571D01*
X67043511Y-154641685D01*
X68467764Y-155384624D01*
X69066561Y-155678388D01*
X69909997Y-156092170D01*
X69910005Y-156092174D01*
X69910022Y-156092182D01*
X70885418Y-156541148D01*
X71369253Y-156763853D01*
X72356083Y-157188854D01*
X72844667Y-157399274D01*
X74335305Y-157998034D01*
X74335320Y-157998039D01*
X74335321Y-157998040D01*
X74974043Y-158236438D01*
X75051026Y-158265171D01*
X75051025Y-158265171D01*
X75059799Y-158268445D01*
X75087356Y-158278731D01*
X75087356Y-158278732D01*
X75087824Y-158278906D01*
X75088293Y-158279081D01*
X75088293Y-158279080D01*
X75136830Y-158297192D01*
X75137241Y-158297294D01*
X75274733Y-158348599D01*
X75274737Y-158348600D01*
X75274742Y-158348602D01*
X75658456Y-158457904D01*
X76049658Y-158536292D01*
X76123306Y-158545023D01*
X76132156Y-158546675D01*
X76161967Y-158549607D01*
X76445861Y-158583266D01*
X76445867Y-158583266D01*
X76445875Y-158583267D01*
X76507605Y-158585629D01*
X76541139Y-158586913D01*
X76562111Y-158588978D01*
X76609525Y-158589532D01*
X76611196Y-158589596D01*
X76844536Y-158598530D01*
X76844540Y-158598529D01*
X76844546Y-158598530D01*
X76962085Y-158593651D01*
X76994113Y-158594026D01*
X77045193Y-158590201D01*
X77202980Y-158583652D01*
X77243162Y-158581985D01*
X77243165Y-158581984D01*
X77243181Y-158581984D01*
X77383711Y-158564864D01*
X77424939Y-158561779D01*
X77472538Y-158554042D01*
X77639231Y-158533736D01*
X77803767Y-158500215D01*
X77851376Y-158492480D01*
X77891461Y-158482350D01*
X78030178Y-158454091D01*
X78220572Y-158399194D01*
X78270243Y-158386644D01*
X78300485Y-158376152D01*
X78413539Y-158343556D01*
X78633614Y-158260601D01*
X78678416Y-158245062D01*
X78697667Y-158236457D01*
X78786876Y-158202832D01*
X79045523Y-158080999D01*
X79072850Y-158068788D01*
X79080703Y-158064428D01*
X79133242Y-158039680D01*
X79147802Y-158032823D01*
X79147806Y-158032820D01*
X79147816Y-158032816D01*
X79494065Y-157834587D01*
X79700148Y-157693688D01*
X79823410Y-157609414D01*
X79823416Y-157609408D01*
X79823422Y-157609405D01*
X79978458Y-157484200D01*
X79978459Y-157484199D01*
X79978461Y-157484200D01*
X79978622Y-157484070D01*
X79978626Y-157484067D01*
X79978629Y-157484066D01*
X79978632Y-157484061D01*
X79979011Y-157483756D01*
X79979010Y-157483755D01*
X79979583Y-157483292D01*
X80021884Y-157449148D01*
X80021979Y-157449045D01*
X82441698Y-155494484D01*
X82445326Y-155491665D01*
X82718505Y-155287540D01*
X82723246Y-155284170D01*
X82729937Y-155279645D01*
X82788195Y-155240254D01*
X82791039Y-155238389D01*
X83049371Y-155074181D01*
X83055343Y-155070618D01*
X83100798Y-155045216D01*
X83102613Y-155044224D01*
X83141866Y-155023250D01*
X83824924Y-155023250D01*
X83824924Y-155023251D01*
X83824924Y-155031949D01*
X83831075Y-155038100D01*
X83839773Y-155038100D01*
X83845924Y-155031949D01*
X83845924Y-155023251D01*
X83839773Y-155017100D01*
X83831075Y-155017100D01*
X83831074Y-155017100D01*
X83824924Y-155023250D01*
X83141866Y-155023250D01*
X83392973Y-154889078D01*
X83401341Y-154885006D01*
X83738089Y-154736545D01*
X83746768Y-154733104D01*
X84093740Y-154610470D01*
X84102635Y-154607699D01*
X84457873Y-154511583D01*
X84466978Y-154509484D01*
X84790346Y-154447714D01*
X84792382Y-154447346D01*
X84843664Y-154438550D01*
X84850548Y-154437568D01*
X85154800Y-154402962D01*
X85158005Y-154402644D01*
X85236254Y-154395981D01*
X85241954Y-154395631D01*
X85578604Y-154382913D01*
X85581937Y-154382788D01*
X85586617Y-154382700D01*
X107540578Y-154382700D01*
X107545389Y-154382792D01*
X107893758Y-154396322D01*
X107899436Y-154396676D01*
X107979825Y-154403558D01*
X107983448Y-154403925D01*
X108291977Y-154440017D01*
X108298579Y-154440971D01*
X108362825Y-154452052D01*
X108365530Y-154452551D01*
X108687014Y-154515743D01*
X108694493Y-154517456D01*
X108720045Y-154524149D01*
X108721760Y-154524613D01*
X109066062Y-154620541D01*
X109075204Y-154623475D01*
X109430764Y-154753007D01*
X109439646Y-154756638D01*
X109752278Y-154898882D01*
X109805145Y-154944562D01*
X109824924Y-155011574D01*
X109824924Y-155023251D01*
X109824924Y-155031949D01*
X109831075Y-155038100D01*
X109839773Y-155038100D01*
X109857490Y-155030760D01*
X109858070Y-155030444D01*
X109879536Y-155014537D01*
X109888265Y-155013955D01*
X109895944Y-155009762D01*
X109922595Y-155011666D01*
X109949251Y-155009890D01*
X109961243Y-155014429D01*
X109965636Y-155014743D01*
X109982249Y-155022378D01*
X110123941Y-155100639D01*
X110132161Y-155105605D01*
X110430690Y-155302161D01*
X110432147Y-155303136D01*
X110446559Y-155312950D01*
X110453978Y-155318002D01*
X110460201Y-155322528D01*
X110718991Y-155523335D01*
X110721252Y-155525132D01*
X110771728Y-155566217D01*
X110776836Y-155570611D01*
X111006629Y-155779397D01*
X111009438Y-155782031D01*
X111067369Y-155838047D01*
X111071425Y-155842154D01*
X111310829Y-156096258D01*
X111314027Y-156099788D01*
X112520364Y-157484070D01*
X112669714Y-157655450D01*
X112669750Y-157655528D01*
X112825762Y-157834587D01*
X112840375Y-157851358D01*
X113140486Y-158142596D01*
X113463864Y-158407763D01*
X113521964Y-158447788D01*
X113521963Y-158447788D01*
X113525587Y-158450284D01*
X113529901Y-158453730D01*
X113546801Y-158464898D01*
X113808250Y-158645008D01*
X113887525Y-158690360D01*
X113887525Y-158690361D01*
X113890983Y-158692339D01*
X113905445Y-158701896D01*
X113943577Y-158722428D01*
X113944989Y-158723236D01*
X114171246Y-158852677D01*
X114273683Y-158900410D01*
X114276938Y-158901927D01*
X114301776Y-158915301D01*
X114348429Y-158935240D01*
X114550300Y-159029310D01*
X114680969Y-159077377D01*
X114715685Y-159092216D01*
X114763551Y-159107754D01*
X114942782Y-159173685D01*
X115100605Y-159217178D01*
X115143822Y-159231209D01*
X115188120Y-159241295D01*
X115345947Y-159284790D01*
X115533654Y-159319981D01*
X115582719Y-159331155D01*
X115620137Y-159336195D01*
X115623246Y-159336778D01*
X115623266Y-159336781D01*
X115756981Y-159361850D01*
X115756986Y-159361850D01*
X115756989Y-159361851D01*
X115781846Y-159364388D01*
X115978532Y-159384469D01*
X116028823Y-159391244D01*
X116056986Y-159392479D01*
X116173013Y-159404326D01*
X116435261Y-159409089D01*
X116478523Y-159410990D01*
X116495836Y-159410189D01*
X116591138Y-159411921D01*
X116908004Y-159391163D01*
X116928177Y-159390233D01*
X116933640Y-159389483D01*
X117008438Y-159384584D01*
X117421999Y-159322504D01*
X117422008Y-159322501D01*
X117422014Y-159322501D01*
X117542399Y-159293985D01*
X117828934Y-159226115D01*
X118027185Y-159161238D01*
X118027186Y-159161239D01*
X118027661Y-159161083D01*
X118028137Y-159160928D01*
X118028136Y-159160927D01*
X118093653Y-159139593D01*
X118094008Y-159139379D01*
X118791065Y-158911360D01*
X120305059Y-158374321D01*
X121805320Y-157800036D01*
X123290933Y-157188853D01*
X124760989Y-156541148D01*
X126214592Y-155857315D01*
X127650853Y-155137772D01*
X129068895Y-154382958D01*
X130467853Y-153593335D01*
X131846872Y-152769384D01*
X133205110Y-151911609D01*
X134541738Y-151020534D01*
X135855938Y-150096702D01*
X137146909Y-149140678D01*
X138413863Y-148153047D01*
X139656025Y-147134409D01*
X140872637Y-146085389D01*
X142062956Y-145006627D01*
X143226255Y-143898781D01*
X144361824Y-142762528D01*
X145468969Y-141598561D01*
X146547015Y-140407592D01*
X147595302Y-139190348D01*
X148613190Y-137947573D01*
X149600059Y-136680025D01*
X150555304Y-135388478D01*
X151478344Y-134073721D01*
X152368614Y-132736557D01*
X153225571Y-131377802D01*
X154048690Y-129998287D01*
X154837471Y-128598854D01*
X155591430Y-127180357D01*
X156310108Y-125743663D01*
X156993065Y-124289648D01*
X157639885Y-122819202D01*
X158250172Y-121333222D01*
X158823554Y-119832615D01*
X159359680Y-118318298D01*
X159858224Y-116791195D01*
X160318881Y-115252240D01*
X160741369Y-113702371D01*
X161125430Y-112142536D01*
X161188761Y-111854876D01*
X161188868Y-111854438D01*
X161189279Y-111852523D01*
X161470830Y-110573687D01*
X161527643Y-110281414D01*
X161528104Y-110279170D01*
X161528541Y-110277143D01*
X161531146Y-110263397D01*
X161777359Y-108996783D01*
X161827856Y-108697727D01*
X161828961Y-108691904D01*
X161832953Y-108667545D01*
X162044828Y-107412785D01*
X162088385Y-107109331D01*
X162088725Y-107107124D01*
X162089943Y-107099696D01*
X162094762Y-107064909D01*
X162273074Y-105822662D01*
X162309761Y-105512809D01*
X162311328Y-105501501D01*
X162316386Y-105456856D01*
X162461959Y-104227384D01*
X162491285Y-103913435D01*
X162491518Y-103911184D01*
X162492978Y-103898305D01*
X162497735Y-103844385D01*
X162611366Y-102627926D01*
X162633303Y-102307830D01*
X162634781Y-102291093D01*
X162638733Y-102228603D01*
X162721205Y-101025265D01*
X162735369Y-100701451D01*
X162735497Y-100699089D01*
X162736649Y-100680882D01*
X162736650Y-100680857D01*
X162739361Y-100610200D01*
X162791408Y-99420379D01*
X162797672Y-99090750D01*
X162798523Y-99068589D01*
X162799584Y-98990155D01*
X162821932Y-97814248D01*
X162820030Y-97481217D01*
X162820038Y-97479109D01*
X162820361Y-97455282D01*
X162819393Y-97369603D01*
X162812760Y-96207853D01*
X162802461Y-95869439D01*
X162802151Y-95841930D01*
X162798808Y-95749417D01*
X162763896Y-94602176D01*
X162745053Y-94260776D01*
X162744949Y-94258467D01*
X162743905Y-94229545D01*
X162743904Y-94229526D01*
X162737871Y-94130637D01*
X162675370Y-92998196D01*
X162647649Y-92651769D01*
X162645655Y-92619066D01*
X162636657Y-92514408D01*
X162547236Y-91396893D01*
X162510607Y-91047862D01*
X162510415Y-91045845D01*
X162507466Y-91011539D01*
X162495238Y-90901405D01*
X162495224Y-90901275D01*
X162379573Y-89799246D01*
X162333620Y-89445761D01*
X162329422Y-89407938D01*
X162313731Y-89292765D01*
X162172484Y-88206229D01*
X162117281Y-87850576D01*
X162116975Y-87848473D01*
X162111632Y-87809250D01*
X162092340Y-87689870D01*
X162092219Y-87689108D01*
X161948794Y-86765073D01*
X161926093Y-86618816D01*
X161926092Y-86618811D01*
X161926089Y-86618791D01*
X161879810Y-86362579D01*
X161861129Y-86259157D01*
X161854230Y-86216459D01*
X161831045Y-86092601D01*
X161640553Y-85037976D01*
X161566029Y-84676675D01*
X161565594Y-84674457D01*
X161557378Y-84630563D01*
X161557375Y-84630548D01*
X161530175Y-84502849D01*
X161316037Y-83464675D01*
X161231333Y-83099836D01*
X161221250Y-83052493D01*
X161189931Y-82921506D01*
X160952743Y-81899873D01*
X160858149Y-81533751D01*
X160857701Y-81531947D01*
X160846062Y-81483267D01*
X160810575Y-81349604D01*
X160810369Y-81348818D01*
X160550894Y-80344526D01*
X160445786Y-79975600D01*
X160432043Y-79923836D01*
X160392051Y-79786993D01*
X160391976Y-79786730D01*
X160391976Y-79786726D01*
X160110737Y-78799588D01*
X160033351Y-78551413D01*
X159995473Y-78429937D01*
X159994889Y-78428005D01*
X159979446Y-78375161D01*
X159935047Y-78236150D01*
X159632534Y-77265988D01*
X159506385Y-76894031D01*
X159488552Y-76838197D01*
X159439625Y-76697186D01*
X159116583Y-75744679D01*
X158980048Y-75372592D01*
X158979383Y-75370727D01*
X158959662Y-75313890D01*
X158906197Y-75171330D01*
X158563199Y-74236583D01*
X158415421Y-73862694D01*
X158393102Y-73803179D01*
X158335044Y-73659334D01*
X158334864Y-73658878D01*
X158026700Y-72879200D01*
X157972718Y-72742621D01*
X157814329Y-72369157D01*
X157813577Y-72367337D01*
X157789222Y-72306995D01*
X157726677Y-72162475D01*
X157726431Y-72161902D01*
X157345501Y-71263707D01*
X157175611Y-70889153D01*
X157148393Y-70826260D01*
X157081117Y-70680825D01*
X156681931Y-69800743D01*
X156501281Y-69427284D01*
X156500399Y-69425419D01*
X156471020Y-69361906D01*
X156399243Y-69216333D01*
X156398833Y-69215492D01*
X156392487Y-69202372D01*
X155982414Y-68354623D01*
X155789960Y-67980628D01*
X155757492Y-67914777D01*
X155680987Y-67768862D01*
X155680853Y-67768601D01*
X155680806Y-67768510D01*
X155580975Y-67574509D01*
X155247377Y-66926229D01*
X155044002Y-66553922D01*
X155043062Y-66552168D01*
X155008276Y-66485821D01*
X154927380Y-66340424D01*
X154927006Y-66339745D01*
X154821622Y-66146825D01*
X154536789Y-65625396D01*
X154477271Y-65516440D01*
X154262443Y-65145272D01*
X154261901Y-65144336D01*
X154223826Y-65075902D01*
X154138198Y-64930609D01*
X154137960Y-64930198D01*
X154075205Y-64821774D01*
X153672558Y-64126101D01*
X153446095Y-63756224D01*
X153445062Y-63754503D01*
X153404624Y-63685888D01*
X153314872Y-63541892D01*
X153314351Y-63541050D01*
X152833738Y-62756075D01*
X152595684Y-62388011D01*
X152594646Y-62386377D01*
X152551173Y-62316630D01*
X152456794Y-62173265D01*
X152456613Y-62172987D01*
X152143591Y-61689011D01*
X151961327Y-61407204D01*
X151881495Y-61290218D01*
X151711489Y-61041088D01*
X151710519Y-61039640D01*
X151664002Y-60968979D01*
X151565462Y-60827090D01*
X151564929Y-60826316D01*
X151508968Y-60744310D01*
X151055839Y-60080285D01*
X150794249Y-59716587D01*
X150793230Y-59715144D01*
X150743656Y-59643762D01*
X150640824Y-59503269D01*
X150640414Y-59502703D01*
X150117845Y-58776155D01*
X149844574Y-58415369D01*
X149843401Y-58413793D01*
X149790710Y-58341804D01*
X149683750Y-58203033D01*
X149683116Y-58202203D01*
X149147922Y-57495612D01*
X148862800Y-57137901D01*
X148861610Y-57136384D01*
X148805728Y-57063882D01*
X148694672Y-56926964D01*
X148694146Y-56926310D01*
X148482425Y-56660687D01*
X148202753Y-56309813D01*
X148146634Y-56239406D01*
X147849708Y-55885209D01*
X147848432Y-55883661D01*
X147789345Y-55810815D01*
X147674457Y-55676147D01*
X147673765Y-55675329D01*
X147114611Y-55008324D01*
X146805835Y-54657955D01*
X146804529Y-54656449D01*
X146742165Y-54583348D01*
X146623360Y-54450892D01*
X146622640Y-54450082D01*
X146052510Y-53803152D01*
X146011517Y-53758892D01*
X145923273Y-53663614D01*
X145731833Y-53456914D01*
X145730500Y-53455451D01*
X145664863Y-53382273D01*
X145664847Y-53382256D01*
X145542373Y-53252347D01*
X145541689Y-53251615D01*
X144960916Y-52624551D01*
X144628445Y-52282917D01*
X144627085Y-52281498D01*
X144558027Y-52208248D01*
X144432019Y-52081068D01*
X144431240Y-52080275D01*
X144060769Y-51699594D01*
X143840559Y-51473314D01*
X143496218Y-51136546D01*
X143494897Y-51135234D01*
X143422457Y-51062120D01*
X143292896Y-50937689D01*
X143292118Y-50936935D01*
X143131627Y-50779974D01*
X142692089Y-50350102D01*
X142692083Y-50350096D01*
X142335976Y-50018636D01*
X142334568Y-50017304D01*
X142258764Y-49944502D01*
X142125889Y-49823083D01*
X142125105Y-49822361D01*
X141516214Y-49255613D01*
X141148336Y-48929786D01*
X141146925Y-48928517D01*
X141067696Y-48856118D01*
X141022765Y-48817062D01*
X140931609Y-48737825D01*
X140930743Y-48737065D01*
X140313646Y-48190507D01*
X139938158Y-47874148D01*
X139934086Y-47870717D01*
X139932653Y-47869491D01*
X139849970Y-47797619D01*
X139710809Y-47682592D01*
X139709914Y-47681845D01*
X139085147Y-47155460D01*
X138693893Y-46842016D01*
X138692498Y-46840881D01*
X138606365Y-46769686D01*
X138464360Y-46658123D01*
X138463435Y-46657389D01*
X137831447Y-46151085D01*
X137831441Y-46151080D01*
X137831428Y-46151070D01*
X137428560Y-45844353D01*
X137427073Y-45843202D01*
X137337634Y-45772936D01*
X137192873Y-45664909D01*
X137191920Y-45664191D01*
X136553278Y-45177971D01*
X136138943Y-44878402D01*
X136137435Y-44877294D01*
X136123058Y-44866565D01*
X136044531Y-44807965D01*
X135947500Y-44739239D01*
X135897155Y-44703579D01*
X135896174Y-44702877D01*
X135662675Y-44534055D01*
X135251474Y-44236752D01*
X135092056Y-44127386D01*
X134825698Y-43944655D01*
X134824175Y-43943593D01*
X134727898Y-43875401D01*
X134578146Y-43774818D01*
X134577137Y-43774133D01*
X133926805Y-43327985D01*
X133489750Y-43043774D01*
X133488212Y-43042758D01*
X133388499Y-42975785D01*
X133236413Y-42879025D01*
X133235375Y-42878357D01*
X132952180Y-42694199D01*
X132580093Y-42452235D01*
X132580090Y-42452233D01*
X132131891Y-42176288D01*
X132130340Y-42175317D01*
X132027204Y-42109701D01*
X131872889Y-42016820D01*
X131871824Y-42016172D01*
X131212143Y-41610024D01*
X130752869Y-41342681D01*
X130751306Y-41341756D01*
X130674167Y-41295328D01*
X130644832Y-41277672D01*
X130644818Y-41277664D01*
X130488594Y-41188839D01*
X130487502Y-41188211D01*
X129823820Y-40801884D01*
X129823810Y-40801878D01*
X129659868Y-40711796D01*
X129353544Y-40543478D01*
X129351970Y-40542598D01*
X129242255Y-40480218D01*
X129084238Y-40395494D01*
X129083119Y-40394886D01*
X128415908Y-40028272D01*
X128112986Y-39871442D01*
X127934872Y-39779228D01*
X127933377Y-39778441D01*
X127820272Y-39717798D01*
X127820259Y-39717791D01*
X127660630Y-39637238D01*
X127659484Y-39636652D01*
X126989359Y-39289712D01*
X126497696Y-39050381D01*
X126496105Y-39049593D01*
X126438318Y-39020433D01*
X126379827Y-38990917D01*
X126323565Y-38964256D01*
X126218730Y-38914579D01*
X126217557Y-38914015D01*
X125544964Y-38586612D01*
X125042770Y-38357327D01*
X125041172Y-38356584D01*
X124921781Y-38300010D01*
X124759462Y-38227971D01*
X124758262Y-38227431D01*
X124083684Y-37919440D01*
X123598567Y-37712281D01*
X123571211Y-37700599D01*
X123569615Y-37699903D01*
X123447068Y-37645515D01*
X123283517Y-37577736D01*
X123282293Y-37577221D01*
X122606291Y-37288549D01*
X122083757Y-37080523D01*
X122082150Y-37079870D01*
X121956526Y-37027810D01*
X121956514Y-37027805D01*
X121879246Y-36998008D01*
X121792043Y-36964381D01*
X121790793Y-36963891D01*
X121113794Y-36694371D01*
X120581337Y-36497493D01*
X120579727Y-36496885D01*
X120451104Y-36447285D01*
X120285919Y-36388253D01*
X120284645Y-36387790D01*
X119607077Y-36137256D01*
X119064917Y-35951887D01*
X119063305Y-35951324D01*
X119011155Y-35932687D01*
X118931764Y-35904315D01*
X118931749Y-35904310D01*
X118765922Y-35849649D01*
X118764624Y-35849213D01*
X118087066Y-35617549D01*
X117535377Y-35444023D01*
X117533764Y-35443503D01*
X117399411Y-35399217D01*
X117233150Y-35348953D01*
X117231829Y-35348546D01*
X116554641Y-35135546D01*
X115993719Y-34974236D01*
X115992106Y-34973760D01*
X115854986Y-34932305D01*
X115688396Y-34886422D01*
X115687052Y-34886044D01*
X115010819Y-34691572D01*
X114770407Y-34628823D01*
X114440742Y-34542777D01*
X114439334Y-34542399D01*
X114395826Y-34530415D01*
X114299480Y-34503879D01*
X114132676Y-34462361D01*
X114131310Y-34462013D01*
X113648743Y-34336059D01*
X113456451Y-34285869D01*
X113382631Y-34268538D01*
X112877713Y-34149994D01*
X112876106Y-34149605D01*
X112733765Y-34114177D01*
X112567183Y-34077081D01*
X112565795Y-34076764D01*
X112121932Y-33972556D01*
X111892552Y-33918703D01*
X111892545Y-33918701D01*
X111892530Y-33918698D01*
X111305355Y-33796068D01*
X111303752Y-33795722D01*
X111158915Y-33763468D01*
X110992395Y-33730700D01*
X110990987Y-33730414D01*
X110320046Y-33590291D01*
X109724748Y-33481242D01*
X109723150Y-33480939D01*
X109575775Y-33451939D01*
X109409652Y-33423513D01*
X109408224Y-33423260D01*
X108739935Y-33300840D01*
X108136636Y-33205670D01*
X108135045Y-33205409D01*
X107985452Y-33179812D01*
X107819873Y-33155692D01*
X107818426Y-33155472D01*
X107153134Y-33050521D01*
X106542146Y-32969556D01*
X106540562Y-32969336D01*
X106388864Y-32947238D01*
X106223924Y-32927378D01*
X106222458Y-32927192D01*
X105560631Y-32839489D01*
X104942360Y-32773058D01*
X104940784Y-32772879D01*
X104786969Y-32754359D01*
X104622827Y-32738717D01*
X104621343Y-32738566D01*
X103963420Y-32667874D01*
X103338048Y-32616274D01*
X103336482Y-32616135D01*
X103180795Y-32601299D01*
X103017660Y-32589830D01*
X103016161Y-32589715D01*
X102362417Y-32535775D01*
X101730437Y-32499326D01*
X101728882Y-32499227D01*
X101571282Y-32488148D01*
X101409277Y-32480793D01*
X101407761Y-32480715D01*
X100758685Y-32443281D01*
X100120243Y-32422269D01*
X100118700Y-32422208D01*
X99959539Y-32414983D01*
X99798727Y-32411679D01*
X99797197Y-32411638D01*
X99153120Y-32390442D01*
X98508704Y-32385166D01*
X98507173Y-32385144D01*
X98349348Y-32381902D01*
X98346397Y-32381842D01*
X98346396Y-32381842D01*
X98187016Y-32382523D01*
X98185472Y-32382520D01*
X97581408Y-32377576D01*
X97546751Y-32377293D01*
X97546748Y-32377293D01*
X97546742Y-32377293D01*
X96896633Y-32388038D01*
X96895116Y-32388054D01*
X96742627Y-32388707D01*
X96732957Y-32388749D01*
X96696450Y-32389811D01*
X96575106Y-32393343D01*
X96573548Y-32393378D01*
X95940569Y-32403841D01*
X95285056Y-32430890D01*
X95283672Y-32430938D01*
X95178416Y-32434002D01*
X95120171Y-32435698D01*
X94964014Y-32444126D01*
X94962445Y-32444201D01*
X94496399Y-32463433D01*
X94335494Y-32470073D01*
X94335473Y-32470074D01*
X94335458Y-32470075D01*
X93675278Y-32513679D01*
X93673790Y-32513769D01*
X93509069Y-32522660D01*
X93354562Y-32534851D01*
X93352982Y-32534965D01*
X92732592Y-32575942D01*
X92732580Y-32575943D01*
X92732566Y-32575944D01*
X92581095Y-32589715D01*
X92067735Y-32636386D01*
X92066263Y-32636511D01*
X91900623Y-32649582D01*
X91748063Y-32665439D01*
X91746471Y-32665594D01*
X91132748Y-32721391D01*
X90463752Y-32798923D01*
X90462298Y-32799082D01*
X90295808Y-32816388D01*
X90145366Y-32835810D01*
X90143765Y-32836007D01*
X89536975Y-32906330D01*
X88864240Y-33001195D01*
X88862804Y-33001389D01*
X88695659Y-33022969D01*
X88695636Y-33022972D01*
X88651848Y-33029733D01*
X88547204Y-33045892D01*
X88545596Y-33046129D01*
X87946328Y-33130635D01*
X87270161Y-33243089D01*
X87268742Y-33243316D01*
X87101092Y-33269205D01*
X86954985Y-33295495D01*
X86953370Y-33295775D01*
X86517186Y-33368318D01*
X86361665Y-33394184D01*
X86265556Y-33412619D01*
X85682540Y-33524451D01*
X85681142Y-33524711D01*
X85513128Y-33554945D01*
X85369429Y-33584500D01*
X85367809Y-33584822D01*
X84783982Y-33696812D01*
X84102370Y-33845109D01*
X84100991Y-33845401D01*
X83932759Y-33880004D01*
X83791471Y-33912740D01*
X83789845Y-33913105D01*
X83214322Y-34038319D01*
X82530645Y-34204860D01*
X82529287Y-34205183D01*
X82360923Y-34244193D01*
X82222210Y-34279982D01*
X82220580Y-34280391D01*
X81800372Y-34382752D01*
X81653526Y-34418524D01*
X81653515Y-34418527D01*
X80968251Y-34603505D01*
X80966915Y-34603858D01*
X80798637Y-34647275D01*
X80662556Y-34686012D01*
X80660923Y-34686465D01*
X80102616Y-34837173D01*
X79416135Y-35040807D01*
X79414821Y-35041189D01*
X79246836Y-35089009D01*
X79113479Y-35130574D01*
X79111845Y-35131071D01*
X78562516Y-35294022D01*
X77875343Y-35516478D01*
X77874052Y-35516889D01*
X77706463Y-35569125D01*
X77575899Y-35613405D01*
X77574265Y-35613946D01*
X77034214Y-35788775D01*
X76346694Y-36030270D01*
X76345426Y-36030707D01*
X76178504Y-36087317D01*
X76050889Y-36134159D01*
X76049257Y-36134745D01*
X75518543Y-36321162D01*
X74831299Y-36581810D01*
X74830056Y-36582275D01*
X74663827Y-36643291D01*
X74539161Y-36692594D01*
X74537532Y-36693225D01*
X74016525Y-36890826D01*
X73329874Y-37170847D01*
X73328654Y-37171337D01*
X73163497Y-37236655D01*
X73041764Y-37288327D01*
X73040139Y-37289003D01*
X72529037Y-37497435D01*
X71843581Y-37796930D01*
X71842387Y-37797445D01*
X71678284Y-37867105D01*
X71559701Y-37920953D01*
X71558079Y-37921675D01*
X71057010Y-38140606D01*
X70373116Y-38459769D01*
X70371948Y-38460307D01*
X70209211Y-38534207D01*
X70093848Y-38590086D01*
X70092233Y-38590854D01*
X69601297Y-38819968D01*
X68919577Y-39158878D01*
X68918433Y-39159439D01*
X68757129Y-39237572D01*
X68644879Y-39295425D01*
X68643273Y-39296239D01*
X68162818Y-39535093D01*
X67483775Y-39893864D01*
X67482659Y-39894447D01*
X67322941Y-39976769D01*
X67214026Y-40036371D01*
X67212427Y-40037231D01*
X66742463Y-40285537D01*
X66066636Y-40664260D01*
X66065546Y-40664864D01*
X65907567Y-40751317D01*
X65801869Y-40812615D01*
X65800281Y-40813521D01*
X65341084Y-41070850D01*
X64668889Y-41469676D01*
X64667826Y-41470299D01*
X64511884Y-41560740D01*
X64409501Y-41623562D01*
X64407923Y-41624514D01*
X63959550Y-41890544D01*
X63291510Y-42309564D01*
X63290473Y-42310207D01*
X63136670Y-42404582D01*
X63037616Y-42468799D01*
X63036051Y-42469797D01*
X62598669Y-42744141D01*
X61935387Y-43183381D01*
X61934379Y-43184042D01*
X61782802Y-43282312D01*
X61687180Y-43347732D01*
X61685629Y-43348777D01*
X61259305Y-43631098D01*
X60601258Y-44090659D01*
X60600278Y-44091336D01*
X60451207Y-44193324D01*
X60358848Y-44259935D01*
X60357312Y-44261024D01*
X59942294Y-44550861D01*
X59289994Y-45030818D01*
X59289041Y-45031512D01*
X59142580Y-45137145D01*
X59053685Y-45204674D01*
X59052166Y-45205810D01*
X58648366Y-45502923D01*
X58002511Y-46003199D01*
X58001587Y-46003907D01*
X57857806Y-46113134D01*
X57772204Y-46181576D01*
X57770704Y-46182756D01*
X57378381Y-46486648D01*
X56739389Y-47007374D01*
X56738493Y-47008097D01*
X56597665Y-47120700D01*
X56515555Y-47189760D01*
X56514074Y-47190986D01*
X56204501Y-47443264D01*
X56133087Y-47501461D01*
X56033699Y-47586625D01*
X55501513Y-48042652D01*
X55500646Y-48043388D01*
X55362865Y-48159276D01*
X55284121Y-48228914D01*
X55282661Y-48230185D01*
X54913263Y-48546723D01*
X54289618Y-49108433D01*
X54288778Y-49109182D01*
X54154265Y-49228143D01*
X54078911Y-49298193D01*
X54077471Y-49299511D01*
X53719606Y-49621838D01*
X53104553Y-50203971D01*
X53103743Y-50204731D01*
X52972536Y-50326706D01*
X52900553Y-50397032D01*
X52899137Y-50398394D01*
X52552903Y-50726097D01*
X51947004Y-51328640D01*
X51946223Y-51329410D01*
X51818475Y-51454221D01*
X51749856Y-51524674D01*
X51748465Y-51526080D01*
X51413845Y-51858848D01*
X50817571Y-52481873D01*
X50816818Y-52482653D01*
X50692735Y-52610053D01*
X50627456Y-52680494D01*
X50626090Y-52681945D01*
X50303104Y-53019423D01*
X49717092Y-53662826D01*
X49716369Y-53663614D01*
X49596004Y-53793497D01*
X49534016Y-53863807D01*
X49532679Y-53865300D01*
X49221419Y-54207047D01*
X48646200Y-54870833D01*
X48645504Y-54871629D01*
X48529044Y-55003727D01*
X48470250Y-55073850D01*
X48468940Y-55075386D01*
X48169405Y-55421042D01*
X47605546Y-56105169D01*
X47604879Y-56105971D01*
X47492406Y-56240118D01*
X47436858Y-56309813D01*
X47435578Y-56311392D01*
X47147671Y-56660709D01*
X46595888Y-57364947D01*
X46595249Y-57365756D01*
X46486789Y-57501837D01*
X46434376Y-57571054D01*
X46433128Y-57572674D01*
X46156910Y-57925211D01*
X45617663Y-58649628D01*
X45617053Y-58650441D01*
X45512769Y-58788162D01*
X45463484Y-58856721D01*
X45462269Y-58858383D01*
X45197692Y-59213815D01*
X44671519Y-59958398D01*
X44670938Y-59959214D01*
X44571012Y-60098220D01*
X44524762Y-60166044D01*
X44523581Y-60167744D01*
X44270635Y-60525690D01*
X43758216Y-61290218D01*
X43757662Y-61291037D01*
X43662038Y-61431275D01*
X43618770Y-61498241D01*
X43617623Y-61499983D01*
X43376241Y-61860126D01*
X42878214Y-62644416D01*
X42878214Y-62644417D01*
X42877843Y-62645000D01*
X42786434Y-62786478D01*
X42745672Y-62853139D01*
X42745046Y-62854126D01*
X42745028Y-62854156D01*
X42515101Y-63216247D01*
X42031970Y-64020321D01*
X42031471Y-64021145D01*
X41944736Y-64162991D01*
X41907283Y-64227801D01*
X41906210Y-64229621D01*
X41687755Y-64593196D01*
X41220119Y-65416926D01*
X41219850Y-65417399D01*
X41137464Y-65559968D01*
X41102305Y-65624451D01*
X41101770Y-65625396D01*
X40894656Y-65990223D01*
X40443255Y-66833215D01*
X40442812Y-66834037D01*
X40365105Y-66976564D01*
X40333151Y-67038796D01*
X40332158Y-67040690D01*
X40136328Y-67406407D01*
X39701632Y-68268755D01*
X39701632Y-68268756D01*
X39701361Y-68269291D01*
X39628157Y-68411868D01*
X39598427Y-68473487D01*
X39597885Y-68474564D01*
X39597886Y-68474564D01*
X39413251Y-68840844D01*
X38995786Y-69722564D01*
X38995394Y-69723383D01*
X38927064Y-69865010D01*
X38900277Y-69924243D01*
X38899366Y-69926211D01*
X38725816Y-70292761D01*
X38326312Y-71193443D01*
X38326312Y-71193444D01*
X38326106Y-71193906D01*
X38262232Y-71335153D01*
X38237511Y-71393642D01*
X38237029Y-71394730D01*
X38074483Y-71761192D01*
X37693578Y-72680589D01*
X37693238Y-72681401D01*
X37634102Y-72821322D01*
X37612114Y-72877168D01*
X37611293Y-72879200D01*
X37459617Y-73245309D01*
X37097910Y-74183267D01*
X37097654Y-74183929D01*
X37043054Y-74322618D01*
X37023014Y-74377477D01*
X37022582Y-74378598D01*
X37022561Y-74378657D01*
X36881615Y-74744155D01*
X36539630Y-75700735D01*
X36539341Y-75701536D01*
X36489446Y-75838126D01*
X36471874Y-75890202D01*
X36471146Y-75892298D01*
X36377409Y-76154499D01*
X36340838Y-76256795D01*
X36340829Y-76256821D01*
X36340828Y-76256825D01*
X36019369Y-77231314D01*
X36019130Y-77232037D01*
X35973626Y-77366902D01*
X35957794Y-77417974D01*
X35957436Y-77419061D01*
X35957405Y-77419160D01*
X35837589Y-77782380D01*
X35537100Y-78775113D01*
X35536858Y-78775902D01*
X35495911Y-78907998D01*
X35482317Y-78956036D01*
X35481685Y-78958193D01*
X35372214Y-79319858D01*
X35093373Y-80330493D01*
X35093221Y-80331040D01*
X35056586Y-80460506D01*
X35044583Y-80507326D01*
X35044273Y-80508452D01*
X35044266Y-80508481D01*
X34944945Y-80868465D01*
X34688460Y-81896518D01*
X34688264Y-81897293D01*
X34655934Y-82023408D01*
X34645899Y-82067029D01*
X34645368Y-82069242D01*
X34556090Y-82427089D01*
X34322542Y-83472554D01*
X34322416Y-83473117D01*
X34294191Y-83595804D01*
X34285552Y-83638134D01*
X34285277Y-83639369D01*
X34205863Y-83994867D01*
X33995897Y-85057539D01*
X33995745Y-85058296D01*
X33971585Y-85176687D01*
X33964644Y-85215606D01*
X33964219Y-85217867D01*
X33894484Y-85570813D01*
X33708781Y-86650327D01*
X33708781Y-86650328D01*
X33708696Y-86650820D01*
X33688321Y-86765073D01*
X33682587Y-86802586D01*
X33682374Y-86803829D01*
X33622138Y-87153995D01*
X33461367Y-88250035D01*
X33461257Y-88250770D01*
X33444563Y-88360009D01*
X33440223Y-88394036D01*
X33439907Y-88396340D01*
X33388998Y-88743412D01*
X33253816Y-89855804D01*
X33253749Y-89856351D01*
X33240468Y-89960503D01*
X33237132Y-89993083D01*
X33236982Y-89994324D01*
X33195206Y-90338093D01*
X33086287Y-91466592D01*
X33086216Y-91467306D01*
X33076161Y-91565535D01*
X33073917Y-91594541D01*
X33073712Y-91596889D01*
X33040878Y-91937072D01*
X32958908Y-93081445D01*
X32958861Y-93082098D01*
X32951736Y-93174220D01*
X32950298Y-93201650D01*
X32950208Y-93202909D01*
X32926106Y-93539404D01*
X32871789Y-94699348D01*
X32871755Y-94700037D01*
X32868436Y-94763362D01*
X32867278Y-94785463D01*
X32867020Y-94794791D01*
X32866624Y-94809163D01*
X32866535Y-94811539D01*
X32850965Y-95144040D01*
X32825007Y-96319419D01*
X32824995Y-96319919D01*
X32822836Y-96398306D01*
X32822775Y-96420469D01*
X32822748Y-96421719D01*
X32822748Y-96421722D01*
X32815497Y-96750082D01*
X17823155Y-96750082D01*
X17823155Y-96688814D01*
X17823163Y-96687428D01*
X17827244Y-96322358D01*
X17827260Y-96321403D01*
X17857544Y-94933485D01*
X17857573Y-94932437D01*
X17869737Y-94569920D01*
X17869776Y-94568889D01*
X17930482Y-93178499D01*
X17930541Y-93177326D01*
X17950516Y-92820367D01*
X17950581Y-92819286D01*
X17955889Y-92738314D01*
X18041985Y-91424724D01*
X18042098Y-91423179D01*
X18044159Y-91396902D01*
X18069435Y-91074582D01*
X18069478Y-91074053D01*
X18192052Y-89673030D01*
X18192191Y-89671548D01*
X18226253Y-89334173D01*
X18226285Y-89333866D01*
X18380672Y-87924169D01*
X18380844Y-87922700D01*
X18420637Y-87600763D01*
X18420751Y-87599869D01*
X18445395Y-87412678D01*
X18607766Y-86179348D01*
X18607952Y-86178003D01*
X18652325Y-85874853D01*
X18652452Y-85874015D01*
X18699118Y-85570824D01*
X18873242Y-84439520D01*
X18873517Y-84437820D01*
X18920838Y-84158297D01*
X18920842Y-84158268D01*
X19177017Y-82705429D01*
X19177332Y-82703718D01*
X19225528Y-82453196D01*
X19518978Y-80977922D01*
X19519318Y-80976279D01*
X19565622Y-80761584D01*
X19898970Y-79257952D01*
X19899337Y-79256361D01*
X19940035Y-79086210D01*
X20316786Y-77546553D01*
X20317195Y-77544941D01*
X20347387Y-77430128D01*
X20772257Y-75844491D01*
X20772801Y-75842532D01*
X20785203Y-75799320D01*
X21262788Y-74160799D01*
X21263522Y-74158379D01*
X21787587Y-72496258D01*
X21788377Y-72493844D01*
X22348535Y-70843675D01*
X22349428Y-70841136D01*
X22945448Y-69203580D01*
X22946355Y-69201171D01*
X23577974Y-67576965D01*
X23578939Y-67574563D01*
X24245823Y-65964562D01*
X24246873Y-65962103D01*
X24247332Y-65961060D01*
X24948740Y-64366988D01*
X24949791Y-64364669D01*
X25686285Y-62785253D01*
X25687409Y-62782910D01*
X26458166Y-61219969D01*
X26459379Y-61217577D01*
X26551177Y-61041235D01*
X27264044Y-59671831D01*
X27265237Y-59669598D01*
X28103483Y-58141678D01*
X28104744Y-58139438D01*
X28976101Y-56630204D01*
X28977395Y-56628018D01*
X29881446Y-55138187D01*
X29882864Y-55135907D01*
X29964137Y-55008334D01*
X30819182Y-53666182D01*
X30820645Y-53663941D01*
X31788820Y-52214965D01*
X31790234Y-52212897D01*
X32774795Y-50806799D01*
X32793740Y-50779974D01*
X32794845Y-50778439D01*
X33771216Y-49446838D01*
X33836058Y-49359249D01*
X33837209Y-49357722D01*
X34806530Y-48094477D01*
X34909254Y-47962017D01*
X34910440Y-47960513D01*
X35877924Y-46755054D01*
X36012866Y-46588859D01*
X36013816Y-46587708D01*
X36983704Y-45431841D01*
X37146002Y-45240845D01*
X37147013Y-45239674D01*
X38122092Y-44127810D01*
X38122467Y-44127386D01*
X38308283Y-43918368D01*
X38309260Y-43917286D01*
X39292406Y-42844369D01*
X39498998Y-42622193D01*
X39500041Y-42621087D01*
X40492952Y-41583879D01*
X40717675Y-41352786D01*
X40718598Y-41351850D01*
X41722956Y-40347493D01*
X41723124Y-40347326D01*
X41963533Y-40110916D01*
X41964358Y-40110114D01*
X42981533Y-39136381D01*
X42981932Y-39136003D01*
X43235897Y-38897192D01*
X43236733Y-38896417D01*
X44268294Y-37951166D01*
X44268539Y-37950944D01*
X44533998Y-37712281D01*
X44534683Y-37711673D01*
X45581969Y-36793227D01*
X45582251Y-36792983D01*
X45857215Y-36556676D01*
X45857756Y-36556215D01*
X46921711Y-35663451D01*
X46922301Y-35662962D01*
X47204676Y-35431057D01*
X47205287Y-35430560D01*
X48287178Y-34562252D01*
X48287801Y-34561758D01*
X48575501Y-34336059D01*
X48576170Y-34335540D01*
X49677379Y-33490553D01*
X49678142Y-33489974D01*
X49969132Y-33272027D01*
X49969500Y-33271754D01*
X51091589Y-32449004D01*
X51092373Y-32448436D01*
X51384219Y-32239867D01*
X51384835Y-32239431D01*
X52529083Y-31438220D01*
X52530012Y-31437579D01*
X52820377Y-31239724D01*
X52820417Y-31239696D01*
X53989064Y-30458832D01*
X53990107Y-30458144D01*
X54275862Y-30272649D01*
X54276282Y-30272378D01*
X55470910Y-29511316D01*
X55471950Y-29510665D01*
X55750018Y-29338872D01*
X55750433Y-29338617D01*
X56973647Y-28596353D01*
X56974758Y-28595690D01*
X57241580Y-28438977D01*
X58496627Y-27714374D01*
X58497934Y-27713633D01*
X58748750Y-27573767D01*
X60039153Y-26865828D01*
X60040364Y-26865176D01*
X60269846Y-26743852D01*
X60270157Y-26743688D01*
X61600151Y-26051337D01*
X61601651Y-26050570D01*
X61803072Y-25949777D01*
X63179321Y-25271087D01*
X63180795Y-25270375D01*
X63345412Y-25192552D01*
X64775389Y-24525742D01*
X64777120Y-24524953D01*
X64893410Y-24473124D01*
X66388046Y-23815469D01*
X66389713Y-23814753D01*
X66442060Y-23792812D01*
X68010258Y-23143244D01*
X68012660Y-23142279D01*
X69636866Y-22510660D01*
X69639275Y-22509753D01*
X71276843Y-21913728D01*
X71279382Y-21912836D01*
X71294106Y-21907838D01*
X72929539Y-21352682D01*
X72931953Y-21351892D01*
X74594074Y-20827827D01*
X74596494Y-20827093D01*
X76269520Y-20339451D01*
X76272099Y-20338729D01*
X77955439Y-19887679D01*
X77957907Y-19887047D01*
X79650608Y-19472846D01*
X79653142Y-19472255D01*
X81354628Y-19095044D01*
X81357085Y-19094528D01*
X83066283Y-18754547D01*
X83068846Y-18754066D01*
X84785053Y-18451453D01*
X84787600Y-18451032D01*
X86510042Y-18185923D01*
X86512609Y-18185556D01*
X88240320Y-17958099D01*
X88242983Y-17957778D01*
X89975256Y-17768063D01*
X89977913Y-17767801D01*
X91713889Y-17615924D01*
X91716485Y-17615724D01*
X93439739Y-17502776D01*
X93459579Y-17501555D01*
X93461573Y-17501450D01*
X95121114Y-17428993D01*
X95220108Y-17425119D01*
X95222070Y-17425059D01*
X96821463Y-17390161D01*
X96981509Y-17387477D01*
X96983587Y-17387460D01*
X98534970Y-17387460D01*
X98535662Y-17387462D01*
G37*
%TD.AperFunction*%
%TD*%
M02*
