%TF.GenerationSoftware,KiCad,Pcbnew,9.0.6*%
%TF.CreationDate,2026-01-20T23:08:51+08:00*%
%TF.ProjectId,Ledx10,4c656478-3130-42e6-9b69-6361645f7063,rev?*%
%TF.SameCoordinates,Original*%
%TF.FileFunction,Soldermask,Top*%
%TF.FilePolarity,Negative*%
%FSLAX46Y46*%
G04 Gerber Fmt 4.6, Leading zero omitted, Abs format (unit mm)*
G04 Created by KiCad (PCBNEW 9.0.6) date 2026-01-20 23:08:51*
%MOMM*%
%LPD*%
G01*
G04 APERTURE LIST*
G04 Aperture macros list*
%AMRoundRect*
0 Rectangle with rounded corners*
0 $1 Rounding radius*
0 $2 $3 $4 $5 $6 $7 $8 $9 X,Y pos of 4 corners*
0 Add a 4 corners polygon primitive as box body*
4,1,4,$2,$3,$4,$5,$6,$7,$8,$9,$2,$3,0*
0 Add four circle primitives for the rounded corners*
1,1,$1+$1,$2,$3*
1,1,$1+$1,$4,$5*
1,1,$1+$1,$6,$7*
1,1,$1+$1,$8,$9*
0 Add four rect primitives between the rounded corners*
20,1,$1+$1,$2,$3,$4,$5,0*
20,1,$1+$1,$4,$5,$6,$7,0*
20,1,$1+$1,$6,$7,$8,$9,0*
20,1,$1+$1,$8,$9,$2,$3,0*%
G04 Aperture macros list end*
%ADD10RoundRect,0.225000X0.225000X0.375000X-0.225000X0.375000X-0.225000X-0.375000X0.225000X-0.375000X0*%
%ADD11RoundRect,0.225000X0.424398X-0.105529X0.292831X0.324808X-0.424398X0.105529X-0.292831X-0.324808X0*%
%ADD12RoundRect,0.250000X0.475000X-0.250000X0.475000X0.250000X-0.475000X0.250000X-0.475000X-0.250000X0*%
%ADD13RoundRect,0.250000X-0.250000X-0.475000X0.250000X-0.475000X0.250000X0.475000X-0.250000X0.475000X0*%
%ADD14RoundRect,0.100000X-0.300000X-1.100000X0.300000X-1.100000X0.300000X1.100000X-0.300000X1.100000X0*%
%ADD15RoundRect,0.100000X-1.215000X-0.660000X1.215000X-0.660000X1.215000X0.660000X-1.215000X0.660000X0*%
%ADD16RoundRect,0.100000X1.138867X0.054602X0.953457X0.625236X-1.138867X-0.054602X-0.953457X-0.625236X0*%
%ADD17RoundRect,0.100000X1.003153X-0.951582X0.252242X1.359485X-1.003153X0.951582X-0.252242X-1.359485X0*%
%ADD18RoundRect,0.250000X1.045000X-0.785000X1.045000X0.785000X-1.045000X0.785000X-1.045000X-0.785000X0*%
%ADD19RoundRect,0.225000X-0.061137X0.433027X-0.410853X0.149833X0.061137X-0.433027X0.410853X-0.149833X0*%
%ADD20RoundRect,0.100000X-0.953457X0.625236X-1.138867X0.054602X0.953457X-0.625236X1.138867X-0.054602X0*%
%ADD21RoundRect,0.100000X-0.252242X1.359485X-1.003153X-0.951582X0.252242X-1.359485X1.003153X0.951582X0*%
%ADD22RoundRect,0.100000X0.403859X-1.066254X0.889269X-0.713583X-0.403859X1.066254X-0.889269X0.713583X0*%
%ADD23RoundRect,0.100000X-0.595017X-1.248110X1.370894X0.180208X0.595017X1.248110X-1.370894X-0.180208X0*%
%ADD24RoundRect,0.100000X-0.889269X-0.713583X-0.403859X-1.066254X0.889269X0.713583X0.403859X1.066254X0*%
%ADD25RoundRect,0.100000X-1.370894X0.180208X0.595017X-1.248110X1.370894X-0.180208X-0.595017X1.248110X0*%
%ADD26RoundRect,0.250000X0.450000X-0.262500X0.450000X0.262500X-0.450000X0.262500X-0.450000X-0.262500X0*%
%ADD27R,0.500000X0.250000*%
%ADD28R,0.900000X1.600000*%
%ADD29RoundRect,0.250000X-0.650000X1.000000X-0.650000X-1.000000X0.650000X-1.000000X0.650000X1.000000X0*%
%ADD30RoundRect,0.225000X-0.399400X-0.178127X-0.030782X-0.436237X0.399400X0.178127X0.030782X0.436237X0*%
%ADD31RoundRect,0.225000X0.396231X0.185071X0.023164X0.436707X-0.396231X-0.185071X-0.023164X-0.436707X0*%
%ADD32RoundRect,0.225000X0.287117X-0.329869X0.426175X0.098106X-0.287117X0.329869X-0.426175X-0.098106X0*%
%ADD33RoundRect,0.250000X-0.475000X0.250000X-0.475000X-0.250000X0.475000X-0.250000X0.475000X0.250000X0*%
%ADD34RoundRect,0.225000X0.218421X0.378870X-0.231510X0.371016X-0.218421X-0.378870X0.231510X-0.371016X0*%
%ADD35RoundRect,0.250000X1.000000X0.650000X-1.000000X0.650000X-1.000000X-0.650000X1.000000X-0.650000X0*%
%ADD36RoundRect,0.100000X0.889269X0.713583X0.403859X1.066254X-0.889269X-0.713583X-0.403859X-1.066254X0*%
%ADD37RoundRect,0.100000X1.370894X-0.180208X-0.595017X1.248110X-1.370894X0.180208X0.595017X-1.248110X0*%
%ADD38RoundRect,0.100000X0.300000X1.100000X-0.300000X1.100000X-0.300000X-1.100000X0.300000X-1.100000X0*%
%ADD39RoundRect,0.100000X1.215000X0.660000X-1.215000X0.660000X-1.215000X-0.660000X1.215000X-0.660000X0*%
%ADD40RoundRect,0.250000X-0.262500X-0.450000X0.262500X-0.450000X0.262500X0.450000X-0.262500X0.450000X0*%
%ADD41RoundRect,0.100000X-1.138867X-0.054602X-0.953457X-0.625236X1.138867X0.054602X0.953457X0.625236X0*%
%ADD42RoundRect,0.100000X-1.003153X0.951582X-0.252242X-1.359485X1.003153X-0.951582X0.252242X1.359485X0*%
%ADD43RoundRect,0.225000X-0.413405X-0.142639X-0.068685X-0.431894X0.413405X0.142639X0.068685X0.431894X0*%
%ADD44RoundRect,0.100000X-0.403859X1.066254X-0.889269X0.713583X0.403859X-1.066254X0.889269X-0.713583X0*%
%ADD45RoundRect,0.100000X0.595017X1.248110X-1.370894X-0.180208X-0.595017X-1.248110X1.370894X0.180208X0*%
%ADD46RoundRect,0.250000X0.262500X0.450000X-0.262500X0.450000X-0.262500X-0.450000X0.262500X-0.450000X0*%
%ADD47RoundRect,0.225000X0.007909X-0.437250X0.389531X-0.198786X-0.007909X0.437250X-0.389531X0.198786X0*%
%ADD48RoundRect,0.500000X-0.750000X-1.500000X0.750000X-1.500000X0.750000X1.500000X-0.750000X1.500000X0*%
%ADD49RoundRect,0.225000X0.263407X-0.349094X0.431980X0.068139X-0.263407X0.349094X-0.431980X-0.068139X0*%
%ADD50RoundRect,0.225000X-0.225000X-0.375000X0.225000X-0.375000X0.225000X0.375000X-0.225000X0.375000X0*%
%ADD51R,0.800000X2.700000*%
%ADD52RoundRect,0.225000X-0.211776X-0.382624X0.237950X-0.366919X0.211776X0.382624X-0.237950X0.366919X0*%
%ADD53RoundRect,0.225000X-0.429339X0.083173X-0.275430X-0.339688X0.429339X-0.083173X0.275430X0.339688X0*%
%ADD54RoundRect,0.225000X0.402448X0.171130X0.038391X0.435633X-0.402448X-0.171130X-0.038391X-0.435633X0*%
%ADD55RoundRect,0.225000X-0.015539X0.437045X-0.392941X0.191958X0.015539X-0.437045X0.392941X-0.191958X0*%
%ADD56RoundRect,0.225000X0.422492X-0.112920X0.298455X0.319648X-0.422492X0.112920X-0.298455X-0.319648X0*%
%ADD57RoundRect,0.225000X0.281317X-0.334830X0.427822X0.090654X-0.281317X0.334830X-0.427822X-0.090654X0*%
%ADD58RoundRect,0.225000X0.038391X-0.435633X0.402448X-0.171130X-0.038391X0.435633X-0.402448X0.171130X0*%
G04 APERTURE END LIST*
D10*
%TO.C,D11*%
X28218400Y-87477600D03*
X24918400Y-87477600D03*
%TD*%
D11*
%TO.C,D18*%
X67005014Y-34166095D03*
X66040186Y-31010305D03*
%TD*%
D12*
%TO.C,C6*%
X100126800Y-163003800D03*
X100126800Y-161103800D03*
%TD*%
D13*
%TO.C,C7*%
X108137600Y-161569400D03*
X110037600Y-161569400D03*
%TD*%
D12*
%TO.C,C4*%
X96367600Y-168520200D03*
X96367600Y-166620200D03*
%TD*%
D14*
%TO.C,D39*%
X22884100Y-101434900D03*
X28154100Y-101434900D03*
D15*
X25819100Y-101434900D03*
%TD*%
D16*
%TO.C,D1*%
X117170200Y-169875200D03*
X115541683Y-164863135D03*
D17*
X116263235Y-167083849D03*
%TD*%
D18*
%TO.C,C2*%
X89357200Y-163993400D03*
X89357200Y-157753400D03*
%TD*%
D19*
%TO.C,D8*%
X46976891Y-145799022D03*
X44412309Y-147875778D03*
%TD*%
D20*
%TO.C,D36*%
X117170200Y-24866600D03*
X115541682Y-29878668D03*
D21*
X116263236Y-27657951D03*
%TD*%
D22*
%TO.C,D40*%
X39547800Y-144703800D03*
X43811314Y-141606150D03*
D23*
X41922264Y-142978632D03*
%TD*%
D24*
%TO.C,D13*%
X39547800Y-50088800D03*
X43811338Y-53186418D03*
D25*
X41922283Y-51813944D03*
%TD*%
D22*
%TO.C,D7*%
X34833449Y-138233767D03*
X39096957Y-135136122D03*
D23*
X37207911Y-136508600D03*
%TD*%
D26*
%TO.C,R1*%
X92303600Y-168502700D03*
X92303600Y-166677700D03*
%TD*%
D14*
%TO.C,D10*%
X22884101Y-93433900D03*
X28154101Y-93433900D03*
D15*
X25819101Y-93433900D03*
%TD*%
D13*
%TO.C,C5*%
X98211600Y-168290200D03*
X100111600Y-168290200D03*
%TD*%
D27*
%TO.C,U1*%
X95570000Y-161291800D03*
X95570000Y-161791800D03*
X95570000Y-162291800D03*
X95570000Y-162791800D03*
X97470000Y-162791800D03*
X97470000Y-162291800D03*
X97470000Y-161791800D03*
X97470000Y-161291800D03*
D28*
X96520000Y-162041800D03*
%TD*%
D29*
%TO.C,D32*%
X84836000Y-161311800D03*
X84836000Y-165311800D03*
%TD*%
D30*
%TO.C,D30*%
X159455795Y-131209787D03*
X162159005Y-133102613D03*
%TD*%
D31*
%TO.C,D15*%
X35353108Y-64498862D03*
X32617292Y-62653538D03*
%TD*%
D32*
%TO.C,D6*%
X65987322Y-164002244D03*
X67007078Y-160863756D03*
%TD*%
D33*
%TO.C,C8*%
X106197400Y-166207400D03*
X106197400Y-168107400D03*
%TD*%
D20*
%TO.C,D41*%
X79951764Y-165261546D03*
X78323246Y-170273614D03*
D21*
X79044800Y-168052897D03*
%TD*%
D34*
%TO.C,D12*%
X28116553Y-107108414D03*
X24817047Y-107165986D03*
%TD*%
D35*
%TO.C,D19*%
X104666800Y-158435000D03*
X100666800Y-158435000D03*
%TD*%
D36*
%TO.C,D33*%
X160809830Y-138213213D03*
X156546314Y-135115599D03*
D37*
X158435369Y-136488073D03*
%TD*%
D38*
%TO.C,D34*%
X172746697Y-93383100D03*
X167476697Y-93383100D03*
D39*
X169811697Y-93383100D03*
%TD*%
D40*
%TO.C,R5*%
X108155100Y-159537400D03*
X109980100Y-159537400D03*
%TD*%
D41*
%TO.C,D16*%
X78455018Y-24897762D03*
X80083535Y-29909827D03*
D42*
X79361983Y-27689113D03*
%TD*%
D12*
%TO.C,C10*%
X110413800Y-168107400D03*
X110413800Y-166207400D03*
%TD*%
D26*
%TO.C,R2*%
X94284800Y-168502700D03*
X94284800Y-166677700D03*
%TD*%
D43*
%TO.C,D31*%
X148697624Y-145903800D03*
X151225576Y-148025000D03*
%TD*%
D44*
%TO.C,D35*%
X156072949Y-50132632D03*
X151809435Y-53230282D03*
D45*
X153698485Y-51857800D03*
%TD*%
D20*
%TO.C,D4*%
X72357164Y-162765849D03*
X70728646Y-167777917D03*
D21*
X71450200Y-165557200D03*
%TD*%
D33*
%TO.C,C3*%
X93014800Y-161396600D03*
X93014800Y-163296600D03*
%TD*%
D46*
%TO.C,R3*%
X100074100Y-166258200D03*
X98249100Y-166258200D03*
%TD*%
D12*
%TO.C,C9*%
X108356400Y-168107400D03*
X108356400Y-166207400D03*
%TD*%
D41*
%TO.C,D37*%
X70819065Y-27349580D03*
X72447602Y-32361636D03*
D42*
X71726041Y-30140933D03*
%TD*%
D32*
%TO.C,D5*%
X63701322Y-163214844D03*
X64721078Y-160076356D03*
%TD*%
D47*
%TO.C,D24*%
X159992320Y-64450567D03*
X162790880Y-62701833D03*
%TD*%
D48*
%TO.C,J1*%
X95840800Y-174853600D03*
X99840800Y-174853600D03*
%TD*%
D49*
%TO.C,D21*%
X128896499Y-34321253D03*
X130132701Y-31261547D03*
%TD*%
D50*
%TO.C,D27*%
X167514009Y-106857809D03*
X170813991Y-106857791D03*
%TD*%
D51*
%TO.C,L1*%
X95470800Y-157927000D03*
X97670800Y-157927000D03*
%TD*%
D38*
%TO.C,D26*%
X172746700Y-101384100D03*
X167476700Y-101384100D03*
D39*
X169811700Y-101384100D03*
%TD*%
D52*
%TO.C,D28*%
X167438807Y-88373399D03*
X170736793Y-88258201D03*
%TD*%
D53*
%TO.C,D2*%
X130023060Y-159999827D03*
X131151726Y-163100813D03*
%TD*%
D44*
%TO.C,D23*%
X160822743Y-56584252D03*
X156559239Y-59681882D03*
D45*
X158448289Y-58309401D03*
%TD*%
D12*
%TO.C,C1*%
X93014800Y-159334200D03*
X93014800Y-157434200D03*
%TD*%
D53*
%TO.C,D3*%
X127807267Y-160831707D03*
X128935933Y-163932693D03*
%TD*%
D40*
%TO.C,R4*%
X102059100Y-162803800D03*
X103884100Y-162803800D03*
%TD*%
D54*
%TO.C,D14*%
X47105679Y-48645645D03*
X44435921Y-46705955D03*
%TD*%
D55*
%TO.C,D9*%
X35724607Y-130673346D03*
X32956993Y-132470654D03*
%TD*%
D24*
%TO.C,D38*%
X34801683Y-56592386D03*
X39065199Y-59690000D03*
D25*
X37176144Y-58317526D03*
%TD*%
D56*
%TO.C,D17*%
X85341601Y-28129082D03*
X84431999Y-24956918D03*
%TD*%
D57*
%TO.C,D22*%
X109724217Y-27874500D03*
X110798583Y-24754300D03*
%TD*%
D58*
%TO.C,D25*%
X148474321Y-48493245D03*
X151144079Y-46553555D03*
%TD*%
D16*
%TO.C,D42*%
X124790200Y-167386000D03*
X123161662Y-162373955D03*
D17*
X123883218Y-164594636D03*
%TD*%
D36*
%TO.C,D29*%
X156083000Y-144653000D03*
X151819479Y-141555367D03*
D37*
X153708533Y-142927846D03*
%TD*%
D20*
%TO.C,D20*%
X124736779Y-27367141D03*
X123108261Y-32379209D03*
D21*
X123829815Y-30158492D03*
%TD*%
M02*
