M48
; DRILL file {KiCad 9.0.6} date 2026-02-07T16:05:19+0800
; FORMAT={-:-/ absolute / metric / decimal}
; #@! TF.CreationDate,2026-02-07T16:05:19+08:00
; #@! TF.GenerationSoftware,Kicad,Pcbnew,9.0.6
; #@! TF.FileFunction,Plated,1,2,PTH
FMAT,2
METRIC
; #@! TA.AperFunction,Plated,PTH,ViaDrill
T1C0.300
; #@! TA.AperFunction,Plated,PTH,ComponentDrill
T2C1.000
%
G90
G05
T1
X22.631Y-110.084
X22.631Y-110.693
X23.241Y-110.084
X23.241Y-110.693
X25.058Y-93.11
X25.058Y-93.81
X25.109Y-101.086
X25.109Y-101.786
X25.769Y-93.81
X25.769Y-93.11
X25.82Y-101.786
X25.82Y-101.086
X26.467Y-93.81
X26.467Y-93.167
X26.518Y-101.786
X26.518Y-101.143
X26.899Y-67.183
X26.899Y-67.793
X27.508Y-67.183
X27.508Y-67.793
X30.048Y-83.464
X30.048Y-84.074
X30.658Y-83.464
X30.658Y-84.074
X34.468Y-123.241
X34.468Y-123.85
X35.077Y-123.241
X35.077Y-123.85
X36.452Y-58.201
X36.554Y-136.591
X36.864Y-57.635
X36.932Y-137.111
X37.028Y-58.62
X37.118Y-136.181
X37.439Y-58.053
X37.53Y-136.747
X37.592Y-59.03
X37.694Y-135.763
X37.97Y-58.51
X38.105Y-136.329
X41.1Y-51.674
X41.151Y-143.117
X41.512Y-51.107
X41.529Y-143.637
X41.676Y-52.092
X41.716Y-142.707
X42.087Y-51.525
X42.127Y-143.273
X42.24Y-52.502
X42.291Y-142.289
X42.618Y-51.982
X42.702Y-142.855
X48.641Y-154.559
X48.641Y-155.169
X49.251Y-154.559
X49.251Y-155.169
X52.324Y-46.355
X52.324Y-46.965
X52.934Y-46.355
X52.934Y-46.965
X54.889Y-35.992
X54.889Y-36.601
X55.499Y-35.992
X55.499Y-36.601
X66.472Y-157.81
X66.472Y-158.42
X67.081Y-157.81
X67.081Y-158.42
X71.182Y-165.227
X71.242Y-29.567
X71.39Y-164.547
X71.403Y-30.249
X71.623Y-30.925
X71.648Y-163.896
X71.851Y-165.431
X71.853Y-29.369
X72.059Y-164.751
X72.069Y-30.032
X72.263Y-164.084
X72.288Y-30.709
X77.8Y-172.923
X77.8Y-173.533
X78.41Y-172.923
X78.41Y-173.533
X78.827Y-167.69
X78.84Y-27.097
X79.001Y-27.778
X79.035Y-167.01
X79.221Y-28.455
X79.268Y-166.36
X79.451Y-26.899
X79.496Y-167.895
X79.667Y-27.562
X79.704Y-167.215
X79.887Y-28.238
X79.908Y-166.548
X87.935Y-30.201
X87.935Y-30.81
X88.544Y-30.201
X88.544Y-30.81
X88.621Y-165.684
X88.621Y-166.294
X89.23Y-165.684
X89.23Y-166.294
X92.177Y-158.039
X92.177Y-158.75
X92.177Y-159.487
X92.989Y-158.039
X92.989Y-158.75
X92.989Y-159.487
X93.472Y-164.075
X94.259Y-164.084
X95.225Y-164.776
X97.511Y-164.414
X97.511Y-165.026
X97.511Y-165.633
X97.739Y-157.988
X97.739Y-158.699
X97.739Y-159.436
X98.071Y-160.045
X98.476Y-157.988
X98.476Y-158.699
X98.476Y-159.436
X99.085Y-165.989
X99.238Y-164.176
X99.669Y-167.564
X106.883Y-21.463
X106.883Y-22.073
X107.493Y-21.463
X107.493Y-22.073
X109.347Y-173.711
X109.347Y-174.32
X109.957Y-173.711
X109.957Y-174.32
X115.692Y-28.181
X115.729Y-166.465
X115.89Y-167.146
X115.911Y-27.505
X116.11Y-167.822
X116.181Y-26.859
X116.34Y-166.266
X116.357Y-28.397
X116.556Y-166.93
X116.577Y-27.721
X116.775Y-167.606
X116.793Y-27.057
X123.257Y-30.791
X123.368Y-164.073
X123.477Y-30.114
X123.529Y-164.754
X123.747Y-29.469
X123.749Y-165.43
X123.923Y-31.007
X123.979Y-163.874
X124.143Y-30.331
X124.195Y-164.538
X124.358Y-29.667
X124.415Y-165.214
X132.334Y-37.846
X132.334Y-38.456
X132.944Y-37.846
X132.944Y-38.456
X142.037Y-153.797
X142.037Y-154.407
X142.646Y-153.797
X142.646Y-154.407
X148.92Y-41.935
X148.92Y-42.545
X149.53Y-41.935
X149.53Y-42.545
X152.89Y-52.048
X152.94Y-142.846
X153.286Y-52.555
X153.351Y-142.28
X153.44Y-51.619
X153.515Y-143.264
X153.871Y-52.17
X153.927Y-142.698
X154.0Y-51.181
X154.08Y-143.674
X154.431Y-51.733
X154.457Y-143.154
X157.686Y-136.357
X157.693Y-58.45
X158.089Y-58.957
X158.098Y-135.791
X158.243Y-58.021
X158.262Y-136.775
X158.673Y-136.209
X158.674Y-58.572
X158.803Y-57.583
X158.826Y-137.185
X159.204Y-136.665
X159.234Y-58.135
X163.779Y-84.099
X163.779Y-84.709
X164.033Y-112.268
X164.033Y-112.878
X164.389Y-84.099
X164.389Y-84.709
X164.643Y-112.268
X164.643Y-112.878
X166.446Y-127.127
X166.446Y-127.737
X166.827Y-66.345
X166.827Y-66.954
X167.056Y-127.127
X167.056Y-127.737
X167.437Y-66.345
X167.437Y-66.954
X169.113Y-93.026
X169.113Y-93.726
X169.152Y-101.009
X169.152Y-101.709
X169.824Y-93.726
X169.824Y-93.026
X169.863Y-101.709
X169.863Y-101.009
X170.522Y-93.726
X170.522Y-93.083
X170.561Y-101.709
X170.561Y-101.067
T2
G00X95.841Y-174.004
M15
G01X95.841Y-175.704
M16
G05
G00X99.841Y-174.004
M15
G01X99.841Y-175.704
M16
G05
M30
