M48
; DRILL file {KiCad 9.0.6} date 2026-01-19T13:31:11+0800
; FORMAT={-:-/ absolute / metric / decimal}
; #@! TF.CreationDate,2026-01-19T13:31:11+08:00
; #@! TF.GenerationSoftware,Kicad,Pcbnew,9.0.6
; #@! TF.FileFunction,Plated,1,2,PTH
FMAT,2
METRIC
; #@! TA.AperFunction,Plated,PTH,ViaDrill
T1C0.300
; #@! TA.AperFunction,Plated,PTH,ViaDrill
T2C0.400
; #@! TA.AperFunction,Plated,PTH,ComponentDrill
T3C1.000
%
G90
G05
T1
X81.458Y-90.018
X81.458Y-90.627
X81.839Y-81.216
X81.839Y-80.518
X81.839Y-79.807
X82.067Y-90.018
X82.067Y-90.627
X82.423Y-65.329
X82.423Y-65.938
X82.482Y-81.216
X82.539Y-79.807
X82.539Y-80.518
X83.033Y-65.329
X83.033Y-65.938
X84.633Y-70.129
X84.633Y-70.739
X85.242Y-70.129
X85.242Y-70.739
X86.589Y-94.767
X86.589Y-95.377
X87.198Y-94.767
X87.198Y-95.377
X89.088Y-56.588
X89.498Y-56.024
X89.608Y-56.966
X89.654Y-104.279
X89.916Y-55.448
X90.018Y-104.877
X90.064Y-56.435
X90.174Y-103.901
X90.436Y-105.452
X90.482Y-55.86
X90.584Y-104.465
X91.002Y-105.041
X96.52Y-113.538
X96.52Y-114.148
X97.13Y-113.538
X97.13Y-114.148
X101.6Y-46.99
X101.6Y-47.6
X102.21Y-46.99
X102.21Y-47.6
X109.486Y-40.762
X109.703Y-41.427
X110.163Y-40.542
X110.369Y-119.426
X110.379Y-41.208
X110.589Y-118.822
X110.844Y-40.381
X111.005Y-119.718
X111.042Y-40.992
X111.244Y-119.061
X111.673Y-119.962
X111.912Y-119.304
X114.249Y-120.04
X114.732Y-114.681
X114.757Y-114.071
X114.986Y-120.04
X115.341Y-114.732
X115.367Y-114.122
X119.355Y-110.084
X120.548Y-108.331
X121.92Y-39.599
X121.92Y-40.208
X122.123Y-108.789
X122.123Y-109.489
X122.123Y-110.188
X122.53Y-39.599
X122.53Y-40.208
X128.27Y-114.376
X128.295Y-113.767
X128.88Y-114.427
X128.905Y-113.817
X132.156Y-118.897
X132.867Y-118.897
X134.925Y-40.691
X135.141Y-40.025
X135.601Y-40.911
X135.817Y-40.245
X135.902Y-118.917
X136.119Y-119.583
X136.265Y-41.126
X136.463Y-40.515
X136.579Y-118.698
X136.795Y-119.363
X137.26Y-118.537
X137.458Y-119.148
X145.491Y-47.168
X145.491Y-47.777
X146.101Y-47.168
X146.101Y-47.777
X155.852Y-54.988
X156.237Y-55.573
X156.359Y-54.592
X156.398Y-104.264
X156.674Y-56.133
X156.788Y-55.142
X156.808Y-103.699
X156.918Y-104.642
X157.226Y-55.702
X157.226Y-103.124
X157.374Y-104.111
X157.792Y-103.535
X160.35Y-67.361
X160.35Y-67.97
X160.96Y-67.361
X160.96Y-67.97
X161.417Y-88.113
X161.417Y-88.722
X162.027Y-88.113
X162.027Y-88.722
X164.313Y-80.2
X164.313Y-79.502
X164.313Y-78.791
X164.955Y-80.2
X165.013Y-78.791
X165.013Y-79.502
T2
X131.191Y-108.407
T3
G00X121.444Y-121.451
M15
G01X121.444Y-123.151
M16
G05
G00X125.444Y-121.451
M15
G01X125.444Y-123.151
M16
G05
M30
