%TF.GenerationSoftware,KiCad,Pcbnew,9.0.6*%
%TF.CreationDate,2026-01-19T13:30:55+08:00*%
%TF.ProjectId,Ledx10,4c656478-3130-42e6-9b69-6361645f7063,rev?*%
%TF.SameCoordinates,Original*%
%TF.FileFunction,Legend,Bot*%
%TF.FilePolarity,Positive*%
%FSLAX46Y46*%
G04 Gerber Fmt 4.6, Leading zero omitted, Abs format (unit mm)*
G04 Created by KiCad (PCBNEW 9.0.6) date 2026-01-19 13:30:55*
%MOMM*%
%LPD*%
G01*
G04 APERTURE LIST*
%ADD10C,0.240000*%
G04 APERTURE END LIST*
D10*
G36*
X133979839Y-117262000D02*
G01*
X133632159Y-115589424D01*
X134213579Y-115589424D01*
X134143604Y-115253346D01*
X132586678Y-115253346D01*
X132656653Y-115589424D01*
X133236730Y-115589424D01*
X133584410Y-117262000D01*
X133979839Y-117262000D01*
G37*
G36*
X132711120Y-117262000D02*
G01*
X132315690Y-117262000D01*
X132158032Y-116503870D01*
X131900111Y-116503870D01*
X131646556Y-116495566D01*
X131483799Y-116475049D01*
X131375912Y-116440874D01*
X131258852Y-116379916D01*
X131150742Y-116296087D01*
X131051367Y-116181958D01*
X130997649Y-116094349D01*
X130954024Y-115991484D01*
X130921186Y-115871036D01*
X130911743Y-115803949D01*
X131322761Y-115803949D01*
X131330293Y-115877265D01*
X131359165Y-115962308D01*
X131407962Y-116035778D01*
X131473351Y-116094704D01*
X131552309Y-116135796D01*
X131656311Y-116157764D01*
X131871657Y-116167792D01*
X132088178Y-116167792D01*
X131968011Y-115589424D01*
X131776891Y-115589424D01*
X131581062Y-115593913D01*
X131495034Y-115603346D01*
X131437404Y-115621906D01*
X131391402Y-115651843D01*
X131354961Y-115693716D01*
X131331622Y-115743904D01*
X131322761Y-115803949D01*
X130911743Y-115803949D01*
X130903926Y-115748420D01*
X130905181Y-115644534D01*
X130922228Y-115556056D01*
X130953548Y-115480126D01*
X131017814Y-115389970D01*
X131097379Y-115325374D01*
X131194738Y-115283510D01*
X131329540Y-115263275D01*
X131658799Y-115253346D01*
X132293464Y-115253346D01*
X132711120Y-117262000D01*
G37*
G36*
X130812131Y-116621106D02*
G01*
X130419145Y-116582027D01*
X130411025Y-116708349D01*
X130382533Y-116800261D01*
X130337323Y-116866448D01*
X130273177Y-116914523D01*
X130186321Y-116945649D01*
X130069511Y-116957184D01*
X129944377Y-116947063D01*
X129844409Y-116919149D01*
X129764574Y-116875729D01*
X129696353Y-116815654D01*
X129652111Y-116752579D01*
X129628042Y-116685220D01*
X129625004Y-116618828D01*
X129644040Y-116566152D01*
X129685916Y-116523439D01*
X129768726Y-116480667D01*
X130066824Y-116391762D01*
X130264969Y-116325141D01*
X130393634Y-116257811D01*
X130471535Y-116191361D01*
X130531915Y-116104078D01*
X130567787Y-116009244D01*
X130580209Y-115904134D01*
X130567522Y-115785185D01*
X130537761Y-115686173D01*
X130490012Y-115590413D01*
X130422686Y-115496856D01*
X130341439Y-115415108D01*
X130246303Y-115347059D01*
X130135579Y-115292303D01*
X130017421Y-115254216D01*
X129884791Y-115230396D01*
X129735509Y-115222083D01*
X129547349Y-115234901D01*
X129403716Y-115269371D01*
X129295306Y-115321130D01*
X129214783Y-115388290D01*
X129152924Y-115475288D01*
X129114501Y-115575572D01*
X129099587Y-115692783D01*
X129111102Y-115831713D01*
X129510073Y-115847345D01*
X129515258Y-115746749D01*
X129537281Y-115675482D01*
X129572843Y-115625695D01*
X129623862Y-115590987D01*
X129699657Y-115567296D01*
X129809270Y-115558161D01*
X129922332Y-115566998D01*
X130016215Y-115591758D01*
X130094424Y-115630824D01*
X130137143Y-115666072D01*
X130166184Y-115707195D01*
X130183084Y-115755387D01*
X130185933Y-115801336D01*
X130174920Y-115841240D01*
X130149745Y-115877387D01*
X130101515Y-115912345D01*
X129999598Y-115956903D01*
X129814399Y-116012575D01*
X129561178Y-116090722D01*
X129417627Y-116158022D01*
X129343077Y-116214352D01*
X129285602Y-116281834D01*
X129243604Y-116361842D01*
X129220284Y-116449418D01*
X129215206Y-116554426D01*
X129231758Y-116681312D01*
X129264911Y-116792101D01*
X129317908Y-116899348D01*
X129392470Y-117004201D01*
X129482280Y-117095785D01*
X129585432Y-117170088D01*
X129703513Y-117227928D01*
X129829822Y-117267250D01*
X129975977Y-117292239D01*
X130145104Y-117301078D01*
X130333645Y-117287948D01*
X130480256Y-117252324D01*
X130593373Y-117198266D01*
X130679630Y-117127422D01*
X130745790Y-117036494D01*
X130791124Y-116925289D01*
X130814473Y-116788918D01*
X130812131Y-116621106D01*
G37*
G36*
X128179169Y-115264905D02*
G01*
X128303944Y-115299066D01*
X128422093Y-115356144D01*
X128535177Y-115437872D01*
X128632561Y-115536508D01*
X128710960Y-115649127D01*
X128771252Y-115777451D01*
X128813248Y-115923915D01*
X128831821Y-116070525D01*
X128824476Y-116194803D01*
X128794594Y-116301298D01*
X128743272Y-116393716D01*
X128671281Y-116473155D01*
X128588681Y-116528637D01*
X128493383Y-116562434D01*
X128381915Y-116574212D01*
X128279673Y-116564071D01*
X128181828Y-116533681D01*
X128086612Y-116481919D01*
X127992714Y-116406173D01*
X128067369Y-116639647D01*
X128134162Y-116785128D01*
X128192993Y-116868158D01*
X128268224Y-116933385D01*
X128341113Y-116969179D01*
X128414155Y-116980632D01*
X128473044Y-116973782D01*
X128517500Y-116954991D01*
X128551053Y-116925066D01*
X128573177Y-116885330D01*
X128585372Y-116830099D01*
X128584881Y-116753974D01*
X128957107Y-116795740D01*
X128954331Y-116923400D01*
X128934710Y-117026042D01*
X128900904Y-117108448D01*
X128854036Y-117174438D01*
X128792589Y-117227603D01*
X128716807Y-117266899D01*
X128623617Y-117292028D01*
X128508921Y-117301078D01*
X128354665Y-117286099D01*
X128210092Y-117241624D01*
X128072437Y-117166616D01*
X127939713Y-117057812D01*
X127853539Y-116959403D01*
X127773257Y-116835451D01*
X127699375Y-116681754D01*
X127632980Y-116493403D01*
X127575669Y-116264878D01*
X127537267Y-116030560D01*
X127526161Y-115843536D01*
X127526752Y-115835166D01*
X127918286Y-115835166D01*
X127932508Y-115956033D01*
X127963842Y-116062678D01*
X128006315Y-116144931D01*
X128058904Y-116207359D01*
X128124011Y-116256010D01*
X128190120Y-116283726D01*
X128259061Y-116292844D01*
X128329081Y-116282534D01*
X128384051Y-116253251D01*
X128427711Y-116203939D01*
X128452799Y-116141836D01*
X128460661Y-116052466D01*
X128444563Y-115925258D01*
X128410232Y-115803408D01*
X128368103Y-115716242D01*
X128319877Y-115655981D01*
X128258883Y-115609310D01*
X128196103Y-115582618D01*
X128129734Y-115573793D01*
X128062152Y-115584845D01*
X128005711Y-115617299D01*
X127957421Y-115674055D01*
X127928264Y-115743688D01*
X127918286Y-115835166D01*
X127526752Y-115835166D01*
X127536610Y-115695653D01*
X127564098Y-115579623D01*
X127605589Y-115489163D01*
X127668984Y-115403898D01*
X127742958Y-115339090D01*
X127828704Y-115292496D01*
X127928543Y-115263533D01*
X128045715Y-115253346D01*
X128179169Y-115264905D01*
G37*
G36*
X126163702Y-116902474D02*
G01*
X126238440Y-117262000D01*
X127554665Y-117262000D01*
X127504284Y-117131663D01*
X127435517Y-117004541D01*
X127347058Y-116879882D01*
X127242595Y-116764135D01*
X127075104Y-116607818D01*
X126825111Y-116400921D01*
X126551815Y-116175505D01*
X126445802Y-116073880D01*
X126383800Y-115991178D01*
X126342749Y-115913482D01*
X126319528Y-115839529D01*
X126310712Y-115754954D01*
X126320735Y-115691243D01*
X126346151Y-115642669D01*
X126386571Y-115605885D01*
X126442237Y-115582456D01*
X126518342Y-115573793D01*
X126593980Y-115582060D01*
X126660662Y-115606120D01*
X126720453Y-115646211D01*
X126768855Y-115699873D01*
X126812575Y-115777710D01*
X126850512Y-115886424D01*
X127216755Y-115848200D01*
X127156264Y-115691590D01*
X127084889Y-115566353D01*
X127003530Y-115467662D01*
X126912062Y-115391832D01*
X126806474Y-115331602D01*
X126693900Y-115288540D01*
X126573026Y-115262311D01*
X126442260Y-115253346D01*
X126297169Y-115264957D01*
X126182157Y-115296864D01*
X126091167Y-115346275D01*
X126019720Y-115412715D01*
X125965549Y-115495618D01*
X125933438Y-115587322D01*
X125923009Y-115690596D01*
X125936311Y-115808999D01*
X125975389Y-115940115D01*
X126037184Y-116065698D01*
X126120779Y-116185832D01*
X126240638Y-116320932D01*
X126344780Y-116417008D01*
X126539469Y-116575677D01*
X126810457Y-116796228D01*
X126909375Y-116902474D01*
X126163702Y-116902474D01*
G37*
G36*
X126051594Y-117262000D02*
G01*
X125384078Y-116513273D01*
X125727972Y-115808266D01*
X125269528Y-115808266D01*
X125101489Y-116207969D01*
X124753688Y-115808266D01*
X124312707Y-115808266D01*
X124936992Y-116496787D01*
X124570872Y-117262000D01*
X125032002Y-117262000D01*
X125226908Y-116811616D01*
X125611835Y-117262000D01*
X126051594Y-117262000D01*
G37*
G36*
X123524780Y-117262000D02*
G01*
X123112009Y-115276794D01*
X122716458Y-115276794D01*
X123059375Y-116925921D01*
X122075809Y-116925921D01*
X122145662Y-117262000D01*
X123524780Y-117262000D01*
G37*
G36*
X121113429Y-115781884D02*
G01*
X121242404Y-115819657D01*
X121366110Y-115883363D01*
X121486207Y-115975572D01*
X121587489Y-116084864D01*
X121671853Y-116214378D01*
X121739410Y-116366918D01*
X121789190Y-116546124D01*
X121811573Y-116702126D01*
X121811273Y-116835905D01*
X121791437Y-116951218D01*
X121753897Y-117051340D01*
X121696301Y-117138372D01*
X121621392Y-117206235D01*
X121526624Y-117256709D01*
X121407522Y-117289259D01*
X121258084Y-117301078D01*
X121105422Y-117288149D01*
X120968826Y-117250653D01*
X120845314Y-117189215D01*
X120735146Y-117105376D01*
X120636704Y-116997837D01*
X120549535Y-116863395D01*
X120910648Y-116800869D01*
X120970672Y-116896514D01*
X121033869Y-116955963D01*
X121108143Y-116991937D01*
X121192260Y-117004079D01*
X121273760Y-116992958D01*
X121337926Y-116961554D01*
X121388998Y-116909435D01*
X121421301Y-116843070D01*
X121434612Y-116757057D01*
X121424780Y-116644554D01*
X120484078Y-116644554D01*
X120450721Y-116454235D01*
X120441867Y-116298570D01*
X120441889Y-116298318D01*
X120797867Y-116298318D01*
X120808066Y-116410080D01*
X121369459Y-116410080D01*
X121339492Y-116308485D01*
X121295644Y-116225757D01*
X121238300Y-116158755D01*
X121167819Y-116106426D01*
X121094339Y-116076235D01*
X121015795Y-116066187D01*
X120943725Y-116076344D01*
X120885998Y-116105293D01*
X120839085Y-116153870D01*
X120809777Y-116215461D01*
X120797867Y-116298318D01*
X120441889Y-116298318D01*
X120452865Y-116171740D01*
X120480247Y-116068557D01*
X120521936Y-115984609D01*
X120582646Y-115908780D01*
X120656154Y-115849831D01*
X120744266Y-115806478D01*
X120849918Y-115778992D01*
X120976960Y-115769187D01*
X121113429Y-115781884D01*
G37*
G36*
X119078583Y-115971420D02*
G01*
X119152600Y-115881513D01*
X119237247Y-115819547D01*
X119334550Y-115782160D01*
X119448244Y-115769187D01*
X119573567Y-115781067D01*
X119692260Y-115816461D01*
X119806408Y-115876288D01*
X119917557Y-115963116D01*
X120009949Y-116065442D01*
X120089097Y-116191312D01*
X120154604Y-116344483D01*
X120205031Y-116529637D01*
X120230919Y-116717055D01*
X120227038Y-116869828D01*
X120198684Y-116994744D01*
X120148733Y-117097502D01*
X120074473Y-117187677D01*
X119988697Y-117250083D01*
X119889227Y-117287905D01*
X119772110Y-117301078D01*
X119652104Y-117285886D01*
X119520296Y-117237209D01*
X119395451Y-117159725D01*
X119275931Y-117048898D01*
X119320261Y-117262000D01*
X118971482Y-117262000D01*
X118786762Y-116373615D01*
X119173462Y-116373615D01*
X119196674Y-116545635D01*
X119238940Y-116693715D01*
X119293615Y-116805890D01*
X119358974Y-116889163D01*
X119440677Y-116955264D01*
X119521343Y-116992138D01*
X119603461Y-117004079D01*
X119679978Y-116994058D01*
X119740261Y-116965852D01*
X119788250Y-116919368D01*
X119825355Y-116850817D01*
X119841482Y-116778443D01*
X119841369Y-116668749D01*
X119816929Y-116507900D01*
X119775953Y-116365447D01*
X119722412Y-116257358D01*
X119657927Y-116176951D01*
X119577386Y-116113715D01*
X119495875Y-116077921D01*
X119410997Y-116066187D01*
X119325700Y-116079202D01*
X119259823Y-116116079D01*
X119208520Y-116178416D01*
X119180626Y-116256442D01*
X119173462Y-116373615D01*
X118786762Y-116373615D01*
X118553827Y-115253346D01*
X118929228Y-115253346D01*
X119078583Y-115971420D01*
G37*
G36*
X117784340Y-117262000D02*
G01*
X117040010Y-117262000D01*
X116831177Y-117250201D01*
X116681217Y-117219501D01*
X116559714Y-117174472D01*
X116456670Y-117120856D01*
X116369808Y-117059156D01*
X116267656Y-116962180D01*
X116173134Y-116844739D01*
X116086242Y-116704393D01*
X116028356Y-116581955D01*
X115978403Y-116440246D01*
X115937254Y-116276846D01*
X115905880Y-116086767D01*
X115895671Y-115930287D01*
X115897379Y-115899124D01*
X116307648Y-115899124D01*
X116307933Y-116036788D01*
X116342208Y-116258406D01*
X116399339Y-116478755D01*
X116459200Y-116627945D01*
X116533619Y-116750226D01*
X116603182Y-116822729D01*
X116684513Y-116872835D01*
X116780380Y-116906626D01*
X116868935Y-116920166D01*
X117023646Y-116925921D01*
X117319057Y-116925921D01*
X117041231Y-115589424D01*
X116863422Y-115589424D01*
X116641650Y-115595616D01*
X116542609Y-115608720D01*
X116475488Y-115631208D01*
X116421815Y-115662926D01*
X116379333Y-115703730D01*
X116347302Y-115753454D01*
X116323016Y-115817469D01*
X116307648Y-115899124D01*
X115897379Y-115899124D01*
X115902693Y-115802160D01*
X115927636Y-115676848D01*
X115967674Y-115569245D01*
X116022006Y-115476706D01*
X116092695Y-115397231D01*
X116177652Y-115335905D01*
X116279071Y-115291692D01*
X116414881Y-115264654D01*
X116643848Y-115253346D01*
X117366685Y-115253346D01*
X117784340Y-117262000D01*
G37*
G36*
X115405903Y-117262000D02*
G01*
X115781427Y-117262000D01*
X115479176Y-115808266D01*
X115130397Y-115808266D01*
X115173262Y-116014529D01*
X115053894Y-115883973D01*
X114971517Y-115818769D01*
X114886902Y-115781421D01*
X114798960Y-115769187D01*
X114715733Y-115777306D01*
X114638838Y-115801275D01*
X114566685Y-115841483D01*
X114752431Y-116175852D01*
X114836651Y-116127843D01*
X114915830Y-116113081D01*
X114990996Y-116124305D01*
X115058712Y-116157900D01*
X115116603Y-116215319D01*
X115178513Y-116319711D01*
X115231108Y-116469745D01*
X115311992Y-116810150D01*
X115405903Y-117262000D01*
G37*
G36*
X114332456Y-115605056D02*
G01*
X114259305Y-115253346D01*
X113883904Y-115253346D01*
X113957055Y-115605056D01*
X114332456Y-115605056D01*
G37*
G36*
X114676960Y-117262000D02*
G01*
X114374710Y-115808266D01*
X113999309Y-115808266D01*
X114301559Y-117262000D01*
X114676960Y-117262000D01*
G37*
G36*
X113509113Y-117262000D02*
G01*
X113778879Y-115808266D01*
X113384672Y-115808266D01*
X113271587Y-116550154D01*
X113245575Y-116797938D01*
X113180973Y-116673374D01*
X113115150Y-116550154D01*
X112691022Y-115808266D01*
X112304874Y-115808266D01*
X113170959Y-117262000D01*
X113509113Y-117262000D01*
G37*
G36*
X111628991Y-115781884D02*
G01*
X111757966Y-115819657D01*
X111881672Y-115883363D01*
X112001769Y-115975572D01*
X112103051Y-116084864D01*
X112187415Y-116214378D01*
X112254972Y-116366918D01*
X112304752Y-116546124D01*
X112327134Y-116702126D01*
X112326835Y-116835905D01*
X112306999Y-116951218D01*
X112269459Y-117051340D01*
X112211863Y-117138372D01*
X112136953Y-117206235D01*
X112042186Y-117256709D01*
X111923083Y-117289259D01*
X111773646Y-117301078D01*
X111620984Y-117288149D01*
X111484387Y-117250653D01*
X111360875Y-117189215D01*
X111250708Y-117105376D01*
X111152266Y-116997837D01*
X111065097Y-116863395D01*
X111426210Y-116800869D01*
X111486234Y-116896514D01*
X111549431Y-116955963D01*
X111623705Y-116991937D01*
X111707822Y-117004079D01*
X111789321Y-116992958D01*
X111853488Y-116961554D01*
X111904560Y-116909435D01*
X111936863Y-116843070D01*
X111950174Y-116757057D01*
X111940341Y-116644554D01*
X110999640Y-116644554D01*
X110966282Y-116454235D01*
X110957429Y-116298570D01*
X110957451Y-116298318D01*
X111313428Y-116298318D01*
X111323628Y-116410080D01*
X111885020Y-116410080D01*
X111855054Y-116308485D01*
X111811206Y-116225757D01*
X111753862Y-116158755D01*
X111683380Y-116106426D01*
X111609901Y-116076235D01*
X111531357Y-116066187D01*
X111459286Y-116076344D01*
X111401560Y-116105293D01*
X111354647Y-116153870D01*
X111325338Y-116215461D01*
X111313428Y-116298318D01*
X110957451Y-116298318D01*
X110968427Y-116171740D01*
X110995809Y-116068557D01*
X111037498Y-115984609D01*
X111098207Y-115908780D01*
X111171716Y-115849831D01*
X111259828Y-115806478D01*
X111365480Y-115778992D01*
X111492522Y-115769187D01*
X111628991Y-115781884D01*
G37*
G36*
X110429211Y-117262000D02*
G01*
X110804734Y-117262000D01*
X110502484Y-115808266D01*
X110153705Y-115808266D01*
X110196570Y-116014529D01*
X110077202Y-115883973D01*
X109994825Y-115818769D01*
X109910210Y-115781421D01*
X109822267Y-115769187D01*
X109739041Y-115777306D01*
X109662146Y-115801275D01*
X109589993Y-115841483D01*
X109775739Y-116175852D01*
X109859958Y-116127843D01*
X109939138Y-116113081D01*
X110014304Y-116124305D01*
X110082020Y-116157900D01*
X110139911Y-116215319D01*
X110201821Y-116319711D01*
X110254415Y-116469745D01*
X110335300Y-116810150D01*
X110429211Y-117262000D01*
G37*
G36*
X134044097Y-118972800D02*
G01*
X133597499Y-118972800D01*
X133472200Y-118965721D01*
X133382224Y-118947301D01*
X133309322Y-118920283D01*
X133247495Y-118888114D01*
X133195378Y-118851093D01*
X133134087Y-118792908D01*
X133077374Y-118722443D01*
X133025238Y-118638236D01*
X132990507Y-118564773D01*
X132960535Y-118479748D01*
X132935846Y-118381707D01*
X132917021Y-118267660D01*
X132910896Y-118173772D01*
X132911921Y-118155074D01*
X133158082Y-118155074D01*
X133158253Y-118237672D01*
X133178818Y-118370643D01*
X133213097Y-118502853D01*
X133249014Y-118592367D01*
X133293665Y-118665736D01*
X133335402Y-118709237D01*
X133384201Y-118739301D01*
X133441721Y-118759575D01*
X133494854Y-118767700D01*
X133587681Y-118771153D01*
X133764928Y-118771153D01*
X133598232Y-117969254D01*
X133491547Y-117969254D01*
X133358483Y-117972970D01*
X133299059Y-117980832D01*
X133258786Y-117994324D01*
X133226583Y-118013356D01*
X133201093Y-118037838D01*
X133181875Y-118067672D01*
X133167303Y-118106081D01*
X133158082Y-118155074D01*
X132911921Y-118155074D01*
X132915109Y-118096896D01*
X132930075Y-118021709D01*
X132954098Y-117957147D01*
X132986697Y-117901624D01*
X133029111Y-117853939D01*
X133080085Y-117817143D01*
X133140936Y-117790615D01*
X133222422Y-117774392D01*
X133359802Y-117767608D01*
X133793504Y-117767608D01*
X134044097Y-118972800D01*
G37*
G36*
X132403700Y-118084730D02*
G01*
X132481085Y-118107394D01*
X132555309Y-118145618D01*
X132627367Y-118200943D01*
X132688136Y-118266518D01*
X132738755Y-118344226D01*
X132779289Y-118435751D01*
X132809157Y-118543274D01*
X132822586Y-118636875D01*
X132822407Y-118717143D01*
X132810505Y-118786331D01*
X132787981Y-118846404D01*
X132753424Y-118898623D01*
X132708478Y-118939341D01*
X132651617Y-118969625D01*
X132580156Y-118989155D01*
X132490493Y-118996247D01*
X132398896Y-118988489D01*
X132316938Y-118965992D01*
X132242831Y-118929129D01*
X132176730Y-118878826D01*
X132117665Y-118814302D01*
X132065364Y-118733637D01*
X132282032Y-118696121D01*
X132318046Y-118753508D01*
X132355964Y-118789178D01*
X132400529Y-118810762D01*
X132450999Y-118818047D01*
X132499899Y-118811374D01*
X132538398Y-118792532D01*
X132569042Y-118761261D01*
X132588423Y-118721442D01*
X132596410Y-118669834D01*
X132590511Y-118602332D01*
X132026090Y-118602332D01*
X132006075Y-118488141D01*
X132000763Y-118394742D01*
X132000776Y-118394590D01*
X132214363Y-118394590D01*
X132220483Y-118461648D01*
X132557318Y-118461648D01*
X132539338Y-118400691D01*
X132513029Y-118351054D01*
X132478623Y-118310853D01*
X132436334Y-118279455D01*
X132392246Y-118261341D01*
X132345120Y-118255312D01*
X132301878Y-118261406D01*
X132267242Y-118278776D01*
X132239094Y-118307922D01*
X132221509Y-118344877D01*
X132214363Y-118394590D01*
X132000776Y-118394590D01*
X132007362Y-118318644D01*
X132023791Y-118256734D01*
X132048804Y-118206365D01*
X132085230Y-118160868D01*
X132129335Y-118125499D01*
X132182202Y-118099487D01*
X132245594Y-118082995D01*
X132321819Y-118077112D01*
X132403700Y-118084730D01*
G37*
G36*
X131927245Y-118724258D02*
G01*
X131695263Y-118696121D01*
X131690367Y-118739095D01*
X131677655Y-118772133D01*
X131657820Y-118797531D01*
X131630989Y-118815582D01*
X131593405Y-118827588D01*
X131541536Y-118832116D01*
X131484028Y-118827882D01*
X131438672Y-118816310D01*
X131403051Y-118798557D01*
X131374954Y-118770978D01*
X131360259Y-118735762D01*
X131359311Y-118710489D01*
X131367147Y-118691285D01*
X131386712Y-118677184D01*
X131436024Y-118660291D01*
X131612392Y-118611728D01*
X131710558Y-118574249D01*
X131757838Y-118545985D01*
X131793568Y-118507294D01*
X131815243Y-118462748D01*
X131823722Y-118410461D01*
X131817629Y-118347636D01*
X131800988Y-118293260D01*
X131774715Y-118243513D01*
X131738217Y-118197620D01*
X131690280Y-118155148D01*
X131637220Y-118122807D01*
X131573148Y-118098433D01*
X131495938Y-118082744D01*
X131403051Y-118077112D01*
X131312217Y-118081867D01*
X131243579Y-118094522D01*
X131192641Y-118113111D01*
X131155608Y-118136390D01*
X131115409Y-118180551D01*
X131088328Y-118237736D01*
X131074935Y-118311585D01*
X131296146Y-118353790D01*
X131306385Y-118304381D01*
X131330437Y-118270259D01*
X131353648Y-118255219D01*
X131386757Y-118245093D01*
X131433093Y-118241243D01*
X131492392Y-118244751D01*
X131535457Y-118253940D01*
X131566010Y-118267255D01*
X131589963Y-118288839D01*
X131601547Y-118314956D01*
X131600813Y-118338261D01*
X131588065Y-118357747D01*
X131544102Y-118379665D01*
X131391327Y-118423986D01*
X131278073Y-118458919D01*
X131205216Y-118493922D01*
X131161617Y-118528033D01*
X131138633Y-118560540D01*
X131124816Y-118599002D01*
X131120430Y-118645150D01*
X131127032Y-118701250D01*
X131144743Y-118758353D01*
X131173437Y-118811599D01*
X131214033Y-118861766D01*
X131268155Y-118909272D01*
X131327677Y-118945774D01*
X131397473Y-118972906D01*
X131479396Y-118990132D01*
X131575682Y-118996247D01*
X131664221Y-118990778D01*
X131735058Y-118975799D01*
X131791394Y-118952936D01*
X131835873Y-118923047D01*
X131873574Y-118883595D01*
X131901166Y-118838121D01*
X131919179Y-118785539D01*
X131927245Y-118724258D01*
G37*
G36*
X130759569Y-117978633D02*
G01*
X130715678Y-117767608D01*
X130490437Y-117767608D01*
X130534328Y-117978633D01*
X130759569Y-117978633D01*
G37*
G36*
X130966271Y-118972800D02*
G01*
X130784921Y-118100559D01*
X130559680Y-118100559D01*
X130741030Y-118972800D01*
X130966271Y-118972800D01*
G37*
G36*
X130078707Y-118084178D02*
G01*
X130149313Y-118105308D01*
X130217816Y-118141168D01*
X130285127Y-118193396D01*
X130341231Y-118254856D01*
X130388986Y-118329933D01*
X130428219Y-118420741D01*
X130458124Y-118529938D01*
X130471202Y-118619738D01*
X130471638Y-118697318D01*
X130461125Y-118764669D01*
X130440685Y-118823543D01*
X130408213Y-118878142D01*
X130368878Y-118919057D01*
X130322144Y-118948244D01*
X130266527Y-118966383D01*
X130199764Y-118972800D01*
X130126809Y-118964419D01*
X130055987Y-118939008D01*
X129985731Y-118894902D01*
X129914952Y-118828892D01*
X129941697Y-118957559D01*
X129959764Y-119029108D01*
X129974377Y-119064684D01*
X130001261Y-119100525D01*
X130031529Y-119123595D01*
X130086981Y-119143330D01*
X130169575Y-119150999D01*
X130215017Y-119147356D01*
X130245430Y-119138057D01*
X130265050Y-119124694D01*
X130278020Y-119101391D01*
X130280730Y-119057210D01*
X130532276Y-119029073D01*
X130538871Y-119057356D01*
X130544934Y-119115910D01*
X130538226Y-119166661D01*
X130519717Y-119211619D01*
X130488825Y-119252262D01*
X130449761Y-119282034D01*
X130392369Y-119306103D01*
X130310758Y-119322804D01*
X130197712Y-119329199D01*
X130087744Y-119322506D01*
X130003026Y-119304506D01*
X129927820Y-119274265D01*
X129868937Y-119236215D01*
X129819640Y-119186080D01*
X129774195Y-119116048D01*
X129738411Y-119028910D01*
X129701215Y-118884799D01*
X129607052Y-118431842D01*
X129835821Y-118431842D01*
X129847248Y-118522758D01*
X129871751Y-118606514D01*
X129904619Y-118670680D01*
X129944994Y-118718982D01*
X129995084Y-118756733D01*
X130045732Y-118778181D01*
X130098354Y-118785221D01*
X130146026Y-118777849D01*
X130183869Y-118756722D01*
X130214345Y-118720668D01*
X130231564Y-118675656D01*
X130236617Y-118610367D01*
X130224530Y-118516969D01*
X130199988Y-118431095D01*
X130168473Y-118366873D01*
X130131034Y-118319938D01*
X130084065Y-118283230D01*
X130035572Y-118262251D01*
X129984122Y-118255312D01*
X129932142Y-118262978D01*
X129891673Y-118284688D01*
X129859851Y-118321184D01*
X129841560Y-118367028D01*
X129835821Y-118431842D01*
X129607052Y-118431842D01*
X129538183Y-118100559D01*
X129749063Y-118100559D01*
X129773975Y-118220507D01*
X129807578Y-118167536D01*
X129846675Y-118128085D01*
X129891683Y-118100215D01*
X129943781Y-118083099D01*
X130004785Y-118077112D01*
X130078707Y-118084178D01*
G37*
G36*
X128699282Y-118972800D02*
G01*
X128924670Y-118972800D01*
X128831833Y-118526348D01*
X128809591Y-118396308D01*
X128808166Y-118343093D01*
X128819764Y-118305472D01*
X128841652Y-118278393D01*
X128872672Y-118261444D01*
X128914998Y-118255312D01*
X128971713Y-118263410D01*
X129026885Y-118288284D01*
X129074138Y-118326660D01*
X129108804Y-118375552D01*
X129134512Y-118442038D01*
X129167789Y-118576540D01*
X129250148Y-118972800D01*
X129475462Y-118972800D01*
X129294111Y-118100559D01*
X129084844Y-118100559D01*
X129111442Y-118228421D01*
X129034540Y-118159353D01*
X128957743Y-118112913D01*
X128879898Y-118086014D01*
X128799373Y-118077112D01*
X128728033Y-118084326D01*
X128668801Y-118104736D01*
X128619817Y-118137334D01*
X128590033Y-118175298D01*
X128572893Y-118220362D01*
X128566219Y-118272604D01*
X128569837Y-118332491D01*
X128586149Y-118428455D01*
X128699282Y-118972800D01*
G37*
G36*
X128019053Y-118084730D02*
G01*
X128096438Y-118107394D01*
X128170661Y-118145618D01*
X128242719Y-118200943D01*
X128303489Y-118266518D01*
X128354107Y-118344226D01*
X128394641Y-118435751D01*
X128424509Y-118543274D01*
X128437939Y-118636875D01*
X128437759Y-118717143D01*
X128425857Y-118786331D01*
X128403333Y-118846404D01*
X128368776Y-118898623D01*
X128323830Y-118939341D01*
X128266970Y-118969625D01*
X128195508Y-118989155D01*
X128105846Y-118996247D01*
X128014248Y-118988489D01*
X127932291Y-118965992D01*
X127858183Y-118929129D01*
X127792083Y-118878826D01*
X127733018Y-118814302D01*
X127680716Y-118733637D01*
X127897384Y-118696121D01*
X127933398Y-118753508D01*
X127971317Y-118789178D01*
X128015881Y-118810762D01*
X128066351Y-118818047D01*
X128115251Y-118811374D01*
X128153751Y-118792532D01*
X128184394Y-118761261D01*
X128203776Y-118721442D01*
X128211763Y-118669834D01*
X128205863Y-118602332D01*
X127641442Y-118602332D01*
X127621428Y-118488141D01*
X127616116Y-118394742D01*
X127616129Y-118394590D01*
X127829715Y-118394590D01*
X127835835Y-118461648D01*
X128172670Y-118461648D01*
X128154691Y-118400691D01*
X128128382Y-118351054D01*
X128093975Y-118310853D01*
X128051686Y-118279455D01*
X128007599Y-118261341D01*
X127960472Y-118255312D01*
X127917230Y-118261406D01*
X127882594Y-118278776D01*
X127854446Y-118307922D01*
X127836861Y-118344877D01*
X127829715Y-118394590D01*
X127616129Y-118394590D01*
X127622714Y-118318644D01*
X127639144Y-118256734D01*
X127664157Y-118206365D01*
X127700583Y-118160868D01*
X127744688Y-118125499D01*
X127797555Y-118099487D01*
X127860946Y-118082995D01*
X127937171Y-118077112D01*
X128019053Y-118084730D01*
G37*
G36*
X126798145Y-118198452D02*
G01*
X126842555Y-118144508D01*
X126893343Y-118107328D01*
X126951725Y-118084896D01*
X127019942Y-118077112D01*
X127095136Y-118084240D01*
X127166351Y-118105476D01*
X127234840Y-118141373D01*
X127301529Y-118193469D01*
X127356965Y-118254865D01*
X127404453Y-118330387D01*
X127443757Y-118422290D01*
X127474014Y-118533382D01*
X127489547Y-118645833D01*
X127487218Y-118737496D01*
X127470205Y-118812446D01*
X127440235Y-118874101D01*
X127395679Y-118928206D01*
X127344213Y-118965650D01*
X127284531Y-118988343D01*
X127214261Y-118996247D01*
X127142257Y-118987131D01*
X127063173Y-118957925D01*
X126988266Y-118911435D01*
X126916554Y-118844938D01*
X126943152Y-118972800D01*
X126733885Y-118972800D01*
X126623053Y-118439769D01*
X126855072Y-118439769D01*
X126869000Y-118542981D01*
X126894359Y-118631829D01*
X126927164Y-118699134D01*
X126966379Y-118749097D01*
X127015401Y-118788758D01*
X127063801Y-118810883D01*
X127113072Y-118818047D01*
X127158982Y-118812035D01*
X127195152Y-118795111D01*
X127223945Y-118767221D01*
X127246208Y-118726090D01*
X127255884Y-118682666D01*
X127255817Y-118616849D01*
X127241153Y-118520340D01*
X127216567Y-118434868D01*
X127184442Y-118370015D01*
X127145751Y-118321770D01*
X127097427Y-118283829D01*
X127048520Y-118262353D01*
X126997594Y-118255312D01*
X126946415Y-118263121D01*
X126906889Y-118285247D01*
X126876107Y-118322649D01*
X126859371Y-118369465D01*
X126855072Y-118439769D01*
X126623053Y-118439769D01*
X126483291Y-117767608D01*
X126708532Y-117767608D01*
X126798145Y-118198452D01*
G37*
G36*
X126032077Y-118972800D02*
G01*
X125822810Y-118972800D01*
X125796212Y-118844938D01*
X125768612Y-118890554D01*
X125735731Y-118927598D01*
X125697294Y-118957046D01*
X125654071Y-118978914D01*
X125609062Y-118991887D01*
X125561519Y-118996247D01*
X125490360Y-118989022D01*
X125421172Y-118967212D01*
X125352711Y-118929760D01*
X125284035Y-118874541D01*
X125226977Y-118810433D01*
X125178399Y-118732702D01*
X125138487Y-118639282D01*
X125108033Y-118527594D01*
X125095789Y-118439515D01*
X125328096Y-118439515D01*
X125341920Y-118542102D01*
X125368116Y-118635236D01*
X125400573Y-118703282D01*
X125438054Y-118751589D01*
X125485295Y-118789854D01*
X125531758Y-118811160D01*
X125578885Y-118818047D01*
X125624375Y-118812029D01*
X125661019Y-118794929D01*
X125690957Y-118766509D01*
X125714952Y-118724405D01*
X125726518Y-118679256D01*
X125727782Y-118613637D01*
X125714220Y-118520340D01*
X125689420Y-118433724D01*
X125657371Y-118368704D01*
X125619111Y-118320964D01*
X125571154Y-118283580D01*
X125522172Y-118262314D01*
X125470734Y-118255312D01*
X125419555Y-118263121D01*
X125380029Y-118285247D01*
X125349248Y-118322649D01*
X125332448Y-118369459D01*
X125328096Y-118439515D01*
X125095789Y-118439515D01*
X125092408Y-118415197D01*
X125094615Y-118324880D01*
X125111250Y-118252207D01*
X125140420Y-118193469D01*
X125183848Y-118142806D01*
X125235880Y-118107039D01*
X125298195Y-118084930D01*
X125373574Y-118077112D01*
X125441845Y-118084205D01*
X125509195Y-118105763D01*
X125576856Y-118143064D01*
X125645783Y-118198452D01*
X125556170Y-117767608D01*
X125781484Y-117767608D01*
X126032077Y-118972800D01*
G37*
G36*
X124921847Y-118100559D02*
G01*
X124682171Y-118100559D01*
X124607653Y-118721400D01*
X124279610Y-118100559D01*
X124046383Y-118100559D01*
X124521631Y-118940486D01*
X124607433Y-119095019D01*
X124652979Y-119165867D01*
X124688180Y-119211229D01*
X124725149Y-119248084D01*
X124763431Y-119276369D01*
X124805990Y-119298187D01*
X124857367Y-119315277D01*
X124912670Y-119325592D01*
X124975263Y-119329199D01*
X125039314Y-119325688D01*
X125099900Y-119315350D01*
X125082608Y-119135539D01*
X125032747Y-119143755D01*
X124989405Y-119146310D01*
X124938960Y-119140667D01*
X124897574Y-119124695D01*
X124863229Y-119098682D01*
X124819740Y-119046098D01*
X124780284Y-118977489D01*
X124921847Y-118100559D01*
G37*
G36*
X123697018Y-118972800D02*
G01*
X123650197Y-118747705D01*
X122871013Y-117969254D01*
X123418728Y-117969254D01*
X123376742Y-117767608D01*
X122516299Y-117767608D01*
X122555354Y-117955186D01*
X123368902Y-118771153D01*
X122700214Y-118771153D01*
X122742126Y-118972800D01*
X123697018Y-118972800D01*
G37*
G36*
X122095860Y-117767608D02*
G01*
X122187670Y-118208930D01*
X122114787Y-118148660D01*
X122043244Y-118108165D01*
X121972003Y-118084797D01*
X121899708Y-118077112D01*
X121825622Y-118084907D01*
X121765545Y-118106788D01*
X121716626Y-118141668D01*
X121687070Y-118182698D01*
X121670618Y-118230773D01*
X121665015Y-118284987D01*
X121670039Y-118348377D01*
X121689562Y-118459010D01*
X121796393Y-118972800D01*
X122021781Y-118972800D01*
X121925720Y-118510668D01*
X121903898Y-118384819D01*
X121902273Y-118336058D01*
X121913159Y-118302587D01*
X121935245Y-118277147D01*
X121966813Y-118261239D01*
X122012109Y-118255312D01*
X122066554Y-118262276D01*
X122118134Y-118283302D01*
X122162945Y-118317747D01*
X122200200Y-118367786D01*
X122228062Y-118431705D01*
X122255375Y-118534555D01*
X122346453Y-118972800D01*
X122571840Y-118972800D01*
X122321247Y-117767608D01*
X122095860Y-117767608D01*
G37*
G36*
X121554813Y-118972800D02*
G01*
X121345545Y-118972800D01*
X121318947Y-118844938D01*
X121291347Y-118890554D01*
X121258466Y-118927598D01*
X121220029Y-118957046D01*
X121176806Y-118978914D01*
X121131798Y-118991887D01*
X121084254Y-118996247D01*
X121013095Y-118989022D01*
X120943907Y-118967212D01*
X120875446Y-118929760D01*
X120806770Y-118874541D01*
X120749713Y-118810433D01*
X120701135Y-118732702D01*
X120661223Y-118639282D01*
X120630769Y-118527594D01*
X120618525Y-118439515D01*
X120850832Y-118439515D01*
X120864656Y-118542102D01*
X120890852Y-118635236D01*
X120923308Y-118703282D01*
X120960790Y-118751589D01*
X121008031Y-118789854D01*
X121054494Y-118811160D01*
X121101620Y-118818047D01*
X121147111Y-118812029D01*
X121183754Y-118794929D01*
X121213692Y-118766509D01*
X121237688Y-118724405D01*
X121249254Y-118679256D01*
X121250517Y-118613637D01*
X121236955Y-118520340D01*
X121212156Y-118433724D01*
X121180106Y-118368704D01*
X121141847Y-118320964D01*
X121093890Y-118283580D01*
X121044908Y-118262314D01*
X120993469Y-118255312D01*
X120942291Y-118263121D01*
X120902765Y-118285247D01*
X120871983Y-118322649D01*
X120855184Y-118369459D01*
X120850832Y-118439515D01*
X120618525Y-118439515D01*
X120615144Y-118415197D01*
X120617351Y-118324880D01*
X120633985Y-118252207D01*
X120663155Y-118193469D01*
X120706583Y-118142806D01*
X120758616Y-118107039D01*
X120820930Y-118084930D01*
X120896310Y-118077112D01*
X120964581Y-118084205D01*
X121031931Y-118105763D01*
X121099591Y-118143064D01*
X121168518Y-118198452D01*
X121078906Y-117767608D01*
X121304220Y-117767608D01*
X121554813Y-118972800D01*
G37*
G36*
X120312618Y-117978633D02*
G01*
X120268728Y-117767608D01*
X120043487Y-117767608D01*
X120087377Y-117978633D01*
X120312618Y-117978633D01*
G37*
G36*
X120519321Y-118972800D02*
G01*
X120337970Y-118100559D01*
X120112730Y-118100559D01*
X120294080Y-118972800D01*
X120519321Y-118972800D01*
G37*
G36*
X119571155Y-117774543D02*
G01*
X119646020Y-117795039D01*
X119716910Y-117829286D01*
X119784760Y-117878323D01*
X119843191Y-117937505D01*
X119890230Y-118005076D01*
X119926405Y-118082070D01*
X119951603Y-118169949D01*
X119962746Y-118257915D01*
X119958339Y-118332481D01*
X119940410Y-118396379D01*
X119909617Y-118451830D01*
X119866422Y-118499493D01*
X119816862Y-118532782D01*
X119759684Y-118553060D01*
X119692803Y-118560127D01*
X119631458Y-118554042D01*
X119572751Y-118535808D01*
X119515621Y-118504751D01*
X119459282Y-118459303D01*
X119504075Y-118599388D01*
X119544151Y-118686676D01*
X119579450Y-118736495D01*
X119624588Y-118775631D01*
X119668322Y-118797107D01*
X119712147Y-118803979D01*
X119747480Y-118799869D01*
X119774154Y-118788594D01*
X119794286Y-118770640D01*
X119807560Y-118746798D01*
X119814877Y-118713659D01*
X119814582Y-118667984D01*
X120037918Y-118693044D01*
X120036253Y-118769640D01*
X120024480Y-118831225D01*
X120004197Y-118880669D01*
X119976076Y-118920263D01*
X119939207Y-118952162D01*
X119893738Y-118975739D01*
X119837824Y-118990817D01*
X119769007Y-118996247D01*
X119676453Y-118987259D01*
X119589709Y-118960574D01*
X119507116Y-118915570D01*
X119427482Y-118850287D01*
X119375777Y-118791241D01*
X119327608Y-118716870D01*
X119283279Y-118624652D01*
X119243442Y-118511641D01*
X119209056Y-118374527D01*
X119186014Y-118233936D01*
X119179351Y-118121721D01*
X119179706Y-118116700D01*
X119414626Y-118116700D01*
X119423159Y-118189220D01*
X119441959Y-118253206D01*
X119467443Y-118302558D01*
X119498996Y-118340015D01*
X119538061Y-118369206D01*
X119577726Y-118385835D01*
X119619090Y-118391306D01*
X119661103Y-118385120D01*
X119694085Y-118367550D01*
X119720280Y-118337963D01*
X119735333Y-118300702D01*
X119740050Y-118247079D01*
X119730392Y-118170755D01*
X119709793Y-118097645D01*
X119684516Y-118045345D01*
X119655580Y-118009188D01*
X119618984Y-117981186D01*
X119581316Y-117965170D01*
X119541495Y-117959876D01*
X119500945Y-117966507D01*
X119467081Y-117985979D01*
X119438107Y-118020033D01*
X119420612Y-118061813D01*
X119414626Y-118116700D01*
X119179706Y-118116700D01*
X119185620Y-118032992D01*
X119202113Y-117963373D01*
X119227007Y-117909097D01*
X119265044Y-117857939D01*
X119309429Y-117819054D01*
X119360877Y-117791097D01*
X119420780Y-117773720D01*
X119491083Y-117767608D01*
X119571155Y-117774543D01*
G37*
G36*
X118621875Y-117773570D02*
G01*
X118695412Y-117790611D01*
X118760020Y-117817944D01*
X118817046Y-117855462D01*
X118867472Y-117902871D01*
X118906787Y-117955292D01*
X118935894Y-118013324D01*
X118955092Y-118077918D01*
X118961321Y-118130209D01*
X118957946Y-118178140D01*
X118945493Y-118222779D01*
X118923168Y-118262490D01*
X118888836Y-118296958D01*
X118840054Y-118326606D01*
X118910510Y-118361237D01*
X118968394Y-118403153D01*
X119015322Y-118452416D01*
X119053564Y-118509061D01*
X119081575Y-118568549D01*
X119099879Y-118631495D01*
X119109135Y-118703633D01*
X119105989Y-118765785D01*
X119091915Y-118819915D01*
X119067411Y-118867649D01*
X119031955Y-118910151D01*
X118985297Y-118946482D01*
X118929538Y-118973235D01*
X118862858Y-118990198D01*
X118782901Y-118996247D01*
X118698179Y-118989507D01*
X118621170Y-118969863D01*
X118550484Y-118937595D01*
X118485047Y-118892199D01*
X118428011Y-118836293D01*
X118382681Y-118773213D01*
X118348346Y-118702100D01*
X118324945Y-118621676D01*
X118317316Y-118556405D01*
X118540095Y-118556405D01*
X118545936Y-118612517D01*
X118564509Y-118675101D01*
X118590250Y-118724001D01*
X118622653Y-118761700D01*
X118662594Y-118790875D01*
X118704269Y-118807739D01*
X118748829Y-118813358D01*
X118793571Y-118807077D01*
X118828764Y-118789303D01*
X118856760Y-118759649D01*
X118874004Y-118722149D01*
X118880357Y-118673601D01*
X118873319Y-118610099D01*
X118859830Y-118566174D01*
X118837784Y-118523923D01*
X118806348Y-118482824D01*
X118767961Y-118450253D01*
X118723523Y-118430845D01*
X118671086Y-118424132D01*
X118626257Y-118430241D01*
X118591389Y-118447406D01*
X118564035Y-118475790D01*
X118546722Y-118511829D01*
X118540095Y-118556405D01*
X118317316Y-118556405D01*
X118317129Y-118554809D01*
X118322147Y-118496149D01*
X118338867Y-118443843D01*
X118367431Y-118397442D01*
X118408166Y-118358541D01*
X118463211Y-118326606D01*
X118409698Y-118299856D01*
X118363218Y-118266686D01*
X118323040Y-118226882D01*
X118289828Y-118181147D01*
X118265453Y-118131716D01*
X118249548Y-118077918D01*
X118246503Y-118051073D01*
X118460385Y-118051073D01*
X118464530Y-118093818D01*
X118478188Y-118137744D01*
X118498543Y-118173377D01*
X118525566Y-118202116D01*
X118558429Y-118223778D01*
X118594968Y-118236779D01*
X118636282Y-118241243D01*
X118676700Y-118236469D01*
X118707007Y-118223391D01*
X118729705Y-118202555D01*
X118744187Y-118175210D01*
X118749948Y-118140192D01*
X118745312Y-118094624D01*
X118732339Y-118053409D01*
X118712347Y-118018917D01*
X118685155Y-117990064D01*
X118652157Y-117968175D01*
X118615312Y-117955020D01*
X118573487Y-117950497D01*
X118533657Y-117955296D01*
X118503613Y-117968490D01*
X118480943Y-117989624D01*
X118466283Y-118017138D01*
X118460385Y-118051073D01*
X118246503Y-118051073D01*
X118241902Y-118010521D01*
X118247697Y-117952316D01*
X118265644Y-117901179D01*
X118295856Y-117855462D01*
X118335795Y-117819115D01*
X118387417Y-117791849D01*
X118453499Y-117774103D01*
X118537730Y-117767608D01*
X118621875Y-117773570D01*
G37*
M02*
