%TF.GenerationSoftware,KiCad,Pcbnew,9.0.6*%
%TF.CreationDate,2026-01-19T13:30:55+08:00*%
%TF.ProjectId,Ledx10,4c656478-3130-42e6-9b69-6361645f7063,rev?*%
%TF.SameCoordinates,Original*%
%TF.FileFunction,Soldermask,Top*%
%TF.FilePolarity,Negative*%
%FSLAX46Y46*%
G04 Gerber Fmt 4.6, Leading zero omitted, Abs format (unit mm)*
G04 Created by KiCad (PCBNEW 9.0.6) date 2026-01-19 13:30:55*
%MOMM*%
%LPD*%
G01*
G04 APERTURE LIST*
G04 Aperture macros list*
%AMRoundRect*
0 Rectangle with rounded corners*
0 $1 Rounding radius*
0 $2 $3 $4 $5 $6 $7 $8 $9 X,Y pos of 4 corners*
0 Add a 4 corners polygon primitive as box body*
4,1,4,$2,$3,$4,$5,$6,$7,$8,$9,$2,$3,0*
0 Add four circle primitives for the rounded corners*
1,1,$1+$1,$2,$3*
1,1,$1+$1,$4,$5*
1,1,$1+$1,$6,$7*
1,1,$1+$1,$8,$9*
0 Add four rect primitives between the rounded corners*
20,1,$1+$1,$2,$3,$4,$5,0*
20,1,$1+$1,$4,$5,$6,$7,0*
20,1,$1+$1,$6,$7,$8,$9,0*
20,1,$1+$1,$8,$9,$2,$3,0*%
G04 Aperture macros list end*
%ADD10RoundRect,0.225000X0.330232X-0.286700X0.408374X0.156464X-0.330232X0.286700X-0.408374X-0.156464X0*%
%ADD11RoundRect,0.225000X0.298050X0.320025X-0.142116X0.413585X-0.298050X-0.320025X0.142116X-0.413585X0*%
%ADD12RoundRect,0.225000X0.434095X-0.053021X0.251064X0.358074X-0.434095X0.053021X-0.251064X-0.358074X0*%
%ADD13RoundRect,0.225000X-0.106066X0.424264X-0.424264X0.106066X0.106066X-0.424264X0.424264X-0.106066X0*%
%ADD14RoundRect,0.225000X-0.402448X-0.171130X-0.038391X-0.435633X0.402448X0.171130X0.038391X0.435633X0*%
%ADD15RoundRect,0.225000X0.362401X0.244776X-0.045437X0.434955X-0.362401X-0.244776X0.045437X-0.434955X0*%
%ADD16RoundRect,0.225000X0.212260X-0.382356X0.437260X0.007356X-0.212260X0.382356X-0.437260X-0.007356X0*%
%ADD17RoundRect,0.225000X0.156464X0.408374X-0.286700X0.330232X-0.156464X-0.408374X0.286700X-0.330232X0*%
%ADD18RoundRect,0.225000X-0.410853X-0.149833X-0.061137X-0.433027X0.410853X0.149833X0.061137X0.433027X0*%
%ADD19RoundRect,0.225000X-0.014986X-0.437065X0.378593X-0.218900X0.014986X0.437065X-0.378593X0.218900X0*%
%ADD20RoundRect,0.225000X0.205554X-0.386002X0.437321X-0.000277X-0.205554X0.386002X-0.437321X0.000277X0*%
%ADD21RoundRect,0.225000X-0.269024X-0.344784X0.177622X-0.399625X0.269024X0.344784X-0.177622X0.399625X0*%
%ADD22RoundRect,0.225000X-0.170620X-0.402664X0.275000X-0.340037X0.170620X0.402664X-0.275000X0.340037X0*%
%ADD23RoundRect,0.225000X-0.429339X0.083173X-0.275430X-0.339688X0.429339X-0.083173X0.275430X0.339688X0*%
%ADD24RoundRect,0.225000X0.429234X0.083716X0.128125X0.418132X-0.429234X-0.083716X-0.128125X-0.418132X0*%
%ADD25RoundRect,0.225000X0.030230X0.436275X-0.370723X0.231980X-0.030230X-0.436275X0.370723X-0.231980X0*%
%ADD26RoundRect,0.225000X0.416003X-0.134877X0.314775X0.303590X-0.416003X0.134877X-0.314775X-0.303590X0*%
%ADD27RoundRect,0.225000X0.106066X-0.424264X0.424264X-0.106066X-0.106066X0.424264X-0.424264X0.106066X0*%
%ADD28RoundRect,0.250000X0.475000X-0.250000X0.475000X0.250000X-0.475000X0.250000X-0.475000X-0.250000X0*%
%ADD29RoundRect,0.250000X-0.250000X-0.475000X0.250000X-0.475000X0.250000X0.475000X-0.250000X0.475000X0*%
%ADD30RoundRect,0.100000X0.054602X-1.138867X0.625236X-0.953457X-0.054602X1.138867X-0.625236X0.953457X0*%
%ADD31RoundRect,0.100000X-0.951582X-1.003153X1.359485X-0.252242X0.951582X1.003153X-1.359485X0.252242X0*%
%ADD32RoundRect,0.250000X1.045000X-0.785000X1.045000X0.785000X-1.045000X0.785000X-1.045000X-0.785000X0*%
%ADD33RoundRect,0.100000X-0.728994X0.876680X-1.073140X0.385188X0.728994X-0.876680X1.073140X-0.385188X0*%
%ADD34RoundRect,0.100000X0.156255X1.373830X-1.237536X-0.616709X-0.156255X-1.373830X1.237536X0.616709X0*%
%ADD35RoundRect,0.100000X-1.059044X-0.422406X-0.697955X-0.901587X1.059044X0.422406X0.697955X0.901587X0*%
%ADD36RoundRect,0.100000X-1.258305X0.573144X0.204106X-1.367540X1.258305X-0.573144X-0.204106X1.367540X0*%
%ADD37RoundRect,0.250000X0.450000X-0.262500X0.450000X0.262500X-0.450000X0.262500X-0.450000X-0.262500X0*%
%ADD38RoundRect,0.100000X-1.100000X0.300000X-1.100000X-0.300000X1.100000X-0.300000X1.100000X0.300000X0*%
%ADD39RoundRect,0.100000X-0.660000X1.215000X-0.660000X-1.215000X0.660000X-1.215000X0.660000X1.215000X0*%
%ADD40R,0.500000X0.250000*%
%ADD41R,0.900000X1.600000*%
%ADD42RoundRect,0.250000X-0.650000X1.000000X-0.650000X-1.000000X0.650000X-1.000000X0.650000X1.000000X0*%
%ADD43RoundRect,0.250000X-0.475000X0.250000X-0.475000X-0.250000X0.475000X-0.250000X0.475000X0.250000X0*%
%ADD44RoundRect,0.250000X1.000000X0.650000X-1.000000X0.650000X-1.000000X-0.650000X1.000000X-0.650000X0*%
%ADD45RoundRect,0.250000X-0.262500X-0.450000X0.262500X-0.450000X0.262500X0.450000X-0.262500X0.450000X0*%
%ADD46RoundRect,0.100000X-0.054602X1.138867X-0.625236X0.953457X0.054602X-1.138867X0.625236X-0.953457X0*%
%ADD47RoundRect,0.100000X0.951582X1.003153X-1.359485X0.252242X-0.951582X-1.003153X1.359485X-0.252242X0*%
%ADD48RoundRect,0.100000X-0.625236X-0.953457X-0.054602X-1.138867X0.625236X0.953457X0.054602X1.138867X0*%
%ADD49RoundRect,0.100000X-1.359485X-0.252242X0.951582X-1.003153X1.359485X0.252242X-0.951582X1.003153X0*%
%ADD50RoundRect,0.250000X0.262500X0.450000X-0.262500X0.450000X-0.262500X-0.450000X0.262500X-0.450000X0*%
%ADD51RoundRect,0.500000X-0.750000X-1.500000X0.750000X-1.500000X0.750000X1.500000X-0.750000X1.500000X0*%
%ADD52RoundRect,0.250000X-0.275000X-0.700000X0.275000X-0.700000X0.275000X0.700000X-0.275000X0.700000X0*%
%ADD53RoundRect,0.100000X1.100000X-0.300000X1.100000X0.300000X-1.100000X0.300000X-1.100000X-0.300000X0*%
%ADD54RoundRect,0.100000X0.660000X-1.215000X0.660000X1.215000X-0.660000X1.215000X-0.660000X-1.215000X0*%
%ADD55RoundRect,0.100000X1.059044X0.422406X0.697955X0.901587X-1.059044X-0.422406X-0.697955X-0.901587X0*%
%ADD56RoundRect,0.100000X1.258305X-0.573144X-0.204106X1.367540X-1.258305X0.573144X0.204106X-1.367540X0*%
%ADD57RoundRect,0.100000X0.697955X-0.901587X1.059044X-0.422406X-0.697955X0.901587X-1.059044X0.422406X0*%
%ADD58RoundRect,0.100000X-0.204106X-1.367540X1.258305X0.573144X0.204106X1.367540X-1.258305X-0.573144X0*%
%ADD59RoundRect,0.100000X0.625236X0.953457X0.054602X1.138867X-0.625236X-0.953457X-0.054602X-1.138867X0*%
%ADD60RoundRect,0.100000X1.359485X0.252242X-0.951582X1.003153X-1.359485X-0.252242X0.951582X-1.003153X0*%
G04 APERTURE END LIST*
D10*
%TO.C,D22*%
X129651287Y-40621212D03*
X130224325Y-37371346D03*
%TD*%
D11*
%TO.C,D11*%
X84341744Y-73291854D03*
X81113856Y-72605746D03*
%TD*%
D12*
%TO.C,D18*%
X105573115Y-44433350D03*
X104230885Y-41418650D03*
%TD*%
D13*
%TO.C,D8*%
X95400726Y-107926274D03*
X93067274Y-110259726D03*
%TD*%
D14*
%TO.C,D30*%
X158558122Y-98471154D03*
X161227878Y-100410846D03*
%TD*%
D15*
%TO.C,D15*%
X87982408Y-62165320D03*
X84991592Y-60770680D03*
%TD*%
D16*
%TO.C,D6*%
X103696000Y-117760942D03*
X105346000Y-114903058D03*
%TD*%
D17*
%TO.C,D12*%
X84301933Y-86581481D03*
X81052067Y-87154519D03*
%TD*%
D18*
%TO.C,D31*%
X151752709Y-107775221D03*
X154317291Y-109851979D03*
%TD*%
D16*
%TO.C,D5*%
X101627066Y-116566443D03*
X103277066Y-113708559D03*
%TD*%
D19*
%TO.C,D24*%
X159008677Y-62242536D03*
X161894923Y-60642664D03*
%TD*%
D20*
%TO.C,D21*%
X141923587Y-45000726D03*
X143623213Y-42172074D03*
%TD*%
D21*
%TO.C,D27*%
X162420899Y-85930316D03*
X165696301Y-86332484D03*
%TD*%
D22*
%TO.C,D28*%
X162704058Y-74270636D03*
X165971942Y-73811364D03*
%TD*%
D23*
%TO.C,D2*%
X143738297Y-114528852D03*
X144866963Y-117629838D03*
%TD*%
%TO.C,D3*%
X141522504Y-115335332D03*
X142651170Y-118436318D03*
%TD*%
D24*
%TO.C,D14*%
X95592066Y-51619789D03*
X93383934Y-49167411D03*
%TD*%
D25*
%TO.C,D9*%
X87957161Y-97726716D03*
X85016839Y-99224884D03*
%TD*%
D26*
%TO.C,D17*%
X117744569Y-40622111D03*
X117002231Y-37406689D03*
%TD*%
D27*
%TO.C,D25*%
X151741274Y-51966726D03*
X154074726Y-49633274D03*
%TD*%
D28*
%TO.C,C6*%
X125730000Y-110451200D03*
X125730000Y-108551200D03*
%TD*%
D29*
%TO.C,C7*%
X133740800Y-109016800D03*
X135640800Y-109016800D03*
%TD*%
D28*
%TO.C,C4*%
X121970800Y-115967600D03*
X121970800Y-114067600D03*
%TD*%
D30*
%TO.C,D1*%
X133908799Y-119938803D03*
X138920867Y-118310283D03*
D31*
X136700150Y-119031838D03*
%TD*%
D32*
%TO.C,C2*%
X114960400Y-111440800D03*
X114960400Y-105200800D03*
%TD*%
D33*
%TO.C,D13*%
X91472447Y-53793436D03*
X88449699Y-58110367D03*
D34*
X89789000Y-56197647D03*
%TD*%
D35*
%TO.C,D7*%
X88530673Y-102304005D03*
X91702238Y-106512814D03*
D36*
X90297000Y-104648000D03*
%TD*%
D37*
%TO.C,R1*%
X117906800Y-115950100D03*
X117906800Y-114125100D03*
%TD*%
D38*
%TO.C,D10*%
X82194399Y-77483200D03*
X82194399Y-82753200D03*
D39*
X82194399Y-80418200D03*
%TD*%
D29*
%TO.C,C5*%
X123814800Y-115737600D03*
X125714800Y-115737600D03*
%TD*%
D40*
%TO.C,U1*%
X121173200Y-108739200D03*
X121173200Y-109239200D03*
X121173200Y-109739200D03*
X121173200Y-110239200D03*
X123073200Y-110239200D03*
X123073200Y-109739200D03*
X123073200Y-109239200D03*
X123073200Y-108739200D03*
D41*
X122123200Y-109489200D03*
%TD*%
D42*
%TO.C,D32*%
X110439200Y-108759200D03*
X110439200Y-112759200D03*
%TD*%
D43*
%TO.C,C8*%
X131800600Y-113654800D03*
X131800600Y-115554800D03*
%TD*%
D44*
%TO.C,D19*%
X130270000Y-105882400D03*
X126270000Y-105882400D03*
%TD*%
D45*
%TO.C,R5*%
X133758300Y-106984800D03*
X135583300Y-106984800D03*
%TD*%
D46*
%TO.C,D16*%
X113027351Y-39987035D03*
X108015283Y-41615555D03*
D47*
X110236000Y-40894000D03*
%TD*%
D37*
%TO.C,R2*%
X119888000Y-115950100D03*
X119888000Y-114125100D03*
%TD*%
D48*
%TO.C,D4*%
X108356417Y-118465593D03*
X113368485Y-120094113D03*
D49*
X111147768Y-119372558D03*
%TD*%
D43*
%TO.C,C3*%
X118618000Y-108844000D03*
X118618000Y-110744000D03*
%TD*%
D50*
%TO.C,R3*%
X125677300Y-113705600D03*
X123852300Y-113705600D03*
%TD*%
D28*
%TO.C,C9*%
X133959600Y-115554800D03*
X133959600Y-113654800D03*
%TD*%
D51*
%TO.C,J1*%
X121444000Y-122301000D03*
X125444000Y-122301000D03*
%TD*%
D52*
%TO.C,L1*%
X120599000Y-105374400D03*
X123749000Y-105374400D03*
%TD*%
D53*
%TO.C,D26*%
X164655500Y-82424300D03*
X164655500Y-77154300D03*
D54*
X164655500Y-79489300D03*
%TD*%
D55*
%TO.C,D23*%
X158292800Y-57658000D03*
X155121235Y-53449191D03*
D56*
X156526473Y-55314005D03*
%TD*%
D28*
%TO.C,C1*%
X118618000Y-106781600D03*
X118618000Y-104881600D03*
%TD*%
D45*
%TO.C,R4*%
X127662300Y-110251200D03*
X129487300Y-110251200D03*
%TD*%
D57*
%TO.C,D29*%
X155325984Y-106228198D03*
X158497549Y-102019389D03*
D58*
X157092311Y-103884203D03*
%TD*%
D59*
%TO.C,D20*%
X138513359Y-41483939D03*
X133501291Y-39855419D03*
D60*
X135722008Y-40576974D03*
%TD*%
M02*
