%TF.GenerationSoftware,KiCad,Pcbnew,9.0.6*%
%TF.CreationDate,2026-01-20T23:08:51+08:00*%
%TF.ProjectId,Ledx10,4c656478-3130-42e6-9b69-6361645f7063,rev?*%
%TF.SameCoordinates,Original*%
%TF.FileFunction,Copper,L1,Top*%
%TF.FilePolarity,Positive*%
%FSLAX46Y46*%
G04 Gerber Fmt 4.6, Leading zero omitted, Abs format (unit mm)*
G04 Created by KiCad (PCBNEW 9.0.6) date 2026-01-20 23:08:51*
%MOMM*%
%LPD*%
G01*
G04 APERTURE LIST*
G04 Aperture macros list*
%AMRoundRect*
0 Rectangle with rounded corners*
0 $1 Rounding radius*
0 $2 $3 $4 $5 $6 $7 $8 $9 X,Y pos of 4 corners*
0 Add a 4 corners polygon primitive as box body*
4,1,4,$2,$3,$4,$5,$6,$7,$8,$9,$2,$3,0*
0 Add four circle primitives for the rounded corners*
1,1,$1+$1,$2,$3*
1,1,$1+$1,$4,$5*
1,1,$1+$1,$6,$7*
1,1,$1+$1,$8,$9*
0 Add four rect primitives between the rounded corners*
20,1,$1+$1,$2,$3,$4,$5,0*
20,1,$1+$1,$4,$5,$6,$7,0*
20,1,$1+$1,$6,$7,$8,$9,0*
20,1,$1+$1,$8,$9,$2,$3,0*%
G04 Aperture macros list end*
%TA.AperFunction,Conductor*%
%ADD10C,0.800000*%
%TD*%
%TA.AperFunction,SMDPad,CuDef*%
%ADD11RoundRect,0.225000X0.225000X0.375000X-0.225000X0.375000X-0.225000X-0.375000X0.225000X-0.375000X0*%
%TD*%
%TA.AperFunction,SMDPad,CuDef*%
%ADD12RoundRect,0.225000X0.424398X-0.105529X0.292831X0.324808X-0.424398X0.105529X-0.292831X-0.324808X0*%
%TD*%
%TA.AperFunction,SMDPad,CuDef*%
%ADD13RoundRect,0.250000X0.475000X-0.250000X0.475000X0.250000X-0.475000X0.250000X-0.475000X-0.250000X0*%
%TD*%
%TA.AperFunction,SMDPad,CuDef*%
%ADD14RoundRect,0.250000X-0.250000X-0.475000X0.250000X-0.475000X0.250000X0.475000X-0.250000X0.475000X0*%
%TD*%
%TA.AperFunction,SMDPad,CuDef*%
%ADD15RoundRect,0.100000X-0.300000X-1.100000X0.300000X-1.100000X0.300000X1.100000X-0.300000X1.100000X0*%
%TD*%
%TA.AperFunction,SMDPad,CuDef*%
%ADD16RoundRect,0.100000X-1.215000X-0.660000X1.215000X-0.660000X1.215000X0.660000X-1.215000X0.660000X0*%
%TD*%
%TA.AperFunction,SMDPad,CuDef*%
%ADD17RoundRect,0.100000X1.138867X0.054602X0.953457X0.625236X-1.138867X-0.054602X-0.953457X-0.625236X0*%
%TD*%
%TA.AperFunction,SMDPad,CuDef*%
%ADD18RoundRect,0.100000X1.003153X-0.951582X0.252242X1.359485X-1.003153X0.951582X-0.252242X-1.359485X0*%
%TD*%
%TA.AperFunction,SMDPad,CuDef*%
%ADD19RoundRect,0.250000X1.045000X-0.785000X1.045000X0.785000X-1.045000X0.785000X-1.045000X-0.785000X0*%
%TD*%
%TA.AperFunction,SMDPad,CuDef*%
%ADD20RoundRect,0.225000X-0.061137X0.433027X-0.410853X0.149833X0.061137X-0.433027X0.410853X-0.149833X0*%
%TD*%
%TA.AperFunction,SMDPad,CuDef*%
%ADD21RoundRect,0.100000X-0.953457X0.625236X-1.138867X0.054602X0.953457X-0.625236X1.138867X-0.054602X0*%
%TD*%
%TA.AperFunction,SMDPad,CuDef*%
%ADD22RoundRect,0.100000X-0.252242X1.359485X-1.003153X-0.951582X0.252242X-1.359485X1.003153X0.951582X0*%
%TD*%
%TA.AperFunction,SMDPad,CuDef*%
%ADD23RoundRect,0.100000X0.403859X-1.066254X0.889269X-0.713583X-0.403859X1.066254X-0.889269X0.713583X0*%
%TD*%
%TA.AperFunction,SMDPad,CuDef*%
%ADD24RoundRect,0.100000X-0.595017X-1.248110X1.370894X0.180208X0.595017X1.248110X-1.370894X-0.180208X0*%
%TD*%
%TA.AperFunction,SMDPad,CuDef*%
%ADD25RoundRect,0.100000X-0.889269X-0.713583X-0.403859X-1.066254X0.889269X0.713583X0.403859X1.066254X0*%
%TD*%
%TA.AperFunction,SMDPad,CuDef*%
%ADD26RoundRect,0.100000X-1.370894X0.180208X0.595017X-1.248110X1.370894X-0.180208X-0.595017X1.248110X0*%
%TD*%
%TA.AperFunction,SMDPad,CuDef*%
%ADD27RoundRect,0.250000X0.450000X-0.262500X0.450000X0.262500X-0.450000X0.262500X-0.450000X-0.262500X0*%
%TD*%
%TA.AperFunction,SMDPad,CuDef*%
%ADD28R,0.500000X0.250000*%
%TD*%
%TA.AperFunction,SMDPad,CuDef*%
%ADD29R,0.900000X1.600000*%
%TD*%
%TA.AperFunction,SMDPad,CuDef*%
%ADD30RoundRect,0.250000X-0.650000X1.000000X-0.650000X-1.000000X0.650000X-1.000000X0.650000X1.000000X0*%
%TD*%
%TA.AperFunction,SMDPad,CuDef*%
%ADD31RoundRect,0.225000X-0.399400X-0.178127X-0.030782X-0.436237X0.399400X0.178127X0.030782X0.436237X0*%
%TD*%
%TA.AperFunction,SMDPad,CuDef*%
%ADD32RoundRect,0.225000X0.396231X0.185071X0.023164X0.436707X-0.396231X-0.185071X-0.023164X-0.436707X0*%
%TD*%
%TA.AperFunction,SMDPad,CuDef*%
%ADD33RoundRect,0.225000X0.287117X-0.329869X0.426175X0.098106X-0.287117X0.329869X-0.426175X-0.098106X0*%
%TD*%
%TA.AperFunction,SMDPad,CuDef*%
%ADD34RoundRect,0.250000X-0.475000X0.250000X-0.475000X-0.250000X0.475000X-0.250000X0.475000X0.250000X0*%
%TD*%
%TA.AperFunction,SMDPad,CuDef*%
%ADD35RoundRect,0.225000X0.218421X0.378870X-0.231510X0.371016X-0.218421X-0.378870X0.231510X-0.371016X0*%
%TD*%
%TA.AperFunction,SMDPad,CuDef*%
%ADD36RoundRect,0.250000X1.000000X0.650000X-1.000000X0.650000X-1.000000X-0.650000X1.000000X-0.650000X0*%
%TD*%
%TA.AperFunction,SMDPad,CuDef*%
%ADD37RoundRect,0.100000X0.889269X0.713583X0.403859X1.066254X-0.889269X-0.713583X-0.403859X-1.066254X0*%
%TD*%
%TA.AperFunction,SMDPad,CuDef*%
%ADD38RoundRect,0.100000X1.370894X-0.180208X-0.595017X1.248110X-1.370894X0.180208X0.595017X-1.248110X0*%
%TD*%
%TA.AperFunction,SMDPad,CuDef*%
%ADD39RoundRect,0.100000X0.300000X1.100000X-0.300000X1.100000X-0.300000X-1.100000X0.300000X-1.100000X0*%
%TD*%
%TA.AperFunction,SMDPad,CuDef*%
%ADD40RoundRect,0.100000X1.215000X0.660000X-1.215000X0.660000X-1.215000X-0.660000X1.215000X-0.660000X0*%
%TD*%
%TA.AperFunction,SMDPad,CuDef*%
%ADD41RoundRect,0.250000X-0.262500X-0.450000X0.262500X-0.450000X0.262500X0.450000X-0.262500X0.450000X0*%
%TD*%
%TA.AperFunction,SMDPad,CuDef*%
%ADD42RoundRect,0.100000X-1.138867X-0.054602X-0.953457X-0.625236X1.138867X0.054602X0.953457X0.625236X0*%
%TD*%
%TA.AperFunction,SMDPad,CuDef*%
%ADD43RoundRect,0.100000X-1.003153X0.951582X-0.252242X-1.359485X1.003153X-0.951582X0.252242X1.359485X0*%
%TD*%
%TA.AperFunction,SMDPad,CuDef*%
%ADD44RoundRect,0.225000X-0.413405X-0.142639X-0.068685X-0.431894X0.413405X0.142639X0.068685X0.431894X0*%
%TD*%
%TA.AperFunction,SMDPad,CuDef*%
%ADD45RoundRect,0.100000X-0.403859X1.066254X-0.889269X0.713583X0.403859X-1.066254X0.889269X-0.713583X0*%
%TD*%
%TA.AperFunction,SMDPad,CuDef*%
%ADD46RoundRect,0.100000X0.595017X1.248110X-1.370894X-0.180208X-0.595017X-1.248110X1.370894X0.180208X0*%
%TD*%
%TA.AperFunction,SMDPad,CuDef*%
%ADD47RoundRect,0.250000X0.262500X0.450000X-0.262500X0.450000X-0.262500X-0.450000X0.262500X-0.450000X0*%
%TD*%
%TA.AperFunction,SMDPad,CuDef*%
%ADD48RoundRect,0.225000X0.007909X-0.437250X0.389531X-0.198786X-0.007909X0.437250X-0.389531X0.198786X0*%
%TD*%
%TA.AperFunction,ComponentPad*%
%ADD49RoundRect,0.500000X-0.750000X-1.500000X0.750000X-1.500000X0.750000X1.500000X-0.750000X1.500000X0*%
%TD*%
%TA.AperFunction,SMDPad,CuDef*%
%ADD50RoundRect,0.225000X0.263407X-0.349094X0.431980X0.068139X-0.263407X0.349094X-0.431980X-0.068139X0*%
%TD*%
%TA.AperFunction,SMDPad,CuDef*%
%ADD51RoundRect,0.225000X-0.225000X-0.375000X0.225000X-0.375000X0.225000X0.375000X-0.225000X0.375000X0*%
%TD*%
%TA.AperFunction,SMDPad,CuDef*%
%ADD52R,0.800000X2.700000*%
%TD*%
%TA.AperFunction,SMDPad,CuDef*%
%ADD53RoundRect,0.225000X-0.211776X-0.382624X0.237950X-0.366919X0.211776X0.382624X-0.237950X0.366919X0*%
%TD*%
%TA.AperFunction,SMDPad,CuDef*%
%ADD54RoundRect,0.225000X-0.429339X0.083173X-0.275430X-0.339688X0.429339X-0.083173X0.275430X0.339688X0*%
%TD*%
%TA.AperFunction,SMDPad,CuDef*%
%ADD55RoundRect,0.225000X0.402448X0.171130X0.038391X0.435633X-0.402448X-0.171130X-0.038391X-0.435633X0*%
%TD*%
%TA.AperFunction,SMDPad,CuDef*%
%ADD56RoundRect,0.225000X-0.015539X0.437045X-0.392941X0.191958X0.015539X-0.437045X0.392941X-0.191958X0*%
%TD*%
%TA.AperFunction,SMDPad,CuDef*%
%ADD57RoundRect,0.225000X0.422492X-0.112920X0.298455X0.319648X-0.422492X0.112920X-0.298455X-0.319648X0*%
%TD*%
%TA.AperFunction,SMDPad,CuDef*%
%ADD58RoundRect,0.225000X0.281317X-0.334830X0.427822X0.090654X-0.281317X0.334830X-0.427822X-0.090654X0*%
%TD*%
%TA.AperFunction,SMDPad,CuDef*%
%ADD59RoundRect,0.225000X0.038391X-0.435633X0.402448X-0.171130X-0.038391X0.435633X-0.402448X0.171130X0*%
%TD*%
%TA.AperFunction,ViaPad*%
%ADD60C,0.600000*%
%TD*%
%TA.AperFunction,ViaPad*%
%ADD61C,0.800000*%
%TD*%
%TA.AperFunction,Conductor*%
%ADD62C,0.600000*%
%TD*%
%TA.AperFunction,Conductor*%
%ADD63C,0.254000*%
%TD*%
%TA.AperFunction,Conductor*%
%ADD64C,0.300000*%
%TD*%
%TA.AperFunction,Conductor*%
%ADD65C,0.500000*%
%TD*%
G04 APERTURE END LIST*
D10*
%TO.N,Net-(D13-K)*%
X67106800Y-34137600D02*
X85521800Y-28067000D01*
%TO.N,Net-(D23-K)*%
X162966400Y-62966600D02*
X167462200Y-88188800D01*
%TO.N,Net-(D26-K)*%
X172745400Y-92303600D02*
X170764200Y-88188800D01*
%TO.N,Net-(D16-K)*%
X110083600Y-28016200D02*
X128981200Y-34340800D01*
%TO.N,Net-(D10-K)*%
X22885400Y-92532200D02*
X24942800Y-87503000D01*
%TO.N,Net-(D1-K)*%
X69697600Y-167436800D02*
X66268600Y-164084000D01*
X128752600Y-164033200D02*
X124790200Y-167360600D01*
%TO.N,Net-(D10-A)*%
X28143200Y-107416600D02*
X32766000Y-132257800D01*
%TO.N,Net-(D13-K)*%
X44577000Y-46431200D02*
X66827400Y-34188400D01*
%TO.N,Net-(D20-K)*%
X130403600Y-31343600D02*
X148259800Y-48183800D01*
%TO.N,Net-(D13-K)*%
X39903400Y-49631600D02*
X44297600Y-46837600D01*
%TO.N,Net-(D10-K)*%
X35433000Y-64414400D02*
X47117000Y-48615600D01*
%TO.N,Net-(D26-K)*%
X172745400Y-94208600D02*
X172745400Y-100888800D01*
%TO.N,Net-(D16-K)*%
X79476600Y-24561800D02*
X84099400Y-25019000D01*
%TO.N,Net-(D10-A)*%
X34950400Y-138379200D02*
X39801800Y-145034000D01*
%TO.N,Net-(D23-K)*%
X162712400Y-62661800D02*
X161467800Y-57454800D01*
%TO.N,Net-(D10-K)*%
X24942800Y-87503000D02*
X35433000Y-64414400D01*
%TO.N,Net-(D10-A)*%
X28117800Y-106934000D02*
X28219400Y-87477600D01*
%TO.N,Net-(D10-K)*%
X22885400Y-101041200D02*
X22885400Y-93548200D01*
X24815800Y-107137200D02*
X22885400Y-101828600D01*
%TO.N,Net-(D26-K)*%
X159588200Y-131038600D02*
X170815000Y-106756200D01*
%TO.N,Net-(D13-K)*%
X34899600Y-56413400D02*
X39547800Y-50063400D01*
%TO.N,Net-(D23-K)*%
X151333200Y-46837600D02*
X155549600Y-49326800D01*
X156565600Y-50825400D02*
X160680400Y-56362600D01*
%TO.N,Net-(D26-K)*%
X148793200Y-145745200D02*
X159461200Y-131140200D01*
%TO.N,Net-(D10-A)*%
X33121600Y-132664200D02*
X34163000Y-137363200D01*
%TO.N,Net-(D4-K)*%
X35788600Y-130632200D02*
X47015400Y-145897600D01*
X47015400Y-145897600D02*
X64516000Y-160020000D01*
%TO.N,Net-(D1-K)*%
X78486000Y-170307000D02*
X71196200Y-167944800D01*
X128752600Y-164033200D02*
X131191000Y-163118800D01*
%TO.N,Net-(D20-K)*%
X125704600Y-27686000D02*
X129895600Y-31165800D01*
%TO.N,Net-(D16-K)*%
X70713600Y-27381200D02*
X78511400Y-24892000D01*
%TO.N,Net-(D20-K)*%
X117805200Y-25069800D02*
X124104400Y-27152600D01*
%TO.N,Net-(D13-K)*%
X32740600Y-62509400D02*
X34163000Y-57480200D01*
%TO.N,Net-(D1-K)*%
X117424200Y-169799000D02*
X124790200Y-167360600D01*
%TO.N,Net-(D16-K)*%
X65989200Y-30988000D02*
X69824600Y-27660600D01*
%TO.N,Net-(D20-K)*%
X110794800Y-24790400D02*
X116306600Y-24536400D01*
%TO.N,Net-(D16-K)*%
X84734400Y-24815800D02*
X109372400Y-27711400D01*
%TO.N,Net-(D1-K)*%
X65811400Y-163957000D02*
X63881000Y-163271200D01*
%TO.N,Net-(D10-A)*%
X40055800Y-145389600D02*
X44373800Y-147751800D01*
%TO.N,Net-(D20-K)*%
X148463000Y-48526700D02*
X160045400Y-64554100D01*
%TO.N,Net-(D23-K)*%
X167462200Y-88519000D02*
X167513000Y-106705400D01*
%TO.N,Net-(D4-K)*%
X79730600Y-165201600D02*
X64573912Y-160020000D01*
%TO.N,Net-(D26-K)*%
X170815000Y-106756200D02*
X172745400Y-102438200D01*
%TD*%
D11*
%TO.P,D11,1,K*%
%TO.N,Net-(D10-A)*%
X28218400Y-87477600D03*
%TO.P,D11,2,A*%
%TO.N,Net-(D10-K)*%
X24918400Y-87477600D03*
%TD*%
D12*
%TO.P,D18,1,K*%
%TO.N,Net-(D13-K)*%
X67005014Y-34166095D03*
%TO.P,D18,2,A*%
%TO.N,Net-(D16-K)*%
X66040186Y-31010305D03*
%TD*%
D13*
%TO.P,C6,1*%
%TO.N,Net-(U1-CSN)*%
X100126800Y-163003800D03*
%TO.P,C6,2*%
%TO.N,Net-(D19-K)*%
X100126800Y-161103800D03*
%TD*%
D14*
%TO.P,C7,1*%
%TO.N,Net-(D19-K)*%
X108137600Y-161569400D03*
%TO.P,C7,2*%
%TO.N,/LED+*%
X110037600Y-161569400D03*
%TD*%
D13*
%TO.P,C4,1*%
%TO.N,GND*%
X96367600Y-168520200D03*
%TO.P,C4,2*%
%TO.N,Net-(U1-VCC)*%
X96367600Y-166620200D03*
%TD*%
D15*
%TO.P,D39,1,K*%
%TO.N,Net-(D10-K)*%
X22884100Y-101434900D03*
%TO.P,D39,2,A*%
%TO.N,Net-(D10-A)*%
X28154100Y-101434900D03*
D16*
%TO.P,D39,EP*%
%TO.N,N/C*%
X25819100Y-101434900D03*
%TD*%
D17*
%TO.P,D1,1,K*%
%TO.N,Net-(D1-K)*%
X117170200Y-169875200D03*
%TO.P,D1,2,A*%
%TO.N,/LED+*%
X115541683Y-164863135D03*
D18*
%TO.P,D1,EP*%
%TO.N,N/C*%
X116263235Y-167083849D03*
%TD*%
D19*
%TO.P,C2,1*%
%TO.N,VCC*%
X89357200Y-163993400D03*
%TO.P,C2,2*%
%TO.N,GND*%
X89357200Y-157753400D03*
%TD*%
D20*
%TO.P,D8,1,K*%
%TO.N,Net-(D4-K)*%
X46976891Y-145799022D03*
%TO.P,D8,2,A*%
%TO.N,Net-(D10-A)*%
X44412309Y-147875778D03*
%TD*%
D21*
%TO.P,D36,1,K*%
%TO.N,Net-(D20-K)*%
X117170200Y-24866600D03*
%TO.P,D36,2,A*%
%TO.N,Net-(D16-K)*%
X115541682Y-29878668D03*
D22*
%TO.P,D36,EP*%
%TO.N,N/C*%
X116263236Y-27657951D03*
%TD*%
D23*
%TO.P,D40,1,K*%
%TO.N,Net-(D10-A)*%
X39547800Y-144703800D03*
%TO.P,D40,2,A*%
%TO.N,Net-(D4-K)*%
X43811314Y-141606150D03*
D24*
%TO.P,D40,EP*%
%TO.N,N/C*%
X41922264Y-142978632D03*
%TD*%
D25*
%TO.P,D13,1,K*%
%TO.N,Net-(D13-K)*%
X39547800Y-50088800D03*
%TO.P,D13,2,A*%
%TO.N,Net-(D10-K)*%
X43811338Y-53186418D03*
D26*
%TO.P,D13,EP*%
%TO.N,N/C*%
X41922283Y-51813944D03*
%TD*%
D23*
%TO.P,D7,1,K*%
%TO.N,Net-(D10-A)*%
X34833449Y-138233767D03*
%TO.P,D7,2,A*%
%TO.N,Net-(D4-K)*%
X39096957Y-135136122D03*
D24*
%TO.P,D7,EP*%
%TO.N,N/C*%
X37207911Y-136508600D03*
%TD*%
D27*
%TO.P,R1,1*%
%TO.N,Net-(U1-DIM)*%
X92303600Y-168502700D03*
%TO.P,R1,2*%
%TO.N,VCC*%
X92303600Y-166677700D03*
%TD*%
D15*
%TO.P,D10,1,K*%
%TO.N,Net-(D10-K)*%
X22884101Y-93433900D03*
%TO.P,D10,2,A*%
%TO.N,Net-(D10-A)*%
X28154101Y-93433900D03*
D16*
%TO.P,D10,EP*%
%TO.N,N/C*%
X25819101Y-93433900D03*
%TD*%
D14*
%TO.P,C5,1*%
%TO.N,GND*%
X98211600Y-168290200D03*
%TO.P,C5,2*%
%TO.N,Net-(C5-Pad2)*%
X100111600Y-168290200D03*
%TD*%
D28*
%TO.P,U1,1,GND*%
%TO.N,GND*%
X95570000Y-161291800D03*
%TO.P,U1,2,VIN*%
%TO.N,VCC*%
X95570000Y-161791800D03*
%TO.P,U1,3,DIM*%
%TO.N,Net-(U1-DIM)*%
X95570000Y-162291800D03*
%TO.P,U1,4,VCC*%
%TO.N,Net-(U1-VCC)*%
X95570000Y-162791800D03*
%TO.P,U1,5,COMP*%
%TO.N,Net-(U1-COMP)*%
X97470000Y-162791800D03*
%TO.P,U1,6,CSN*%
%TO.N,Net-(U1-CSN)*%
X97470000Y-162291800D03*
%TO.P,U1,7,CSP*%
%TO.N,Net-(D19-K)*%
X97470000Y-161791800D03*
%TO.P,U1,8,SW*%
%TO.N,Net-(D19-A)*%
X97470000Y-161291800D03*
D29*
%TO.P,U1,9,EP*%
%TO.N,GND*%
X96520000Y-162041800D03*
%TD*%
D30*
%TO.P,D32,1,K*%
%TO.N,VCC*%
X84836000Y-161311800D03*
%TO.P,D32,2,A*%
%TO.N,Net-(D32-A)*%
X84836000Y-165311800D03*
%TD*%
D31*
%TO.P,D30,1,K*%
%TO.N,Net-(D26-K)*%
X159455795Y-131209787D03*
%TO.P,D30,2,A*%
%TO.N,GND*%
X162159005Y-133102613D03*
%TD*%
D32*
%TO.P,D15,1,K*%
%TO.N,Net-(D10-K)*%
X35353108Y-64498862D03*
%TO.P,D15,2,A*%
%TO.N,Net-(D13-K)*%
X32617292Y-62653538D03*
%TD*%
D33*
%TO.P,D6,1,K*%
%TO.N,Net-(D1-K)*%
X65987322Y-164002244D03*
%TO.P,D6,2,A*%
%TO.N,Net-(D4-K)*%
X67007078Y-160863756D03*
%TD*%
D34*
%TO.P,C8,1*%
%TO.N,/LED+*%
X106197400Y-166207400D03*
%TO.P,C8,2*%
%TO.N,GND*%
X106197400Y-168107400D03*
%TD*%
D21*
%TO.P,D41,1,K*%
%TO.N,Net-(D4-K)*%
X79951764Y-165261546D03*
%TO.P,D41,2,A*%
%TO.N,Net-(D1-K)*%
X78323246Y-170273614D03*
D22*
%TO.P,D41,EP*%
%TO.N,N/C*%
X79044800Y-168052897D03*
%TD*%
D35*
%TO.P,D12,1,K*%
%TO.N,Net-(D10-A)*%
X28116553Y-107108414D03*
%TO.P,D12,2,A*%
%TO.N,Net-(D10-K)*%
X24817047Y-107165986D03*
%TD*%
D36*
%TO.P,D19,1,K*%
%TO.N,Net-(D19-K)*%
X104666800Y-158435000D03*
%TO.P,D19,2,A*%
%TO.N,Net-(D19-A)*%
X100666800Y-158435000D03*
%TD*%
D37*
%TO.P,D33,1,K*%
%TO.N,GND*%
X160809830Y-138213213D03*
%TO.P,D33,2,A*%
%TO.N,Net-(D26-K)*%
X156546314Y-135115599D03*
D38*
%TO.P,D33,EP*%
%TO.N,N/C*%
X158435369Y-136488073D03*
%TD*%
D39*
%TO.P,D34,1,K*%
%TO.N,Net-(D26-K)*%
X172746697Y-93383100D03*
%TO.P,D34,2,A*%
%TO.N,Net-(D23-K)*%
X167476697Y-93383100D03*
D40*
%TO.P,D34,EP*%
%TO.N,N/C*%
X169811697Y-93383100D03*
%TD*%
D41*
%TO.P,R5,1*%
%TO.N,Net-(D19-K)*%
X108155100Y-159537400D03*
%TO.P,R5,2*%
%TO.N,/LED+*%
X109980100Y-159537400D03*
%TD*%
D42*
%TO.P,D16,1,K*%
%TO.N,Net-(D16-K)*%
X78455018Y-24897762D03*
%TO.P,D16,2,A*%
%TO.N,Net-(D13-K)*%
X80083535Y-29909827D03*
D43*
%TO.P,D16,EP*%
%TO.N,N/C*%
X79361983Y-27689113D03*
%TD*%
D13*
%TO.P,C10,1*%
%TO.N,GND*%
X110413800Y-168107400D03*
%TO.P,C10,2*%
%TO.N,/LED+*%
X110413800Y-166207400D03*
%TD*%
D27*
%TO.P,R2,1*%
%TO.N,GND*%
X94284800Y-168502700D03*
%TO.P,R2,2*%
%TO.N,Net-(U1-DIM)*%
X94284800Y-166677700D03*
%TD*%
D44*
%TO.P,D31,1,K*%
%TO.N,Net-(D26-K)*%
X148697624Y-145903800D03*
%TO.P,D31,2,A*%
%TO.N,GND*%
X151225576Y-148025000D03*
%TD*%
D45*
%TO.P,D35,1,K*%
%TO.N,Net-(D23-K)*%
X156072949Y-50132632D03*
%TO.P,D35,2,A*%
%TO.N,Net-(D20-K)*%
X151809435Y-53230282D03*
D46*
%TO.P,D35,EP*%
%TO.N,N/C*%
X153698485Y-51857800D03*
%TD*%
D21*
%TO.P,D4,1,K*%
%TO.N,Net-(D4-K)*%
X72357164Y-162765849D03*
%TO.P,D4,2,A*%
%TO.N,Net-(D1-K)*%
X70728646Y-167777917D03*
D22*
%TO.P,D4,EP*%
%TO.N,N/C*%
X71450200Y-165557200D03*
%TD*%
D34*
%TO.P,C3,1*%
%TO.N,VCC*%
X93014800Y-161396600D03*
%TO.P,C3,2*%
%TO.N,GND*%
X93014800Y-163296600D03*
%TD*%
D47*
%TO.P,R3,1*%
%TO.N,Net-(C5-Pad2)*%
X100074100Y-166258200D03*
%TO.P,R3,2*%
%TO.N,Net-(U1-COMP)*%
X98249100Y-166258200D03*
%TD*%
D13*
%TO.P,C9,1*%
%TO.N,GND*%
X108356400Y-168107400D03*
%TO.P,C9,2*%
%TO.N,/LED+*%
X108356400Y-166207400D03*
%TD*%
D42*
%TO.P,D37,1,K*%
%TO.N,Net-(D16-K)*%
X70819065Y-27349580D03*
%TO.P,D37,2,A*%
%TO.N,Net-(D13-K)*%
X72447602Y-32361636D03*
D43*
%TO.P,D37,EP*%
%TO.N,N/C*%
X71726041Y-30140933D03*
%TD*%
D33*
%TO.P,D5,1,K*%
%TO.N,Net-(D1-K)*%
X63701322Y-163214844D03*
%TO.P,D5,2,A*%
%TO.N,Net-(D4-K)*%
X64721078Y-160076356D03*
%TD*%
D48*
%TO.P,D24,1,K*%
%TO.N,Net-(D20-K)*%
X159992320Y-64450567D03*
%TO.P,D24,2,A*%
%TO.N,Net-(D23-K)*%
X162790880Y-62701833D03*
%TD*%
D49*
%TO.P,J1,1,Pin_1*%
%TO.N,Net-(D32-A)*%
X95840800Y-174853600D03*
%TO.P,J1,2,Pin_2*%
%TO.N,GND*%
X99840800Y-174853600D03*
%TD*%
D50*
%TO.P,D21,1,K*%
%TO.N,Net-(D16-K)*%
X128896499Y-34321253D03*
%TO.P,D21,2,A*%
%TO.N,Net-(D20-K)*%
X130132701Y-31261547D03*
%TD*%
D51*
%TO.P,D27,1,K*%
%TO.N,Net-(D23-K)*%
X167514009Y-106857809D03*
%TO.P,D27,2,A*%
%TO.N,Net-(D26-K)*%
X170813991Y-106857791D03*
%TD*%
D52*
%TO.P,L1,1,1*%
%TO.N,VCC*%
X95470800Y-157927000D03*
%TO.P,L1,2,2*%
%TO.N,Net-(D19-A)*%
X97670800Y-157927000D03*
%TD*%
D39*
%TO.P,D26,1,K*%
%TO.N,Net-(D26-K)*%
X172746700Y-101384100D03*
%TO.P,D26,2,A*%
%TO.N,Net-(D23-K)*%
X167476700Y-101384100D03*
D40*
%TO.P,D26,EP*%
%TO.N,N/C*%
X169811700Y-101384100D03*
%TD*%
D53*
%TO.P,D28,1,K*%
%TO.N,Net-(D23-K)*%
X167438807Y-88373399D03*
%TO.P,D28,2,A*%
%TO.N,Net-(D26-K)*%
X170736793Y-88258201D03*
%TD*%
D54*
%TO.P,D2,1,K*%
%TO.N,/LED+*%
X130023060Y-159999827D03*
%TO.P,D2,2,A*%
%TO.N,Net-(D1-K)*%
X131151726Y-163100813D03*
%TD*%
D45*
%TO.P,D23,1,K*%
%TO.N,Net-(D23-K)*%
X160822743Y-56584252D03*
%TO.P,D23,2,A*%
%TO.N,Net-(D20-K)*%
X156559239Y-59681882D03*
D46*
%TO.P,D23,EP*%
%TO.N,N/C*%
X158448289Y-58309401D03*
%TD*%
D13*
%TO.P,C1,1*%
%TO.N,VCC*%
X93014800Y-159334200D03*
%TO.P,C1,2*%
%TO.N,GND*%
X93014800Y-157434200D03*
%TD*%
D54*
%TO.P,D3,1,K*%
%TO.N,/LED+*%
X127807267Y-160831707D03*
%TO.P,D3,2,A*%
%TO.N,Net-(D1-K)*%
X128935933Y-163932693D03*
%TD*%
D41*
%TO.P,R4,1*%
%TO.N,Net-(U1-CSN)*%
X102059100Y-162803800D03*
%TO.P,R4,2*%
%TO.N,/LED+*%
X103884100Y-162803800D03*
%TD*%
D55*
%TO.P,D14,1,K*%
%TO.N,Net-(D10-K)*%
X47105679Y-48645645D03*
%TO.P,D14,2,A*%
%TO.N,Net-(D13-K)*%
X44435921Y-46705955D03*
%TD*%
D56*
%TO.P,D9,1,K*%
%TO.N,Net-(D4-K)*%
X35724607Y-130673346D03*
%TO.P,D9,2,A*%
%TO.N,Net-(D10-A)*%
X32956993Y-132470654D03*
%TD*%
D25*
%TO.P,D38,1,K*%
%TO.N,Net-(D13-K)*%
X34801683Y-56592386D03*
%TO.P,D38,2,A*%
%TO.N,Net-(D10-K)*%
X39065199Y-59690000D03*
D26*
%TO.P,D38,EP*%
%TO.N,N/C*%
X37176144Y-58317526D03*
%TD*%
D57*
%TO.P,D17,1,K*%
%TO.N,Net-(D13-K)*%
X85341601Y-28129082D03*
%TO.P,D17,2,A*%
%TO.N,Net-(D16-K)*%
X84431999Y-24956918D03*
%TD*%
D58*
%TO.P,D22,1,K*%
%TO.N,Net-(D16-K)*%
X109724217Y-27874500D03*
%TO.P,D22,2,A*%
%TO.N,Net-(D20-K)*%
X110798583Y-24754300D03*
%TD*%
D59*
%TO.P,D25,1,K*%
%TO.N,Net-(D20-K)*%
X148474321Y-48493245D03*
%TO.P,D25,2,A*%
%TO.N,Net-(D23-K)*%
X151144079Y-46553555D03*
%TD*%
D17*
%TO.P,D42,1,K*%
%TO.N,Net-(D1-K)*%
X124790200Y-167386000D03*
%TO.P,D42,2,A*%
%TO.N,/LED+*%
X123161662Y-162373955D03*
D18*
%TO.P,D42,EP*%
%TO.N,N/C*%
X123883218Y-164594636D03*
%TD*%
D37*
%TO.P,D29,1,K*%
%TO.N,GND*%
X156083000Y-144653000D03*
%TO.P,D29,2,A*%
%TO.N,Net-(D26-K)*%
X151819479Y-141555367D03*
D38*
%TO.P,D29,EP*%
%TO.N,N/C*%
X153708533Y-142927846D03*
%TD*%
D21*
%TO.P,D20,1,K*%
%TO.N,Net-(D20-K)*%
X124736779Y-27367141D03*
%TO.P,D20,2,A*%
%TO.N,Net-(D16-K)*%
X123108261Y-32379209D03*
D22*
%TO.P,D20,EP*%
%TO.N,N/C*%
X123829815Y-30158492D03*
%TD*%
D60*
%TO.N,GND*%
X71622665Y-30924905D03*
X169926000Y-74853800D03*
X109347000Y-173710600D03*
X152890009Y-52048366D03*
X115728741Y-166464665D03*
X115911439Y-27504510D03*
X144297400Y-38862000D03*
X71241757Y-29567324D03*
X53009800Y-157581600D03*
X26517600Y-101142800D03*
X72068639Y-30032223D03*
X25819939Y-101785552D03*
X55499000Y-35991800D03*
X170535600Y-74853800D03*
X109347000Y-174320200D03*
X152939817Y-142846286D03*
X54889400Y-35991800D03*
X55499000Y-36601400D03*
X170522049Y-93083257D03*
X42087241Y-51525413D03*
X116340037Y-166266053D03*
X169824388Y-93726009D03*
X25057950Y-93109948D03*
X166446200Y-127127000D03*
X91236800Y-29413200D03*
X158261787Y-136775323D03*
X77800200Y-173532800D03*
X142646400Y-154406600D03*
X116555618Y-166929561D03*
X124142811Y-30330710D03*
X24892000Y-114985800D03*
X123367895Y-164072615D03*
X154431165Y-51732600D03*
X96520000Y-161341797D03*
X116357400Y-28397200D03*
X37592000Y-59029600D03*
X36452227Y-58201493D03*
X37693600Y-135763000D03*
X116109646Y-167822250D03*
X77800200Y-172923200D03*
X71115728Y-165434421D03*
X158826200Y-137185400D03*
X31521400Y-79578200D03*
X123923031Y-31007081D03*
X70907794Y-166114543D03*
X103301800Y-166370000D03*
X154457400Y-143154400D03*
X25108750Y-101085548D03*
X142036800Y-153797000D03*
X72288400Y-30708600D03*
X154079595Y-143674397D03*
X91236800Y-28803600D03*
X37439041Y-58053213D03*
X52400200Y-157581600D03*
X115691664Y-28180889D03*
X159207200Y-58039000D03*
X96520000Y-162041800D03*
X170560995Y-101709356D03*
X159204005Y-136665403D03*
X164033200Y-112268000D03*
X78710328Y-167949021D03*
X79451200Y-26898600D03*
X158776235Y-57487400D03*
X123477070Y-30114391D03*
X102692200Y-166319200D03*
X26466795Y-93809956D03*
X169113199Y-93026005D03*
X123747110Y-29468573D03*
X78409800Y-172923200D03*
X30911800Y-79578200D03*
X52400200Y-156972000D03*
X124358400Y-29667200D03*
X78502394Y-168629143D03*
X164642800Y-112877600D03*
X116181479Y-26858692D03*
X41511873Y-51107386D03*
X53009800Y-156972000D03*
X153439770Y-51618851D03*
X25819942Y-101085548D03*
X123529033Y-164753824D03*
X93751400Y-162636200D03*
X109956600Y-174320200D03*
X78839903Y-27097215D03*
X79666785Y-27562114D03*
X109956600Y-173710600D03*
X103276400Y-166979600D03*
X30911800Y-80187800D03*
X116775384Y-167605939D03*
X169926000Y-75463400D03*
X79379742Y-168153686D03*
X41151201Y-143116994D03*
X26517595Y-101785556D03*
X71853054Y-29368709D03*
X142646400Y-153797000D03*
X37529681Y-136747335D03*
X166446200Y-127736600D03*
X79583716Y-167486516D03*
X42127069Y-143273243D03*
X36553813Y-136591086D03*
X37969806Y-58509604D03*
X42240200Y-52501800D03*
X169863339Y-101709352D03*
X169863342Y-101009348D03*
X167055800Y-127736600D03*
X91846400Y-28803600D03*
X41715619Y-142706933D03*
X37118231Y-136181025D03*
X157686422Y-136357289D03*
X153515182Y-143264320D03*
X116577180Y-27720829D03*
X164642800Y-112268000D03*
X24282400Y-114985800D03*
X144297400Y-39471600D03*
X71577200Y-166319200D03*
X25108751Y-101785543D03*
X123748800Y-165430200D03*
X78943200Y-167298588D03*
D61*
X105587800Y-160959800D03*
D60*
X169824391Y-93026005D03*
X123979191Y-163874003D03*
X102666800Y-166928800D03*
X115889879Y-167145874D03*
X164033200Y-112877600D03*
X169113200Y-93726000D03*
X79220811Y-28454796D03*
X144907000Y-39471600D03*
X41100427Y-51673693D03*
X158646766Y-58476859D03*
X41529000Y-143637000D03*
X170535600Y-75463400D03*
X25769139Y-93809952D03*
X144907000Y-38862000D03*
X169152151Y-101709343D03*
X91846400Y-29413200D03*
X24282400Y-115595400D03*
X24892000Y-115595400D03*
X37027586Y-58619526D03*
X26466800Y-93167200D03*
X25057951Y-93809943D03*
X71402896Y-30248529D03*
X158215805Y-57925251D03*
X41675786Y-52091726D03*
X38105051Y-136329304D03*
X170522044Y-93726013D03*
X116792769Y-27057319D03*
X170561000Y-101066600D03*
X158673241Y-136209012D03*
X42702439Y-142855212D03*
X124194772Y-164537511D03*
X25769142Y-93109948D03*
X153351275Y-142279977D03*
X36931612Y-137111092D03*
X31521400Y-80187800D03*
X79171800Y-168833800D03*
X157666044Y-58354766D03*
X142036800Y-154406600D03*
X79001042Y-27778420D03*
X71374454Y-164783988D03*
X153870731Y-52170459D03*
X78409800Y-173532800D03*
X169152150Y-101009348D03*
X158097880Y-135790980D03*
X94945200Y-160883600D03*
X36863673Y-57635186D03*
X154000200Y-51181000D03*
X153285725Y-52554866D03*
X71989116Y-164971916D03*
X124414538Y-165213889D03*
X167055800Y-127127000D03*
X71785142Y-165639086D03*
X79886546Y-28238491D03*
X123257295Y-30790770D03*
X42290988Y-142288908D03*
X42618006Y-51981804D03*
X158061760Y-58861266D03*
X54889400Y-36601400D03*
X96520000Y-162740963D03*
X153926636Y-142698009D03*
%TO.N,Net-(D1-K)*%
X113969800Y-171450000D03*
X115062000Y-171450000D03*
X83515200Y-172593000D03*
X85064600Y-172593000D03*
X84277200Y-172593000D03*
X115849400Y-171196000D03*
%TD*%
D62*
%TO.N,GND*%
X89676400Y-157434200D02*
X89357200Y-157753400D01*
D63*
X95353400Y-161291800D02*
X94945200Y-160883600D01*
D10*
X93014800Y-157434200D02*
X89676400Y-157434200D01*
D63*
X95570000Y-161291800D02*
X95353400Y-161291800D01*
D62*
X93091000Y-163296600D02*
X93751400Y-162636200D01*
X93014800Y-163296600D02*
X93091000Y-163296600D01*
D63*
%TO.N,Net-(U1-VCC)*%
X94716600Y-163322000D02*
X95246800Y-162791800D01*
X96367600Y-166620200D02*
X95932000Y-166620200D01*
X95246800Y-162791800D02*
X95570000Y-162791800D01*
X94716600Y-165404800D02*
X94716600Y-163322000D01*
X95932000Y-166620200D02*
X94716600Y-165404800D01*
%TO.N,Net-(C5-Pad2)*%
X100111600Y-166295700D02*
X100074100Y-166258200D01*
D62*
X100111600Y-168290200D02*
X100111600Y-166295700D01*
D10*
%TO.N,Net-(D19-K)*%
X101998000Y-161103800D02*
X100126800Y-161103800D01*
X107711200Y-158435000D02*
X104666800Y-158435000D01*
X108137600Y-161569400D02*
X108137600Y-159554900D01*
X104666800Y-158435000D02*
X101998000Y-161103800D01*
X108155100Y-158878900D02*
X107711200Y-158435000D01*
D63*
X99438800Y-161791800D02*
X97470000Y-161791800D01*
X100126800Y-161103800D02*
X99438800Y-161791800D01*
D62*
X108137600Y-159554900D02*
X108155100Y-159537400D01*
D10*
X108155100Y-159537400D02*
X108155100Y-158878900D01*
D62*
%TO.N,Net-(U1-CSN)*%
X100126800Y-163003800D02*
X101859100Y-163003800D01*
D63*
X97470000Y-162291800D02*
X99414800Y-162291800D01*
X101859100Y-163003800D02*
X102059100Y-162803800D01*
X99414800Y-162291800D02*
X100126800Y-163003800D01*
D10*
%TO.N,/LED+*%
X109296200Y-163423600D02*
X106121200Y-163423600D01*
X106121200Y-163423600D02*
X104503900Y-163423600D01*
X110413800Y-166207400D02*
X108356400Y-166207400D01*
X106197400Y-166207400D02*
X108356400Y-166207400D01*
D62*
X106197400Y-163499800D02*
X106121200Y-163423600D01*
D10*
X106197400Y-166207400D02*
X106197400Y-163499800D01*
X104503900Y-163423600D02*
X103884100Y-162803800D01*
X110058200Y-162220200D02*
X110058200Y-162661600D01*
X110058200Y-162661600D02*
X109296200Y-163423600D01*
D62*
X109980100Y-161511900D02*
X110037600Y-161569400D01*
D10*
X110037600Y-161569400D02*
X110037600Y-162199600D01*
X109980100Y-159537400D02*
X109980100Y-161511900D01*
D62*
X110037600Y-162199600D02*
X110058200Y-162220200D01*
D10*
%TO.N,Net-(D1-K)*%
X80721200Y-172593000D02*
X78401814Y-170273614D01*
X83515200Y-172593000D02*
X80721200Y-172593000D01*
X115062000Y-171450000D02*
X115595400Y-171450000D01*
X84277200Y-172593000D02*
X85064600Y-172593000D01*
X115595400Y-171450000D02*
X115849400Y-171196000D01*
X84277200Y-172593000D02*
X83515200Y-172593000D01*
X78401814Y-170273614D02*
X78323246Y-170273614D01*
X115849400Y-171196000D02*
X117170200Y-169875200D01*
X115062000Y-171450000D02*
X113969800Y-171450000D01*
D63*
%TO.N,Net-(D19-A)*%
X98298000Y-161163000D02*
X98298000Y-159283400D01*
X97670800Y-157927000D02*
X97670800Y-158656200D01*
X98169200Y-161291800D02*
X98298000Y-161163000D01*
D10*
X98178800Y-158435000D02*
X97670800Y-157927000D01*
D63*
X97470000Y-161291800D02*
X98169200Y-161291800D01*
D10*
X100666800Y-158435000D02*
X98178800Y-158435000D01*
D63*
X97670800Y-158656200D02*
X98298000Y-159283400D01*
D64*
%TO.N,Net-(U1-DIM)*%
X92459800Y-168502700D02*
X92710900Y-168502700D01*
D65*
X93929200Y-166928800D02*
X94284800Y-166928800D01*
D63*
X94261600Y-163133532D02*
X95103332Y-162291800D01*
D64*
X94284800Y-166928800D02*
X94284800Y-166677700D01*
D63*
X95103332Y-162291800D02*
X95570000Y-162291800D01*
X94284800Y-166677700D02*
X94261600Y-166654500D01*
X92303600Y-168502700D02*
X92459800Y-168502700D01*
D65*
X92710900Y-168147100D02*
X93929200Y-166928800D01*
D63*
X94261600Y-166654500D02*
X94261600Y-163133532D01*
D65*
X92710900Y-168502700D02*
X92710900Y-168147100D01*
D63*
%TO.N,Net-(U1-COMP)*%
X98249100Y-163095300D02*
X98249100Y-166258200D01*
X97470000Y-162791800D02*
X97945600Y-162791800D01*
X97945600Y-162791800D02*
X98249100Y-163095300D01*
%TD*%
%TA.AperFunction,Conductor*%
%TO.N,Net-(D32-A)*%
G36*
X86734839Y-163163885D02*
G01*
X86780594Y-163216689D01*
X86791800Y-163268200D01*
X86791800Y-165963600D01*
X90833400Y-165963600D01*
X90900439Y-165983285D01*
X90946194Y-166036089D01*
X90957400Y-166087600D01*
X90957400Y-169367200D01*
X92865400Y-169367200D01*
X92932439Y-169386885D01*
X92978194Y-169439689D01*
X92989400Y-169491200D01*
X92989400Y-172593000D01*
X97327085Y-172593000D01*
X97394124Y-172612685D01*
X97439879Y-172665489D01*
X97451085Y-172717000D01*
X97451085Y-177015600D01*
X97431400Y-177082639D01*
X97378596Y-177128394D01*
X97327085Y-177139600D01*
X94430912Y-177139600D01*
X94377926Y-177127709D01*
X89529814Y-174836363D01*
X89477615Y-174789920D01*
X89458800Y-174724254D01*
X89458800Y-171094400D01*
X89458799Y-171094399D01*
X83194543Y-169039723D01*
X83136977Y-169000125D01*
X83109958Y-168935691D01*
X83109190Y-168921373D01*
X83123285Y-165665535D01*
X83133666Y-163267663D01*
X83153641Y-163200710D01*
X83206642Y-163155184D01*
X83257665Y-163144200D01*
X86667800Y-163144200D01*
X86734839Y-163163885D01*
G37*
%TD.AperFunction*%
%TD*%
%TA.AperFunction,Conductor*%
%TO.N,GND*%
G36*
X98535662Y-17387462D02*
G01*
X98536851Y-17387468D01*
X98743146Y-17388621D01*
X98744889Y-17388645D01*
X100257915Y-17421660D01*
X100258247Y-17421668D01*
X100503809Y-17428533D01*
X100505615Y-17428598D01*
X101986962Y-17493275D01*
X101987021Y-17493278D01*
X102262799Y-17507164D01*
X102264395Y-17507256D01*
X103719506Y-17602629D01*
X104019119Y-17624441D01*
X104020794Y-17624576D01*
X105453107Y-17749886D01*
X105453542Y-17749926D01*
X105771985Y-17780279D01*
X105773515Y-17780436D01*
X107187005Y-17935239D01*
X107187427Y-17935287D01*
X107520369Y-17974551D01*
X107521732Y-17974722D01*
X108919126Y-18158692D01*
X108919758Y-18158778D01*
X109263231Y-18207094D01*
X109264802Y-18207325D01*
X110648308Y-18420268D01*
X110649198Y-18420409D01*
X111000071Y-18477793D01*
X111001333Y-18478007D01*
X112373385Y-18719937D01*
X112374180Y-18720081D01*
X112729628Y-18786405D01*
X112730880Y-18786647D01*
X114092943Y-19057578D01*
X114094024Y-19057799D01*
X114451069Y-19132718D01*
X114452041Y-19132927D01*
X115806256Y-19433150D01*
X115807417Y-19433414D01*
X116163459Y-19516475D01*
X116164293Y-19516675D01*
X117512117Y-19846485D01*
X117513266Y-19846773D01*
X117865524Y-19937302D01*
X117866373Y-19937524D01*
X119209538Y-20297424D01*
X119210783Y-20297766D01*
X119556507Y-20394906D01*
X119557523Y-20395196D01*
X120897443Y-20785747D01*
X120898711Y-20786125D01*
X121235522Y-20888938D01*
X121236435Y-20889222D01*
X122575065Y-21311291D01*
X122576429Y-21311731D01*
X122901330Y-21418907D01*
X122902026Y-21419140D01*
X124241398Y-21873795D01*
X124242695Y-21874246D01*
X124552578Y-21984208D01*
X124553298Y-21984466D01*
X125895453Y-22472970D01*
X125896972Y-22473536D01*
X126188439Y-22584361D01*
X126188932Y-22584551D01*
X127536536Y-23108605D01*
X127538035Y-23109201D01*
X127807385Y-23218571D01*
X127807545Y-23218636D01*
X129163742Y-23780391D01*
X129165219Y-23781016D01*
X129407143Y-23885610D01*
X129407875Y-23885929D01*
X129813405Y-24064366D01*
X130776107Y-24487965D01*
X130777753Y-24488705D01*
X130987296Y-24584915D01*
X132195899Y-25148496D01*
X132372876Y-25231022D01*
X132374629Y-25231856D01*
X132544435Y-25314468D01*
X132544529Y-25314514D01*
X133953267Y-26009226D01*
X133955014Y-26010106D01*
X134076033Y-26072366D01*
X134076383Y-26072547D01*
X135516565Y-26822259D01*
X135518266Y-26823164D01*
X135577755Y-26855471D01*
X135578183Y-26855704D01*
X137058377Y-27667766D01*
X137060695Y-27669072D01*
X138569849Y-28540382D01*
X138572116Y-28541724D01*
X139388180Y-29036924D01*
X140061890Y-29445741D01*
X140064187Y-29447169D01*
X141533887Y-30383471D01*
X141536153Y-30384950D01*
X141766593Y-30538925D01*
X142985087Y-31353096D01*
X142987239Y-31354569D01*
X144414740Y-32354116D01*
X144416895Y-32355660D01*
X145822220Y-33386087D01*
X145824332Y-33387672D01*
X147119462Y-34381459D01*
X147206846Y-34448511D01*
X147208924Y-34450141D01*
X148568016Y-35540927D01*
X148570081Y-35542623D01*
X149904963Y-36662723D01*
X149907016Y-36664484D01*
X150340852Y-37044948D01*
X151217201Y-37813485D01*
X151219163Y-37815245D01*
X152445605Y-38939071D01*
X152503920Y-38992507D01*
X152505890Y-38994352D01*
X153595296Y-40037231D01*
X153764706Y-40199406D01*
X153766639Y-40201298D01*
X154998796Y-41433455D01*
X155000688Y-41435388D01*
X156205738Y-42694199D01*
X156207586Y-42696173D01*
X157350635Y-43943593D01*
X157381209Y-43976958D01*
X157381529Y-43977308D01*
X157385901Y-43982116D01*
X157387369Y-43983760D01*
X157884718Y-44550878D01*
X158488841Y-45239748D01*
X158489202Y-45240161D01*
X158547546Y-45307286D01*
X158548946Y-45308926D01*
X159581993Y-46540063D01*
X159582388Y-46540536D01*
X159679551Y-46657506D01*
X159680873Y-46659124D01*
X160051343Y-47120720D01*
X160655846Y-47873915D01*
X160656032Y-47874148D01*
X160702589Y-47932817D01*
X160781321Y-48032030D01*
X160782565Y-48033624D01*
X161706668Y-49237941D01*
X161707123Y-49238538D01*
X161852320Y-49430154D01*
X161853488Y-49431721D01*
X162732276Y-50630235D01*
X162732758Y-50630896D01*
X162892113Y-50851264D01*
X162893134Y-50852699D01*
X163387903Y-51559302D01*
X163730991Y-52049283D01*
X163731496Y-52050010D01*
X163899989Y-52294339D01*
X163901011Y-52295844D01*
X164701119Y-53493290D01*
X164701646Y-53494085D01*
X164875655Y-53758892D01*
X164876607Y-53760363D01*
X165641593Y-54961150D01*
X165642137Y-54962013D01*
X165818584Y-55244076D01*
X165819468Y-55245510D01*
X166551346Y-56451609D01*
X166551906Y-56452542D01*
X166728277Y-56749026D01*
X166729095Y-56750421D01*
X167429520Y-57963592D01*
X167430093Y-57964595D01*
X167604358Y-58273032D01*
X167605112Y-58274386D01*
X167983491Y-58964079D01*
X168238451Y-59428810D01*
X168275440Y-59496231D01*
X168276023Y-59497307D01*
X168446362Y-59815189D01*
X168447054Y-59816499D01*
X169088402Y-61048514D01*
X169088992Y-61049662D01*
X169253844Y-61374550D01*
X169254477Y-61375815D01*
X169867839Y-62619589D01*
X169868433Y-62620810D01*
X169980333Y-62854126D01*
X170026438Y-62950255D01*
X170026990Y-62951423D01*
X170150480Y-63216247D01*
X170613154Y-64208456D01*
X170613749Y-64209751D01*
X170763769Y-64541365D01*
X170764291Y-64542534D01*
X171323935Y-65814422D01*
X171324527Y-65815792D01*
X171465455Y-66146825D01*
X171465925Y-66147943D01*
X171999591Y-67436326D01*
X172000179Y-67437771D01*
X172131211Y-67765718D01*
X172131631Y-67766784D01*
X172639774Y-69073471D01*
X172640354Y-69074991D01*
X172760661Y-69396798D01*
X172761034Y-69397810D01*
X173244089Y-70724993D01*
X173244658Y-70726589D01*
X173353540Y-71038960D01*
X173353868Y-71039915D01*
X173812139Y-72389937D01*
X173812694Y-72391610D01*
X173909487Y-72690645D01*
X173909774Y-72691543D01*
X174343663Y-74067663D01*
X174344200Y-74069412D01*
X174428300Y-74350536D01*
X174428548Y-74351376D01*
X174838256Y-75757019D01*
X174838773Y-75758844D01*
X174909708Y-76016835D01*
X174909920Y-76017615D01*
X175295696Y-77457348D01*
X175296189Y-77459249D01*
X175353518Y-77687610D01*
X175353696Y-77688330D01*
X175715691Y-79167687D01*
X175716158Y-79169664D01*
X175759383Y-79359744D01*
X175759531Y-79360401D01*
X176098036Y-80887296D01*
X176098473Y-80889349D01*
X176127277Y-81030542D01*
X176127396Y-81031137D01*
X176442478Y-82615161D01*
X176442883Y-82617291D01*
X176456880Y-82694709D01*
X176456974Y-82695238D01*
X176748630Y-84349296D01*
X176749071Y-84351965D01*
X177014163Y-86074292D01*
X177014545Y-86076970D01*
X177241993Y-87804614D01*
X177242317Y-87807299D01*
X177432029Y-89539543D01*
X177432294Y-89542236D01*
X177584166Y-91278142D01*
X177584373Y-91280839D01*
X177698346Y-93019738D01*
X177698493Y-93022439D01*
X177774504Y-94763362D01*
X177774592Y-94766066D01*
X177812605Y-96508183D01*
X177812635Y-96510888D01*
X177812635Y-98253511D01*
X177812605Y-98256216D01*
X177774592Y-99998333D01*
X177774504Y-100001037D01*
X177698493Y-101741960D01*
X177698346Y-101744661D01*
X177584373Y-103483560D01*
X177584166Y-103486257D01*
X177432294Y-105222163D01*
X177432029Y-105224856D01*
X177242317Y-106957100D01*
X177241993Y-106959785D01*
X177014545Y-108687429D01*
X177014163Y-108690107D01*
X176749071Y-110412434D01*
X176748630Y-110415103D01*
X176456974Y-112069160D01*
X176456880Y-112069689D01*
X176442883Y-112147107D01*
X176442478Y-112149237D01*
X176127396Y-113733261D01*
X176127277Y-113733856D01*
X176098473Y-113875049D01*
X176098036Y-113877102D01*
X175759531Y-115403997D01*
X175759383Y-115404654D01*
X175716158Y-115594734D01*
X175715691Y-115596711D01*
X175353696Y-117076068D01*
X175353518Y-117076788D01*
X175296189Y-117305149D01*
X175295696Y-117307050D01*
X174909920Y-118746783D01*
X174909708Y-118747563D01*
X174838773Y-119005554D01*
X174838256Y-119007379D01*
X174428548Y-120413022D01*
X174428300Y-120413862D01*
X174344200Y-120694986D01*
X174343663Y-120696735D01*
X173909774Y-122072855D01*
X173909487Y-122073753D01*
X173812694Y-122372788D01*
X173812139Y-122374461D01*
X173353868Y-123724483D01*
X173353540Y-123725438D01*
X173244658Y-124037809D01*
X173244089Y-124039405D01*
X172761034Y-125366588D01*
X172760661Y-125367600D01*
X172640354Y-125689407D01*
X172639774Y-125690927D01*
X172131631Y-126997614D01*
X172131211Y-126998680D01*
X172000179Y-127326627D01*
X171999591Y-127328072D01*
X171465925Y-128616455D01*
X171465455Y-128617573D01*
X171324527Y-128948606D01*
X171323935Y-128949976D01*
X170764291Y-130221864D01*
X170763769Y-130223033D01*
X170613749Y-130554647D01*
X170613154Y-130555942D01*
X170027014Y-131812925D01*
X170026438Y-131814143D01*
X169868433Y-132143588D01*
X169867839Y-132144809D01*
X169254477Y-133388583D01*
X169253844Y-133389848D01*
X169088992Y-133714736D01*
X169088402Y-133715884D01*
X168447054Y-134947899D01*
X168446362Y-134949209D01*
X168276023Y-135267091D01*
X168275440Y-135268167D01*
X167605112Y-136490012D01*
X167604358Y-136491366D01*
X167430093Y-136799803D01*
X167429520Y-136800806D01*
X166729095Y-138013977D01*
X166728277Y-138015372D01*
X166551906Y-138311856D01*
X166551346Y-138312789D01*
X165819468Y-139518888D01*
X165818584Y-139520322D01*
X165642137Y-139802385D01*
X165641593Y-139803248D01*
X164876607Y-141004035D01*
X164875655Y-141005506D01*
X164701646Y-141270313D01*
X164701119Y-141271108D01*
X163901011Y-142468554D01*
X163899989Y-142470059D01*
X163731496Y-142714388D01*
X163730991Y-142715115D01*
X162893171Y-143911647D01*
X162892077Y-143913185D01*
X162732758Y-144133502D01*
X162732276Y-144134163D01*
X161853488Y-145332677D01*
X161852320Y-145334244D01*
X161707123Y-145525860D01*
X161706668Y-145526457D01*
X160782565Y-146730774D01*
X160781321Y-146732368D01*
X160656186Y-146890056D01*
X160655760Y-146890591D01*
X159680873Y-148105274D01*
X159679551Y-148106892D01*
X159582388Y-148223862D01*
X159581993Y-148224335D01*
X158548946Y-149455472D01*
X158547546Y-149457112D01*
X158489202Y-149524237D01*
X158488841Y-149524650D01*
X157387387Y-150780618D01*
X157385908Y-150782274D01*
X157381574Y-150787041D01*
X157381247Y-150787399D01*
X156207587Y-152068225D01*
X156205738Y-152070200D01*
X155000688Y-153329011D01*
X154998796Y-153330944D01*
X153766639Y-154563101D01*
X153764706Y-154564993D01*
X152505895Y-155770043D01*
X152503920Y-155771892D01*
X151219189Y-156949131D01*
X151217175Y-156950937D01*
X149907016Y-158099915D01*
X149904963Y-158101676D01*
X148570081Y-159221776D01*
X148567990Y-159223493D01*
X147208975Y-160314218D01*
X147206846Y-160315888D01*
X145824358Y-161376708D01*
X145822194Y-161378331D01*
X144416917Y-162408723D01*
X144414718Y-162410299D01*
X142987279Y-163409803D01*
X142985047Y-163411330D01*
X141536153Y-164379449D01*
X141533887Y-164380928D01*
X140064187Y-165317230D01*
X140061890Y-165318658D01*
X138572146Y-166222657D01*
X138569818Y-166224035D01*
X137060715Y-167095316D01*
X137058358Y-167096643D01*
X135578219Y-167908674D01*
X135577755Y-167908927D01*
X135518375Y-167941176D01*
X135516453Y-167942198D01*
X134076500Y-168691790D01*
X134075970Y-168692065D01*
X133955080Y-168754259D01*
X133953197Y-168755207D01*
X132544682Y-169449809D01*
X132544085Y-169450102D01*
X132374718Y-169532499D01*
X132372876Y-169533376D01*
X130987660Y-170179314D01*
X130986995Y-170179622D01*
X130777857Y-170275646D01*
X130776058Y-170276455D01*
X129407875Y-170878469D01*
X129407143Y-170878788D01*
X129165376Y-170983315D01*
X129163620Y-170984058D01*
X127807856Y-171545634D01*
X127807054Y-171545963D01*
X127538138Y-171655156D01*
X127536429Y-171655835D01*
X126189147Y-172179764D01*
X126188276Y-172180099D01*
X125897042Y-172290836D01*
X125895381Y-172291454D01*
X124553399Y-172779895D01*
X124552457Y-172780233D01*
X124242854Y-172890097D01*
X124241244Y-172890656D01*
X122902182Y-173345206D01*
X122901169Y-173345545D01*
X122576549Y-173452628D01*
X122574991Y-173453131D01*
X121236504Y-173875154D01*
X121235420Y-173875491D01*
X120898817Y-173978241D01*
X120897313Y-173978689D01*
X119557591Y-174369182D01*
X119556434Y-174369513D01*
X119210886Y-174466603D01*
X119209438Y-174467001D01*
X117866540Y-174826830D01*
X117865310Y-174827152D01*
X117513383Y-174917595D01*
X117511992Y-174917944D01*
X116164468Y-175247681D01*
X116163166Y-175247993D01*
X115807588Y-175330945D01*
X115806256Y-175331248D01*
X114452229Y-175631430D01*
X114450854Y-175631726D01*
X114094117Y-175706580D01*
X114092844Y-175706840D01*
X112730983Y-175977731D01*
X112729537Y-175978010D01*
X112374369Y-176044282D01*
X112373156Y-176044502D01*
X111001463Y-176286368D01*
X110999945Y-176286626D01*
X110649326Y-176343968D01*
X110648175Y-176344151D01*
X109264811Y-176557071D01*
X109263221Y-176557305D01*
X108919950Y-176605593D01*
X108918862Y-176605741D01*
X107521896Y-176789655D01*
X107520234Y-176789863D01*
X107187699Y-176829080D01*
X107186675Y-176829196D01*
X105773615Y-176983951D01*
X105771882Y-176984129D01*
X105453736Y-177014454D01*
X105452777Y-177014541D01*
X104020856Y-177139817D01*
X104019053Y-177139962D01*
X103719885Y-177161742D01*
X103718991Y-177161804D01*
X102264529Y-177257134D01*
X102262655Y-177257242D01*
X101987399Y-177271102D01*
X101986572Y-177271141D01*
X100505686Y-177335797D01*
X100503742Y-177335867D01*
X100258371Y-177342727D01*
X100257611Y-177342745D01*
X98745031Y-177375750D01*
X98743020Y-177375778D01*
X98536787Y-177376931D01*
X98535662Y-177376938D01*
X98534970Y-177376940D01*
X97707781Y-177376940D01*
X97640742Y-177357255D01*
X97594987Y-177304451D01*
X97585043Y-177235293D01*
X97599559Y-177192408D01*
X97628575Y-177140537D01*
X97648260Y-177073498D01*
X97656585Y-177015600D01*
X97656585Y-172717000D01*
X97651888Y-172673316D01*
X97647982Y-172655364D01*
X97640687Y-172621825D01*
X97640433Y-172620789D01*
X97638195Y-172611627D01*
X97595185Y-172530915D01*
X97549430Y-172478111D01*
X97549424Y-172478104D01*
X97531842Y-172460160D01*
X97531841Y-172460159D01*
X97531839Y-172460157D01*
X97531837Y-172460156D01*
X97531835Y-172460154D01*
X97452025Y-172415511D01*
X97452020Y-172415509D01*
X97384988Y-172395826D01*
X97384984Y-172395825D01*
X97384983Y-172395825D01*
X97327085Y-172387500D01*
X97327081Y-172387500D01*
X93318900Y-172387500D01*
X93251861Y-172367815D01*
X93206106Y-172315011D01*
X93194900Y-172263500D01*
X93194900Y-171370943D01*
X113369300Y-171370943D01*
X113369300Y-171529056D01*
X113410223Y-171681783D01*
X113410226Y-171681790D01*
X113489275Y-171818709D01*
X113489278Y-171818713D01*
X113489280Y-171818716D01*
X113601084Y-171930520D01*
X113601086Y-171930521D01*
X113601090Y-171930524D01*
X113708437Y-171992500D01*
X113738016Y-172009577D01*
X113890743Y-172050500D01*
X114982943Y-172050500D01*
X115508731Y-172050500D01*
X115508747Y-172050501D01*
X115516343Y-172050501D01*
X115674454Y-172050501D01*
X115674457Y-172050501D01*
X115827185Y-172009577D01*
X115877304Y-171980639D01*
X115964116Y-171930520D01*
X116075920Y-171818716D01*
X116075921Y-171818713D01*
X116329919Y-171564716D01*
X117465049Y-170429584D01*
X117526370Y-170396101D01*
X117529914Y-170395617D01*
X117529882Y-170395445D01*
X117537854Y-170393921D01*
X117537863Y-170393921D01*
X123801135Y-168320560D01*
X123852681Y-168314919D01*
X123862136Y-168315884D01*
X123886933Y-168310892D01*
X126064595Y-167603326D01*
X126087591Y-167592790D01*
X126171312Y-167517873D01*
X126222317Y-167417772D01*
X126233716Y-167306005D01*
X126228724Y-167281208D01*
X126166629Y-167090103D01*
X126164635Y-167020263D01*
X126200715Y-166960430D01*
X126204786Y-166956855D01*
X128999991Y-164609598D01*
X129037318Y-164588038D01*
X129542270Y-164404252D01*
X129630502Y-164355344D01*
X129630506Y-164355339D01*
X129638190Y-164349337D01*
X129639776Y-164351367D01*
X129672151Y-164329701D01*
X130889753Y-163873100D01*
X130909625Y-163867485D01*
X130990357Y-163851794D01*
X131758063Y-163572372D01*
X131846295Y-163523464D01*
X131938218Y-163424889D01*
X131938218Y-163424887D01*
X131938220Y-163424886D01*
X131995180Y-163302734D01*
X131995179Y-163302734D01*
X131995181Y-163302732D01*
X132011607Y-163168952D01*
X131992358Y-163069925D01*
X131815542Y-162584127D01*
X131814056Y-162581447D01*
X131770739Y-162503300D01*
X131766634Y-162495895D01*
X131668059Y-162403972D01*
X131668056Y-162403969D01*
X131545904Y-162347009D01*
X131455678Y-162335931D01*
X131412122Y-162330583D01*
X131412121Y-162330583D01*
X131313097Y-162349831D01*
X131313089Y-162349834D01*
X130545398Y-162629250D01*
X130545385Y-162629255D01*
X130457158Y-162678160D01*
X130457155Y-162678162D01*
X130370203Y-162771407D01*
X130323055Y-162802944D01*
X129351368Y-163167326D01*
X129292719Y-163174297D01*
X129196329Y-163162463D01*
X129097304Y-163181711D01*
X129097296Y-163181714D01*
X128329605Y-163461130D01*
X128329592Y-163461135D01*
X128241366Y-163510040D01*
X128149438Y-163608619D01*
X128092478Y-163730772D01*
X128092477Y-163730776D01*
X128088485Y-163763285D01*
X128060775Y-163827425D01*
X128045152Y-163843128D01*
X124510399Y-166811413D01*
X124469626Y-166834172D01*
X118089952Y-168946064D01*
X118075476Y-168949903D01*
X118073471Y-168950306D01*
X117002690Y-169298222D01*
X117002691Y-169298223D01*
X116999600Y-169299227D01*
X116938415Y-169315623D01*
X116924607Y-169323594D01*
X116912210Y-169327623D01*
X116912208Y-169327623D01*
X115895816Y-169657869D01*
X115895804Y-169657874D01*
X115872809Y-169668409D01*
X115789087Y-169743327D01*
X115738083Y-169843426D01*
X115738083Y-169843427D01*
X115726684Y-169955195D01*
X115731677Y-169979996D01*
X115731678Y-169980001D01*
X115827011Y-170273403D01*
X115829006Y-170343244D01*
X115796761Y-170399402D01*
X115480684Y-170715481D01*
X115382984Y-170813181D01*
X115321661Y-170846666D01*
X115295303Y-170849500D01*
X113890743Y-170849500D01*
X113738016Y-170890423D01*
X113738009Y-170890426D01*
X113601090Y-170969475D01*
X113601082Y-170969481D01*
X113489281Y-171081282D01*
X113489275Y-171081290D01*
X113410226Y-171218209D01*
X113410223Y-171218216D01*
X113369300Y-171370943D01*
X93194900Y-171370943D01*
X93194900Y-169491208D01*
X93194899Y-169491192D01*
X93190203Y-169447516D01*
X93184509Y-169421343D01*
X93179002Y-169396025D01*
X93178748Y-169394989D01*
X93176510Y-169385827D01*
X93133500Y-169305115D01*
X93087745Y-169252311D01*
X93085378Y-169249895D01*
X93052520Y-169188236D01*
X93058213Y-169118599D01*
X93074178Y-169089478D01*
X93075746Y-169087352D01*
X93075750Y-169087350D01*
X93156393Y-168978082D01*
X93178819Y-168913990D01*
X93201246Y-168849901D01*
X93201246Y-168849899D01*
X93204100Y-168819469D01*
X93204100Y-168342365D01*
X93223785Y-168275326D01*
X93240419Y-168254684D01*
X94068084Y-167427019D01*
X94129407Y-167393534D01*
X94155765Y-167390700D01*
X94789070Y-167390700D01*
X94819499Y-167387846D01*
X94819501Y-167387846D01*
X94883590Y-167365419D01*
X94947682Y-167342993D01*
X95056950Y-167262350D01*
X95137593Y-167153082D01*
X95164842Y-167075209D01*
X95182446Y-167024901D01*
X95182446Y-167024899D01*
X95185300Y-166994469D01*
X95185300Y-166636017D01*
X95191538Y-166614771D01*
X95193118Y-166592683D01*
X95201190Y-166581899D01*
X95204985Y-166568978D01*
X95221718Y-166554478D01*
X95234990Y-166536750D01*
X95247610Y-166532042D01*
X95257789Y-166523223D01*
X95279706Y-166520071D01*
X95300454Y-166512333D01*
X95313614Y-166515195D01*
X95326947Y-166513279D01*
X95347090Y-166522478D01*
X95368727Y-166527185D01*
X95386452Y-166540453D01*
X95390503Y-166542304D01*
X95396981Y-166548336D01*
X95405781Y-166557136D01*
X95439266Y-166618459D01*
X95442100Y-166644817D01*
X95442100Y-166924469D01*
X95444953Y-166954899D01*
X95444953Y-166954901D01*
X95487957Y-167077795D01*
X95489807Y-167083082D01*
X95570450Y-167192350D01*
X95679718Y-167272993D01*
X95711426Y-167284088D01*
X95807899Y-167317846D01*
X95838330Y-167320700D01*
X95838334Y-167320700D01*
X96896870Y-167320700D01*
X96927299Y-167317846D01*
X96927301Y-167317846D01*
X96991390Y-167295419D01*
X97055482Y-167272993D01*
X97164750Y-167192350D01*
X97245393Y-167083082D01*
X97267819Y-167018990D01*
X97290246Y-166954901D01*
X97290246Y-166954899D01*
X97293100Y-166924469D01*
X97293100Y-166816109D01*
X97312785Y-166749070D01*
X97365589Y-166703315D01*
X97434747Y-166693371D01*
X97498303Y-166722396D01*
X97536077Y-166781174D01*
X97538245Y-166789652D01*
X97538955Y-166792906D01*
X97582830Y-166918291D01*
X97583807Y-166921082D01*
X97664450Y-167030350D01*
X97773718Y-167110993D01*
X97816445Y-167125944D01*
X97901899Y-167155846D01*
X97932330Y-167158700D01*
X97932334Y-167158700D01*
X98565870Y-167158700D01*
X98596299Y-167155846D01*
X98596301Y-167155846D01*
X98660390Y-167133419D01*
X98724482Y-167110993D01*
X98833750Y-167030350D01*
X98914393Y-166921082D01*
X98959244Y-166792906D01*
X98959246Y-166792901D01*
X98959246Y-166792899D01*
X98962100Y-166762469D01*
X98962100Y-165753930D01*
X99361100Y-165753930D01*
X99361100Y-166762469D01*
X99363953Y-166792899D01*
X99363953Y-166792901D01*
X99407830Y-166918291D01*
X99408807Y-166921082D01*
X99489449Y-167030349D01*
X99489451Y-167030351D01*
X99560733Y-167082959D01*
X99563754Y-167086938D01*
X99568303Y-167089016D01*
X99584676Y-167114494D01*
X99602984Y-167138606D01*
X99604111Y-167144735D01*
X99606077Y-167147794D01*
X99611100Y-167182729D01*
X99611100Y-167377572D01*
X99591415Y-167444611D01*
X99560734Y-167477342D01*
X99539450Y-167493050D01*
X99458807Y-167602317D01*
X99458806Y-167602319D01*
X99413953Y-167730498D01*
X99413953Y-167730500D01*
X99411100Y-167760930D01*
X99411100Y-168819469D01*
X99413953Y-168849899D01*
X99413953Y-168849901D01*
X99449088Y-168950308D01*
X99458807Y-168978082D01*
X99539450Y-169087350D01*
X99648718Y-169167993D01*
X99671578Y-169175992D01*
X99776899Y-169212846D01*
X99807330Y-169215700D01*
X99807334Y-169215700D01*
X100415870Y-169215700D01*
X100446299Y-169212846D01*
X100446301Y-169212846D01*
X100512418Y-169189710D01*
X100574482Y-169167993D01*
X100683750Y-169087350D01*
X100764393Y-168978082D01*
X100786819Y-168913990D01*
X100809246Y-168849901D01*
X100809246Y-168849899D01*
X100812100Y-168819469D01*
X100812100Y-167760930D01*
X100809246Y-167730500D01*
X100809246Y-167730498D01*
X100764746Y-167603328D01*
X100764393Y-167602318D01*
X100683750Y-167493050D01*
X100662465Y-167477341D01*
X100620215Y-167421694D01*
X100612100Y-167377572D01*
X100612100Y-167127376D01*
X100631785Y-167060337D01*
X100652983Y-167037725D01*
X100652179Y-167036921D01*
X100658746Y-167030352D01*
X100658750Y-167030350D01*
X100739393Y-166921082D01*
X100784244Y-166792906D01*
X100784246Y-166792901D01*
X100784246Y-166792899D01*
X100787100Y-166762469D01*
X100787100Y-165753930D01*
X100784246Y-165723500D01*
X100784246Y-165723498D01*
X100739393Y-165595319D01*
X100739392Y-165595317D01*
X100658750Y-165486050D01*
X100549482Y-165405407D01*
X100549480Y-165405406D01*
X100421300Y-165360553D01*
X100390870Y-165357700D01*
X100390866Y-165357700D01*
X99757334Y-165357700D01*
X99757330Y-165357700D01*
X99726900Y-165360553D01*
X99726898Y-165360553D01*
X99598719Y-165405406D01*
X99598717Y-165405407D01*
X99489450Y-165486050D01*
X99408807Y-165595317D01*
X99408806Y-165595319D01*
X99363953Y-165723498D01*
X99363953Y-165723500D01*
X99361100Y-165753930D01*
X98962100Y-165753930D01*
X98959246Y-165723500D01*
X98959246Y-165723498D01*
X98914393Y-165595319D01*
X98914392Y-165595317D01*
X98833750Y-165486050D01*
X98724482Y-165405407D01*
X98724479Y-165405406D01*
X98659644Y-165382719D01*
X98602869Y-165341997D01*
X98577122Y-165277044D01*
X98576600Y-165265678D01*
X98576600Y-163052185D01*
X98576600Y-163052184D01*
X98554281Y-162968890D01*
X98511165Y-162894210D01*
X98450190Y-162833235D01*
X98447936Y-162830981D01*
X98414451Y-162769658D01*
X98419435Y-162699966D01*
X98461307Y-162644033D01*
X98526771Y-162619616D01*
X98535617Y-162619300D01*
X99077300Y-162619300D01*
X99144339Y-162638985D01*
X99190094Y-162691789D01*
X99201300Y-162743300D01*
X99201300Y-163308069D01*
X99204153Y-163338499D01*
X99204153Y-163338501D01*
X99247066Y-163461135D01*
X99249007Y-163466682D01*
X99329650Y-163575950D01*
X99438918Y-163656593D01*
X99452879Y-163661478D01*
X99567099Y-163701446D01*
X99597530Y-163704300D01*
X99597534Y-163704300D01*
X100656070Y-163704300D01*
X100686499Y-163701446D01*
X100686501Y-163701446D01*
X100755193Y-163677409D01*
X100814682Y-163656593D01*
X100923950Y-163575950D01*
X100939658Y-163554665D01*
X100995306Y-163512415D01*
X101039428Y-163504300D01*
X101358972Y-163504300D01*
X101426011Y-163523985D01*
X101458741Y-163554665D01*
X101474450Y-163575950D01*
X101583718Y-163656593D01*
X101597679Y-163661478D01*
X101711899Y-163701446D01*
X101742330Y-163704300D01*
X101742334Y-163704300D01*
X102375870Y-163704300D01*
X102406299Y-163701446D01*
X102406301Y-163701446D01*
X102474993Y-163677409D01*
X102534482Y-163656593D01*
X102643750Y-163575950D01*
X102724393Y-163466682D01*
X102728259Y-163455632D01*
X102768980Y-163398857D01*
X102833933Y-163373110D01*
X102902495Y-163386566D01*
X102952897Y-163434954D01*
X102969300Y-163496588D01*
X102969300Y-164214007D01*
X102973997Y-164257686D01*
X102985197Y-164309174D01*
X102987690Y-164319372D01*
X102987691Y-164319375D01*
X103030699Y-164400083D01*
X103030701Y-164400086D01*
X103076460Y-164452895D01*
X103094042Y-164470839D01*
X103094046Y-164470843D01*
X103094047Y-164470844D01*
X103094049Y-164470845D01*
X103173859Y-164515488D01*
X103173863Y-164515490D01*
X103240902Y-164535175D01*
X103298800Y-164543500D01*
X104877300Y-164543500D01*
X104944339Y-164563185D01*
X104990094Y-164615989D01*
X105001300Y-164667500D01*
X105001300Y-166982607D01*
X105005997Y-167026286D01*
X105017197Y-167077774D01*
X105019690Y-167087972D01*
X105019691Y-167087975D01*
X105062699Y-167168683D01*
X105062701Y-167168686D01*
X105108460Y-167221495D01*
X105126042Y-167239439D01*
X105126046Y-167239443D01*
X105126047Y-167239444D01*
X105126049Y-167239445D01*
X105205859Y-167284088D01*
X105205863Y-167284090D01*
X105272902Y-167303775D01*
X105330800Y-167312100D01*
X105330804Y-167312100D01*
X110394103Y-167312100D01*
X110407650Y-167311029D01*
X110426350Y-167309553D01*
X110464790Y-167303444D01*
X110496241Y-167295867D01*
X113676935Y-166258768D01*
X114697708Y-165925934D01*
X114767547Y-165923866D01*
X114784930Y-165929824D01*
X114826047Y-165947417D01*
X114824924Y-165948541D01*
X114824924Y-165957239D01*
X114831075Y-165963390D01*
X114839773Y-165963390D01*
X114845924Y-165957239D01*
X114845924Y-165955924D01*
X114886739Y-165973389D01*
X114894875Y-165980103D01*
X114904996Y-165983075D01*
X114921356Y-166001955D01*
X114940629Y-166017860D01*
X114943843Y-166027907D01*
X114950751Y-166035879D01*
X114955381Y-166063966D01*
X114961921Y-166084406D01*
X114959959Y-166091735D01*
X114961317Y-166099973D01*
X114955432Y-166157658D01*
X114960426Y-166182458D01*
X115739065Y-168578859D01*
X115739065Y-168578860D01*
X115749601Y-168601857D01*
X115824517Y-168685577D01*
X115824516Y-168685577D01*
X115824518Y-168685578D01*
X115824519Y-168685579D01*
X115924620Y-168736583D01*
X116036387Y-168747982D01*
X116061184Y-168742990D01*
X117401915Y-168307359D01*
X117424912Y-168296823D01*
X117508633Y-168221906D01*
X117559637Y-168121805D01*
X117571037Y-168010038D01*
X117566044Y-167985241D01*
X116787404Y-165588837D01*
X116776868Y-165565840D01*
X116701951Y-165482118D01*
X116696780Y-165478138D01*
X116655664Y-165421647D01*
X116651616Y-165351894D01*
X116685922Y-165291027D01*
X116733977Y-165261987D01*
X122429046Y-163405049D01*
X122498885Y-163402981D01*
X122558755Y-163439000D01*
X122589648Y-163501669D01*
X122587166Y-163545166D01*
X122587982Y-163545250D01*
X122575415Y-163668445D01*
X122580409Y-163693245D01*
X123359048Y-166089646D01*
X123359048Y-166089647D01*
X123369584Y-166112644D01*
X123444500Y-166196364D01*
X123444499Y-166196364D01*
X123444501Y-166196365D01*
X123444502Y-166196366D01*
X123544603Y-166247370D01*
X123656370Y-166258769D01*
X123681167Y-166253777D01*
X125021898Y-165818146D01*
X125044895Y-165807610D01*
X125128616Y-165732693D01*
X125179620Y-165632592D01*
X125191020Y-165520825D01*
X125186027Y-165496028D01*
X124407387Y-163099624D01*
X124396851Y-163076627D01*
X124377415Y-163054907D01*
X124321934Y-162992905D01*
X124320994Y-162992182D01*
X124319718Y-162990429D01*
X124314272Y-162984343D01*
X124314887Y-162983792D01*
X124279878Y-162935691D01*
X124275830Y-162865939D01*
X124310135Y-162805071D01*
X124358191Y-162776031D01*
X131310703Y-160509090D01*
X131310703Y-160509089D01*
X131310709Y-160509088D01*
X131353657Y-160489369D01*
X131402085Y-160459965D01*
X131413654Y-160452397D01*
X131474877Y-160384456D01*
X131508927Y-160323445D01*
X131519813Y-160300785D01*
X131534585Y-160210529D01*
X131530244Y-160140794D01*
X131522306Y-160102611D01*
X131518341Y-160083536D01*
X131518338Y-160083526D01*
X130866844Y-158286300D01*
X130863334Y-158279035D01*
X130848604Y-158248541D01*
X130848595Y-158248524D01*
X130822172Y-158205644D01*
X130817577Y-158198521D01*
X130817576Y-158198519D01*
X130750836Y-158135990D01*
X130718203Y-158116938D01*
X130690497Y-158100762D01*
X130668061Y-158089444D01*
X130668056Y-158089442D01*
X130578111Y-158072920D01*
X130578107Y-158072920D01*
X130568005Y-158073352D01*
X130508306Y-158075904D01*
X130450809Y-158086696D01*
X117985467Y-162333407D01*
X117915661Y-162336393D01*
X117913852Y-162335931D01*
X111803873Y-160724243D01*
X111744072Y-160688111D01*
X111713298Y-160625383D01*
X111711500Y-160604344D01*
X111711500Y-160115399D01*
X114807395Y-160115399D01*
X114807395Y-160115400D01*
X114807395Y-160124098D01*
X114813546Y-160130249D01*
X114822244Y-160130249D01*
X114828395Y-160124098D01*
X114828395Y-160115400D01*
X114822244Y-160109249D01*
X114813546Y-160109249D01*
X114813545Y-160109249D01*
X114807395Y-160115399D01*
X111711500Y-160115399D01*
X111711500Y-159213748D01*
X111711500Y-159213741D01*
X111709267Y-159183530D01*
X111703907Y-159147466D01*
X111679075Y-159082310D01*
X111672455Y-159064940D01*
X111672453Y-159064935D01*
X111653138Y-159035500D01*
X111634123Y-159006522D01*
X111634122Y-159006521D01*
X111634121Y-159006519D01*
X111595401Y-158962685D01*
X111165806Y-158597528D01*
X111155088Y-158589017D01*
X111152099Y-158586802D01*
X111147328Y-158583266D01*
X111141822Y-158579185D01*
X111141819Y-158579183D01*
X111141816Y-158579181D01*
X111106746Y-158561732D01*
X111077363Y-158547112D01*
X111077360Y-158547111D01*
X111077358Y-158547110D01*
X111031812Y-158533736D01*
X111010324Y-158527426D01*
X111010320Y-158527425D01*
X111010319Y-158527425D01*
X110952421Y-158519100D01*
X109547200Y-158519100D01*
X109547192Y-158519100D01*
X109503513Y-158523797D01*
X109452025Y-158534997D01*
X109441827Y-158537490D01*
X109441824Y-158537491D01*
X109361116Y-158580499D01*
X109361113Y-158580501D01*
X109308304Y-158626260D01*
X109290360Y-158643842D01*
X109290354Y-158643849D01*
X109245711Y-158723659D01*
X109245709Y-158723664D01*
X109226026Y-158790696D01*
X109226025Y-158790701D01*
X109226025Y-158790702D01*
X109224958Y-158798127D01*
X109217700Y-158848603D01*
X109217700Y-162477100D01*
X109198015Y-162544139D01*
X109145211Y-162589894D01*
X109093700Y-162601100D01*
X108768777Y-162601100D01*
X108701738Y-162581415D01*
X108655983Y-162528611D01*
X108646039Y-162459453D01*
X108675064Y-162395897D01*
X108695140Y-162377331D01*
X108709750Y-162366550D01*
X108790393Y-162257282D01*
X108812819Y-162193190D01*
X108835246Y-162129101D01*
X108835246Y-162129099D01*
X108838100Y-162098669D01*
X108838100Y-161040130D01*
X108835246Y-161009700D01*
X108835246Y-161009698D01*
X108790393Y-160881519D01*
X108790390Y-160881513D01*
X108762330Y-160843493D01*
X108738359Y-160777864D01*
X108738100Y-160769860D01*
X108738100Y-160352589D01*
X108757785Y-160285550D01*
X108762330Y-160278956D01*
X108820390Y-160200286D01*
X108820389Y-160200286D01*
X108820393Y-160200282D01*
X108848882Y-160118864D01*
X108865246Y-160072101D01*
X108865246Y-160072099D01*
X108868100Y-160041669D01*
X108868100Y-159033130D01*
X108865246Y-159002703D01*
X108865246Y-159002701D01*
X108820393Y-158874518D01*
X108764013Y-158798125D01*
X108760982Y-158791831D01*
X108757904Y-158789033D01*
X108744010Y-158756588D01*
X108741697Y-158747956D01*
X108735222Y-158723790D01*
X108714677Y-158647116D01*
X108683788Y-158593614D01*
X108635624Y-158510190D01*
X108635621Y-158510186D01*
X108635620Y-158510184D01*
X108523816Y-158398380D01*
X108523815Y-158398379D01*
X108519485Y-158394049D01*
X108519474Y-158394039D01*
X108198790Y-158073355D01*
X108198788Y-158073352D01*
X108079917Y-157954481D01*
X108079916Y-157954480D01*
X107991189Y-157903254D01*
X107942985Y-157875423D01*
X107790257Y-157834499D01*
X107632143Y-157834499D01*
X107624547Y-157834499D01*
X107624531Y-157834500D01*
X106239947Y-157834500D01*
X106172908Y-157814815D01*
X106127153Y-157762011D01*
X106116489Y-157722079D01*
X106114446Y-157700300D01*
X106114446Y-157700298D01*
X106069593Y-157572119D01*
X106069592Y-157572117D01*
X105988950Y-157462850D01*
X105879682Y-157382207D01*
X105879680Y-157382206D01*
X105751500Y-157337353D01*
X105721070Y-157334500D01*
X105721066Y-157334500D01*
X103612534Y-157334500D01*
X103612530Y-157334500D01*
X103582100Y-157337353D01*
X103582098Y-157337353D01*
X103453919Y-157382206D01*
X103453917Y-157382207D01*
X103344650Y-157462850D01*
X103264007Y-157572117D01*
X103264006Y-157572119D01*
X103219153Y-157700298D01*
X103219153Y-157700300D01*
X103216300Y-157730730D01*
X103216300Y-158984903D01*
X103196615Y-159051942D01*
X103179981Y-159072584D01*
X101785584Y-160466981D01*
X101724261Y-160500466D01*
X101697903Y-160503300D01*
X100926340Y-160503300D01*
X100859301Y-160483615D01*
X100852707Y-160479070D01*
X100814686Y-160451009D01*
X100814680Y-160451006D01*
X100686500Y-160406153D01*
X100656070Y-160403300D01*
X100656066Y-160403300D01*
X99597534Y-160403300D01*
X99597530Y-160403300D01*
X99567100Y-160406153D01*
X99567098Y-160406153D01*
X99438919Y-160451006D01*
X99438917Y-160451007D01*
X99329650Y-160531650D01*
X99249007Y-160640917D01*
X99249006Y-160640919D01*
X99204153Y-160769098D01*
X99204153Y-160769100D01*
X99201300Y-160799530D01*
X99201300Y-161340300D01*
X99181615Y-161407339D01*
X99128811Y-161453094D01*
X99077300Y-161464300D01*
X98716318Y-161464300D01*
X98649279Y-161444615D01*
X98603524Y-161391811D01*
X98593580Y-161322653D01*
X98601757Y-161292847D01*
X98603180Y-161289411D01*
X98603181Y-161289410D01*
X98625500Y-161206116D01*
X98625500Y-161119884D01*
X98625500Y-159240284D01*
X98612453Y-159191592D01*
X98614116Y-159121744D01*
X98653278Y-159063881D01*
X98717507Y-159036377D01*
X98732228Y-159035500D01*
X99093653Y-159035500D01*
X99160692Y-159055185D01*
X99206447Y-159107989D01*
X99217111Y-159147921D01*
X99219153Y-159169695D01*
X99219153Y-159169701D01*
X99264006Y-159297880D01*
X99264007Y-159297882D01*
X99344650Y-159407150D01*
X99453918Y-159487793D01*
X99480759Y-159497185D01*
X99582099Y-159532646D01*
X99612530Y-159535500D01*
X99612534Y-159535500D01*
X101721070Y-159535500D01*
X101751499Y-159532646D01*
X101751501Y-159532646D01*
X101815590Y-159510219D01*
X101879682Y-159487793D01*
X101988950Y-159407150D01*
X102069593Y-159297882D01*
X102095293Y-159224435D01*
X102114446Y-159169701D01*
X102114447Y-159169695D01*
X102117300Y-159139269D01*
X102117300Y-157730730D01*
X102114446Y-157700300D01*
X102114446Y-157700298D01*
X102069593Y-157572119D01*
X102069592Y-157572117D01*
X101988950Y-157462850D01*
X101879682Y-157382207D01*
X101879680Y-157382206D01*
X101751500Y-157337353D01*
X101721070Y-157334500D01*
X101721066Y-157334500D01*
X99612534Y-157334500D01*
X99612530Y-157334500D01*
X99582100Y-157337353D01*
X99582098Y-157337353D01*
X99453919Y-157382206D01*
X99453917Y-157382207D01*
X99344650Y-157462850D01*
X99264007Y-157572117D01*
X99264006Y-157572119D01*
X99219153Y-157700298D01*
X99219153Y-157700300D01*
X99217111Y-157722079D01*
X99191253Y-157786987D01*
X99134407Y-157827612D01*
X99093653Y-157834500D01*
X98478897Y-157834500D01*
X98449456Y-157825855D01*
X98419470Y-157819332D01*
X98414454Y-157815577D01*
X98411858Y-157814815D01*
X98391216Y-157798181D01*
X98307619Y-157714584D01*
X98274134Y-157653261D01*
X98271300Y-157626903D01*
X98271300Y-156557249D01*
X98271299Y-156557247D01*
X98259668Y-156498770D01*
X98259667Y-156498769D01*
X98215352Y-156432447D01*
X98149030Y-156388132D01*
X98149029Y-156388131D01*
X98090552Y-156376500D01*
X98090548Y-156376500D01*
X97251052Y-156376500D01*
X97251047Y-156376500D01*
X97192570Y-156388131D01*
X97192569Y-156388132D01*
X97126247Y-156432447D01*
X97081932Y-156498769D01*
X97081931Y-156498770D01*
X97070300Y-156557247D01*
X97070300Y-156557252D01*
X97070300Y-157847939D01*
X97070299Y-157847943D01*
X97070299Y-158006057D01*
X97070300Y-158006060D01*
X97070300Y-159296752D01*
X97081931Y-159355229D01*
X97081932Y-159355230D01*
X97126247Y-159421552D01*
X97192569Y-159465867D01*
X97192570Y-159465868D01*
X97251047Y-159477499D01*
X97251050Y-159477500D01*
X97251052Y-159477500D01*
X97846500Y-159477500D01*
X97913539Y-159497185D01*
X97959294Y-159549989D01*
X97970500Y-159601500D01*
X97970500Y-160840300D01*
X97950815Y-160907339D01*
X97898011Y-160953094D01*
X97846500Y-160964300D01*
X97426884Y-160964300D01*
X97426881Y-160964300D01*
X97419756Y-160965239D01*
X97403568Y-160966300D01*
X97200247Y-160966300D01*
X97141770Y-160977931D01*
X97141769Y-160977932D01*
X97075447Y-161022247D01*
X97031132Y-161088569D01*
X97031131Y-161088570D01*
X97019500Y-161147047D01*
X97019500Y-161436552D01*
X97033515Y-161507009D01*
X97032239Y-161507262D01*
X97038317Y-161563823D01*
X97031303Y-161587710D01*
X97019500Y-161647047D01*
X97019500Y-161936552D01*
X97033515Y-162007009D01*
X97032239Y-162007262D01*
X97038317Y-162063823D01*
X97031303Y-162087710D01*
X97019500Y-162147047D01*
X97019500Y-162436552D01*
X97033515Y-162507009D01*
X97032239Y-162507262D01*
X97038317Y-162563823D01*
X97031303Y-162587710D01*
X97019500Y-162647047D01*
X97019500Y-162936552D01*
X97031131Y-162995029D01*
X97031132Y-162995030D01*
X97075447Y-163061352D01*
X97141769Y-163105667D01*
X97141770Y-163105668D01*
X97200247Y-163117299D01*
X97200250Y-163117300D01*
X97200252Y-163117300D01*
X97403568Y-163117300D01*
X97419756Y-163118361D01*
X97426881Y-163119299D01*
X97426884Y-163119300D01*
X97758583Y-163119300D01*
X97788023Y-163127944D01*
X97818010Y-163134468D01*
X97823025Y-163138222D01*
X97825622Y-163138985D01*
X97846264Y-163155619D01*
X97885281Y-163194636D01*
X97918766Y-163255959D01*
X97921600Y-163282317D01*
X97921600Y-165265678D01*
X97901915Y-165332717D01*
X97849111Y-165378472D01*
X97838556Y-165382719D01*
X97773717Y-165405407D01*
X97664450Y-165486050D01*
X97583807Y-165595317D01*
X97583806Y-165595319D01*
X97538953Y-165723498D01*
X97538953Y-165723500D01*
X97536100Y-165753930D01*
X97536100Y-166262290D01*
X97516415Y-166329329D01*
X97463611Y-166375084D01*
X97394453Y-166385028D01*
X97330897Y-166356003D01*
X97293123Y-166297225D01*
X97290956Y-166288750D01*
X97290245Y-166285497D01*
X97254189Y-166182457D01*
X97245393Y-166157318D01*
X97164750Y-166048050D01*
X97055482Y-165967407D01*
X97055480Y-165967406D01*
X96927300Y-165922553D01*
X96896870Y-165919700D01*
X96896866Y-165919700D01*
X95838334Y-165919700D01*
X95838330Y-165919700D01*
X95807905Y-165922553D01*
X95807895Y-165922555D01*
X95799655Y-165925438D01*
X95729876Y-165928994D01*
X95671029Y-165896074D01*
X95080419Y-165305464D01*
X95046934Y-165244141D01*
X95044100Y-165217783D01*
X95044100Y-163509017D01*
X95063785Y-163441978D01*
X95080419Y-163421336D01*
X95346136Y-163155619D01*
X95372546Y-163141197D01*
X95397710Y-163124673D01*
X95404719Y-163123629D01*
X95407459Y-163122134D01*
X95432593Y-163119306D01*
X95433201Y-163119300D01*
X95613116Y-163119300D01*
X95619997Y-163117456D01*
X95635208Y-163117306D01*
X95635420Y-163117366D01*
X95636432Y-163117300D01*
X95839750Y-163117300D01*
X95839751Y-163117299D01*
X95854568Y-163114352D01*
X95898229Y-163105668D01*
X95898229Y-163105667D01*
X95898231Y-163105667D01*
X95964552Y-163061352D01*
X96008867Y-162995031D01*
X96008867Y-162995029D01*
X96008868Y-162995029D01*
X96020499Y-162936552D01*
X96020500Y-162936550D01*
X96020500Y-162647049D01*
X96020499Y-162647047D01*
X96006485Y-162576590D01*
X96007762Y-162576335D01*
X96001680Y-162519791D01*
X96008694Y-162495900D01*
X96011138Y-162483615D01*
X96020500Y-162436548D01*
X96020500Y-162147052D01*
X96020500Y-162147049D01*
X96020499Y-162147047D01*
X96006485Y-162076590D01*
X96007761Y-162076336D01*
X96001681Y-162019786D01*
X96002865Y-162014009D01*
X96006369Y-161998768D01*
X96008867Y-161995031D01*
X96019358Y-161942283D01*
X96019766Y-161940513D01*
X96019966Y-161940155D01*
X96021635Y-161933368D01*
X96023186Y-161928086D01*
X96031375Y-161900198D01*
X96039700Y-161842300D01*
X96039700Y-161741300D01*
X96035003Y-161697616D01*
X96023797Y-161646105D01*
X96021310Y-161635927D01*
X96016486Y-161626875D01*
X96008867Y-161588569D01*
X95964552Y-161522248D01*
X95928147Y-161497923D01*
X95914954Y-161484457D01*
X95913446Y-161483613D01*
X95843727Y-161444615D01*
X95835137Y-161439810D01*
X95835136Y-161439809D01*
X95835135Y-161439809D01*
X95768097Y-161420124D01*
X95740410Y-161416143D01*
X95740403Y-161416142D01*
X95710200Y-161411800D01*
X95636432Y-161411800D01*
X95622992Y-161412240D01*
X95606804Y-161413301D01*
X95601739Y-161413800D01*
X95354227Y-161413800D01*
X95287188Y-161394115D01*
X95266550Y-161377485D01*
X95164174Y-161275109D01*
X95164173Y-161275108D01*
X95164169Y-161275104D01*
X95147828Y-161260425D01*
X95147814Y-161260413D01*
X95127165Y-161243772D01*
X95056120Y-161206609D01*
X94989088Y-161186926D01*
X94988439Y-161186832D01*
X94931183Y-161178600D01*
X94931179Y-161178600D01*
X94922689Y-161178600D01*
X94890593Y-161174374D01*
X94847096Y-161162718D01*
X94817192Y-161150331D01*
X94778200Y-161127819D01*
X94752519Y-161108113D01*
X94720685Y-161076279D01*
X94700978Y-161050596D01*
X94700813Y-161050311D01*
X94693998Y-161038506D01*
X94678465Y-161011601D01*
X94666078Y-160981696D01*
X94654425Y-160938205D01*
X94650200Y-160906112D01*
X94650200Y-160861084D01*
X94654423Y-160828998D01*
X94666079Y-160785493D01*
X94678461Y-160755601D01*
X94700983Y-160716593D01*
X94720676Y-160690929D01*
X94752524Y-160659081D01*
X94778196Y-160639381D01*
X94817197Y-160616863D01*
X94847105Y-160604477D01*
X94890594Y-160592825D01*
X94922685Y-160588600D01*
X94967713Y-160588600D01*
X94999801Y-160592823D01*
X95043302Y-160604479D01*
X95073199Y-160616863D01*
X95112200Y-160639380D01*
X95137879Y-160659085D01*
X95169713Y-160690919D01*
X95189419Y-160716600D01*
X95211931Y-160755592D01*
X95224318Y-160785497D01*
X95238512Y-160838467D01*
X95242027Y-160857306D01*
X95244894Y-160883976D01*
X95251899Y-160916179D01*
X95251918Y-160916261D01*
X95252590Y-160919351D01*
X95255560Y-160936254D01*
X95256996Y-160939158D01*
X95258590Y-160945671D01*
X95258717Y-160945910D01*
X95258719Y-160945916D01*
X95280307Y-160986428D01*
X95281318Y-160988325D01*
X95296111Y-161018229D01*
X95297137Y-161019488D01*
X95297685Y-161019041D01*
X95301598Y-161026384D01*
X95301906Y-161026739D01*
X95319852Y-161047452D01*
X95322254Y-161050311D01*
X95329494Y-161059194D01*
X95329592Y-161059291D01*
X95340297Y-161072420D01*
X95340300Y-161072423D01*
X95357351Y-161090902D01*
X95357353Y-161090903D01*
X95359199Y-161092404D01*
X95361545Y-161094542D01*
X95364950Y-161097146D01*
X95384557Y-161108113D01*
X95407242Y-161120802D01*
X95435798Y-161137916D01*
X95437630Y-161138514D01*
X95437827Y-161137910D01*
X95444765Y-161141791D01*
X95445223Y-161141925D01*
X95445224Y-161141926D01*
X95471835Y-161149739D01*
X95475393Y-161150841D01*
X95502206Y-161159596D01*
X95559827Y-161169652D01*
X95561695Y-161169708D01*
X95567853Y-161169800D01*
X95602888Y-161169800D01*
X95612654Y-161171235D01*
X95626555Y-161171652D01*
X95629620Y-161171721D01*
X95633335Y-161171777D01*
X95636432Y-161171800D01*
X95710200Y-161171800D01*
X95753884Y-161167103D01*
X95753892Y-161167101D01*
X95753894Y-161167101D01*
X95805374Y-161155902D01*
X95805390Y-161155898D01*
X95805395Y-161155897D01*
X95815573Y-161153410D01*
X95896285Y-161110400D01*
X95949089Y-161064645D01*
X95967043Y-161047054D01*
X96011690Y-160967237D01*
X96031375Y-160900198D01*
X96039700Y-160842300D01*
X96039700Y-159422728D01*
X96056075Y-159366960D01*
X96054994Y-159366513D01*
X96059159Y-159356457D01*
X96059385Y-159355689D01*
X96059637Y-159355304D01*
X96059668Y-159355229D01*
X96071299Y-159296752D01*
X96071300Y-159296750D01*
X96071300Y-156557249D01*
X96071299Y-156557247D01*
X96059668Y-156498770D01*
X96059667Y-156498769D01*
X96015352Y-156432447D01*
X95949030Y-156388132D01*
X95949029Y-156388131D01*
X95890552Y-156376500D01*
X95890548Y-156376500D01*
X95051052Y-156376500D01*
X95051047Y-156376500D01*
X94992573Y-156388131D01*
X94992567Y-156388133D01*
X94989770Y-156390003D01*
X94982747Y-156392201D01*
X94981289Y-156392806D01*
X94981234Y-156392675D01*
X94923093Y-156410880D01*
X94920881Y-156410900D01*
X93855937Y-156410900D01*
X93833274Y-156412154D01*
X93812888Y-156414416D01*
X93806092Y-156415170D01*
X93729043Y-156439728D01*
X93667954Y-156473627D01*
X93667943Y-156473633D01*
X93646762Y-156487142D01*
X93646758Y-156487146D01*
X93586640Y-156556050D01*
X93586635Y-156556057D01*
X93553573Y-156617595D01*
X93553564Y-156617614D01*
X93543045Y-156640439D01*
X93543044Y-156640444D01*
X93529721Y-156730919D01*
X93535179Y-156800563D01*
X93535180Y-156800575D01*
X93535181Y-156800579D01*
X93538674Y-156825469D01*
X93538675Y-156825471D01*
X93538675Y-156825474D01*
X93576381Y-156908788D01*
X93576382Y-156908789D01*
X93618627Y-156964431D01*
X93618631Y-156964435D01*
X93660273Y-157005514D01*
X93660275Y-157005515D01*
X93661265Y-157006492D01*
X93673955Y-157021137D01*
X93697757Y-157053389D01*
X93715025Y-157086061D01*
X93727840Y-157122679D01*
X93734800Y-157163639D01*
X93734800Y-157704759D01*
X93727841Y-157745715D01*
X93715028Y-157782331D01*
X93714498Y-157783332D01*
X93714461Y-157783917D01*
X93697758Y-157815008D01*
X93676097Y-157844358D01*
X93649959Y-157870496D01*
X93620609Y-157892157D01*
X93587930Y-157909428D01*
X93571603Y-157915141D01*
X93571583Y-157915148D01*
X93551313Y-157922241D01*
X93510357Y-157929200D01*
X92519239Y-157929200D01*
X92515149Y-157928505D01*
X92512915Y-157929039D01*
X92478287Y-157922242D01*
X92441586Y-157909399D01*
X92410539Y-157893311D01*
X92407416Y-157891084D01*
X92405517Y-157889729D01*
X92398923Y-157885184D01*
X92398922Y-157885183D01*
X92398920Y-157885182D01*
X92340202Y-157857212D01*
X92340195Y-157857209D01*
X92273165Y-157837526D01*
X92272516Y-157837432D01*
X92215260Y-157829200D01*
X91970400Y-157829200D01*
X91941154Y-157831292D01*
X91906219Y-157836315D01*
X91906217Y-157836315D01*
X91906215Y-157836316D01*
X91906211Y-157836317D01*
X91901379Y-157838119D01*
X91885935Y-157843877D01*
X91885706Y-157842818D01*
X91875192Y-157845106D01*
X91865035Y-157847588D01*
X91839491Y-157861197D01*
X91831787Y-157864070D01*
X91831780Y-157864074D01*
X91824382Y-157866833D01*
X91824372Y-157866838D01*
X91806621Y-157878244D01*
X91806620Y-157878243D01*
X91802349Y-157880987D01*
X91784321Y-157890594D01*
X91775459Y-157898270D01*
X91768024Y-157903049D01*
X91768016Y-157903056D01*
X91765584Y-157904619D01*
X91765575Y-157904625D01*
X91745320Y-157919467D01*
X91740467Y-157925814D01*
X91740466Y-157925813D01*
X91734161Y-157934056D01*
X91731497Y-157936367D01*
X91713562Y-157953940D01*
X91698865Y-157980210D01*
X91693481Y-157987251D01*
X91693478Y-157987257D01*
X91689766Y-157992111D01*
X91689762Y-157992118D01*
X91680993Y-158011315D01*
X91678892Y-158015914D01*
X91668912Y-158033756D01*
X91665606Y-158045011D01*
X91661933Y-158053055D01*
X91660732Y-158055685D01*
X91660725Y-158055701D01*
X91651711Y-158079137D01*
X91651710Y-158079140D01*
X91651040Y-158087333D01*
X91649688Y-158096405D01*
X91649851Y-158096429D01*
X91649221Y-158100813D01*
X91644165Y-158135990D01*
X91640900Y-158158702D01*
X91640900Y-159487300D01*
X91621215Y-159554339D01*
X91568411Y-159600094D01*
X91516900Y-159611300D01*
X83232792Y-159611300D01*
X83189113Y-159615997D01*
X83137625Y-159627197D01*
X83127427Y-159629690D01*
X83127424Y-159629691D01*
X83046716Y-159672699D01*
X83046713Y-159672701D01*
X82993904Y-159718460D01*
X82975960Y-159736042D01*
X82975954Y-159736049D01*
X82931311Y-159815859D01*
X82931309Y-159815864D01*
X82911626Y-159882896D01*
X82903300Y-159940803D01*
X82903300Y-162639207D01*
X82907997Y-162682886D01*
X82919197Y-162734374D01*
X82921690Y-162744572D01*
X82921691Y-162744575D01*
X82934285Y-162768209D01*
X82955786Y-162808558D01*
X82964699Y-162825283D01*
X82964701Y-162825286D01*
X83010459Y-162878094D01*
X83011518Y-162879174D01*
X83011605Y-162879337D01*
X83011742Y-162879486D01*
X83011703Y-162879521D01*
X83044382Y-162940832D01*
X83038694Y-163010470D01*
X83009358Y-163054907D01*
X83001714Y-163062332D01*
X83001709Y-163062338D01*
X82956717Y-163141961D01*
X82936743Y-163208911D01*
X82936742Y-163208917D01*
X82928168Y-163266766D01*
X82928167Y-163266774D01*
X82903691Y-168920495D01*
X82903984Y-168932373D01*
X82904752Y-168946696D01*
X82904753Y-168946700D01*
X82912177Y-168979087D01*
X82920445Y-169015159D01*
X82920448Y-169015166D01*
X82947467Y-169079600D01*
X82958584Y-169102137D01*
X82958585Y-169102138D01*
X83013394Y-169161700D01*
X83020513Y-169169436D01*
X83078079Y-169209034D01*
X83130496Y-169234988D01*
X83130503Y-169234990D01*
X83130507Y-169234992D01*
X84657380Y-169735806D01*
X89167948Y-171215272D01*
X89225512Y-171254869D01*
X89252531Y-171319303D01*
X89253300Y-171333095D01*
X89253300Y-174724258D01*
X89258599Y-174761989D01*
X89261249Y-174780857D01*
X89271970Y-174818276D01*
X89280065Y-174846528D01*
X89280065Y-174846529D01*
X89287929Y-174868975D01*
X89293914Y-174877371D01*
X89341016Y-174943448D01*
X89393215Y-174989891D01*
X89442003Y-175022157D01*
X89442007Y-175022159D01*
X89442009Y-175022160D01*
X93700510Y-177034840D01*
X93708688Y-177042116D01*
X93719050Y-177045657D01*
X93734333Y-177064933D01*
X93752709Y-177081283D01*
X93755655Y-177091826D01*
X93762458Y-177100407D01*
X93764893Y-177124885D01*
X93771513Y-177148575D01*
X93768291Y-177159038D01*
X93769375Y-177169933D01*
X93758191Y-177191840D01*
X93750952Y-177215350D01*
X93742584Y-177222410D01*
X93737606Y-177232162D01*
X93716351Y-177244546D01*
X93697552Y-177260409D01*
X93685112Y-177262747D01*
X93677236Y-177267337D01*
X93642115Y-177270831D01*
X93461687Y-177262953D01*
X93459481Y-177262837D01*
X93439913Y-177261633D01*
X93439418Y-177261602D01*
X91716534Y-177148678D01*
X91713837Y-177148471D01*
X89977931Y-176996599D01*
X89975238Y-176996334D01*
X88242994Y-176806622D01*
X88240309Y-176806298D01*
X86512665Y-176578850D01*
X86509987Y-176578468D01*
X84787660Y-176313376D01*
X84784991Y-176312935D01*
X83068894Y-176010341D01*
X83066235Y-176009842D01*
X81617960Y-175721762D01*
X81357175Y-175669889D01*
X81354535Y-175669335D01*
X79653190Y-175292155D01*
X79650556Y-175291540D01*
X77957985Y-174877371D01*
X77955364Y-174876700D01*
X76272112Y-174425673D01*
X76269507Y-174424944D01*
X74596580Y-173937331D01*
X74593991Y-173936546D01*
X72932031Y-173412532D01*
X72929460Y-173411690D01*
X71279382Y-172851563D01*
X71276831Y-172850666D01*
X69639337Y-172254668D01*
X69636805Y-172253715D01*
X68012715Y-171622141D01*
X68010204Y-171621133D01*
X66442459Y-170971752D01*
X66441980Y-170971552D01*
X66389865Y-170949709D01*
X66387856Y-170948847D01*
X64893741Y-170291420D01*
X64893204Y-170291182D01*
X64777237Y-170239498D01*
X64775310Y-170238619D01*
X63345795Y-169572026D01*
X63345203Y-169571748D01*
X63180975Y-169494109D01*
X63179128Y-169493217D01*
X61803598Y-168814881D01*
X61802951Y-168814560D01*
X61601775Y-168713890D01*
X61600009Y-168712988D01*
X60270467Y-168020871D01*
X60269769Y-168020505D01*
X60040573Y-167899334D01*
X60038945Y-167898457D01*
X58985833Y-167320700D01*
X58749093Y-167190820D01*
X58748344Y-167190405D01*
X58498084Y-167050849D01*
X58496476Y-167049937D01*
X57242057Y-166325698D01*
X57241258Y-166325233D01*
X56974960Y-166168828D01*
X56973431Y-166167915D01*
X55750632Y-165425902D01*
X55749787Y-165425384D01*
X55472115Y-165253836D01*
X55470709Y-165252955D01*
X54357088Y-164543500D01*
X54276612Y-164492231D01*
X54275721Y-164491658D01*
X53990259Y-164306353D01*
X53988884Y-164305447D01*
X52820917Y-163525037D01*
X52820086Y-163524477D01*
X52530231Y-163326969D01*
X52528934Y-163326074D01*
X52510188Y-163312948D01*
X62844343Y-163312948D01*
X62844343Y-163312953D01*
X62865426Y-163446073D01*
X62926618Y-163566169D01*
X62926623Y-163566176D01*
X63021920Y-163661473D01*
X63021923Y-163661475D01*
X63021926Y-163661478D01*
X63053192Y-163677409D01*
X63111806Y-163707275D01*
X63111808Y-163707275D01*
X63111811Y-163707277D01*
X63888802Y-163959736D01*
X63956876Y-163970517D01*
X63988438Y-163975517D01*
X63988438Y-163975516D01*
X63988440Y-163975517D01*
X64013489Y-163971549D01*
X64074398Y-163977176D01*
X64313683Y-164062186D01*
X65229629Y-164387588D01*
X65275799Y-164416752D01*
X65307920Y-164448873D01*
X65307923Y-164448875D01*
X65307926Y-164448878D01*
X65397811Y-164494677D01*
X66016990Y-164695859D01*
X66065359Y-164725126D01*
X69334306Y-167921431D01*
X69393141Y-167954523D01*
X69415032Y-167970190D01*
X69431255Y-167984707D01*
X69454250Y-167995244D01*
X70873917Y-168456520D01*
X70903049Y-168470401D01*
X70935882Y-168491686D01*
X70935884Y-168491686D01*
X70935887Y-168491688D01*
X76974094Y-170448319D01*
X77018555Y-170473872D01*
X77025855Y-170480404D01*
X77025856Y-170480405D01*
X77043427Y-170488456D01*
X77048850Y-170490941D01*
X78065269Y-170821195D01*
X78077654Y-170825966D01*
X78083436Y-170828557D01*
X78091462Y-170833191D01*
X78097213Y-170834732D01*
X78106257Y-170838785D01*
X78121185Y-170851537D01*
X78143225Y-170864260D01*
X80236339Y-172957374D01*
X80236349Y-172957385D01*
X80240679Y-172961715D01*
X80240680Y-172961716D01*
X80352484Y-173073520D01*
X80439295Y-173123639D01*
X80439297Y-173123641D01*
X80477351Y-173145611D01*
X80489415Y-173152577D01*
X80642143Y-173193500D01*
X80642145Y-173193500D01*
X85143655Y-173193500D01*
X85143657Y-173193500D01*
X85296384Y-173152577D01*
X85433316Y-173073520D01*
X85545120Y-172961716D01*
X85624177Y-172824784D01*
X85665100Y-172672057D01*
X85665100Y-172513943D01*
X85624177Y-172361216D01*
X85597501Y-172315011D01*
X85545124Y-172224290D01*
X85545118Y-172224282D01*
X85433317Y-172112481D01*
X85433309Y-172112475D01*
X85296390Y-172033426D01*
X85296386Y-172033424D01*
X85296384Y-172033423D01*
X85143657Y-171992500D01*
X85143656Y-171992500D01*
X81021297Y-171992500D01*
X80954258Y-171972815D01*
X80933616Y-171956181D01*
X79715951Y-170738516D01*
X79682466Y-170677193D01*
X79685701Y-170612517D01*
X79725204Y-170490941D01*
X79761769Y-170378407D01*
X79761771Y-170378398D01*
X79766762Y-170353612D01*
X79760419Y-170291420D01*
X79755363Y-170241842D01*
X79704358Y-170141741D01*
X79620637Y-170066824D01*
X79597642Y-170056287D01*
X79284136Y-169954422D01*
X79226460Y-169914984D01*
X79199262Y-169850626D01*
X79211177Y-169781779D01*
X79258421Y-169730304D01*
X79309870Y-169713131D01*
X79383415Y-169705631D01*
X79483516Y-169654627D01*
X79558433Y-169570906D01*
X79568970Y-169547911D01*
X80347608Y-167151506D01*
X80352602Y-167126708D01*
X80341202Y-167014941D01*
X80290198Y-166914840D01*
X80206477Y-166839923D01*
X80183482Y-166829386D01*
X78842749Y-166393757D01*
X78842746Y-166393756D01*
X78842742Y-166393755D01*
X78817952Y-166388764D01*
X78817946Y-166388764D01*
X78706185Y-166400163D01*
X78606082Y-166451168D01*
X78531167Y-166534887D01*
X78520630Y-166557882D01*
X77741992Y-168954286D01*
X77741992Y-168954288D01*
X77736998Y-168979086D01*
X77748398Y-169090853D01*
X77799402Y-169190954D01*
X77799403Y-169190955D01*
X77821777Y-169210976D01*
X77858609Y-169270349D01*
X77857495Y-169340210D01*
X77818788Y-169398378D01*
X77754777Y-169426386D01*
X77700866Y-169421343D01*
X72070826Y-167596974D01*
X72034086Y-167575857D01*
X72033839Y-167576236D01*
X72027343Y-167571982D01*
X72026363Y-167571418D01*
X72026037Y-167571127D01*
X72026033Y-167571125D01*
X72003045Y-167560591D01*
X71689536Y-167458725D01*
X71631860Y-167419287D01*
X71604662Y-167354929D01*
X71616577Y-167286082D01*
X71663821Y-167234607D01*
X71715270Y-167217434D01*
X71788815Y-167209934D01*
X71888916Y-167158930D01*
X71963833Y-167075209D01*
X71974370Y-167052214D01*
X72753008Y-164655809D01*
X72758002Y-164631011D01*
X72746602Y-164519244D01*
X72695598Y-164419143D01*
X72678960Y-164404255D01*
X72611877Y-164344226D01*
X72588882Y-164333689D01*
X72220516Y-164214000D01*
X71248149Y-163898060D01*
X71248146Y-163898059D01*
X71248142Y-163898058D01*
X71223352Y-163893067D01*
X71223346Y-163893067D01*
X71111585Y-163904466D01*
X71011482Y-163955471D01*
X70936567Y-164039190D01*
X70926030Y-164062185D01*
X70147392Y-166458589D01*
X70142398Y-166483390D01*
X70142398Y-166483391D01*
X70147651Y-166534887D01*
X70153798Y-166595156D01*
X70204802Y-166695257D01*
X70204803Y-166695258D01*
X70259891Y-166744553D01*
X70296722Y-166803926D01*
X70295608Y-166873787D01*
X70256900Y-166931955D01*
X70192890Y-166959962D01*
X70138885Y-166954889D01*
X70053861Y-166927263D01*
X70005488Y-166897993D01*
X66852374Y-163814948D01*
X66829817Y-163778600D01*
X66827646Y-163779707D01*
X66819279Y-163763285D01*
X66762025Y-163650917D01*
X66762022Y-163650914D01*
X66762020Y-163650911D01*
X66666723Y-163555614D01*
X66666719Y-163555611D01*
X66666718Y-163555610D01*
X66664865Y-163554666D01*
X66576837Y-163509812D01*
X65799843Y-163257352D01*
X65700206Y-163241571D01*
X65700201Y-163241571D01*
X65656117Y-163248553D01*
X65595209Y-163242925D01*
X64474179Y-162844664D01*
X64428009Y-162815500D01*
X64380723Y-162768214D01*
X64380719Y-162768211D01*
X64380718Y-162768210D01*
X64358682Y-162756982D01*
X64290837Y-162722412D01*
X63513843Y-162469952D01*
X63414206Y-162454171D01*
X63414202Y-162454171D01*
X63281081Y-162475254D01*
X63160985Y-162536446D01*
X63160978Y-162536451D01*
X63065681Y-162631748D01*
X63065676Y-162631755D01*
X63019879Y-162721634D01*
X62860124Y-163213311D01*
X62844343Y-163312948D01*
X52510188Y-163312948D01*
X51385038Y-162525109D01*
X51384064Y-162524420D01*
X51092562Y-162316098D01*
X51091338Y-162315211D01*
X50671349Y-162007262D01*
X49969828Y-161492885D01*
X49968855Y-161492165D01*
X49905369Y-161444615D01*
X49726161Y-161310390D01*
X49678313Y-161274552D01*
X49677163Y-161273680D01*
X48576371Y-160429013D01*
X48575321Y-160428198D01*
X48288031Y-160202822D01*
X48286953Y-160201967D01*
X47889399Y-159882896D01*
X47205529Y-159334032D01*
X47204454Y-159333160D01*
X47199594Y-159329169D01*
X47159534Y-159296269D01*
X46922470Y-159101576D01*
X46921462Y-159100740D01*
X46899498Y-159082310D01*
X45857961Y-158208356D01*
X45856963Y-158207507D01*
X45582489Y-157971620D01*
X45581686Y-157970923D01*
X44534892Y-157052910D01*
X44533781Y-157051923D01*
X44268761Y-156813655D01*
X44268003Y-156812966D01*
X43486415Y-156096773D01*
X43236883Y-155868119D01*
X43235711Y-155867032D01*
X43225375Y-155857313D01*
X42982164Y-155628614D01*
X42981377Y-155627868D01*
X42145030Y-154827240D01*
X41964514Y-154654434D01*
X41963345Y-154653299D01*
X41831619Y-154523764D01*
X41723358Y-154417303D01*
X41722620Y-154416571D01*
X40718752Y-153412703D01*
X40717535Y-153411469D01*
X40493276Y-153180853D01*
X40492601Y-153180154D01*
X39500135Y-152143410D01*
X39498900Y-152142100D01*
X39292605Y-151920242D01*
X39291991Y-151919577D01*
X39284686Y-151911605D01*
X38309390Y-150847255D01*
X38308181Y-150845916D01*
X38122467Y-150637012D01*
X38121913Y-150636385D01*
X37496638Y-149923396D01*
X37147129Y-149524857D01*
X37145879Y-149523410D01*
X37097905Y-149466953D01*
X36983869Y-149332751D01*
X36983373Y-149332163D01*
X36685901Y-148977650D01*
X36013923Y-148176819D01*
X36012765Y-148175416D01*
X35878090Y-148009549D01*
X35877654Y-148009009D01*
X34910489Y-146803945D01*
X34909208Y-146802321D01*
X34857099Y-146735128D01*
X34806363Y-146669704D01*
X33978801Y-145591204D01*
X33837286Y-145406777D01*
X33836000Y-145405071D01*
X33771297Y-145317670D01*
X33770960Y-145317212D01*
X33480774Y-144921449D01*
X32794929Y-143986074D01*
X32793643Y-143984288D01*
X32774728Y-143957505D01*
X31790264Y-142551544D01*
X31788791Y-142549392D01*
X31053287Y-141448632D01*
X30820645Y-141100458D01*
X30819166Y-141098192D01*
X29882864Y-139628492D01*
X29881436Y-139626195D01*
X29119099Y-138369903D01*
X28977419Y-138136421D01*
X28976059Y-138134123D01*
X28924443Y-138044722D01*
X28104767Y-136625000D01*
X28103451Y-136622663D01*
X28083513Y-136586320D01*
X27265258Y-135094838D01*
X27264024Y-135092529D01*
X26594557Y-133806496D01*
X26459379Y-133546822D01*
X26458156Y-133544409D01*
X25934409Y-132482355D01*
X25687427Y-131981525D01*
X25686263Y-131979098D01*
X25476471Y-131529198D01*
X24949808Y-130399765D01*
X24948725Y-130397377D01*
X24246873Y-128802296D01*
X24245811Y-128799808D01*
X23636198Y-127328072D01*
X23578952Y-127189867D01*
X23577953Y-127187379D01*
X23575229Y-127180374D01*
X22946367Y-125563258D01*
X22945426Y-125560757D01*
X22874754Y-125366588D01*
X22349428Y-123923263D01*
X22348531Y-123920712D01*
X22143721Y-123317361D01*
X21788387Y-122270582D01*
X21787578Y-122268114D01*
X21263530Y-120606045D01*
X21262781Y-120603574D01*
X20785262Y-118965281D01*
X20785194Y-118965045D01*
X20772817Y-118921921D01*
X20772230Y-118919807D01*
X20726077Y-118747563D01*
X20347398Y-117334311D01*
X20347288Y-117333897D01*
X20317209Y-117219512D01*
X20316772Y-117217786D01*
X19940048Y-115678242D01*
X19899350Y-115508092D01*
X19898957Y-115506391D01*
X19565604Y-114002733D01*
X19519329Y-113788169D01*
X19518966Y-113786418D01*
X19225515Y-112311139D01*
X19177341Y-112060726D01*
X19177000Y-112058874D01*
X18920884Y-110606368D01*
X18920820Y-110605993D01*
X18873525Y-110326623D01*
X18873232Y-110324812D01*
X18652452Y-108890383D01*
X18652316Y-108889479D01*
X18651343Y-108882835D01*
X18607958Y-108586432D01*
X18607758Y-108584992D01*
X18420750Y-107164521D01*
X18420627Y-107163555D01*
X18395108Y-106957100D01*
X18380848Y-106841734D01*
X18380669Y-106840198D01*
X18226291Y-105430591D01*
X18226248Y-105430178D01*
X18192194Y-105092878D01*
X18192044Y-105091280D01*
X18186237Y-105024904D01*
X18069483Y-103690394D01*
X18069432Y-103689778D01*
X18042096Y-103341196D01*
X18041983Y-103339635D01*
X17950577Y-101945058D01*
X17950510Y-101943930D01*
X17930541Y-101587090D01*
X17930482Y-101585902D01*
X17869777Y-100195530D01*
X17869733Y-100194366D01*
X17857574Y-99831971D01*
X17857544Y-99830881D01*
X17827260Y-98443007D01*
X17827244Y-98442035D01*
X17823163Y-98076970D01*
X17823155Y-98075584D01*
X17823155Y-96688814D01*
X17823163Y-96687428D01*
X17827244Y-96322358D01*
X17827260Y-96321403D01*
X17857544Y-94933485D01*
X17857573Y-94932437D01*
X17869737Y-94569920D01*
X17869776Y-94568889D01*
X17930482Y-93178499D01*
X17930541Y-93177326D01*
X17950516Y-92820367D01*
X17950581Y-92819286D01*
X17955685Y-92741413D01*
X17969224Y-92534849D01*
X22279724Y-92534849D01*
X22279724Y-92534856D01*
X22282468Y-92555013D01*
X22283601Y-92571736D01*
X22283601Y-94578757D01*
X22283602Y-94578765D01*
X22284074Y-94582830D01*
X22284900Y-94597121D01*
X22284900Y-100271658D01*
X22284073Y-100285949D01*
X22283600Y-100290035D01*
X22283600Y-101783331D01*
X22280303Y-101802002D01*
X22283600Y-101839823D01*
X22283600Y-102579756D01*
X22283602Y-102579782D01*
X22286513Y-102604887D01*
X22286515Y-102604891D01*
X22331893Y-102707664D01*
X22331894Y-102707665D01*
X22411335Y-102787106D01*
X22514109Y-102832485D01*
X22539235Y-102835400D01*
X22539237Y-102835399D01*
X22539694Y-102835453D01*
X22604019Y-102862732D01*
X22641939Y-102916251D01*
X24158310Y-107086274D01*
X24165757Y-107126486D01*
X24173774Y-107585763D01*
X24173775Y-107585765D01*
X24191293Y-107685112D01*
X24254570Y-107804120D01*
X24351527Y-107897750D01*
X24472671Y-107956836D01*
X24572569Y-107970875D01*
X25089466Y-107961853D01*
X25188814Y-107944335D01*
X25307821Y-107881058D01*
X25401452Y-107784101D01*
X25460537Y-107662957D01*
X25474577Y-107563059D01*
X25460319Y-106746207D01*
X25442801Y-106646860D01*
X25379524Y-106527852D01*
X25282567Y-106434222D01*
X25226201Y-106406730D01*
X25174576Y-106359651D01*
X25164028Y-106337662D01*
X23807042Y-102605948D01*
X23492065Y-101739761D01*
X23484599Y-101697385D01*
X23484599Y-101138265D01*
X23485661Y-101122073D01*
X23485900Y-101120258D01*
X23485900Y-100730031D01*
X24303600Y-100730031D01*
X24303600Y-102139756D01*
X24303602Y-102139782D01*
X24306513Y-102164887D01*
X24306515Y-102164891D01*
X24351893Y-102267664D01*
X24351894Y-102267665D01*
X24431335Y-102347106D01*
X24534109Y-102392485D01*
X24559235Y-102395400D01*
X27078964Y-102395399D01*
X27078979Y-102395397D01*
X27078982Y-102395397D01*
X27104087Y-102392486D01*
X27104088Y-102392485D01*
X27104091Y-102392485D01*
X27206865Y-102347106D01*
X27286306Y-102267665D01*
X27304173Y-102227199D01*
X27349256Y-102173825D01*
X27416042Y-102153297D01*
X27483325Y-102172134D01*
X27529742Y-102224357D01*
X27541604Y-102277935D01*
X27519619Y-106488002D01*
X27507073Y-106541709D01*
X27483869Y-106589286D01*
X27473062Y-106611445D01*
X27459024Y-106711334D01*
X27459023Y-106711348D01*
X27473280Y-107528192D01*
X27490799Y-107627540D01*
X27554075Y-107746547D01*
X27573977Y-107765766D01*
X27608526Y-107826496D01*
X27609745Y-107832277D01*
X32140537Y-132179065D01*
X32139922Y-132227525D01*
X32133839Y-132256149D01*
X32133839Y-132256151D01*
X32147927Y-132390194D01*
X32188962Y-132482361D01*
X32597657Y-133111696D01*
X32614725Y-133152401D01*
X32766914Y-133839106D01*
X33593831Y-137570315D01*
X33666830Y-137710570D01*
X33773643Y-137827152D01*
X33794988Y-137840752D01*
X33828673Y-137872443D01*
X34637995Y-138986378D01*
X35020569Y-139512946D01*
X35037696Y-139531561D01*
X35037700Y-139531563D01*
X35044968Y-139537403D01*
X35043772Y-139538890D01*
X35069800Y-139562356D01*
X38358852Y-144074041D01*
X38374583Y-144103091D01*
X38376636Y-144108502D01*
X38389054Y-144130555D01*
X39734917Y-145982975D01*
X39734921Y-145982980D01*
X39752048Y-146001595D01*
X39777489Y-146016388D01*
X39849168Y-146058067D01*
X39893553Y-146065097D01*
X39960129Y-146075642D01*
X39960130Y-146075641D01*
X39960132Y-146075642D01*
X39985633Y-146070139D01*
X40055314Y-146075239D01*
X40071296Y-146082561D01*
X43733598Y-148086056D01*
X43770451Y-148116805D01*
X44163845Y-148602606D01*
X44238814Y-148670108D01*
X44361946Y-148724930D01*
X44495993Y-148739018D01*
X44627832Y-148710995D01*
X44715197Y-148660555D01*
X45116963Y-148335212D01*
X45184465Y-148260243D01*
X45239287Y-148137111D01*
X45253376Y-148003064D01*
X45225352Y-147871224D01*
X45174912Y-147783860D01*
X44858435Y-147393042D01*
X44845706Y-147372123D01*
X44827125Y-147354378D01*
X44660773Y-147148950D01*
X44644623Y-147134409D01*
X44585807Y-147081451D01*
X44585804Y-147081448D01*
X44462672Y-147026626D01*
X44462670Y-147026625D01*
X44328621Y-147012537D01*
X44318879Y-147013048D01*
X44318731Y-147010229D01*
X44264320Y-147006067D01*
X44248717Y-146998888D01*
X41278618Y-145374069D01*
X40470605Y-144932038D01*
X40461880Y-144924362D01*
X40454398Y-144921449D01*
X40429800Y-144896138D01*
X40359282Y-144799078D01*
X40343907Y-144770815D01*
X40333617Y-144744136D01*
X40179209Y-144532330D01*
X35389074Y-137961569D01*
X35389073Y-137961568D01*
X35389070Y-137961565D01*
X35374942Y-137950162D01*
X35352508Y-137926559D01*
X34720750Y-137057020D01*
X34700008Y-137010970D01*
X33766960Y-132800875D01*
X33766733Y-132748263D01*
X33769217Y-132736578D01*
X33780147Y-132685158D01*
X33766058Y-132551112D01*
X33725027Y-132458953D01*
X33725024Y-132458948D01*
X33725023Y-132458946D01*
X33302821Y-131808812D01*
X33284909Y-131763963D01*
X33171029Y-131152014D01*
X33042034Y-130458841D01*
X34901453Y-130458841D01*
X34901453Y-130458842D01*
X34915541Y-130592886D01*
X34956576Y-130685053D01*
X35401527Y-131370218D01*
X35401531Y-131370223D01*
X35469031Y-131445188D01*
X35469030Y-131445188D01*
X35585757Y-131512580D01*
X35585759Y-131512581D01*
X35663935Y-131529198D01*
X35725417Y-131562391D01*
X35738048Y-131577022D01*
X38128260Y-134827062D01*
X38152121Y-134892731D01*
X38136690Y-134960876D01*
X38086868Y-135009860D01*
X38018471Y-135024133D01*
X37966035Y-135007723D01*
X37905420Y-134972477D01*
X37905416Y-134972476D01*
X37794455Y-134954901D01*
X37684638Y-134978598D01*
X37684633Y-134978600D01*
X37662604Y-134991003D01*
X37662583Y-134991017D01*
X35624095Y-136472066D01*
X35624090Y-136472070D01*
X35605476Y-136489196D01*
X35549003Y-136586320D01*
X35531428Y-136697280D01*
X35555125Y-136807097D01*
X35555127Y-136807102D01*
X35567533Y-136829136D01*
X35567540Y-136829147D01*
X35733102Y-137057023D01*
X36396155Y-137969635D01*
X36396158Y-137969638D01*
X36413283Y-137988251D01*
X36505324Y-138041770D01*
X36510403Y-138044723D01*
X36584379Y-138056439D01*
X36621366Y-138062298D01*
X36621366Y-138062297D01*
X36621367Y-138062298D01*
X36731186Y-138038601D01*
X36753227Y-138026191D01*
X38791730Y-136545131D01*
X38810345Y-136528004D01*
X38866818Y-136430882D01*
X38884393Y-136319919D01*
X38868803Y-136247671D01*
X38873904Y-136177991D01*
X38915868Y-136122127D01*
X38981373Y-136097819D01*
X39049621Y-136112785D01*
X39090329Y-136148630D01*
X39284077Y-136415301D01*
X39301204Y-136433916D01*
X39301206Y-136433917D01*
X39301207Y-136433918D01*
X39308477Y-136439760D01*
X39307135Y-136441429D01*
X39331858Y-136463628D01*
X42609516Y-140920352D01*
X42630832Y-140967662D01*
X42638328Y-141002399D01*
X42640154Y-141010859D01*
X42652565Y-141032900D01*
X42652568Y-141032905D01*
X42846323Y-141299586D01*
X42869803Y-141365392D01*
X42853977Y-141433446D01*
X42803872Y-141482141D01*
X42735394Y-141496016D01*
X42683674Y-141479666D01*
X42619773Y-141442509D01*
X42619769Y-141442508D01*
X42508808Y-141424933D01*
X42398991Y-141448630D01*
X42398986Y-141448632D01*
X42376957Y-141461035D01*
X42376936Y-141461049D01*
X40338448Y-142942098D01*
X40338443Y-142942102D01*
X40319829Y-142959228D01*
X40263356Y-143056352D01*
X40245781Y-143167312D01*
X40269478Y-143277129D01*
X40269480Y-143277134D01*
X40281886Y-143299168D01*
X40281893Y-143299179D01*
X40534253Y-143646522D01*
X41110508Y-144439667D01*
X41110511Y-144439670D01*
X41127636Y-144458283D01*
X41224754Y-144514754D01*
X41224756Y-144514755D01*
X41298732Y-144526471D01*
X41335719Y-144532330D01*
X41335719Y-144532329D01*
X41335720Y-144532330D01*
X41445539Y-144508633D01*
X41467580Y-144496223D01*
X43506083Y-143015163D01*
X43524698Y-142998036D01*
X43581171Y-142900914D01*
X43598746Y-142789951D01*
X43583153Y-142717689D01*
X43588253Y-142648010D01*
X43630218Y-142592146D01*
X43695723Y-142567838D01*
X43763971Y-142582804D01*
X43804681Y-142618651D01*
X43998434Y-142885329D01*
X44012773Y-142900914D01*
X44015562Y-142903945D01*
X44085469Y-142944594D01*
X44123032Y-142978323D01*
X46132972Y-145711296D01*
X46154368Y-145758979D01*
X46163847Y-145803573D01*
X46163848Y-145803577D01*
X46214286Y-145890937D01*
X46214291Y-145890944D01*
X46424606Y-146150662D01*
X46728427Y-146525850D01*
X46803396Y-146593352D01*
X46926528Y-146648174D01*
X46962282Y-146651931D01*
X47026894Y-146678512D01*
X63821914Y-160231531D01*
X63845499Y-160250563D01*
X63879463Y-160299550D01*
X63880754Y-160298893D01*
X63885183Y-160307587D01*
X63885184Y-160307588D01*
X63946374Y-160427681D01*
X63946379Y-160427688D01*
X64041676Y-160522985D01*
X64041679Y-160522987D01*
X64041682Y-160522990D01*
X64085002Y-160545062D01*
X64131562Y-160568787D01*
X64131564Y-160568787D01*
X64131567Y-160568789D01*
X64908558Y-160821248D01*
X64970743Y-160831097D01*
X65008194Y-160837029D01*
X65008195Y-160837029D01*
X65008195Y-160837028D01*
X65008196Y-160837029D01*
X65045644Y-160831097D01*
X65105154Y-160836236D01*
X66215053Y-161215677D01*
X66262618Y-161245326D01*
X66327682Y-161310390D01*
X66371002Y-161332462D01*
X66417562Y-161356187D01*
X66417564Y-161356187D01*
X66417567Y-161356189D01*
X67194558Y-161608648D01*
X67262632Y-161619429D01*
X67294194Y-161624429D01*
X67294196Y-161624429D01*
X67343413Y-161616633D01*
X67402923Y-161621772D01*
X70850584Y-162800421D01*
X70894926Y-162815580D01*
X70951994Y-162855893D01*
X70965298Y-162876617D01*
X70974262Y-162894210D01*
X70976052Y-162897722D01*
X71059773Y-162972639D01*
X71082768Y-162983176D01*
X73260430Y-163690740D01*
X73260437Y-163690741D01*
X73260439Y-163690742D01*
X73260438Y-163690742D01*
X73285223Y-163695732D01*
X73285228Y-163695733D01*
X73396994Y-163684334D01*
X73396995Y-163684333D01*
X73400118Y-163684015D01*
X73452810Y-163690041D01*
X78654297Y-165468268D01*
X78654373Y-165468336D01*
X78677368Y-165478873D01*
X78837705Y-165530969D01*
X79611152Y-165795387D01*
X79646792Y-165797800D01*
X79676733Y-165803585D01*
X80855030Y-166186437D01*
X80855037Y-166186438D01*
X80855039Y-166186439D01*
X80855038Y-166186439D01*
X80879823Y-166191429D01*
X80879828Y-166191430D01*
X80991594Y-166180031D01*
X81091696Y-166129027D01*
X81166613Y-166045306D01*
X81177150Y-166022310D01*
X81390287Y-165366339D01*
X81391824Y-165358706D01*
X81395280Y-165341544D01*
X81394380Y-165332717D01*
X81383881Y-165229774D01*
X81332876Y-165129673D01*
X81249155Y-165054756D01*
X81226160Y-165044219D01*
X80244098Y-164725128D01*
X79218549Y-164391907D01*
X79216755Y-164391309D01*
X67762842Y-160475573D01*
X67715272Y-160445920D01*
X67686478Y-160417125D01*
X67686472Y-160417121D01*
X67596593Y-160371324D01*
X66819599Y-160118864D01*
X66719962Y-160103083D01*
X66719956Y-160103083D01*
X66718440Y-160103323D01*
X66715662Y-160103083D01*
X66710203Y-160103083D01*
X66710203Y-160102611D01*
X66658937Y-160098182D01*
X65485788Y-159697119D01*
X65438218Y-159667466D01*
X65400478Y-159629725D01*
X65400472Y-159629721D01*
X65310593Y-159583924D01*
X64698279Y-159384971D01*
X64692732Y-159381965D01*
X64689067Y-159381569D01*
X64658726Y-159363539D01*
X64577363Y-159297882D01*
X64486346Y-159224434D01*
X77807395Y-159224434D01*
X77807395Y-159224435D01*
X77807395Y-159233133D01*
X77813546Y-159239284D01*
X77822244Y-159239284D01*
X77828395Y-159233133D01*
X77828395Y-159224435D01*
X77822244Y-159218284D01*
X77813546Y-159218284D01*
X77813545Y-159218284D01*
X77807395Y-159224434D01*
X64486346Y-159224434D01*
X50588764Y-148009549D01*
X47757151Y-145724532D01*
X47738656Y-145706069D01*
X47469808Y-145374069D01*
X47225355Y-145072194D01*
X47150386Y-145004692D01*
X47150383Y-145004690D01*
X47150381Y-145004689D01*
X47111612Y-144987428D01*
X47062154Y-144947615D01*
X47045053Y-144924362D01*
X39254289Y-134331037D01*
X39253888Y-134330488D01*
X38909839Y-133856946D01*
X38909835Y-133856941D01*
X38893426Y-133839106D01*
X38884786Y-133828615D01*
X38415407Y-133190387D01*
X36225521Y-130212736D01*
X36225519Y-130212734D01*
X36225518Y-130212733D01*
X36190332Y-130184577D01*
X36163814Y-130155298D01*
X36047684Y-129976471D01*
X36047682Y-129976469D01*
X36047682Y-129976468D01*
X35980182Y-129901503D01*
X35980183Y-129901503D01*
X35863456Y-129834111D01*
X35863454Y-129834110D01*
X35731614Y-129806087D01*
X35731613Y-129806087D01*
X35597568Y-129820175D01*
X35597563Y-129820177D01*
X35505413Y-129861205D01*
X35505408Y-129861208D01*
X35071839Y-130142770D01*
X35071834Y-130142774D01*
X34996873Y-130210270D01*
X34996869Y-130210274D01*
X34996869Y-130210275D01*
X34990178Y-130221864D01*
X34929476Y-130327000D01*
X34929475Y-130327002D01*
X34901453Y-130458841D01*
X33042034Y-130458841D01*
X28776002Y-107534784D01*
X28774500Y-107510353D01*
X28774168Y-107510359D01*
X28759825Y-106688635D01*
X28742307Y-106589288D01*
X28734997Y-106575540D01*
X28720487Y-106516683D01*
X28721688Y-106286804D01*
X28740650Y-102655396D01*
X28749504Y-102613965D01*
X28749236Y-102613892D01*
X28750560Y-102609023D01*
X28751218Y-102605948D01*
X28751685Y-102604891D01*
X28754600Y-102579765D01*
X28754599Y-100290036D01*
X28753933Y-100284301D01*
X28753110Y-100269366D01*
X28753267Y-100239235D01*
X28771487Y-96750081D01*
X32815497Y-96750081D01*
X32818631Y-97940609D01*
X32818631Y-97940610D01*
X32818631Y-97940971D01*
X32818439Y-98011755D01*
X32818867Y-98031151D01*
X32818871Y-98032434D01*
X32818872Y-98032435D01*
X32819725Y-98356510D01*
X32852691Y-99561768D01*
X32852707Y-99562416D01*
X32854087Y-99624817D01*
X32854819Y-99640416D01*
X32854909Y-99642837D01*
X32863648Y-99962343D01*
X32927201Y-101182047D01*
X32927201Y-101182048D01*
X32927226Y-101182545D01*
X32929760Y-101236495D01*
X32930766Y-101250507D01*
X32930833Y-101251775D01*
X32930834Y-101251786D01*
X32947236Y-101566563D01*
X33042165Y-102800673D01*
X33042211Y-102801293D01*
X33045411Y-102845820D01*
X33046390Y-102855931D01*
X33046602Y-102858364D01*
X33070442Y-103168274D01*
X33197558Y-104416560D01*
X33197607Y-104417045D01*
X33200968Y-104451739D01*
X33202013Y-104460306D01*
X33202143Y-104461582D01*
X33233185Y-104766415D01*
X33393322Y-106028627D01*
X33393395Y-106029217D01*
X33396335Y-106053317D01*
X33397025Y-106058012D01*
X33397356Y-106060430D01*
X33428331Y-106304567D01*
X33435372Y-106360063D01*
X33474531Y-106617580D01*
X33629342Y-107635646D01*
X33629424Y-107636188D01*
X33631394Y-107649563D01*
X33631935Y-107652697D01*
X33632121Y-107653918D01*
X33632125Y-107653941D01*
X33676876Y-107948227D01*
X33905549Y-109236894D01*
X33905640Y-109237414D01*
X33906086Y-109239991D01*
X33906317Y-109241222D01*
X33957553Y-109529953D01*
X34277223Y-111104238D01*
X34456408Y-111886962D01*
X34635698Y-112670144D01*
X34920416Y-113786313D01*
X35032766Y-114226753D01*
X35468151Y-115772976D01*
X35941647Y-117308092D01*
X36452906Y-118830965D01*
X37001641Y-120340741D01*
X37587530Y-121836534D01*
X38000721Y-122819199D01*
X38210188Y-123317361D01*
X38539534Y-124049446D01*
X38869256Y-124782369D01*
X39564316Y-126230630D01*
X39682252Y-126461558D01*
X40294953Y-127661276D01*
X40913690Y-128802296D01*
X41060725Y-129073445D01*
X41861152Y-130466247D01*
X42410808Y-131370223D01*
X42695746Y-131838839D01*
X43564007Y-133190397D01*
X44337266Y-134331069D01*
X44465407Y-134520097D01*
X45399370Y-135827090D01*
X46365374Y-137110646D01*
X47362759Y-138369887D01*
X48390984Y-139604135D01*
X48390992Y-139604144D01*
X49449397Y-140812601D01*
X50537340Y-141994535D01*
X50688347Y-142150663D01*
X51654170Y-143149239D01*
X52799136Y-144275938D01*
X52799147Y-144275948D01*
X52799165Y-144275966D01*
X53971666Y-145374069D01*
X55170942Y-146442864D01*
X55986629Y-147134408D01*
X56396283Y-147481715D01*
X57646867Y-148489928D01*
X58922010Y-149466953D01*
X58922028Y-149466966D01*
X60220930Y-150412187D01*
X60545587Y-150636385D01*
X61542793Y-151325025D01*
X62142918Y-151717912D01*
X62886806Y-152204917D01*
X64252152Y-153051332D01*
X65637997Y-153863750D01*
X66676392Y-154438489D01*
X67043511Y-154641685D01*
X68467764Y-155384624D01*
X69066561Y-155678388D01*
X69909997Y-156092170D01*
X69910005Y-156092174D01*
X69910022Y-156092182D01*
X71297709Y-156730922D01*
X71369253Y-156763853D01*
X72700892Y-157337354D01*
X72844667Y-157399274D01*
X74335305Y-157998034D01*
X74335320Y-157998039D01*
X74335321Y-157998040D01*
X74974836Y-158236734D01*
X75051026Y-158265171D01*
X75051025Y-158265171D01*
X75059799Y-158268445D01*
X75087356Y-158278731D01*
X75087356Y-158278732D01*
X75087824Y-158278906D01*
X75088293Y-158279081D01*
X75088293Y-158279080D01*
X75136830Y-158297192D01*
X75137241Y-158297294D01*
X75274733Y-158348599D01*
X75274737Y-158348600D01*
X75274742Y-158348602D01*
X75658456Y-158457904D01*
X76049658Y-158536292D01*
X76124044Y-158545111D01*
X76132163Y-158546627D01*
X76159572Y-158549323D01*
X76445861Y-158583266D01*
X76445867Y-158583266D01*
X76445875Y-158583267D01*
X76524284Y-158586268D01*
X76541943Y-158586944D01*
X76562114Y-158588930D01*
X76607696Y-158589461D01*
X76780754Y-158596087D01*
X76844537Y-158598530D01*
X76844540Y-158598529D01*
X76844546Y-158598530D01*
X76962980Y-158593614D01*
X76994111Y-158593978D01*
X77043750Y-158590261D01*
X77243181Y-158581984D01*
X77384726Y-158564740D01*
X77424933Y-158561732D01*
X77471363Y-158554186D01*
X77639231Y-158533736D01*
X77804950Y-158499975D01*
X77851366Y-158492433D01*
X77890456Y-158482555D01*
X78030178Y-158454091D01*
X78221976Y-158398789D01*
X78270229Y-158386598D01*
X78299619Y-158376402D01*
X78413539Y-158343556D01*
X78635335Y-158259952D01*
X78678398Y-158245017D01*
X78696909Y-158236743D01*
X78786876Y-158202832D01*
X79047713Y-158079968D01*
X79072829Y-158068745D01*
X79080054Y-158064734D01*
X79147816Y-158032816D01*
X79494065Y-157834587D01*
X79755961Y-157655528D01*
X79823415Y-157609410D01*
X79823418Y-157609408D01*
X79966183Y-157494114D01*
X79966188Y-157494109D01*
X79966191Y-157494107D01*
X79969900Y-157491111D01*
X79978459Y-157484199D01*
X79978461Y-157484200D01*
X79978622Y-157484070D01*
X79978623Y-157484069D01*
X79978624Y-157484070D01*
X79978627Y-157484069D01*
X79978633Y-157484060D01*
X79979011Y-157483756D01*
X79979010Y-157483755D01*
X79979583Y-157483292D01*
X80021884Y-157449148D01*
X80021979Y-157449045D01*
X82441705Y-155494478D01*
X82445318Y-155491671D01*
X82718026Y-155287898D01*
X82722694Y-155284579D01*
X82789151Y-155239644D01*
X82791901Y-155237842D01*
X83048926Y-155074463D01*
X83054883Y-155070909D01*
X83102281Y-155044422D01*
X83103938Y-155043516D01*
X83141866Y-155023250D01*
X83824924Y-155023250D01*
X83824924Y-155023251D01*
X83824924Y-155031949D01*
X83831075Y-155038100D01*
X83839773Y-155038100D01*
X83845924Y-155031949D01*
X83845924Y-155023251D01*
X83839773Y-155017100D01*
X83831075Y-155017100D01*
X83831074Y-155017100D01*
X83824924Y-155023250D01*
X83141866Y-155023250D01*
X83392973Y-154889078D01*
X83401341Y-154885006D01*
X83738089Y-154736545D01*
X83746768Y-154733104D01*
X84093740Y-154610470D01*
X84102635Y-154607699D01*
X84457873Y-154511583D01*
X84466978Y-154509484D01*
X84788775Y-154448014D01*
X84790829Y-154447643D01*
X84844195Y-154438489D01*
X84851078Y-154437508D01*
X85153655Y-154403092D01*
X85157025Y-154402757D01*
X85236888Y-154395957D01*
X85242596Y-154395606D01*
X85578390Y-154382921D01*
X85581937Y-154382788D01*
X85586617Y-154382700D01*
X107540578Y-154382700D01*
X107545389Y-154382792D01*
X107894189Y-154396339D01*
X107899906Y-154396695D01*
X107979066Y-154403472D01*
X107982873Y-154403857D01*
X108292359Y-154440061D01*
X108298971Y-154441017D01*
X108361958Y-154451881D01*
X108364598Y-154452368D01*
X108687366Y-154515812D01*
X108694805Y-154517516D01*
X108718791Y-154523799D01*
X108720410Y-154524237D01*
X109066062Y-154620541D01*
X109075204Y-154623475D01*
X109430764Y-154753007D01*
X109439646Y-154756638D01*
X109752278Y-154898882D01*
X109805145Y-154944562D01*
X109824924Y-155011574D01*
X109824924Y-155023251D01*
X109824924Y-155031949D01*
X109831075Y-155038100D01*
X109839773Y-155038100D01*
X109857490Y-155030760D01*
X109858070Y-155030444D01*
X109879536Y-155014537D01*
X109888265Y-155013955D01*
X109895944Y-155009762D01*
X109922595Y-155011666D01*
X109949251Y-155009890D01*
X109961243Y-155014429D01*
X109965636Y-155014743D01*
X109982249Y-155022378D01*
X110123941Y-155100639D01*
X110132161Y-155105605D01*
X110431785Y-155302882D01*
X110433288Y-155303887D01*
X110453741Y-155317814D01*
X110459927Y-155322314D01*
X110719672Y-155523863D01*
X110721933Y-155525660D01*
X110771446Y-155565962D01*
X110776554Y-155570355D01*
X111007138Y-155779860D01*
X111009909Y-155782458D01*
X111044006Y-155815427D01*
X111067067Y-155837726D01*
X111071124Y-155841836D01*
X111310831Y-156096261D01*
X111314025Y-156099785D01*
X112629592Y-157609410D01*
X112669714Y-157655450D01*
X112669750Y-157655528D01*
X112840365Y-157851347D01*
X112840381Y-157851364D01*
X112924352Y-157932852D01*
X113140486Y-158142596D01*
X113463864Y-158407763D01*
X113525248Y-158450050D01*
X113529884Y-158453753D01*
X113548041Y-158465752D01*
X113808250Y-158645008D01*
X113890594Y-158692116D01*
X113905430Y-158701921D01*
X113944563Y-158722992D01*
X114171240Y-158852673D01*
X114273230Y-158900199D01*
X114276481Y-158901714D01*
X114301763Y-158915327D01*
X114349273Y-158935634D01*
X114351063Y-158936468D01*
X114550301Y-159029311D01*
X114550310Y-159029314D01*
X114585852Y-159042388D01*
X114680440Y-159077182D01*
X114715675Y-159092243D01*
X114764262Y-159108016D01*
X114942782Y-159173685D01*
X115099973Y-159217004D01*
X115143814Y-159231237D01*
X115188752Y-159241470D01*
X115345947Y-159284790D01*
X115532929Y-159319845D01*
X115582714Y-159331183D01*
X115620684Y-159336297D01*
X115756981Y-159361850D01*
X115977682Y-159384383D01*
X116028821Y-159391272D01*
X116057473Y-159392529D01*
X116173013Y-159404326D01*
X116434166Y-159409069D01*
X116478523Y-159411018D01*
X116496272Y-159410197D01*
X116591138Y-159411921D01*
X116906535Y-159391259D01*
X116928180Y-159390261D01*
X116934041Y-159389457D01*
X117008438Y-159384584D01*
X117421999Y-159322504D01*
X117422008Y-159322501D01*
X117422014Y-159322501D01*
X117542399Y-159293985D01*
X117828934Y-159226115D01*
X118027185Y-159161238D01*
X118027186Y-159161239D01*
X118027661Y-159161083D01*
X118028137Y-159160928D01*
X118028136Y-159160927D01*
X118093653Y-159139593D01*
X118094008Y-159139379D01*
X118791065Y-158911360D01*
X120305059Y-158374321D01*
X121805320Y-157800036D01*
X123290933Y-157188853D01*
X124760989Y-156541148D01*
X126214592Y-155857315D01*
X127650853Y-155137772D01*
X129068895Y-154382958D01*
X130467853Y-153593335D01*
X131846872Y-152769384D01*
X133205110Y-151911609D01*
X134541738Y-151020534D01*
X135855938Y-150096702D01*
X137146909Y-149140678D01*
X138413863Y-148153047D01*
X139656025Y-147134409D01*
X140872637Y-146085389D01*
X140948769Y-146016392D01*
X147854463Y-146016392D01*
X147866210Y-146150658D01*
X147866211Y-146150661D01*
X147918876Y-146274731D01*
X147985059Y-146350866D01*
X148381086Y-146683171D01*
X148467557Y-146735129D01*
X148598887Y-146765448D01*
X148598889Y-146765447D01*
X148598891Y-146765448D01*
X148688402Y-146757616D01*
X148733160Y-146753701D01*
X148857230Y-146701037D01*
X148933365Y-146634853D01*
X149458507Y-146009013D01*
X149510464Y-145922542D01*
X149540784Y-145791212D01*
X149540783Y-145791205D01*
X149541465Y-145781473D01*
X149542850Y-145781569D01*
X149554587Y-145723160D01*
X149564219Y-145707708D01*
X151813072Y-142628921D01*
X151868508Y-142586398D01*
X151938136Y-142580596D01*
X151999848Y-142613359D01*
X152034050Y-142674285D01*
X152034413Y-142728214D01*
X152032050Y-142739164D01*
X152049625Y-142850125D01*
X152049625Y-142850126D01*
X152049626Y-142850128D01*
X152080918Y-142903944D01*
X152106099Y-142947250D01*
X152124716Y-142964380D01*
X152124719Y-142964382D01*
X154155278Y-144439667D01*
X154163217Y-144445435D01*
X154185258Y-144457847D01*
X154185262Y-144457848D01*
X154185265Y-144457849D01*
X154227467Y-144466955D01*
X154295077Y-144481544D01*
X154406041Y-144463969D01*
X154503162Y-144407496D01*
X154520289Y-144388882D01*
X155348906Y-143248387D01*
X155361318Y-143226346D01*
X155374057Y-143167312D01*
X155385015Y-143116526D01*
X155375484Y-143056350D01*
X155367440Y-143005564D01*
X155310967Y-142908442D01*
X155306080Y-142903945D01*
X155292349Y-142891311D01*
X155292346Y-142891309D01*
X153253848Y-141410256D01*
X153240756Y-141402884D01*
X153231808Y-141397845D01*
X153231805Y-141397844D01*
X153231800Y-141397842D01*
X153121988Y-141374147D01*
X153011027Y-141391722D01*
X153011022Y-141391723D01*
X153010890Y-141391801D01*
X153010618Y-141391867D01*
X153000201Y-141395575D01*
X152999825Y-141394520D01*
X152943040Y-141408479D01*
X152876944Y-141385827D01*
X152833587Y-141331037D01*
X152826735Y-141261504D01*
X152848431Y-141211464D01*
X156549553Y-136144453D01*
X156604988Y-136101931D01*
X156674616Y-136096129D01*
X156736328Y-136128892D01*
X156770531Y-136189818D01*
X156770893Y-136243749D01*
X156758886Y-136299393D01*
X156776461Y-136410352D01*
X156776461Y-136410353D01*
X156776462Y-136410355D01*
X156810131Y-136468258D01*
X156832935Y-136507477D01*
X156851552Y-136524607D01*
X156851555Y-136524609D01*
X158840466Y-137969635D01*
X158890053Y-138005662D01*
X158912094Y-138018074D01*
X158912098Y-138018075D01*
X158912101Y-138018076D01*
X158949734Y-138026196D01*
X159021913Y-138041771D01*
X159132877Y-138024196D01*
X159229998Y-137967723D01*
X159247125Y-137949109D01*
X160075742Y-136808614D01*
X160088154Y-136786573D01*
X160111851Y-136676754D01*
X160094276Y-136565791D01*
X160037803Y-136468669D01*
X160019189Y-136451542D01*
X160019185Y-136451538D01*
X160019182Y-136451536D01*
X157980684Y-134970483D01*
X157963623Y-134960876D01*
X157958644Y-134958072D01*
X157958641Y-134958071D01*
X157958636Y-134958069D01*
X157848824Y-134934374D01*
X157737863Y-134951949D01*
X157737862Y-134951949D01*
X157697746Y-134975275D01*
X157629897Y-134991955D01*
X157563800Y-134969305D01*
X157520441Y-134914517D01*
X157513586Y-134844984D01*
X157535283Y-134794942D01*
X159505655Y-132097409D01*
X159556785Y-132058188D01*
X159556652Y-132057938D01*
X159558150Y-132057140D01*
X159561092Y-132054885D01*
X159565249Y-132053366D01*
X159565264Y-132053357D01*
X159565269Y-132053357D01*
X159684277Y-131990079D01*
X159754354Y-131917512D01*
X160222952Y-131248285D01*
X160252832Y-131187021D01*
X160267173Y-131157619D01*
X160267175Y-131157613D01*
X160267962Y-131152014D01*
X160285934Y-131024141D01*
X160284547Y-131016276D01*
X160292290Y-130946840D01*
X160294096Y-130942738D01*
X171030698Y-107720588D01*
X171076698Y-107668000D01*
X171123852Y-107650155D01*
X171172112Y-107642511D01*
X171172112Y-107642510D01*
X171172117Y-107642510D01*
X171292211Y-107581319D01*
X171387519Y-107486011D01*
X171448710Y-107365917D01*
X171448711Y-107365912D01*
X171464491Y-107266284D01*
X171464491Y-106801189D01*
X171475288Y-106750581D01*
X173325876Y-102611110D01*
X173329719Y-102587077D01*
X173344285Y-102554091D01*
X173347200Y-102528965D01*
X173347199Y-102477793D01*
X173350849Y-102454980D01*
X173347858Y-102426114D01*
X173347199Y-102413338D01*
X173347199Y-100239243D01*
X173347199Y-100239236D01*
X173346997Y-100237498D01*
X173346725Y-100235144D01*
X173345900Y-100220865D01*
X173345900Y-94546316D01*
X173346727Y-94532023D01*
X173347195Y-94527981D01*
X173347197Y-94527965D01*
X173347196Y-92308811D01*
X173350131Y-92269684D01*
X173347196Y-92254165D01*
X173347196Y-92238236D01*
X173347194Y-92238217D01*
X173344283Y-92213113D01*
X173344282Y-92213111D01*
X173344282Y-92213109D01*
X173341551Y-92206925D01*
X173333147Y-92179885D01*
X173329601Y-92161134D01*
X173320748Y-92114324D01*
X171393004Y-88110552D01*
X171380805Y-88061089D01*
X171372641Y-87827260D01*
X171353392Y-87728233D01*
X171288047Y-87610348D01*
X171189471Y-87518424D01*
X171189470Y-87518423D01*
X171067318Y-87461463D01*
X171067316Y-87461462D01*
X171067315Y-87461462D01*
X170967186Y-87449168D01*
X170967182Y-87449168D01*
X170967181Y-87449168D01*
X170450532Y-87467209D01*
X170450523Y-87467210D01*
X170351501Y-87486457D01*
X170351500Y-87486457D01*
X170293833Y-87518423D01*
X170233614Y-87551803D01*
X170233613Y-87551803D01*
X170233613Y-87551804D01*
X170141687Y-87650382D01*
X170084727Y-87772533D01*
X170084727Y-87772536D01*
X170075134Y-87850671D01*
X170072433Y-87872667D01*
X170072433Y-87872669D01*
X170100944Y-88689136D01*
X170100945Y-88689141D01*
X170120193Y-88788168D01*
X170185537Y-88906051D01*
X170185539Y-88906054D01*
X170284115Y-88997978D01*
X170406271Y-89054940D01*
X170454337Y-89060841D01*
X170518477Y-89088549D01*
X170550948Y-89130124D01*
X171456816Y-91011539D01*
X172071907Y-92289035D01*
X172133921Y-92417832D01*
X172146197Y-92471625D01*
X172146197Y-94111564D01*
X172145137Y-94127741D01*
X172144900Y-94129542D01*
X172144900Y-100967856D01*
X172145140Y-100969680D01*
X172146200Y-100985861D01*
X172146200Y-102280714D01*
X172135403Y-102331322D01*
X170482491Y-106028624D01*
X170437159Y-106081792D01*
X170425584Y-106088500D01*
X170335772Y-106134262D01*
X170335765Y-106134267D01*
X170240467Y-106229565D01*
X170240464Y-106229569D01*
X170179270Y-106349669D01*
X170163491Y-106449297D01*
X170163491Y-106707148D01*
X170152043Y-106759186D01*
X159199514Y-130448364D01*
X159176163Y-130482461D01*
X159157237Y-130502060D01*
X159157233Y-130502065D01*
X158688638Y-131171288D01*
X158688636Y-131171291D01*
X158680964Y-131187021D01*
X158669647Y-131205800D01*
X156785340Y-133785507D01*
X156757047Y-133810996D01*
X156757827Y-133811967D01*
X156750562Y-133817803D01*
X156733431Y-133836422D01*
X156733428Y-133836425D01*
X155387565Y-135688849D01*
X155370580Y-135719014D01*
X155370119Y-135718754D01*
X155361157Y-135735280D01*
X152098493Y-140202021D01*
X152060695Y-140236074D01*
X152023733Y-140257567D01*
X152023724Y-140257574D01*
X152006595Y-140276190D01*
X152006593Y-140276193D01*
X150660730Y-142128617D01*
X150648318Y-142150660D01*
X150648317Y-142150663D01*
X150642623Y-142177051D01*
X150621545Y-142224035D01*
X148486070Y-145147602D01*
X148467298Y-145168039D01*
X148461886Y-145172743D01*
X148461881Y-145172748D01*
X147936743Y-145798583D01*
X147936736Y-145798593D01*
X147884783Y-145885057D01*
X147884783Y-145885058D01*
X147854464Y-146016387D01*
X147854463Y-146016392D01*
X140948769Y-146016392D01*
X141052326Y-145922541D01*
X141490028Y-145525860D01*
X142062956Y-145006627D01*
X143226255Y-143898781D01*
X144361824Y-142762528D01*
X145468969Y-141598561D01*
X146547015Y-140407592D01*
X146660176Y-140276193D01*
X147067474Y-139803248D01*
X147595302Y-139190348D01*
X148613190Y-137947573D01*
X149600059Y-136680025D01*
X150555304Y-135388478D01*
X151478344Y-134073721D01*
X152368614Y-132736557D01*
X153225571Y-131377802D01*
X154048690Y-129998287D01*
X154837471Y-128598854D01*
X155591430Y-127180357D01*
X156310108Y-125743663D01*
X156993065Y-124289648D01*
X157639885Y-122819202D01*
X158250172Y-121333222D01*
X158823554Y-119832615D01*
X159359680Y-118318298D01*
X159858224Y-116791195D01*
X160318881Y-115252240D01*
X160741369Y-113702371D01*
X161125430Y-112142536D01*
X161188761Y-111854876D01*
X161188868Y-111854438D01*
X161189279Y-111852523D01*
X161470830Y-110573687D01*
X161527643Y-110281414D01*
X161528104Y-110279170D01*
X161528541Y-110277143D01*
X161531146Y-110263397D01*
X161777359Y-108996783D01*
X161827856Y-108697727D01*
X161828961Y-108691904D01*
X161832953Y-108667545D01*
X162044828Y-107412785D01*
X162088385Y-107109331D01*
X162088725Y-107107124D01*
X162089943Y-107099696D01*
X162094762Y-107064909D01*
X162273074Y-105822662D01*
X162309761Y-105512809D01*
X162311328Y-105501501D01*
X162316386Y-105456856D01*
X162461959Y-104227384D01*
X162491285Y-103913435D01*
X162491518Y-103911184D01*
X162492978Y-103898305D01*
X162497735Y-103844385D01*
X162611366Y-102627926D01*
X162633303Y-102307830D01*
X162634781Y-102291093D01*
X162638733Y-102228603D01*
X162721205Y-101025265D01*
X162735369Y-100701451D01*
X162735497Y-100699089D01*
X162736649Y-100680882D01*
X162736713Y-100679217D01*
X162739361Y-100610200D01*
X162791408Y-99420379D01*
X162797672Y-99090750D01*
X162798523Y-99068589D01*
X162799584Y-98990155D01*
X162821932Y-97814248D01*
X162820030Y-97481217D01*
X162820038Y-97479109D01*
X162820361Y-97455282D01*
X162819393Y-97369603D01*
X162812760Y-96207853D01*
X162802461Y-95869439D01*
X162802151Y-95841930D01*
X162798808Y-95749417D01*
X162763896Y-94602176D01*
X162745053Y-94260776D01*
X162744949Y-94258467D01*
X162743905Y-94229545D01*
X162743904Y-94229526D01*
X162737871Y-94130637D01*
X162675370Y-92998196D01*
X162647649Y-92651769D01*
X162645655Y-92619066D01*
X162636657Y-92514408D01*
X162547236Y-91396893D01*
X162510607Y-91047862D01*
X162510415Y-91045845D01*
X162507466Y-91011539D01*
X162495238Y-90901405D01*
X162495224Y-90901275D01*
X162379573Y-89799246D01*
X162333620Y-89445761D01*
X162329422Y-89407938D01*
X162313731Y-89292765D01*
X162172484Y-88206229D01*
X162117281Y-87850576D01*
X162116975Y-87848473D01*
X162111632Y-87809250D01*
X162092340Y-87689870D01*
X162092219Y-87689108D01*
X161937589Y-86692879D01*
X161926093Y-86618816D01*
X161926092Y-86618811D01*
X161926089Y-86618791D01*
X161879810Y-86362579D01*
X161861129Y-86259157D01*
X161854230Y-86216459D01*
X161831045Y-86092601D01*
X161640553Y-85037976D01*
X161566029Y-84676675D01*
X161565594Y-84674457D01*
X161557378Y-84630563D01*
X161557375Y-84630548D01*
X161530175Y-84502849D01*
X161316037Y-83464675D01*
X161231333Y-83099836D01*
X161221250Y-83052493D01*
X161189931Y-82921506D01*
X160952743Y-81899873D01*
X160858149Y-81533751D01*
X160857701Y-81531947D01*
X160846062Y-81483267D01*
X160810582Y-81349629D01*
X160810372Y-81348829D01*
X160714584Y-80978085D01*
X160550894Y-80344526D01*
X160445765Y-79975529D01*
X160432042Y-79923836D01*
X160392131Y-79787275D01*
X160110735Y-78799583D01*
X160103105Y-78775113D01*
X159995492Y-78429996D01*
X159994866Y-78427925D01*
X159979446Y-78375161D01*
X159935088Y-78236278D01*
X159935017Y-78236055D01*
X159632534Y-77265988D01*
X159506365Y-76893974D01*
X159488551Y-76838197D01*
X159439664Y-76697302D01*
X159116583Y-75744679D01*
X158980057Y-75372617D01*
X158979371Y-75370695D01*
X158959662Y-75313890D01*
X158906197Y-75171330D01*
X158563199Y-74236583D01*
X158415421Y-73862694D01*
X158393102Y-73803179D01*
X158335044Y-73659334D01*
X158334864Y-73658878D01*
X158026700Y-72879200D01*
X157972718Y-72742621D01*
X157814329Y-72369157D01*
X157813577Y-72367337D01*
X157789222Y-72306995D01*
X157726677Y-72162475D01*
X157726431Y-72161902D01*
X157345501Y-71263707D01*
X157175611Y-70889153D01*
X157148393Y-70826260D01*
X157081117Y-70680825D01*
X156681931Y-69800743D01*
X156501281Y-69427284D01*
X156500399Y-69425419D01*
X156471020Y-69361906D01*
X156399243Y-69216333D01*
X156398833Y-69215492D01*
X156392487Y-69202372D01*
X155982414Y-68354623D01*
X155789960Y-67980628D01*
X155757492Y-67914777D01*
X155680987Y-67768862D01*
X155680853Y-67768601D01*
X155680806Y-67768510D01*
X155580975Y-67574509D01*
X155247377Y-66926229D01*
X155044002Y-66553922D01*
X155043062Y-66552168D01*
X155008276Y-66485821D01*
X154927380Y-66340424D01*
X154927006Y-66339745D01*
X154821622Y-66146825D01*
X154536789Y-65625396D01*
X154477271Y-65516440D01*
X154262443Y-65145272D01*
X154261901Y-65144336D01*
X154223826Y-65075902D01*
X154138198Y-64930609D01*
X154137960Y-64930198D01*
X154130002Y-64916449D01*
X153672558Y-64126101D01*
X153446095Y-63756224D01*
X153445062Y-63754503D01*
X153404624Y-63685888D01*
X153403013Y-63683303D01*
X153314830Y-63541824D01*
X153314351Y-63541050D01*
X153291888Y-63504361D01*
X152833738Y-62756075D01*
X152595684Y-62388011D01*
X152594646Y-62386377D01*
X152551173Y-62316630D01*
X152456794Y-62173265D01*
X152456613Y-62172987D01*
X152143591Y-61689011D01*
X151961327Y-61407204D01*
X151882060Y-61291046D01*
X151711489Y-61041088D01*
X151710519Y-61039640D01*
X151664002Y-60968979D01*
X151565462Y-60827090D01*
X151564929Y-60826316D01*
X151508968Y-60744310D01*
X151055839Y-60080285D01*
X151044122Y-60063995D01*
X150989815Y-59988489D01*
X150794249Y-59716587D01*
X150793230Y-59715144D01*
X150743656Y-59643762D01*
X150640824Y-59503269D01*
X150640414Y-59502703D01*
X150117845Y-58776155D01*
X149844574Y-58415369D01*
X149843401Y-58413793D01*
X149790710Y-58341804D01*
X149683750Y-58203033D01*
X149683116Y-58202203D01*
X149147922Y-57495612D01*
X148862800Y-57137901D01*
X148861610Y-57136384D01*
X148805728Y-57063882D01*
X148694672Y-56926964D01*
X148694146Y-56926310D01*
X148638499Y-56856496D01*
X148202753Y-56309813D01*
X148146634Y-56239406D01*
X148002847Y-56067885D01*
X147849682Y-55885178D01*
X147848432Y-55883661D01*
X147789345Y-55810815D01*
X147674457Y-55676147D01*
X147673765Y-55675329D01*
X147114611Y-55008324D01*
X146805835Y-54657955D01*
X146804529Y-54656449D01*
X146742165Y-54583348D01*
X146623360Y-54450892D01*
X146622640Y-54450082D01*
X146052510Y-53803152D01*
X146011517Y-53758892D01*
X145923273Y-53663614D01*
X145731833Y-53456914D01*
X145730500Y-53455451D01*
X145664863Y-53382273D01*
X145645520Y-53361756D01*
X145542373Y-53252347D01*
X145541689Y-53251615D01*
X144960916Y-52624551D01*
X144628445Y-52282917D01*
X144627085Y-52281498D01*
X144558027Y-52208248D01*
X144432019Y-52081068D01*
X144431240Y-52080275D01*
X143924240Y-51559302D01*
X143840559Y-51473314D01*
X143496218Y-51136546D01*
X143494897Y-51135234D01*
X143422457Y-51062120D01*
X143292887Y-50937680D01*
X143292124Y-50936941D01*
X143206041Y-50852751D01*
X142692089Y-50350102D01*
X142335938Y-50018601D01*
X142334535Y-50017275D01*
X142258763Y-49944503D01*
X142125941Y-49823132D01*
X142125104Y-49822360D01*
X142104946Y-49803597D01*
X141516214Y-49255613D01*
X141148351Y-48929799D01*
X141146922Y-48928514D01*
X141067693Y-48856115D01*
X140931609Y-48737825D01*
X140930743Y-48737065D01*
X140313646Y-48190507D01*
X139938158Y-47874148D01*
X139934086Y-47870717D01*
X139932653Y-47869491D01*
X139849970Y-47797619D01*
X139710809Y-47682592D01*
X139709914Y-47681845D01*
X139085147Y-47155460D01*
X138693893Y-46842016D01*
X138692498Y-46840881D01*
X138606365Y-46769686D01*
X138464360Y-46658123D01*
X138463435Y-46657389D01*
X137831422Y-46151065D01*
X137428556Y-45844348D01*
X137427066Y-45843196D01*
X137337629Y-45772932D01*
X137192873Y-45664909D01*
X137191920Y-45664191D01*
X136553278Y-45177971D01*
X136138943Y-44878402D01*
X136137435Y-44877294D01*
X136123058Y-44866565D01*
X136044531Y-44807965D01*
X135947500Y-44739239D01*
X135897155Y-44703579D01*
X135896174Y-44702877D01*
X135662675Y-44534055D01*
X135251474Y-44236752D01*
X135092056Y-44127386D01*
X134825698Y-43944655D01*
X134824175Y-43943593D01*
X134727898Y-43875401D01*
X134578146Y-43774818D01*
X134577137Y-43774133D01*
X133926805Y-43327985D01*
X133489750Y-43043774D01*
X133488212Y-43042758D01*
X133388499Y-42975785D01*
X133236421Y-42879030D01*
X133235383Y-42878362D01*
X132580090Y-42452233D01*
X132131815Y-42176241D01*
X132130264Y-42175270D01*
X132027233Y-42109720D01*
X132027217Y-42109710D01*
X132027207Y-42109704D01*
X131872912Y-42016836D01*
X131871938Y-42016242D01*
X131212148Y-41610027D01*
X131127477Y-41560740D01*
X130752834Y-41342661D01*
X130751271Y-41341736D01*
X130644818Y-41277663D01*
X130488594Y-41188839D01*
X130487502Y-41188211D01*
X129823820Y-40801884D01*
X129823810Y-40801878D01*
X129659868Y-40711796D01*
X129353544Y-40543478D01*
X129351970Y-40542598D01*
X129242255Y-40480218D01*
X129084238Y-40395494D01*
X129083119Y-40394886D01*
X128415908Y-40028272D01*
X128112986Y-39871442D01*
X127934872Y-39779228D01*
X127933377Y-39778441D01*
X127820272Y-39717798D01*
X127820259Y-39717791D01*
X127660630Y-39637238D01*
X127659484Y-39636652D01*
X126989359Y-39289712D01*
X126497696Y-39050381D01*
X126496105Y-39049593D01*
X126438318Y-39020433D01*
X126379827Y-38990917D01*
X126323565Y-38964256D01*
X126218730Y-38914579D01*
X126217557Y-38914015D01*
X125544964Y-38586612D01*
X125042770Y-38357327D01*
X125041172Y-38356584D01*
X124921781Y-38300010D01*
X124759470Y-38227975D01*
X124758356Y-38227474D01*
X124459596Y-38091070D01*
X124083650Y-37919425D01*
X123571104Y-37700552D01*
X123569501Y-37699854D01*
X123447067Y-37645516D01*
X123283587Y-37577767D01*
X123282363Y-37577252D01*
X122606291Y-37288549D01*
X122083726Y-37080510D01*
X122082119Y-37079857D01*
X121997881Y-37044948D01*
X121956514Y-37027805D01*
X121850712Y-36987005D01*
X121792043Y-36964381D01*
X121790793Y-36963891D01*
X121113794Y-36694371D01*
X120581337Y-36497493D01*
X120579727Y-36496885D01*
X120451104Y-36447285D01*
X120285919Y-36388253D01*
X120284645Y-36387790D01*
X119607077Y-36137256D01*
X119064917Y-35951887D01*
X119063305Y-35951324D01*
X119011155Y-35932687D01*
X118931764Y-35904315D01*
X118931749Y-35904310D01*
X118765922Y-35849649D01*
X118764624Y-35849213D01*
X118087066Y-35617549D01*
X117535377Y-35444023D01*
X117533764Y-35443503D01*
X117399411Y-35399217D01*
X117233150Y-35348953D01*
X117231829Y-35348546D01*
X116554641Y-35135546D01*
X115993719Y-34974236D01*
X115992106Y-34973760D01*
X115854986Y-34932305D01*
X115688396Y-34886422D01*
X115687052Y-34886044D01*
X115010819Y-34691572D01*
X114770407Y-34628823D01*
X114440742Y-34542777D01*
X114439334Y-34542399D01*
X114395826Y-34530415D01*
X114299480Y-34503879D01*
X114132676Y-34462361D01*
X114131310Y-34462013D01*
X113964691Y-34418524D01*
X113456451Y-34285869D01*
X113382631Y-34268538D01*
X112877713Y-34149994D01*
X112876106Y-34149605D01*
X112733765Y-34114177D01*
X112567183Y-34077081D01*
X112565795Y-34076764D01*
X111911263Y-33923096D01*
X111892552Y-33918703D01*
X111892545Y-33918701D01*
X111892530Y-33918698D01*
X111305355Y-33796068D01*
X111303752Y-33795722D01*
X111158915Y-33763468D01*
X110992395Y-33730700D01*
X110990987Y-33730414D01*
X110320046Y-33590291D01*
X109724748Y-33481242D01*
X109723150Y-33480939D01*
X109575775Y-33451939D01*
X109409652Y-33423513D01*
X109408224Y-33423260D01*
X108739935Y-33300840D01*
X108136636Y-33205670D01*
X108135045Y-33205409D01*
X107985452Y-33179812D01*
X107819873Y-33155692D01*
X107818426Y-33155472D01*
X107153134Y-33050521D01*
X106542146Y-32969556D01*
X106540562Y-32969336D01*
X106388864Y-32947238D01*
X106223924Y-32927378D01*
X106222458Y-32927192D01*
X105560631Y-32839489D01*
X104942360Y-32773058D01*
X104940784Y-32772879D01*
X104786969Y-32754359D01*
X104622827Y-32738717D01*
X104621343Y-32738566D01*
X103963420Y-32667874D01*
X103338048Y-32616274D01*
X103336482Y-32616135D01*
X103180795Y-32601299D01*
X103017660Y-32589830D01*
X103016161Y-32589715D01*
X102362417Y-32535775D01*
X101730437Y-32499326D01*
X101728882Y-32499227D01*
X101571282Y-32488148D01*
X101409277Y-32480793D01*
X101407761Y-32480715D01*
X100758685Y-32443281D01*
X100120243Y-32422269D01*
X100118700Y-32422208D01*
X99959539Y-32414983D01*
X99798727Y-32411679D01*
X99797197Y-32411638D01*
X99153120Y-32390442D01*
X98508704Y-32385166D01*
X98507173Y-32385144D01*
X98349348Y-32381902D01*
X98346397Y-32381842D01*
X98346396Y-32381842D01*
X98187016Y-32382523D01*
X98185472Y-32382520D01*
X97581408Y-32377576D01*
X97546751Y-32377293D01*
X97546748Y-32377293D01*
X97546742Y-32377293D01*
X96896633Y-32388038D01*
X96895116Y-32388054D01*
X96742627Y-32388707D01*
X96732957Y-32388749D01*
X96696450Y-32389811D01*
X96575106Y-32393343D01*
X96573548Y-32393378D01*
X95940569Y-32403841D01*
X95285056Y-32430890D01*
X95283672Y-32430938D01*
X95178416Y-32434002D01*
X95120171Y-32435698D01*
X94964014Y-32444126D01*
X94962445Y-32444201D01*
X94496399Y-32463433D01*
X94335494Y-32470073D01*
X94335473Y-32470074D01*
X94335458Y-32470075D01*
X93675278Y-32513679D01*
X93673790Y-32513769D01*
X93509069Y-32522660D01*
X93354562Y-32534851D01*
X93352982Y-32534965D01*
X92732592Y-32575942D01*
X92732580Y-32575943D01*
X92732566Y-32575944D01*
X92581095Y-32589715D01*
X92067735Y-32636386D01*
X92066263Y-32636511D01*
X91900623Y-32649582D01*
X91748063Y-32665439D01*
X91746471Y-32665594D01*
X91132748Y-32721391D01*
X90463752Y-32798923D01*
X90462298Y-32799082D01*
X90295808Y-32816388D01*
X90145366Y-32835810D01*
X90143765Y-32836007D01*
X89536975Y-32906330D01*
X88864240Y-33001195D01*
X88862804Y-33001389D01*
X88695659Y-33022969D01*
X88695636Y-33022972D01*
X88651848Y-33029733D01*
X88547204Y-33045892D01*
X88545596Y-33046129D01*
X87946328Y-33130635D01*
X87270161Y-33243089D01*
X87268742Y-33243316D01*
X87101092Y-33269205D01*
X86954985Y-33295495D01*
X86953370Y-33295775D01*
X86517186Y-33368318D01*
X86361665Y-33394184D01*
X86276350Y-33410549D01*
X85682540Y-33524451D01*
X85681142Y-33524711D01*
X85513128Y-33554945D01*
X85369429Y-33584500D01*
X85367809Y-33584822D01*
X84783982Y-33696812D01*
X84102370Y-33845109D01*
X84100991Y-33845401D01*
X83932759Y-33880004D01*
X83791471Y-33912740D01*
X83789845Y-33913105D01*
X83214322Y-34038319D01*
X82530645Y-34204860D01*
X82529287Y-34205183D01*
X82360923Y-34244193D01*
X82222210Y-34279982D01*
X82220580Y-34280391D01*
X81805684Y-34381459D01*
X81653526Y-34418524D01*
X81653515Y-34418527D01*
X80968251Y-34603505D01*
X80966915Y-34603858D01*
X80798637Y-34647275D01*
X80662556Y-34686012D01*
X80660923Y-34686465D01*
X80102616Y-34837173D01*
X79416135Y-35040807D01*
X79414821Y-35041189D01*
X79246835Y-35089009D01*
X79113484Y-35130573D01*
X79111850Y-35131070D01*
X78562516Y-35294022D01*
X77875269Y-35516502D01*
X77873978Y-35516913D01*
X77706451Y-35569130D01*
X77575957Y-35613385D01*
X77574324Y-35613926D01*
X77034214Y-35788775D01*
X76346685Y-36030273D01*
X76345417Y-36030710D01*
X76178504Y-36087317D01*
X76050889Y-36134159D01*
X76049257Y-36134745D01*
X75518543Y-36321162D01*
X74831299Y-36581810D01*
X74830056Y-36582275D01*
X74663827Y-36643291D01*
X74539161Y-36692594D01*
X74537532Y-36693225D01*
X74016525Y-36890826D01*
X73329874Y-37170847D01*
X73328654Y-37171337D01*
X73163497Y-37236655D01*
X73041764Y-37288327D01*
X73040139Y-37289003D01*
X72529037Y-37497435D01*
X71843581Y-37796930D01*
X71842387Y-37797445D01*
X71678284Y-37867105D01*
X71559701Y-37920953D01*
X71558079Y-37921675D01*
X71057010Y-38140606D01*
X70373116Y-38459769D01*
X70371948Y-38460307D01*
X70209211Y-38534207D01*
X70093848Y-38590086D01*
X70092233Y-38590854D01*
X69601297Y-38819968D01*
X68919577Y-39158878D01*
X68918433Y-39159439D01*
X68757129Y-39237572D01*
X68644879Y-39295425D01*
X68643273Y-39296239D01*
X68162818Y-39535093D01*
X67483775Y-39893864D01*
X67482659Y-39894447D01*
X67322941Y-39976769D01*
X67214026Y-40036371D01*
X67212427Y-40037231D01*
X66742463Y-40285537D01*
X66066636Y-40664260D01*
X66065546Y-40664864D01*
X65907567Y-40751317D01*
X65801869Y-40812615D01*
X65800281Y-40813521D01*
X65341084Y-41070850D01*
X64668889Y-41469676D01*
X64667826Y-41470299D01*
X64511884Y-41560740D01*
X64409501Y-41623562D01*
X64407923Y-41624514D01*
X63959550Y-41890544D01*
X63291510Y-42309564D01*
X63290473Y-42310207D01*
X63136670Y-42404582D01*
X63037616Y-42468799D01*
X63036051Y-42469797D01*
X62598669Y-42744141D01*
X61935387Y-43183381D01*
X61934379Y-43184042D01*
X61782802Y-43282312D01*
X61687180Y-43347732D01*
X61685629Y-43348777D01*
X61259305Y-43631098D01*
X60601258Y-44090659D01*
X60600278Y-44091336D01*
X60451207Y-44193324D01*
X60358848Y-44259935D01*
X60357312Y-44261024D01*
X59942294Y-44550861D01*
X59289994Y-45030818D01*
X59289041Y-45031512D01*
X59142586Y-45137141D01*
X59053655Y-45204696D01*
X59052137Y-45205831D01*
X58648366Y-45502923D01*
X58002452Y-46003245D01*
X58001528Y-46003954D01*
X57857776Y-46113158D01*
X57772274Y-46181521D01*
X57770774Y-46182702D01*
X57378362Y-46486664D01*
X56739382Y-47007380D01*
X56738486Y-47008104D01*
X56597641Y-47120720D01*
X56515555Y-47189760D01*
X56514074Y-47190986D01*
X56234543Y-47418783D01*
X56133087Y-47501461D01*
X56070494Y-47555097D01*
X55501513Y-48042652D01*
X55500646Y-48043388D01*
X55362865Y-48159276D01*
X55284121Y-48228914D01*
X55282661Y-48230185D01*
X54913263Y-48546723D01*
X54289618Y-49108433D01*
X54288778Y-49109182D01*
X54154265Y-49228143D01*
X54078911Y-49298193D01*
X54077471Y-49299511D01*
X53783292Y-49564475D01*
X53747697Y-49596537D01*
X53719606Y-49621838D01*
X53104553Y-50203971D01*
X53103743Y-50204731D01*
X52972536Y-50326706D01*
X52900553Y-50397032D01*
X52899137Y-50398394D01*
X52552903Y-50726097D01*
X51947004Y-51328640D01*
X51946223Y-51329410D01*
X51818475Y-51454221D01*
X51749856Y-51524674D01*
X51748465Y-51526080D01*
X51413845Y-51858848D01*
X50817571Y-52481873D01*
X50816818Y-52482653D01*
X50692735Y-52610053D01*
X50627456Y-52680494D01*
X50626090Y-52681945D01*
X50303104Y-53019423D01*
X49717092Y-53662826D01*
X49716369Y-53663614D01*
X49596004Y-53793497D01*
X49534016Y-53863807D01*
X49532679Y-53865300D01*
X49221419Y-54207047D01*
X48646200Y-54870833D01*
X48645504Y-54871629D01*
X48529044Y-55003727D01*
X48470250Y-55073850D01*
X48468940Y-55075386D01*
X48169405Y-55421042D01*
X47605546Y-56105169D01*
X47604879Y-56105971D01*
X47492406Y-56240118D01*
X47436858Y-56309813D01*
X47435578Y-56311392D01*
X47147671Y-56660709D01*
X46595888Y-57364947D01*
X46595249Y-57365756D01*
X46486789Y-57501837D01*
X46434376Y-57571054D01*
X46433128Y-57572674D01*
X46156910Y-57925211D01*
X45617663Y-58649628D01*
X45617053Y-58650441D01*
X45512770Y-58788162D01*
X45463514Y-58856680D01*
X45462299Y-58858342D01*
X45197692Y-59213815D01*
X44671483Y-59958448D01*
X44670902Y-59959263D01*
X44571013Y-60098219D01*
X44524790Y-60166005D01*
X44523609Y-60167706D01*
X44270635Y-60525690D01*
X43758210Y-61290227D01*
X43757656Y-61291046D01*
X43662038Y-61431275D01*
X43618770Y-61498241D01*
X43617623Y-61499983D01*
X43376241Y-61860126D01*
X42878214Y-62644416D01*
X42878214Y-62644417D01*
X42877843Y-62645000D01*
X42786434Y-62786478D01*
X42745672Y-62853139D01*
X42745046Y-62854126D01*
X42745028Y-62854156D01*
X42515101Y-63216247D01*
X42031970Y-64020321D01*
X42031471Y-64021145D01*
X41944736Y-64162991D01*
X41907283Y-64227801D01*
X41906210Y-64229621D01*
X41687755Y-64593196D01*
X41220119Y-65416926D01*
X41219850Y-65417399D01*
X41137464Y-65559968D01*
X41102305Y-65624451D01*
X41101770Y-65625396D01*
X40894656Y-65990223D01*
X40443255Y-66833215D01*
X40442812Y-66834037D01*
X40365105Y-66976564D01*
X40333151Y-67038796D01*
X40332158Y-67040690D01*
X40136328Y-67406407D01*
X39701632Y-68268755D01*
X39701632Y-68268756D01*
X39701361Y-68269291D01*
X39628157Y-68411868D01*
X39598427Y-68473487D01*
X39597885Y-68474564D01*
X39597886Y-68474564D01*
X39413251Y-68840844D01*
X38995786Y-69722564D01*
X38995394Y-69723383D01*
X38927064Y-69865010D01*
X38900277Y-69924243D01*
X38899366Y-69926211D01*
X38725816Y-70292761D01*
X38326312Y-71193443D01*
X38326312Y-71193444D01*
X38326106Y-71193906D01*
X38262232Y-71335153D01*
X38237511Y-71393642D01*
X38237029Y-71394730D01*
X38074483Y-71761192D01*
X37693578Y-72680589D01*
X37693238Y-72681401D01*
X37634102Y-72821322D01*
X37612114Y-72877168D01*
X37611293Y-72879200D01*
X37459617Y-73245309D01*
X37097910Y-74183267D01*
X37097654Y-74183929D01*
X37043054Y-74322618D01*
X37023014Y-74377477D01*
X37022582Y-74378598D01*
X37022561Y-74378657D01*
X36881615Y-74744155D01*
X36539630Y-75700735D01*
X36539341Y-75701536D01*
X36489446Y-75838126D01*
X36471874Y-75890202D01*
X36471146Y-75892298D01*
X36377409Y-76154499D01*
X36340838Y-76256795D01*
X36340829Y-76256821D01*
X36340828Y-76256825D01*
X36019369Y-77231314D01*
X36019130Y-77232037D01*
X35973626Y-77366902D01*
X35957794Y-77417974D01*
X35957436Y-77419061D01*
X35957405Y-77419160D01*
X35837589Y-77782380D01*
X35537100Y-78775113D01*
X35536858Y-78775902D01*
X35495911Y-78907998D01*
X35482317Y-78956036D01*
X35481685Y-78958193D01*
X35372214Y-79319858D01*
X35093373Y-80330493D01*
X35093221Y-80331040D01*
X35056586Y-80460506D01*
X35044583Y-80507326D01*
X35044273Y-80508452D01*
X35044266Y-80508481D01*
X34944945Y-80868465D01*
X34688460Y-81896518D01*
X34688264Y-81897293D01*
X34655934Y-82023408D01*
X34645899Y-82067029D01*
X34645368Y-82069242D01*
X34556090Y-82427089D01*
X34322542Y-83472554D01*
X34322416Y-83473117D01*
X34294191Y-83595804D01*
X34285552Y-83638134D01*
X34285277Y-83639369D01*
X34205863Y-83994867D01*
X33995897Y-85057539D01*
X33995745Y-85058296D01*
X33971585Y-85176687D01*
X33964644Y-85215606D01*
X33964219Y-85217867D01*
X33894484Y-85570813D01*
X33708781Y-86650327D01*
X33708781Y-86650328D01*
X33708696Y-86650820D01*
X33688321Y-86765073D01*
X33682587Y-86802586D01*
X33682374Y-86803829D01*
X33622138Y-87153995D01*
X33461367Y-88250035D01*
X33461257Y-88250770D01*
X33444563Y-88360009D01*
X33440223Y-88394036D01*
X33439907Y-88396340D01*
X33388998Y-88743412D01*
X33253816Y-89855804D01*
X33253749Y-89856351D01*
X33240468Y-89960503D01*
X33237132Y-89993083D01*
X33236982Y-89994324D01*
X33195206Y-90338093D01*
X33086287Y-91466592D01*
X33086216Y-91467306D01*
X33076161Y-91565535D01*
X33073917Y-91594541D01*
X33073712Y-91596889D01*
X33040878Y-91937072D01*
X32958908Y-93081445D01*
X32958861Y-93082098D01*
X32951736Y-93174220D01*
X32950298Y-93201650D01*
X32950208Y-93202909D01*
X32926106Y-93539404D01*
X32871789Y-94699348D01*
X32871755Y-94700037D01*
X32868436Y-94763362D01*
X32867278Y-94785463D01*
X32867027Y-94794544D01*
X32866624Y-94809162D01*
X32866535Y-94811538D01*
X32850965Y-95144040D01*
X32825003Y-96319593D01*
X32824991Y-96320121D01*
X32822837Y-96398306D01*
X32822776Y-96420412D01*
X32822749Y-96421669D01*
X32815497Y-96750081D01*
X28771487Y-96750081D01*
X28816729Y-88086267D01*
X28830242Y-88030622D01*
X28853119Y-87985726D01*
X28853120Y-87985721D01*
X28868900Y-87886093D01*
X28868900Y-87069106D01*
X28853120Y-86969478D01*
X28853119Y-86969476D01*
X28853119Y-86969474D01*
X28791928Y-86849380D01*
X28791926Y-86849378D01*
X28791923Y-86849374D01*
X28696625Y-86754076D01*
X28696621Y-86754073D01*
X28696620Y-86754072D01*
X28576526Y-86692881D01*
X28576524Y-86692880D01*
X28576521Y-86692879D01*
X28476893Y-86677100D01*
X28476888Y-86677100D01*
X27959912Y-86677100D01*
X27959907Y-86677100D01*
X27860278Y-86692879D01*
X27740178Y-86754073D01*
X27740174Y-86754076D01*
X27644876Y-86849374D01*
X27644873Y-86849378D01*
X27583679Y-86969478D01*
X27567900Y-87069106D01*
X27567900Y-87886093D01*
X27583679Y-87985723D01*
X27602238Y-88022148D01*
X27615750Y-88079088D01*
X27594479Y-92152413D01*
X27583916Y-92201849D01*
X27556517Y-92263903D01*
X27556516Y-92263908D01*
X27553601Y-92289031D01*
X27553601Y-92618675D01*
X27533916Y-92685714D01*
X27481112Y-92731469D01*
X27411954Y-92741413D01*
X27348398Y-92712388D01*
X27316167Y-92668761D01*
X27286307Y-92601135D01*
X27206866Y-92521694D01*
X27104093Y-92476315D01*
X27078966Y-92473400D01*
X24559244Y-92473400D01*
X24559218Y-92473402D01*
X24534113Y-92476313D01*
X24534109Y-92476315D01*
X24431336Y-92521693D01*
X24351895Y-92601134D01*
X24306516Y-92703906D01*
X24306516Y-92703908D01*
X24303601Y-92729031D01*
X24303601Y-94138756D01*
X24303603Y-94138782D01*
X24306514Y-94163887D01*
X24306516Y-94163891D01*
X24351894Y-94266664D01*
X24351895Y-94266665D01*
X24431336Y-94346106D01*
X24534110Y-94391485D01*
X24559236Y-94394400D01*
X27078965Y-94394399D01*
X27078980Y-94394397D01*
X27078983Y-94394397D01*
X27104088Y-94391486D01*
X27104089Y-94391485D01*
X27104092Y-94391485D01*
X27206866Y-94346106D01*
X27286307Y-94266665D01*
X27316168Y-94199035D01*
X27361252Y-94145661D01*
X27428038Y-94125133D01*
X27495320Y-94143971D01*
X27541737Y-94196194D01*
X27553601Y-94249123D01*
X27553601Y-94578756D01*
X27553603Y-94578780D01*
X27556515Y-94603889D01*
X27556515Y-94603891D01*
X27570682Y-94635976D01*
X27581245Y-94686709D01*
X27550299Y-100612852D01*
X27530265Y-100679787D01*
X27477223Y-100725266D01*
X27408013Y-100734848D01*
X27344610Y-100705492D01*
X27312867Y-100662290D01*
X27286306Y-100602135D01*
X27206865Y-100522694D01*
X27104092Y-100477315D01*
X27078965Y-100474400D01*
X24559243Y-100474400D01*
X24559217Y-100474402D01*
X24534112Y-100477313D01*
X24534108Y-100477315D01*
X24431335Y-100522693D01*
X24351894Y-100602134D01*
X24306515Y-100704906D01*
X24306515Y-100704908D01*
X24303600Y-100730031D01*
X23485900Y-100730031D01*
X23485900Y-93469144D01*
X23485661Y-93467330D01*
X23484600Y-93451141D01*
X23484600Y-92677838D01*
X23493832Y-92630888D01*
X25264710Y-88302077D01*
X25308311Y-88247485D01*
X25323173Y-88238550D01*
X25396620Y-88201128D01*
X25491928Y-88105820D01*
X25553119Y-87985726D01*
X25553120Y-87985721D01*
X25568900Y-87886093D01*
X25568900Y-87603525D01*
X25580006Y-87552232D01*
X25899344Y-86849380D01*
X35877485Y-64887802D01*
X35887573Y-64869767D01*
X35892159Y-64862968D01*
X36120821Y-64523965D01*
X36153046Y-64454854D01*
X36165728Y-64433530D01*
X38629933Y-61101495D01*
X38685620Y-61059301D01*
X38710228Y-61052756D01*
X38763831Y-61044267D01*
X38860952Y-60987794D01*
X38878079Y-60969180D01*
X40223947Y-59116750D01*
X40236359Y-59094709D01*
X40260056Y-58984890D01*
X40256760Y-58964079D01*
X40265714Y-58894786D01*
X40279535Y-58870948D01*
X40290087Y-58856680D01*
X43449495Y-54584610D01*
X43505182Y-54542416D01*
X43507625Y-54541518D01*
X43509958Y-54540686D01*
X43509970Y-54540685D01*
X43607091Y-54484212D01*
X43624218Y-54465598D01*
X44970086Y-52613168D01*
X44982498Y-52591127D01*
X45001057Y-52505118D01*
X45022568Y-52457543D01*
X47208820Y-49501349D01*
X47252221Y-49464599D01*
X47320508Y-49429806D01*
X47391841Y-49358473D01*
X47872048Y-48697526D01*
X47917846Y-48607641D01*
X47938931Y-48474516D01*
X47938931Y-48474512D01*
X47917847Y-48341393D01*
X47917846Y-48341391D01*
X47917846Y-48341389D01*
X47856655Y-48221295D01*
X47785322Y-48149962D01*
X47367080Y-47846091D01*
X47277195Y-47800293D01*
X47277194Y-47800292D01*
X47277193Y-47800292D01*
X47144072Y-47779208D01*
X47144068Y-47779208D01*
X47010948Y-47800291D01*
X46890848Y-47861485D01*
X46819516Y-47932817D01*
X46339313Y-48593759D01*
X46339308Y-48593767D01*
X46293513Y-48683646D01*
X46293512Y-48683649D01*
X46291589Y-48695793D01*
X46291092Y-48698928D01*
X46268317Y-48753257D01*
X43821664Y-52061557D01*
X43765975Y-52103753D01*
X43696313Y-52109143D01*
X43634796Y-52076015D01*
X43600955Y-52014888D01*
X43599493Y-52007222D01*
X43581191Y-51891665D01*
X43581190Y-51891663D01*
X43581190Y-51891662D01*
X43524717Y-51794540D01*
X43509004Y-51780082D01*
X43506099Y-51777409D01*
X43506096Y-51777407D01*
X41467598Y-50296354D01*
X41457969Y-50290932D01*
X41445558Y-50283943D01*
X41445555Y-50283942D01*
X41445550Y-50283940D01*
X41335738Y-50260245D01*
X41224777Y-50277820D01*
X41224773Y-50277821D01*
X41127658Y-50334290D01*
X41127652Y-50334295D01*
X41110523Y-50352911D01*
X41110521Y-50352914D01*
X40281909Y-51493403D01*
X40269498Y-51515444D01*
X40269495Y-51515451D01*
X40245800Y-51625263D01*
X40263375Y-51736223D01*
X40263375Y-51736224D01*
X40263376Y-51736226D01*
X40312826Y-51821270D01*
X40319849Y-51833348D01*
X40338466Y-51850478D01*
X40338469Y-51850480D01*
X41947384Y-53019423D01*
X42376967Y-53331533D01*
X42399008Y-53343945D01*
X42399012Y-53343946D01*
X42399015Y-53343947D01*
X42440054Y-53352802D01*
X42508827Y-53367642D01*
X42581762Y-53356090D01*
X42602525Y-53352802D01*
X42671818Y-53361756D01*
X42725270Y-53406753D01*
X42745910Y-53473504D01*
X42727185Y-53540818D01*
X42721621Y-53549007D01*
X39064310Y-58494328D01*
X39008621Y-58536524D01*
X38938959Y-58541914D01*
X38877442Y-58508786D01*
X38843601Y-58447659D01*
X38842139Y-58439993D01*
X38835052Y-58395247D01*
X38835051Y-58395245D01*
X38835051Y-58395244D01*
X38778578Y-58298122D01*
X38759964Y-58280995D01*
X38759960Y-58280991D01*
X38759957Y-58280989D01*
X36721459Y-56799936D01*
X36707028Y-56791810D01*
X36699419Y-56787525D01*
X36699416Y-56787524D01*
X36699411Y-56787522D01*
X36589599Y-56763827D01*
X36478638Y-56781402D01*
X36478634Y-56781403D01*
X36381519Y-56837872D01*
X36381513Y-56837877D01*
X36364384Y-56856493D01*
X36364382Y-56856496D01*
X35535770Y-57996985D01*
X35523359Y-58019026D01*
X35523356Y-58019033D01*
X35499661Y-58128845D01*
X35517236Y-58239805D01*
X35517236Y-58239806D01*
X35517237Y-58239808D01*
X35541186Y-58280995D01*
X35573710Y-58336930D01*
X35592327Y-58354060D01*
X35592330Y-58354062D01*
X37367453Y-59643762D01*
X37630828Y-59835115D01*
X37652869Y-59847527D01*
X37652873Y-59847528D01*
X37652876Y-59847529D01*
X37716703Y-59861301D01*
X37762688Y-59871224D01*
X37784366Y-59867790D01*
X37853656Y-59876743D01*
X37907109Y-59921738D01*
X37927751Y-59988489D01*
X37909028Y-60055803D01*
X37903462Y-60063995D01*
X35273900Y-63619621D01*
X35234320Y-63654341D01*
X35111042Y-63722676D01*
X35111040Y-63722678D01*
X35042252Y-63796443D01*
X35042246Y-63796450D01*
X34585395Y-64473759D01*
X34542763Y-64565183D01*
X34542762Y-64565185D01*
X34542762Y-64565187D01*
X34539323Y-64593196D01*
X34526336Y-64698967D01*
X34553916Y-64840856D01*
X34550144Y-64841589D01*
X34553383Y-64892465D01*
X34545321Y-64916449D01*
X24685955Y-86616602D01*
X24640302Y-86669494D01*
X24592461Y-86687782D01*
X24560276Y-86692880D01*
X24560274Y-86692880D01*
X24560274Y-86692881D01*
X24440180Y-86754072D01*
X24440179Y-86754073D01*
X24440174Y-86754076D01*
X24344876Y-86849374D01*
X24344873Y-86849378D01*
X24283679Y-86969478D01*
X24267900Y-87069106D01*
X24267900Y-87542403D01*
X24258668Y-87589354D01*
X22436952Y-92042433D01*
X22409866Y-92083162D01*
X22331895Y-92161133D01*
X22331895Y-92161134D01*
X22286516Y-92263906D01*
X22286516Y-92263908D01*
X22283601Y-92289031D01*
X22283601Y-92496517D01*
X22282610Y-92512161D01*
X22279724Y-92534849D01*
X17969224Y-92534849D01*
X18041985Y-91424724D01*
X18042098Y-91423179D01*
X18044159Y-91396902D01*
X18069435Y-91074582D01*
X18069478Y-91074053D01*
X18192052Y-89673030D01*
X18192191Y-89671548D01*
X18226253Y-89334173D01*
X18226285Y-89333866D01*
X18380672Y-87924169D01*
X18380844Y-87922700D01*
X18420637Y-87600763D01*
X18420751Y-87599869D01*
X18607766Y-86179348D01*
X18607952Y-86178003D01*
X18652325Y-85874853D01*
X18652452Y-85874015D01*
X18699118Y-85570824D01*
X18873242Y-84439520D01*
X18873517Y-84437820D01*
X18920838Y-84158297D01*
X18920842Y-84158268D01*
X19177017Y-82705429D01*
X19177332Y-82703718D01*
X19225528Y-82453196D01*
X19518978Y-80977922D01*
X19519318Y-80976279D01*
X19565622Y-80761584D01*
X19898970Y-79257952D01*
X19899337Y-79256361D01*
X19940035Y-79086210D01*
X20316786Y-77546553D01*
X20317195Y-77544941D01*
X20347387Y-77430128D01*
X20772257Y-75844491D01*
X20772801Y-75842532D01*
X20785203Y-75799320D01*
X21262788Y-74160799D01*
X21263522Y-74158379D01*
X21787587Y-72496258D01*
X21788377Y-72493844D01*
X22348535Y-70843675D01*
X22349428Y-70841136D01*
X22945448Y-69203580D01*
X22946355Y-69201171D01*
X23577974Y-67576965D01*
X23578939Y-67574563D01*
X24245823Y-65964562D01*
X24246873Y-65962103D01*
X24247332Y-65961060D01*
X24948740Y-64366988D01*
X24949791Y-64364669D01*
X25654395Y-62853643D01*
X31790520Y-62853643D01*
X31816238Y-62985953D01*
X31881583Y-63103838D01*
X31881584Y-63103839D01*
X31881585Y-63103840D01*
X31955350Y-63172628D01*
X31955357Y-63172634D01*
X31955359Y-63172635D01*
X31955362Y-63172638D01*
X32383954Y-63461727D01*
X32475383Y-63504361D01*
X32609163Y-63520787D01*
X32741472Y-63495069D01*
X32859357Y-63429724D01*
X32928157Y-63355945D01*
X33385005Y-62678641D01*
X33427638Y-62587213D01*
X33444064Y-62453433D01*
X33423801Y-62349187D01*
X33426203Y-62291783D01*
X33459724Y-62173265D01*
X34709747Y-57753538D01*
X34728749Y-57714401D01*
X34883186Y-57501837D01*
X35960431Y-56019136D01*
X35972843Y-55997095D01*
X35977442Y-55975780D01*
X35998594Y-55928693D01*
X36030425Y-55885209D01*
X39293170Y-51427905D01*
X39330898Y-51393952D01*
X39343553Y-51386594D01*
X39360680Y-51367980D01*
X40264635Y-50123790D01*
X40298409Y-50092045D01*
X44248749Y-47580269D01*
X44315880Y-47560910D01*
X44334666Y-47562434D01*
X44397530Y-47572392D01*
X44397532Y-47572392D01*
X44530651Y-47551308D01*
X44530651Y-47551307D01*
X44530656Y-47551307D01*
X44650750Y-47490116D01*
X44722083Y-47418783D01*
X45168208Y-46804744D01*
X45208740Y-46768996D01*
X66732769Y-34925867D01*
X66775287Y-34911715D01*
X66804563Y-34907602D01*
X67585841Y-34668741D01*
X67676511Y-34624518D01*
X67722844Y-34579774D01*
X67770157Y-34551207D01*
X79033689Y-30838125D01*
X79085090Y-30832532D01*
X79155471Y-30839711D01*
X79180268Y-30834719D01*
X81357930Y-30127153D01*
X81380926Y-30116617D01*
X81454122Y-30051117D01*
X81497988Y-30025757D01*
X84964495Y-28883005D01*
X85018332Y-28879599D01*
X85018356Y-28878931D01*
X85025147Y-28879168D01*
X85026979Y-28879052D01*
X85028111Y-28879272D01*
X85128239Y-28866977D01*
X85620954Y-28725693D01*
X85913558Y-28641791D01*
X85913560Y-28641789D01*
X85913567Y-28641788D01*
X86004995Y-28599155D01*
X86103571Y-28507232D01*
X86168916Y-28389345D01*
X86194634Y-28257037D01*
X86182340Y-28156909D01*
X86182339Y-28156905D01*
X86039845Y-27659968D01*
X86039841Y-27659957D01*
X85997209Y-27568532D01*
X85981757Y-27551962D01*
X85905285Y-27469956D01*
X85905282Y-27469954D01*
X85787401Y-27404612D01*
X85787400Y-27404611D01*
X85787399Y-27404611D01*
X85655091Y-27378892D01*
X85655090Y-27378892D01*
X85554965Y-27391186D01*
X85554954Y-27391189D01*
X84769643Y-27616372D01*
X84738956Y-27630681D01*
X84678207Y-27659009D01*
X84678206Y-27659010D01*
X84608866Y-27723668D01*
X84563122Y-27750744D01*
X80754039Y-29006428D01*
X80684207Y-29008722D01*
X80624221Y-28972898D01*
X80593125Y-28910329D01*
X80600792Y-28840881D01*
X80604732Y-28832367D01*
X80607379Y-28827171D01*
X80607381Y-28827170D01*
X80658385Y-28727069D01*
X80669785Y-28615302D01*
X80664792Y-28590505D01*
X79886152Y-26194101D01*
X79875616Y-26171104D01*
X79800700Y-26087384D01*
X79800701Y-26087384D01*
X79771226Y-26072366D01*
X79700598Y-26036379D01*
X79588831Y-26024980D01*
X79588830Y-26024980D01*
X79564029Y-26029973D01*
X79564024Y-26029974D01*
X78223304Y-26465602D01*
X78223303Y-26465602D01*
X78200306Y-26476138D01*
X78116586Y-26551054D01*
X78065581Y-26651157D01*
X78054180Y-26762922D01*
X78059174Y-26787722D01*
X78837813Y-29184123D01*
X78837813Y-29184124D01*
X78848349Y-29207121D01*
X78923265Y-29290841D01*
X78923264Y-29290841D01*
X78923266Y-29290842D01*
X78923267Y-29290843D01*
X79023368Y-29341847D01*
X79023369Y-29341847D01*
X79033606Y-29347063D01*
X79032465Y-29349301D01*
X79077540Y-29378324D01*
X79106511Y-29441905D01*
X79096508Y-29511055D01*
X79050708Y-29563820D01*
X79022580Y-29577213D01*
X73416543Y-31425272D01*
X73383734Y-31431360D01*
X73375668Y-31431751D01*
X73350864Y-31436745D01*
X73350859Y-31436746D01*
X73037376Y-31538603D01*
X72967535Y-31540598D01*
X72907702Y-31504517D01*
X72876874Y-31441816D01*
X72884839Y-31372402D01*
X72916368Y-31328269D01*
X72971439Y-31278990D01*
X73022443Y-31178889D01*
X73033843Y-31067122D01*
X73028850Y-31042325D01*
X72250210Y-28645921D01*
X72239674Y-28622924D01*
X72204969Y-28584141D01*
X72164758Y-28539204D01*
X72164759Y-28539204D01*
X72161151Y-28537365D01*
X72064656Y-28488199D01*
X71952889Y-28476800D01*
X71952888Y-28476800D01*
X71928087Y-28481793D01*
X71928082Y-28481794D01*
X70587362Y-28917422D01*
X70587361Y-28917422D01*
X70564364Y-28927958D01*
X70480644Y-29002874D01*
X70429639Y-29102977D01*
X70418238Y-29214742D01*
X70423232Y-29239542D01*
X71201871Y-31635943D01*
X71201871Y-31635944D01*
X71212407Y-31658941D01*
X71287323Y-31742661D01*
X71287322Y-31742661D01*
X71287324Y-31742662D01*
X71287325Y-31742663D01*
X71387426Y-31793667D01*
X71460944Y-31801165D01*
X71525639Y-31827548D01*
X71565800Y-31884722D01*
X71568676Y-31954532D01*
X71533353Y-32014815D01*
X71486680Y-32042455D01*
X71173213Y-32144307D01*
X71173203Y-32144311D01*
X71150210Y-32154846D01*
X71138467Y-32165354D01*
X71094605Y-32190711D01*
X67392911Y-33410993D01*
X67332559Y-33415344D01*
X67305363Y-33410549D01*
X67305362Y-33410549D01*
X67205467Y-33424587D01*
X66878828Y-33524451D01*
X66424187Y-33663449D01*
X66424184Y-33663450D01*
X66424177Y-33663453D01*
X66333521Y-33707669D01*
X66333515Y-33707673D01*
X66236560Y-33801302D01*
X66236559Y-33801303D01*
X66233761Y-33806566D01*
X66184905Y-33856514D01*
X66184056Y-33856985D01*
X44398315Y-45844116D01*
X44357941Y-45857949D01*
X44341185Y-45860603D01*
X44279994Y-45891781D01*
X44221092Y-45921794D01*
X44221091Y-45921795D01*
X44221090Y-45921795D01*
X44149756Y-45993130D01*
X44118339Y-46036369D01*
X44118340Y-46036370D01*
X44111849Y-46045303D01*
X44104170Y-46052674D01*
X44092580Y-46071824D01*
X44089509Y-46076052D01*
X44089507Y-46076053D01*
X43857276Y-46395692D01*
X43823491Y-46427446D01*
X40193868Y-48735300D01*
X40126734Y-48754660D01*
X40079369Y-48742116D01*
X40078668Y-48743964D01*
X40069943Y-48740652D01*
X39960131Y-48716957D01*
X39849170Y-48734532D01*
X39849166Y-48734533D01*
X39752051Y-48791002D01*
X39752045Y-48791007D01*
X39734916Y-48809623D01*
X39734914Y-48809626D01*
X39163190Y-49596537D01*
X39140566Y-49620294D01*
X39109943Y-49644912D01*
X34368348Y-56122501D01*
X34336968Y-56203385D01*
X34321682Y-56231418D01*
X33642932Y-57165639D01*
X33630522Y-57187677D01*
X33630521Y-57187680D01*
X33630402Y-57188234D01*
X33627887Y-57194621D01*
X33627215Y-57196394D01*
X33627193Y-57196385D01*
X33615720Y-57225532D01*
X33606682Y-57240699D01*
X33606679Y-57240706D01*
X32256746Y-62013679D01*
X32240228Y-62049272D01*
X31849579Y-62628435D01*
X31806947Y-62719859D01*
X31806946Y-62719861D01*
X31806946Y-62719863D01*
X31790520Y-62853643D01*
X25654395Y-62853643D01*
X25686304Y-62785213D01*
X25687409Y-62782911D01*
X26458166Y-61219969D01*
X26459379Y-61217577D01*
X26471927Y-61193473D01*
X27264044Y-59671831D01*
X27265237Y-59669598D01*
X28103483Y-58141678D01*
X28104744Y-58139438D01*
X28976101Y-56630204D01*
X28977395Y-56628018D01*
X29881446Y-55138187D01*
X29882864Y-55135907D01*
X29964137Y-55008334D01*
X30819182Y-53666182D01*
X30820645Y-53663941D01*
X31788820Y-52214965D01*
X31790234Y-52212897D01*
X32774795Y-50806799D01*
X32793740Y-50779974D01*
X32794845Y-50778439D01*
X33771216Y-49446838D01*
X33836058Y-49359249D01*
X33837209Y-49357722D01*
X34806530Y-48094477D01*
X34909254Y-47962017D01*
X34910440Y-47960513D01*
X35877924Y-46755054D01*
X36012866Y-46588859D01*
X36013816Y-46587708D01*
X36983704Y-45431841D01*
X37146002Y-45240845D01*
X37147013Y-45239674D01*
X38122092Y-44127810D01*
X38122467Y-44127386D01*
X38308283Y-43918368D01*
X38309260Y-43917286D01*
X39292406Y-42844369D01*
X39498998Y-42622193D01*
X39500041Y-42621087D01*
X40492952Y-41583879D01*
X40717675Y-41352786D01*
X40718598Y-41351850D01*
X41722956Y-40347493D01*
X41723124Y-40347326D01*
X41963533Y-40110916D01*
X41964358Y-40110114D01*
X42981533Y-39136381D01*
X42981932Y-39136003D01*
X43235897Y-38897192D01*
X43236733Y-38896417D01*
X44268294Y-37951166D01*
X44268539Y-37950944D01*
X44533998Y-37712281D01*
X44534683Y-37711673D01*
X45581969Y-36793227D01*
X45582251Y-36792983D01*
X45857215Y-36556676D01*
X45857756Y-36556215D01*
X46921711Y-35663451D01*
X46922301Y-35662962D01*
X47204676Y-35431057D01*
X47205287Y-35430560D01*
X48287178Y-34562252D01*
X48287801Y-34561758D01*
X48575501Y-34336059D01*
X48576170Y-34335540D01*
X49677379Y-33490553D01*
X49678142Y-33489974D01*
X49969132Y-33272027D01*
X49969500Y-33271754D01*
X51091589Y-32449004D01*
X51092373Y-32448436D01*
X51384219Y-32239867D01*
X51384835Y-32239431D01*
X52529083Y-31438220D01*
X52530012Y-31437579D01*
X52820377Y-31239724D01*
X52820417Y-31239696D01*
X53332918Y-30897254D01*
X65185049Y-30897254D01*
X65185049Y-30897255D01*
X65199088Y-30997152D01*
X65199089Y-30997155D01*
X65350239Y-31491542D01*
X65350240Y-31491544D01*
X65350241Y-31491547D01*
X65394459Y-31582210D01*
X65394460Y-31582211D01*
X65394461Y-31582212D01*
X65488091Y-31679168D01*
X65549196Y-31711658D01*
X65607102Y-31742447D01*
X65739835Y-31765851D01*
X65739836Y-31765850D01*
X65739837Y-31765851D01*
X65839735Y-31751812D01*
X66621013Y-31512951D01*
X66711683Y-31468728D01*
X66808639Y-31375099D01*
X66871917Y-31256090D01*
X66882434Y-31196448D01*
X66895322Y-31123355D01*
X66895322Y-31123354D01*
X66895322Y-31123353D01*
X66888860Y-31077372D01*
X66899023Y-31008248D01*
X66930392Y-30966453D01*
X70084757Y-28229886D01*
X70127695Y-28205621D01*
X71361884Y-27804609D01*
X78769325Y-25440019D01*
X78796789Y-25422383D01*
X78825456Y-25408801D01*
X79527423Y-25180717D01*
X79577936Y-25175251D01*
X83808385Y-25593647D01*
X83858457Y-25613698D01*
X83859780Y-25611313D01*
X83868314Y-25616043D01*
X83868315Y-25616044D01*
X83986201Y-25681389D01*
X84118509Y-25707108D01*
X84218637Y-25694813D01*
X85003965Y-25469624D01*
X85003981Y-25469616D01*
X85008528Y-25467917D01*
X85009080Y-25469395D01*
X85068922Y-25459747D01*
X108957670Y-28267291D01*
X109021953Y-28294666D01*
X109032394Y-28304305D01*
X109037128Y-28309208D01*
X109037130Y-28309209D01*
X109126202Y-28356569D01*
X109898668Y-28622551D01*
X109998015Y-28640068D01*
X110009652Y-28638432D01*
X110066262Y-28643635D01*
X114142315Y-30007798D01*
X114185648Y-30032982D01*
X114244291Y-30085458D01*
X114267286Y-30095995D01*
X116444948Y-30803559D01*
X116444955Y-30803560D01*
X116444957Y-30803561D01*
X116444956Y-30803561D01*
X116461480Y-30806887D01*
X116469746Y-30808552D01*
X116493114Y-30806168D01*
X116545049Y-30811938D01*
X121765702Y-32559173D01*
X121809033Y-32584355D01*
X121810870Y-32585999D01*
X121833865Y-32596536D01*
X123324412Y-33080843D01*
X123325279Y-33081129D01*
X128143540Y-34693692D01*
X128183891Y-34716292D01*
X128187604Y-34719408D01*
X128274063Y-34771358D01*
X128274067Y-34771360D01*
X128274074Y-34771364D01*
X129031561Y-35077408D01*
X129129855Y-35100102D01*
X129129856Y-35100101D01*
X129129857Y-35100102D01*
X129151462Y-35098211D01*
X129264127Y-35088354D01*
X129264130Y-35088352D01*
X129264133Y-35088352D01*
X129324581Y-35062692D01*
X129388198Y-35035689D01*
X129489921Y-34947263D01*
X129541878Y-34860791D01*
X129735541Y-34381460D01*
X129758234Y-34283165D01*
X129757991Y-34280391D01*
X129746487Y-34148893D01*
X129727121Y-34103269D01*
X129693822Y-34024822D01*
X129605395Y-33923099D01*
X129605391Y-33923096D01*
X129518930Y-33871145D01*
X129518926Y-33871143D01*
X129518924Y-33871142D01*
X128761437Y-33565098D01*
X128663143Y-33542404D01*
X128663141Y-33542404D01*
X128663139Y-33542403D01*
X128549772Y-33552323D01*
X128499610Y-33546384D01*
X128132477Y-33423513D01*
X128009236Y-33382267D01*
X124432734Y-32185292D01*
X124414140Y-32176278D01*
X124414129Y-32176304D01*
X124405652Y-32172419D01*
X124382657Y-32161882D01*
X124069151Y-32060017D01*
X124011475Y-32020579D01*
X123984277Y-31956221D01*
X123996192Y-31887374D01*
X124043436Y-31835899D01*
X124094885Y-31818726D01*
X124168430Y-31811226D01*
X124268531Y-31760222D01*
X124343448Y-31676501D01*
X124353985Y-31653506D01*
X125132623Y-29257101D01*
X125137617Y-29232303D01*
X125126217Y-29120536D01*
X125075213Y-29020435D01*
X124991492Y-28945518D01*
X124968497Y-28934981D01*
X123627764Y-28499352D01*
X123627761Y-28499351D01*
X123627757Y-28499350D01*
X123602967Y-28494359D01*
X123602961Y-28494359D01*
X123491200Y-28505758D01*
X123391097Y-28556763D01*
X123316182Y-28640482D01*
X123305645Y-28663477D01*
X122527007Y-31059881D01*
X122522013Y-31084682D01*
X122522013Y-31084683D01*
X122525958Y-31123355D01*
X122533413Y-31196448D01*
X122575471Y-31278991D01*
X122584418Y-31296550D01*
X122618896Y-31327402D01*
X122655728Y-31386775D01*
X122654614Y-31456636D01*
X122615907Y-31514804D01*
X122551896Y-31542812D01*
X122496855Y-31537397D01*
X116566196Y-29552539D01*
X116508869Y-29512596D01*
X116482239Y-29448000D01*
X116494758Y-29379261D01*
X116542454Y-29328203D01*
X116592966Y-29311591D01*
X116601851Y-29310685D01*
X116701952Y-29259681D01*
X116776869Y-29175960D01*
X116787406Y-29152965D01*
X117566044Y-26756560D01*
X117571038Y-26731762D01*
X117559638Y-26619995D01*
X117508634Y-26519894D01*
X117424913Y-26444977D01*
X117401918Y-26434440D01*
X116061185Y-25998811D01*
X116061182Y-25998810D01*
X116061178Y-25998809D01*
X116036388Y-25993818D01*
X116036382Y-25993818D01*
X115924621Y-26005217D01*
X115824518Y-26056222D01*
X115749603Y-26139941D01*
X115739066Y-26162936D01*
X114960428Y-28559340D01*
X114955434Y-28584141D01*
X114955434Y-28584142D01*
X114961736Y-28645922D01*
X114966834Y-28695907D01*
X114982711Y-28727067D01*
X115023055Y-28806246D01*
X115021611Y-28806981D01*
X115042145Y-28859857D01*
X115028211Y-28928324D01*
X114979473Y-28978388D01*
X114911406Y-28994155D01*
X114879237Y-28987952D01*
X110515475Y-27527499D01*
X110465631Y-27496048D01*
X110411304Y-27439791D01*
X110322230Y-27392430D01*
X110322225Y-27392428D01*
X109549775Y-27126452D01*
X109549773Y-27126451D01*
X109549766Y-27126449D01*
X109549758Y-27126447D01*
X109549756Y-27126447D01*
X109450419Y-27108931D01*
X109439111Y-27110520D01*
X109407388Y-27110878D01*
X91175670Y-24968181D01*
X90063166Y-24837433D01*
X109940021Y-24837433D01*
X109958780Y-24970907D01*
X109958780Y-24970908D01*
X110017866Y-25092051D01*
X110017867Y-25092053D01*
X110111496Y-25189009D01*
X110200568Y-25236369D01*
X110973034Y-25502351D01*
X111035094Y-25513293D01*
X111072379Y-25519868D01*
X111072380Y-25519867D01*
X111072381Y-25519868D01*
X111205854Y-25501110D01*
X111326999Y-25442024D01*
X111374895Y-25395769D01*
X111436793Y-25363360D01*
X111455323Y-25361098D01*
X116068778Y-25148496D01*
X116112803Y-25154434D01*
X118073466Y-25791491D01*
X118073468Y-25791491D01*
X118073470Y-25791492D01*
X118076936Y-25792401D01*
X118076881Y-25792609D01*
X118084587Y-25794651D01*
X123399378Y-27551962D01*
X123430740Y-27570110D01*
X123431585Y-27568821D01*
X123439385Y-27573929D01*
X123439386Y-27573929D01*
X123439388Y-27573931D01*
X123462383Y-27584468D01*
X125099334Y-28116344D01*
X125378255Y-28206971D01*
X125419149Y-28229501D01*
X126962157Y-29510665D01*
X129221705Y-31386775D01*
X129261855Y-31420111D01*
X129296785Y-31467060D01*
X129312685Y-31504517D01*
X129335378Y-31557978D01*
X129401698Y-31634270D01*
X129423804Y-31659700D01*
X129423808Y-31659703D01*
X129456203Y-31679168D01*
X129510276Y-31711658D01*
X130203048Y-31991555D01*
X130241673Y-32016316D01*
X133978908Y-35540906D01*
X147637041Y-48421905D01*
X147662447Y-48455817D01*
X147707952Y-48545126D01*
X148188159Y-49206073D01*
X148188161Y-49206075D01*
X148266392Y-49284306D01*
X148265661Y-49285036D01*
X148281875Y-49301290D01*
X150600597Y-52509872D01*
X150621304Y-52556346D01*
X150633565Y-52613167D01*
X150638275Y-52634991D01*
X150650686Y-52657032D01*
X150650689Y-52657037D01*
X151978211Y-54484213D01*
X151996555Y-54509461D01*
X152013682Y-54528076D01*
X152035367Y-54540685D01*
X152069222Y-54560371D01*
X152107395Y-54594937D01*
X159209955Y-64423260D01*
X159223588Y-64447424D01*
X159224194Y-64448852D01*
X159224197Y-64448858D01*
X159224199Y-64448862D01*
X159296887Y-64565187D01*
X159657130Y-65141698D01*
X159657132Y-65141700D01*
X159723312Y-65217830D01*
X159723314Y-65217832D01*
X159723316Y-65217833D01*
X159723317Y-65217834D01*
X159838844Y-65287249D01*
X159838847Y-65287251D01*
X159970178Y-65317572D01*
X160104450Y-65305824D01*
X160104453Y-65305822D01*
X160104456Y-65305822D01*
X160197306Y-65266409D01*
X160197307Y-65266408D01*
X160197310Y-65266407D01*
X160635731Y-64992452D01*
X160711866Y-64926269D01*
X160781285Y-64810736D01*
X160811605Y-64679404D01*
X160799858Y-64545132D01*
X160799857Y-64545130D01*
X160799857Y-64545127D01*
X160760443Y-64452275D01*
X160327509Y-63759435D01*
X160327507Y-63759433D01*
X160261327Y-63683303D01*
X160261322Y-63683299D01*
X160145793Y-63613882D01*
X160144370Y-63613554D01*
X160142818Y-63612681D01*
X160136747Y-63610228D01*
X160137064Y-63609442D01*
X160083479Y-63579289D01*
X160071769Y-63565364D01*
X158579195Y-61499983D01*
X157760471Y-60367055D01*
X157739765Y-60320583D01*
X157730399Y-60277173D01*
X157717988Y-60255132D01*
X157654469Y-60167706D01*
X157524230Y-59988447D01*
X157500750Y-59922641D01*
X157516575Y-59854587D01*
X157566681Y-59805892D01*
X157635159Y-59792017D01*
X157686879Y-59808367D01*
X157740252Y-59839402D01*
X157750781Y-59845524D01*
X157824757Y-59857240D01*
X157861744Y-59863099D01*
X157861744Y-59863098D01*
X157861745Y-59863099D01*
X157971564Y-59839402D01*
X157993605Y-59826992D01*
X160032108Y-58345932D01*
X160050723Y-58328805D01*
X160107196Y-58231683D01*
X160124771Y-58120720D01*
X160101074Y-58010901D01*
X160088664Y-57988860D01*
X159260045Y-56848366D01*
X159242918Y-56829751D01*
X159242917Y-56829750D01*
X159242916Y-56829749D01*
X159145798Y-56773278D01*
X159145794Y-56773277D01*
X159034833Y-56755702D01*
X158925016Y-56779399D01*
X158925011Y-56779401D01*
X158902982Y-56791804D01*
X158902961Y-56791818D01*
X156864473Y-58272867D01*
X156864468Y-58272871D01*
X156845854Y-58289997D01*
X156808603Y-58354062D01*
X156791145Y-58384088D01*
X156789381Y-58387121D01*
X156771806Y-58498082D01*
X156787398Y-58570340D01*
X156782297Y-58640023D01*
X156740331Y-58695886D01*
X156674826Y-58720193D01*
X156606578Y-58705226D01*
X156565871Y-58669380D01*
X156372119Y-58402703D01*
X156354992Y-58384088D01*
X156330249Y-58369700D01*
X156292082Y-58335138D01*
X153884596Y-55003727D01*
X152857905Y-53583021D01*
X152834593Y-53517155D01*
X152850591Y-53449142D01*
X152900820Y-53400574D01*
X152969334Y-53386873D01*
X152999990Y-53393571D01*
X153000971Y-53393920D01*
X153000977Y-53393923D01*
X153000982Y-53393923D01*
X153000983Y-53393924D01*
X153111940Y-53411498D01*
X153111940Y-53411497D01*
X153111941Y-53411498D01*
X153221760Y-53387801D01*
X153243801Y-53375391D01*
X155282304Y-51894331D01*
X155300919Y-51877204D01*
X155357392Y-51780082D01*
X155374967Y-51669119D01*
X155351270Y-51559300D01*
X155338860Y-51537259D01*
X155329716Y-51524674D01*
X155229395Y-51386594D01*
X154510241Y-50396765D01*
X154493114Y-50378150D01*
X154493113Y-50378149D01*
X154493112Y-50378148D01*
X154395994Y-50321677D01*
X154395990Y-50321676D01*
X154285029Y-50304101D01*
X154175212Y-50327798D01*
X154175207Y-50327800D01*
X154153178Y-50340203D01*
X154153157Y-50340217D01*
X152114669Y-51821266D01*
X152114664Y-51821270D01*
X152096050Y-51838396D01*
X152039577Y-51935520D01*
X152020205Y-52057830D01*
X152017075Y-52057334D01*
X152003974Y-52106969D01*
X151952450Y-52154160D01*
X151883591Y-52166003D01*
X151819261Y-52138739D01*
X151797350Y-52115456D01*
X151795173Y-52112444D01*
X149326087Y-48695792D01*
X149304118Y-48642560D01*
X149286489Y-48531250D01*
X149271222Y-48501287D01*
X149240690Y-48441364D01*
X148760483Y-47780417D01*
X148689150Y-47709084D01*
X148637157Y-47682592D01*
X148579968Y-47653452D01*
X148551187Y-47633178D01*
X147310280Y-46462877D01*
X147224971Y-46382422D01*
X150310827Y-46382422D01*
X150310827Y-46382428D01*
X150331911Y-46515549D01*
X150377711Y-46605437D01*
X150377713Y-46605440D01*
X150777326Y-47155460D01*
X150857917Y-47266383D01*
X150929250Y-47337716D01*
X151049344Y-47398907D01*
X151099063Y-47406781D01*
X151142701Y-47422473D01*
X155006085Y-49703266D01*
X155043363Y-49737160D01*
X156013243Y-51072084D01*
X156028204Y-51099287D01*
X156036458Y-51120117D01*
X156036459Y-51120119D01*
X159638159Y-55966851D01*
X159646096Y-55981345D01*
X159647006Y-55980833D01*
X159651583Y-55988961D01*
X159663994Y-56011002D01*
X160264753Y-56837876D01*
X160903217Y-57716646D01*
X160923502Y-57760704D01*
X162003273Y-62278111D01*
X162003492Y-62334831D01*
X161971595Y-62472994D01*
X161971594Y-62473000D01*
X161983341Y-62607265D01*
X161983342Y-62607272D01*
X162022756Y-62700124D01*
X162410441Y-63320549D01*
X162427359Y-63364499D01*
X166788990Y-87833991D01*
X166786733Y-87877900D01*
X166787931Y-87878048D01*
X166786741Y-87887731D01*
X166786741Y-87887734D01*
X166774447Y-87987862D01*
X166774447Y-87987865D01*
X166774447Y-87987867D01*
X166802958Y-88804334D01*
X166802959Y-88804339D01*
X166822207Y-88903365D01*
X166822207Y-88903366D01*
X166822208Y-88903367D01*
X166847519Y-88949030D01*
X166863066Y-89008799D01*
X166876197Y-93709888D01*
X166876197Y-94527956D01*
X166876199Y-94527977D01*
X166877733Y-94541209D01*
X166878558Y-94555142D01*
X166894195Y-100153449D01*
X166883632Y-100203875D01*
X166879116Y-100214103D01*
X166879115Y-100214106D01*
X166876200Y-100239231D01*
X166876200Y-102528956D01*
X166876202Y-102528982D01*
X166879113Y-102554085D01*
X166879114Y-102554089D01*
X166890548Y-102579985D01*
X166901112Y-102629722D01*
X166911244Y-106256852D01*
X166897729Y-106313492D01*
X166879290Y-106349680D01*
X166879289Y-106349684D01*
X166863509Y-106449315D01*
X166863509Y-107266302D01*
X166879288Y-107365930D01*
X166879289Y-107365933D01*
X166879290Y-107365935D01*
X166940481Y-107486029D01*
X166940482Y-107486030D01*
X166940485Y-107486034D01*
X167035783Y-107581332D01*
X167035787Y-107581335D01*
X167035789Y-107581337D01*
X167155883Y-107642528D01*
X167155885Y-107642528D01*
X167155887Y-107642529D01*
X167255516Y-107658309D01*
X167255521Y-107658309D01*
X167772502Y-107658309D01*
X167872130Y-107642529D01*
X167872130Y-107642528D01*
X167872135Y-107642528D01*
X167992229Y-107581337D01*
X168087537Y-107486029D01*
X168148728Y-107365935D01*
X168148732Y-107365912D01*
X168164509Y-107266302D01*
X168164509Y-106449315D01*
X168148729Y-106349685D01*
X168125740Y-106304567D01*
X168112225Y-106248618D01*
X168111735Y-106073072D01*
X168101066Y-102253721D01*
X168120564Y-102186629D01*
X168173240Y-102140727D01*
X168242370Y-102130590D01*
X168306007Y-102159438D01*
X168338499Y-102203287D01*
X168344494Y-102216865D01*
X168423935Y-102296306D01*
X168526709Y-102341685D01*
X168551835Y-102344600D01*
X171071564Y-102344599D01*
X171071579Y-102344597D01*
X171071582Y-102344597D01*
X171096687Y-102341686D01*
X171096688Y-102341685D01*
X171096691Y-102341685D01*
X171199465Y-102296306D01*
X171278906Y-102216865D01*
X171324285Y-102114091D01*
X171327200Y-102088965D01*
X171327199Y-100679236D01*
X171325234Y-100662290D01*
X171324286Y-100654112D01*
X171324285Y-100654110D01*
X171324285Y-100654109D01*
X171278906Y-100551335D01*
X171199465Y-100471894D01*
X171199463Y-100471893D01*
X171096692Y-100426515D01*
X171071565Y-100423600D01*
X168551843Y-100423600D01*
X168551817Y-100423602D01*
X168526712Y-100426513D01*
X168526708Y-100426515D01*
X168423935Y-100471893D01*
X168344494Y-100551334D01*
X168333673Y-100575841D01*
X168288585Y-100629216D01*
X168221799Y-100649741D01*
X168154517Y-100630901D01*
X168108102Y-100578676D01*
X168096240Y-100526100D01*
X168078575Y-94201790D01*
X168098073Y-94134698D01*
X168150749Y-94088796D01*
X168219879Y-94078659D01*
X168283516Y-94107507D01*
X168316009Y-94151360D01*
X168321542Y-94163891D01*
X168344491Y-94215865D01*
X168423932Y-94295306D01*
X168526706Y-94340685D01*
X168551832Y-94343600D01*
X171071561Y-94343599D01*
X171071576Y-94343597D01*
X171071579Y-94343597D01*
X171096684Y-94340686D01*
X171096685Y-94340685D01*
X171096688Y-94340685D01*
X171199462Y-94295306D01*
X171278903Y-94215865D01*
X171324282Y-94113091D01*
X171327197Y-94087965D01*
X171327196Y-92678236D01*
X171326396Y-92671339D01*
X171324283Y-92653112D01*
X171324282Y-92653110D01*
X171324282Y-92653109D01*
X171278903Y-92550335D01*
X171199462Y-92470894D01*
X171199460Y-92470893D01*
X171096689Y-92425515D01*
X171071562Y-92422600D01*
X168551840Y-92422600D01*
X168551814Y-92422602D01*
X168526709Y-92425513D01*
X168526705Y-92425515D01*
X168423932Y-92470893D01*
X168344491Y-92550334D01*
X168314630Y-92617963D01*
X168269544Y-92671339D01*
X168202757Y-92691866D01*
X168135475Y-92673027D01*
X168089059Y-92620804D01*
X168077196Y-92567876D01*
X168077196Y-92238243D01*
X168077196Y-92238236D01*
X168075997Y-92227902D01*
X168073796Y-92208916D01*
X168072970Y-92194977D01*
X168072923Y-92178233D01*
X168063891Y-88944758D01*
X168075508Y-88892011D01*
X168090873Y-88859064D01*
X168103167Y-88758936D01*
X168074655Y-87942458D01*
X168055406Y-87843431D01*
X168046444Y-87827264D01*
X167999371Y-87742342D01*
X167985748Y-87703988D01*
X163591925Y-63053895D01*
X163593179Y-63004242D01*
X163610165Y-62930670D01*
X163603468Y-62854126D01*
X163598418Y-62796400D01*
X163598417Y-62796393D01*
X163559003Y-62703541D01*
X163332877Y-62341664D01*
X163214729Y-62152587D01*
X163199286Y-62115708D01*
X162033469Y-57238307D01*
X161958162Y-57099278D01*
X161882223Y-57019096D01*
X161871944Y-57006723D01*
X161762795Y-56856493D01*
X161242380Y-56140202D01*
X161227420Y-56112999D01*
X161209543Y-56067885D01*
X161209540Y-56067879D01*
X161173317Y-56019135D01*
X159385938Y-53613895D01*
X157257310Y-50749445D01*
X157249670Y-50735498D01*
X157248686Y-50736053D01*
X157244109Y-50727925D01*
X157244109Y-50727923D01*
X157231698Y-50705882D01*
X157177217Y-50630896D01*
X156435439Y-49609927D01*
X156150600Y-49217879D01*
X156130838Y-49175925D01*
X156111401Y-49100458D01*
X156111399Y-49100453D01*
X156033675Y-48962766D01*
X156033674Y-48962764D01*
X156033671Y-48962761D01*
X156033669Y-48962758D01*
X155922959Y-48849879D01*
X151906363Y-46478636D01*
X151869084Y-46444741D01*
X151572384Y-46036370D01*
X151430241Y-45840727D01*
X151358908Y-45769394D01*
X151238814Y-45708203D01*
X151238812Y-45708202D01*
X151238809Y-45708201D01*
X151105690Y-45687118D01*
X151105686Y-45687118D01*
X150972564Y-45708202D01*
X150882676Y-45754002D01*
X150882673Y-45754004D01*
X150464436Y-46057871D01*
X150393104Y-46129203D01*
X150331910Y-46249303D01*
X150310827Y-46382422D01*
X147224971Y-46382422D01*
X130983990Y-31065538D01*
X130954924Y-31023777D01*
X130930026Y-30965120D01*
X130930024Y-30965116D01*
X130841597Y-30863393D01*
X130841593Y-30863390D01*
X130755132Y-30811439D01*
X130755123Y-30811434D01*
X130184242Y-30580783D01*
X130098539Y-30546157D01*
X130065781Y-30526589D01*
X127672213Y-28539203D01*
X126149372Y-27274783D01*
X126124994Y-27244298D01*
X126124900Y-27244372D01*
X126120954Y-27239246D01*
X126118097Y-27235673D01*
X126117891Y-27235268D01*
X126034170Y-27160351D01*
X126011175Y-27149814D01*
X125970494Y-27136595D01*
X125897975Y-27113032D01*
X125897975Y-27113031D01*
X125891063Y-27110785D01*
X125883735Y-27107415D01*
X125877298Y-27106313D01*
X125868751Y-27103537D01*
X125868750Y-27103536D01*
X125868747Y-27103536D01*
X125728287Y-27057898D01*
X125135149Y-26865176D01*
X124409818Y-26629502D01*
X124380067Y-26615218D01*
X124367975Y-26607276D01*
X124367971Y-26607274D01*
X124367970Y-26607274D01*
X117918659Y-24474840D01*
X117910676Y-24473318D01*
X117910736Y-24472998D01*
X117890176Y-24469131D01*
X116725399Y-24090673D01*
X116680164Y-24064366D01*
X116652804Y-24039416D01*
X116652801Y-24039414D01*
X116512379Y-23966746D01*
X116512381Y-23966746D01*
X116357929Y-23932897D01*
X116263493Y-23937248D01*
X116263492Y-23937248D01*
X116248263Y-23937949D01*
X116242136Y-23936716D01*
X116215029Y-23939479D01*
X116211574Y-23939639D01*
X116211571Y-23939640D01*
X111136717Y-24173505D01*
X111090639Y-24166880D01*
X110869318Y-24090673D01*
X110624141Y-24006251D01*
X110624129Y-24006248D01*
X110524786Y-23988731D01*
X110391314Y-24007489D01*
X110391307Y-24007491D01*
X110270170Y-24066574D01*
X110270164Y-24066578D01*
X110173210Y-24160206D01*
X110125855Y-24249267D01*
X110125848Y-24249284D01*
X109957541Y-24738082D01*
X109957538Y-24738093D01*
X109940021Y-24837433D01*
X90063166Y-24837433D01*
X84833271Y-24222785D01*
X84833261Y-24222785D01*
X84820199Y-24221250D01*
X84745489Y-24206728D01*
X84645361Y-24219023D01*
X84624708Y-24224945D01*
X84608786Y-24227266D01*
X84608782Y-24227267D01*
X84569514Y-24232994D01*
X84569512Y-24232995D01*
X84522707Y-24253148D01*
X84507849Y-24258452D01*
X84018481Y-24398776D01*
X83972098Y-24402978D01*
X79457027Y-23956434D01*
X79396425Y-23966413D01*
X79396426Y-23966414D01*
X79389452Y-23967562D01*
X79385836Y-23968158D01*
X79383082Y-23967878D01*
X79363036Y-23971913D01*
X79360868Y-23972269D01*
X79360868Y-23972270D01*
X79301015Y-23982127D01*
X79234047Y-24012436D01*
X79221237Y-24017398D01*
X77180634Y-24680431D01*
X77180615Y-24680439D01*
X77149147Y-24694857D01*
X77148821Y-24694146D01*
X77133121Y-24701617D01*
X71764078Y-26415514D01*
X71750845Y-26418948D01*
X71747129Y-26419696D01*
X71722332Y-26424688D01*
X71722328Y-26424689D01*
X71722324Y-26424690D01*
X71722322Y-26424690D01*
X70994251Y-26661255D01*
X70993641Y-26661451D01*
X70455680Y-26833178D01*
X70448332Y-26836637D01*
X70448096Y-26836136D01*
X70430787Y-26844336D01*
X69773511Y-27057898D01*
X69758734Y-27061712D01*
X69632980Y-27086028D01*
X69490811Y-27155194D01*
X69490806Y-27155197D01*
X69490803Y-27155199D01*
X69490802Y-27155200D01*
X67843703Y-28584140D01*
X65737341Y-30411512D01*
X65692337Y-30436428D01*
X65459365Y-30507656D01*
X65459355Y-30507660D01*
X65368693Y-30551879D01*
X65368683Y-30551886D01*
X65271734Y-30645508D01*
X65208453Y-30764522D01*
X65185049Y-30897254D01*
X53332918Y-30897254D01*
X53989064Y-30458832D01*
X53990107Y-30458144D01*
X54275862Y-30272649D01*
X54276282Y-30272378D01*
X55470910Y-29511316D01*
X55471950Y-29510665D01*
X55750018Y-29338872D01*
X55750433Y-29338617D01*
X56973647Y-28596353D01*
X56974758Y-28595690D01*
X57241580Y-28438977D01*
X58496627Y-27714374D01*
X58497934Y-27713633D01*
X58748750Y-27573767D01*
X60039153Y-26865828D01*
X60040364Y-26865176D01*
X60269846Y-26743852D01*
X60270157Y-26743688D01*
X61600151Y-26051337D01*
X61601651Y-26050570D01*
X61803072Y-25949777D01*
X63179321Y-25271087D01*
X63180795Y-25270375D01*
X63345412Y-25192552D01*
X64775389Y-24525742D01*
X64777120Y-24524953D01*
X64893410Y-24473124D01*
X66388046Y-23815469D01*
X66389713Y-23814753D01*
X66442060Y-23792812D01*
X68010258Y-23143244D01*
X68012660Y-23142279D01*
X69636866Y-22510660D01*
X69639275Y-22509753D01*
X71276843Y-21913728D01*
X71279382Y-21912836D01*
X71294106Y-21907838D01*
X72929539Y-21352682D01*
X72931953Y-21351892D01*
X74594074Y-20827827D01*
X74596494Y-20827093D01*
X76269520Y-20339451D01*
X76272099Y-20338729D01*
X77955439Y-19887679D01*
X77957907Y-19887047D01*
X79650608Y-19472846D01*
X79653142Y-19472255D01*
X81354628Y-19095044D01*
X81357085Y-19094528D01*
X83066283Y-18754547D01*
X83068846Y-18754066D01*
X84785053Y-18451453D01*
X84787600Y-18451032D01*
X86510042Y-18185923D01*
X86512609Y-18185556D01*
X88240320Y-17958099D01*
X88242983Y-17957778D01*
X89975256Y-17768063D01*
X89977913Y-17767801D01*
X91713889Y-17615924D01*
X91716485Y-17615724D01*
X93439739Y-17502776D01*
X93459579Y-17501555D01*
X93461573Y-17501450D01*
X95121114Y-17428993D01*
X95220108Y-17425119D01*
X95222070Y-17425059D01*
X96821463Y-17390161D01*
X96981509Y-17387477D01*
X96983587Y-17387460D01*
X98534970Y-17387460D01*
X98535662Y-17387462D01*
G37*
%TD.AperFunction*%
%TA.AperFunction,Conductor*%
G36*
X93806006Y-162345425D02*
G01*
X93849497Y-162357078D01*
X93879403Y-162369465D01*
X93918396Y-162391977D01*
X93944076Y-162411683D01*
X93975913Y-162443520D01*
X93995619Y-162469201D01*
X94027008Y-162523568D01*
X94033603Y-162536741D01*
X94034662Y-162539214D01*
X94037055Y-162544139D01*
X94055173Y-162581435D01*
X94057681Y-162586424D01*
X94085854Y-162619616D01*
X94115897Y-162655012D01*
X94117488Y-162658593D01*
X94120625Y-162660941D01*
X94131562Y-162690262D01*
X94144271Y-162718861D01*
X94143673Y-162722733D01*
X94145043Y-162726404D01*
X94138391Y-162756982D01*
X94133621Y-162787914D01*
X94130784Y-162791955D01*
X94130192Y-162794678D01*
X94109042Y-162822932D01*
X94060511Y-162871465D01*
X94060510Y-162871467D01*
X93999533Y-162932443D01*
X93956419Y-163007121D01*
X93950473Y-163029311D01*
X93936325Y-163082115D01*
X93934100Y-163090417D01*
X93934100Y-163572544D01*
X93914415Y-163639583D01*
X93861611Y-163685338D01*
X93825657Y-163695564D01*
X93731600Y-163707458D01*
X93731590Y-163707460D01*
X93665978Y-163731424D01*
X93665960Y-163731432D01*
X93614429Y-163759117D01*
X93614256Y-163759227D01*
X93613946Y-163759376D01*
X93610534Y-163761210D01*
X93610455Y-163761064D01*
X93588904Y-163771486D01*
X93570724Y-163777848D01*
X93570723Y-163777848D01*
X93570720Y-163777850D01*
X93570714Y-163777852D01*
X93551312Y-163784641D01*
X93510357Y-163791600D01*
X92519241Y-163791600D01*
X92478286Y-163784641D01*
X92441661Y-163771825D01*
X92440663Y-163771297D01*
X92440080Y-163771260D01*
X92408988Y-163754556D01*
X92379640Y-163732897D01*
X92353504Y-163706762D01*
X92331836Y-163677402D01*
X92314570Y-163644732D01*
X92301758Y-163608116D01*
X92294800Y-163567163D01*
X92294800Y-163026037D01*
X92295494Y-163021948D01*
X92294961Y-163019716D01*
X92301756Y-162985088D01*
X92314573Y-162948461D01*
X92331839Y-162915793D01*
X92353505Y-162886436D01*
X92379634Y-162860306D01*
X92408994Y-162838637D01*
X92441668Y-162821370D01*
X92469650Y-162811578D01*
X92478283Y-162808558D01*
X92519235Y-162801600D01*
X93032325Y-162801600D01*
X93034866Y-162801463D01*
X93054293Y-162800422D01*
X93054300Y-162800421D01*
X93054304Y-162800421D01*
X93080651Y-162797588D01*
X93157168Y-162773629D01*
X93218491Y-162740144D01*
X93265316Y-162705091D01*
X93558724Y-162411680D01*
X93584402Y-162391978D01*
X93584406Y-162391976D01*
X93609773Y-162377330D01*
X93623396Y-162369465D01*
X93653305Y-162357077D01*
X93696794Y-162345425D01*
X93728885Y-162341200D01*
X93773913Y-162341200D01*
X93806006Y-162345425D01*
G37*
%TD.AperFunction*%
%TA.AperFunction,Conductor*%
G36*
X107385139Y-159055185D02*
G01*
X107430894Y-159107989D01*
X107442100Y-159159500D01*
X107442100Y-160041669D01*
X107444953Y-160072099D01*
X107444953Y-160072101D01*
X107489806Y-160200280D01*
X107489807Y-160200282D01*
X107512870Y-160231531D01*
X107536841Y-160297160D01*
X107537100Y-160305165D01*
X107537100Y-160769860D01*
X107517415Y-160836899D01*
X107512870Y-160843493D01*
X107484809Y-160881513D01*
X107484806Y-160881519D01*
X107439953Y-161009698D01*
X107439953Y-161009700D01*
X107437100Y-161040130D01*
X107437100Y-162098669D01*
X107439953Y-162129099D01*
X107439953Y-162129101D01*
X107476572Y-162233749D01*
X107484807Y-162257282D01*
X107565450Y-162366550D01*
X107580057Y-162377330D01*
X107622307Y-162432977D01*
X107627766Y-162502634D01*
X107594698Y-162564183D01*
X107533604Y-162598084D01*
X107506423Y-162601100D01*
X105233284Y-162601100D01*
X105166245Y-162581415D01*
X105120490Y-162528611D01*
X105109285Y-162477483D01*
X105107881Y-162022590D01*
X105107881Y-162022583D01*
X105103118Y-161979225D01*
X105091913Y-161928097D01*
X105089493Y-161918227D01*
X105046483Y-161837515D01*
X105000728Y-161784711D01*
X105000722Y-161784704D01*
X104983140Y-161766760D01*
X104983139Y-161766759D01*
X104983137Y-161766757D01*
X104983135Y-161766756D01*
X104983133Y-161766754D01*
X104903323Y-161722111D01*
X104903318Y-161722109D01*
X104836286Y-161702426D01*
X104836282Y-161702425D01*
X104836281Y-161702425D01*
X104778383Y-161694100D01*
X103298800Y-161694100D01*
X103298792Y-161694100D01*
X103255113Y-161698797D01*
X103203625Y-161709997D01*
X103193427Y-161712490D01*
X103193424Y-161712491D01*
X103112716Y-161755499D01*
X103112713Y-161755501D01*
X103059904Y-161801260D01*
X103041960Y-161818842D01*
X103041954Y-161818849D01*
X102997311Y-161898659D01*
X102997309Y-161898664D01*
X102977626Y-161965696D01*
X102977625Y-161965701D01*
X102977625Y-161965702D01*
X102969446Y-162022590D01*
X102969300Y-162023603D01*
X102969300Y-162111011D01*
X102949615Y-162178050D01*
X102896811Y-162223805D01*
X102827653Y-162233749D01*
X102764097Y-162204724D01*
X102728260Y-162151969D01*
X102724393Y-162140918D01*
X102643750Y-162031650D01*
X102534482Y-161951007D01*
X102534480Y-161951006D01*
X102406300Y-161906153D01*
X102375870Y-161903300D01*
X102375866Y-161903300D01*
X102273950Y-161903300D01*
X102269820Y-161902087D01*
X102265619Y-161903020D01*
X102236584Y-161892328D01*
X102206911Y-161883615D01*
X102204093Y-161880363D01*
X102200054Y-161878876D01*
X102181409Y-161854184D01*
X102161156Y-161830811D01*
X102160543Y-161826551D01*
X102157950Y-161823117D01*
X102155614Y-161792271D01*
X102151212Y-161761653D01*
X102152999Y-161757738D01*
X102152675Y-161753447D01*
X102167386Y-161726236D01*
X102180237Y-161698097D01*
X102184437Y-161694697D01*
X102185904Y-161691985D01*
X102196950Y-161684570D01*
X102214070Y-161670716D01*
X102225103Y-161664631D01*
X102229785Y-161663377D01*
X102279904Y-161634439D01*
X102366716Y-161584320D01*
X102478520Y-161472516D01*
X102478520Y-161472514D01*
X102488728Y-161462307D01*
X102488729Y-161462304D01*
X104379216Y-159571819D01*
X104440539Y-159538334D01*
X104466897Y-159535500D01*
X105721070Y-159535500D01*
X105751499Y-159532646D01*
X105751501Y-159532646D01*
X105815590Y-159510219D01*
X105879682Y-159487793D01*
X105988950Y-159407150D01*
X106069593Y-159297882D01*
X106095293Y-159224435D01*
X106114446Y-159169701D01*
X106114447Y-159169695D01*
X106116489Y-159147921D01*
X106142347Y-159083013D01*
X106199193Y-159042388D01*
X106239947Y-159035500D01*
X107318100Y-159035500D01*
X107385139Y-159055185D01*
G37*
%TD.AperFunction*%
%TD*%
%TA.AperFunction,Conductor*%
%TO.N,VCC*%
G36*
X95777239Y-156636085D02*
G01*
X95822994Y-156688889D01*
X95834200Y-156740400D01*
X95834200Y-160842300D01*
X95814515Y-160909339D01*
X95761711Y-160955094D01*
X95710200Y-160966300D01*
X95636432Y-160966300D01*
X95632717Y-160966244D01*
X95618816Y-160965827D01*
X95613116Y-160964300D01*
X95567853Y-160964300D01*
X95565985Y-160964244D01*
X95534470Y-160953955D01*
X95502661Y-160944615D01*
X95501398Y-160943158D01*
X95499566Y-160942560D01*
X95478609Y-160916858D01*
X95456906Y-160891811D01*
X95456439Y-160889668D01*
X95455413Y-160888409D01*
X95454594Y-160881185D01*
X95445700Y-160840300D01*
X95445700Y-160817710D01*
X95445700Y-160817708D01*
X95411592Y-160690414D01*
X95345700Y-160576286D01*
X95252514Y-160483100D01*
X95195450Y-160450154D01*
X95138387Y-160417208D01*
X95074739Y-160400154D01*
X95011092Y-160383100D01*
X94879308Y-160383100D01*
X94752012Y-160417208D01*
X94637886Y-160483100D01*
X94637883Y-160483102D01*
X94544702Y-160576283D01*
X94544700Y-160576286D01*
X94478808Y-160690412D01*
X94444700Y-160817708D01*
X94444700Y-160949491D01*
X94478808Y-161076787D01*
X94511754Y-161133850D01*
X94544700Y-161190914D01*
X94637886Y-161284100D01*
X94752014Y-161349992D01*
X94879308Y-161384100D01*
X94931183Y-161384100D01*
X94998222Y-161403785D01*
X95018864Y-161420419D01*
X95091335Y-161492890D01*
X95152310Y-161553865D01*
X95226990Y-161596981D01*
X95229961Y-161597777D01*
X95241769Y-161605667D01*
X95300252Y-161617300D01*
X95302820Y-161617300D01*
X95310284Y-161619300D01*
X95310609Y-161619300D01*
X95613113Y-161619300D01*
X95613116Y-161619300D01*
X95613118Y-161619299D01*
X95620244Y-161618361D01*
X95636432Y-161617300D01*
X95710200Y-161617300D01*
X95777239Y-161636985D01*
X95822994Y-161689789D01*
X95834200Y-161741300D01*
X95834200Y-161842300D01*
X95814515Y-161909339D01*
X95761711Y-161955094D01*
X95710200Y-161966300D01*
X95636432Y-161966300D01*
X95620244Y-161965239D01*
X95613118Y-161964300D01*
X95613116Y-161964300D01*
X95146448Y-161964300D01*
X95060216Y-161964300D01*
X95004686Y-161979179D01*
X94976921Y-161986619D01*
X94902243Y-162029734D01*
X94902240Y-162029736D01*
X94426965Y-162505011D01*
X94365642Y-162538496D01*
X94295950Y-162533512D01*
X94240017Y-162491640D01*
X94219510Y-162449426D01*
X94217792Y-162443014D01*
X94151900Y-162328885D01*
X94058715Y-162235700D01*
X94058714Y-162235699D01*
X94058711Y-162235697D01*
X93944588Y-162169809D01*
X93944587Y-162169808D01*
X93944586Y-162169808D01*
X93817293Y-162135700D01*
X93685508Y-162135700D01*
X93558212Y-162169808D01*
X93444086Y-162235700D01*
X93444083Y-162235702D01*
X93120005Y-162559781D01*
X93058682Y-162593266D01*
X93032324Y-162596100D01*
X92485530Y-162596100D01*
X92455100Y-162598953D01*
X92455098Y-162598953D01*
X92326919Y-162643806D01*
X92326917Y-162643807D01*
X92217650Y-162724450D01*
X92137007Y-162833717D01*
X92137006Y-162833719D01*
X92092153Y-162961898D01*
X92092153Y-162961900D01*
X92089300Y-162992330D01*
X92089300Y-163600869D01*
X92092153Y-163631299D01*
X92092153Y-163631301D01*
X92137006Y-163759480D01*
X92137007Y-163759482D01*
X92217650Y-163868750D01*
X92326918Y-163949393D01*
X92369645Y-163964344D01*
X92455099Y-163994246D01*
X92485530Y-163997100D01*
X92485534Y-163997100D01*
X93544070Y-163997100D01*
X93574499Y-163994246D01*
X93574501Y-163994246D01*
X93638590Y-163971819D01*
X93702682Y-163949393D01*
X93736467Y-163924458D01*
X93802095Y-163900488D01*
X93870266Y-163915803D01*
X93919334Y-163965544D01*
X93934100Y-164024229D01*
X93934100Y-165840700D01*
X93914415Y-165907739D01*
X93861611Y-165953494D01*
X93810100Y-165964700D01*
X93780530Y-165964700D01*
X93750100Y-165967553D01*
X93750098Y-165967553D01*
X93621919Y-166012406D01*
X93621917Y-166012407D01*
X93512650Y-166093050D01*
X93432007Y-166202317D01*
X93432006Y-166202319D01*
X93387153Y-166330498D01*
X93387153Y-166330500D01*
X93384300Y-166360930D01*
X93384300Y-166785235D01*
X93364615Y-166852274D01*
X93347981Y-166872916D01*
X92515616Y-167705281D01*
X92454293Y-167738766D01*
X92427935Y-167741600D01*
X91513200Y-167741600D01*
X91446161Y-167721915D01*
X91400406Y-167669111D01*
X91389200Y-167617600D01*
X91389200Y-165557200D01*
X87347600Y-165557200D01*
X87280561Y-165537515D01*
X87234806Y-165484711D01*
X87223600Y-165433200D01*
X87223600Y-162763200D01*
X83232800Y-162763200D01*
X83165761Y-162743515D01*
X83120006Y-162690711D01*
X83108800Y-162639200D01*
X83108800Y-159940800D01*
X83128485Y-159873761D01*
X83181289Y-159828006D01*
X83232800Y-159816800D01*
X91846400Y-159816800D01*
X91846400Y-158158700D01*
X91848950Y-158150014D01*
X91847662Y-158141053D01*
X91858640Y-158117012D01*
X91866085Y-158091661D01*
X91872925Y-158085733D01*
X91876687Y-158077497D01*
X91898921Y-158063207D01*
X91918889Y-158045906D01*
X91929403Y-158043618D01*
X91935465Y-158039723D01*
X91970400Y-158034700D01*
X92215260Y-158034700D01*
X92282299Y-158054385D01*
X92288893Y-158058930D01*
X92326913Y-158086990D01*
X92326915Y-158086991D01*
X92326918Y-158086993D01*
X92366385Y-158100803D01*
X92455099Y-158131846D01*
X92485530Y-158134700D01*
X92485534Y-158134700D01*
X93544070Y-158134700D01*
X93574499Y-158131846D01*
X93574501Y-158131846D01*
X93638590Y-158109419D01*
X93702682Y-158086993D01*
X93811950Y-158006350D01*
X93892593Y-157897082D01*
X93926551Y-157800036D01*
X93937446Y-157768901D01*
X93937446Y-157768899D01*
X93940300Y-157738469D01*
X93940300Y-157129930D01*
X93937446Y-157099500D01*
X93937446Y-157099498D01*
X93892593Y-156971319D01*
X93892592Y-156971317D01*
X93880067Y-156954346D01*
X93811950Y-156862050D01*
X93782302Y-156840169D01*
X93740053Y-156784523D01*
X93734594Y-156714866D01*
X93767662Y-156653317D01*
X93828756Y-156619416D01*
X93855937Y-156616400D01*
X95710200Y-156616400D01*
X95777239Y-156636085D01*
G37*
%TD.AperFunction*%
%TD*%
%TA.AperFunction,Conductor*%
%TO.N,/LED+*%
G36*
X130647226Y-158313459D02*
G01*
X130673646Y-158356334D01*
X131325141Y-160153562D01*
X131329482Y-160223297D01*
X131295432Y-160284308D01*
X131247004Y-160313712D01*
X118904859Y-164338000D01*
X110794098Y-166982600D01*
X110432536Y-167100491D01*
X110394096Y-167106600D01*
X105330800Y-167106600D01*
X105263761Y-167086915D01*
X105218006Y-167034111D01*
X105206800Y-166982600D01*
X105206800Y-164338000D01*
X103298800Y-164338000D01*
X103231761Y-164318315D01*
X103186006Y-164265511D01*
X103174800Y-164214000D01*
X103174800Y-162023600D01*
X103194485Y-161956561D01*
X103247289Y-161910806D01*
X103298800Y-161899600D01*
X104778383Y-161899600D01*
X104845422Y-161919285D01*
X104891177Y-161972089D01*
X104902382Y-162023217D01*
X104904799Y-162806598D01*
X104904800Y-162806600D01*
X109423200Y-162806600D01*
X109423200Y-158848600D01*
X109442885Y-158781561D01*
X109495689Y-158735806D01*
X109547200Y-158724600D01*
X110952421Y-158724600D01*
X111019460Y-158744285D01*
X111032723Y-158754114D01*
X111462310Y-159119264D01*
X111500640Y-159177677D01*
X111506000Y-159213741D01*
X111506000Y-160858200D01*
X117957600Y-162560000D01*
X130517084Y-158281217D01*
X130586887Y-158278232D01*
X130647226Y-158313459D01*
G37*
%TD.AperFunction*%
%TD*%
M02*
