%TF.GenerationSoftware,KiCad,Pcbnew,9.0.6*%
%TF.CreationDate,2026-02-07T16:05:16+08:00*%
%TF.ProjectId,Ledx10,4c656478-3130-42e6-9b69-6361645f7063,rev?*%
%TF.SameCoordinates,Original*%
%TF.FileFunction,Copper,L2,Bot*%
%TF.FilePolarity,Positive*%
%FSLAX46Y46*%
G04 Gerber Fmt 4.6, Leading zero omitted, Abs format (unit mm)*
G04 Created by KiCad (PCBNEW 9.0.6) date 2026-02-07 16:05:16*
%MOMM*%
%LPD*%
G01*
G04 APERTURE LIST*
G04 Aperture macros list*
%AMRoundRect*
0 Rectangle with rounded corners*
0 $1 Rounding radius*
0 $2 $3 $4 $5 $6 $7 $8 $9 X,Y pos of 4 corners*
0 Add a 4 corners polygon primitive as box body*
4,1,4,$2,$3,$4,$5,$6,$7,$8,$9,$2,$3,0*
0 Add four circle primitives for the rounded corners*
1,1,$1+$1,$2,$3*
1,1,$1+$1,$4,$5*
1,1,$1+$1,$6,$7*
1,1,$1+$1,$8,$9*
0 Add four rect primitives between the rounded corners*
20,1,$1+$1,$2,$3,$4,$5,0*
20,1,$1+$1,$4,$5,$6,$7,0*
20,1,$1+$1,$6,$7,$8,$9,0*
20,1,$1+$1,$8,$9,$2,$3,0*%
G04 Aperture macros list end*
%TA.AperFunction,ComponentPad*%
%ADD10RoundRect,0.500000X-0.750000X-1.500000X0.750000X-1.500000X0.750000X1.500000X-0.750000X1.500000X0*%
%TD*%
%TA.AperFunction,ViaPad*%
%ADD11C,0.600000*%
%TD*%
%TA.AperFunction,Conductor*%
%ADD12C,0.300000*%
%TD*%
G04 APERTURE END LIST*
D10*
%TO.P,J1,1,Pin_1*%
%TO.N,Net-(D32-A)*%
X95840800Y-174853600D03*
%TO.P,J1,2,Pin_2*%
%TO.N,GND*%
X99840800Y-174853600D03*
%TD*%
D11*
%TO.N,VCC*%
X93472000Y-164075400D03*
X92989400Y-158750000D03*
X94259400Y-164084000D03*
X92176600Y-158038800D03*
X92989400Y-159486600D03*
X95224600Y-164775600D03*
X92989400Y-158038800D03*
X92176600Y-158750000D03*
X92176600Y-159486600D03*
%TO.N,GND*%
X166827200Y-66344800D03*
X109347000Y-173710600D03*
X89230200Y-165684200D03*
X132943600Y-38455600D03*
X148920200Y-41935400D03*
X49250600Y-155168600D03*
X88620600Y-165684200D03*
X55499000Y-35991800D03*
X167436800Y-66344800D03*
X109347000Y-174320200D03*
X132943600Y-37846000D03*
X54889400Y-35991800D03*
X55499000Y-36601400D03*
X107492800Y-21463000D03*
X26898600Y-67183000D03*
X166446200Y-127127000D03*
X87934800Y-30810200D03*
X77800200Y-173532800D03*
X34467800Y-123240800D03*
X52933600Y-46964600D03*
X142646400Y-154406600D03*
X23241000Y-110083600D03*
X67081400Y-157810200D03*
%TO.N,Net-(D23-K)*%
X37693600Y-135763000D03*
%TO.N,GND*%
X77800200Y-172923200D03*
X30657800Y-83464400D03*
X97510600Y-165633400D03*
X27508200Y-67183000D03*
X142036800Y-153797000D03*
X87934800Y-30200600D03*
X48641000Y-155168600D03*
X164388800Y-84709000D03*
X164033200Y-112268000D03*
X97510600Y-165025600D03*
X78409800Y-172923200D03*
X30048200Y-83464400D03*
X48641000Y-154559000D03*
X164642800Y-112877600D03*
X97510600Y-164414200D03*
X34467800Y-123850400D03*
X49250600Y-154559000D03*
X109956600Y-174320200D03*
X109956600Y-173710600D03*
X30048200Y-84074000D03*
X166827200Y-66954400D03*
%TO.N,Net-(D23-K)*%
X41151201Y-143116994D03*
%TO.N,GND*%
X52324000Y-46355000D03*
X142646400Y-153797000D03*
%TO.N,Net-(D23-K)*%
X37529681Y-136747335D03*
%TO.N,GND*%
X166446200Y-127736600D03*
X67081400Y-158419800D03*
%TO.N,Net-(D23-K)*%
X42127069Y-143273243D03*
X36553813Y-136591086D03*
%TO.N,GND*%
X89230200Y-166293800D03*
X167055800Y-127736600D03*
X88544400Y-30200600D03*
%TO.N,Net-(D23-K)*%
X41715619Y-142706933D03*
X37118231Y-136181025D03*
%TO.N,GND*%
X164388800Y-84099400D03*
X106883200Y-21463000D03*
X164642800Y-112268000D03*
X22631400Y-110083600D03*
X148920200Y-42545000D03*
X66471800Y-157810200D03*
X164033200Y-112877600D03*
X27508200Y-67792600D03*
X149529800Y-42545000D03*
%TO.N,Net-(D23-K)*%
X41529000Y-143637000D03*
%TO.N,GND*%
X167436800Y-66954400D03*
X149529800Y-41935400D03*
X52324000Y-46964600D03*
X88544400Y-30810200D03*
X132334000Y-38455600D03*
X22631400Y-110693200D03*
X23241000Y-110693200D03*
X66471800Y-158419800D03*
X52933600Y-46355000D03*
X107492800Y-22072600D03*
%TO.N,Net-(D23-K)*%
X38105051Y-136329304D03*
%TO.N,GND*%
X35077400Y-123850400D03*
X26898600Y-67792600D03*
%TO.N,Net-(D23-K)*%
X42702439Y-142855212D03*
X36931612Y-137111092D03*
%TO.N,GND*%
X30657800Y-84074000D03*
X35077400Y-123240800D03*
X142036800Y-154406600D03*
X163779200Y-84099400D03*
X88620600Y-166293800D03*
X78409800Y-173532800D03*
X167055800Y-127127000D03*
X163779200Y-84709000D03*
X106883200Y-22072600D03*
X132334000Y-37846000D03*
%TO.N,Net-(D23-K)*%
X42290988Y-142288908D03*
%TO.N,GND*%
X54889400Y-36601400D03*
%TO.N,/LED+*%
X115728741Y-166464665D03*
X116340037Y-166266053D03*
X116555618Y-166929561D03*
X123367895Y-164072615D03*
X116109646Y-167822250D03*
X123529033Y-164753824D03*
X116775384Y-167605939D03*
X123748800Y-165430200D03*
X123979191Y-163874003D03*
X115889879Y-167145874D03*
X124194772Y-164537511D03*
X124414538Y-165213889D03*
%TO.N,Net-(D26-K)*%
X71389612Y-164546505D03*
X71181678Y-165226627D03*
X79035012Y-167010305D03*
X78827078Y-167690427D03*
X79704426Y-167214970D03*
X79908400Y-166547800D03*
X71851084Y-165431284D03*
X79267884Y-166359872D03*
X79496484Y-167895084D03*
X71648338Y-163896072D03*
X72263000Y-164084000D03*
X72059026Y-164751170D03*
%TO.N,Net-(D20-K)*%
X26517600Y-101142800D03*
X25819939Y-101785552D03*
X25057950Y-93109948D03*
X25108750Y-101085548D03*
X26466795Y-93809956D03*
X25819942Y-101085548D03*
X26517595Y-101785556D03*
X25108751Y-101785543D03*
X25769139Y-93809952D03*
X26466800Y-93167200D03*
X25057951Y-93809943D03*
X25769142Y-93109948D03*
%TO.N,Net-(D16-K)*%
X42087241Y-51525413D03*
X37592000Y-59029600D03*
X36452227Y-58201493D03*
X37439041Y-58053213D03*
X41511873Y-51107386D03*
X37969806Y-58509604D03*
X42240200Y-52501800D03*
X41100427Y-51673693D03*
X37027586Y-58619526D03*
X41675786Y-52091726D03*
X36863673Y-57635186D03*
X42618006Y-51981804D03*
%TO.N,Net-(D19-A)*%
X99237800Y-164175600D03*
X98071200Y-160045400D03*
X98475800Y-158699200D03*
X98475800Y-157988000D03*
X97739200Y-157988000D03*
X97739200Y-158699200D03*
X98475800Y-159435800D03*
X97739200Y-159435800D03*
%TO.N,Net-(U1-COMP)*%
X99669450Y-167563950D03*
X99085400Y-165989000D03*
%TO.N,Net-(D13-K)*%
X71622665Y-30924905D03*
X71241757Y-29567324D03*
X72068639Y-30032223D03*
X72288400Y-30708600D03*
X79451200Y-26898600D03*
X78839903Y-27097215D03*
X79666785Y-27562114D03*
X71853054Y-29368709D03*
X79220811Y-28454796D03*
X71402896Y-30248529D03*
X79001042Y-27778420D03*
X79886546Y-28238491D03*
%TO.N,Net-(D10-K)*%
X115911439Y-27504510D03*
X124142811Y-30330710D03*
X116357400Y-28397200D03*
X123923031Y-31007081D03*
X115691664Y-28180889D03*
X123477070Y-30114391D03*
X123747110Y-29468573D03*
X124358400Y-29667200D03*
X116181479Y-26858692D03*
X116577180Y-27720829D03*
X116792769Y-27057319D03*
X123257295Y-30790770D03*
%TO.N,Net-(D10-A)*%
X152890009Y-52048366D03*
X154431165Y-51732600D03*
X159234234Y-58134541D03*
X158803269Y-57582941D03*
X153439770Y-51618851D03*
X158673800Y-58572400D03*
X158242839Y-58020792D03*
X157693078Y-58450307D03*
X153870731Y-52170459D03*
X154000200Y-51181000D03*
X153285725Y-52554866D03*
X158088794Y-58956807D03*
%TO.N,Net-(D4-K)*%
X170522044Y-93726013D03*
X169824391Y-93026005D03*
X169863339Y-101709352D03*
X169113200Y-93726000D03*
X169152151Y-101709343D03*
X170561000Y-101066600D03*
X170522049Y-93083257D03*
X169824388Y-93726009D03*
X169113199Y-93026005D03*
X169152150Y-101009348D03*
X170560995Y-101709356D03*
X169863342Y-101009348D03*
%TO.N,Net-(D1-K)*%
X152939817Y-142846286D03*
X158261787Y-136775323D03*
X158826200Y-137185400D03*
X154457400Y-143154400D03*
X154079595Y-143674397D03*
X159204005Y-136665403D03*
X157686422Y-136357289D03*
X153515182Y-143264320D03*
X158673241Y-136209012D03*
X153351275Y-142279977D03*
X158097880Y-135790980D03*
X153926636Y-142698009D03*
%TD*%
D12*
%TO.N,VCC*%
X94250800Y-164075400D02*
X94259400Y-164084000D01*
X93472000Y-164075400D02*
X94250800Y-164075400D01*
X94513400Y-164084000D02*
X95205000Y-164775600D01*
X95205000Y-164775600D02*
X95224600Y-164775600D01*
X94259400Y-164084000D02*
X94513400Y-164084000D01*
%TO.N,Net-(D19-A)*%
X99247800Y-164175600D02*
X99237800Y-164175600D01*
X98071200Y-160580600D02*
X99745800Y-162255200D01*
X98071200Y-160045400D02*
X98071200Y-160580600D01*
X99745800Y-163677600D02*
X99247800Y-164175600D01*
X99745800Y-162255200D02*
X99745800Y-163677600D01*
%TO.N,Net-(U1-COMP)*%
X99568000Y-167462500D02*
X99669450Y-167563950D01*
X99085400Y-165989000D02*
X99568000Y-166471600D01*
X99568000Y-166471600D02*
X99568000Y-167462500D01*
%TD*%
%TA.AperFunction,Conductor*%
%TO.N,GND*%
G36*
X98535662Y-17387462D02*
G01*
X98536851Y-17387468D01*
X98743146Y-17388621D01*
X98744889Y-17388645D01*
X100257915Y-17421660D01*
X100258247Y-17421668D01*
X100503809Y-17428533D01*
X100505615Y-17428598D01*
X101986962Y-17493275D01*
X101987021Y-17493278D01*
X102262799Y-17507164D01*
X102264395Y-17507256D01*
X103719506Y-17602629D01*
X104019119Y-17624441D01*
X104020794Y-17624576D01*
X105453107Y-17749886D01*
X105453542Y-17749926D01*
X105771985Y-17780279D01*
X105773515Y-17780436D01*
X107187005Y-17935239D01*
X107187427Y-17935287D01*
X107520369Y-17974551D01*
X107521732Y-17974722D01*
X108919126Y-18158692D01*
X108919758Y-18158778D01*
X109263231Y-18207094D01*
X109264802Y-18207325D01*
X110648308Y-18420268D01*
X110649198Y-18420409D01*
X111000071Y-18477793D01*
X111001333Y-18478007D01*
X112373385Y-18719937D01*
X112374180Y-18720081D01*
X112729628Y-18786405D01*
X112730880Y-18786647D01*
X114092943Y-19057578D01*
X114094024Y-19057799D01*
X114451069Y-19132718D01*
X114452041Y-19132927D01*
X115806256Y-19433150D01*
X115807417Y-19433414D01*
X116163459Y-19516475D01*
X116164293Y-19516675D01*
X117512117Y-19846485D01*
X117513266Y-19846773D01*
X117865524Y-19937302D01*
X117866373Y-19937524D01*
X119209538Y-20297424D01*
X119210783Y-20297766D01*
X119556507Y-20394906D01*
X119557523Y-20395196D01*
X120897443Y-20785747D01*
X120898711Y-20786125D01*
X121235522Y-20888938D01*
X121236435Y-20889222D01*
X122575065Y-21311291D01*
X122576429Y-21311731D01*
X122901330Y-21418907D01*
X122902026Y-21419140D01*
X124241398Y-21873795D01*
X124242695Y-21874246D01*
X124552578Y-21984208D01*
X124553298Y-21984466D01*
X125895453Y-22472970D01*
X125896972Y-22473536D01*
X126188439Y-22584361D01*
X126188932Y-22584551D01*
X127536536Y-23108605D01*
X127538035Y-23109201D01*
X127807385Y-23218571D01*
X127807545Y-23218636D01*
X129163742Y-23780391D01*
X129165219Y-23781016D01*
X129407143Y-23885610D01*
X129407875Y-23885929D01*
X129974020Y-24135038D01*
X130776107Y-24487965D01*
X130777753Y-24488705D01*
X130987296Y-24584915D01*
X132285954Y-25190489D01*
X132372876Y-25231022D01*
X132374629Y-25231856D01*
X132544435Y-25314468D01*
X132544529Y-25314514D01*
X133953267Y-26009226D01*
X133955014Y-26010106D01*
X134076033Y-26072366D01*
X134076383Y-26072547D01*
X135516565Y-26822259D01*
X135518266Y-26823164D01*
X135577755Y-26855471D01*
X135578183Y-26855704D01*
X137058377Y-27667766D01*
X137060695Y-27669072D01*
X138569849Y-28540382D01*
X138572116Y-28541724D01*
X139253660Y-28955295D01*
X140061890Y-29445741D01*
X140064187Y-29447169D01*
X141533887Y-30383471D01*
X141536153Y-30384950D01*
X141744101Y-30523896D01*
X142985087Y-31353096D01*
X142987239Y-31354569D01*
X144414740Y-32354116D01*
X144416895Y-32355660D01*
X145822220Y-33386087D01*
X145824332Y-33387672D01*
X147167766Y-34418524D01*
X147206846Y-34448511D01*
X147208924Y-34450141D01*
X148568016Y-35540927D01*
X148570081Y-35542623D01*
X149904963Y-36662723D01*
X149907016Y-36664484D01*
X150340852Y-37044948D01*
X151217201Y-37813485D01*
X151219163Y-37815245D01*
X152445605Y-38939071D01*
X152503920Y-38992507D01*
X152505890Y-38994352D01*
X153595296Y-40037231D01*
X153764706Y-40199406D01*
X153766639Y-40201298D01*
X154998796Y-41433455D01*
X155000688Y-41435388D01*
X156205738Y-42694199D01*
X156207586Y-42696173D01*
X157350635Y-43943593D01*
X157381209Y-43976958D01*
X157381529Y-43977308D01*
X157385901Y-43982116D01*
X157387369Y-43983760D01*
X157884718Y-44550878D01*
X158488841Y-45239748D01*
X158489202Y-45240161D01*
X158547546Y-45307286D01*
X158548946Y-45308926D01*
X159581993Y-46540063D01*
X159582388Y-46540536D01*
X159679551Y-46657506D01*
X159680873Y-46659124D01*
X160051343Y-47120720D01*
X160655846Y-47873915D01*
X160656032Y-47874148D01*
X160724520Y-47960453D01*
X160781321Y-48032030D01*
X160782565Y-48033624D01*
X161706668Y-49237941D01*
X161707123Y-49238538D01*
X161852320Y-49430154D01*
X161853488Y-49431721D01*
X162732276Y-50630235D01*
X162732758Y-50630896D01*
X162892113Y-50851264D01*
X162893134Y-50852699D01*
X163330709Y-51477621D01*
X163730991Y-52049283D01*
X163731496Y-52050010D01*
X163899989Y-52294339D01*
X163901011Y-52295844D01*
X164701119Y-53493290D01*
X164701646Y-53494085D01*
X164875655Y-53758892D01*
X164876607Y-53760363D01*
X165641593Y-54961150D01*
X165642137Y-54962013D01*
X165818584Y-55244076D01*
X165819468Y-55245510D01*
X166551346Y-56451609D01*
X166551906Y-56452542D01*
X166728277Y-56749026D01*
X166729095Y-56750421D01*
X167429520Y-57963592D01*
X167430093Y-57964595D01*
X167604358Y-58273032D01*
X167605112Y-58274386D01*
X167880386Y-58776143D01*
X168254085Y-59457307D01*
X168275440Y-59496231D01*
X168276023Y-59497307D01*
X168446362Y-59815189D01*
X168447054Y-59816499D01*
X169088402Y-61048514D01*
X169088992Y-61049662D01*
X169253844Y-61374550D01*
X169254477Y-61375815D01*
X169867839Y-62619589D01*
X169868433Y-62620810D01*
X169980333Y-62854126D01*
X170026438Y-62950255D01*
X170026990Y-62951423D01*
X170150480Y-63216247D01*
X170613154Y-64208456D01*
X170613749Y-64209751D01*
X170763769Y-64541365D01*
X170764291Y-64542534D01*
X171323935Y-65814422D01*
X171324527Y-65815792D01*
X171465455Y-66146825D01*
X171465925Y-66147943D01*
X171999591Y-67436326D01*
X172000179Y-67437771D01*
X172131211Y-67765718D01*
X172131631Y-67766784D01*
X172639774Y-69073471D01*
X172640354Y-69074991D01*
X172760661Y-69396798D01*
X172761034Y-69397810D01*
X173244089Y-70724993D01*
X173244658Y-70726589D01*
X173353540Y-71038960D01*
X173353868Y-71039915D01*
X173812139Y-72389937D01*
X173812694Y-72391610D01*
X173909487Y-72690645D01*
X173909774Y-72691543D01*
X174343663Y-74067663D01*
X174344200Y-74069412D01*
X174428300Y-74350536D01*
X174428548Y-74351376D01*
X174838256Y-75757019D01*
X174838773Y-75758844D01*
X174909708Y-76016835D01*
X174909920Y-76017615D01*
X175295696Y-77457348D01*
X175296189Y-77459249D01*
X175353518Y-77687610D01*
X175353696Y-77688330D01*
X175715691Y-79167687D01*
X175716158Y-79169664D01*
X175759383Y-79359744D01*
X175759531Y-79360401D01*
X176098036Y-80887296D01*
X176098473Y-80889349D01*
X176127277Y-81030542D01*
X176127396Y-81031137D01*
X176442478Y-82615161D01*
X176442883Y-82617291D01*
X176456880Y-82694709D01*
X176456974Y-82695238D01*
X176748630Y-84349296D01*
X176749071Y-84351965D01*
X177014163Y-86074292D01*
X177014545Y-86076970D01*
X177241993Y-87804614D01*
X177242317Y-87807299D01*
X177432029Y-89539543D01*
X177432294Y-89542236D01*
X177584166Y-91278142D01*
X177584373Y-91280839D01*
X177698346Y-93019738D01*
X177698493Y-93022439D01*
X177774504Y-94763362D01*
X177774592Y-94766066D01*
X177812605Y-96508183D01*
X177812635Y-96510888D01*
X177812635Y-98253511D01*
X177812605Y-98256216D01*
X177774592Y-99998333D01*
X177774504Y-100001037D01*
X177698493Y-101741960D01*
X177698346Y-101744661D01*
X177584373Y-103483560D01*
X177584166Y-103486257D01*
X177432294Y-105222163D01*
X177432029Y-105224856D01*
X177242317Y-106957100D01*
X177241993Y-106959785D01*
X177014545Y-108687429D01*
X177014163Y-108690107D01*
X176749071Y-110412434D01*
X176748630Y-110415103D01*
X176456974Y-112069160D01*
X176456880Y-112069689D01*
X176442883Y-112147107D01*
X176442478Y-112149237D01*
X176127396Y-113733261D01*
X176127277Y-113733856D01*
X176098473Y-113875049D01*
X176098036Y-113877102D01*
X175759531Y-115403997D01*
X175759383Y-115404654D01*
X175716158Y-115594734D01*
X175715691Y-115596711D01*
X175353696Y-117076068D01*
X175353518Y-117076788D01*
X175296189Y-117305149D01*
X175295696Y-117307050D01*
X174909920Y-118746783D01*
X174909708Y-118747563D01*
X174838773Y-119005554D01*
X174838256Y-119007379D01*
X174428548Y-120413022D01*
X174428300Y-120413862D01*
X174344200Y-120694986D01*
X174343663Y-120696735D01*
X173909774Y-122072855D01*
X173909487Y-122073753D01*
X173812694Y-122372788D01*
X173812139Y-122374461D01*
X173353868Y-123724483D01*
X173353540Y-123725438D01*
X173244658Y-124037809D01*
X173244089Y-124039405D01*
X172761034Y-125366588D01*
X172760661Y-125367600D01*
X172640354Y-125689407D01*
X172639774Y-125690927D01*
X172131631Y-126997614D01*
X172131211Y-126998680D01*
X172000179Y-127326627D01*
X171999591Y-127328072D01*
X171465925Y-128616455D01*
X171465455Y-128617573D01*
X171324527Y-128948606D01*
X171323935Y-128949976D01*
X170764291Y-130221864D01*
X170763769Y-130223033D01*
X170613749Y-130554647D01*
X170613154Y-130555942D01*
X170027014Y-131812925D01*
X170026438Y-131814143D01*
X169868433Y-132143588D01*
X169867839Y-132144809D01*
X169254477Y-133388583D01*
X169253844Y-133389848D01*
X169088992Y-133714736D01*
X169088402Y-133715884D01*
X168447054Y-134947899D01*
X168446362Y-134949209D01*
X168276023Y-135267091D01*
X168275440Y-135268167D01*
X167605112Y-136490012D01*
X167604358Y-136491366D01*
X167430093Y-136799803D01*
X167429520Y-136800806D01*
X166729095Y-138013977D01*
X166728277Y-138015372D01*
X166551906Y-138311856D01*
X166551346Y-138312789D01*
X165819468Y-139518888D01*
X165818584Y-139520322D01*
X165642137Y-139802385D01*
X165641593Y-139803248D01*
X164876607Y-141004035D01*
X164875655Y-141005506D01*
X164701646Y-141270313D01*
X164701119Y-141271108D01*
X163901011Y-142468554D01*
X163899989Y-142470059D01*
X163731496Y-142714388D01*
X163730991Y-142715115D01*
X162893171Y-143911647D01*
X162892077Y-143913185D01*
X162732758Y-144133502D01*
X162732276Y-144134163D01*
X161853488Y-145332677D01*
X161852320Y-145334244D01*
X161707123Y-145525860D01*
X161706668Y-145526457D01*
X160782565Y-146730774D01*
X160781321Y-146732368D01*
X160656186Y-146890056D01*
X160655760Y-146890591D01*
X159680873Y-148105274D01*
X159679551Y-148106892D01*
X159582388Y-148223862D01*
X159581993Y-148224335D01*
X158548946Y-149455472D01*
X158547546Y-149457112D01*
X158489202Y-149524237D01*
X158488841Y-149524650D01*
X157387387Y-150780618D01*
X157385908Y-150782274D01*
X157381574Y-150787041D01*
X157381247Y-150787399D01*
X156207587Y-152068225D01*
X156205738Y-152070200D01*
X155000688Y-153329011D01*
X154998796Y-153330944D01*
X153766639Y-154563101D01*
X153764706Y-154564993D01*
X152505895Y-155770043D01*
X152503920Y-155771892D01*
X151219189Y-156949131D01*
X151217175Y-156950937D01*
X149907016Y-158099915D01*
X149904963Y-158101676D01*
X148570081Y-159221776D01*
X148567990Y-159223493D01*
X147208975Y-160314218D01*
X147206846Y-160315888D01*
X145824358Y-161376708D01*
X145822194Y-161378331D01*
X144416917Y-162408723D01*
X144414718Y-162410299D01*
X142987279Y-163409803D01*
X142985047Y-163411330D01*
X141536153Y-164379449D01*
X141533887Y-164380928D01*
X140064187Y-165317230D01*
X140061890Y-165318658D01*
X138572146Y-166222657D01*
X138569818Y-166224035D01*
X137060715Y-167095316D01*
X137058358Y-167096643D01*
X135578219Y-167908674D01*
X135577755Y-167908927D01*
X135518375Y-167941176D01*
X135516453Y-167942198D01*
X134076500Y-168691790D01*
X134075970Y-168692065D01*
X133955080Y-168754259D01*
X133953197Y-168755207D01*
X132544682Y-169449809D01*
X132544085Y-169450102D01*
X132374718Y-169532499D01*
X132372876Y-169533376D01*
X130987660Y-170179314D01*
X130986995Y-170179622D01*
X130777857Y-170275646D01*
X130776058Y-170276455D01*
X129407875Y-170878469D01*
X129407143Y-170878788D01*
X129165376Y-170983315D01*
X129163620Y-170984058D01*
X127807856Y-171545634D01*
X127807054Y-171545963D01*
X127538138Y-171655156D01*
X127536429Y-171655835D01*
X126189147Y-172179764D01*
X126188276Y-172180099D01*
X125897042Y-172290836D01*
X125895381Y-172291454D01*
X124553399Y-172779895D01*
X124552457Y-172780233D01*
X124242854Y-172890097D01*
X124241244Y-172890656D01*
X122902182Y-173345206D01*
X122901169Y-173345545D01*
X122576549Y-173452628D01*
X122574991Y-173453131D01*
X121236504Y-173875154D01*
X121235420Y-173875491D01*
X120898817Y-173978241D01*
X120897313Y-173978689D01*
X119557591Y-174369182D01*
X119556434Y-174369513D01*
X119210886Y-174466603D01*
X119209438Y-174467001D01*
X117866540Y-174826830D01*
X117865310Y-174827152D01*
X117513383Y-174917595D01*
X117511992Y-174917944D01*
X116164468Y-175247681D01*
X116163166Y-175247993D01*
X115807588Y-175330945D01*
X115806256Y-175331248D01*
X114452229Y-175631430D01*
X114450854Y-175631726D01*
X114094117Y-175706580D01*
X114092844Y-175706840D01*
X112730983Y-175977731D01*
X112729537Y-175978010D01*
X112374369Y-176044282D01*
X112373156Y-176044502D01*
X111001463Y-176286368D01*
X110999945Y-176286626D01*
X110649326Y-176343968D01*
X110648175Y-176344151D01*
X109264811Y-176557071D01*
X109263221Y-176557305D01*
X108919950Y-176605593D01*
X108918862Y-176605741D01*
X107521896Y-176789655D01*
X107520234Y-176789863D01*
X107187699Y-176829080D01*
X107186675Y-176829196D01*
X105773615Y-176983951D01*
X105771882Y-176984129D01*
X105453736Y-177014454D01*
X105452777Y-177014541D01*
X104020856Y-177139817D01*
X104019053Y-177139962D01*
X103719885Y-177161742D01*
X103718991Y-177161804D01*
X102264529Y-177257134D01*
X102262655Y-177257242D01*
X101987399Y-177271102D01*
X101986572Y-177271141D01*
X100505686Y-177335797D01*
X100503742Y-177335867D01*
X100258371Y-177342727D01*
X100257611Y-177342745D01*
X98745031Y-177375750D01*
X98743020Y-177375778D01*
X98536787Y-177376931D01*
X98535662Y-177376938D01*
X98534970Y-177376940D01*
X96983589Y-177376940D01*
X96981509Y-177376923D01*
X96821568Y-177374240D01*
X96820943Y-177374227D01*
X95222164Y-177339341D01*
X95220018Y-177339276D01*
X95121224Y-177335408D01*
X95120666Y-177335385D01*
X93461687Y-177262953D01*
X93459481Y-177262837D01*
X93439913Y-177261633D01*
X93439418Y-177261602D01*
X91716534Y-177148678D01*
X91713837Y-177148471D01*
X89977931Y-176996599D01*
X89975238Y-176996334D01*
X88242994Y-176806622D01*
X88240309Y-176806298D01*
X86512665Y-176578850D01*
X86509987Y-176578468D01*
X84787660Y-176313376D01*
X84784991Y-176312935D01*
X83068894Y-176010341D01*
X83066235Y-176009842D01*
X81617960Y-175721762D01*
X81357175Y-175669889D01*
X81354535Y-175669335D01*
X79653190Y-175292155D01*
X79650556Y-175291540D01*
X77957985Y-174877371D01*
X77955364Y-174876700D01*
X76272112Y-174425673D01*
X76269507Y-174424944D01*
X74596580Y-173937331D01*
X74593991Y-173936546D01*
X72932031Y-173412532D01*
X72929525Y-173411712D01*
X72929203Y-173411603D01*
X72929194Y-173411596D01*
X72929174Y-173411593D01*
X72591553Y-173296986D01*
X94390300Y-173296986D01*
X94390300Y-176410213D01*
X94396713Y-176480792D01*
X94447322Y-176643206D01*
X94535330Y-176788788D01*
X94655611Y-176909069D01*
X94655613Y-176909070D01*
X94655615Y-176909072D01*
X94801194Y-176997078D01*
X94963604Y-177047686D01*
X95034184Y-177054100D01*
X95034187Y-177054100D01*
X96647413Y-177054100D01*
X96647416Y-177054100D01*
X96717996Y-177047686D01*
X96880406Y-176997078D01*
X97025985Y-176909072D01*
X97146272Y-176788785D01*
X97234278Y-176643206D01*
X97284886Y-176480796D01*
X97291300Y-176410216D01*
X97291300Y-173296984D01*
X97284886Y-173226404D01*
X97234278Y-173063994D01*
X97146272Y-172918415D01*
X97146270Y-172918413D01*
X97146269Y-172918411D01*
X97025988Y-172798130D01*
X96880406Y-172710122D01*
X96717996Y-172659514D01*
X96717994Y-172659513D01*
X96717992Y-172659513D01*
X96668578Y-172655023D01*
X96647416Y-172653100D01*
X95034184Y-172653100D01*
X95014945Y-172654848D01*
X94963607Y-172659513D01*
X94801193Y-172710122D01*
X94655611Y-172798130D01*
X94535330Y-172918411D01*
X94447322Y-173063993D01*
X94396713Y-173226407D01*
X94390300Y-173296986D01*
X72591553Y-173296986D01*
X71279382Y-172851563D01*
X71276831Y-172850666D01*
X69639337Y-172254668D01*
X69636805Y-172253715D01*
X68012715Y-171622141D01*
X68010204Y-171621133D01*
X66442459Y-170971752D01*
X66441980Y-170971552D01*
X66389865Y-170949709D01*
X66387856Y-170948847D01*
X64893741Y-170291420D01*
X64893204Y-170291182D01*
X64777237Y-170239498D01*
X64775310Y-170238619D01*
X63345795Y-169572026D01*
X63345203Y-169571748D01*
X63180975Y-169494109D01*
X63179128Y-169493217D01*
X61803598Y-168814881D01*
X61802951Y-168814560D01*
X61601775Y-168713890D01*
X61600009Y-168712988D01*
X60270467Y-168020871D01*
X60269769Y-168020505D01*
X60040573Y-167899334D01*
X60038945Y-167898457D01*
X59539651Y-167624535D01*
X78326578Y-167624535D01*
X78326578Y-167756319D01*
X78326797Y-167757136D01*
X78360686Y-167883614D01*
X78377800Y-167913255D01*
X78426578Y-167997741D01*
X78519764Y-168090927D01*
X78633892Y-168156819D01*
X78761186Y-168190927D01*
X78761188Y-168190927D01*
X78892968Y-168190927D01*
X78892970Y-168190927D01*
X78974885Y-168168978D01*
X79044734Y-168170641D01*
X79094658Y-168201072D01*
X79095983Y-168202397D01*
X79095984Y-168202398D01*
X79189170Y-168295584D01*
X79303298Y-168361476D01*
X79430592Y-168395584D01*
X79430594Y-168395584D01*
X79562374Y-168395584D01*
X79562376Y-168395584D01*
X79689670Y-168361476D01*
X79803798Y-168295584D01*
X79896984Y-168202398D01*
X79962876Y-168088270D01*
X79996984Y-167960976D01*
X79996984Y-167829192D01*
X79973444Y-167741338D01*
X79975107Y-167671490D01*
X80007865Y-167623089D01*
X80005993Y-167621217D01*
X80033885Y-167593325D01*
X80104926Y-167522284D01*
X80170818Y-167408156D01*
X80204926Y-167280862D01*
X80204926Y-167149078D01*
X80183305Y-167068386D01*
X80184968Y-166998538D01*
X80215399Y-166948613D01*
X80215709Y-166948302D01*
X80215714Y-166948300D01*
X80308900Y-166855114D01*
X80374792Y-166740986D01*
X80408900Y-166613692D01*
X80408900Y-166481908D01*
X80374792Y-166354614D01*
X80308900Y-166240486D01*
X80215714Y-166147300D01*
X80158650Y-166114354D01*
X80101587Y-166081408D01*
X80005772Y-166055735D01*
X79974292Y-166047300D01*
X79842508Y-166047300D01*
X79842503Y-166047300D01*
X79770182Y-166066678D01*
X79758183Y-166066392D01*
X79746937Y-166070587D01*
X79723899Y-166065575D01*
X79700333Y-166065014D01*
X79688687Y-166057915D01*
X79678664Y-166055735D01*
X79650410Y-166034584D01*
X79575200Y-165959374D01*
X79575198Y-165959372D01*
X79512387Y-165923108D01*
X98584900Y-165923108D01*
X98584900Y-166054892D01*
X98592005Y-166081408D01*
X98619008Y-166182187D01*
X98651954Y-166239250D01*
X98684900Y-166296314D01*
X98778086Y-166389500D01*
X98892214Y-166455392D01*
X99019508Y-166489500D01*
X99038856Y-166489500D01*
X99068296Y-166498144D01*
X99098283Y-166504668D01*
X99103298Y-166508422D01*
X99105895Y-166509185D01*
X99126537Y-166525819D01*
X99181181Y-166580463D01*
X99214666Y-166641786D01*
X99217500Y-166668144D01*
X99217500Y-167312524D01*
X99204136Y-167362413D01*
X99206169Y-167363255D01*
X99203059Y-167370761D01*
X99203058Y-167370764D01*
X99168950Y-167498058D01*
X99168950Y-167629842D01*
X99182157Y-167679131D01*
X99203058Y-167757137D01*
X99227300Y-167799125D01*
X99268950Y-167871264D01*
X99362136Y-167964450D01*
X99476264Y-168030342D01*
X99603558Y-168064450D01*
X99603560Y-168064450D01*
X99735340Y-168064450D01*
X99735342Y-168064450D01*
X99862636Y-168030342D01*
X99976764Y-167964450D01*
X100069950Y-167871264D01*
X100135842Y-167757136D01*
X100169950Y-167629842D01*
X100169950Y-167498058D01*
X100135842Y-167370764D01*
X100069950Y-167256636D01*
X99976764Y-167163450D01*
X99976761Y-167163448D01*
X99970315Y-167158502D01*
X99971832Y-167156524D01*
X99932271Y-167115014D01*
X99918500Y-167058219D01*
X99918500Y-166426044D01*
X99918500Y-166425456D01*
X99911350Y-166398773D01*
X115228241Y-166398773D01*
X115228241Y-166530557D01*
X115234270Y-166553058D01*
X115262349Y-166657852D01*
X115288409Y-166702988D01*
X115328241Y-166771979D01*
X115328243Y-166771981D01*
X115390924Y-166834662D01*
X115424409Y-166895985D01*
X115423018Y-166954435D01*
X115389379Y-167079980D01*
X115389379Y-167211765D01*
X115423487Y-167339061D01*
X115436970Y-167362413D01*
X115489379Y-167453188D01*
X115582565Y-167546374D01*
X115582571Y-167546377D01*
X115585547Y-167548661D01*
X115587428Y-167551237D01*
X115588312Y-167552121D01*
X115588174Y-167552258D01*
X115626751Y-167605088D01*
X115630908Y-167674834D01*
X115629838Y-167679131D01*
X115609146Y-167756356D01*
X115609146Y-167756358D01*
X115609146Y-167888142D01*
X115615875Y-167913255D01*
X115643254Y-168015437D01*
X115651859Y-168030341D01*
X115709146Y-168129564D01*
X115802332Y-168222750D01*
X115916460Y-168288642D01*
X116043754Y-168322750D01*
X116043756Y-168322750D01*
X116175536Y-168322750D01*
X116175538Y-168322750D01*
X116302832Y-168288642D01*
X116416960Y-168222750D01*
X116510146Y-168129564D01*
X116510146Y-168129563D01*
X116515893Y-168123817D01*
X116517360Y-168125284D01*
X116564845Y-168090609D01*
X116634590Y-168086451D01*
X116638841Y-168087508D01*
X116709492Y-168106439D01*
X116709495Y-168106439D01*
X116841274Y-168106439D01*
X116841276Y-168106439D01*
X116968570Y-168072331D01*
X117082698Y-168006439D01*
X117175884Y-167913253D01*
X117241776Y-167799125D01*
X117275884Y-167671831D01*
X117275884Y-167540047D01*
X117241776Y-167412753D01*
X117239122Y-167408157D01*
X117217534Y-167370765D01*
X117175884Y-167298625D01*
X117082698Y-167205439D01*
X117082695Y-167205437D01*
X117079714Y-167203150D01*
X117077832Y-167200573D01*
X117076951Y-167199692D01*
X117077088Y-167199554D01*
X117038510Y-167146722D01*
X117034355Y-167076977D01*
X117035403Y-167072759D01*
X117056118Y-166995453D01*
X117056118Y-166863669D01*
X117022010Y-166736375D01*
X116956118Y-166622247D01*
X116862932Y-166529061D01*
X116857185Y-166523314D01*
X116858929Y-166521569D01*
X116825071Y-166475189D01*
X116820924Y-166405442D01*
X116821972Y-166401229D01*
X116840537Y-166331945D01*
X116840537Y-166200161D01*
X116806429Y-166072867D01*
X116740537Y-165958739D01*
X116647351Y-165865553D01*
X116586979Y-165830697D01*
X116533224Y-165799661D01*
X116469576Y-165782607D01*
X116405929Y-165765553D01*
X116274145Y-165765553D01*
X116146849Y-165799661D01*
X116032723Y-165865553D01*
X115955258Y-165943018D01*
X115893934Y-165976502D01*
X115835485Y-165975111D01*
X115794634Y-165964165D01*
X115794633Y-165964165D01*
X115662849Y-165964165D01*
X115535553Y-165998273D01*
X115421427Y-166064165D01*
X115421424Y-166064167D01*
X115328243Y-166157348D01*
X115328241Y-166157351D01*
X115262349Y-166271477D01*
X115247821Y-166325698D01*
X115228241Y-166398773D01*
X99911350Y-166398773D01*
X99894614Y-166336312D01*
X99877774Y-166307145D01*
X99848469Y-166256387D01*
X99622219Y-166030137D01*
X99588734Y-165968814D01*
X99585900Y-165942456D01*
X99585900Y-165923110D01*
X99585900Y-165923108D01*
X99551792Y-165795814D01*
X99485900Y-165681686D01*
X99392714Y-165588500D01*
X99298219Y-165533943D01*
X99278587Y-165522608D01*
X99214939Y-165505554D01*
X99151292Y-165488500D01*
X99019508Y-165488500D01*
X98892212Y-165522608D01*
X98778086Y-165588500D01*
X98778083Y-165588502D01*
X98684902Y-165681683D01*
X98684900Y-165681686D01*
X98619008Y-165795812D01*
X98600321Y-165865555D01*
X98584900Y-165923108D01*
X79512387Y-165923108D01*
X79461071Y-165893480D01*
X79356851Y-165865555D01*
X79333776Y-165859372D01*
X79201992Y-165859372D01*
X79074696Y-165893480D01*
X78960570Y-165959372D01*
X78960567Y-165959374D01*
X78867386Y-166052555D01*
X78867384Y-166052558D01*
X78801492Y-166166684D01*
X78767384Y-166293980D01*
X78767384Y-166425768D01*
X78780147Y-166473401D01*
X78778483Y-166543251D01*
X78739320Y-166601112D01*
X78734071Y-166604758D01*
X78734147Y-166604857D01*
X78727695Y-166609807D01*
X78634514Y-166702988D01*
X78634512Y-166702991D01*
X78568620Y-166817117D01*
X78534512Y-166944413D01*
X78534512Y-167076198D01*
X78558054Y-167164060D01*
X78556391Y-167233909D01*
X78523635Y-167282304D01*
X78525511Y-167284180D01*
X78426578Y-167383113D01*
X78360686Y-167497239D01*
X78331789Y-167605088D01*
X78326578Y-167624535D01*
X59539651Y-167624535D01*
X59142647Y-167406731D01*
X58749093Y-167190820D01*
X58748344Y-167190405D01*
X58498084Y-167050849D01*
X58496476Y-167049937D01*
X57242057Y-166325698D01*
X57241258Y-166325233D01*
X56974960Y-166168828D01*
X56973431Y-166167915D01*
X55750632Y-165425902D01*
X55749787Y-165425384D01*
X55479016Y-165258100D01*
X55479015Y-165258099D01*
X55472041Y-165253790D01*
X55470711Y-165252956D01*
X55325953Y-165160735D01*
X70681178Y-165160735D01*
X70681178Y-165292518D01*
X70715286Y-165419814D01*
X70718502Y-165425384D01*
X70781178Y-165533941D01*
X70874364Y-165627127D01*
X70988492Y-165693019D01*
X71115786Y-165727127D01*
X71115788Y-165727127D01*
X71247568Y-165727127D01*
X71247570Y-165727127D01*
X71329485Y-165705178D01*
X71399334Y-165706841D01*
X71449258Y-165737272D01*
X71450583Y-165738597D01*
X71450584Y-165738598D01*
X71543770Y-165831784D01*
X71642605Y-165888847D01*
X71656018Y-165896591D01*
X71657898Y-165897676D01*
X71785192Y-165931784D01*
X71785194Y-165931784D01*
X71916974Y-165931784D01*
X71916976Y-165931784D01*
X72044270Y-165897676D01*
X72158398Y-165831784D01*
X72251584Y-165738598D01*
X72317476Y-165624470D01*
X72351584Y-165497176D01*
X72351584Y-165365392D01*
X72328044Y-165277538D01*
X72329707Y-165207690D01*
X72362465Y-165159289D01*
X72360593Y-165157417D01*
X72370013Y-165147997D01*
X72459526Y-165058484D01*
X72525418Y-164944356D01*
X72559526Y-164817062D01*
X72559526Y-164685278D01*
X72537905Y-164604586D01*
X72539568Y-164534738D01*
X72569999Y-164484813D01*
X72570309Y-164484502D01*
X72570314Y-164484500D01*
X72663500Y-164391314D01*
X72729392Y-164277186D01*
X72738098Y-164244694D01*
X77824924Y-164244694D01*
X77824924Y-164244695D01*
X77824924Y-164253393D01*
X77831075Y-164259544D01*
X77839773Y-164259544D01*
X77845924Y-164253393D01*
X77845924Y-164244695D01*
X77839773Y-164238544D01*
X77831075Y-164238544D01*
X77831074Y-164238544D01*
X77824924Y-164244694D01*
X72738098Y-164244694D01*
X72763500Y-164149892D01*
X72763500Y-164018108D01*
X72761196Y-164009508D01*
X92971500Y-164009508D01*
X92971500Y-164141292D01*
X92982081Y-164180781D01*
X93005608Y-164268587D01*
X93026890Y-164305447D01*
X93071500Y-164382714D01*
X93164686Y-164475900D01*
X93245072Y-164522311D01*
X93273723Y-164538853D01*
X93278814Y-164541792D01*
X93406108Y-164575900D01*
X93406110Y-164575900D01*
X93537890Y-164575900D01*
X93537892Y-164575900D01*
X93665186Y-164541792D01*
X93779314Y-164475900D01*
X93779321Y-164475892D01*
X93785760Y-164470953D01*
X93787905Y-164473748D01*
X93835042Y-164448010D01*
X93904734Y-164452994D01*
X93949081Y-164481495D01*
X93952086Y-164484500D01*
X94066214Y-164550392D01*
X94193508Y-164584500D01*
X94193510Y-164584500D01*
X94325289Y-164584500D01*
X94325292Y-164584500D01*
X94408300Y-164562258D01*
X94420296Y-164562543D01*
X94431543Y-164558349D01*
X94454577Y-164563359D01*
X94478144Y-164563921D01*
X94489791Y-164571020D01*
X94499816Y-164573201D01*
X94528070Y-164594352D01*
X94687781Y-164754063D01*
X94721266Y-164815386D01*
X94723951Y-164840359D01*
X94724100Y-164841491D01*
X94758208Y-164968787D01*
X94788181Y-165020701D01*
X94824100Y-165082914D01*
X94917286Y-165176100D01*
X95031414Y-165241992D01*
X95158708Y-165276100D01*
X95158710Y-165276100D01*
X95290490Y-165276100D01*
X95290492Y-165276100D01*
X95417786Y-165241992D01*
X95531914Y-165176100D01*
X95625100Y-165082914D01*
X95690992Y-164968786D01*
X95725100Y-164841492D01*
X95725100Y-164709708D01*
X95690992Y-164582414D01*
X95625100Y-164468286D01*
X95531914Y-164375100D01*
X95474850Y-164342154D01*
X95417787Y-164309208D01*
X95354139Y-164292154D01*
X95290492Y-164275100D01*
X95290491Y-164275100D01*
X95251544Y-164275100D01*
X95184505Y-164255415D01*
X95163863Y-164238781D01*
X94728613Y-163803531D01*
X94728612Y-163803530D01*
X94648688Y-163757386D01*
X94648686Y-163757385D01*
X94643690Y-163754501D01*
X94618008Y-163734794D01*
X94566716Y-163683502D01*
X94566714Y-163683500D01*
X94489259Y-163638781D01*
X94452587Y-163617608D01*
X94377224Y-163597415D01*
X94325292Y-163583500D01*
X94193508Y-163583500D01*
X94066212Y-163617608D01*
X93952086Y-163683500D01*
X93945640Y-163688447D01*
X93943494Y-163685651D01*
X93896358Y-163711390D01*
X93826666Y-163706406D01*
X93782319Y-163677905D01*
X93779316Y-163674902D01*
X93779314Y-163674900D01*
X93680082Y-163617608D01*
X93665187Y-163609008D01*
X93589600Y-163588755D01*
X93537892Y-163574900D01*
X93406108Y-163574900D01*
X93278812Y-163609008D01*
X93164686Y-163674900D01*
X93164683Y-163674902D01*
X93071502Y-163768083D01*
X93071500Y-163768086D01*
X93005608Y-163882212D01*
X92984239Y-163961964D01*
X92971500Y-164009508D01*
X72761196Y-164009508D01*
X72729392Y-163890814D01*
X72663500Y-163776686D01*
X72570314Y-163683500D01*
X72492859Y-163638781D01*
X72456187Y-163617608D01*
X72380824Y-163597415D01*
X72328892Y-163583500D01*
X72197108Y-163583500D01*
X72197106Y-163583500D01*
X72145174Y-163597415D01*
X72075324Y-163595752D01*
X72025401Y-163565321D01*
X71955654Y-163495574D01*
X71955652Y-163495572D01*
X71898588Y-163462626D01*
X71841525Y-163429680D01*
X71773040Y-163411330D01*
X71714230Y-163395572D01*
X71582446Y-163395572D01*
X71455150Y-163429680D01*
X71341024Y-163495572D01*
X71341021Y-163495574D01*
X71247840Y-163588755D01*
X71247838Y-163588758D01*
X71181946Y-163702884D01*
X71147838Y-163830180D01*
X71147838Y-163961965D01*
X71157138Y-163996673D01*
X71155475Y-164066523D01*
X71116311Y-164124385D01*
X71099365Y-164136151D01*
X71082301Y-164146003D01*
X71082295Y-164146007D01*
X70989114Y-164239188D01*
X70989112Y-164239191D01*
X70923220Y-164353317D01*
X70889112Y-164480613D01*
X70889112Y-164612398D01*
X70912654Y-164700260D01*
X70910991Y-164770109D01*
X70878235Y-164818504D01*
X70880111Y-164820380D01*
X70781178Y-164919313D01*
X70715286Y-165033439D01*
X70681178Y-165160735D01*
X55325953Y-165160735D01*
X54389143Y-164563921D01*
X54276612Y-164492231D01*
X54275721Y-164491658D01*
X53990259Y-164306353D01*
X53988884Y-164305447D01*
X52820917Y-163525037D01*
X52820086Y-163524477D01*
X52530231Y-163326969D01*
X52528934Y-163326074D01*
X51385038Y-162525109D01*
X51384064Y-162524420D01*
X51092562Y-162316098D01*
X51091338Y-162315211D01*
X49969869Y-161492916D01*
X49968855Y-161492165D01*
X49866251Y-161415316D01*
X49814705Y-161376708D01*
X49678313Y-161274552D01*
X49677163Y-161273680D01*
X48576371Y-160429013D01*
X48575321Y-160428198D01*
X48288031Y-160202822D01*
X48286953Y-160201967D01*
X47980944Y-159956369D01*
X47205528Y-159334032D01*
X47204543Y-159333233D01*
X47072065Y-159224434D01*
X77807395Y-159224434D01*
X77807395Y-159224435D01*
X77807395Y-159233133D01*
X77813546Y-159239284D01*
X77822244Y-159239284D01*
X77828395Y-159233133D01*
X77828395Y-159224435D01*
X77822244Y-159218284D01*
X77813546Y-159218284D01*
X77813545Y-159218284D01*
X77807395Y-159224434D01*
X47072065Y-159224434D01*
X47064577Y-159218284D01*
X46922470Y-159101576D01*
X46921462Y-159100740D01*
X46911336Y-159092243D01*
X45857961Y-158208356D01*
X45856963Y-158207507D01*
X45582489Y-157971620D01*
X45581686Y-157970923D01*
X44534892Y-157052910D01*
X44533781Y-157051923D01*
X44268761Y-156813655D01*
X44268003Y-156812966D01*
X43597232Y-156198318D01*
X43236883Y-155868119D01*
X43235711Y-155867032D01*
X43225375Y-155857313D01*
X42982164Y-155628614D01*
X42981377Y-155627868D01*
X42209684Y-154889133D01*
X41964514Y-154654434D01*
X41963345Y-154653299D01*
X41908401Y-154599269D01*
X41723358Y-154417303D01*
X41722620Y-154416571D01*
X40718752Y-153412703D01*
X40717535Y-153411469D01*
X40493276Y-153180853D01*
X40492601Y-153180154D01*
X39500135Y-152143410D01*
X39498900Y-152142100D01*
X39292605Y-151920242D01*
X39291991Y-151919577D01*
X39284686Y-151911605D01*
X38309390Y-150847255D01*
X38308181Y-150845916D01*
X38122467Y-150637012D01*
X38121913Y-150636385D01*
X37496638Y-149923396D01*
X37147129Y-149524857D01*
X37145879Y-149523410D01*
X37097905Y-149466953D01*
X36983869Y-149332751D01*
X36983373Y-149332163D01*
X36685901Y-148977650D01*
X36013923Y-148176819D01*
X36012765Y-148175416D01*
X35878090Y-148009549D01*
X35877654Y-148009009D01*
X34910489Y-146803945D01*
X34909208Y-146802321D01*
X34869904Y-146751641D01*
X34806363Y-146669704D01*
X33978801Y-145591204D01*
X33837286Y-145406777D01*
X33836000Y-145405071D01*
X33771297Y-145317670D01*
X33770960Y-145317212D01*
X32794929Y-143986074D01*
X32793643Y-143984288D01*
X32774728Y-143957505D01*
X32140058Y-143051102D01*
X40650701Y-143051102D01*
X40650701Y-143182885D01*
X40684809Y-143310181D01*
X40706405Y-143347586D01*
X40750701Y-143424308D01*
X40843887Y-143517494D01*
X40953108Y-143580553D01*
X40965054Y-143587450D01*
X40963479Y-143590177D01*
X41006316Y-143624658D01*
X41028418Y-143690939D01*
X41028500Y-143695435D01*
X41028500Y-143702892D01*
X41044090Y-143761077D01*
X41062608Y-143830187D01*
X41084199Y-143867583D01*
X41128500Y-143944314D01*
X41221686Y-144037500D01*
X41335814Y-144103392D01*
X41463108Y-144137500D01*
X41463110Y-144137500D01*
X41594890Y-144137500D01*
X41594892Y-144137500D01*
X41722186Y-144103392D01*
X41836314Y-144037500D01*
X41929500Y-143944314D01*
X41992184Y-143835743D01*
X42042751Y-143787527D01*
X42099571Y-143773743D01*
X42192959Y-143773743D01*
X42192961Y-143773743D01*
X42320255Y-143739635D01*
X42434383Y-143673743D01*
X42527569Y-143580557D01*
X42593461Y-143466429D01*
X42598501Y-143447617D01*
X42634867Y-143387957D01*
X42697714Y-143357429D01*
X42718276Y-143355712D01*
X42768329Y-143355712D01*
X42768331Y-143355712D01*
X42895625Y-143321604D01*
X43009753Y-143255712D01*
X43102939Y-143162526D01*
X43168831Y-143048398D01*
X43202939Y-142921104D01*
X43202939Y-142789320D01*
X43168831Y-142662026D01*
X43164139Y-142653900D01*
X43141552Y-142614778D01*
X43102939Y-142547898D01*
X43009753Y-142454712D01*
X42933667Y-142410784D01*
X42895627Y-142388821D01*
X42895620Y-142388818D01*
X42883393Y-142385542D01*
X42823733Y-142349177D01*
X42793205Y-142286329D01*
X42791488Y-142265768D01*
X42791488Y-142223018D01*
X42791488Y-142223016D01*
X42757380Y-142095722D01*
X42691488Y-141981594D01*
X42598302Y-141888408D01*
X42541238Y-141855462D01*
X42484175Y-141822516D01*
X42420527Y-141805462D01*
X42356880Y-141788408D01*
X42225096Y-141788408D01*
X42097800Y-141822516D01*
X41983674Y-141888408D01*
X41983671Y-141888410D01*
X41890490Y-141981591D01*
X41890488Y-141981594D01*
X41824596Y-142095720D01*
X41822073Y-142105136D01*
X41819557Y-142114527D01*
X41783193Y-142174186D01*
X41720347Y-142204716D01*
X41699783Y-142206433D01*
X41649727Y-142206433D01*
X41522431Y-142240541D01*
X41408305Y-142306433D01*
X41408302Y-142306435D01*
X41315121Y-142399616D01*
X41315119Y-142399619D01*
X41249226Y-142513747D01*
X41246321Y-142524591D01*
X41209955Y-142584250D01*
X41147107Y-142614778D01*
X41126547Y-142616494D01*
X41085309Y-142616494D01*
X40958013Y-142650602D01*
X40843887Y-142716494D01*
X40843884Y-142716496D01*
X40750703Y-142809677D01*
X40750701Y-142809680D01*
X40684809Y-142923806D01*
X40650701Y-143051102D01*
X32140058Y-143051102D01*
X31790264Y-142551544D01*
X31788791Y-142549392D01*
X31022719Y-141402884D01*
X30820645Y-141100458D01*
X30819166Y-141098192D01*
X29882864Y-139628492D01*
X29881436Y-139626195D01*
X29119099Y-138369903D01*
X28977419Y-138136421D01*
X28976059Y-138134123D01*
X28907498Y-138015372D01*
X28104767Y-136625000D01*
X28103451Y-136622663D01*
X28049978Y-136525194D01*
X36053313Y-136525194D01*
X36053313Y-136656978D01*
X36059492Y-136680038D01*
X36087421Y-136784273D01*
X36096967Y-136800806D01*
X36153313Y-136898400D01*
X36246499Y-136991586D01*
X36355720Y-137054645D01*
X36367666Y-137061542D01*
X36366091Y-137064269D01*
X36408928Y-137098750D01*
X36431030Y-137165031D01*
X36431112Y-137169527D01*
X36431112Y-137176983D01*
X36465220Y-137304279D01*
X36468428Y-137309835D01*
X36531112Y-137418406D01*
X36624298Y-137511592D01*
X36738426Y-137577484D01*
X36865720Y-137611592D01*
X36865722Y-137611592D01*
X36997502Y-137611592D01*
X36997504Y-137611592D01*
X37124798Y-137577484D01*
X37238926Y-137511592D01*
X37332112Y-137418406D01*
X37394796Y-137309835D01*
X37445363Y-137261619D01*
X37502183Y-137247835D01*
X37595571Y-137247835D01*
X37595573Y-137247835D01*
X37722867Y-137213727D01*
X37836995Y-137147835D01*
X37930181Y-137054649D01*
X37996073Y-136940521D01*
X38001113Y-136921709D01*
X38037479Y-136862049D01*
X38100326Y-136831521D01*
X38120888Y-136829804D01*
X38170941Y-136829804D01*
X38170943Y-136829804D01*
X38298237Y-136795696D01*
X38412365Y-136729804D01*
X38505551Y-136636618D01*
X38571443Y-136522490D01*
X38605551Y-136395196D01*
X38605551Y-136263412D01*
X38571443Y-136136118D01*
X38505551Y-136021990D01*
X38412365Y-135928804D01*
X38328938Y-135880637D01*
X38298239Y-135862913D01*
X38298232Y-135862910D01*
X38286005Y-135859634D01*
X38226345Y-135823269D01*
X38195817Y-135760421D01*
X38194100Y-135739860D01*
X38194100Y-135697110D01*
X38194100Y-135697108D01*
X38159992Y-135569814D01*
X38094100Y-135455686D01*
X38000914Y-135362500D01*
X37935249Y-135324588D01*
X37886787Y-135296608D01*
X37823139Y-135279554D01*
X37759492Y-135262500D01*
X37627708Y-135262500D01*
X37500412Y-135296608D01*
X37386286Y-135362500D01*
X37386283Y-135362502D01*
X37293102Y-135455683D01*
X37293100Y-135455686D01*
X37227208Y-135569812D01*
X37224685Y-135579228D01*
X37222169Y-135588619D01*
X37185805Y-135648278D01*
X37122959Y-135678808D01*
X37102395Y-135680525D01*
X37052339Y-135680525D01*
X36925043Y-135714633D01*
X36810917Y-135780525D01*
X36810914Y-135780527D01*
X36717733Y-135873708D01*
X36717731Y-135873711D01*
X36651838Y-135987839D01*
X36648933Y-135998683D01*
X36612567Y-136058342D01*
X36549719Y-136088870D01*
X36529159Y-136090586D01*
X36487921Y-136090586D01*
X36360625Y-136124694D01*
X36246499Y-136190586D01*
X36246496Y-136190588D01*
X36153315Y-136283769D01*
X36153313Y-136283772D01*
X36087421Y-136397898D01*
X36067508Y-136472217D01*
X36053313Y-136525194D01*
X28049978Y-136525194D01*
X27265258Y-135094838D01*
X27264024Y-135092529D01*
X26547387Y-133715884D01*
X26459379Y-133546822D01*
X26458156Y-133544409D01*
X25687433Y-131981537D01*
X25686263Y-131979098D01*
X25405874Y-131377802D01*
X24949808Y-130399765D01*
X24948725Y-130397377D01*
X24246873Y-128802296D01*
X24245811Y-128799808D01*
X23636198Y-127328072D01*
X23578952Y-127189867D01*
X23577953Y-127187379D01*
X23575229Y-127180374D01*
X22946367Y-125563258D01*
X22945426Y-125560757D01*
X22874754Y-125366588D01*
X22349428Y-123923263D01*
X22348531Y-123920712D01*
X22143721Y-123317361D01*
X21788387Y-122270582D01*
X21787578Y-122268114D01*
X21263530Y-120606045D01*
X21262781Y-120603574D01*
X20785262Y-118965281D01*
X20785194Y-118965045D01*
X20772817Y-118921921D01*
X20772230Y-118919807D01*
X20726077Y-118747563D01*
X20347398Y-117334311D01*
X20347288Y-117333897D01*
X20317209Y-117219512D01*
X20316772Y-117217786D01*
X19940048Y-115678242D01*
X19899350Y-115508092D01*
X19898957Y-115506391D01*
X19565604Y-114002733D01*
X19519329Y-113788169D01*
X19518966Y-113786418D01*
X19225515Y-112311139D01*
X19177341Y-112060726D01*
X19177000Y-112058874D01*
X18920884Y-110606368D01*
X18920820Y-110605993D01*
X18873525Y-110326623D01*
X18873232Y-110324812D01*
X18706256Y-109239956D01*
X18652452Y-108890383D01*
X18652316Y-108889479D01*
X18651343Y-108882835D01*
X18607958Y-108586432D01*
X18607758Y-108584992D01*
X18420750Y-107164521D01*
X18420627Y-107163555D01*
X18395108Y-106957100D01*
X18380848Y-106841734D01*
X18380669Y-106840198D01*
X18226291Y-105430591D01*
X18226248Y-105430178D01*
X18192194Y-105092878D01*
X18192044Y-105091280D01*
X18186237Y-105024904D01*
X18069483Y-103690394D01*
X18069432Y-103689778D01*
X18042096Y-103341196D01*
X18041983Y-103339635D01*
X17950577Y-101945058D01*
X17950510Y-101943930D01*
X17948194Y-101902543D01*
X17930541Y-101587090D01*
X17930482Y-101585902D01*
X17905759Y-101019656D01*
X24608250Y-101019656D01*
X24608250Y-101151440D01*
X24637282Y-101259791D01*
X24642359Y-101278736D01*
X24642359Y-101278737D01*
X24697097Y-101373546D01*
X24713570Y-101441446D01*
X24697097Y-101497546D01*
X24642360Y-101592353D01*
X24642360Y-101592354D01*
X24642359Y-101592356D01*
X24642359Y-101592357D01*
X24608251Y-101719651D01*
X24608251Y-101851435D01*
X24621942Y-101902530D01*
X24642359Y-101978730D01*
X24642367Y-101978743D01*
X24708251Y-102092857D01*
X24801437Y-102186043D01*
X24900272Y-102243106D01*
X24915561Y-102251933D01*
X24915565Y-102251935D01*
X25042859Y-102286043D01*
X25042861Y-102286043D01*
X25174641Y-102286043D01*
X25174643Y-102286043D01*
X25301937Y-102251935D01*
X25402337Y-102193968D01*
X25470236Y-102177495D01*
X25526333Y-102193966D01*
X25626753Y-102251944D01*
X25754047Y-102286052D01*
X25754049Y-102286052D01*
X25885829Y-102286052D01*
X25885831Y-102286052D01*
X26013125Y-102251944D01*
X26106763Y-102197881D01*
X26174662Y-102181408D01*
X26230760Y-102197880D01*
X26283557Y-102228362D01*
X26324398Y-102251942D01*
X26324409Y-102251948D01*
X26451703Y-102286056D01*
X26451705Y-102286056D01*
X26583485Y-102286056D01*
X26583487Y-102286056D01*
X26710781Y-102251948D01*
X26824909Y-102186056D01*
X26918095Y-102092870D01*
X26983987Y-101978742D01*
X27018095Y-101851448D01*
X27018095Y-101719664D01*
X26983987Y-101592370D01*
X26945772Y-101526180D01*
X26929300Y-101458283D01*
X26945774Y-101402181D01*
X26951155Y-101392862D01*
X26983992Y-101335986D01*
X27018100Y-101208692D01*
X27018100Y-101076908D01*
X26983992Y-100949614D01*
X26918100Y-100835486D01*
X26824914Y-100742300D01*
X26767850Y-100709354D01*
X26710787Y-100676408D01*
X26638839Y-100657130D01*
X26583492Y-100642300D01*
X26451708Y-100642300D01*
X26324414Y-100676408D01*
X26324413Y-100676408D01*
X26324411Y-100676409D01*
X26324408Y-100676410D01*
X26276341Y-100704161D01*
X26208441Y-100720632D01*
X26142414Y-100697779D01*
X26128429Y-100685948D01*
X26127258Y-100685050D01*
X26127256Y-100685048D01*
X26056907Y-100644432D01*
X26013129Y-100619156D01*
X25942412Y-100600208D01*
X25885834Y-100585048D01*
X25754050Y-100585048D01*
X25626756Y-100619156D01*
X25626755Y-100619156D01*
X25626753Y-100619157D01*
X25626752Y-100619157D01*
X25526346Y-100677127D01*
X25458446Y-100693600D01*
X25402346Y-100677127D01*
X25301939Y-100619157D01*
X25301936Y-100619156D01*
X25174642Y-100585048D01*
X25042858Y-100585048D01*
X24915562Y-100619156D01*
X24801436Y-100685048D01*
X24801433Y-100685050D01*
X24708252Y-100778231D01*
X24708250Y-100778234D01*
X24642358Y-100892360D01*
X24608978Y-101016938D01*
X24608250Y-101019656D01*
X17905759Y-101019656D01*
X17869777Y-100195530D01*
X17869733Y-100194366D01*
X17857574Y-99831971D01*
X17857544Y-99830881D01*
X17827260Y-98443007D01*
X17827244Y-98442035D01*
X17823163Y-98076970D01*
X17823155Y-98075584D01*
X17823155Y-96750081D01*
X32815497Y-96750081D01*
X32818631Y-97940609D01*
X32818631Y-97941272D01*
X32818439Y-98011766D01*
X32818842Y-98030027D01*
X32818872Y-98032435D01*
X32819725Y-98356510D01*
X32852691Y-99561767D01*
X32852704Y-99562269D01*
X32854087Y-99624816D01*
X32854875Y-99641605D01*
X32854909Y-99642837D01*
X32863648Y-99962343D01*
X32927201Y-101182047D01*
X32927232Y-101182680D01*
X32929759Y-101236475D01*
X32930684Y-101249362D01*
X32930834Y-101251786D01*
X32947236Y-101566563D01*
X33042165Y-102800673D01*
X33042165Y-102800674D01*
X33042197Y-102801090D01*
X33045410Y-102845800D01*
X33046501Y-102857073D01*
X33046600Y-102858348D01*
X33046602Y-102858364D01*
X33070442Y-103168274D01*
X33197558Y-104416561D01*
X33197618Y-104417164D01*
X33200968Y-104451739D01*
X33201871Y-104459149D01*
X33202143Y-104461582D01*
X33233185Y-104766415D01*
X33393322Y-106028627D01*
X33393322Y-106028630D01*
X33393373Y-106029036D01*
X33396336Y-106053322D01*
X33397181Y-106059065D01*
X33397350Y-106060392D01*
X33397356Y-106060430D01*
X33429712Y-106315454D01*
X33435372Y-106360063D01*
X33474531Y-106617580D01*
X33629343Y-107635651D01*
X33629428Y-107636218D01*
X33631398Y-107649589D01*
X33631724Y-107651476D01*
X33632125Y-107653941D01*
X33676876Y-107948227D01*
X33905549Y-109236894D01*
X33905550Y-109236899D01*
X33905611Y-109237244D01*
X33905997Y-109239478D01*
X33906091Y-109239956D01*
X33906315Y-109241215D01*
X33906317Y-109241222D01*
X33957553Y-109529953D01*
X34277223Y-111104238D01*
X34456408Y-111886962D01*
X34635698Y-112670144D01*
X34920416Y-113786313D01*
X35032766Y-114226753D01*
X35468151Y-115772976D01*
X35941647Y-117308092D01*
X36452906Y-118830965D01*
X37001641Y-120340741D01*
X37587530Y-121836534D01*
X38000721Y-122819199D01*
X38210188Y-123317361D01*
X38539534Y-124049446D01*
X38869256Y-124782369D01*
X39564316Y-126230630D01*
X39682252Y-126461558D01*
X40294953Y-127661276D01*
X40913690Y-128802296D01*
X41060725Y-129073445D01*
X41861152Y-130466247D01*
X42415405Y-131377784D01*
X42695746Y-131838839D01*
X43564007Y-133190397D01*
X44014320Y-133854676D01*
X44465407Y-134520097D01*
X45399370Y-135827090D01*
X46365374Y-137110646D01*
X47362759Y-138369887D01*
X48390984Y-139604135D01*
X48390992Y-139604144D01*
X49449397Y-140812601D01*
X50537340Y-141994535D01*
X50995812Y-142468554D01*
X51654170Y-143149239D01*
X52799136Y-144275938D01*
X52799147Y-144275948D01*
X52799165Y-144275966D01*
X53971666Y-145374069D01*
X55170942Y-146442864D01*
X55762211Y-146944145D01*
X56396283Y-147481715D01*
X57646867Y-148489928D01*
X58922010Y-149466953D01*
X58922028Y-149466966D01*
X60220930Y-150412187D01*
X60545587Y-150636385D01*
X61542793Y-151325025D01*
X62142918Y-151717912D01*
X62886806Y-152204917D01*
X64252152Y-153051332D01*
X65637997Y-153863750D01*
X66818970Y-154517404D01*
X67043511Y-154641685D01*
X68467764Y-155384624D01*
X69066524Y-155678370D01*
X69909997Y-156092170D01*
X69910005Y-156092174D01*
X69910022Y-156092182D01*
X70885418Y-156541148D01*
X71369253Y-156763853D01*
X72356083Y-157188854D01*
X72844667Y-157399274D01*
X74335305Y-157998034D01*
X74335320Y-157998039D01*
X74335321Y-157998040D01*
X75040424Y-158261214D01*
X75040533Y-158261255D01*
X75051283Y-158265292D01*
X75051359Y-158265349D01*
X75073164Y-158273456D01*
X75073300Y-158273506D01*
X75087818Y-158278922D01*
X75087818Y-158278923D01*
X75274722Y-158348659D01*
X75274726Y-158348660D01*
X75274731Y-158348662D01*
X75403243Y-158385264D01*
X75658440Y-158457950D01*
X76049645Y-158536327D01*
X76119917Y-158544657D01*
X76119916Y-158544657D01*
X76122169Y-158544923D01*
X76124010Y-158545142D01*
X76132151Y-158546661D01*
X76159601Y-158549361D01*
X76445850Y-158583293D01*
X76445859Y-158583293D01*
X76445864Y-158583294D01*
X76468328Y-158584153D01*
X76541909Y-158586968D01*
X76562104Y-158588955D01*
X76607719Y-158589486D01*
X76716006Y-158593630D01*
X76844525Y-158598548D01*
X76844530Y-158598547D01*
X76844537Y-158598548D01*
X76962979Y-158593630D01*
X76994102Y-158593994D01*
X77043750Y-158590276D01*
X77180363Y-158584604D01*
X77243155Y-158581998D01*
X77243158Y-158581997D01*
X77243173Y-158581997D01*
X77384737Y-158564749D01*
X77424925Y-158561741D01*
X77471324Y-158554199D01*
X77639223Y-158533743D01*
X77804953Y-158499978D01*
X77851358Y-158492437D01*
X77890430Y-158482563D01*
X78015098Y-158457164D01*
X78030152Y-158454098D01*
X78030154Y-158454097D01*
X78030171Y-158454094D01*
X78221948Y-158398796D01*
X78270222Y-158386599D01*
X78299628Y-158376398D01*
X78413532Y-158343555D01*
X78635308Y-158259959D01*
X78678392Y-158245016D01*
X78696906Y-158236741D01*
X78786869Y-158202831D01*
X79047681Y-158079978D01*
X79072823Y-158068743D01*
X79080043Y-158064734D01*
X79147810Y-158032814D01*
X79252449Y-157972908D01*
X91676100Y-157972908D01*
X91676100Y-158104692D01*
X91702396Y-158202832D01*
X91710209Y-158231988D01*
X91710209Y-158231989D01*
X91768182Y-158332400D01*
X91784655Y-158400300D01*
X91768182Y-158456400D01*
X91710209Y-158556810D01*
X91710209Y-158556811D01*
X91710208Y-158556813D01*
X91710208Y-158556814D01*
X91676100Y-158684108D01*
X91676100Y-158815892D01*
X91708406Y-158936462D01*
X91710209Y-158943188D01*
X91710209Y-158943189D01*
X91775514Y-159056300D01*
X91791987Y-159124200D01*
X91775514Y-159180300D01*
X91710209Y-159293410D01*
X91710209Y-159293411D01*
X91710209Y-159293412D01*
X91710208Y-159293414D01*
X91678695Y-159411023D01*
X91676100Y-159420708D01*
X91676100Y-159552491D01*
X91710208Y-159679787D01*
X91743154Y-159736850D01*
X91776100Y-159793914D01*
X91869286Y-159887100D01*
X91983414Y-159952992D01*
X92110708Y-159987100D01*
X92110710Y-159987100D01*
X92242490Y-159987100D01*
X92242492Y-159987100D01*
X92369786Y-159952992D01*
X92483914Y-159887100D01*
X92495319Y-159875695D01*
X92556642Y-159842210D01*
X92626334Y-159847194D01*
X92670681Y-159875695D01*
X92682086Y-159887100D01*
X92796214Y-159952992D01*
X92923508Y-159987100D01*
X92923510Y-159987100D01*
X93055290Y-159987100D01*
X93055292Y-159987100D01*
X93182586Y-159952992D01*
X93296714Y-159887100D01*
X93389900Y-159793914D01*
X93455792Y-159679786D01*
X93489900Y-159552492D01*
X93489900Y-159420708D01*
X93455792Y-159293414D01*
X93450813Y-159284791D01*
X93444190Y-159273319D01*
X93390484Y-159180297D01*
X93374012Y-159112401D01*
X93390485Y-159056300D01*
X93455792Y-158943186D01*
X93489900Y-158815892D01*
X93489900Y-158684108D01*
X93455792Y-158556814D01*
X93454279Y-158554194D01*
X93412589Y-158481984D01*
X93397817Y-158456399D01*
X93381344Y-158388501D01*
X93397818Y-158332399D01*
X93400639Y-158327514D01*
X93455792Y-158231986D01*
X93489900Y-158104692D01*
X93489900Y-157972908D01*
X93476288Y-157922108D01*
X97238700Y-157922108D01*
X97238700Y-158053892D01*
X97262464Y-158142583D01*
X97272809Y-158181188D01*
X97272809Y-158181189D01*
X97330782Y-158281600D01*
X97347255Y-158349500D01*
X97330782Y-158405600D01*
X97272809Y-158506010D01*
X97272809Y-158506011D01*
X97272808Y-158506013D01*
X97272808Y-158506014D01*
X97238700Y-158633308D01*
X97238700Y-158765092D01*
X97262166Y-158852670D01*
X97272809Y-158892388D01*
X97272809Y-158892389D01*
X97338114Y-159005500D01*
X97354587Y-159073400D01*
X97338114Y-159129500D01*
X97272809Y-159242610D01*
X97272809Y-159242611D01*
X97272809Y-159242612D01*
X97272808Y-159242614D01*
X97259197Y-159293411D01*
X97238700Y-159369908D01*
X97238700Y-159501691D01*
X97272808Y-159628987D01*
X97302137Y-159679786D01*
X97338700Y-159743114D01*
X97431886Y-159836300D01*
X97500120Y-159875695D01*
X97508699Y-159880648D01*
X97556915Y-159931214D01*
X97570700Y-159988035D01*
X97570700Y-160111292D01*
X97587754Y-160174939D01*
X97604808Y-160238587D01*
X97637754Y-160295650D01*
X97670700Y-160352714D01*
X97670702Y-160352716D01*
X97684381Y-160366395D01*
X97717866Y-160427718D01*
X97720700Y-160454076D01*
X97720700Y-160626743D01*
X97744586Y-160715887D01*
X97744587Y-160715890D01*
X97790727Y-160795808D01*
X97790731Y-160795813D01*
X99358981Y-162364063D01*
X99392466Y-162425386D01*
X99395300Y-162451744D01*
X99395300Y-163481055D01*
X99386656Y-163510491D01*
X99380133Y-163540481D01*
X99376377Y-163545498D01*
X99375615Y-163548094D01*
X99358982Y-163568736D01*
X99288938Y-163638781D01*
X99227615Y-163672266D01*
X99201256Y-163675100D01*
X99171908Y-163675100D01*
X99044612Y-163709208D01*
X98930486Y-163775100D01*
X98930483Y-163775102D01*
X98837302Y-163868283D01*
X98837300Y-163868286D01*
X98771408Y-163982412D01*
X98737300Y-164109708D01*
X98737300Y-164241491D01*
X98771408Y-164368787D01*
X98804354Y-164425850D01*
X98837300Y-164482914D01*
X98930486Y-164576100D01*
X99044614Y-164641992D01*
X99171908Y-164676100D01*
X99171910Y-164676100D01*
X99303690Y-164676100D01*
X99303692Y-164676100D01*
X99430986Y-164641992D01*
X99545114Y-164576100D01*
X99638300Y-164482914D01*
X99704192Y-164368786D01*
X99738300Y-164241492D01*
X99738300Y-164232143D01*
X99757985Y-164165104D01*
X99774619Y-164144462D01*
X99852558Y-164066523D01*
X99912358Y-164006723D01*
X122867395Y-164006723D01*
X122867395Y-164138506D01*
X122901503Y-164265802D01*
X122924393Y-164305447D01*
X122967395Y-164379929D01*
X122967397Y-164379931D01*
X123030078Y-164442612D01*
X123063563Y-164503935D01*
X123062172Y-164562385D01*
X123028533Y-164687930D01*
X123028533Y-164819715D01*
X123062641Y-164947011D01*
X123075213Y-164968786D01*
X123128533Y-165061138D01*
X123221719Y-165154324D01*
X123221725Y-165154327D01*
X123224701Y-165156611D01*
X123226582Y-165159187D01*
X123227466Y-165160071D01*
X123227328Y-165160208D01*
X123265905Y-165213038D01*
X123270062Y-165282784D01*
X123268992Y-165287081D01*
X123248300Y-165364306D01*
X123248300Y-165364308D01*
X123248300Y-165496092D01*
X123255029Y-165521205D01*
X123282408Y-165623387D01*
X123305504Y-165663389D01*
X123348300Y-165737514D01*
X123441486Y-165830700D01*
X123555614Y-165896592D01*
X123682908Y-165930700D01*
X123682910Y-165930700D01*
X123814690Y-165930700D01*
X123814692Y-165930700D01*
X123941986Y-165896592D01*
X124056114Y-165830700D01*
X124149300Y-165737514D01*
X124149300Y-165737513D01*
X124155047Y-165731767D01*
X124156514Y-165733234D01*
X124203999Y-165698559D01*
X124273744Y-165694401D01*
X124277995Y-165695458D01*
X124348646Y-165714389D01*
X124348649Y-165714389D01*
X124480428Y-165714389D01*
X124480430Y-165714389D01*
X124607724Y-165680281D01*
X124721852Y-165614389D01*
X124815038Y-165521203D01*
X124880930Y-165407075D01*
X124915038Y-165279781D01*
X124915038Y-165147997D01*
X124880930Y-165020703D01*
X124815038Y-164906575D01*
X124721852Y-164813389D01*
X124721849Y-164813387D01*
X124718868Y-164811100D01*
X124716986Y-164808523D01*
X124716105Y-164807642D01*
X124716242Y-164807504D01*
X124677664Y-164754672D01*
X124673509Y-164684927D01*
X124674557Y-164680709D01*
X124695272Y-164603403D01*
X124695272Y-164471619D01*
X124661164Y-164344325D01*
X124595272Y-164230197D01*
X124502086Y-164137011D01*
X124496339Y-164131264D01*
X124498083Y-164129519D01*
X124464225Y-164083139D01*
X124460078Y-164013392D01*
X124461126Y-164009179D01*
X124479691Y-163939895D01*
X124479691Y-163808111D01*
X124445583Y-163680817D01*
X124379691Y-163566689D01*
X124286505Y-163473503D01*
X124210602Y-163429680D01*
X124172378Y-163407611D01*
X124108730Y-163390557D01*
X124045083Y-163373503D01*
X123913299Y-163373503D01*
X123786003Y-163407611D01*
X123671877Y-163473503D01*
X123594412Y-163550968D01*
X123533088Y-163584452D01*
X123474639Y-163583061D01*
X123433788Y-163572115D01*
X123433787Y-163572115D01*
X123302003Y-163572115D01*
X123174707Y-163606223D01*
X123060581Y-163672115D01*
X123060578Y-163672117D01*
X122967397Y-163765298D01*
X122967395Y-163765301D01*
X122901503Y-163879427D01*
X122867395Y-164006723D01*
X99912358Y-164006723D01*
X100026269Y-163892812D01*
X100072414Y-163812888D01*
X100075226Y-163802393D01*
X100096300Y-163723744D01*
X100096300Y-162209056D01*
X100072414Y-162119912D01*
X100026270Y-162039988D01*
X98490407Y-160504125D01*
X98456922Y-160442802D01*
X98461906Y-160373110D01*
X98470701Y-160354443D01*
X98471698Y-160352715D01*
X98471700Y-160352714D01*
X98537592Y-160238586D01*
X98570600Y-160115399D01*
X114807395Y-160115399D01*
X114807395Y-160115400D01*
X114807395Y-160124098D01*
X114813546Y-160130249D01*
X114822244Y-160130249D01*
X114828395Y-160124098D01*
X114828395Y-160115400D01*
X114822244Y-160109249D01*
X114813546Y-160109249D01*
X114813545Y-160109249D01*
X114807395Y-160115399D01*
X98570600Y-160115399D01*
X98571700Y-160111292D01*
X98571700Y-160023408D01*
X98591385Y-159956369D01*
X98644189Y-159910614D01*
X98663612Y-159903632D01*
X98664927Y-159903279D01*
X98668986Y-159902192D01*
X98783114Y-159836300D01*
X98876300Y-159743114D01*
X98942192Y-159628986D01*
X98976300Y-159501692D01*
X98976300Y-159369908D01*
X98942192Y-159242614D01*
X98941960Y-159242213D01*
X98906215Y-159180301D01*
X98876884Y-159129497D01*
X98860412Y-159061601D01*
X98876885Y-159005500D01*
X98942192Y-158892386D01*
X98976300Y-158765092D01*
X98976300Y-158633308D01*
X98942192Y-158506014D01*
X98936513Y-158496178D01*
X98885460Y-158407752D01*
X98884217Y-158405599D01*
X98867744Y-158337701D01*
X98884218Y-158281599D01*
X98885874Y-158278732D01*
X98942192Y-158181186D01*
X98976300Y-158053892D01*
X98976300Y-157922108D01*
X98942192Y-157794814D01*
X98876300Y-157680686D01*
X98783114Y-157587500D01*
X98726050Y-157554554D01*
X98668987Y-157521608D01*
X98605339Y-157504554D01*
X98541692Y-157487500D01*
X98409908Y-157487500D01*
X98282614Y-157521608D01*
X98282613Y-157521608D01*
X98282611Y-157521609D01*
X98282610Y-157521609D01*
X98169500Y-157586914D01*
X98101600Y-157603387D01*
X98045500Y-157586914D01*
X97932389Y-157521609D01*
X97932386Y-157521608D01*
X97805092Y-157487500D01*
X97673308Y-157487500D01*
X97546012Y-157521608D01*
X97431886Y-157587500D01*
X97431883Y-157587502D01*
X97338702Y-157680683D01*
X97338700Y-157680686D01*
X97272808Y-157794812D01*
X97257660Y-157851346D01*
X97238700Y-157922108D01*
X93476288Y-157922108D01*
X93455792Y-157845614D01*
X93389900Y-157731486D01*
X93296714Y-157638300D01*
X93208730Y-157587502D01*
X93182587Y-157572408D01*
X93118939Y-157555354D01*
X93055292Y-157538300D01*
X92923508Y-157538300D01*
X92796212Y-157572408D01*
X92682086Y-157638300D01*
X92682083Y-157638302D01*
X92670681Y-157649705D01*
X92609358Y-157683190D01*
X92539666Y-157678206D01*
X92495319Y-157649705D01*
X92483916Y-157638302D01*
X92483914Y-157638300D01*
X92395930Y-157587502D01*
X92369787Y-157572408D01*
X92306139Y-157555354D01*
X92242492Y-157538300D01*
X92110708Y-157538300D01*
X91983412Y-157572408D01*
X91869286Y-157638300D01*
X91869283Y-157638302D01*
X91776102Y-157731483D01*
X91776100Y-157731486D01*
X91710208Y-157845612D01*
X91689711Y-157922110D01*
X91676100Y-157972908D01*
X79252449Y-157972908D01*
X79341183Y-157922108D01*
X79454614Y-157857169D01*
X79494045Y-157834594D01*
X79494061Y-157834585D01*
X79823421Y-157609404D01*
X79978622Y-157484070D01*
X79979011Y-157483756D01*
X79979010Y-157483755D01*
X80003619Y-157463875D01*
X82441691Y-155494489D01*
X82445341Y-155491653D01*
X82718352Y-155287652D01*
X82723047Y-155284314D01*
X82788509Y-155240053D01*
X82791379Y-155238169D01*
X83049199Y-155074283D01*
X83055137Y-155070742D01*
X83101396Y-155044890D01*
X83103170Y-155043920D01*
X83141853Y-155023251D01*
X83824924Y-155023251D01*
X83824924Y-155031949D01*
X83831075Y-155038100D01*
X83839773Y-155038100D01*
X83845924Y-155031949D01*
X83845924Y-155023251D01*
X83839773Y-155017100D01*
X83831075Y-155017100D01*
X83824924Y-155023251D01*
X83141853Y-155023251D01*
X83392882Y-154889121D01*
X83401338Y-154885002D01*
X83738090Y-154736540D01*
X83746747Y-154733107D01*
X84093750Y-154610463D01*
X84102641Y-154607694D01*
X84457876Y-154511582D01*
X84466970Y-154509486D01*
X84789699Y-154447842D01*
X84791669Y-154447485D01*
X84843896Y-154438528D01*
X84850782Y-154437546D01*
X85154288Y-154403030D01*
X85157646Y-154402697D01*
X85236504Y-154395984D01*
X85242221Y-154395632D01*
X85577900Y-154382958D01*
X85582403Y-154382788D01*
X85587081Y-154382700D01*
X107540578Y-154382700D01*
X107545389Y-154382792D01*
X107893457Y-154396310D01*
X107899153Y-154396664D01*
X107980197Y-154403602D01*
X107983956Y-154403983D01*
X108291748Y-154439988D01*
X108298338Y-154440941D01*
X108363402Y-154452163D01*
X108366042Y-154452650D01*
X108686833Y-154515705D01*
X108694254Y-154517404D01*
X108720922Y-154524389D01*
X108722493Y-154524814D01*
X109066068Y-154620538D01*
X109075209Y-154623471D01*
X109376138Y-154733099D01*
X109430769Y-154753001D01*
X109439676Y-154756643D01*
X109752277Y-154898871D01*
X109805145Y-154944550D01*
X109824924Y-155011562D01*
X109824924Y-155023251D01*
X109824924Y-155031949D01*
X109831075Y-155038100D01*
X109839773Y-155038100D01*
X109857459Y-155030773D01*
X109858079Y-155030435D01*
X109879544Y-155014528D01*
X109888274Y-155013945D01*
X109895953Y-155009753D01*
X109922599Y-155011657D01*
X109949259Y-155009880D01*
X109961253Y-155014420D01*
X109965645Y-155014734D01*
X109982264Y-155022372D01*
X110010739Y-155038100D01*
X110123934Y-155100620D01*
X110132171Y-155105596D01*
X110429940Y-155301645D01*
X110431501Y-155302690D01*
X110447481Y-155313570D01*
X110454164Y-155318121D01*
X110460389Y-155322649D01*
X110718609Y-155523010D01*
X110720817Y-155524765D01*
X110771919Y-155566360D01*
X110777026Y-155570752D01*
X111006358Y-155779115D01*
X111009166Y-155781747D01*
X111067605Y-155838253D01*
X111071620Y-155842319D01*
X111307024Y-156092170D01*
X111310248Y-156095592D01*
X111313450Y-156099125D01*
X112703172Y-157693844D01*
X112703171Y-157693844D01*
X112703180Y-157693853D01*
X112835402Y-157845612D01*
X112840394Y-157851341D01*
X112938012Y-157946075D01*
X113140498Y-158142580D01*
X113463869Y-158407749D01*
X113463873Y-158407752D01*
X113521643Y-158447550D01*
X113521642Y-158447550D01*
X113525263Y-158450045D01*
X113529895Y-158453744D01*
X113548018Y-158465720D01*
X113808259Y-158645001D01*
X113890597Y-158692107D01*
X113905439Y-158701915D01*
X113944550Y-158722975D01*
X113945933Y-158723766D01*
X114018166Y-158765091D01*
X114171247Y-158852670D01*
X114276515Y-158901725D01*
X114301770Y-158915324D01*
X114349238Y-158935613D01*
X114550305Y-159029310D01*
X114680463Y-159077189D01*
X114715680Y-159092243D01*
X114764254Y-159108012D01*
X114942786Y-159173687D01*
X115099994Y-159217011D01*
X115143818Y-159231239D01*
X115188742Y-159241469D01*
X115345951Y-159284794D01*
X115532917Y-159319846D01*
X115582717Y-159331187D01*
X115620677Y-159336299D01*
X115621654Y-159336482D01*
X115623782Y-159336882D01*
X115623803Y-159336885D01*
X115756984Y-159361854D01*
X115977669Y-159384386D01*
X116028823Y-159391277D01*
X116057474Y-159392534D01*
X116173015Y-159404331D01*
X116434168Y-159409074D01*
X116478525Y-159411023D01*
X116496274Y-159410202D01*
X116591141Y-159411926D01*
X116906498Y-159391266D01*
X116928182Y-159390266D01*
X116934053Y-159389461D01*
X117008440Y-159384588D01*
X117422001Y-159322507D01*
X117828935Y-159226116D01*
X118027185Y-159161238D01*
X118027186Y-159161239D01*
X118027661Y-159161083D01*
X118028137Y-159160928D01*
X118028136Y-159160927D01*
X118093653Y-159139593D01*
X118094008Y-159139379D01*
X118791065Y-158911360D01*
X120305059Y-158374321D01*
X121805320Y-157800036D01*
X123290933Y-157188853D01*
X124760989Y-156541148D01*
X126214592Y-155857315D01*
X127650853Y-155137772D01*
X129068895Y-154382958D01*
X130467853Y-153593335D01*
X131846872Y-152769384D01*
X133205110Y-151911609D01*
X134541738Y-151020534D01*
X135855938Y-150096702D01*
X137146909Y-149140678D01*
X138413863Y-148153047D01*
X139656025Y-147134409D01*
X140872637Y-146085389D01*
X142062956Y-145006627D01*
X143226255Y-143898781D01*
X144343969Y-142780394D01*
X152439317Y-142780394D01*
X152439317Y-142912178D01*
X152452456Y-142961214D01*
X152473425Y-143039473D01*
X152501736Y-143088508D01*
X152539317Y-143153600D01*
X152632503Y-143246786D01*
X152746631Y-143312678D01*
X152873925Y-143346786D01*
X152873927Y-143346786D01*
X152923974Y-143346786D01*
X152991013Y-143366471D01*
X153036768Y-143419275D01*
X153043748Y-143438691D01*
X153048789Y-143457504D01*
X153048789Y-143457505D01*
X153053942Y-143466430D01*
X153114682Y-143571634D01*
X153207868Y-143664820D01*
X153321996Y-143730712D01*
X153449290Y-143764820D01*
X153449292Y-143764820D01*
X153490519Y-143764820D01*
X153557558Y-143784505D01*
X153603313Y-143837309D01*
X153610293Y-143856724D01*
X153613202Y-143867582D01*
X153631215Y-143898781D01*
X153679095Y-143981711D01*
X153772281Y-144074897D01*
X153871116Y-144131960D01*
X153880710Y-144137499D01*
X153886409Y-144140789D01*
X154013703Y-144174897D01*
X154013705Y-144174897D01*
X154145485Y-144174897D01*
X154145487Y-144174897D01*
X154272781Y-144140789D01*
X154386909Y-144074897D01*
X154480095Y-143981711D01*
X154545987Y-143867583D01*
X154580095Y-143740289D01*
X154580095Y-143732844D01*
X154599780Y-143665805D01*
X154644710Y-143626872D01*
X154643547Y-143624856D01*
X154682663Y-143602272D01*
X154764714Y-143554900D01*
X154857900Y-143461714D01*
X154923792Y-143347586D01*
X154957900Y-143220292D01*
X154957900Y-143088508D01*
X154923792Y-142961214D01*
X154857900Y-142847086D01*
X154764714Y-142753900D01*
X154697537Y-142715115D01*
X154650587Y-142688008D01*
X154586939Y-142670954D01*
X154523292Y-142653900D01*
X154523291Y-142653900D01*
X154515232Y-142652839D01*
X154515577Y-142650216D01*
X154461082Y-142634215D01*
X154415327Y-142581411D01*
X154408348Y-142561998D01*
X154393028Y-142504823D01*
X154327136Y-142390695D01*
X154233950Y-142297509D01*
X154176886Y-142264563D01*
X154119823Y-142231617D01*
X154019425Y-142204716D01*
X153992528Y-142197509D01*
X153942482Y-142197509D01*
X153875443Y-142177824D01*
X153829688Y-142125020D01*
X153822706Y-142105599D01*
X153817667Y-142086791D01*
X153751775Y-141972663D01*
X153658589Y-141879477D01*
X153601525Y-141846531D01*
X153544462Y-141813585D01*
X153450498Y-141788408D01*
X153417167Y-141779477D01*
X153285383Y-141779477D01*
X153158087Y-141813585D01*
X153043961Y-141879477D01*
X153043958Y-141879479D01*
X152950777Y-141972660D01*
X152950775Y-141972663D01*
X152884883Y-142086789D01*
X152850775Y-142214085D01*
X152850775Y-142256840D01*
X152831090Y-142323879D01*
X152778286Y-142369634D01*
X152758871Y-142376614D01*
X152746631Y-142379893D01*
X152632503Y-142445786D01*
X152632500Y-142445788D01*
X152539319Y-142538969D01*
X152539317Y-142538972D01*
X152473425Y-142653098D01*
X152457003Y-142714388D01*
X152439317Y-142780394D01*
X144343969Y-142780394D01*
X144361824Y-142762528D01*
X145468969Y-141598561D01*
X146547015Y-140407592D01*
X147595302Y-139190348D01*
X148613190Y-137947573D01*
X149600059Y-136680025D01*
X149887493Y-136291397D01*
X157185922Y-136291397D01*
X157185922Y-136423181D01*
X157199061Y-136472217D01*
X157220030Y-136550476D01*
X157235177Y-136576710D01*
X157285922Y-136664603D01*
X157379108Y-136757789D01*
X157493236Y-136823681D01*
X157620530Y-136857789D01*
X157620532Y-136857789D01*
X157670579Y-136857789D01*
X157737618Y-136877474D01*
X157783373Y-136930278D01*
X157790353Y-136949694D01*
X157795394Y-136968507D01*
X157795394Y-136968508D01*
X157808719Y-136991587D01*
X157861287Y-137082637D01*
X157954473Y-137175823D01*
X158068601Y-137241715D01*
X158195895Y-137275823D01*
X158195897Y-137275823D01*
X158237124Y-137275823D01*
X158304163Y-137295508D01*
X158349918Y-137348312D01*
X158356898Y-137367727D01*
X158359807Y-137378585D01*
X158382798Y-137418406D01*
X158425700Y-137492714D01*
X158518886Y-137585900D01*
X158633014Y-137651792D01*
X158760308Y-137685900D01*
X158760310Y-137685900D01*
X158892090Y-137685900D01*
X158892092Y-137685900D01*
X159019386Y-137651792D01*
X159133514Y-137585900D01*
X159226700Y-137492714D01*
X159292592Y-137378586D01*
X159326700Y-137251292D01*
X159326700Y-137243847D01*
X159346385Y-137176808D01*
X159391315Y-137137875D01*
X159390152Y-137135859D01*
X159397191Y-137131795D01*
X159511319Y-137065903D01*
X159604505Y-136972717D01*
X159670397Y-136858589D01*
X159704505Y-136731295D01*
X159704505Y-136599511D01*
X159670397Y-136472217D01*
X159604505Y-136358089D01*
X159511319Y-136264903D01*
X159454255Y-136231957D01*
X159397192Y-136199011D01*
X159333544Y-136181957D01*
X159269897Y-136164903D01*
X159269896Y-136164903D01*
X159261837Y-136163842D01*
X159262182Y-136161219D01*
X159207687Y-136145218D01*
X159161932Y-136092414D01*
X159154953Y-136073001D01*
X159139633Y-136015826D01*
X159073741Y-135901698D01*
X158980555Y-135808512D01*
X158923491Y-135775566D01*
X158866428Y-135742620D01*
X158800996Y-135725088D01*
X158739133Y-135708512D01*
X158689087Y-135708512D01*
X158622048Y-135688827D01*
X158576293Y-135636023D01*
X158569311Y-135616602D01*
X158564272Y-135597794D01*
X158498380Y-135483666D01*
X158405194Y-135390480D01*
X158348130Y-135357534D01*
X158291067Y-135324588D01*
X158186642Y-135296608D01*
X158163772Y-135290480D01*
X158031988Y-135290480D01*
X157904692Y-135324588D01*
X157790566Y-135390480D01*
X157790563Y-135390482D01*
X157697382Y-135483663D01*
X157697380Y-135483666D01*
X157631488Y-135597792D01*
X157597380Y-135725088D01*
X157597380Y-135767843D01*
X157577695Y-135834882D01*
X157524891Y-135880637D01*
X157505476Y-135887617D01*
X157493236Y-135890896D01*
X157379108Y-135956789D01*
X157379105Y-135956791D01*
X157285924Y-136049972D01*
X157285922Y-136049975D01*
X157220030Y-136164101D01*
X157207857Y-136209534D01*
X157185922Y-136291397D01*
X149887493Y-136291397D01*
X150555304Y-135388478D01*
X151478344Y-134073721D01*
X152368614Y-132736557D01*
X153225571Y-131377802D01*
X154048690Y-129998287D01*
X154837471Y-128598854D01*
X155591430Y-127180357D01*
X156310108Y-125743663D01*
X156993065Y-124289648D01*
X157639885Y-122819202D01*
X158250172Y-121333222D01*
X158823554Y-119832615D01*
X159359680Y-118318298D01*
X159858224Y-116791195D01*
X160318881Y-115252240D01*
X160741369Y-113702371D01*
X161125430Y-112142536D01*
X161188761Y-111854876D01*
X161188868Y-111854438D01*
X161189279Y-111852523D01*
X161470830Y-110573687D01*
X161527643Y-110281414D01*
X161528104Y-110279170D01*
X161528541Y-110277143D01*
X161531146Y-110263397D01*
X161777359Y-108996783D01*
X161827856Y-108697727D01*
X161828961Y-108691904D01*
X161832953Y-108667545D01*
X162044828Y-107412785D01*
X162088385Y-107109331D01*
X162088725Y-107107124D01*
X162089943Y-107099696D01*
X162094762Y-107064909D01*
X162273074Y-105822662D01*
X162309761Y-105512809D01*
X162311328Y-105501501D01*
X162316386Y-105456856D01*
X162461959Y-104227384D01*
X162491285Y-103913435D01*
X162491518Y-103911184D01*
X162492978Y-103898305D01*
X162497735Y-103844385D01*
X162611366Y-102627926D01*
X162633303Y-102307830D01*
X162634781Y-102291093D01*
X162638733Y-102228603D01*
X162721205Y-101025265D01*
X162724783Y-100943456D01*
X168651650Y-100943456D01*
X168651650Y-101075240D01*
X168680438Y-101182680D01*
X168685759Y-101202536D01*
X168685759Y-101202537D01*
X168740497Y-101297346D01*
X168756970Y-101365246D01*
X168740497Y-101421346D01*
X168685760Y-101516153D01*
X168685760Y-101516154D01*
X168685759Y-101516156D01*
X168685759Y-101516157D01*
X168651651Y-101643451D01*
X168651651Y-101775235D01*
X168665395Y-101826527D01*
X168685759Y-101902530D01*
X168685767Y-101902543D01*
X168751651Y-102016657D01*
X168844837Y-102109843D01*
X168904934Y-102144540D01*
X168958961Y-102175733D01*
X168958965Y-102175735D01*
X169086259Y-102209843D01*
X169086261Y-102209843D01*
X169218041Y-102209843D01*
X169218043Y-102209843D01*
X169345337Y-102175735D01*
X169445737Y-102117768D01*
X169513636Y-102101295D01*
X169569733Y-102117766D01*
X169670153Y-102175744D01*
X169797447Y-102209852D01*
X169797449Y-102209852D01*
X169929229Y-102209852D01*
X169929231Y-102209852D01*
X170056525Y-102175744D01*
X170150163Y-102121681D01*
X170218062Y-102105208D01*
X170274160Y-102121680D01*
X170354016Y-102167784D01*
X170367798Y-102175742D01*
X170367809Y-102175748D01*
X170495103Y-102209856D01*
X170495105Y-102209856D01*
X170626885Y-102209856D01*
X170626887Y-102209856D01*
X170754181Y-102175748D01*
X170868309Y-102109856D01*
X170961495Y-102016670D01*
X171027387Y-101902542D01*
X171061495Y-101775248D01*
X171061495Y-101643464D01*
X171027387Y-101516170D01*
X170989172Y-101449980D01*
X170972700Y-101382083D01*
X170989174Y-101325981D01*
X170994555Y-101316662D01*
X171027392Y-101259786D01*
X171061500Y-101132492D01*
X171061500Y-101000708D01*
X171027392Y-100873414D01*
X170961500Y-100759286D01*
X170868314Y-100666100D01*
X170811250Y-100633154D01*
X170754187Y-100600208D01*
X170690539Y-100583154D01*
X170626892Y-100566100D01*
X170495108Y-100566100D01*
X170367814Y-100600208D01*
X170367813Y-100600208D01*
X170367811Y-100600209D01*
X170367808Y-100600210D01*
X170319741Y-100627961D01*
X170251841Y-100644432D01*
X170185814Y-100621579D01*
X170171829Y-100609748D01*
X170170658Y-100608850D01*
X170170656Y-100608848D01*
X170113592Y-100575902D01*
X170056529Y-100542956D01*
X169992881Y-100525902D01*
X169929234Y-100508848D01*
X169797450Y-100508848D01*
X169670156Y-100542956D01*
X169670155Y-100542956D01*
X169670153Y-100542957D01*
X169670152Y-100542957D01*
X169569746Y-100600927D01*
X169501846Y-100617400D01*
X169445746Y-100600927D01*
X169345339Y-100542957D01*
X169345336Y-100542956D01*
X169218042Y-100508848D01*
X169086258Y-100508848D01*
X168958962Y-100542956D01*
X168844836Y-100608848D01*
X168844833Y-100608850D01*
X168751652Y-100702031D01*
X168751650Y-100702034D01*
X168685758Y-100816160D01*
X168665341Y-100892360D01*
X168651650Y-100943456D01*
X162724783Y-100943456D01*
X162735369Y-100701451D01*
X162735497Y-100699089D01*
X162736649Y-100680882D01*
X162737216Y-100666100D01*
X162739361Y-100610200D01*
X162791408Y-99420379D01*
X162797672Y-99090750D01*
X162798523Y-99068589D01*
X162799584Y-98990155D01*
X162821932Y-97814248D01*
X162820030Y-97481217D01*
X162820038Y-97479109D01*
X162820361Y-97455282D01*
X162819393Y-97369603D01*
X162812760Y-96207853D01*
X162802461Y-95869439D01*
X162802151Y-95841930D01*
X162798808Y-95749417D01*
X162763896Y-94602176D01*
X162745053Y-94260776D01*
X162744949Y-94258467D01*
X162743905Y-94229545D01*
X162743223Y-94218368D01*
X162737871Y-94130637D01*
X162675370Y-92998196D01*
X162672323Y-92960113D01*
X168612699Y-92960113D01*
X168612699Y-93091897D01*
X168642444Y-93202909D01*
X168646808Y-93219193D01*
X168646808Y-93219194D01*
X168701546Y-93314003D01*
X168718019Y-93381903D01*
X168701546Y-93438003D01*
X168646809Y-93532810D01*
X168646809Y-93532811D01*
X168646808Y-93532813D01*
X168646808Y-93532814D01*
X168612700Y-93660108D01*
X168612700Y-93791892D01*
X168614937Y-93800241D01*
X168646808Y-93919187D01*
X168646816Y-93919200D01*
X168712700Y-94033314D01*
X168805886Y-94126500D01*
X168879394Y-94168940D01*
X168920010Y-94192390D01*
X168920014Y-94192392D01*
X169047308Y-94226500D01*
X169047310Y-94226500D01*
X169179090Y-94226500D01*
X169179092Y-94226500D01*
X169306386Y-94192392D01*
X169406786Y-94134425D01*
X169474685Y-94117952D01*
X169530782Y-94134423D01*
X169631202Y-94192401D01*
X169758496Y-94226509D01*
X169758498Y-94226509D01*
X169890278Y-94226509D01*
X169890280Y-94226509D01*
X170017574Y-94192401D01*
X170111212Y-94138338D01*
X170179111Y-94121865D01*
X170235209Y-94138337D01*
X170288216Y-94168940D01*
X170328847Y-94192399D01*
X170328858Y-94192405D01*
X170456152Y-94226513D01*
X170456154Y-94226513D01*
X170587934Y-94226513D01*
X170587936Y-94226513D01*
X170715230Y-94192405D01*
X170829358Y-94126513D01*
X170922544Y-94033327D01*
X170988436Y-93919199D01*
X171022544Y-93791905D01*
X171022544Y-93660121D01*
X170988436Y-93532827D01*
X170950221Y-93466637D01*
X170933749Y-93398740D01*
X170950223Y-93342638D01*
X170955604Y-93333319D01*
X170988441Y-93276443D01*
X171022549Y-93149149D01*
X171022549Y-93017365D01*
X170988441Y-92890071D01*
X170922549Y-92775943D01*
X170829363Y-92682757D01*
X170772299Y-92649811D01*
X170715236Y-92616865D01*
X170651588Y-92599811D01*
X170587941Y-92582757D01*
X170456157Y-92582757D01*
X170328863Y-92616865D01*
X170328862Y-92616865D01*
X170328860Y-92616866D01*
X170328857Y-92616867D01*
X170280790Y-92644618D01*
X170212890Y-92661089D01*
X170146863Y-92638236D01*
X170132878Y-92626405D01*
X170131707Y-92625507D01*
X170131705Y-92625505D01*
X170074641Y-92592559D01*
X170017578Y-92559613D01*
X169953930Y-92542559D01*
X169890283Y-92525505D01*
X169758499Y-92525505D01*
X169631205Y-92559613D01*
X169631204Y-92559613D01*
X169631202Y-92559614D01*
X169631201Y-92559614D01*
X169530795Y-92617584D01*
X169462895Y-92634057D01*
X169406795Y-92617584D01*
X169306388Y-92559614D01*
X169306385Y-92559613D01*
X169179091Y-92525505D01*
X169047307Y-92525505D01*
X168920011Y-92559613D01*
X168805885Y-92625505D01*
X168805882Y-92625507D01*
X168712701Y-92718688D01*
X168712699Y-92718691D01*
X168646807Y-92832817D01*
X168624315Y-92916760D01*
X168612699Y-92960113D01*
X162672323Y-92960113D01*
X162647649Y-92651769D01*
X162645655Y-92619066D01*
X162636657Y-92514408D01*
X162547236Y-91396893D01*
X162510607Y-91047862D01*
X162510415Y-91045845D01*
X162507466Y-91011539D01*
X162495238Y-90901405D01*
X162495224Y-90901275D01*
X162379573Y-89799246D01*
X162333620Y-89445761D01*
X162329422Y-89407938D01*
X162313731Y-89292765D01*
X162172484Y-88206229D01*
X162117281Y-87850576D01*
X162116975Y-87848473D01*
X162111632Y-87809250D01*
X162092340Y-87689870D01*
X162092219Y-87689108D01*
X161948794Y-86765073D01*
X161926093Y-86618816D01*
X161926092Y-86618811D01*
X161926089Y-86618791D01*
X161879810Y-86362579D01*
X161861129Y-86259157D01*
X161854230Y-86216459D01*
X161831045Y-86092601D01*
X161640553Y-85037976D01*
X161566029Y-84676675D01*
X161565594Y-84674457D01*
X161557378Y-84630563D01*
X161557375Y-84630548D01*
X161530175Y-84502849D01*
X161316037Y-83464675D01*
X161231333Y-83099836D01*
X161221250Y-83052493D01*
X161189931Y-82921506D01*
X160952743Y-81899873D01*
X160858149Y-81533751D01*
X160857701Y-81531947D01*
X160846062Y-81483267D01*
X160810582Y-81349629D01*
X160810372Y-81348829D01*
X160714584Y-80978085D01*
X160550894Y-80344526D01*
X160445765Y-79975529D01*
X160432042Y-79923836D01*
X160392131Y-79787275D01*
X160110735Y-78799583D01*
X160103105Y-78775113D01*
X159995492Y-78429996D01*
X159994866Y-78427925D01*
X159979446Y-78375161D01*
X159935088Y-78236278D01*
X159935017Y-78236055D01*
X159632534Y-77265988D01*
X159506365Y-76893974D01*
X159488551Y-76838197D01*
X159439664Y-76697302D01*
X159116583Y-75744679D01*
X158980057Y-75372617D01*
X158979371Y-75370695D01*
X158959662Y-75313890D01*
X158906197Y-75171330D01*
X158563199Y-74236583D01*
X158415421Y-73862694D01*
X158393102Y-73803179D01*
X158335044Y-73659334D01*
X158334864Y-73658878D01*
X158026700Y-72879200D01*
X157972718Y-72742621D01*
X157814329Y-72369157D01*
X157813577Y-72367337D01*
X157789222Y-72306995D01*
X157726677Y-72162475D01*
X157726431Y-72161902D01*
X157345501Y-71263707D01*
X157175611Y-70889153D01*
X157148393Y-70826260D01*
X157081117Y-70680825D01*
X156681931Y-69800743D01*
X156501281Y-69427284D01*
X156500399Y-69425419D01*
X156471020Y-69361906D01*
X156399243Y-69216333D01*
X156398833Y-69215492D01*
X156392487Y-69202372D01*
X155982414Y-68354623D01*
X155789960Y-67980628D01*
X155757492Y-67914777D01*
X155680987Y-67768862D01*
X155680853Y-67768601D01*
X155680806Y-67768510D01*
X155580975Y-67574509D01*
X155247377Y-66926229D01*
X155044002Y-66553922D01*
X155043062Y-66552168D01*
X155008276Y-66485821D01*
X154927380Y-66340424D01*
X154927006Y-66339745D01*
X154821622Y-66146825D01*
X154536789Y-65625396D01*
X154477271Y-65516440D01*
X154262443Y-65145272D01*
X154261901Y-65144336D01*
X154223826Y-65075902D01*
X154138198Y-64930609D01*
X154137960Y-64930198D01*
X154075205Y-64821774D01*
X153672558Y-64126101D01*
X153446095Y-63756224D01*
X153445062Y-63754503D01*
X153404624Y-63685888D01*
X153314872Y-63541892D01*
X153314351Y-63541050D01*
X152833738Y-62756075D01*
X152595684Y-62388011D01*
X152594646Y-62386377D01*
X152551173Y-62316630D01*
X152456794Y-62173265D01*
X152456613Y-62172987D01*
X152143591Y-61689011D01*
X151961327Y-61407204D01*
X151882060Y-61291046D01*
X151711489Y-61041088D01*
X151710519Y-61039640D01*
X151664002Y-60968979D01*
X151565462Y-60827090D01*
X151564929Y-60826316D01*
X151508968Y-60744310D01*
X151055839Y-60080285D01*
X150794249Y-59716587D01*
X150793230Y-59715144D01*
X150743656Y-59643762D01*
X150640824Y-59503269D01*
X150640414Y-59502703D01*
X150117845Y-58776155D01*
X150109840Y-58765587D01*
X150017363Y-58643494D01*
X149844534Y-58415315D01*
X149843401Y-58413793D01*
X149821898Y-58384415D01*
X157192578Y-58384415D01*
X157192578Y-58516199D01*
X157197627Y-58535041D01*
X157226686Y-58643494D01*
X157258525Y-58698640D01*
X157292578Y-58757621D01*
X157385764Y-58850807D01*
X157499892Y-58916699D01*
X157499897Y-58916700D01*
X157507399Y-58919808D01*
X157506590Y-58921761D01*
X157556682Y-58952287D01*
X157587217Y-59015131D01*
X157587874Y-59019513D01*
X157588292Y-59022693D01*
X157622402Y-59149994D01*
X157646952Y-59192515D01*
X157688294Y-59264121D01*
X157781480Y-59357307D01*
X157895608Y-59423199D01*
X158022902Y-59457307D01*
X158022904Y-59457307D01*
X158154684Y-59457307D01*
X158154686Y-59457307D01*
X158281980Y-59423199D01*
X158396108Y-59357307D01*
X158489294Y-59264121D01*
X158555186Y-59149993D01*
X158555187Y-59149987D01*
X158555412Y-59149448D01*
X158555724Y-59149059D01*
X158559250Y-59142954D01*
X158560202Y-59143503D01*
X158599252Y-59095044D01*
X158665546Y-59072979D01*
X158669973Y-59072900D01*
X158739690Y-59072900D01*
X158739692Y-59072900D01*
X158866986Y-59038792D01*
X158981114Y-58972900D01*
X159074300Y-58879714D01*
X159140192Y-58765586D01*
X159150545Y-58726946D01*
X159186911Y-58667287D01*
X159249758Y-58636758D01*
X159270320Y-58635041D01*
X159300124Y-58635041D01*
X159300126Y-58635041D01*
X159427420Y-58600933D01*
X159541548Y-58535041D01*
X159634734Y-58441855D01*
X159700626Y-58327727D01*
X159734734Y-58200433D01*
X159734734Y-58068649D01*
X159700626Y-57941355D01*
X159634734Y-57827227D01*
X159541548Y-57734041D01*
X159446369Y-57679089D01*
X159427419Y-57668148D01*
X159395674Y-57659642D01*
X159336014Y-57623277D01*
X159305486Y-57560429D01*
X159303769Y-57539868D01*
X159303769Y-57517051D01*
X159303769Y-57517049D01*
X159269661Y-57389755D01*
X159203769Y-57275627D01*
X159110583Y-57182441D01*
X159033438Y-57137901D01*
X158996456Y-57116549D01*
X158932808Y-57099495D01*
X158869161Y-57082441D01*
X158737377Y-57082441D01*
X158610081Y-57116549D01*
X158495955Y-57182441D01*
X158495952Y-57182443D01*
X158402771Y-57275624D01*
X158402769Y-57275627D01*
X158336877Y-57389754D01*
X158336877Y-57389755D01*
X158326526Y-57428385D01*
X158290163Y-57488045D01*
X158227316Y-57518575D01*
X158206752Y-57520292D01*
X158176947Y-57520292D01*
X158049651Y-57554400D01*
X157935525Y-57620292D01*
X157935522Y-57620294D01*
X157842341Y-57713475D01*
X157842337Y-57713481D01*
X157776448Y-57827603D01*
X157776447Y-57827604D01*
X157768330Y-57857901D01*
X157731965Y-57917561D01*
X157669118Y-57948090D01*
X157648555Y-57949807D01*
X157627186Y-57949807D01*
X157499890Y-57983915D01*
X157385764Y-58049807D01*
X157385761Y-58049809D01*
X157292580Y-58142990D01*
X157292578Y-58142993D01*
X157226686Y-58257119D01*
X157207767Y-58327727D01*
X157192578Y-58384415D01*
X149821898Y-58384415D01*
X149790710Y-58341804D01*
X149683750Y-58203033D01*
X149683116Y-58202203D01*
X149147922Y-57495612D01*
X148862800Y-57137901D01*
X148861610Y-57136384D01*
X148805728Y-57063882D01*
X148694672Y-56926964D01*
X148694146Y-56926310D01*
X148482425Y-56660687D01*
X148202753Y-56309813D01*
X148146634Y-56239406D01*
X147849708Y-55885209D01*
X147848432Y-55883661D01*
X147789345Y-55810815D01*
X147674457Y-55676147D01*
X147673765Y-55675329D01*
X147114611Y-55008324D01*
X146805835Y-54657955D01*
X146804529Y-54656449D01*
X146742165Y-54583348D01*
X146623360Y-54450892D01*
X146622640Y-54450082D01*
X146052510Y-53803152D01*
X146011517Y-53758892D01*
X145923273Y-53663614D01*
X145731833Y-53456914D01*
X145730500Y-53455451D01*
X145664863Y-53382273D01*
X145664847Y-53382256D01*
X145542373Y-53252347D01*
X145541689Y-53251615D01*
X144960916Y-52624551D01*
X144634479Y-52289117D01*
X144628429Y-52282900D01*
X144627085Y-52281498D01*
X144612569Y-52266101D01*
X144558050Y-52208272D01*
X144558042Y-52208264D01*
X144558027Y-52208248D01*
X144432019Y-52081068D01*
X144431239Y-52080274D01*
X144412314Y-52060827D01*
X144412313Y-52060826D01*
X144336062Y-51982474D01*
X152389509Y-51982474D01*
X152389509Y-52114258D01*
X152394558Y-52133100D01*
X152423617Y-52241553D01*
X152437790Y-52266101D01*
X152489509Y-52355680D01*
X152582695Y-52448866D01*
X152696823Y-52514758D01*
X152696828Y-52514759D01*
X152704330Y-52517867D01*
X152703521Y-52519820D01*
X152753613Y-52550346D01*
X152784148Y-52613190D01*
X152784805Y-52617572D01*
X152785223Y-52620752D01*
X152819333Y-52748053D01*
X152852279Y-52805116D01*
X152885225Y-52862180D01*
X152978411Y-52955366D01*
X153059701Y-53002299D01*
X153089360Y-53019423D01*
X153092539Y-53021258D01*
X153219833Y-53055366D01*
X153219835Y-53055366D01*
X153351615Y-53055366D01*
X153351617Y-53055366D01*
X153478911Y-53021258D01*
X153593039Y-52955366D01*
X153686225Y-52862180D01*
X153752117Y-52748052D01*
X153752118Y-52748046D01*
X153752343Y-52747507D01*
X153752655Y-52747118D01*
X153756181Y-52741013D01*
X153757133Y-52741562D01*
X153796183Y-52693103D01*
X153862477Y-52671038D01*
X153866904Y-52670959D01*
X153936621Y-52670959D01*
X153936623Y-52670959D01*
X154063917Y-52636851D01*
X154178045Y-52570959D01*
X154271231Y-52477773D01*
X154337123Y-52363645D01*
X154347476Y-52325005D01*
X154383842Y-52265346D01*
X154446689Y-52234817D01*
X154467251Y-52233100D01*
X154497055Y-52233100D01*
X154497057Y-52233100D01*
X154624351Y-52198992D01*
X154738479Y-52133100D01*
X154831665Y-52039914D01*
X154897557Y-51925786D01*
X154931665Y-51798492D01*
X154931665Y-51666708D01*
X154897557Y-51539414D01*
X154831665Y-51425286D01*
X154738479Y-51332100D01*
X154636453Y-51273195D01*
X154624350Y-51266207D01*
X154592605Y-51257701D01*
X154532945Y-51221336D01*
X154502417Y-51158488D01*
X154500700Y-51137927D01*
X154500700Y-51115110D01*
X154500700Y-51115108D01*
X154466592Y-50987814D01*
X154400700Y-50873686D01*
X154307514Y-50780500D01*
X154250450Y-50747554D01*
X154193387Y-50714608D01*
X154129739Y-50697554D01*
X154066092Y-50680500D01*
X153934308Y-50680500D01*
X153807012Y-50714608D01*
X153692886Y-50780500D01*
X153692883Y-50780502D01*
X153599702Y-50873683D01*
X153599700Y-50873686D01*
X153533808Y-50987813D01*
X153533808Y-50987814D01*
X153523457Y-51026444D01*
X153487094Y-51086104D01*
X153424247Y-51116634D01*
X153403683Y-51118351D01*
X153373878Y-51118351D01*
X153246582Y-51152459D01*
X153132456Y-51218351D01*
X153132453Y-51218353D01*
X153039272Y-51311534D01*
X153039268Y-51311540D01*
X152973379Y-51425662D01*
X152973378Y-51425663D01*
X152965261Y-51455960D01*
X152928896Y-51515620D01*
X152866049Y-51546149D01*
X152845486Y-51547866D01*
X152824117Y-51547866D01*
X152696821Y-51581974D01*
X152582695Y-51647866D01*
X152582692Y-51647868D01*
X152489511Y-51741049D01*
X152489509Y-51741052D01*
X152423617Y-51855178D01*
X152404698Y-51925786D01*
X152389509Y-51982474D01*
X144336062Y-51982474D01*
X144010429Y-51647866D01*
X143840559Y-51473314D01*
X143496218Y-51136546D01*
X143494897Y-51135234D01*
X143422457Y-51062120D01*
X143292887Y-50937680D01*
X143292124Y-50936941D01*
X143227447Y-50873686D01*
X142692089Y-50350102D01*
X142335938Y-50018601D01*
X142334535Y-50017275D01*
X142258763Y-49944503D01*
X142125941Y-49823132D01*
X142125104Y-49822360D01*
X141909671Y-49621838D01*
X141516214Y-49255613D01*
X141148351Y-48929799D01*
X141146922Y-48928514D01*
X141067693Y-48856115D01*
X140931609Y-48737825D01*
X140930743Y-48737065D01*
X140313646Y-48190507D01*
X139938158Y-47874148D01*
X139934086Y-47870717D01*
X139932653Y-47869491D01*
X139849970Y-47797619D01*
X139710809Y-47682592D01*
X139709914Y-47681845D01*
X139085147Y-47155460D01*
X138693893Y-46842016D01*
X138692498Y-46840881D01*
X138606365Y-46769686D01*
X138464360Y-46658123D01*
X138463435Y-46657389D01*
X137831447Y-46151085D01*
X137831441Y-46151080D01*
X137831428Y-46151070D01*
X137428560Y-45844353D01*
X137427073Y-45843202D01*
X137337634Y-45772936D01*
X137192873Y-45664909D01*
X137191920Y-45664191D01*
X136553278Y-45177971D01*
X136138943Y-44878402D01*
X136137435Y-44877294D01*
X136123058Y-44866565D01*
X136044531Y-44807965D01*
X135947500Y-44739239D01*
X135897155Y-44703579D01*
X135896174Y-44702877D01*
X135662675Y-44534055D01*
X135251474Y-44236752D01*
X135092056Y-44127386D01*
X134825698Y-43944655D01*
X134824175Y-43943593D01*
X134727898Y-43875401D01*
X134578146Y-43774818D01*
X134577137Y-43774133D01*
X133926805Y-43327985D01*
X133489750Y-43043774D01*
X133488212Y-43042758D01*
X133388499Y-42975785D01*
X133236421Y-42879030D01*
X133235383Y-42878362D01*
X132580090Y-42452233D01*
X132131815Y-42176241D01*
X132130264Y-42175270D01*
X132027233Y-42109720D01*
X132027217Y-42109710D01*
X132027207Y-42109704D01*
X131872912Y-42016836D01*
X131871938Y-42016242D01*
X131212148Y-41610027D01*
X131127477Y-41560740D01*
X130752834Y-41342661D01*
X130751271Y-41341736D01*
X130644818Y-41277663D01*
X130488594Y-41188839D01*
X130487502Y-41188211D01*
X129823820Y-40801884D01*
X129823810Y-40801878D01*
X129659868Y-40711796D01*
X129353544Y-40543478D01*
X129351970Y-40542598D01*
X129242255Y-40480218D01*
X129084238Y-40395494D01*
X129083119Y-40394886D01*
X128415908Y-40028272D01*
X128112986Y-39871442D01*
X127934872Y-39779228D01*
X127933377Y-39778441D01*
X127820272Y-39717798D01*
X127820259Y-39717791D01*
X127660630Y-39637238D01*
X127659484Y-39636652D01*
X126989359Y-39289712D01*
X126497696Y-39050381D01*
X126496105Y-39049593D01*
X126438318Y-39020433D01*
X126379827Y-38990917D01*
X126323565Y-38964256D01*
X126218730Y-38914579D01*
X126217557Y-38914015D01*
X125544964Y-38586612D01*
X125042770Y-38357327D01*
X125041172Y-38356584D01*
X124921781Y-38300010D01*
X124759470Y-38227975D01*
X124758356Y-38227474D01*
X124459596Y-38091070D01*
X124083650Y-37919425D01*
X123571104Y-37700552D01*
X123569501Y-37699854D01*
X123447067Y-37645516D01*
X123283587Y-37577767D01*
X123282363Y-37577252D01*
X122606291Y-37288549D01*
X122083726Y-37080510D01*
X122082119Y-37079857D01*
X121997881Y-37044948D01*
X121956514Y-37027805D01*
X121850712Y-36987005D01*
X121792043Y-36964381D01*
X121790793Y-36963891D01*
X121113794Y-36694371D01*
X120581337Y-36497493D01*
X120579727Y-36496885D01*
X120451104Y-36447285D01*
X120285919Y-36388253D01*
X120284645Y-36387790D01*
X119607077Y-36137256D01*
X119064917Y-35951887D01*
X119063305Y-35951324D01*
X119011155Y-35932687D01*
X118931764Y-35904315D01*
X118931749Y-35904310D01*
X118765922Y-35849649D01*
X118764624Y-35849213D01*
X118087066Y-35617549D01*
X117535377Y-35444023D01*
X117533764Y-35443503D01*
X117399411Y-35399217D01*
X117233150Y-35348953D01*
X117231829Y-35348546D01*
X116554641Y-35135546D01*
X115993719Y-34974236D01*
X115992106Y-34973760D01*
X115854986Y-34932305D01*
X115688396Y-34886422D01*
X115687052Y-34886044D01*
X115010819Y-34691572D01*
X114770407Y-34628823D01*
X114440742Y-34542777D01*
X114439334Y-34542399D01*
X114395826Y-34530415D01*
X114299480Y-34503879D01*
X114132676Y-34462361D01*
X114131310Y-34462013D01*
X113648743Y-34336059D01*
X113456451Y-34285869D01*
X113382631Y-34268538D01*
X112877713Y-34149994D01*
X112876106Y-34149605D01*
X112733765Y-34114177D01*
X112567183Y-34077081D01*
X112565795Y-34076764D01*
X112121932Y-33972556D01*
X111892552Y-33918703D01*
X111892545Y-33918701D01*
X111892530Y-33918698D01*
X111305355Y-33796068D01*
X111303752Y-33795722D01*
X111158915Y-33763468D01*
X110992395Y-33730700D01*
X110990987Y-33730414D01*
X110320046Y-33590291D01*
X109724748Y-33481242D01*
X109723150Y-33480939D01*
X109575775Y-33451939D01*
X109409652Y-33423513D01*
X109408224Y-33423260D01*
X108739935Y-33300840D01*
X108136636Y-33205670D01*
X108135045Y-33205409D01*
X107985452Y-33179812D01*
X107819873Y-33155692D01*
X107818426Y-33155472D01*
X107153134Y-33050521D01*
X106542146Y-32969556D01*
X106540562Y-32969336D01*
X106388864Y-32947238D01*
X106223924Y-32927378D01*
X106222458Y-32927192D01*
X105560631Y-32839489D01*
X104942360Y-32773058D01*
X104940784Y-32772879D01*
X104786969Y-32754359D01*
X104622827Y-32738717D01*
X104621343Y-32738566D01*
X103963420Y-32667874D01*
X103338048Y-32616274D01*
X103336482Y-32616135D01*
X103180795Y-32601299D01*
X103017660Y-32589830D01*
X103016161Y-32589715D01*
X102362417Y-32535775D01*
X101730437Y-32499326D01*
X101728882Y-32499227D01*
X101571282Y-32488148D01*
X101409277Y-32480793D01*
X101407761Y-32480715D01*
X100758685Y-32443281D01*
X100120243Y-32422269D01*
X100118700Y-32422208D01*
X99959539Y-32414983D01*
X99798727Y-32411679D01*
X99797197Y-32411638D01*
X99153120Y-32390442D01*
X98508704Y-32385166D01*
X98507173Y-32385144D01*
X98349348Y-32381902D01*
X98346397Y-32381842D01*
X98346396Y-32381842D01*
X98187016Y-32382523D01*
X98185472Y-32382520D01*
X97581408Y-32377576D01*
X97546751Y-32377293D01*
X97546748Y-32377293D01*
X97546742Y-32377293D01*
X96896633Y-32388038D01*
X96895116Y-32388054D01*
X96742627Y-32388707D01*
X96732957Y-32388749D01*
X96696450Y-32389811D01*
X96575106Y-32393343D01*
X96573548Y-32393378D01*
X95940569Y-32403841D01*
X95285056Y-32430890D01*
X95283672Y-32430938D01*
X95178416Y-32434002D01*
X95120171Y-32435698D01*
X94964014Y-32444126D01*
X94962445Y-32444201D01*
X94496399Y-32463433D01*
X94335494Y-32470073D01*
X94335473Y-32470074D01*
X94335458Y-32470075D01*
X93675278Y-32513679D01*
X93673790Y-32513769D01*
X93509069Y-32522660D01*
X93354562Y-32534851D01*
X93352982Y-32534965D01*
X92732592Y-32575942D01*
X92732580Y-32575943D01*
X92732566Y-32575944D01*
X92581095Y-32589715D01*
X92067735Y-32636386D01*
X92066263Y-32636511D01*
X91900623Y-32649582D01*
X91748063Y-32665439D01*
X91746471Y-32665594D01*
X91132748Y-32721391D01*
X90463752Y-32798923D01*
X90462298Y-32799082D01*
X90295808Y-32816388D01*
X90145366Y-32835810D01*
X90143765Y-32836007D01*
X89536975Y-32906330D01*
X88864240Y-33001195D01*
X88862804Y-33001389D01*
X88695659Y-33022969D01*
X88695636Y-33022972D01*
X88651848Y-33029733D01*
X88547204Y-33045892D01*
X88545596Y-33046129D01*
X87946328Y-33130635D01*
X87270161Y-33243089D01*
X87268742Y-33243316D01*
X87101092Y-33269205D01*
X86954985Y-33295495D01*
X86953370Y-33295775D01*
X86517186Y-33368318D01*
X86361665Y-33394184D01*
X86265556Y-33412619D01*
X85682540Y-33524451D01*
X85681142Y-33524711D01*
X85513128Y-33554945D01*
X85369429Y-33584500D01*
X85367809Y-33584822D01*
X84783982Y-33696812D01*
X84102370Y-33845109D01*
X84100991Y-33845401D01*
X83932759Y-33880004D01*
X83791471Y-33912740D01*
X83789845Y-33913105D01*
X83214322Y-34038319D01*
X82530645Y-34204860D01*
X82529287Y-34205183D01*
X82360923Y-34244193D01*
X82222210Y-34279982D01*
X82220580Y-34280391D01*
X81800372Y-34382752D01*
X81653526Y-34418524D01*
X81653515Y-34418527D01*
X80968251Y-34603505D01*
X80966915Y-34603858D01*
X80798637Y-34647275D01*
X80662556Y-34686012D01*
X80660923Y-34686465D01*
X80102616Y-34837173D01*
X79416135Y-35040807D01*
X79414821Y-35041189D01*
X79246835Y-35089009D01*
X79113484Y-35130573D01*
X79111850Y-35131070D01*
X78562516Y-35294022D01*
X77875269Y-35516502D01*
X77873978Y-35516913D01*
X77706451Y-35569130D01*
X77575957Y-35613385D01*
X77574324Y-35613926D01*
X77034214Y-35788775D01*
X76346685Y-36030273D01*
X76345417Y-36030710D01*
X76178504Y-36087317D01*
X76050889Y-36134159D01*
X76049257Y-36134745D01*
X75518543Y-36321162D01*
X74831299Y-36581810D01*
X74830056Y-36582275D01*
X74663827Y-36643291D01*
X74539161Y-36692594D01*
X74537532Y-36693225D01*
X74016525Y-36890826D01*
X73329874Y-37170847D01*
X73328654Y-37171337D01*
X73163497Y-37236655D01*
X73041764Y-37288327D01*
X73040139Y-37289003D01*
X72529037Y-37497435D01*
X71843581Y-37796930D01*
X71842387Y-37797445D01*
X71678284Y-37867105D01*
X71559701Y-37920953D01*
X71558079Y-37921675D01*
X71057010Y-38140606D01*
X70373116Y-38459769D01*
X70371948Y-38460307D01*
X70209211Y-38534207D01*
X70093848Y-38590086D01*
X70092233Y-38590854D01*
X69601297Y-38819968D01*
X68919577Y-39158878D01*
X68918433Y-39159439D01*
X68757129Y-39237572D01*
X68644879Y-39295425D01*
X68643273Y-39296239D01*
X68162818Y-39535093D01*
X67483775Y-39893864D01*
X67482659Y-39894447D01*
X67322941Y-39976769D01*
X67214026Y-40036371D01*
X67212427Y-40037231D01*
X66742463Y-40285537D01*
X66066636Y-40664260D01*
X66065546Y-40664864D01*
X65907567Y-40751317D01*
X65801869Y-40812615D01*
X65800281Y-40813521D01*
X65341084Y-41070850D01*
X64668889Y-41469676D01*
X64667826Y-41470299D01*
X64511884Y-41560740D01*
X64409501Y-41623562D01*
X64407923Y-41624514D01*
X63959550Y-41890544D01*
X63291510Y-42309564D01*
X63290473Y-42310207D01*
X63136670Y-42404582D01*
X63037616Y-42468799D01*
X63036051Y-42469797D01*
X62598669Y-42744141D01*
X61935387Y-43183381D01*
X61934379Y-43184042D01*
X61782802Y-43282312D01*
X61687180Y-43347732D01*
X61685629Y-43348777D01*
X61259305Y-43631098D01*
X60601258Y-44090659D01*
X60600278Y-44091336D01*
X60451207Y-44193324D01*
X60358848Y-44259935D01*
X60357312Y-44261024D01*
X59942294Y-44550861D01*
X59289994Y-45030818D01*
X59289041Y-45031512D01*
X59142586Y-45137141D01*
X59053655Y-45204696D01*
X59052137Y-45205831D01*
X58648366Y-45502923D01*
X58002452Y-46003245D01*
X58001528Y-46003954D01*
X57857776Y-46113158D01*
X57772274Y-46181521D01*
X57770774Y-46182702D01*
X57378362Y-46486664D01*
X56739382Y-47007380D01*
X56738486Y-47008104D01*
X56597641Y-47120720D01*
X56515555Y-47189760D01*
X56514074Y-47190986D01*
X56204501Y-47443264D01*
X56133087Y-47501461D01*
X56033699Y-47586625D01*
X55501513Y-48042652D01*
X55500646Y-48043388D01*
X55362865Y-48159276D01*
X55284121Y-48228914D01*
X55282661Y-48230185D01*
X54913263Y-48546723D01*
X54289618Y-49108433D01*
X54288778Y-49109182D01*
X54154265Y-49228143D01*
X54078911Y-49298193D01*
X54077471Y-49299511D01*
X53719606Y-49621838D01*
X53104553Y-50203971D01*
X53103743Y-50204731D01*
X52972536Y-50326706D01*
X52900553Y-50397032D01*
X52899137Y-50398394D01*
X52552903Y-50726097D01*
X51947004Y-51328640D01*
X51946223Y-51329410D01*
X51818475Y-51454221D01*
X51749856Y-51524674D01*
X51748465Y-51526080D01*
X51413845Y-51858848D01*
X50817571Y-52481873D01*
X50816818Y-52482653D01*
X50692735Y-52610053D01*
X50627456Y-52680494D01*
X50626090Y-52681945D01*
X50303104Y-53019423D01*
X49717092Y-53662826D01*
X49716369Y-53663614D01*
X49596004Y-53793497D01*
X49534016Y-53863807D01*
X49532679Y-53865300D01*
X49221419Y-54207047D01*
X48646200Y-54870833D01*
X48645504Y-54871629D01*
X48529044Y-55003727D01*
X48470250Y-55073850D01*
X48468940Y-55075386D01*
X48169405Y-55421042D01*
X47605546Y-56105169D01*
X47604879Y-56105971D01*
X47492406Y-56240118D01*
X47436858Y-56309813D01*
X47435578Y-56311392D01*
X47147671Y-56660709D01*
X46595888Y-57364947D01*
X46595249Y-57365756D01*
X46486789Y-57501837D01*
X46434376Y-57571054D01*
X46433128Y-57572674D01*
X46156910Y-57925211D01*
X45617663Y-58649628D01*
X45617053Y-58650441D01*
X45512770Y-58788162D01*
X45463514Y-58856680D01*
X45462299Y-58858342D01*
X45197692Y-59213815D01*
X44671483Y-59958448D01*
X44670902Y-59959263D01*
X44571013Y-60098219D01*
X44524790Y-60166005D01*
X44523609Y-60167706D01*
X44270635Y-60525690D01*
X43758210Y-61290227D01*
X43757656Y-61291046D01*
X43662038Y-61431275D01*
X43618770Y-61498241D01*
X43617623Y-61499983D01*
X43376241Y-61860126D01*
X42878214Y-62644416D01*
X42878214Y-62644417D01*
X42877843Y-62645000D01*
X42786434Y-62786478D01*
X42745672Y-62853139D01*
X42745046Y-62854126D01*
X42745028Y-62854156D01*
X42515101Y-63216247D01*
X42031970Y-64020321D01*
X42031471Y-64021145D01*
X41944736Y-64162991D01*
X41907283Y-64227801D01*
X41906210Y-64229621D01*
X41687755Y-64593196D01*
X41220119Y-65416926D01*
X41219850Y-65417399D01*
X41137464Y-65559968D01*
X41102305Y-65624451D01*
X41101770Y-65625396D01*
X40894656Y-65990223D01*
X40443255Y-66833215D01*
X40442812Y-66834037D01*
X40365105Y-66976564D01*
X40333151Y-67038796D01*
X40332158Y-67040690D01*
X40136328Y-67406407D01*
X39701632Y-68268755D01*
X39701632Y-68268756D01*
X39701361Y-68269291D01*
X39628157Y-68411868D01*
X39598427Y-68473487D01*
X39597885Y-68474564D01*
X39597886Y-68474564D01*
X39413251Y-68840844D01*
X38995786Y-69722564D01*
X38995394Y-69723383D01*
X38927064Y-69865010D01*
X38900277Y-69924243D01*
X38899366Y-69926211D01*
X38725816Y-70292761D01*
X38326312Y-71193443D01*
X38326312Y-71193444D01*
X38326106Y-71193906D01*
X38262232Y-71335153D01*
X38237511Y-71393642D01*
X38237029Y-71394730D01*
X38074483Y-71761192D01*
X37693578Y-72680589D01*
X37693238Y-72681401D01*
X37634102Y-72821322D01*
X37612114Y-72877168D01*
X37611293Y-72879200D01*
X37459617Y-73245309D01*
X37097910Y-74183267D01*
X37097654Y-74183929D01*
X37043054Y-74322618D01*
X37023014Y-74377477D01*
X37022582Y-74378598D01*
X37022561Y-74378657D01*
X36881615Y-74744155D01*
X36539630Y-75700735D01*
X36539341Y-75701536D01*
X36489446Y-75838126D01*
X36471874Y-75890202D01*
X36471146Y-75892298D01*
X36377409Y-76154499D01*
X36340838Y-76256795D01*
X36340829Y-76256821D01*
X36340828Y-76256825D01*
X36019369Y-77231314D01*
X36019130Y-77232037D01*
X35973626Y-77366902D01*
X35957794Y-77417974D01*
X35957436Y-77419061D01*
X35957405Y-77419160D01*
X35837589Y-77782380D01*
X35537100Y-78775113D01*
X35536858Y-78775902D01*
X35495911Y-78907998D01*
X35482317Y-78956036D01*
X35481685Y-78958193D01*
X35372214Y-79319858D01*
X35093373Y-80330493D01*
X35093221Y-80331040D01*
X35056586Y-80460506D01*
X35044583Y-80507326D01*
X35044273Y-80508452D01*
X35044266Y-80508481D01*
X34944945Y-80868465D01*
X34688460Y-81896518D01*
X34688264Y-81897293D01*
X34655934Y-82023408D01*
X34645899Y-82067029D01*
X34645368Y-82069242D01*
X34556090Y-82427089D01*
X34322542Y-83472554D01*
X34322416Y-83473117D01*
X34294191Y-83595804D01*
X34285552Y-83638134D01*
X34285277Y-83639369D01*
X34205863Y-83994867D01*
X33995897Y-85057539D01*
X33995745Y-85058296D01*
X33971585Y-85176687D01*
X33964644Y-85215606D01*
X33964219Y-85217867D01*
X33894484Y-85570813D01*
X33708781Y-86650327D01*
X33708781Y-86650328D01*
X33708696Y-86650820D01*
X33688321Y-86765073D01*
X33682587Y-86802586D01*
X33682374Y-86803829D01*
X33622138Y-87153995D01*
X33461367Y-88250035D01*
X33461257Y-88250770D01*
X33444563Y-88360009D01*
X33440223Y-88394036D01*
X33439907Y-88396340D01*
X33388998Y-88743412D01*
X33253816Y-89855804D01*
X33253749Y-89856351D01*
X33240468Y-89960503D01*
X33237132Y-89993083D01*
X33236982Y-89994324D01*
X33195206Y-90338093D01*
X33086287Y-91466592D01*
X33086216Y-91467306D01*
X33076161Y-91565535D01*
X33073917Y-91594541D01*
X33073712Y-91596889D01*
X33040878Y-91937072D01*
X32958908Y-93081445D01*
X32958861Y-93082098D01*
X32951736Y-93174220D01*
X32950298Y-93201650D01*
X32950208Y-93202909D01*
X32926106Y-93539404D01*
X32871789Y-94699348D01*
X32871755Y-94700037D01*
X32868436Y-94763362D01*
X32867278Y-94785463D01*
X32867027Y-94794544D01*
X32866624Y-94809162D01*
X32866535Y-94811538D01*
X32850965Y-95144040D01*
X32825003Y-96319593D01*
X32824991Y-96320121D01*
X32822837Y-96398306D01*
X32822776Y-96420412D01*
X32822749Y-96421669D01*
X32815497Y-96750081D01*
X17823155Y-96750081D01*
X17823155Y-96688814D01*
X17823163Y-96687428D01*
X17827244Y-96322358D01*
X17827260Y-96321403D01*
X17857544Y-94933485D01*
X17857573Y-94932437D01*
X17869737Y-94569920D01*
X17869776Y-94568889D01*
X17930482Y-93178499D01*
X17930541Y-93177326D01*
X17937999Y-93044056D01*
X24557450Y-93044056D01*
X24557450Y-93175840D01*
X24584406Y-93276443D01*
X24591559Y-93303136D01*
X24591559Y-93303137D01*
X24646297Y-93397946D01*
X24662770Y-93465846D01*
X24646297Y-93521946D01*
X24591560Y-93616753D01*
X24591560Y-93616754D01*
X24591559Y-93616756D01*
X24591559Y-93616757D01*
X24557451Y-93744051D01*
X24557451Y-93875835D01*
X24569067Y-93919186D01*
X24591559Y-94003130D01*
X24608993Y-94033326D01*
X24657451Y-94117257D01*
X24750637Y-94210443D01*
X24833817Y-94258467D01*
X24864761Y-94276333D01*
X24864765Y-94276335D01*
X24992059Y-94310443D01*
X24992061Y-94310443D01*
X25123841Y-94310443D01*
X25123843Y-94310443D01*
X25251137Y-94276335D01*
X25351537Y-94218368D01*
X25419436Y-94201895D01*
X25475533Y-94218366D01*
X25575953Y-94276344D01*
X25703247Y-94310452D01*
X25703249Y-94310452D01*
X25835029Y-94310452D01*
X25835031Y-94310452D01*
X25962325Y-94276344D01*
X26055963Y-94222281D01*
X26123862Y-94205808D01*
X26179960Y-94222280D01*
X26246728Y-94260828D01*
X26273598Y-94276342D01*
X26273609Y-94276348D01*
X26400903Y-94310456D01*
X26400905Y-94310456D01*
X26532685Y-94310456D01*
X26532687Y-94310456D01*
X26659981Y-94276348D01*
X26774109Y-94210456D01*
X26867295Y-94117270D01*
X26933187Y-94003142D01*
X26967295Y-93875848D01*
X26967295Y-93744064D01*
X26933187Y-93616770D01*
X26894972Y-93550580D01*
X26878500Y-93482683D01*
X26894974Y-93426581D01*
X26900355Y-93417262D01*
X26933192Y-93360386D01*
X26967300Y-93233092D01*
X26967300Y-93101308D01*
X26933192Y-92974014D01*
X26867300Y-92859886D01*
X26774114Y-92766700D01*
X26717050Y-92733754D01*
X26659987Y-92700808D01*
X26559141Y-92673787D01*
X26532692Y-92666700D01*
X26400908Y-92666700D01*
X26273614Y-92700808D01*
X26273613Y-92700808D01*
X26273611Y-92700809D01*
X26273608Y-92700810D01*
X26225541Y-92728561D01*
X26157641Y-92745032D01*
X26091614Y-92722179D01*
X26077629Y-92710348D01*
X26076458Y-92709450D01*
X26076456Y-92709448D01*
X26019392Y-92676502D01*
X25962329Y-92643556D01*
X25862722Y-92616867D01*
X25835034Y-92609448D01*
X25703250Y-92609448D01*
X25575956Y-92643556D01*
X25575955Y-92643556D01*
X25575953Y-92643557D01*
X25575952Y-92643557D01*
X25475546Y-92701527D01*
X25407646Y-92718000D01*
X25351546Y-92701527D01*
X25251139Y-92643557D01*
X25251136Y-92643556D01*
X25123842Y-92609448D01*
X24992058Y-92609448D01*
X24864762Y-92643556D01*
X24750636Y-92709448D01*
X24750633Y-92709450D01*
X24657452Y-92802631D01*
X24657450Y-92802634D01*
X24591558Y-92916760D01*
X24569743Y-92998177D01*
X24557450Y-93044056D01*
X17937999Y-93044056D01*
X17950516Y-92820367D01*
X17950581Y-92819286D01*
X17951673Y-92802634D01*
X18041985Y-91424724D01*
X18042098Y-91423179D01*
X18044159Y-91396902D01*
X18069435Y-91074582D01*
X18069478Y-91074053D01*
X18192052Y-89673030D01*
X18192191Y-89671548D01*
X18226253Y-89334173D01*
X18226285Y-89333866D01*
X18380672Y-87924169D01*
X18380844Y-87922700D01*
X18420637Y-87600763D01*
X18420751Y-87599869D01*
X18445395Y-87412678D01*
X18607766Y-86179348D01*
X18607952Y-86178003D01*
X18652325Y-85874853D01*
X18652452Y-85874015D01*
X18699118Y-85570824D01*
X18873242Y-84439520D01*
X18873517Y-84437820D01*
X18920838Y-84158297D01*
X18920842Y-84158268D01*
X19177017Y-82705429D01*
X19177332Y-82703718D01*
X19225528Y-82453196D01*
X19518978Y-80977922D01*
X19519318Y-80976279D01*
X19565622Y-80761584D01*
X19898970Y-79257952D01*
X19899337Y-79256361D01*
X19940035Y-79086210D01*
X20316786Y-77546553D01*
X20317195Y-77544941D01*
X20347387Y-77430128D01*
X20772257Y-75844491D01*
X20772801Y-75842532D01*
X20785203Y-75799320D01*
X21262788Y-74160799D01*
X21263522Y-74158379D01*
X21787587Y-72496258D01*
X21788377Y-72493844D01*
X22348535Y-70843675D01*
X22349428Y-70841136D01*
X22945448Y-69203580D01*
X22946355Y-69201171D01*
X23577974Y-67576965D01*
X23578939Y-67574563D01*
X24245823Y-65964562D01*
X24246873Y-65962103D01*
X24247332Y-65961060D01*
X24948740Y-64366988D01*
X24949791Y-64364669D01*
X25686285Y-62785253D01*
X25687409Y-62782910D01*
X26458166Y-61219969D01*
X26459379Y-61217577D01*
X26551177Y-61041235D01*
X27264044Y-59671831D01*
X27265237Y-59669598D01*
X28103483Y-58141678D01*
X28104744Y-58139438D01*
X28106959Y-58135601D01*
X35951727Y-58135601D01*
X35951727Y-58267384D01*
X35985835Y-58394680D01*
X36013072Y-58441855D01*
X36051727Y-58508807D01*
X36144913Y-58601993D01*
X36259041Y-58667885D01*
X36386335Y-58701993D01*
X36386337Y-58701993D01*
X36436379Y-58701993D01*
X36503418Y-58721678D01*
X36549173Y-58774482D01*
X36556152Y-58793897D01*
X36561194Y-58812712D01*
X36627086Y-58926840D01*
X36720272Y-59020026D01*
X36834400Y-59085918D01*
X36961694Y-59120026D01*
X36961696Y-59120026D01*
X37002925Y-59120026D01*
X37069964Y-59139711D01*
X37115719Y-59192515D01*
X37122700Y-59211932D01*
X37125608Y-59222787D01*
X37149472Y-59264120D01*
X37191500Y-59336914D01*
X37284686Y-59430100D01*
X37398814Y-59495992D01*
X37526108Y-59530100D01*
X37526110Y-59530100D01*
X37657890Y-59530100D01*
X37657892Y-59530100D01*
X37785186Y-59495992D01*
X37899314Y-59430100D01*
X37992500Y-59336914D01*
X38058392Y-59222786D01*
X38092500Y-59095492D01*
X38092500Y-59088048D01*
X38112185Y-59021009D01*
X38157116Y-58982075D01*
X38155953Y-58980060D01*
X38168356Y-58972899D01*
X38277120Y-58910104D01*
X38370306Y-58816918D01*
X38436198Y-58702790D01*
X38470306Y-58575496D01*
X38470306Y-58443712D01*
X38436198Y-58316418D01*
X38370306Y-58202290D01*
X38277120Y-58109104D01*
X38201551Y-58065474D01*
X38162993Y-58043212D01*
X38099345Y-58026158D01*
X38035698Y-58009104D01*
X38035697Y-58009104D01*
X38027638Y-58008043D01*
X38027983Y-58005421D01*
X37973487Y-57989419D01*
X37927732Y-57936615D01*
X37920753Y-57917202D01*
X37905433Y-57860027D01*
X37839541Y-57745899D01*
X37746355Y-57652713D01*
X37675925Y-57612050D01*
X37632228Y-57586821D01*
X37566815Y-57569294D01*
X37504933Y-57552713D01*
X37454879Y-57552713D01*
X37387840Y-57533028D01*
X37342085Y-57480224D01*
X37335105Y-57460808D01*
X37330065Y-57442000D01*
X37299901Y-57389755D01*
X37264173Y-57327872D01*
X37170987Y-57234686D01*
X37080500Y-57182443D01*
X37056860Y-57168794D01*
X36993212Y-57151740D01*
X36929565Y-57134686D01*
X36797781Y-57134686D01*
X36670485Y-57168794D01*
X36556359Y-57234686D01*
X36556356Y-57234688D01*
X36463175Y-57327869D01*
X36463173Y-57327872D01*
X36397281Y-57441998D01*
X36363173Y-57569294D01*
X36363173Y-57612050D01*
X36343488Y-57679089D01*
X36290684Y-57724844D01*
X36271270Y-57731824D01*
X36259040Y-57735101D01*
X36144913Y-57800993D01*
X36144910Y-57800995D01*
X36051729Y-57894176D01*
X36051727Y-57894179D01*
X35985835Y-58008305D01*
X35951727Y-58135601D01*
X28106959Y-58135601D01*
X28976101Y-56630204D01*
X28977395Y-56628018D01*
X29881446Y-55138187D01*
X29882864Y-55135907D01*
X29964137Y-55008334D01*
X30819182Y-53666182D01*
X30820645Y-53663941D01*
X31788820Y-52214965D01*
X31790234Y-52212897D01*
X32213927Y-51607801D01*
X40599927Y-51607801D01*
X40599927Y-51739585D01*
X40600320Y-51741052D01*
X40634035Y-51866880D01*
X40662344Y-51915912D01*
X40699927Y-51981007D01*
X40793113Y-52074193D01*
X40907241Y-52140085D01*
X41034535Y-52174193D01*
X41034537Y-52174193D01*
X41084579Y-52174193D01*
X41151618Y-52193878D01*
X41197373Y-52246682D01*
X41204354Y-52266101D01*
X41209393Y-52284910D01*
X41209395Y-52284914D01*
X41231358Y-52322954D01*
X41275286Y-52399040D01*
X41368472Y-52492226D01*
X41482600Y-52558118D01*
X41609894Y-52592226D01*
X41609896Y-52592226D01*
X41651125Y-52592226D01*
X41718164Y-52611911D01*
X41763919Y-52664715D01*
X41770900Y-52684132D01*
X41773808Y-52694987D01*
X41804131Y-52747507D01*
X41839700Y-52809114D01*
X41932886Y-52902300D01*
X42047014Y-52968192D01*
X42174308Y-53002300D01*
X42174310Y-53002300D01*
X42306090Y-53002300D01*
X42306092Y-53002300D01*
X42433386Y-52968192D01*
X42547514Y-52902300D01*
X42640700Y-52809114D01*
X42706592Y-52694986D01*
X42740700Y-52567692D01*
X42740700Y-52560248D01*
X42760385Y-52493209D01*
X42805316Y-52454275D01*
X42804153Y-52452260D01*
X42825710Y-52439814D01*
X42925320Y-52382304D01*
X43018506Y-52289118D01*
X43084398Y-52174990D01*
X43118506Y-52047696D01*
X43118506Y-51915912D01*
X43084398Y-51788618D01*
X43018506Y-51674490D01*
X42925320Y-51581304D01*
X42852761Y-51539412D01*
X42811193Y-51515412D01*
X42747545Y-51498358D01*
X42683898Y-51481304D01*
X42683897Y-51481304D01*
X42675838Y-51480243D01*
X42676183Y-51477621D01*
X42621687Y-51461619D01*
X42575932Y-51408815D01*
X42568953Y-51389402D01*
X42553633Y-51332227D01*
X42487741Y-51218099D01*
X42394555Y-51124913D01*
X42324125Y-51084250D01*
X42280428Y-51059021D01*
X42165650Y-51028267D01*
X42153133Y-51024913D01*
X42103079Y-51024913D01*
X42036040Y-51005228D01*
X41990285Y-50952424D01*
X41983305Y-50933008D01*
X41978265Y-50914200D01*
X41942787Y-50852751D01*
X41912373Y-50800072D01*
X41819187Y-50706886D01*
X41762123Y-50673940D01*
X41705060Y-50640994D01*
X41641412Y-50623940D01*
X41577765Y-50606886D01*
X41445981Y-50606886D01*
X41318685Y-50640994D01*
X41204559Y-50706886D01*
X41204556Y-50706888D01*
X41111375Y-50800069D01*
X41111373Y-50800072D01*
X41045481Y-50914198D01*
X41011373Y-51041494D01*
X41011373Y-51084250D01*
X40991688Y-51151289D01*
X40938884Y-51197044D01*
X40919470Y-51204024D01*
X40907240Y-51207301D01*
X40793113Y-51273193D01*
X40793110Y-51273195D01*
X40699929Y-51366376D01*
X40699927Y-51366379D01*
X40634035Y-51480505D01*
X40618251Y-51539414D01*
X40599927Y-51607801D01*
X32213927Y-51607801D01*
X32774795Y-50806799D01*
X32793740Y-50779974D01*
X32794845Y-50778439D01*
X33771216Y-49446838D01*
X33836058Y-49359249D01*
X33837209Y-49357722D01*
X34806530Y-48094477D01*
X34909254Y-47962017D01*
X34910440Y-47960513D01*
X35877924Y-46755054D01*
X36012866Y-46588859D01*
X36013816Y-46587708D01*
X36983704Y-45431841D01*
X37146002Y-45240845D01*
X37147013Y-45239674D01*
X38122092Y-44127810D01*
X38122467Y-44127386D01*
X38308283Y-43918368D01*
X38309260Y-43917286D01*
X39292406Y-42844369D01*
X39498998Y-42622193D01*
X39500041Y-42621087D01*
X40492952Y-41583879D01*
X40717675Y-41352786D01*
X40718598Y-41351850D01*
X41722956Y-40347493D01*
X41723124Y-40347326D01*
X41963533Y-40110916D01*
X41964358Y-40110114D01*
X42981533Y-39136381D01*
X42981932Y-39136003D01*
X43235897Y-38897192D01*
X43236733Y-38896417D01*
X44268294Y-37951166D01*
X44268539Y-37950944D01*
X44533998Y-37712281D01*
X44534683Y-37711673D01*
X45581969Y-36793227D01*
X45582251Y-36792983D01*
X45857215Y-36556676D01*
X45857756Y-36556215D01*
X46921711Y-35663451D01*
X46922301Y-35662962D01*
X47204676Y-35431057D01*
X47205287Y-35430560D01*
X48287178Y-34562252D01*
X48287801Y-34561758D01*
X48575501Y-34336059D01*
X48576170Y-34335540D01*
X49677379Y-33490553D01*
X49678142Y-33489974D01*
X49969132Y-33272027D01*
X49969500Y-33271754D01*
X51091589Y-32449004D01*
X51092373Y-32448436D01*
X51384219Y-32239867D01*
X51384835Y-32239431D01*
X52529083Y-31438220D01*
X52530012Y-31437579D01*
X52820377Y-31239724D01*
X52820417Y-31239696D01*
X53989064Y-30458832D01*
X53990107Y-30458144D01*
X54275862Y-30272649D01*
X54276282Y-30272378D01*
X55470910Y-29511316D01*
X55471950Y-29510665D01*
X55486895Y-29501432D01*
X70741257Y-29501432D01*
X70741257Y-29633215D01*
X70775365Y-29760511D01*
X70808311Y-29817574D01*
X70841257Y-29874638D01*
X70841259Y-29874640D01*
X70903940Y-29937321D01*
X70937425Y-29998644D01*
X70936034Y-30057094D01*
X70902396Y-30182635D01*
X70902396Y-30314420D01*
X70936504Y-30441716D01*
X70960603Y-30483456D01*
X71002396Y-30555843D01*
X71095582Y-30649029D01*
X71095588Y-30649032D01*
X71098569Y-30651320D01*
X71100452Y-30653899D01*
X71101329Y-30654776D01*
X71101192Y-30654912D01*
X71139771Y-30707748D01*
X71143926Y-30777494D01*
X71142857Y-30781789D01*
X71122165Y-30859013D01*
X71122165Y-30990796D01*
X71156273Y-31118092D01*
X71179372Y-31158100D01*
X71222165Y-31232219D01*
X71315351Y-31325405D01*
X71429479Y-31391297D01*
X71556773Y-31425405D01*
X71556775Y-31425405D01*
X71688555Y-31425405D01*
X71688557Y-31425405D01*
X71815851Y-31391297D01*
X71929979Y-31325405D01*
X72023165Y-31232219D01*
X72023165Y-31232218D01*
X72028912Y-31226472D01*
X72030381Y-31227941D01*
X72077852Y-31193272D01*
X72147597Y-31189110D01*
X72151896Y-31190179D01*
X72222508Y-31209100D01*
X72222510Y-31209100D01*
X72354290Y-31209100D01*
X72354292Y-31209100D01*
X72481586Y-31174992D01*
X72595714Y-31109100D01*
X72688900Y-31015914D01*
X72754792Y-30901786D01*
X72788900Y-30774492D01*
X72788900Y-30724878D01*
X122756795Y-30724878D01*
X122756795Y-30856661D01*
X122790903Y-30983957D01*
X122809353Y-31015913D01*
X122856795Y-31098084D01*
X122949981Y-31191270D01*
X123064109Y-31257162D01*
X123191403Y-31291270D01*
X123191405Y-31291270D01*
X123323184Y-31291270D01*
X123323187Y-31291270D01*
X123393790Y-31272352D01*
X123463634Y-31274015D01*
X123515985Y-31309446D01*
X123516784Y-31308648D01*
X123520927Y-31312791D01*
X123521497Y-31313177D01*
X123522215Y-31314079D01*
X123522530Y-31314394D01*
X123522531Y-31314395D01*
X123615717Y-31407581D01*
X123729845Y-31473473D01*
X123857139Y-31507581D01*
X123857141Y-31507581D01*
X123988921Y-31507581D01*
X123988923Y-31507581D01*
X124116217Y-31473473D01*
X124230345Y-31407581D01*
X124323531Y-31314395D01*
X124389423Y-31200267D01*
X124423531Y-31072973D01*
X124423531Y-30941189D01*
X124402841Y-30863972D01*
X124404504Y-30794127D01*
X124443666Y-30736265D01*
X124447135Y-30733503D01*
X124450114Y-30731215D01*
X124450125Y-30731210D01*
X124543311Y-30638024D01*
X124609203Y-30523896D01*
X124643311Y-30396602D01*
X124643311Y-30264818D01*
X124624765Y-30195602D01*
X124626428Y-30125756D01*
X124661078Y-30074558D01*
X124659967Y-30073447D01*
X124684915Y-30048499D01*
X124758900Y-29974514D01*
X124824792Y-29860386D01*
X124858900Y-29733092D01*
X124858900Y-29601308D01*
X124824792Y-29474014D01*
X124758900Y-29359886D01*
X124665714Y-29266700D01*
X124608650Y-29233754D01*
X124551587Y-29200808D01*
X124465128Y-29177642D01*
X124424292Y-29166700D01*
X124292508Y-29166700D01*
X124251669Y-29177642D01*
X124181820Y-29175977D01*
X124131898Y-29145547D01*
X124054426Y-29068075D01*
X124054424Y-29068073D01*
X123997360Y-29035127D01*
X123940297Y-29002181D01*
X123876649Y-28985127D01*
X123813002Y-28968073D01*
X123681218Y-28968073D01*
X123553922Y-29002181D01*
X123439796Y-29068073D01*
X123439793Y-29068075D01*
X123346612Y-29161256D01*
X123346610Y-29161259D01*
X123280718Y-29275385D01*
X123246610Y-29402681D01*
X123246610Y-29534467D01*
X123253323Y-29559520D01*
X123251659Y-29629370D01*
X123212496Y-29687232D01*
X123195550Y-29698998D01*
X123169759Y-29713888D01*
X123169753Y-29713893D01*
X123076572Y-29807074D01*
X123076570Y-29807077D01*
X123010678Y-29921203D01*
X122976570Y-30048499D01*
X122976570Y-30180284D01*
X122997261Y-30257506D01*
X122995598Y-30327356D01*
X122956435Y-30385218D01*
X122952980Y-30387968D01*
X122949982Y-30390268D01*
X122856797Y-30483453D01*
X122856795Y-30483456D01*
X122790903Y-30597582D01*
X122756795Y-30724878D01*
X72788900Y-30724878D01*
X72788900Y-30642708D01*
X72754792Y-30515414D01*
X72688900Y-30401286D01*
X72595714Y-30308100D01*
X72595711Y-30308098D01*
X72592729Y-30305810D01*
X72590848Y-30303234D01*
X72589967Y-30302353D01*
X72590104Y-30302215D01*
X72551529Y-30249380D01*
X72547377Y-30179634D01*
X72548431Y-30175396D01*
X72569139Y-30098115D01*
X72569139Y-29966331D01*
X72535031Y-29839037D01*
X72469139Y-29724909D01*
X72375953Y-29631723D01*
X72370206Y-29625976D01*
X72371952Y-29624229D01*
X72338095Y-29577867D01*
X72333935Y-29508122D01*
X72334982Y-29503911D01*
X72353554Y-29434601D01*
X72353554Y-29302817D01*
X72319446Y-29175523D01*
X72253554Y-29061395D01*
X72160368Y-28968209D01*
X72103304Y-28935263D01*
X72046241Y-28902317D01*
X71982593Y-28885263D01*
X71918946Y-28868209D01*
X71787162Y-28868209D01*
X71659866Y-28902317D01*
X71545740Y-28968209D01*
X71545736Y-28968212D01*
X71468271Y-29045676D01*
X71406948Y-29079161D01*
X71348500Y-29077769D01*
X71307652Y-29066824D01*
X71307649Y-29066824D01*
X71175865Y-29066824D01*
X71048569Y-29100932D01*
X70934443Y-29166824D01*
X70934440Y-29166826D01*
X70841259Y-29260007D01*
X70841257Y-29260010D01*
X70775365Y-29374136D01*
X70741257Y-29501432D01*
X55486895Y-29501432D01*
X55750018Y-29338872D01*
X55750433Y-29338617D01*
X56973647Y-28596353D01*
X56974758Y-28595690D01*
X57241580Y-28438977D01*
X58496627Y-27714374D01*
X58497934Y-27713633D01*
X58748750Y-27573767D01*
X59737495Y-27031323D01*
X78339403Y-27031323D01*
X78339403Y-27163106D01*
X78373511Y-27290402D01*
X78385591Y-27311324D01*
X78439403Y-27404529D01*
X78439405Y-27404531D01*
X78502086Y-27467212D01*
X78535571Y-27528535D01*
X78534180Y-27586985D01*
X78500542Y-27712526D01*
X78500542Y-27844311D01*
X78534650Y-27971607D01*
X78567291Y-28028142D01*
X78600542Y-28085734D01*
X78693728Y-28178920D01*
X78693734Y-28178923D01*
X78696715Y-28181211D01*
X78698598Y-28183790D01*
X78699475Y-28184667D01*
X78699338Y-28184803D01*
X78737917Y-28237639D01*
X78742072Y-28307385D01*
X78741004Y-28311675D01*
X78720311Y-28388904D01*
X78720311Y-28520688D01*
X78727041Y-28545804D01*
X78754419Y-28647983D01*
X78786132Y-28702910D01*
X78820311Y-28762110D01*
X78913497Y-28855296D01*
X79027625Y-28921188D01*
X79154919Y-28955296D01*
X79154921Y-28955296D01*
X79286701Y-28955296D01*
X79286703Y-28955296D01*
X79413997Y-28921188D01*
X79528125Y-28855296D01*
X79621311Y-28762110D01*
X79621311Y-28762109D01*
X79627058Y-28756363D01*
X79628527Y-28757832D01*
X79675998Y-28723163D01*
X79745743Y-28719001D01*
X79750042Y-28720070D01*
X79820654Y-28738991D01*
X79820656Y-28738991D01*
X79952436Y-28738991D01*
X79952438Y-28738991D01*
X80079732Y-28704883D01*
X80193860Y-28638991D01*
X80287046Y-28545805D01*
X80352938Y-28431677D01*
X80387046Y-28304383D01*
X80387046Y-28172599D01*
X80371612Y-28114997D01*
X115191164Y-28114997D01*
X115191164Y-28246781D01*
X115206598Y-28304381D01*
X115225272Y-28374076D01*
X115258218Y-28431139D01*
X115291164Y-28488203D01*
X115384350Y-28581389D01*
X115498478Y-28647281D01*
X115625772Y-28681389D01*
X115625774Y-28681389D01*
X115757553Y-28681389D01*
X115757556Y-28681389D01*
X115828159Y-28662471D01*
X115898003Y-28664134D01*
X115950354Y-28699565D01*
X115951153Y-28698767D01*
X115955296Y-28702910D01*
X115955866Y-28703296D01*
X115956584Y-28704198D01*
X115956899Y-28704513D01*
X115956900Y-28704514D01*
X116050086Y-28797700D01*
X116164214Y-28863592D01*
X116291508Y-28897700D01*
X116291510Y-28897700D01*
X116423290Y-28897700D01*
X116423292Y-28897700D01*
X116550586Y-28863592D01*
X116664714Y-28797700D01*
X116757900Y-28704514D01*
X116823792Y-28590386D01*
X116857900Y-28463092D01*
X116857900Y-28331308D01*
X116837210Y-28254091D01*
X116838873Y-28184246D01*
X116878035Y-28126384D01*
X116881504Y-28123622D01*
X116884483Y-28121334D01*
X116884494Y-28121329D01*
X116977680Y-28028143D01*
X117043572Y-27914015D01*
X117077680Y-27786721D01*
X117077680Y-27654937D01*
X117059134Y-27585721D01*
X117060797Y-27515875D01*
X117095447Y-27464677D01*
X117094336Y-27463566D01*
X117119284Y-27438618D01*
X117193269Y-27364633D01*
X117259161Y-27250505D01*
X117293269Y-27123211D01*
X117293269Y-26991427D01*
X117259161Y-26864133D01*
X117193269Y-26750005D01*
X117100083Y-26656819D01*
X117043019Y-26623873D01*
X116985956Y-26590927D01*
X116899497Y-26567761D01*
X116858661Y-26556819D01*
X116726877Y-26556819D01*
X116686038Y-26567761D01*
X116616189Y-26566096D01*
X116566267Y-26535666D01*
X116488795Y-26458194D01*
X116488793Y-26458192D01*
X116431729Y-26425246D01*
X116374666Y-26392300D01*
X116311018Y-26375246D01*
X116247371Y-26358192D01*
X116115587Y-26358192D01*
X115988291Y-26392300D01*
X115874165Y-26458192D01*
X115874162Y-26458194D01*
X115780981Y-26551375D01*
X115780979Y-26551378D01*
X115715087Y-26665504D01*
X115680979Y-26792800D01*
X115680979Y-26924586D01*
X115687692Y-26949639D01*
X115686028Y-27019489D01*
X115646865Y-27077351D01*
X115629919Y-27089117D01*
X115604128Y-27104007D01*
X115604122Y-27104012D01*
X115510941Y-27197193D01*
X115510939Y-27197196D01*
X115445047Y-27311322D01*
X115410939Y-27438618D01*
X115410939Y-27570403D01*
X115431630Y-27647625D01*
X115429967Y-27717475D01*
X115390804Y-27775337D01*
X115387349Y-27778087D01*
X115384351Y-27780387D01*
X115291166Y-27873572D01*
X115291164Y-27873575D01*
X115225272Y-27987701D01*
X115199005Y-28085733D01*
X115191164Y-28114997D01*
X80371612Y-28114997D01*
X80352938Y-28045305D01*
X80287046Y-27931177D01*
X80193860Y-27837991D01*
X80193857Y-27837989D01*
X80190875Y-27835701D01*
X80188994Y-27833125D01*
X80188113Y-27832244D01*
X80188250Y-27832106D01*
X80149675Y-27779271D01*
X80145523Y-27709525D01*
X80146577Y-27705287D01*
X80167285Y-27628006D01*
X80167285Y-27496222D01*
X80133177Y-27368928D01*
X80130698Y-27364635D01*
X80099918Y-27311322D01*
X80067285Y-27254800D01*
X79974099Y-27161614D01*
X79968352Y-27155867D01*
X79970098Y-27154120D01*
X79936241Y-27107758D01*
X79932081Y-27038013D01*
X79933128Y-27033802D01*
X79951700Y-26964492D01*
X79951700Y-26832708D01*
X79917592Y-26705414D01*
X79851700Y-26591286D01*
X79758514Y-26498100D01*
X79689395Y-26458194D01*
X79644387Y-26432208D01*
X79580739Y-26415154D01*
X79517092Y-26398100D01*
X79385308Y-26398100D01*
X79258012Y-26432208D01*
X79143886Y-26498100D01*
X79143882Y-26498103D01*
X79066417Y-26575567D01*
X79005094Y-26609052D01*
X78946646Y-26607660D01*
X78905798Y-26596715D01*
X78905795Y-26596715D01*
X78774011Y-26596715D01*
X78646715Y-26630823D01*
X78532589Y-26696715D01*
X78532586Y-26696717D01*
X78439405Y-26789898D01*
X78439403Y-26789901D01*
X78373511Y-26904027D01*
X78339403Y-27031323D01*
X59737495Y-27031323D01*
X60039153Y-26865828D01*
X60040364Y-26865176D01*
X60269846Y-26743852D01*
X60270157Y-26743688D01*
X61600151Y-26051337D01*
X61601651Y-26050570D01*
X61803072Y-25949777D01*
X63179321Y-25271087D01*
X63180795Y-25270375D01*
X63345412Y-25192552D01*
X64775389Y-24525742D01*
X64777120Y-24524953D01*
X64893410Y-24473124D01*
X66388046Y-23815469D01*
X66389713Y-23814753D01*
X66442060Y-23792812D01*
X68010258Y-23143244D01*
X68012660Y-23142279D01*
X69636866Y-22510660D01*
X69639275Y-22509753D01*
X71276843Y-21913728D01*
X71279382Y-21912836D01*
X71294106Y-21907838D01*
X72929539Y-21352682D01*
X72931953Y-21351892D01*
X74594074Y-20827827D01*
X74596494Y-20827093D01*
X76269520Y-20339451D01*
X76272099Y-20338729D01*
X77955439Y-19887679D01*
X77957907Y-19887047D01*
X79650608Y-19472846D01*
X79653142Y-19472255D01*
X81354628Y-19095044D01*
X81357085Y-19094528D01*
X83066283Y-18754547D01*
X83068846Y-18754066D01*
X84785053Y-18451453D01*
X84787600Y-18451032D01*
X86510042Y-18185923D01*
X86512609Y-18185556D01*
X88240320Y-17958099D01*
X88242983Y-17957778D01*
X89975256Y-17768063D01*
X89977913Y-17767801D01*
X91713889Y-17615924D01*
X91716485Y-17615724D01*
X93439739Y-17502776D01*
X93459579Y-17501555D01*
X93461573Y-17501450D01*
X95121114Y-17428993D01*
X95220108Y-17425119D01*
X95222070Y-17425059D01*
X96821463Y-17390161D01*
X96981509Y-17387477D01*
X96983587Y-17387460D01*
X98534970Y-17387460D01*
X98535662Y-17387462D01*
G37*
%TD.AperFunction*%
%TD*%
M02*
