%TF.GenerationSoftware,KiCad,Pcbnew,9.0.6*%
%TF.CreationDate,2026-01-21T21:36:57+08:00*%
%TF.ProjectId,Ledx10,4c656478-3130-42e6-9b69-6361645f7063,rev?*%
%TF.SameCoordinates,Original*%
%TF.FileFunction,Legend,Top*%
%TF.FilePolarity,Positive*%
%FSLAX46Y46*%
G04 Gerber Fmt 4.6, Leading zero omitted, Abs format (unit mm)*
G04 Created by KiCad (PCBNEW 9.0.6) date 2026-01-21 21:36:57*
%MOMM*%
%LPD*%
G01*
G04 APERTURE LIST*
%ADD10C,0.200000*%
%ADD11C,0.400000*%
%ADD12C,0.300000*%
%ADD13C,0.120000*%
%ADD14C,0.150000*%
%ADD15C,0.100000*%
G04 APERTURE END LIST*
D10*
X141853490Y-157232051D02*
X141739740Y-156838602D01*
X139812693Y-158635381D01*
X141615550Y-156703972D01*
X140971227Y-156857456D01*
X142381102Y-156016956D01*
X141853490Y-157232051D01*
G36*
X141853490Y-157232051D02*
G01*
X141739740Y-156838602D01*
X139812693Y-158635381D01*
X141615550Y-156703972D01*
X140971227Y-156857456D01*
X142381102Y-156016956D01*
X141853490Y-157232051D01*
G37*
D11*
G36*
X93423218Y-173471640D02*
G01*
X93176472Y-175819277D01*
X90828836Y-175572530D01*
X90945690Y-174460744D01*
X91169135Y-174460744D01*
X91191298Y-174535567D01*
X91240408Y-174596212D01*
X91308988Y-174633448D01*
X91347390Y-174641348D01*
X91906217Y-174700083D01*
X91847482Y-175258910D01*
X91847225Y-175298116D01*
X91869388Y-175372939D01*
X91918498Y-175433584D01*
X91987078Y-175470820D01*
X92064686Y-175478977D01*
X92139509Y-175456814D01*
X92200154Y-175407704D01*
X92237390Y-175339124D01*
X92245290Y-175300722D01*
X92304025Y-174741894D01*
X92862853Y-174800630D01*
X92902059Y-174800887D01*
X92976881Y-174778724D01*
X93037527Y-174729614D01*
X93074762Y-174661034D01*
X93082919Y-174583426D01*
X93060756Y-174508603D01*
X93011646Y-174447958D01*
X92943067Y-174410722D01*
X92904664Y-174402822D01*
X92345836Y-174344086D01*
X92404572Y-173785259D01*
X92404829Y-173746053D01*
X92382666Y-173671231D01*
X92333556Y-173610585D01*
X92264976Y-173573350D01*
X92187368Y-173565193D01*
X92112545Y-173587356D01*
X92051900Y-173636466D01*
X92014664Y-173705045D01*
X92006764Y-173743448D01*
X91948028Y-174302275D01*
X91389202Y-174243540D01*
X91349996Y-174243283D01*
X91275173Y-174265446D01*
X91214528Y-174314556D01*
X91177292Y-174383136D01*
X91169135Y-174460744D01*
X90945690Y-174460744D01*
X91075583Y-173224894D01*
X93423218Y-173471640D01*
G37*
D12*
G36*
X32124895Y-139355010D02*
G01*
X32510966Y-139292099D01*
X32775303Y-139980721D01*
X32389232Y-140043631D01*
X32124895Y-139355010D01*
G37*
G36*
X137468087Y-158269897D02*
G01*
X136539540Y-156467337D01*
X136846941Y-156218409D01*
X137618274Y-157715826D01*
X138382648Y-157096848D01*
X138539863Y-157401990D01*
X137468087Y-158269897D01*
G37*
G36*
X138997848Y-155387427D02*
G01*
X139083076Y-155426431D01*
X139169291Y-155489388D01*
X139257655Y-155581032D01*
X139348737Y-155707578D01*
X139442585Y-155876476D01*
X138711523Y-156468478D01*
X138774682Y-156562097D01*
X138839157Y-156620565D01*
X138906025Y-156651812D01*
X138978516Y-156660175D01*
X139048145Y-156644199D01*
X139118481Y-156601553D01*
X139176211Y-156539180D01*
X139211294Y-156464481D01*
X139222994Y-156378509D01*
X139209450Y-156266405D01*
X139529437Y-156087741D01*
X139546301Y-156247079D01*
X139537474Y-156392604D01*
X139504619Y-156527090D01*
X139447296Y-156652565D01*
X139364738Y-156767667D01*
X139254234Y-156873789D01*
X139130661Y-156958648D01*
X139017617Y-157008305D01*
X138912204Y-157028718D01*
X138811281Y-157023121D01*
X138711749Y-156991731D01*
X138619567Y-156937546D01*
X138531582Y-156860414D01*
X138447160Y-156756637D01*
X138366379Y-156621315D01*
X138292287Y-156450718D01*
X138248792Y-156289657D01*
X138232849Y-156135914D01*
X138237804Y-156061745D01*
X138548323Y-156061745D01*
X138566308Y-156153630D01*
X138606956Y-156251444D01*
X139043240Y-155898148D01*
X138980832Y-155804873D01*
X138919433Y-155747977D01*
X138857895Y-155718556D01*
X138790867Y-155710328D01*
X138727787Y-155724158D01*
X138665385Y-155761620D01*
X138610669Y-155818859D01*
X138572564Y-155888564D01*
X138550721Y-155973586D01*
X138548323Y-156061745D01*
X138237804Y-156061745D01*
X138242781Y-155987239D01*
X138278085Y-155840000D01*
X138334131Y-155712641D01*
X138410592Y-155602119D01*
X138508658Y-155506369D01*
X138613558Y-155434039D01*
X138712963Y-155388910D01*
X138808722Y-155367151D01*
X138902946Y-155366702D01*
X138997848Y-155387427D01*
G37*
G36*
X141006664Y-155404414D02*
G01*
X140735612Y-155623907D01*
X140635954Y-155430398D01*
X140612815Y-155591744D01*
X140564554Y-155730527D01*
X140492754Y-155851306D01*
X140409052Y-155938635D01*
X140309745Y-156002101D01*
X140208640Y-156035307D01*
X140102706Y-156040789D01*
X139988247Y-156017443D01*
X139884760Y-155969020D01*
X139784113Y-155889786D01*
X139684954Y-155773502D01*
X139587126Y-155611559D01*
X139509794Y-155435932D01*
X139464309Y-155275671D01*
X139446606Y-155128042D01*
X139453862Y-154993166D01*
X139790353Y-154993166D01*
X139790841Y-155096236D01*
X139817254Y-155213931D01*
X139875058Y-155350425D01*
X139957291Y-155490809D01*
X140026236Y-155576128D01*
X140084314Y-155622224D01*
X140156292Y-155652148D01*
X140222839Y-155658072D01*
X140287439Y-155642055D01*
X140353210Y-155601689D01*
X140409513Y-155540730D01*
X140448996Y-155461309D01*
X140470893Y-155358521D01*
X140469281Y-155252674D01*
X140441177Y-155131090D01*
X140380834Y-154989412D01*
X140290618Y-154841119D01*
X140211311Y-154754567D01*
X140140530Y-154711484D01*
X140061430Y-154695325D01*
X139987027Y-154708123D01*
X139912547Y-154751688D01*
X139853970Y-154814223D01*
X139813150Y-154893337D01*
X139790353Y-154993166D01*
X139453862Y-154993166D01*
X139454012Y-154990376D01*
X139485749Y-154852949D01*
X139536808Y-154734619D01*
X139606775Y-154632417D01*
X139696693Y-154544317D01*
X139793214Y-154482848D01*
X139892361Y-154450668D01*
X139997141Y-154445555D01*
X140111243Y-154468846D01*
X139775415Y-153816806D01*
X140067157Y-153580558D01*
X141006664Y-155404414D01*
G37*
G36*
X141183569Y-155261159D02*
G01*
X141231137Y-154259208D01*
X140520206Y-153927734D01*
X140876484Y-153639226D01*
X141258616Y-153844103D01*
X141277368Y-153314597D01*
X141620074Y-153037079D01*
X141568214Y-153965035D01*
X142334306Y-154329310D01*
X141975941Y-154619509D01*
X141541035Y-154392153D01*
X141525326Y-154984409D01*
X141183569Y-155261159D01*
G37*
G36*
X143216934Y-153614573D02*
G01*
X142925097Y-153850897D01*
X142250240Y-152540923D01*
X142193620Y-152742820D01*
X142113906Y-152933043D01*
X142010634Y-153113033D01*
X141846145Y-152793668D01*
X141900720Y-152699076D01*
X141954545Y-152577226D01*
X142006918Y-152423051D01*
X142042197Y-152266381D01*
X142052821Y-152120243D01*
X142040636Y-151982466D01*
X142277426Y-151790717D01*
X143216934Y-153614573D01*
G37*
G36*
X143588451Y-150901606D02*
G01*
X143675875Y-150925887D01*
X143766281Y-150973455D01*
X143863076Y-151051159D01*
X143967936Y-151166371D01*
X144082066Y-151328185D01*
X144206308Y-151547152D01*
X144310153Y-151769135D01*
X144380791Y-151962994D01*
X144423205Y-152132335D01*
X144441620Y-152280578D01*
X144439391Y-152410934D01*
X144413002Y-152548984D01*
X144363158Y-152670847D01*
X144289685Y-152779402D01*
X144190494Y-152876484D01*
X144096779Y-152939735D01*
X144005546Y-152977852D01*
X143914974Y-152993919D01*
X143822895Y-152989064D01*
X143727008Y-152962354D01*
X143645622Y-152918903D01*
X143555680Y-152844817D01*
X143455113Y-152731550D01*
X143342239Y-152568653D01*
X143215627Y-152344047D01*
X143112384Y-152123212D01*
X143042119Y-151930108D01*
X142999911Y-151761190D01*
X142981592Y-151613094D01*
X142983476Y-151504479D01*
X143300659Y-151504479D01*
X143318753Y-151621445D01*
X143379826Y-151797803D01*
X143522889Y-152100574D01*
X143683890Y-152389638D01*
X143776151Y-152517921D01*
X143839668Y-152579008D01*
X143888379Y-152610613D01*
X143926278Y-152622005D01*
X143984848Y-152616291D01*
X144040649Y-152585489D01*
X144085011Y-152535727D01*
X144114396Y-152468727D01*
X144122586Y-152389115D01*
X144104493Y-152272149D01*
X144043964Y-152096881D01*
X143900995Y-151794389D01*
X143739981Y-151505206D01*
X143647732Y-151377042D01*
X143584239Y-151315813D01*
X143535413Y-151283933D01*
X143497334Y-151272235D01*
X143438441Y-151277485D01*
X143382597Y-151308105D01*
X143338234Y-151357867D01*
X143308850Y-151424866D01*
X143300659Y-151504479D01*
X142983476Y-151504479D01*
X142983855Y-151482659D01*
X143010244Y-151344610D01*
X143060087Y-151222747D01*
X143133561Y-151114192D01*
X143232752Y-151017109D01*
X143326745Y-150953065D01*
X143416068Y-150914543D01*
X143502590Y-150897951D01*
X143588451Y-150901606D01*
G37*
G36*
X40406724Y-133892713D02*
G01*
X40926728Y-133807954D01*
X40742830Y-133328883D01*
X41097394Y-133271133D01*
X41281292Y-133750204D01*
X41801296Y-133665444D01*
X41923924Y-133984901D01*
X41403920Y-134069661D01*
X41588256Y-134549872D01*
X41233692Y-134607621D01*
X41049356Y-134127410D01*
X40529352Y-134212170D01*
X40406724Y-133892713D01*
G37*
D11*
G36*
X58064648Y-157025044D02*
G01*
X56622753Y-159009641D01*
X54948392Y-157793147D01*
X55326460Y-157793147D01*
X55668104Y-158041367D01*
X57754247Y-157074207D01*
X57414776Y-156827566D01*
X55903977Y-157565463D01*
X56625576Y-156254178D01*
X56278497Y-156002011D01*
X55326460Y-157793147D01*
X54948392Y-157793147D01*
X53179902Y-156508264D01*
X53557970Y-156508264D01*
X54622818Y-157281922D01*
X54894606Y-157034990D01*
X54291344Y-156596694D01*
X54433820Y-156568882D01*
X54782690Y-156549735D01*
X55033461Y-156535804D01*
X55174185Y-156519290D01*
X55350563Y-156480444D01*
X55488806Y-156432389D01*
X55612615Y-156367112D01*
X55721298Y-156284006D01*
X55801655Y-156196036D01*
X55853921Y-156106355D01*
X55881844Y-156013290D01*
X55886748Y-155914379D01*
X55867999Y-155818633D01*
X55823430Y-155725176D01*
X55749138Y-155631760D01*
X55638580Y-155537085D01*
X55527520Y-155467475D01*
X55414314Y-155417647D01*
X55297928Y-155386316D01*
X55177104Y-155372980D01*
X55058532Y-155380563D01*
X54934703Y-155412585D01*
X54803347Y-155471951D01*
X54662356Y-155563095D01*
X54936184Y-155809291D01*
X55030777Y-155743638D01*
X55111898Y-155706365D01*
X55182598Y-155691401D01*
X55254534Y-155694111D01*
X55322624Y-155713841D01*
X55388675Y-155751612D01*
X55445154Y-155803354D01*
X55476417Y-155855027D01*
X55487496Y-155908545D01*
X55479507Y-155962781D01*
X55450168Y-156020216D01*
X55393323Y-156083456D01*
X55331069Y-156129637D01*
X55252190Y-156168365D01*
X55153418Y-156198829D01*
X55007918Y-156218732D01*
X54654320Y-156240458D01*
X54330461Y-156260899D01*
X54103077Y-156288913D01*
X53950530Y-156321152D01*
X53805693Y-156370009D01*
X53675339Y-156432433D01*
X53557970Y-156508264D01*
X53179902Y-156508264D01*
X52433976Y-155966317D01*
X52812043Y-155966317D01*
X53115848Y-156187044D01*
X54634394Y-154807501D01*
X54387893Y-154628407D01*
X54257964Y-154675836D01*
X54114056Y-154703398D01*
X53953594Y-154709870D01*
X53791117Y-154699185D01*
X53659488Y-154678731D01*
X53553994Y-154650497D01*
X53288084Y-154892039D01*
X53488670Y-154945207D01*
X53693043Y-154972972D01*
X53902714Y-154975408D01*
X52812043Y-155966317D01*
X52433976Y-155966317D01*
X52302366Y-155870697D01*
X53744261Y-153886099D01*
X58064648Y-157025044D01*
G37*
D13*
%TO.C,D11*%
X28928399Y-88477599D02*
X24918401Y-88477599D01*
X28928399Y-88477599D02*
X28928400Y-86477600D01*
X28928400Y-86477600D02*
X24918401Y-86477600D01*
%TO.C,D18*%
X66256295Y-35137451D02*
X65083887Y-31302672D01*
X66256295Y-35137451D02*
X68168903Y-34552714D01*
X68168903Y-34552714D02*
X66996486Y-30717927D01*
%TO.C,C6*%
X99391800Y-162315052D02*
X99391800Y-161792548D01*
X100861800Y-162315052D02*
X100861800Y-161792548D01*
%TO.C,C7*%
X108826348Y-160834400D02*
X109348852Y-160834400D01*
X108826348Y-162304400D02*
X109348852Y-162304400D01*
%TO.C,C4*%
X95632600Y-167831452D02*
X95632600Y-167308948D01*
X97102600Y-167831452D02*
X97102600Y-167308948D01*
D14*
%TO.C,D39*%
X22161500Y-99910900D02*
X22161500Y-102958900D01*
X22161500Y-102958900D02*
X26835100Y-102958900D01*
X26581100Y-99910900D02*
X22161500Y-99910900D01*
%TO.C,D1*%
X114578354Y-166830086D02*
X115944083Y-171033370D01*
X115944083Y-171033370D02*
X118842907Y-170091489D01*
X118842907Y-170091489D02*
X117398680Y-165646633D01*
D13*
%TO.C,C2*%
X87097200Y-157223400D02*
X87097200Y-165288400D01*
X87097200Y-165288400D02*
X91617200Y-165288400D01*
X91617200Y-165288400D02*
X91617200Y-157223400D01*
%TO.C,D8*%
X46899344Y-144575058D02*
X43783004Y-147098640D01*
X48157985Y-146129350D02*
X45041619Y-148652916D01*
X48157985Y-146129350D02*
X46899344Y-144575058D01*
D14*
%TO.C,D36*%
X115944089Y-23708424D02*
X114499867Y-28153279D01*
X117477175Y-28853598D02*
X118842909Y-24650303D01*
X118842909Y-24650303D02*
X115944089Y-23708424D01*
%TO.C,D40*%
X38067404Y-143895580D02*
X39859005Y-146361462D01*
X39859005Y-146361462D02*
X43640006Y-143614397D01*
X41642964Y-141297793D02*
X38067404Y-143895580D01*
%TO.C,D13*%
X38067437Y-50897021D02*
X41848449Y-53644073D01*
X39858995Y-48431110D02*
X38067437Y-50897021D01*
X43434539Y-51028901D02*
X39858995Y-48431110D01*
%TO.C,D7*%
X33353057Y-137425552D02*
X35144649Y-139891430D01*
X35144649Y-139891430D02*
X38925652Y-137144363D01*
X36928612Y-134827761D02*
X33353057Y-137425552D01*
D13*
%TO.C,R1*%
X91568600Y-167817264D02*
X91568600Y-167363136D01*
X93038600Y-167817264D02*
X93038600Y-167363136D01*
D14*
%TO.C,D10*%
X22161499Y-91909901D02*
X22161501Y-94957902D01*
X22161501Y-94957902D02*
X26835100Y-94957901D01*
X26581101Y-91909900D02*
X22161499Y-91909901D01*
D13*
%TO.C,C5*%
X98900348Y-167555200D02*
X99422852Y-167555200D01*
X98900348Y-169025200D02*
X99422852Y-169025200D01*
D15*
%TO.C,U1*%
X95224600Y-161102000D02*
X95224600Y-161330600D01*
X95224600Y-161102000D02*
X95478600Y-161102000D01*
X95250000Y-162753000D02*
X95250000Y-162981600D01*
X95250000Y-162981600D02*
X95478600Y-162981600D01*
X97561400Y-162981600D02*
X97790000Y-162981600D01*
X97790000Y-161102000D02*
X97586800Y-161102000D01*
X97790000Y-161102000D02*
X97790000Y-161305200D01*
X97790000Y-162753000D02*
X97790000Y-162981600D01*
X95072200Y-161305200D02*
X94970600Y-161381400D01*
X94970600Y-161229000D01*
X95072200Y-161305200D01*
G36*
X95072200Y-161305200D02*
G01*
X94970600Y-161381400D01*
X94970600Y-161229000D01*
X95072200Y-161305200D01*
G37*
D13*
%TO.C,D32*%
X83186000Y-159801800D02*
X83186000Y-165311800D01*
X86486000Y-159801800D02*
X83186000Y-159801800D01*
X86486000Y-159801800D02*
X86486000Y-165311800D01*
%TO.C,D30*%
X158300620Y-131621708D02*
X161585427Y-133921758D01*
X159447783Y-129983407D02*
X158300620Y-131621708D01*
X159447783Y-129983407D02*
X162732582Y-132283453D01*
%TO.C,D15*%
X35382538Y-65724935D02*
X32058101Y-63482570D01*
X35382538Y-65724935D02*
X36500926Y-64066863D01*
X36500926Y-64066863D02*
X33176480Y-61824496D01*
%TO.C,D6*%
X64816863Y-164368477D02*
X66056022Y-160554740D01*
X64816863Y-164368477D02*
X66718976Y-164986511D01*
X66718976Y-164986511D02*
X67958134Y-161172775D01*
%TO.C,C8*%
X105462400Y-167196148D02*
X105462400Y-167718652D01*
X106932400Y-167196148D02*
X106932400Y-167718652D01*
D14*
%TO.C,D41*%
X78725649Y-164103367D02*
X77281426Y-168548224D01*
X80258739Y-169248544D02*
X81624471Y-165045250D01*
X81624471Y-165045250D02*
X78725649Y-164103367D01*
D13*
%TO.C,D12*%
X28808995Y-106096164D02*
X24799593Y-106166145D01*
X28843888Y-108095869D02*
X24834504Y-108165844D01*
X28843888Y-108095869D02*
X28808995Y-106096164D01*
%TO.C,D19*%
X106176800Y-156785000D02*
X100666800Y-156785000D01*
X106176800Y-160085000D02*
X100666800Y-160085000D01*
X106176800Y-160085000D02*
X106176800Y-156785000D01*
D14*
%TO.C,D33*%
X156923112Y-137273111D02*
X160498657Y-139870918D01*
X160498657Y-139870918D02*
X162290215Y-137404998D01*
X162290215Y-137404998D02*
X158509205Y-134657942D01*
%TO.C,D34*%
X169049697Y-94907100D02*
X173469302Y-94907100D01*
X173469301Y-91859102D02*
X168795701Y-91859101D01*
X173469302Y-94907100D02*
X173469301Y-91859102D01*
D13*
%TO.C,R5*%
X107934136Y-157535200D02*
X109388264Y-157535200D01*
X107934136Y-159355200D02*
X109388264Y-159355200D01*
D14*
%TO.C,D16*%
X76782311Y-24681473D02*
X78226538Y-29126329D01*
X79681135Y-23739592D02*
X76782311Y-24681473D01*
X81046864Y-27942876D02*
X79681135Y-23739592D01*
D13*
%TO.C,C10*%
X109678794Y-167718644D02*
X109678812Y-167196144D01*
X111148788Y-167718656D02*
X111148806Y-167196156D01*
%TO.C,R2*%
X93549800Y-167817264D02*
X93549800Y-167363136D01*
X95019800Y-167817264D02*
X95019800Y-167363136D01*
%TO.C,D31*%
X147510931Y-146213476D02*
X150582792Y-148791046D01*
X148796513Y-144681366D02*
X147510931Y-146213476D01*
X148796513Y-144681366D02*
X151868354Y-147258954D01*
D14*
%TO.C,D35*%
X153977785Y-53538639D02*
X157553350Y-50940854D01*
X155761746Y-48474972D02*
X151980746Y-51222039D01*
X157553350Y-50940854D02*
X155761746Y-48474972D01*
%TO.C,D4*%
X71131049Y-161607673D02*
X69686830Y-166052532D01*
X72664136Y-166752847D02*
X74029868Y-162549557D01*
X74029868Y-162549557D02*
X71131049Y-161607673D01*
D13*
%TO.C,C3*%
X92279800Y-162085348D02*
X92279800Y-162607852D01*
X93749800Y-162085348D02*
X93749800Y-162607852D01*
%TO.C,R3*%
X99388664Y-165523200D02*
X98934536Y-165523200D01*
X99388664Y-166993200D02*
X98934536Y-166993200D01*
%TO.C,C9*%
X107621400Y-167718652D02*
X107621400Y-167196148D01*
X109091400Y-167718652D02*
X109091400Y-167196148D01*
D14*
%TO.C,D37*%
X69146366Y-27133298D02*
X70590580Y-31578139D01*
X72045192Y-26191391D02*
X69146366Y-27133298D01*
X73410920Y-30394707D02*
X72045192Y-26191391D01*
D13*
%TO.C,D5*%
X62530863Y-163581077D02*
X63770022Y-159767340D01*
X62530863Y-163581077D02*
X64432976Y-164199111D01*
X64432976Y-164199111D02*
X65672134Y-160385375D01*
%TO.C,D24*%
X158860287Y-63978761D02*
X159920127Y-65674857D01*
X158860287Y-63978761D02*
X162260960Y-61853785D01*
X159920127Y-65674857D02*
X163320798Y-63549880D01*
%TO.C,J1*%
X94234000Y-172525000D02*
X101422200Y-172525000D01*
X101422200Y-177156800D01*
X94234000Y-177156800D01*
X94234000Y-172525000D01*
%TO.C,D21*%
X127703345Y-34604947D02*
X129205518Y-30886940D01*
X127703345Y-34604947D02*
X129557712Y-35354161D01*
X129557712Y-35354161D02*
X131059885Y-31636153D01*
%TO.C,D27*%
X166803976Y-105857801D02*
X166804000Y-107857827D01*
X166803976Y-105857801D02*
X170813985Y-105857806D01*
X166804000Y-107857827D02*
X170813995Y-107857801D01*
%TO.C,L1*%
X95070800Y-156327000D02*
X98070800Y-156327000D01*
X95070800Y-159527000D02*
X98070800Y-159527000D01*
D14*
%TO.C,D26*%
X169049700Y-102908100D02*
X173469302Y-102908099D01*
X173469300Y-99860098D02*
X168795701Y-99860099D01*
X173469302Y-102908099D02*
X173469300Y-99860098D01*
D13*
%TO.C,D28*%
X166694329Y-87398775D02*
X166764130Y-89397568D01*
X166694329Y-87398775D02*
X170701866Y-87258818D01*
X166764130Y-89397568D02*
X170771721Y-89257599D01*
%TO.C,D2*%
X128840533Y-159674666D02*
X130212034Y-163442833D01*
X130719918Y-158990625D02*
X128840533Y-159674666D01*
X130719918Y-158990625D02*
X132091419Y-162758793D01*
D14*
%TO.C,D23*%
X158727589Y-59990240D02*
X162303143Y-57392449D01*
X160511550Y-54926569D02*
X156730547Y-57673637D01*
X162303143Y-57392449D02*
X160511550Y-54926569D01*
D13*
%TO.C,C1*%
X92279800Y-158645452D02*
X92279800Y-158122948D01*
X93749800Y-158645452D02*
X93749800Y-158122948D01*
%TO.C,D3*%
X126624740Y-160506546D02*
X127996241Y-164274713D01*
X128504125Y-159822505D02*
X126624740Y-160506546D01*
X128504125Y-159822505D02*
X129875626Y-163590673D01*
%TO.C,R4*%
X102744536Y-162068800D02*
X103198664Y-162068800D01*
X102744536Y-163538800D02*
X103198664Y-163538800D01*
%TO.C,D14*%
X47092295Y-49871989D02*
X43848136Y-47514972D01*
X47092295Y-49871989D02*
X48267865Y-48253956D01*
X48267865Y-48253956D02*
X45023707Y-45896938D01*
%TO.C,D9*%
X35775424Y-129447982D02*
X32412354Y-131631984D01*
X36864702Y-131125322D02*
X33501633Y-133309326D01*
X36864702Y-131125322D02*
X35775424Y-129447982D01*
D14*
%TO.C,D38*%
X33321296Y-57400599D02*
X37102313Y-60147654D01*
X35112858Y-54934681D02*
X33321296Y-57400599D01*
X38688401Y-57532488D02*
X35112858Y-54934681D01*
D13*
%TO.C,D17*%
X84576042Y-29087215D02*
X83470737Y-25232557D01*
X84576042Y-29087215D02*
X86498567Y-28535940D01*
X86498567Y-28535940D02*
X85393260Y-24681280D01*
%TO.C,D22*%
X108547538Y-28220260D02*
X109853069Y-24428732D01*
X108547538Y-28220260D02*
X110438574Y-28871398D01*
X110438574Y-28871398D02*
X111744103Y-25079862D01*
%TO.C,D25*%
X147312135Y-48101556D02*
X148487705Y-49719590D01*
X147312135Y-48101556D02*
X150556303Y-45744539D01*
X148487705Y-49719590D02*
X151731853Y-47362565D01*
D14*
%TO.C,D42*%
X122198337Y-164340850D02*
X123564053Y-168544192D01*
X123564053Y-168544192D02*
X126462906Y-167602263D01*
X126462906Y-167602263D02*
X125018674Y-163157436D01*
%TO.C,D29*%
X152196278Y-143712895D02*
X155771809Y-146310668D01*
X155771809Y-146310668D02*
X157563378Y-143844787D01*
X157563378Y-143844787D02*
X153782354Y-141097716D01*
%TO.C,D20*%
X123510662Y-26208966D02*
X122066445Y-30653824D01*
X125043754Y-31354140D02*
X126409481Y-27150849D01*
X126409481Y-27150849D02*
X123510662Y-26208966D01*
%TD*%
M02*
